<?xml version="1.0" encoding="UTF-8" standalone="no"?>
<svg
   xmlns:dc="http://purl.org/dc/elements/1.1/"
   xmlns:cc="http://creativecommons.org/ns#"
   xmlns:rdf="http://www.w3.org/1999/02/22-rdf-syntax-ns#"
   xmlns:svg="http://www.w3.org/2000/svg"
   xmlns="http://www.w3.org/2000/svg"
   xmlns:sodipodi="http://sodipodi.sourceforge.net/DTD/sodipodi-0.dtd"
   xmlns:inkscape="http://www.inkscape.org/namespaces/inkscape"
   version="1.1"
   id="svg916"
   width="1694.8966"
   height="1003.0345"
   viewBox="0 0 1694.8966 1003.0345"
   sodipodi:docname="bushdark.svg"
   inkscape:version="1.0.1 (3bc2e813f5, 2020-09-07)">
  <metadata
     id="metadata922">
    <rdf:RDF>
      <cc:Work
         rdf:about="">
        <dc:format>image/svg+xml</dc:format>
        <dc:type
           rdf:resource="http://purl.org/dc/dcmitype/StillImage" />
        <dc:title></dc:title>
      </cc:Work>
    </rdf:RDF>
  </metadata>
  <defs
     id="defs920" />
  <sodipodi:namedview
     pagecolor="#ffffff"
     bordercolor="#666666"
     borderopacity="1"
     objecttolerance="10"
     gridtolerance="10"
     guidetolerance="10"
     inkscape:pageopacity="0"
     inkscape:pageshadow="2"
     inkscape:window-width="1920"
     inkscape:window-height="1001"
     id="namedview918"
     showgrid="false"
     inkscape:zoom="0.51190144"
     inkscape:cx="317.77246"
     inkscape:cy="485.06111"
     inkscape:window-x="-9"
     inkscape:window-y="-9"
     inkscape:window-maximized="1"
     inkscape:current-layer="g924" />
  <g
     inkscape:groupmode="layer"
     inkscape:label="Image"
     id="g924">
    <path
       style="fill:#3b7d59;stroke-width:0.965322;fill-opacity:1"
       d="m 894.09674,765.4555 c -1.62598,-1.71364 -3.65883,-4.5103 -4.51742,-6.21479 -2.62134,-5.20393 -4.67619,-15.79434 -4.12802,-21.2753 0.30534,-3.05306 0.12557,-5.06794 -0.45218,-5.06794 -1.73441,0 -4.99273,2.06444 -20.77547,13.16321 -8.57967,6.03342 -15.85579,10.96984 -16.16915,10.96984 -0.31335,0 -0.56974,-3.48879 -0.56974,-7.75287 0,-5.66932 -0.35498,-7.88909 -1.32086,-8.25974 -0.72647,-0.27877 -5.81826,1.47245 -11.31509,3.89159 -5.49682,2.41915 -10.58775,4.39844 -11.31318,4.39844 -1.01466,0 -1.16231,-0.94649 -0.64002,-4.10261 1.03895,-6.27803 3.69048,-12.5832 10.11966,-24.06387 3.2294,-5.76678 5.65369,-10.8377 5.38732,-11.26871 -0.26638,-0.431 -3.6532,-1.32398 -7.52628,-1.98441 -3.87307,-0.66041 -7.74538,-1.39633 -8.60513,-1.63535 -1.33759,-0.37186 -1.66134,0.997 -2.24333,9.48499 -0.7956,11.60384 -2.20179,18.08321 -4.081,18.80434 -1.74425,0.66933 -14.1609,-3.69154 -23.96812,-8.41788 -6.47473,-3.12033 -8.25394,-4.51161 -11.01096,-8.61022 -1.80861,-2.68869 -3.37938,-4.88852 -3.49062,-4.88852 -0.11122,0 -1.18566,2.71497 -2.38762,6.03326 -2.57882,7.11945 -7.84397,17.82473 -11.44086,23.26193 l -2.56026,3.87018 -0.60978,-2.82684 c -0.33538,-1.55476 -0.66117,-5.08178 -0.72399,-7.83782 -0.13382,-5.87127 -1.36907,-7.1135 -3.96944,-3.99189 -2.48069,2.97795 -8.16247,13.86564 -9.62931,18.45213 -0.86085,2.69167 -1.5927,3.53199 -2.7718,3.18263 -0.88116,-0.26108 -6.16326,-1.60196 -11.738,-2.97972 -5.57474,-1.37775 -11.96041,-3.18649 -14.19039,-4.0194 -7.39277,-2.76123 -14.01597,-11.20041 -15.35316,-19.56276 -0.89414,-5.59163 -2.07225,-5.72645 -2.85936,-0.3272 -0.36914,2.53218 -1.50593,7.33663 -2.52619,10.67657 l -1.85503,6.07261 -14.67022,7.11506 c -8.06863,3.91329 -16.32485,7.79369 -18.34716,8.6231 -3.43193,1.40757 -3.64456,1.39718 -3.19111,-0.15582 1.48906,-5.09987 2.47973,-14.19563 2.98133,-27.3729 l 0.56467,-14.83449 -2.39199,5.07933 c -6.23474,13.23931 -14.75055,25.88582 -27.41876,40.71857 l -2.8387,3.32371 -2.54011,-2.84105 c -1.39706,-1.56259 -4.70582,-7.18501 -7.3528,-12.49428 -5.30368,-10.63804 -7.15256,-19.03019 -6.58492,-29.88912 0.17705,-3.38706 0.24657,-6.08099 0.15449,-5.98651 -0.0921,0.0945 -4.35092,8.59434 -9.46407,18.88859 -5.11314,10.29424 -9.64315,18.32761 -10.06667,17.85192 -0.42352,-0.47569 -3.27738,-4.34004 -6.3419,-8.58746 -5.92204,-8.20792 -12.87505,-15.92782 -14.34553,-15.92782 -0.52092,0 -0.68839,5.48763 -0.40509,13.27318 0.399,10.96505 0.8542,14.08449 2.6177,17.93869 1.17409,2.56603 1.87595,4.92427 1.55969,5.24054 -0.31627,0.31627 -3.06298,-0.20922 -6.10379,-1.16776 -4.51329,-1.42268 -6.78334,-3.00576 -12.35942,-8.61917 -3.83585,-3.86153 -7.95482,-9.1574 -9.3947,-12.07903 -2.52587,-5.12517 -2.57833,-5.16506 -3.52355,-2.67896 -0.52773,1.38803 -1.40526,6.07864 -1.95007,10.42358 -0.5448,4.34494 -1.15966,8.06899 -1.36634,8.27567 -0.7175,0.71749 -9.2811,-10.86138 -13.85974,-18.7398 -2.53224,-4.35719 -4.91304,-7.94094 -5.29066,-7.96391 -1.11155,-0.0676 -3.65736,9.62202 -3.65736,13.92027 0,2.17711 0.61598,6.33303 1.36884,9.23539 0.75286,2.90236 1.24205,5.40379 1.08709,5.55877 -0.15498,0.15496 -4.32418,-2.42218 -9.26493,-5.72698 -11.96365,-8.00236 -15.98147,-12.26375 -17.95123,-19.03947 l -1.57287,-5.4105 -1.35077,5.29567 c -1.56312,6.12816 -5.00696,11.77331 -8.63093,14.14783 -3.17259,2.07876 -12.77011,4.13312 -19.43256,4.15957 -4.35062,0.0173 -5.06794,-0.24067 -5.06794,-1.8224 0,-1.53044 2.26366,-9.78718 7.76524,-28.3238 0.43333,-1.46005 0.4319,-2.65464 -0.003,-2.65464 -0.4351,0 -4.59534,3.25922 -9.24498,7.24272 -7.25829,6.21841 -9.53304,7.58362 -16.08449,9.65322 -4.19684,1.32578 -7.89068,2.41051 -8.20854,2.41051 -0.31787,0 -0.29327,-4.34395 0.0546,-9.65322 0.34794,-5.30928 0.39796,-9.65323 0.11115,-9.65323 -0.28682,0 -1.55452,0.67688 -2.81713,1.50417 l -2.29565,1.50417 0.15765,-11.39872 c 0.0953,-6.88752 -0.2244,-11.52389 -0.80769,-11.71497 -0.53093,-0.17393 -2.10021,2.92045 -3.48731,6.87641 -3.93829,11.23191 -10.18178,22.02635 -17.84235,30.84784 -6.50522,7.49074 -15.09408,15.20206 -16.9323,15.20206 -1.89577,0 -3.90908,-10.95815 -3.58142,-19.49319 l 0.33424,-8.70667 -1.93064,2.70634 c -7.06647,9.90564 -15.43449,15.59962 -26.79895,18.23522 -5.59142,1.29674 -7.18199,1.30428 -13.66034,0.0648 -11.3499,-2.1716 -11.38435,-2.25349 -3.62012,-8.60565 6.70698,-5.48718 15.11455,-13.97011 14.47745,-14.60721 -0.18405,-0.18405 -4.93357,-0.76075 -10.55448,-1.28153 -12.38208,-1.14723 -16.41229,-2.96262 -28.26729,-12.73288 -4.57567,-3.77102 -8.32001,-6.93909 -8.32076,-7.04017 -7.5e-4,-0.10107 5.65268,-0.0405 12.56317,0.13455 12.86573,0.32596 19.46839,-0.53136 25.82335,-3.353 l 3.60636,-1.60126 -5.08625,-0.81403 c -2.79743,-0.44771 -6.68214,-1.48083 -8.63268,-2.29581 l -3.54644,-1.4818 4.7714,-3.22731 c 2.62427,-1.77501 5.55034,-4.09768 6.50238,-5.16149 1.66444,-1.85983 1.66444,-1.96042 0,-2.6164 -6.29249,-2.47995 -17.4095,-2.06292 -30.19399,1.13267 -2.02245,0.50553 -1.52969,-0.36123 3.1373,-5.51842 3.04513,-3.36497 5.5366,-6.46107 5.5366,-6.88021 0,-0.41914 -1.84618,-1.26351 -4.10262,-1.87638 -2.25644,-0.61288 -4.71459,-1.29474 -5.46255,-1.51526 -2.15081,-0.63411 3.05843,-5.45917 13.19988,-12.22642 10.07655,-6.72393 10.02723,-5.82647 0.64151,-11.6744 -2.47386,-1.54138 -6.46371,-5.45094 -8.86634,-8.68791 -4.12968,-5.56374 -10.53067,-17.63275 -9.76036,-18.40305 0.19575,-0.19575 2.73056,0.26007 5.63292,1.01294 6.24988,1.6212 10.83904,1.70655 19.3361,0.35963 9.1687,-1.45339 9.53,-1.64564 11.67721,-6.21364 2.01791,-4.29293 4.72378,-5.97687 14.77181,-9.19298 4.57355,-1.46387 3.56691,-2.17978 -5.38055,-3.82656 -4.81429,-0.88607 -7.68504,-0.91954 -11.3553,-0.13242 -5.6685,1.21568 -14.87966,5.6464 -19.07181,9.17385 l -2.88908,2.431 -1.27005,-9.5958 c -1.17931,-8.9102 -1.14044,-9.88325 0.544,-13.61868 2.62497,-5.82115 9.70148,-11.11312 15.83595,-11.8425 2.67322,-0.31784 6.98737,-0.82965 9.587,-1.13738 l 4.72659,-0.55949 -6.89857,-3.64248 c -3.79421,-2.00337 -8.93805,-4.94047 -11.43074,-6.5269 l -4.53218,-2.8844 4.98937,-1.15169 c 7.04431,-1.62602 37.45574,-17.28784 37.33686,-19.2284 -0.023,-0.37478 -3.6775,-2.79519 -8.12119,-5.3787 -8.53438,-4.96178 -15.00481,-9.8242 -15.00481,-11.27585 0,-0.47855 3.29597,-2.67902 7.32438,-4.88994 l 7.32437,-4.01985 -6.61639,-6.86498 c -10.7184,-11.12112 -13.24262,-14.04302 -12.64659,-14.63905 0.30969,-0.30969 3.75516,-0.99973 7.6566,-1.53341 10.40914,-1.42389 34.60521,-10.16763 34.60521,-12.50529 0,-0.43992 -4.01816,-0.92475 -8.92924,-1.07741 l -8.92923,-0.27756 25.5747,-15.92781 25.57471,-15.92782 -10.21213,-0.58056 c -11.53706,-0.65586 -17.72628,-2.87853 -26.53506,-9.52921 -4.07776,-3.07874 -11.98891,-12.13855 -11.98891,-13.72964 0,-0.22716 5.64713,-3.16629 12.54919,-6.53142 6.90205,-3.36513 12.52595,-6.37904 12.49754,-6.69757 -0.0284,-0.31854 -5.69196,-4.92312 -12.58568,-10.23239 l -12.53403,-9.65322 5.58709,-2.59305 c 9.4226,-4.37315 20.77181,-6.58046 33.70094,-6.55448 6.3054,0.0126 13.09335,0.40131 15.08433,0.86366 1.99098,0.46234 3.61996,0.60916 3.61996,0.32625 0,-0.28291 -1.76872,-2.43321 -3.93049,-4.77845 -3.70831,-4.02304 -8.58858,-12.82272 -8.60927,-15.5235 -0.0125,-1.62888 3.48507,-2.92069 13.98774,-5.16635 15.98929,-3.41878 44.78605,-2.07792 56.93429,2.65104 1.051,0.40912 -1.12414,-2.29121 -4.83365,-6.00072 -9.94183,-9.94181 -16.86638,-25.04955 -16.86638,-36.79845 v -4.14787 l 6.99859,0.5393 c 23.2063,1.78828 44.99034,5.78389 60.00111,11.00535 3.13594,1.09084 6.10939,1.98334 6.60765,1.98334 0.49826,0 -0.20398,-1.8939 -1.56051,-4.20866 -3.38536,-5.77669 -7.04942,-17.23419 -7.86649,-24.5985 -0.74671,-6.73002 0.12466,-19.22999 1.49432,-21.4364 0.92767,-1.49442 7.83028,1.85302 38.09748,18.4755 7.43299,4.08213 13.65722,7.29106 13.83163,7.13097 0.17443,-0.16011 -0.62448,-4.78194 -1.77534,-10.27075 -2.22256,-10.6001 -3.86896,-37.49133 -2.29539,-37.49133 2.15569,0 18.50269,10.76096 25.55345,16.82141 8.43696,7.25195 18.61532,19.22912 23.31945,27.44067 2.05684,3.59041 3.18077,4.76834 3.68427,3.86129 0.39849,-0.71788 1.69609,-6.19219 2.88355,-12.16512 1.20579,-6.06515 2.63503,-10.85988 3.23715,-10.85988 3.3206,0 18.49256,15.53719 20.93874,21.44277 1.10894,2.67721 1.20235,2.55451 4.73379,-6.21853 1.98139,-4.92231 5.36427,-12.4248 7.5175,-16.67222 4.17863,-8.24265 12.59245,-20.90177 14.23935,-21.42397 2.2231,-0.7049 7.8484,18.14795 8.7573,29.34955 l 0.66815,8.23464 2.51246,-5.15966 c 3.06327,-6.29082 12.54723,-16.03549 18.42078,-18.92715 l 4.32446,-2.12902 2.06494,1.93991 c 3.37883,3.17424 7.02652,10.78935 8.47252,17.68767 0.74532,3.55558 1.51788,6.62745 1.7168,6.82638 0.19893,0.19892 3.21171,-0.42862 6.69508,-1.39452 18.439,-5.11298 44.94492,-4.87463 62.06187,0.55807 1.35324,0.4295 0.17387,-1.35893 -3.54498,-5.37573 -3.06507,-3.31064 -6.86619,-8.26007 -8.44693,-10.99873 -3.37767,-5.85186 -7.1661,-17.362 -8.07284,-24.52715 -0.7512,-5.93614 -2.26499,-5.53334 15.35298,-4.08527 15.30768,1.25817 31.09014,4.1273 45.69759,8.30745 6.55122,1.87474 12.07729,3.24264 12.28014,3.03979 0.20286,-0.20286 -1.3186,-4.28285 -3.38101,-9.06666 -4.83402,-11.2126 -6.24381,-18.54526 -5.59838,-29.11834 0.53742,-8.80368 1.25421,-11.79248 2.82812,-11.79248 0.51727,0 12.0698,5.8492 25.67229,12.99822 13.60248,7.14902 24.85403,12.87598 25.00343,12.72659 0.14939,-0.1494 -0.15989,-1.76325 -0.6873,-3.58633 -1.74307,-6.02527 -3.83467,-24.97683 -3.83467,-34.74536 v -9.61204 l 5.55061,3.06689 c 15.52049,8.57555 30.25246,22.10647 40.6404,37.32708 3.37158,4.9401 6.35929,8.75286 6.63935,8.47279 0.28007,-0.28007 1.48413,-5.32127 2.67568,-11.20268 1.19154,-5.88141 2.41957,-10.94659 2.72893,-11.25595 1.10926,-1.10926 9.17225,4.52974 13.94702,9.75409 2.67652,2.92854 5.66651,7.05966 6.64442,9.18027 0.97791,2.12061 2.04562,3.86685 2.3727,3.88055 0.32708,0.0137 1.80316,-3.34166 3.28016,-7.45634 4.7384,-13.20034 12.5948,-27.60491 20.6588,-37.87769 l 1.8856,-2.40209 1.1331,2.88475 c 3.92021,9.98046 5.95051,17.54748 6.92621,25.81366 l 1.1112,9.4144 3.2058,-6.00004 c 4.196,-7.85349 8.9331,-12.58101 16.4742,-16.44109 l 6.1439,-3.14492 2.0132,2.41331 c 3.9,4.67506 7.7551,14.46 8.7924,22.31688 l 1.0145,7.68422 2.72,-0.59742 c 2.4388,-0.53564 2.7201,-0.33794 2.7201,1.91177 0,1.38006 -1.0853,5.18005 -2.4117,8.44443 -1.3265,3.26438 -2.2519,6.09507 -2.0566,6.29042 0.1954,0.19534 5.2671,-5.09052 11.2704,-11.74636 6.0034,-6.65584 11.4281,-12.10153 12.055,-12.10153 1.5221,0 2.5252,10.07548 1.4678,14.74295 -0.4537,2.00297 -1.5301,4.71793 -2.392,6.03327 l -1.567,2.39151 6.0556,0.004 c 13.5648,0.008 17.2501,7.40958 10.8711,21.83355 -1.3213,2.98768 -2.4023,5.62886 -2.4023,5.86932 0,0.24045 2.4532,-1.65865 5.4515,-4.22022 l 5.4516,-4.6574 -0.5555,7.2374 c -0.3054,3.98057 -0.8819,8.31954 -1.281,9.64216 -0.7043,2.334 -0.614,2.31122 3.0678,-0.77407 6.6912,-5.6071 13.2726,-9.51576 20.263,-12.03403 6.7254,-2.42277 15.8687,-4.31435 15.8687,-3.28291 0,0.29158 -2.5619,4.10676 -5.693,8.47818 -5.8073,8.10749 -14.159,22.84271 -13.3855,23.61629 0.2354,0.23539 5.6386,-1.93771 12.0072,-4.82911 13.5959,-6.17274 16.7245,-7.14236 16.7245,-5.1833 0,0.75085 -0.8599,3.9473 -1.9109,7.10323 -2.0137,6.04685 -5.0065,21.8275 -4.2777,22.55625 0.2353,0.23528 5.0905,0.3213 10.7894,0.19116 l 10.3617,-0.23662 -9.6351,9.71342 c -5.2993,5.34238 -9.3936,9.71342 -9.0983,9.71342 0.2952,0 3.6321,-1.05277 7.4152,-2.33949 9.4602,-3.21763 21.4811,-9.62305 26.7299,-14.24317 l 4.3774,-3.85319 v 8.28021 8.28021 l -6.7751,9.41301 c -3.7263,5.17716 -6.3869,9.54239 -5.9126,9.70052 0.4744,0.15814 9.82,-3.42294 20.7679,-7.95795 10.9479,-4.53502 20.1848,-8.24548 20.5265,-8.24548 0.3416,0 0.3871,2.58091 0.1011,5.73535 -0.9957,10.98065 -7.5834,20.85056 -18.7413,28.07892 -3.3007,2.13829 -3.9543,2.86766 -2.2439,2.50409 13.3305,-2.83359 30.3364,-3.09719 38.8627,-0.60238 3.0007,0.87801 3.4733,1.34566 2.7319,2.70329 -1.2949,2.37101 -13.1217,14.4854 -19.8094,20.2909 -3.1496,2.73412 -5.499,5.19862 -5.2209,5.47668 0.278,0.27805 4.1581,0.95071 8.6224,1.49479 8.1468,0.99287 26.1254,6.32924 33.0699,9.81573 5.1402,2.5806 11.8915,9.008 12.6542,12.04716 0.8446,3.36518 -1.0996,7.79936 -4.1118,9.37759 l -2.4377,1.27722 6.9197,5.17826 c 7.1078,5.31914 8.8159,7.75144 6.9891,9.95263 -0.8571,1.03276 -3.0905,0.94937 -12.3742,-0.462 -6.2305,-0.94721 -11.4988,-1.55166 -11.7072,-1.34323 -0.2085,0.20844 0.9639,2.47165 2.6051,5.02937 4.6859,7.30232 8.6548,16.79933 12.2709,29.36265 3.8283,13.30069 3.9466,14.32976 1.6452,14.31743 -2.5843,-0.0139 -10.9461,-5.18311 -14.6692,-9.06851 -1.8297,-1.9094 -3.6759,-3.47163 -4.1027,-3.47163 -0.4267,0 -0.7759,4.12675 -0.7759,9.17056 v 9.17056 h 9.5771 9.5771 l 16.7279,12.15593 c 16.5105,11.99791 22.3931,16.76964 21.6231,17.53968 -0.2167,0.21672 -5.5336,0.91066 -11.8152,1.54211 l -11.4211,1.14806 6.0761,3.27086 c 7.0429,3.79137 14.1549,9.76236 16.0939,13.51214 2.2912,4.4306 5.5528,18.57883 4.5209,19.61072 -1.1774,1.17743 -3.9587,0.26941 -24.718,-8.06977 -9.0025,-3.6164 -16.534,-6.40949 -16.7366,-6.20687 -0.2027,0.20262 2.9006,4.29611 6.8961,9.09665 8.3495,10.03183 14.6411,19.03136 16.626,23.78202 2.5954,6.21151 1.8234,6.51209 -7.2528,2.82407 -3.337,-1.35593 -6.2336,-2.29902 -6.4368,-2.09576 -0.2033,0.20327 2.4126,2.62687 5.813,5.38577 7.5858,6.15473 17.3465,16.47682 19.549,20.67347 1.6636,3.16973 6.2047,19.25059 5.6094,19.86367 -0.1793,0.18458 -2.8536,-0.6102 -5.9431,-1.76619 -5.9359,-2.22102 -34.0942,-10.62208 -34.0942,-10.17203 0,0.14522 2.3706,5.20437 5.2681,11.24259 2.8975,6.03821 5.9383,13.56759 6.7573,16.73198 1.7164,6.63172 1.961,14.03569 0.4638,14.03569 -0.5639,0 -6.7554,-3.41161 -13.7588,-7.58134 -15.4619,-9.2058 -20.7507,-11.95161 -21.7869,-11.31122 -0.4333,0.2678 -1.0719,3.84733 -1.4191,7.95449 -0.5647,6.68084 -2.7491,21.36398 -4.0301,27.08966 -0.528,2.36021 -4.9437,5.0855 -8.2398,5.0855 -1.1737,0 -3.5124,-1.55317 -5.3354,-3.54345 -3.8545,-4.20817 -10.3645,-16.42675 -11.9789,-22.48338 l -1.1481,-4.30707 -4.9894,9.70975 c -5.367,10.44478 -10.7372,18.1106 -18.3561,26.2031 -3.458,3.6729 -5.0169,4.75136 -5.5817,3.86129 -0.4311,-0.67925 -0.7904,-9.37991 -0.7985,-19.3348 -0.01,-11.41312 -0.3714,-18.09979 -0.9801,-18.09979 -0.531,0 -0.9654,0.47899 -0.9654,1.06441 0,1.88234 -7.2004,16.50255 -13.9868,28.39957 -9.2635,16.23972 -9.8953,17.0737 -12.0579,15.9163 -1.6827,-0.90054 -4.4053,-6.88109 -5.0562,-11.10658 -0.2115,-1.37345 -1.0709,-0.3434 -2.9957,3.59088 -5.1957,10.6196 -17.1948,25.37541 -28.5765,35.14188 -8.4381,7.2406 -10.3744,7.68008 -11.1468,2.53001 -1.1862,-7.90997 -4.4688,-24.7938 -4.9052,-25.23022 -0.7974,-0.7974 -1.9746,1.00814 -8.2578,12.6655 -3.3579,6.22986 -6.3641,11.0082 -6.6805,10.61854 -0.3164,-0.38965 -2.1953,-4.83521 -4.1752,-9.87902 -1.98,-5.04381 -4.4046,-10.68133 -5.3879,-12.52783 l -1.788,-3.35727 -2.9981,9.63186 c -3.8065,12.22934 -6.8411,19.76775 -7.9573,19.76775 -1.6679,0 -8.2491,-4.6651 -10.7142,-7.59474 -1.3642,-1.62116 -3.2333,-4.91949 -4.1538,-7.32963 -0.9204,-2.41014 -1.9634,-4.38207 -2.3177,-4.38207 -0.3543,0 -1.6523,4.23535 -2.8845,9.41189 -1.2322,5.17654 -2.8465,10.89688 -3.5873,12.71187 l -1.347,3.29997 -2.9437,-2.81731 c -1.6191,-1.54953 -4.7371,-5.20649 -6.9289,-8.12659 -2.1918,-2.9201 -4.3063,-5.69438 -4.6989,-6.16507 -0.3926,-0.47069 -3.1625,1.32676 -6.1555,3.99433 -5.17331,4.61087 -15.28561,10.44386 -19.16851,11.05676 -2.1286,0.33601 -2.9663,-0.95643 -4.8207,-7.43803 l -1.3809,-4.82662 -0.1005,10.64509 c -0.1171,12.40919 -1.1737,14.93595 -6.24531,14.93595 -3.81422,0 -11.96574,-4.75232 -21.18283,-12.34952 -3.67596,-3.02991 -7.2157,-5.89768 -7.86609,-6.3728 -0.78559,-0.57389 -3.17167,0.48692 -7.10828,3.16022 -7.70267,5.23078 -8.56812,5.50703 -10.83263,3.45769 -1.04533,-0.94602 -2.04593,-1.5417 -2.22355,-1.32374 -2.59638,3.18609 -23.85745,26.77818 -24.91359,27.64506 -1.18993,0.97672 -1.96356,0.63727 -4.40011,-1.93064 z"
       id="path928" />
  </g>
</svg>
