<?xml version="1.0" encoding="UTF-8" standalone="no"?>
<svg
   xmlns:dc="http://purl.org/dc/elements/1.1/"
   xmlns:cc="http://creativecommons.org/ns#"
   xmlns:rdf="http://www.w3.org/1999/02/22-rdf-syntax-ns#"
   xmlns:svg="http://www.w3.org/2000/svg"
   xmlns="http://www.w3.org/2000/svg"
   xmlns:sodipodi="http://sodipodi.sourceforge.net/DTD/sodipodi-0.dtd"
   xmlns:inkscape="http://www.inkscape.org/namespaces/inkscape"
   version="1.1"
   id="svg833"
   width="425"
   height="253"
   viewBox="0 0 425 253"
   sodipodi:docname="cloud01.svg"
   inkscape:version="1.0.1 (3bc2e813f5, 2020-09-07)">
  <metadata
     id="metadata839">
    <rdf:RDF>
      <cc:Work
         rdf:about="">
        <dc:format>image/svg+xml</dc:format>
        <dc:type
           rdf:resource="http://purl.org/dc/dcmitype/StillImage" />
        <dc:title></dc:title>
      </cc:Work>
    </rdf:RDF>
  </metadata>
  <defs
     id="defs837" />
  <sodipodi:namedview
     pagecolor="#ffffff"
     bordercolor="#666666"
     borderopacity="1"
     objecttolerance="10"
     gridtolerance="10"
     guidetolerance="10"
     inkscape:pageopacity="0"
     inkscape:pageshadow="2"
     inkscape:window-width="1920"
     inkscape:window-height="1001"
     id="namedview835"
     showgrid="false"
     inkscape:zoom="2.8870588"
     inkscape:cx="212.5"
     inkscape:cy="125.80725"
     inkscape:window-x="-9"
     inkscape:window-y="-9"
     inkscape:window-maximized="1"
     inkscape:current-layer="g841" />
  <g
     inkscape:groupmode="layer"
     inkscape:label="Image"
     id="g841">
    <path
       style="fill:#1a1a1a;stroke-width:0.925419"
       d="m 269.58768,207.3748 c -10.35526,-1.89373 -22.3515,-7.12415 -29.25272,-12.75432 l -4.02268,-3.28179 -6.15694,2.8653 c -9.98646,4.64749 -12.77111,5.23137 -24.6653,5.17178 -9.0042,-0.0451 -12.14279,-0.43611 -16.5907,-2.06686 -5.37958,-1.97235 -5.52276,-1.97753 -7.40335,-0.26797 -9.61513,8.74058 -25.99456,12.49501 -38.5351,8.83286 -10.82278,-3.16051 -22.14185,-11.75446 -26.44703,-20.07977 -0.95101,-1.83902 -1.88347,-2.5336 -2.94173,-2.19123 -11.40139,3.68852 -16.086229,4.49336 -26.535688,4.5587 -16.712236,0.10452 -27.533071,-3.3304 -39.98941,-12.69399 -6.227162,-4.68105 -12.468101,-13.08622 -14.361995,-19.34245 -0.640317,-2.11521 -1.166351,-7.39518 -1.168962,-11.73327 -0.0042,-7.09523 0.309212,-8.52499 3.121168,-14.23515 5.812703,-11.80372 17.459407,-20.74019 33.428126,-25.64931 5.513332,-1.69491 9.156678,-2.14059 17.716775,-2.16721 l 10.776138,-0.0335 1.527613,-4.841513 c 4.000305,-12.67832 16.544545,-21.174445 30.115475,-20.396995 3.31728,0.19004 6.65609,0.610898 7.41956,0.93524 1.0409,0.442199 2.35897,-1.421363 5.26931,-7.450019 6.78801,-14.061153 18.64215,-25.690583 34.58682,-33.931192 13.11757,-6.779496 20.10127,-8.339574 36.95363,-8.255002 16.69286,0.08376 24.4171,1.716081 36.55403,7.724724 20.85224,10.323336 37.33664,30.476027 41.77902,51.076152 l 1.52493,7.071456 5.83834,1.58036 c 10.35153,2.802036 23.72741,10.233629 28.24836,15.694689 1.29692,1.56662 2.71203,1.82495 10.17961,1.85834 7.44752,0.0332 9.42939,0.39307 14.02334,2.54571 2.94252,1.37881 7.79495,4.83898 10.78317,7.68926 7.08934,6.76208 9.50738,12.2257 10.02693,22.65617 0.54597,10.96087 -1.74477,16.93699 -9.42163,24.57905 -6.80897,6.77813 -12.26178,9.54388 -21.32294,10.81537 l -6.8372,0.95942 -7.24505,7.11537 c -7.91638,7.77468 -18.02945,13.53464 -28.52969,16.24926 -6.69634,1.7312 -22.39047,2.49944 -28.44423,1.39233 z m 27.4561,-6.1284 c 10.70475,-2.72883 18.80192,-7.47975 27.28704,-16.01035 l 7.79054,-7.83229 6.03406,-0.3126 c 8.00263,-0.41458 14.64392,-3.53372 20.47652,-9.61703 6.34956,-6.62244 8.69563,-12.99718 8.05067,-21.87515 -0.82435,-11.34724 -7.01033,-19.92833 -18.10432,-25.11405 -4.42577,-2.06876 -6.46991,-2.43219 -13.71624,-2.43864 l -8.51537,-0.007 -3.51506,-3.37934 c -7.40099,-7.11571 -20.30334,-13.41113 -32.76643,-15.988127 -2.10637,-0.435539 -2.48286,-1.078942 -2.95272,-5.046117 -0.79032,-6.67303 -4.92739,-18.266613 -8.78339,-24.614293 -4.53008,-7.457278 -15.75331,-19.044295 -23.31667,-24.072405 -23.7228,-15.771046 -56.55367,-16.559972 -81.49003,-1.958364 -13.87279,8.12327 -26.78485,22.866782 -31.47195,35.935943 l -2.13894,5.964003 -4.46876,-1.697994 c -5.83444,-2.216914 -11.50445,-2.148384 -17.82226,0.215406 -9.12949,3.415777 -16.25807,13.040919 -16.24461,21.933768 0.004,2.85368 -0.1397,2.98553 -2.540324,2.32508 -1.399692,-0.3851 -6.917501,-0.69027 -12.261795,-0.67818 -16.848736,0.0382 -29.650601,4.90238 -39.852299,15.1423 -10.541228,10.58073 -13.183182,20.0149 -9.14973,32.67279 1.86069,5.83927 2.960661,7.55737 8.23433,12.86166 15.535061,15.62521 40.951306,20.35488 64.060798,11.92096 4.16154,-1.51878 7.6513,-2.66005 7.75502,-2.53618 0.10377,0.12384 1.12809,2.09922 2.27634,4.38962 4.72714,9.42917 12.21884,15.75942 22.91547,19.36285 12.22064,4.11684 26.10063,0.98118 36.64756,-8.27915 l 3.04833,-2.67647 6.86314,2.46998 c 5.69732,2.05042 8.43515,2.47144 16.11734,2.47852 10.80427,0.0105 17.67005,-1.72146 25.78407,-6.50225 l 5.42487,-3.19633 3.88771,3.58356 c 13.77631,12.69855 36.29684,17.71499 56.45709,12.57578 z"
       id="path1406" />
    <path
       style="fill:#ffffff;stroke-width:0.346373"
       d="m 273.57435,202.69251 c -13.27062,-1.67154 -24.36118,-6.55236 -33.36449,-14.68329 -1.8098,-1.63444 -3.41766,-2.9718 -3.57301,-2.97192 -0.15536,-1.2e-4 -1.61139,0.78472 -3.23563,1.74408 -9.03718,5.33785 -13.89462,6.94016 -23.15265,7.63729 -9.46923,0.71302 -14.55042,-0.0107 -23.93935,-3.40994 l -3.84971,-1.39376 -2.38501,2.07665 c -11.1013,9.66594 -24.29861,12.92249 -36.63461,9.03991 -11.07115,-3.4845 -18.79055,-10.17093 -24.11726,-20.89005 -0.80468,-1.61929 -1.49406,-2.9803 -1.53195,-3.02447 -0.0379,-0.0442 -3.33197,0.996 -7.32017,2.31147 -11.292541,3.72475 -19.591361,4.95465 -28.369724,4.20447 -14.759242,-1.26129 -26.806357,-6.60512 -36.372671,-16.13409 -4.396746,-4.37958 -6.083105,-6.95194 -7.60349,-11.59829 -1.663115,-5.08253 -2.062305,-7.27427 -2.051257,-11.26235 0.02137,-7.71542 3.40723,-14.59627 10.834524,-22.01827 7.946979,-7.94132 16.723024,-12.30871 28.947854,-14.40587 4.520971,-0.77557 18.423999,-0.87026 22.435126,-0.1528 1.480517,0.26482 2.792158,0.38118 2.914758,0.25858 0.12259,-0.1226 0.34302,-1.66494 0.48983,-3.42742 0.31568,-3.78985 0.69839,-5.209962 2.21711,-8.227081 3.32544,-6.606387 8.92318,-11.320413 16.10577,-13.563166 2.18933,-0.683616 3.3058,-0.807486 7.10065,-0.787812 4.40546,0.02283 4.59165,0.05541 8.60827,1.50583 2.25798,0.815366 4.21993,1.350398 4.3599,1.188961 0.13997,-0.161438 0.76629,-1.77427 1.39184,-3.58407 3.2451,-9.388548 8.62431,-17.629664 16.97277,-26.002782 11.93426,-11.969511 26.39145,-19.165696 43.5349,-21.669844 5.59779,-0.817672 16.17522,-0.81422 21.59727,0.007 14.12624,2.139671 26.08151,7.165802 35.82989,15.063286 5.34194,4.327684 14.06673,13.674562 17.54362,18.794524 4.22664,6.224002 8.8995,18.603625 9.99486,26.479021 0.20347,1.462883 0.56469,3.068039 0.80271,3.567007 0.45702,0.958041 0.41775,0.942572 6.64455,2.618049 10.89571,2.931767 21.00659,8.276987 28.39086,15.009137 l 3.41961,3.11762 8.00337,0.18024 c 4.40186,0.0991 8.70478,0.35976 9.56206,0.57918 2.1794,0.55779 7.45641,3.10698 10.08729,4.8729 3.16311,2.12317 7.1482,6.33642 8.85739,9.36449 4.20677,7.4529 5.0609,17.08311 2.18838,24.6738 -1.78738,4.7232 -7.23112,11.11111 -12.27458,14.40352 -4.89171,3.19335 -10.99356,4.88119 -17.66431,4.88615 l -2.74429,0.002 -6.26141,6.16158 c -3.44378,3.38886 -7.63316,7.18435 -9.30973,8.43441 -7.27573,5.42482 -14.64819,8.57149 -24.31517,10.37805 -4.34431,0.81186 -14.64079,1.16741 -18.76469,0.64798 z"
       id="path1408" />
    <path
       style="fill:#f2f2f2;stroke-width:0.346373"
       d="m 273.28851,202.66827 c -12.78173,-1.5523 -24.08979,-6.56146 -33.07865,-14.65295 -1.8098,-1.62912 -3.42477,-2.96569 -3.58881,-2.97014 -0.16405,-0.004 -1.56686,0.75647 -3.11736,1.69094 -8.68925,5.23691 -13.99269,6.98463 -23.33199,7.68894 -9.43775,0.71173 -14.43747,-0.004 -23.86248,-3.41633 l -3.84971,-1.39376 -2.38501,2.07665 c -11.59058,10.09196 -25.14199,13.12277 -38.15667,8.53384 -10.18566,-3.59142 -17.50139,-10.12932 -22.42153,-20.0376 -0.70949,-1.42879 -1.4314,-2.77396 -1.60425,-2.98928 -0.22574,-0.28119 -2.33677,0.27196 -7.49355,1.96354 -8.10024,2.65711 -12.434459,3.59613 -19.198883,4.1595 -13.518623,1.12587 -28.0359,-2.74768 -38.713859,-10.32977 -3.995047,-2.83675 -9.712486,-8.45686 -11.702147,-11.50293 -1.497475,-2.29256 -3.537069,-7.84014 -4.204325,-11.43554 -1.542718,-8.31267 0.08812,-15.02879 5.357061,-22.06152 8.33828,-11.12953 19.169409,-17.54135 33.919399,-20.07965 4.482357,-0.77135 18.841923,-0.86313 22.482645,-0.14368 2.231619,0.44098 2.424329,0.43003 2.857579,-0.16248 0.26455,-0.36179 0.46458,-1.51744 0.46458,-2.68399 0,-7.415373 5.82102,-16.108452 13.46434,-20.107581 4.19716,-2.196034 6.89783,-2.82652 11.9941,-2.800098 4.40678,0.02286 4.59062,0.05504 8.61629,1.508649 3.23354,1.167583 4.17359,1.38798 4.39463,1.030332 0.15465,-0.25023 0.77737,-1.864329 1.38382,-3.586885 3.29172,-9.349806 8.66172,-17.543395 16.93804,-25.844157 11.93426,-11.969511 26.39145,-19.165696 43.5349,-21.669844 5.56556,-0.812963 16.16166,-0.813389 21.59727,-8.68e-4 13.50411,2.018607 25.69762,7.039135 35.02634,14.42166 5.69646,4.508045 14.64306,13.989517 18.34717,19.444065 4.22664,6.224002 8.8995,18.603625 9.99486,26.479021 0.51031,3.66898 0.89949,4.349804 2.78893,4.878875 0.85727,0.240051 3.27323,0.91869 5.36878,1.508091 10.81844,3.04281 20.32147,8.12525 27.71797,14.82422 l 3.42425,3.10133 7.98228,0.16935 c 8.99977,0.19095 10.23776,0.41828 14.82093,2.72154 4.19649,2.10893 6.69824,3.89855 9.61407,6.87739 4.16151,4.25144 6.75914,9.6238 7.5945,15.7068 1.32783,9.6691 -1.20629,17.06413 -8.27633,24.15193 -6.15408,6.16953 -12.23458,8.80007 -21.31287,9.22037 l -4.50286,0.20846 -6.23471,6.11447 c -3.4291,3.36296 -7.60647,7.13725 -9.28304,8.38731 -7.27573,5.42481 -14.64819,8.57148 -24.31517,10.37804 -4.43254,0.82835 -14.61941,1.16188 -19.05053,0.62374 z"
       id="path1410" />
    <path
       style="fill:#f9f9f9;stroke-width:0.346373"
       d="m 270.34434,202.13571 c -1.04778,-0.24703 -2.4506,-0.52301 -3.11736,-0.6133 -0.66677,-0.0903 -1.71888,-0.31851 -2.33802,-0.50717 -0.61915,-0.18865 -1.12572,-0.25686 -1.12572,-0.15158 0,0.10528 -0.19483,0.0324 -0.43296,-0.16203 -0.23813,-0.19439 -1.25976,-0.59727 -2.27029,-0.89527 -2.54063,-0.74924 -7.28338,-2.81891 -10.2383,-4.46784 -1.35963,-0.75872 -2.66689,-1.38662 -2.90502,-1.39534 -0.23813,-0.009 -0.43297,-0.11932 -0.43297,-0.24578 0,-0.12646 -0.74037,-0.75285 -1.64527,-1.39198 -2.00932,-1.41918 -5.28017,-4.06532 -7.31205,-5.91552 -1.78793,-1.62805 -1.71263,-1.63899 -6.2831,0.91333 -1.8098,1.01066 -4.38163,2.35601 -5.71516,2.98966 -1.33354,0.63365 -2.50255,1.23003 -2.5978,1.32528 -0.0952,0.0953 -0.38763,0.21869 -0.64972,0.2743 -0.26208,0.0556 -1.97663,0.47402 -3.8101,0.9298 -4.53219,1.12664 -8.98954,1.61067 -14.7639,1.60325 -6.07474,-0.008 -10.18707,-0.76618 -17.2696,-3.18477 l -5.21233,-1.77995 -0.96381,1.07869 c -0.53009,0.59328 -1.08291,1.08035 -1.22847,1.08238 -0.14557,0.002 -1.00504,0.68654 -1.90994,1.52112 -0.9049,0.83459 -1.64527,1.46696 -1.64527,1.40526 0,-0.0617 -1.32671,0.72077 -2.94824,1.73879 -6.08579,3.82078 -11.22753,5.39441 -18.40903,5.63407 -5.33092,0.17791 -8.33845,-0.23894 -12.92865,-1.79191 -1.33631,-0.4521 -2.43203,-0.72059 -2.43495,-0.59663 -0.003,0.12396 -0.11982,0.0695 -0.25978,-0.121 -0.13996,-0.1905 -1.45876,-0.95731 -2.93066,-1.70401 -6.99538,-3.54879 -12.95533,-9.66984 -16.72135,-17.17333 -0.52588,-1.04778 -1.10489,-2.00041 -1.28669,-2.11696 -0.18179,-0.11656 -0.2962,-0.3447 -0.25426,-0.50699 0.0419,-0.16229 -0.16318,-0.44611 -0.45585,-0.63073 -0.50973,-0.32152 -4.23524,0.55321 -6.74977,1.58481 -0.52319,0.21465 -1.25956,0.44882 -1.63638,0.52039 -0.37682,0.0716 -1.85757,0.49942 -3.29055,0.9508 -9.85831,3.10527 -22.311281,3.87044 -31.091982,1.91043 -0.808199,-0.18041 -1.587539,-0.30287 -1.731866,-0.27214 -0.144327,0.0307 -0.496214,-0.0386 -0.781972,-0.15409 -1.395327,-0.56386 -4.276586,-1.25217 -4.545597,-1.08592 -0.166996,0.10321 -0.303629,0.0511 -0.303629,-0.1159 0,-0.16696 -0.832341,-0.56593 -1.849645,-0.88661 -1.017305,-0.32068 -3.433259,-1.35748 -5.368786,-2.30399 -1.935527,-0.94652 -3.51914,-1.64935 -3.51914,-1.56184 0,0.0875 -0.272769,-0.0744 -0.606154,-0.3599 -0.333384,-0.28545 -0.723054,-0.51773 -0.865933,-0.51617 -0.142879,0.002 -0.54638,-0.26993 -0.896669,-0.60332 -0.350289,-0.33338 -1.620142,-1.30755 -2.821894,-2.16483 -2.264619,-1.61547 -7.479506,-6.57075 -9.933155,-9.43867 -0.774188,-0.9049 -1.348318,-1.64527 -1.275842,-1.64527 0.07248,0 -0.240336,-0.74038 -0.695137,-1.64528 -0.454801,-0.9049 -0.943593,-2.02136 -1.086204,-2.48103 -0.142612,-0.45967 -0.500136,-1.39488 -0.794498,-2.07824 -0.294363,-0.68336 -0.575779,-1.47628 -0.62537,-1.76204 -0.04959,-0.28576 -0.326697,-1.77369 -0.615791,-3.30653 -0.656844,-3.4827 -0.740021,-7.32474 -0.217116,-10.02884 0.421707,-2.18078 1.829949,-6.03481 2.689461,-7.36043 0.277921,-0.42864 0.410976,-0.77934 0.295678,-0.77934 -0.115298,0 0.01163,-0.27277 0.282058,-0.60615 0.27043,-0.33339 1.420971,-1.8531 2.556756,-3.37714 2.771786,-3.71929 8.223727,-8.9327 11.873402,-11.35391 5.541259,-3.6761 12.03144,-6.31492 19.362324,-7.87244 4.653851,-0.98876 17.72648,-1.3763 23.468985,-0.69574 4.405396,0.5221 4.380546,0.53949 4.729186,-3.30785 0.13051,-1.44031 0.5253,-3.54408 0.8773,-4.675047 0.35199,-1.130968 0.53943,-2.058691 0.41653,-2.061607 -0.1229,-0.0028 -0.0504,-0.119818 0.16118,-0.25978 0.21155,-0.139963 0.6621,-0.800015 1.00123,-1.466784 0.33913,-0.666768 1.04297,-1.835778 1.56407,-2.597799 0.52112,-0.762021 0.96862,-1.500434 0.99447,-1.640916 0.0258,-0.140482 1.09728,-1.215652 2.38096,-2.389269 1.28368,-1.173613 2.5288,-2.374375 2.76693,-2.668359 0.23813,-0.293981 0.43297,-0.416174 0.43297,-0.271539 0,0.297219 2.11443,-1.114061 2.5059,-1.672561 0.13996,-0.199684 0.25686,-0.254785 0.25978,-0.122442 0.003,0.132338 0.84936,-0.145806 1.88099,-0.6181 4.33105,-1.982821 11.92409,-2.511556 16.35901,-1.139142 1.30598,0.404141 2.53038,0.769863 2.72088,0.812713 0.19051,0.04285 0.78189,0.256479 1.31418,0.474736 2.21846,0.909645 2.63309,0.886826 3.04468,-0.167548 0.21228,-0.543824 0.42087,-1.144639 0.46352,-1.335144 0.0427,-0.190506 0.33345,-0.936833 0.64621,-1.658508 0.31276,-0.721673 0.61309,-1.578946 0.6674,-1.905053 0.0543,-0.326104 0.18282,-0.670853 0.28558,-0.766105 0.10277,-0.09525 0.63068,-1.186329 1.17314,-2.424613 1.14078,-2.604114 3.1714,-6.205159 5.17593,-9.178892 0.7705,-1.143032 1.35102,-2.078239 1.29005,-2.078239 -0.061,0 0.52407,-0.694587 1.30008,-1.543527 0.776,-0.848939 1.35045,-1.603993 1.27654,-1.677897 -0.0739,-0.0739 0.39937,-0.602997 1.05171,-1.175761 0.65234,-0.572765 1.14719,-1.142589 1.09965,-1.266276 -0.0475,-0.123686 1.51165,-1.793152 3.46486,-3.709923 1.95321,-1.916771 3.55128,-3.435415 3.55128,-3.374763 0,0.06065 1.11135,-0.822853 2.46967,-1.963342 3.43822,-2.88686 7.82535,-5.835181 11.90482,-8.000505 1.90506,-1.011175 3.5591,-1.978166 3.67565,-2.148868 0.11655,-0.170702 0.31889,-0.277654 0.44963,-0.23767 0.27343,0.08362 6.17787,-2.13777 6.43911,-2.42254 0.0952,-0.103834 0.40699,-0.21037 0.69274,-0.236745 0.28576,-0.02638 1.90785,-0.457041 3.60463,-0.957034 6.99431,-2.061018 13.50902,-2.950545 21.68931,-2.96149 7.07959,-0.0095 9.67983,0.226937 15.05855,1.369092 1.90505,0.404532 3.77547,0.783122 4.15648,0.84131 0.38101,0.05819 0.92655,0.200197 1.21231,0.315575 0.28575,0.115379 1.81228,0.612526 3.39228,1.104772 3.52572,1.098436 9.64362,3.639772 12.1013,5.026799 1.00379,0.566507 1.82747,0.911779 1.83038,0.767271 0.003,-0.144507 0.11982,-0.09563 0.25978,0.108615 0.13996,0.204246 1.42349,1.11846 2.85228,2.031588 1.42879,0.913127 3.2475,2.187796 4.04159,2.832597 0.79408,0.6448 1.51611,1.172365 1.60452,1.172365 0.18748,0 1.53672,1.270751 6.52787,6.148125 1.99823,1.952679 3.55047,3.550326 3.44941,3.550326 -0.10106,0 0.52784,0.740373 1.39754,1.645273 0.86971,0.9049 2.40581,2.658415 3.41356,3.896699 1.00776,1.238285 1.97922,2.346787 2.1588,2.463339 0.17958,0.116552 0.33584,0.350354 0.34725,0.51956 0.0114,0.169206 0.37036,0.861491 0.79768,1.538412 0.42732,0.676921 1.35974,2.391469 2.07205,3.810106 0.71231,1.418638 1.39215,2.657275 1.51076,2.752528 0.1186,0.09525 0.2629,0.406989 0.32066,0.692747 0.0578,0.285758 0.70784,2.078239 1.44461,3.983292 0.73677,1.905053 1.75228,4.944479 2.25669,6.754279 0.5044,1.8098 1.00498,3.524348 1.1124,3.810106 0.10741,0.285758 0.24563,0.90923 0.30715,1.385493 0.41461,3.209838 0.95345,5.476182 1.45973,6.139653 0.43814,0.574166 2.06868,1.203509 6.38999,2.466367 3.19097,0.93252 5.80414,1.59877 5.80706,1.48055 0.003,-0.11821 0.11982,-0.0492 0.25978,0.15337 0.2786,0.40322 4.59807,2.09395 5.01711,1.96381 0.14288,-0.0444 0.25978,0.0647 0.25978,0.24235 0,0.17766 0.3507,0.42858 0.77934,0.55759 0.42864,0.12901 2.24212,1.03575 4.02997,2.01499 1.78784,0.97923 3.3291,1.72815 3.425,1.66425 0.0959,-0.0639 0.26974,0.0379 0.3863,0.2263 0.11655,0.18836 1.48446,1.25379 3.03979,2.3676 1.55534,1.11382 4.17285,3.2331 5.81669,4.70952 2.71454,2.43807 3.12251,2.68539 4.44595,2.69523 0.80144,0.006 4.65907,0.1491 8.57253,0.31807 5.84706,0.25247 7.48319,0.43872 9.17889,1.04489 1.13493,0.40572 2.21939,0.76915 2.40989,0.80765 0.19051,0.0385 0.42431,0.16594 0.51956,0.28323 0.0952,0.11728 0.87459,0.56786 1.73187,1.00128 0.85727,0.43341 2.41595,1.36891 3.46373,2.07887 1.04778,0.70996 2.02119,1.31221 2.16313,1.33832 0.63289,0.11644 5.18749,5.44243 6.61294,7.73293 0.86577,1.39117 2.07368,4.01014 2.68426,5.81994 0.96367,2.85642 1.13774,3.93032 1.3194,8.13978 0.17166,3.97764 0.10119,5.26493 -0.39204,7.16211 -0.69411,2.6699 -1.76537,5.49853 -2.51664,6.6451 -0.28677,0.43767 -0.41694,0.90022 -0.28927,1.02789 0.12767,0.12767 0.071,0.23213 -0.12595,0.23213 -0.19694,0 -0.75559,0.6007 -1.24145,1.33488 -1.31335,1.9846 -4.54152,5.36668 -6.95231,7.28377 -4.99036,3.96838 -9.81491,5.69242 -17.65307,6.30826 l -4.9042,0.38533 -4.95289,4.72672 c -11.92726,11.38264 -16.55822,14.53237 -26.05427,17.72072 -1.8098,0.60765 -3.52435,1.18734 -3.81011,1.2882 -0.28576,0.10086 -0.97758,0.24273 -1.53739,0.31526 -0.5598,0.0725 -1.57294,0.27864 -2.25142,0.458 -4.05883,1.07301 -19.37685,1.39251 -23.2283,0.4845 z"
       id="path1412" />
    <path
       style="fill:#f9f9f9;stroke-width:0.346373"
       d="m 275.70339,202.68637 c -0.12309,-0.19916 -0.9506,-0.34788 -1.8389,-0.33047 -1.80235,0.0353 -4.04085,-0.19931 -4.47776,-0.46934 -0.15741,-0.0973 -1.08651,-0.26838 -2.06467,-0.38022 -0.97816,-0.11184 -2.39876,-0.42219 -3.15689,-0.68967 -0.75813,-0.26749 -1.47044,-0.39431 -1.58292,-0.28184 -0.11247,0.11248 -0.2045,0.006 -0.2045,-0.23665 0,-0.24556 -0.22544,-0.35465 -0.50846,-0.24605 -0.27966,0.10732 -0.60217,0.0435 -0.71669,-0.14178 -0.11451,-0.18529 -0.35331,-0.24722 -0.53065,-0.13761 -0.17734,0.1096 -0.32244,0.0175 -0.32244,-0.2046 0,-0.22213 -0.2338,-0.31415 -0.51956,-0.20449 -0.28576,0.10965 -0.51956,0.0354 -0.51956,-0.165 0,-0.2004 -0.19344,-0.29989 -0.42987,-0.22108 -0.23643,0.0788 -0.6462,-0.073 -0.9106,-0.33742 -0.26439,-0.2644 -0.68435,-0.40258 -0.93324,-0.30708 -0.24888,0.0955 -0.50156,0.0452 -0.56149,-0.11184 -0.1529,-0.40058 -7.20844,-3.89704 -7.21493,-3.57545 -0.003,0.14462 -0.11981,0.10682 -0.25978,-0.084 -0.13996,-0.19081 -0.69405,-0.57371 -1.2313,-0.85088 -0.53726,-0.27717 -1.35557,-0.88269 -1.81846,-1.34558 -0.4629,-0.4629 -0.84163,-0.72517 -0.84163,-0.58284 0,0.14234 -0.30655,-0.10918 -0.68123,-0.55892 -0.37467,-0.44974 -0.6864,-0.67979 -0.69274,-0.51122 -0.006,0.16857 -0.34103,-0.11241 -0.74376,-0.62439 -0.40273,-0.51199 -0.7898,-0.87333 -0.86015,-0.80298 -0.0703,0.0704 -0.94882,-0.64392 -1.95216,-1.58728 -2.9469,-2.77076 -2.98796,-2.78638 -5.05966,-1.92542 -0.98285,0.40846 -1.78699,0.87773 -1.78699,1.04284 0,0.16511 -0.31663,0.30019 -0.70362,0.30019 -0.38699,0 -0.79299,0.23291 -0.90223,0.51757 -0.10924,0.28467 -0.33815,0.43134 -0.50869,0.32593 -0.17054,-0.1054 -0.31008,-6.9e-4 -0.31008,0.23291 0,0.2335 -0.0967,0.32785 -0.21486,0.20968 -0.24944,-0.24944 -4.40433,1.76845 -4.57735,2.22307 -0.0639,0.1679 -0.25874,0.21716 -0.43297,0.10948 -0.17423,-0.10768 -0.31679,-0.0215 -0.31679,0.19147 0,0.21299 -0.15587,0.29092 -0.34637,0.17318 -0.19051,-0.11773 -0.34638,-0.0659 -0.34638,0.1152 0,0.35596 -1.63193,0.90876 -2.33802,0.79198 -0.23813,-0.0394 -0.43296,0.1016 -0.43296,0.31329 0,0.22727 -0.2837,0.29486 -0.69275,0.16503 -0.38101,-0.12093 -0.69274,-0.0681 -0.69274,0.11741 0,0.18552 -0.31174,0.25577 -0.69275,0.15614 -0.38101,-0.0996 -0.69275,-0.012 -0.69275,0.19474 0,0.20674 -0.22634,0.28905 -0.50297,0.18289 -0.27664,-0.10615 -0.70527,-0.0671 -0.95253,0.0868 -0.24725,0.15388 -0.80025,0.23447 -1.22889,0.17909 -0.42864,-0.0554 -0.77934,0.0693 -0.77934,0.27707 0,0.22989 -0.33865,0.29276 -0.86516,0.16062 -0.47584,-0.11943 -1.13827,-0.10263 -1.47208,0.0373 -1.3115,0.54989 -9.22497,0.63191 -13.70585,0.14206 -1.67975,-0.18363 -3.19946,-0.24403 -3.37714,-0.13422 -0.17768,0.10981 -0.32305,0.0614 -0.32305,-0.10767 0,-0.36159 -3.39421,-1.20291 -3.81179,-0.94483 -0.15703,0.0971 -0.34471,-0.001 -0.41706,-0.21817 -0.0724,-0.21706 -0.63085,-0.41286 -1.2411,-0.43513 -0.61026,-0.0223 -1.10992,-0.145 -1.11035,-0.27274 -3.5e-4,-0.12775 -0.50736,-0.35275 -1.1265,-0.50001 -0.61914,-0.14726 -1.24262,-0.29603 -1.3855,-0.3306 -0.14287,-0.0346 -0.33771,-0.10182 -0.43296,-0.14944 -0.0952,-0.0476 -0.32906,-0.12556 -0.51956,-0.17319 -0.19051,-0.0476 -0.46328,-0.12453 -0.60615,-0.17091 -0.14288,-0.0464 -0.37669,-0.0659 -0.51956,-0.0433 -0.14288,0.0225 -0.25978,-0.0954 -0.25978,-0.26206 0,-0.16669 -0.48365,-0.39981 -1.07477,-0.51803 -0.86939,-0.17388 -1.26536,-0.0332 -2.07212,0.73604 -1.63378,1.55786 -2.75393,2.50968 -2.95351,2.50968 -0.10318,0 -0.65632,0.46871 -1.22919,1.04157 -0.57287,0.57287 -1.16474,0.96546 -1.31527,0.87243 -0.15054,-0.093 -0.66195,0.17863 -1.13647,0.60369 -0.47453,0.42507 -1.07864,0.82039 -1.34248,0.87848 -0.26383,0.0581 -0.68124,0.36983 -0.92758,0.69275 -0.24633,0.32291 -0.52578,0.53201 -0.62101,0.46466 -0.29258,-0.20696 -2.22166,0.7055 -2.22166,1.05085 0,0.17864 -0.15586,0.22847 -0.34637,0.11073 -0.1905,-0.11774 -0.34637,-0.0398 -0.34637,0.17318 0,0.21299 -0.1433,0.29869 -0.31845,0.19045 -0.17515,-0.10825 -0.56362,0.0484 -0.86328,0.34801 -0.29965,0.29966 -0.70189,0.44776 -0.89385,0.32912 -0.19197,-0.11865 -0.34903,-0.0555 -0.34903,0.14023 0,0.19577 -0.23381,0.26623 -0.51956,0.15657 -0.28576,-0.10966 -0.51956,-0.0317 -0.51956,0.17319 0,0.20491 -0.23381,0.28284 -0.51956,0.17319 -0.28576,-0.10966 -0.51956,-0.0414 -0.51956,0.15162 0,0.19305 -0.31174,0.26949 -0.69275,0.16985 -0.40264,-0.10529 -0.69275,-0.0106 -0.69275,0.22606 0,0.22396 -0.15811,0.30949 -0.35135,0.19006 -0.19325,-0.11943 -1.21652,-0.0375 -2.27394,0.18197 -2.23151,0.46326 -12.26915,0.65085 -12.26892,0.22929 9e-5,-0.15652 -0.35054,-0.25024 -0.77918,-0.20828 -0.42863,0.042 -1.04464,-0.0386 -1.3689,-0.17909 -0.32427,-0.14046 -0.7529,-0.15444 -0.95253,-0.0311 -0.19963,0.12337 -0.36296,0.0426 -0.36296,-0.17955 0,-0.22213 -0.2338,-0.31416 -0.51956,-0.2045 -0.28576,0.10965 -0.51956,0.0317 -0.51956,-0.17319 0,-0.20491 -0.2338,-0.28284 -0.51956,-0.17319 -0.28576,0.10966 -0.51956,0.0317 -0.51956,-0.17318 0,-0.20491 -0.21857,-0.28869 -0.4857,-0.18618 -0.26713,0.1025 -0.59185,0.0802 -0.72161,-0.0495 -0.12975,-0.12975 -0.33983,-0.24862 -0.46683,-0.26415 -0.96151,-0.11759 -2.13597,-0.63058 -2.13597,-0.93296 0,-0.20161 -0.0965,-0.27007 -0.21442,-0.15214 -0.11793,0.11794 -0.44223,-0.0134 -0.72067,-0.29182 -0.27844,-0.27844 -0.64955,-0.41769 -0.8247,-0.30944 -0.17514,0.10824 -0.31845,0.0225 -0.31845,-0.19045 0,-0.21299 -0.15586,-0.29092 -0.34637,-0.17318 -0.1905,0.11774 -0.34637,0.0398 -0.34637,-0.17319 0,-0.21299 -0.15587,-0.29093 -0.34638,-0.17319 -0.1905,0.11774 -0.34637,0.0669 -0.34637,-0.1129 0,-0.36166 -1.42235,-1.37523 -2.13877,-1.5241 -0.25109,-0.0522 -0.64696,-0.32866 -0.87973,-0.61442 -0.23276,-0.28576 -0.42816,-0.41236 -0.43422,-0.28132 -0.0141,0.30444 -6.38021,-6.00072 -8.01751,-7.94073 -0.68132,-0.80728 -1.16255,-1.54398 -1.0694,-1.63712 0.0931,-0.0931 -0.0859,-0.26729 -0.3978,-0.38699 -0.31193,-0.11969 -0.48442,-0.35148 -0.38332,-0.51507 0.10111,-0.1636 -0.0946,-0.58889 -0.43495,-0.9451 -0.34034,-0.35621 -0.66732,-0.86847 -0.72663,-1.13835 -0.24914,-1.13364 -2.90935,-5.16673 -3.40796,-5.16673 -0.68694,0 -4.67603,1.02801 -5.14032,1.32468 -0.19227,0.12286 -0.46649,0.24526 -0.60936,0.27199 -0.14288,0.0267 -0.33772,0.0876 -0.43297,0.13519 -0.0953,0.0476 -0.32906,0.12556 -0.51956,0.17319 -0.19051,0.0476 -0.42431,0.12556 -0.51956,0.17319 -0.0952,0.0476 -0.32906,0.12556 -0.51956,0.17318 -0.19051,0.0476 -0.38534,0.11682 -0.43297,0.15376 -0.0476,0.0369 -0.54006,0.12637 -1.0943,0.19874 -0.55424,0.0724 -1.09978,0.25646 -1.21231,0.4091 -0.11252,0.15263 -0.39943,0.29311 -0.63756,0.31216 -0.23813,0.019 -0.7539,0.058 -1.14616,0.0866 -0.42563,0.031 -0.61762,0.20658 -0.47618,0.43544 0.15803,0.2557 10e-4,0.30872 -0.46997,0.1591 -0.38883,-0.12341 -0.79817,-0.0768 -0.90965,0.10356 -0.11148,0.18037 -0.51426,0.24646 -0.89509,0.14688 -0.38082,-0.0996 -0.6924,-0.0216 -0.6924,0.17327 0,0.1949 -0.31173,0.27283 -0.69274,0.17319 -0.38101,-0.0996 -0.69275,-0.0287 -0.69275,0.15758 0,0.18631 -0.389669,0.26425 -0.865932,0.17321 -0.476263,-0.091 -0.865933,-0.0185 -0.865933,0.16123 0,0.17972 -0.489744,0.25488 -1.088322,0.16703 -0.74746,-0.1097 -1.013076,-0.038 -0.848075,0.229 0.171583,0.27762 -0.225811,0.32485 -1.390415,0.16522 -1.134673,-0.15552 -1.559905,-0.10902 -1.398038,0.15289 0.16195,0.26204 -0.345795,0.31669 -1.671262,0.17989 -1.21436,-0.12533 -2.079507,-0.0508 -2.388798,0.20595 -0.467468,0.38796 -2.903813,0.34202 -8.70694,-0.16417 -1.143032,-0.0997 -2.584811,-0.19987 -3.203953,-0.2226 -0.619142,-0.0227 -1.125713,-0.1868 -1.125713,-0.36463 0,-0.17782 -0.38967,-0.22551 -0.865933,-0.10598 -0.481896,0.12095 -0.865933,0.067 -0.865933,-0.12169 0,-0.18647 -0.428637,-0.34341 -0.952527,-0.34877 -2.179415,-0.0223 -2.511206,-0.0782 -2.511206,-0.42311 0,-0.19904 -0.233802,-0.27218 -0.51956,-0.16252 -0.285758,0.10965 -0.51956,0.0317 -0.51956,-0.17319 0,-0.20491 -0.228811,-0.28476 -0.508466,-0.17744 -0.279658,0.10731 -0.60716,0.0354 -0.727784,-0.15975 -0.120623,-0.19517 -0.417957,-0.27863 -0.660742,-0.18546 -0.242785,0.0932 -0.850491,-0.0428 -1.350458,-0.30223 -0.499966,-0.25938 -0.911416,-0.36395 -0.914333,-0.23237 -0.0029,0.13159 -0.141059,0.0249 -0.306981,-0.23702 -0.165922,-0.26194 -0.706231,-0.47626 -1.200685,-0.47626 -0.536913,0 -0.808913,-0.14578 -0.675319,-0.36194 0.138089,-0.22343 0.0031,-0.2773 -0.35269,-0.14076 -0.317009,0.12164 -0.576381,0.061 -0.576381,-0.13477 0,-0.19577 -0.155868,-0.25961 -0.346373,-0.14187 -0.190505,0.11774 -0.346373,0.0398 -0.346373,-0.17319 0,-0.21299 -0.155868,-0.29093 -0.346373,-0.17319 -0.190506,0.11774 -0.346374,0.0779 -0.346374,-0.0886 0,-0.4048 -2.393247,-1.53036 -2.76519,-1.30048 -0.161151,0.0996 -0.345281,0.0625 -0.409179,-0.0824 -0.0639,-0.1449 -1.185474,-0.80139 -2.492393,-1.45886 -1.306919,-0.65748 -2.450322,-1.38853 -2.540897,-1.62456 -0.09057,-0.23603 -1.001126,-1.06067 -2.023447,-1.83253 -2.32452,-1.75503 -9.375122,-8.43448 -10.600399,-10.04238 -0.503273,-0.66043 -0.845012,-1.38328 -0.75942,-1.60633 0.08559,-0.22305 -0.07972,-0.64089 -0.367363,-0.92853 -0.287643,-0.28764 -0.426496,-0.61948 -0.308564,-0.73741 0.117931,-0.11793 0.06574,-0.21442 -0.115971,-0.21442 -0.181716,0 -0.356637,-0.3484 -0.388712,-0.77421 -0.03207,-0.42581 -0.222084,-0.8288 -0.422241,-0.89552 -0.200157,-0.0667 -0.275818,-0.26386 -0.168135,-0.43809 0.107682,-0.17424 0.01404,-0.31679 -0.208087,-0.31679 -0.22213,0 -0.314155,-0.2338 -0.204499,-0.51956 0.109655,-0.28576 0.06574,-0.51956 -0.09758,-0.51956 -0.368573,0 -0.893042,-2.3126 -0.773059,-3.40875 0.0535,-0.48874 -0.05396,-0.72274 -0.270458,-0.58893 -0.233951,0.14459 -0.285547,-0.14637 -0.147954,-0.83433 0.116197,-0.58099 0.07376,-1.05634 -0.09431,-1.05634 -0.168065,0 -0.249788,-0.7014 -0.181606,-1.55868 0.07781,-0.97835 -0.01798,-1.55868 -0.257284,-1.55868 -0.505051,0 -0.502036,-3.3482 0.0033,-3.66051 0.224535,-0.13877 0.306089,-0.72114 0.195993,-1.39959 -0.103705,-0.63906 -0.03882,-1.25447 0.144198,-1.36757 0.183014,-0.11312 0.304691,-0.38874 0.270394,-0.61251 -0.0343,-0.22376 0.204502,-1.00819 0.530665,-1.74318 0.326163,-0.73498 0.513381,-1.41598 0.41604,-1.51332 -0.09734,-0.0973 0.05836,-0.41233 0.346002,-0.69997 0.287642,-0.28764 0.44098,-0.73669 0.34075,-0.99789 -0.10023,-0.26119 -0.02206,-0.47489 0.173708,-0.47489 0.195769,0 0.259613,-0.15587 0.141874,-0.34638 -0.117739,-0.1905 -0.0398,-0.34637 0.173187,-0.34637 0.212991,0 0.290925,-0.15587 0.173186,-0.34637 -0.117739,-0.19051 -0.049,-0.34638 0.152745,-0.34638 0.201748,0 0.366815,-0.22773 0.366815,-0.50606 0,-0.27834 0.341127,-0.82388 0.758059,-1.21231 0.416933,-0.38843 0.633467,-0.70624 0.481188,-0.70624 -0.15228,0 0.0911,-0.30655 0.54084,-0.68122 0.449742,-0.37468 0.712801,-0.68641 0.584577,-0.69275 -0.259523,-0.0128 0.244087,-0.56628 4.720812,-5.18804 1.706201,-1.76149 4.005254,-3.91219 5.109006,-4.77934 1.103752,-0.86716 2.006822,-1.68355 2.006822,-1.8142 0,-0.13065 0.199639,-0.23755 0.443641,-0.23755 0.603882,0 2.327345,-1.15613 2.327345,-1.56123 0,-0.17984 0.155868,-0.23065 0.346374,-0.11291 0.190505,0.11774 0.346373,0.049 0.346373,-0.15274 0,-0.20175 0.125035,-0.32785 0.277857,-0.28022 0.544517,0.16969 3.849593,-1.58521 3.636089,-1.93067 -0.131365,-0.21255 0.01237,-0.26369 0.363003,-0.12914 0.714517,0.27419 2.359858,-0.4274 2.076719,-0.88553 -0.122417,-0.19808 0.09234,-0.23824 0.530421,-0.0992 0.43674,0.13862 0.736123,0.0833 0.736123,-0.13607 0,-0.20335 0.116901,-0.33816 0.25978,-0.29959 0.559909,0.15115 2.857579,-0.46613 2.857579,-0.7677 0,-0.17589 0.259371,-0.22028 0.576381,-0.0986 0.396341,0.15209 0.49547,0.0903 0.317351,-0.19794 -0.190286,-0.30789 -0.0078,-0.35607 0.687588,-0.18153 0.686002,0.17217 0.876725,0.12449 0.692745,-0.17319 -0.182358,-0.29507 -0.0017,-0.3475 0.641085,-0.18615 0.492228,0.12354 0.895656,0.0908 0.896508,-0.0727 6.93e-4,-0.16354 0.564211,-0.32646 1.251904,-0.36206 0.687689,-0.0356 1.505296,-0.17265 1.816904,-0.30455 0.311608,-0.13189 1.246123,-0.20684 2.076702,-0.16655 0.830579,0.0403 1.429742,-0.0565 1.331473,-0.21501 -0.09827,-0.15856 1.371253,-0.25465 3.265607,-0.21354 2.292326,0.0497 3.370534,-0.0446 3.223793,-0.28201 -0.148948,-0.241 1.054949,-0.29366 3.710395,-0.16231 2.161982,0.10695 5.13887,0.23386 6.615307,0.28202 1.476433,0.0482 2.68441,0.20446 2.684393,0.34734 -2.1e-5,0.14288 0.695888,0.25978 1.54646,0.25978 1.927699,0 2.364879,-0.66949 2.406999,-3.68604 0.0165,-1.17845 0.17032,-2.04751 0.34365,-1.94103 0.1787,0.10978 0.21972,-0.27784 0.0953,-0.90017 -0.13753,-0.68764 -0.0796,-1.09298 0.15618,-1.09298 0.20612,0 0.28505,-0.2338 0.1754,-0.51956 -0.10966,-0.285753 -0.0416,-0.519555 0.15131,-0.519555 0.19288,0 0.31846,-0.194835 0.27908,-0.432966 -0.11205,-0.67752 0.42958,-2.33802 0.76264,-2.33802 0.16496,0 0.54173,-0.467604 0.83728,-1.03912 0.29554,-0.571516 0.42562,-1.03912 0.28906,-1.03912 -0.13655,0 0.0543,-0.228845 0.42407,-0.508545 0.3698,-0.279696 0.52567,-0.513498 0.34638,-0.51956 -0.17929,-0.0061 -0.0234,-0.23986 0.34637,-0.51956 0.3698,-0.279696 0.54094,-0.513498 0.38032,-0.51956 -0.16061,-0.0061 0.36059,-0.790503 1.15825,-1.743217 0.79765,-0.95271 1.57842,-1.653007 1.73503,-1.55622 0.1566,0.09679 0.81936,-0.448595 1.47277,-1.211971 0.65342,-0.763372 1.36792,-1.387952 1.58778,-1.387952 0.21986,0 0.39974,-0.165067 0.39974,-0.366816 0,-0.201749 0.15697,-0.269801 0.34882,-0.15123 0.19185,0.118567 0.44198,-0.02719 0.55585,-0.323942 0.11387,-0.296742 0.34657,-0.453289 0.51711,-0.347887 0.17055,0.105401 0.31009,0.04182 0.31009,-0.141293 0,-0.327606 2.004,-1.239749 2.5112,-1.143 0.14288,0.02726 0.25978,-0.132291 0.25978,-0.354548 0,-0.222254 0.0844,-0.319706 0.18755,-0.216556 0.10315,0.10315 1.30058,-0.104674 2.66096,-0.46183 1.36039,-0.357159 2.98134,-0.649377 3.60212,-0.649377 0.62079,0 1.23472,-0.171538 1.36429,-0.381198 0.15932,-0.257788 0.97892,-0.299353 2.53165,-0.128383 1.26283,0.139048 2.80263,0.271619 3.42177,0.294604 0.61914,0.023 1.12571,0.176869 1.12571,0.341968 0,0.165099 0.31174,0.218658 0.69275,0.119021 0.38101,-0.09964 0.69274,-0.02321 0.69274,0.169847 0,0.193051 0.23381,0.261287 0.51956,0.151629 0.28576,-0.109655 0.51956,-0.04157 0.51956,0.151313 0,0.192878 0.19484,0.319269 0.43297,0.280874 0.46041,-0.07424 1.12458,0.134871 2.95593,0.930663 1.98145,0.861018 2.09709,0.794338 3.04751,-1.757151 0.14192,-0.381011 0.29099,-0.809648 0.33125,-0.952527 0.0403,-0.142879 0.11218,-0.337714 0.15981,-0.432966 0.0476,-0.09525 0.12556,-0.329055 0.17319,-0.51956 0.0476,-0.190506 0.12556,-0.424308 0.17318,-0.51956 0.0476,-0.09525 0.11879,-0.290088 0.15813,-0.432967 0.48194,-1.750085 0.64726,-2.164833 0.86294,-2.164833 0.37982,0 1.09573,-1.735631 0.86795,-2.104197 -0.10892,-0.176227 -0.0238,-0.320416 0.18922,-0.320416 0.21299,0 0.29093,-0.155868 0.17319,-0.346373 -0.11774,-0.190505 -0.0398,-0.346373 0.17319,-0.346373 0.21299,0 0.29092,-0.155868 0.17318,-0.346373 -0.11774,-0.190506 -0.0398,-0.346374 0.17319,-0.346374 0.21299,0 0.29093,-0.155868 0.17319,-0.346373 -0.11774,-0.190505 -0.0398,-0.346373 0.17318,-0.346373 0.21299,0 0.29093,-0.155868 0.17319,-0.346374 -0.11774,-0.190505 -0.053,-0.346373 0.14385,-0.346373 0.19686,0 0.59973,-0.467604 0.89527,-1.03912 0.29554,-0.571516 0.45541,-1.039119 0.35527,-1.039119 -0.10015,0 0.13534,-0.31742 0.52329,-0.705379 0.38797,-0.387963 0.62266,-0.839231 0.52156,-1.002827 -0.10111,-0.163596 0.059,-0.390612 0.35569,-0.504479 0.29674,-0.11387 0.45261,-0.347672 0.34637,-0.51956 -0.10623,-0.171891 0.0496,-0.405693 0.34638,-0.51956 0.29673,-0.11387 0.4526,-0.347671 0.34637,-0.51956 -0.10624,-0.171889 0.0621,-0.410461 0.37399,-0.53016 0.31193,-0.119699 0.47628,-0.308508 0.36521,-0.419576 -0.22993,-0.229925 0.20749,-0.817771 1.56524,-2.103544 0.51859,-0.491097 0.86009,-1.026871 0.7589,-1.190609 -0.1012,-0.163738 -0.014,-0.297705 0.19369,-0.297705 0.20773,0 0.47487,-0.272769 0.59365,-0.606153 0.11879,-0.333384 0.66634,-1.073757 1.21678,-1.645273 0.55044,-0.571516 2.47465,-2.592815 4.27601,-4.491776 1.80137,-1.89896 3.27521,-3.329605 3.27521,-3.179211 0,0.150394 0.21687,0.06748 0.48193,-0.184264 0.26505,-0.251739 1.66787,-1.375432 3.11736,-2.497095 1.44948,-1.121663 2.63543,-2.182971 2.63543,-2.358461 0,-0.175491 0.14002,-0.232537 0.31116,-0.126768 0.17113,0.105768 0.78913,-0.254195 1.37333,-0.799918 0.5842,-0.545723 1.14192,-0.912489 1.23937,-0.815035 0.0975,0.09745 0.27513,-0.07803 0.39483,-0.389957 0.11969,-0.311931 0.35148,-0.484423 0.51508,-0.383316 0.16359,0.101107 0.58888,-0.09462 0.94509,-0.434956 0.35621,-0.340332 0.83527,-0.659676 1.06457,-0.709653 0.88115,-0.192042 4.20139,-2.244952 4.20139,-2.597726 0,-0.204071 0.10425,-0.266786 0.23167,-0.139367 0.12743,0.127419 0.47813,0.0232 0.77934,-0.231599 0.30122,-0.254798 1.01528,-0.630198 1.58679,-0.834221 0.57152,-0.204024 1.35086,-0.488242 1.73187,-0.631595 0.38101,-0.143355 0.80965,-0.235899 0.95253,-0.205655 0.14287,0.03025 0.25978,-0.09599 0.25978,-0.280512 0,-0.184527 0.2137,-0.253497 0.47489,-0.153267 0.2612,0.10023 0.69123,-0.03409 0.95562,-0.298484 0.2644,-0.264396 0.67417,-0.416239 0.9106,-0.337429 0.23643,0.07881 0.42987,-0.03477 0.42987,-0.252388 0,-0.217624 0.1451,-0.306005 0.32244,-0.196401 0.17734,0.109603 0.42191,0.03833 0.54349,-0.158395 0.12159,-0.19672 0.35539,-0.274654 0.51956,-0.173187 0.16418,0.101468 0.39798,0.02353 0.51956,-0.173186 0.12159,-0.196721 0.35539,-0.274655 0.51956,-0.173187 0.16418,0.101468 0.39221,0.03289 0.50672,-0.152409 0.11452,-0.185293 0.43703,-0.249093 0.71669,-0.141779 0.27965,0.107315 0.50846,0.03717 0.50846,-0.155887 0,-0.193052 0.31174,-0.269483 0.69275,-0.169846 0.38101,0.09964 0.69274,0.012 0.69274,-0.194743 0,-0.206746 0.23381,-0.286183 0.51956,-0.176527 0.28576,0.109656 0.51956,0.04142 0.51956,-0.15163 0,-0.193052 0.31174,-0.269483 0.69275,-0.169847 0.39243,0.102624 0.69275,0.01063 0.69275,-0.212213 0,-0.246636 0.32301,-0.3123 0.86593,-0.176035 0.49757,0.124881 0.86593,0.06781 0.86593,-0.13416 0,-0.193323 0.29415,-0.274575 0.65366,-0.180561 0.35951,0.09401 0.74933,0.01612 0.86628,-0.173096 0.11694,-0.189218 0.50661,-0.267152 0.86593,-0.173187 0.35932,0.09396 0.75383,0.0082 0.87668,-0.190577 0.12285,-0.198781 0.45218,-0.273618 0.73184,-0.166304 0.27965,0.107315 0.78123,0.0839 1.11462,-0.05204 0.65582,-0.26741 1.1012,-0.311375 6.84087,-0.675278 3.66181,-0.232163 8.81823,-0.316887 9.17889,-0.150816 0.0953,0.04386 1.1084,0.118152 2.25143,0.165092 1.14303,0.04694 2.85758,0.19431 3.8101,0.327488 0.95253,0.133179 2.08257,0.240191 2.51121,0.237805 0.42864,-0.0024 0.77934,0.153212 0.77934,0.345773 0,0.192561 0.38967,0.275621 0.86593,0.184577 0.47627,-0.09104 0.86594,-0.01438 0.86594,0.170358 0,0.184739 0.38011,0.240487 0.8447,0.123883 0.46459,-0.116605 0.94796,-0.04494 1.07416,0.15925 0.1262,0.204192 0.44249,0.289506 0.70288,0.189586 0.26039,-0.09992 0.56713,-0.03007 0.68164,0.155223 0.11452,0.185292 0.36014,0.243 0.54583,0.12824 0.18569,-0.114761 0.55776,-0.02595 0.82683,0.197355 0.26906,0.223307 0.64114,0.312117 0.82682,0.197356 0.18569,-0.11476 0.43709,-0.0477 0.55867,0.149018 0.12158,0.19672 0.35538,0.274654 0.51956,0.173186 0.16418,-0.101467 0.3922,-0.03288 0.50672,0.152409 0.11451,0.185293 0.43702,0.249093 0.71668,0.141779 0.27965,-0.107314 0.50847,-0.0059 0.50847,0.225372 0,0.231464 0.23356,0.330864 0.51956,0.221116 0.28575,-0.109656 0.51956,-0.03541 0.51956,0.164993 0,0.200402 0.19344,0.299886 0.42987,0.221075 0.23643,-0.07881 0.6462,0.07303 0.91059,0.337429 0.2644,0.264396 0.69443,0.398714 0.95562,0.298485 0.2612,-0.10023 0.4749,-0.01458 0.4749,0.190324 0,0.204909 0.22373,0.286707 0.49718,0.181774 0.27345,-0.104932 0.54622,-0.05795 0.60616,0.1044 0.0599,0.162352 0.4207,0.348431 0.80171,0.413508 0.38102,0.06508 0.89872,0.313157 1.15046,0.551289 0.41296,0.390641 1.18138,0.584342 1.88031,0.473985 0.14288,-0.02256 0.25978,0.124049 0.25978,0.325797 0,0.201748 0.15587,0.270483 0.34637,0.152745 0.19051,-0.117739 0.34638,-0.03981 0.34638,0.173186 0,0.212992 0.15586,0.290926 0.34637,0.173187 0.19051,-0.117739 0.34637,-0.03981 0.34637,0.173187 0,0.212991 0.15587,0.290925 0.34638,0.173186 0.1905,-0.117739 0.34637,-0.03981 0.34637,0.173187 0,0.212991 0.15587,0.290925 0.34637,0.173186 0.19051,-0.117738 0.34638,-0.0398 0.34638,0.173187 0,0.212992 0.15586,0.290926 0.34637,0.173187 0.19051,-0.117739 0.34637,-0.03981 0.34637,0.173186 0,0.212992 0.15587,0.290926 0.34638,0.173187 0.1905,-0.117739 0.34637,-0.049 0.34637,0.152745 0,0.201748 0.1169,0.333701 0.25978,0.293227 0.35397,-0.10027 1.79855,0.720805 2.62844,1.493955 0.37423,0.348655 0.79635,0.562268 0.93805,0.474697 0.14169,-0.08757 0.35079,0.08357 0.46465,0.380305 0.11387,0.296739 0.34768,0.452607 0.51956,0.346374 0.17189,-0.106234 0.4057,0.04963 0.51956,0.346373 0.11387,0.296738 0.34768,0.452606 0.51956,0.346373 0.17189,-0.106233 0.4019,0.03976 0.51114,0.32442 0.10924,0.284663 0.39981,0.51757 0.64572,0.51757 0.24591,0 0.65127,0.326914 0.9008,0.726476 0.24954,0.399562 0.52833,0.65184 0.61956,0.560618 0.21962,-0.21963 1.49855,0.872053 3.84947,3.285904 1.05803,1.086359 2.09633,1.943633 2.30732,1.905053 0.211,-0.03858 0.34964,0.10974 0.30811,0.3296 -0.0415,0.21986 0.15329,0.589648 0.43296,0.821751 0.27967,0.232104 0.50849,0.292534 0.50849,0.134291 0,-0.158244 0.70141,0.400661 1.55868,1.242012 0.85727,0.841351 1.55868,1.740276 1.55868,1.997613 0,0.257336 0.15587,0.371552 0.34637,0.253813 0.19051,-0.117739 0.34638,0.02426 0.34638,0.315562 0,0.291298 0.4676,0.875347 1.03912,1.297887 0.57151,0.42254 1.03912,0.958889 1.03912,1.191886 0,0.232997 0.50657,0.852251 1.12571,1.376121 0.61914,0.52387 1.08973,1.0743 1.04576,1.223179 -0.044,0.148879 0.30673,0.574854 0.77934,0.94661 0.47261,0.371756 0.85929,0.760769 0.85929,0.864473 0,0.103704 0.46029,0.692501 1.02286,1.308438 0.56257,0.615937 0.94304,1.249029 0.84549,1.406872 -0.0976,0.157842 -0.003,0.286984 0.20989,0.286984 0.21299,0 0.29685,0.146287 0.18634,0.325085 -0.1105,0.178798 0.0751,0.485792 0.41253,0.682213 0.33739,0.196422 0.49321,0.36187 0.34627,0.367662 -0.35686,0.01406 1.81624,4.167012 2.18046,4.167012 0.29736,0 1.22522,2.406293 1.10188,2.857579 -0.039,0.142879 0.08,0.25978 0.2645,0.25978 0.18453,0 0.24579,0.233802 0.13613,0.51956 -0.10966,0.285758 -0.0176,0.51956 0.2045,0.51956 0.22213,0 0.30754,0.155868 0.1898,0.346373 -0.11774,0.190506 -0.0539,0.346374 0.14188,0.346374 0.19577,0 0.26622,0.233802 0.15657,0.51956 -0.10966,0.285758 -0.0317,0.51956 0.17319,0.51956 0.20518,0 0.27319,0.258945 0.15138,0.576379 -0.15726,0.409811 -0.0934,0.497378 0.22116,0.303 0.32433,-0.200446 0.3831,-0.08673 0.22029,0.42624 -0.12858,0.405122 -0.0231,0.898544 0.25051,1.172182 0.25991,0.259905 0.40807,0.666 0.32926,0.902431 -0.0788,0.236431 0.0348,0.429873 0.25239,0.429873 0.21763,0 0.30378,0.148702 0.19146,0.330444 -0.3122,0.505147 0.19006,2.118537 0.58377,1.875213 0.2143,-0.132446 0.25738,0.06673 0.1129,0.521953 -0.12904,0.406566 -0.0826,0.736123 0.10365,0.736123 0.18551,0 0.24939,0.33611 0.14196,0.746909 -0.14651,0.560259 -0.0804,0.675896 0.26448,0.462741 0.34283,-0.211884 0.39778,-0.122564 0.21602,0.351112 -0.13408,0.349404 -0.0821,0.735198 0.11548,0.857318 0.1976,0.122121 0.42117,0.913924 0.49684,1.759559 0.0757,0.845636 0.16507,1.53752 0.19868,1.53752 0.0336,0 0.11155,0.467604 0.17318,1.03912 0.28747,2.665495 0.93531,4.343677 1.85566,4.806923 0.75182,0.378416 2.26041,0.881423 3.17456,1.058486 0.0953,0.01846 0.36802,0.157257 0.60615,0.308462 0.23813,0.151206 0.58884,0.178587 0.77934,0.06085 0.19051,-0.117739 0.34637,-0.03232 0.34637,0.189802 0,0.222122 0.22882,0.316072 0.50847,0.208752 0.27966,-0.10731 0.60716,-0.0354 0.72779,0.15974 0.12062,0.19517 0.43734,0.27119 0.70383,0.16893 0.26649,-0.10226 0.48453,-0.0183 0.48453,0.18663 0,0.20491 0.22881,0.28476 0.50846,0.17745 0.27966,-0.10732 0.60217,-0.0435 0.71668,0.14178 0.11452,0.18529 0.34255,0.25387 0.50672,0.1524 0.16418,-0.10146 0.39798,-0.0235 0.51956,0.17319 0.12158,0.19672 0.3496,0.27823 0.5067,0.18114 0.1571,-0.0971 0.88671,0.0852 1.62134,0.40507 0.73463,0.31988 1.4526,0.55265 1.59548,0.51726 0.14288,-0.0354 0.25978,0.1175 0.25978,0.33975 0,0.22226 0.10256,0.30155 0.22791,0.17619 0.12535,-0.12534 0.43709,-0.0543 0.69274,0.15787 0.25566,0.21218 0.46484,0.28476 0.46484,0.16129 0,-0.12347 0.50657,0.0454 1.12571,0.37518 0.61914,0.32982 1.24262,0.56762 1.3855,0.52845 0.14287,-0.0392 0.25978,0.0939 0.25978,0.2956 0,0.20175 0.15586,0.27049 0.34637,0.15275 0.1905,-0.11774 0.34637,-0.0398 0.34637,0.17318 0,0.213 0.15587,0.29093 0.34638,0.17319 0.1905,-0.11774 0.34637,-0.0398 0.34637,0.17319 0,0.21299 0.15587,0.29092 0.34637,0.17318 0.19051,-0.11774 0.34638,-0.0398 0.34638,0.17319 0,0.21299 0.15586,0.29093 0.34637,0.17319 0.1905,-0.11774 0.34637,-0.0398 0.34637,0.17318 0,0.213 0.15587,0.29093 0.34638,0.17319 0.1905,-0.11774 0.34637,-0.0398 0.34637,0.17319 0,0.21299 0.15587,0.29092 0.34637,0.17318 0.19051,-0.11774 0.34637,-0.0398 0.34637,0.17319 0,0.21299 0.13954,0.30102 0.31009,0.19562 0.17054,-0.1054 0.40801,0.0636 0.52771,0.3755 0.11969,0.31193 0.31761,0.46717 0.43981,0.34497 0.27425,-0.27424 3.23279,1.38503 3.84631,2.15716 0.24633,0.31002 0.59704,0.58315 0.77934,0.60697 0.1823,0.0238 0.49653,0.0628 0.69828,0.0866 0.20175,0.0238 0.27048,0.19916 0.15274,0.38967 -0.11774,0.1905 -0.009,0.34637 0.24262,0.34637 0.25117,0 0.66084,0.32692 0.91037,0.72648 0.24953,0.39956 0.51893,0.66124 0.59866,0.58151 0.0797,-0.0797 1.0329,0.67484 2.11816,1.67683 1.08526,1.00198 2.06133,1.80085 2.16906,1.77525 0.10772,-0.0256 0.7743,0.51336 1.4813,1.19767 1.53789,1.48855 2.47996,1.64106 9.19234,1.4881 2.96527,-0.0676 4.58945,0.0208 4.58945,0.24972 0,0.21881 0.79471,0.29681 2.07824,0.20396 1.15863,-0.0838 2.07824,-0.008 2.07824,0.17194 0,0.17724 0.38967,0.24777 0.86593,0.15673 0.47627,-0.091 0.86594,-0.0146 0.86594,0.16986 0,0.18447 0.2338,0.24568 0.51956,0.13603 0.28575,-0.10966 0.51955,-0.0317 0.51955,0.17318 0,0.20491 0.21345,0.29065 0.47434,0.19055 0.26088,-0.10012 0.94756,0.10576 1.52595,0.4575 0.57838,0.35174 1.14428,0.54686 1.25753,0.43361 0.11326,-0.11326 0.20592,-0.0202 0.20592,0.20675 0,0.39718 1.63088,1.25917 2.16483,1.14421 0.14288,-0.0308 0.25978,0.10914 0.25978,0.31088 0,0.20175 0.13954,0.28058 0.31008,0.17518 0.17054,-0.1054 0.40325,0.0511 0.51711,0.34789 0.11387,0.29673 0.34767,0.4526 0.51956,0.34637 0.17189,-0.10624 0.40569,0.0496 0.51956,0.34637 0.11387,0.29674 0.34767,0.45261 0.51956,0.34638 0.17189,-0.10624 0.40569,0.0496 0.51956,0.34637 0.11387,0.29674 0.33954,0.45763 0.50148,0.35754 0.32649,-0.20177 4.2435,3.15751 4.12373,3.53657 -0.11717,0.37084 2.89868,4.22172 3.30628,4.22172 0.19936,0 0.27214,0.0903 0.16173,0.20075 -0.22367,0.22366 2.15751,5.45149 2.56134,5.62338 0.14082,0.0599 0.17017,0.3327 0.0652,0.60615 -0.10493,0.27345 -0.0328,0.49718 0.16022,0.49718 0.19305,0 0.26948,0.31174 0.16984,0.69275 -0.0996,0.38101 -0.012,0.69274 0.19474,0.69274 0.20675,0 0.28905,0.22634 0.1829,0.50298 -0.10616,0.27663 -0.0959,0.66016 0.0229,0.85228 0.20484,0.33144 0.6865,8.03312 0.55969,8.94935 -0.033,0.23813 -0.0884,0.93954 -0.12323,1.55868 -0.0348,0.61914 -0.20356,1.22616 -0.37499,1.34892 -0.17143,0.12276 -0.32912,0.70691 -0.35042,1.29811 -0.0213,0.59119 -0.17231,1.07526 -0.33557,1.07569 -0.16326,3.5e-4 -0.21099,0.22452 -0.10606,0.49797 0.10494,0.27345 0.0367,0.54853 -0.15151,0.61128 -0.18827,0.0628 -0.36855,0.4625 -0.40063,0.88832 -0.0321,0.42581 -0.19021,0.77421 -0.35142,0.77421 -0.16121,0 -0.19678,0.15587 -0.079,0.34637 0.11774,0.19051 0.0398,0.34637 -0.17319,0.34637 -0.21299,0 -0.29092,0.15587 -0.17318,0.34638 0.11774,0.1905 0.0659,0.34637 -0.1152,0.34637 -0.18109,0 -0.42706,0.38967 -0.5466,0.86593 -0.11953,0.47627 -0.37023,0.86594 -0.55711,0.86594 -0.18687,0 -0.33977,0.1963 -0.33977,0.43624 0,0.23993 -0.32692,0.6404 -0.72648,0.88993 -0.39956,0.24953 -0.65001,0.53016 -0.55656,0.62361 0.0935,0.0935 -0.58735,0.87825 -1.5129,1.744 -0.92556,0.86574 -1.64928,1.75266 -1.60828,1.97092 0.041,0.21825 -0.1051,0.36292 -0.32467,0.32149 -0.21957,-0.0414 -1.02709,0.60581 -1.79448,1.43833 -0.76739,0.83252 -1.48032,1.42862 -1.58427,1.32467 -0.10396,-0.10396 -0.28695,0.0662 -0.40665,0.37813 -0.1197,0.31193 -0.35827,0.48023 -0.53016,0.374 -0.17189,-0.10624 -0.40569,0.0496 -0.51956,0.34637 -0.11387,0.29674 -0.33699,0.45921 -0.49582,0.36104 -0.15884,-0.0982 -0.42929,0.0726 -0.601,0.3794 -0.17171,0.30683 -0.37613,0.52104 -0.45425,0.47602 -0.314,-0.18096 -1.70072,0.43572 -1.70072,0.75632 0,0.18891 -0.15587,0.24714 -0.34637,0.1294 -0.19051,-0.11773 -0.34638,-0.0539 -0.34638,0.14188 0,0.19577 -0.2137,0.27394 -0.47489,0.17371 -0.2612,-0.10023 -0.68983,0.0216 -0.95253,0.27065 -0.2627,0.24909 -0.78936,0.47738 -1.17038,0.50733 -1.56077,0.12265 -4.98113,0.94443 -4.84534,1.16414 0.0803,0.12989 -0.65094,0.15959 -1.62493,0.066 -1.38596,-0.13317 -1.71098,-0.0733 -1.49534,0.27567 0.2114,0.34205 0.0483,0.3888 -0.70062,0.20083 -0.53689,-0.13475 -1.92726,-0.14315 -3.08973,-0.0187 -2.00979,0.21523 -2.23225,0.33756 -4.53088,2.49134 -7.49315,7.02098 -10.6775,9.87161 -13.24148,11.85377 -1.57166,1.21502 -2.85758,2.34898 -2.85758,2.51991 0,0.17093 -0.15697,0.21377 -0.34881,0.0952 -0.19186,-0.11857 -0.44199,0.0272 -0.55586,0.32394 -0.11387,0.29674 -0.34657,0.45329 -0.51711,0.34789 -0.17055,-0.1054 -0.31008,-0.0174 -0.31008,0.19562 0,0.213 -0.15697,0.29025 -0.34882,0.17168 -0.19185,-0.11857 -0.44199,0.0272 -0.55586,0.32394 -0.11386,0.29674 -0.34657,0.45329 -0.51711,0.34789 -0.17054,-0.10541 -0.31008,-0.0174 -0.31008,0.19561 0,0.213 -0.15587,0.29093 -0.34637,0.17319 -0.19051,-0.11774 -0.34637,-0.023 -0.34637,0.21047 0,0.2335 -0.0988,0.32574 -0.21957,0.20498 -0.12077,-0.12077 -0.60669,0.0849 -1.07984,0.45711 -0.47314,0.37217 -0.9978,0.59167 -1.16592,0.48777 -0.16811,-0.1039 -0.30566,-0.0146 -0.30566,0.19835 0,0.21299 -0.15587,0.29093 -0.34637,0.17319 -0.19051,-0.11774 -0.34638,-0.0539 -0.34638,0.14187 0,0.19577 -0.2137,0.27394 -0.4749,0.17371 -0.26119,-0.10023 -0.71024,0.0531 -0.99788,0.34075 -0.28764,0.28764 -0.5942,0.45177 -0.68124,0.36473 -0.2452,-0.24519 -2.34883,0.56713 -2.34883,0.907 0,0.16589 -0.2338,0.2119 -0.51956,0.10225 -0.28576,-0.10966 -0.51956,-0.0317 -0.51956,0.17319 0,0.2049 -0.2338,0.28284 -0.51956,0.17318 -0.28576,-0.10966 -0.51956,-0.0176 -0.51956,0.2045 0,0.22213 -0.16269,0.30332 -0.36154,0.18043 -0.19886,-0.1229 -0.57772,-0.044 -0.84193,0.17522 -0.2642,0.21927 -0.96434,0.41244 -1.55586,0.42926 -0.59151,0.0168 -1.16097,0.16891 -1.26546,0.33798 -0.1045,0.16907 -0.47549,0.21679 -0.82444,0.10603 -0.34894,-0.11075 -0.72565,-0.0538 -0.83712,0.12658 -0.11148,0.18037 -0.49668,0.25107 -0.856,0.1571 -0.35932,-0.094 -0.74886,-0.0162 -0.86565,0.17274 -0.11679,0.18897 -0.83579,0.25996 -1.59777,0.15775 -0.76199,-0.1022 -1.38535,-0.0484 -1.38525,0.11957 9e-5,0.16796 -1.44169,0.26841 -3.20396,0.22323 -2.15669,-0.0553 -2.97766,0.0216 -2.51138,0.23543 0.53902,0.24712 0.34686,0.31533 -0.86593,0.30741 -1.20369,-0.008 -1.36146,-0.0659 -0.69275,-0.25469 0.4869,-0.13747 -0.52899,-0.23607 -2.32086,-0.22525 -1.75274,0.0106 -2.92175,0.1252 -2.5978,0.25469 0.48255,0.19288 0.45184,0.23983 -0.1699,0.25978 -0.41739,0.0134 -0.85961,-0.13861 -0.9827,-0.33778 z"
       id="path1414" />
    <path
       style="fill:#f9f9f9;stroke-width:0.346373"
       d="m 275.18118,202.62809 c -0.37002,-0.13597 -1.33692,-0.24802 -2.14866,-0.249 -0.81173,-0.001 -1.86555,-0.0753 -2.34181,-0.16524 -0.47626,-0.0899 -1.41147,-0.25493 -2.07824,-0.36675 -2.52702,-0.42379 -6.07839,-1.33115 -6.4945,-1.65933 -0.23813,-0.1878 -0.43297,-0.22536 -0.43297,-0.0834 0,0.14191 -0.2338,0.064 -0.51956,-0.17319 -0.28575,-0.23716 -0.51956,-0.31509 -0.51956,-0.17318 0,0.1419 -0.20917,0.0844 -0.46483,-0.12777 -0.25566,-0.21218 -0.5674,-0.28322 -0.69275,-0.15787 -0.12535,0.12535 -0.22791,0.0392 -0.22791,-0.19138 0,-0.23061 -0.19483,-0.37975 -0.43297,-0.33143 -0.23813,0.0483 -0.78366,-0.1062 -1.2123,-0.34338 -0.42864,-0.23717 -0.77934,-0.32365 -0.77934,-0.19217 0,0.13148 -0.27277,0.007 -0.60615,-0.27604 -0.96834,-0.82286 -4.24476,-2.4031 -4.56815,-2.20323 -0.1623,0.1003 -0.37676,-0.0305 -0.47659,-0.29063 -0.0998,-0.26015 -0.6063,-0.57962 -1.12549,-0.70993 -1.07102,-0.2688 -4.30757,-2.30068 -4.30757,-2.70424 0,-0.14593 -0.2338,-0.26533 -0.51956,-0.26533 -0.28575,0 -0.51956,-0.16076 -0.51956,-0.35724 0,-0.19649 -0.27277,-0.46097 -0.60615,-0.58774 -0.33338,-0.12678 -0.89669,-0.5977 -1.25179,-1.0465 -0.35511,-0.44879 -0.71929,-0.74234 -0.8093,-0.65233 -0.09,0.09 -0.96849,-0.61647 -1.95216,-1.56994 -2.68139,-2.59909 -3.19318,-2.79187 -5.07905,-1.91325 -0.85727,0.3994 -1.61063,0.85029 -1.67413,1.00198 -0.0635,0.15168 -0.31719,0.27579 -0.56375,0.27579 -0.24655,0 -0.6409,0.23209 -0.87631,0.51575 -0.23542,0.28366 -0.56624,0.43033 -0.73516,0.32593 -0.16892,-0.1044 -0.30713,-0.0442 -0.30713,0.1337 0,0.17794 -0.46273,0.41607 -1.02829,0.52918 -0.56556,0.11311 -1.33192,0.50928 -1.70301,0.88037 -0.37108,0.37108 -0.76562,0.58378 -0.87675,0.47265 -0.11113,-0.11113 -0.20205,-0.011 -0.20205,0.22249 0,0.2335 -0.1451,0.33487 -0.32244,0.22527 -0.17734,-0.1096 -0.42192,-0.0383 -0.5435,0.15839 -0.12158,0.19672 -0.36615,0.268 -0.54349,0.1584 -0.17734,-0.10961 -0.32244,-0.0463 -0.32244,0.14067 0,0.30373 -1.70158,1.03351 -2.5978,1.11417 -0.1905,0.0171 -0.52145,0.17647 -0.73544,0.35406 -0.21398,0.17759 -0.64262,0.2256 -0.95252,0.10667 -0.32325,-0.12404 -0.56346,-0.0428 -0.56346,0.19056 0,0.24914 -0.26845,0.32157 -0.69275,0.1869 -0.41494,-0.13169 -0.69275,-0.0622 -0.69275,0.17319 0,0.22967 -0.27584,0.30551 -0.66359,0.18244 -0.36498,-0.11585 -0.75965,-0.0552 -0.87703,0.13471 -0.11739,0.18994 -0.44422,0.25677 -0.72631,0.14853 -0.28208,-0.10825 -0.74267,-0.006 -1.02353,0.22699 -0.29151,0.24194 -0.88418,0.33005 -1.38108,0.20534 -0.47874,-0.12016 -0.87043,-0.0945 -0.87043,0.057 0,0.31793 -2.2716,0.41369 -8.13977,0.34316 -2.28607,-0.0275 -4.97479,-0.058 -5.97494,-0.0679 -1.00015,-0.01 -1.81846,-0.146 -1.81846,-0.30252 0,-0.15651 -0.3507,-0.25023 -0.77934,-0.20827 -0.42864,0.042 -1.04464,-0.0386 -1.36891,-0.1791 -0.32426,-0.14045 -0.7529,-0.15443 -0.95252,-0.0311 -0.19963,0.12338 -0.36296,0.0424 -0.36296,-0.18004 0,-0.25836 -0.31266,-0.32589 -0.86594,-0.18703 -0.52257,0.13116 -0.86593,0.0693 -0.86593,-0.15607 0,-0.20538 -0.15587,-0.27709 -0.34637,-0.15935 -0.19051,0.11774 -0.34638,0.0308 -0.34638,-0.19314 0,-0.23668 -0.2901,-0.33135 -0.69274,-0.22606 -0.38101,0.0996 -0.69275,0.0307 -0.69275,-0.15323 0,-0.18391 -0.15555,-0.23825 -0.34566,-0.12076 -0.19012,0.1175 -0.77462,-0.0165 -1.2989,-0.29789 -0.52428,-0.28134 -1.69763,-0.70139 -2.60743,-0.93345 -0.90981,-0.23206 -1.73732,-0.55641 -1.83891,-0.72078 -0.23877,-0.38634 -2.56843,-0.39147 -2.56843,-0.006 0,0.43938 -5.80595,5.02286 -6.48963,5.1232 -0.32563,0.0478 -0.79786,0.36836 -1.04941,0.71238 -0.25155,0.34402 -0.56756,0.58525 -0.70224,0.53606 -0.13467,-0.0492 -0.51942,0.14565 -0.85498,0.43297 -0.33556,0.28731 -0.82111,0.52239 -1.079,0.52239 -0.25789,0 -0.88345,0.3261 -1.39014,0.72466 -0.50669,0.39856 -1.13546,0.7561 -1.39726,0.79452 -0.26181,0.0384 -0.71871,0.27129 -1.01534,0.51747 -0.29664,0.24618 -0.70203,0.34705 -0.90088,0.22415 -0.19885,-0.12289 -0.36154,-0.0417 -0.36154,0.18043 0,0.22213 -0.23381,0.31416 -0.51956,0.2045 -0.28576,-0.10966 -0.51956,-0.0317 -0.51956,0.17318 0,0.20491 -0.23381,0.28285 -0.51956,0.17319 -0.28576,-0.10965 -0.51956,-0.0317 -0.51956,0.17319 0,0.20491 -0.22881,0.28476 -0.50847,0.17744 -0.27966,-0.10731 -0.60451,-0.0397 -0.7219,0.15022 -0.11738,0.18993 -0.53157,0.24436 -0.9204,0.12095 -0.38993,-0.12376 -0.62023,-0.084 -0.51355,0.0886 0.10637,0.17213 -0.38068,0.3286 -1.08234,0.34773 -8.50688,0.23187 -12.53304,0.23023 -12.53297,-0.005 4e-5,-0.15651 -0.35062,-0.25024 -0.77926,-0.20828 -0.42863,0.042 -1.04464,-0.0386 -1.3689,-0.17909 -0.32427,-0.14046 -0.7529,-0.15443 -0.95253,-0.0311 -0.19963,0.12338 -0.36296,0.0426 -0.36296,-0.17955 0,-0.22213 -0.21857,-0.32 -0.4857,-0.21749 -0.26713,0.10251 -0.59185,0.0802 -0.72161,-0.0495 -0.12975,-0.12975 -0.37879,-0.2554 -0.55342,-0.27921 -0.17463,-0.0238 -0.35648,-0.0744 -0.4041,-0.11233 -0.0476,-0.038 -0.47561,-0.14026 -0.95107,-0.2273 -1.1777,-0.21562 -4.85069,-1.97337 -4.85069,-2.32136 0,-0.15443 -0.15586,-0.18444 -0.34637,-0.0667 -0.1905,0.11774 -0.34637,0.0398 -0.34637,-0.17319 0,-0.21299 -0.15587,-0.29093 -0.34638,-0.17319 -0.1905,0.11774 -0.34637,0.0398 -0.34637,-0.17318 0,-0.213 -0.13954,-0.30102 -0.31008,-0.19562 -0.17054,0.1054 -0.40324,-0.0512 -0.51711,-0.34789 -0.11387,-0.29674 -0.364,-0.44251 -0.55586,-0.32394 -0.19185,0.11857 -0.34882,0.0505 -0.34882,-0.15123 0,-0.20175 -0.21712,-0.36682 -0.4825,-0.36682 -0.26537,0 -0.58078,-0.25611 -0.7009,-0.56913 -0.12012,-0.31303 -0.30869,-0.47884 -0.41905,-0.36848 -0.11037,0.11036 -0.53533,-0.15757 -0.94438,-0.5954 -0.40904,-0.43783 -2.06066,-2.02553 -3.67026,-3.52822 -1.6096,-1.50269 -2.85655,-2.75951 -2.77099,-2.79294 0.0856,-0.0334 -0.33175,-0.6112 -0.92736,-1.28395 -0.59561,-0.67276 -1.00194,-1.30418 -0.90295,-1.40316 0.099,-0.099 -0.0752,-0.27792 -0.38717,-0.39762 -0.31193,-0.11969 -0.48023,-0.35826 -0.37399,-0.53016 0.10623,-0.17188 -0.0496,-0.40569 -0.34638,-0.51956 -0.29674,-0.11386 -0.45329,-0.34657 -0.34789,-0.51711 0.10541,-0.17054 0.039,-0.31008 -0.14765,-0.31008 -0.18661,0 -0.442,-0.4676 -0.56752,-1.03912 -0.12553,-0.57151 -0.37172,-1.03912 -0.54709,-1.03912 -0.17536,0 -0.31885,-0.17849 -0.31885,-0.39664 0,-0.21816 -0.42863,-1.08289 -0.95252,-1.92163 -0.89012,-1.42507 -1.02919,-1.51098 -2.12264,-1.3112 -0.64356,0.11758 -2.74778,0.76553 -4.67604,1.43988 -1.92826,0.67436 -3.85663,1.21083 -4.28527,1.19217 -0.42863,-0.0187 -0.77934,0.0862 -0.77934,0.23301 0,0.14682 -0.4199,0.3017 -0.93312,0.34418 -0.51322,0.0425 -1.01979,0.20876 -1.12571,0.36952 -0.10593,0.16077 -0.42639,0.31441 -0.71215,0.34144 -0.66979,0.0633 -2.20061,0.32412 -2.42462,0.41304 -0.0953,0.0378 -0.44595,0.041 -0.77934,0.007 -0.33338,-0.0339 -0.60615,0.0824 -0.60615,0.25846 0,0.17606 -0.389669,0.24562 -0.865932,0.15457 -0.479114,-0.0916 -0.865933,-0.003 -0.865933,0.19829 0,0.2001 -0.38967,0.29315 -0.865933,0.20679 -0.496911,-0.0901 -0.865934,0.006 -0.865934,0.22657 0,0.25562 -0.462214,0.3055 -1.385493,0.14951 -0.948439,-0.16024 -1.385493,-0.10851 -1.385493,0.16397 0,0.27418 -0.474711,0.32685 -1.525628,0.16926 -0.945901,-0.14185 -1.995256,-0.059 -2.761524,0.21812 -1.000135,0.36165 -2.339505,0.36669 -7.021211,0.0264 -3.181923,-0.23127 -5.967177,-0.57143 -6.189455,-0.7559 -0.222281,-0.18448 -0.499983,-0.23958 -0.617116,-0.12244 -0.117136,0.11713 -0.492463,0.0917 -0.834063,-0.0565 -0.3416,-0.14818 -1.244564,-0.3234 -2.006585,-0.38939 -0.762022,-0.066 -1.437772,-0.27671 -1.501671,-0.46827 -0.0639,-0.19157 -0.258733,-0.2602 -0.432966,-0.15251 -0.174233,0.10768 -0.511625,0.0741 -0.749756,-0.0747 -0.238132,-0.14877 -0.666769,-0.30514 -0.952527,-0.3475 -1.359273,-0.20149 -3.463732,-0.93044 -3.463732,-1.19978 0,-0.16574 -0.467604,-0.30135 -1.03912,-0.30135 -0.571516,0 -1.03912,-0.16507 -1.03912,-0.36682 0,-0.20174 -0.155868,-0.27048 -0.346373,-0.15274 -0.190506,0.11774 -0.346374,0.0398 -0.346374,-0.17319 0,-0.21299 -0.155868,-0.29092 -0.346373,-0.17318 -0.190505,0.11774 -0.346373,0.0398 -0.346373,-0.17319 0,-0.21299 -0.138207,-0.30184 -0.307127,-0.19744 -0.16892,0.1044 -0.505628,-0.0494 -0.74824,-0.3417 -0.242613,-0.29233 -0.649943,-0.45137 -0.90518,-0.35343 -0.255236,0.0979 -0.464066,0.0179 -0.464066,-0.17786 0,-0.19577 -0.155868,-0.25962 -0.346373,-0.14188 -0.190506,0.11774 -0.346374,0.075 -0.346374,-0.095 0,-0.17 -0.201791,-0.30909 -0.448424,-0.30909 -0.624786,0 -5.439921,-2.89646 -5.439921,-3.27229 0,-0.16879 -0.143878,-0.3069 -0.319729,-0.3069 -0.175851,0 -0.765335,-0.42864 -1.309964,-0.95253 -0.544628,-0.52388 -1.530793,-1.40692 -2.191477,-1.96229 -3.940882,-3.31271 -10.286411,-9.90099 -9.536181,-9.90099 0.116125,0 -0.02681,-0.36314 -0.317623,-0.80699 -0.290818,-0.44384 -0.424301,-0.91145 -0.29663,-1.03912 0.127672,-0.12767 0.06718,-0.23213 -0.134421,-0.23213 -0.334168,0 -0.778558,-1.11579 -0.743307,-1.86633 0.0079,-0.1692 -0.133492,-0.403 -0.314309,-0.51956 -0.465145,-0.29982 -1.447184,-3.8315 -1.225818,-4.40837 0.101217,-0.26377 0.01538,-0.47958 -0.190741,-0.47958 -0.23168,0 -0.295423,-0.39674 -0.166948,-1.03912 0.114304,-0.57151 0.06377,-1.03912 -0.112294,-1.03912 -0.176064,0 -0.256178,-0.54768 -0.178031,-1.21707 0.07816,-0.66953 -0.05106,-1.44981 -0.287244,-1.73439 -0.490224,-0.59069 -0.171105,-5.93907 0.395226,-6.62394 0.180334,-0.21808 0.297242,-0.52981 0.259794,-0.69274 -0.03745,-0.16293 0.114067,-0.73796 0.336698,-1.27784 0.222632,-0.53987 0.316537,-1.12438 0.208678,-1.2989 -0.107859,-0.17451 -0.0051,-0.3173 0.228438,-0.3173 0.233499,0 0.328054,-0.0965 0.210122,-0.21442 -0.117932,-0.11793 0.02092,-0.44977 0.308565,-0.73741 0.287642,-0.28764 0.440979,-0.73669 0.34075,-0.99789 -0.10023,-0.26119 -0.02206,-0.47489 0.173708,-0.47489 0.195769,0 0.259613,-0.15587 0.141874,-0.34638 -0.117739,-0.1905 -0.049,-0.34637 0.152745,-0.34637 0.201748,0 0.339614,-0.1169 0.306369,-0.25978 -0.09689,-0.41639 0.836089,-2.16483 1.155164,-2.16483 0.159926,0 0.290775,-0.2387 0.290775,-0.53043 0,-0.29174 0.232907,-0.61981 0.51757,-0.72905 0.284664,-0.10923 0.436167,-0.33032 0.336672,-0.49131 -0.09949,-0.16098 0.133652,-0.46104 0.518102,-0.66679 0.384451,-0.20575 0.667286,-0.48634 0.628524,-0.62353 -0.08931,-0.31611 8.683589,-9.08196 9.089258,-9.08196 0.165501,0 0.518564,-0.31074 0.784586,-0.69054 0.266021,-0.3798 0.582926,-0.59129 0.704234,-0.46999 0.121307,0.12131 0.318838,-0.0356 0.438956,-0.34857 0.120119,-0.31303 0.435524,-0.56914 0.7009,-0.56914 0.265376,0 0.482502,-0.16507 0.482502,-0.36681 0,-0.20175 0.150183,-0.274 0.333739,-0.16056 0.183557,0.11345 0.638172,-0.0982 1.010256,-0.47025 0.372084,-0.37208 0.767439,-0.58559 0.878567,-0.47446 0.111128,0.11112 0.202051,0.0202 0.202051,-0.20205 0,-0.22226 0.251547,-0.40411 0.558993,-0.40411 0.731115,0 3.251113,-1.42056 3.251113,-1.8327 0,-0.17581 0.233802,-0.22994 0.51956,-0.12028 0.285758,0.10966 0.51956,0.0392 0.51956,-0.15657 0,-0.19577 0.143302,-0.26738 0.318448,-0.15913 0.175147,0.10824 0.553236,-0.038 0.840198,-0.32494 0.286961,-0.28696 0.767131,-0.42758 1.067044,-0.3125 0.299912,0.11509 0.545296,0.0367 0.545296,-0.17418 0,-0.21089 0.301589,-0.38343 0.670197,-0.38343 0.368609,0 1.108982,-0.18087 1.645273,-0.40192 0.536292,-0.22106 1.185552,-0.3665 1.442802,-0.32321 0.27865,0.0469 0.36613,-0.0857 0.216404,-0.32793 -0.176445,-0.2855 -0.032,-0.33704 0.4848,-0.17302 0.465332,0.14769 0.736123,0.084 0.736123,-0.17313 0,-0.23336 0.240217,-0.31459 0.563463,-0.19055 0.309903,0.11892 0.73854,0.0752 0.952526,-0.0972 0.467199,-0.37633 2.946376,-0.73361 4.97851,-0.71746 0.809647,0.006 1.472086,-0.11239 1.472086,-0.26404 0,-0.70845 19.250772,-0.71052 19.95914,-0.002 0.330208,0.33021 2.274188,0.30378 2.812758,-0.0382 0.49845,-0.31654 1.02001,-2.83734 0.92661,-4.47844 -0.0352,-0.61914 0.0905,-1.12571 0.27933,-1.12571 0.19332,0 0.24841,-0.37842 0.12606,-0.86593 -0.12195,-0.48587 -0.0672,-0.86594 0.12476,-0.86594 0.18816,0 0.25238,-0.2338 0.14273,-0.51956 -0.10966,-0.285754 -0.02,-0.519556 0.19924,-0.519556 0.21924,0 0.36639,-0.194835 0.32701,-0.432966 -0.11678,-0.706089 0.43602,-2.33802 0.79198,-2.33802 0.18109,0 0.24302,-0.139536 0.13762,-0.31008 -0.1054,-0.17054 0.0413,-0.399452 0.32593,-0.508687 0.28467,-0.109236 0.51757,-0.498563 0.51757,-0.865171 0,-0.366605 0.24368,-0.760068 0.54152,-0.874357 0.29783,-0.11429 0.45042,-0.355189 0.33909,-0.535331 -0.11134,-0.180142 0.0486,-0.468023 0.35545,-0.639734 0.30683,-0.171714 0.52688,-0.429801 0.48899,-0.573528 -0.11266,-0.427491 3.12455,-4.006139 3.62386,-4.006139 0.25287,0 0.71509,-0.38967 1.02715,-0.865934 0.31206,-0.476263 0.79759,-0.865933 1.07895,-0.865933 0.28137,0 0.51158,-0.153623 0.51158,-0.341385 0,-0.434394 4.00012,-2.470501 4.28799,-2.182633 0.11817,0.118175 0.21486,0.05899 0.21486,-0.131511 0,-0.190506 0.19484,-0.358611 0.43297,-0.373567 0.74763,-0.04696 5.92125,-1.156794 7.12821,-1.529128 0.71336,-0.220064 2.10065,-0.250808 3.63692,-0.08059 1.36601,0.151348 2.75641,0.264161 3.0898,0.250691 0.33338,-0.01347 0.60615,0.129253 0.60615,0.317164 0,0.187907 0.31174,0.260129 0.69275,0.160492 0.38101,-0.09964 0.69274,-0.02321 0.69274,0.169847 0,0.193051 0.23381,0.261287 0.51956,0.151629 0.28576,-0.109655 0.51956,-0.03541 0.51956,0.164994 0,0.200402 0.19484,0.296156 0.43297,0.212788 0.23813,-0.08337 1.27067,0.215378 2.29453,0.663883 1.02386,0.448502 2.05929,0.81546 2.30096,0.81546 0.48826,0 0.4998,-0.02432 1.96097,-4.128676 0.57102,-1.604003 1.25884,-3.253058 1.52847,-3.664567 0.26963,-0.411512 0.38578,-0.85266 0.25811,-0.980333 -0.12767,-0.12767 -0.0411,-0.232129 0.19241,-0.232129 0.2335,0 0.32822,-0.155868 0.21048,-0.346373 -0.11774,-0.190506 -0.0398,-0.346374 0.17318,-0.346374 0.21299,0 0.29093,-0.155868 0.17319,-0.346373 -0.11774,-0.190505 -0.0398,-0.346373 0.17319,-0.346373 0.21299,0 0.29092,-0.155868 0.17318,-0.346373 -0.11774,-0.190506 -0.0398,-0.346374 0.17319,-0.346374 0.21299,0 0.29093,-0.155868 0.17319,-0.346373 -0.11774,-0.190505 -0.0398,-0.346373 0.17318,-0.346373 0.21299,0 0.29093,-0.155868 0.17319,-0.346374 -0.11774,-0.190505 -0.023,-0.346373 0.21047,-0.346373 0.2335,0 0.33362,-0.09092 0.2225,-0.20205 -0.11113,-0.11113 0.10238,-0.506484 0.47446,-0.878569 0.37209,-0.372084 0.5837,-0.826699 0.47026,-1.010253 -0.11345,-0.183557 -0.032,-0.333741 0.18099,-0.333741 0.21299,0 0.29092,-0.155868 0.17319,-0.346373 -0.11774,-0.190505 -0.049,-0.346373 0.15274,-0.346373 0.20175,0 0.36682,-0.217128 0.36682,-0.482502 0,-0.265377 0.24368,-0.576011 0.54151,-0.690301 0.29783,-0.114289 0.4546,-0.348434 0.34836,-0.520322 -0.10623,-0.171891 0.0621,-0.410462 0.374,-0.530159 0.31193,-0.119699 0.46765,-0.317133 0.34604,-0.438741 -0.24242,-0.24242 1.37051,-2.540146 2.0945,-2.983752 0.24864,-0.152345 0.45206,-0.501727 0.45206,-0.776405 0,-0.274677 0.31174,-0.694096 0.69275,-0.932041 0.38101,-0.237945 0.69275,-0.602569 0.69275,-0.810275 0,-0.207707 2.00694,-2.391332 4.45986,-4.852501 4.84881,-4.865106 6.14896,-6.046822 6.38888,-5.806905 0.0859,0.08593 0.46504,-0.236364 0.84248,-0.716199 0.37744,-0.479835 0.77115,-0.787527 0.87492,-0.683759 0.10377,0.103768 0.53891,-0.285067 0.967,-0.864078 0.42808,-0.579011 0.90941,-0.971735 1.06962,-0.87272 0.16021,0.09902 0.29129,0.01496 0.29129,-0.186787 0,-0.201749 0.17696,-0.366816 0.39325,-0.366816 0.21628,0 0.76251,-0.398443 1.21383,-0.885429 0.45132,-0.486987 0.97687,-0.788843 1.16788,-0.670793 0.19101,0.11805 0.44046,-0.02815 0.55433,-0.324887 0.11386,-0.296739 0.32296,-0.467876 0.46465,-0.380305 0.1417,0.08757 0.62323,-0.181396 1.07009,-0.597704 0.44685,-0.416308 1.03936,-0.790225 1.31668,-0.830927 0.27732,-0.0407 0.63433,-0.279202 0.79337,-0.529999 0.15903,-0.250797 0.29154,-0.335091 0.29445,-0.18732 0.007,0.35093 2.08355,-0.722333 2.08355,-1.076844 0,-0.148951 0.5845,-0.526066 1.2989,-0.838034 3.64008,-1.589582 4.5899,-1.944854 4.59475,-1.718627 0.003,0.136109 0.13542,0.04227 0.29445,-0.208524 0.15903,-0.250797 0.58528,-0.51164 0.94722,-0.579652 0.36194,-0.06801 0.69704,-0.155066 0.74467,-0.193455 0.0476,-0.03839 0.20349,-0.102342 0.34637,-0.142119 0.14288,-0.03978 0.70967,-0.258315 1.25953,-0.485642 0.54986,-0.227328 1.28621,-0.457041 1.63634,-0.510474 0.35013,-0.05343 0.73379,-0.194342 0.85258,-0.313129 0.11879,-0.118787 0.43454,-0.132105 0.70168,-0.0296 0.26713,0.102509 0.48569,0.01873 0.48569,-0.186181 0,-0.204909 0.21804,-0.288892 0.48453,-0.186631 0.26648,0.102261 0.58321,0.02624 0.70383,-0.16893 0.12063,-0.195173 0.44813,-0.267057 0.72779,-0.159742 0.27965,0.107315 0.50846,0.03717 0.50846,-0.155886 0,-0.193052 0.31174,-0.269483 0.69275,-0.169847 0.40359,0.105541 0.69275,0.01063 0.69275,-0.227386 0,-0.224699 0.27277,-0.380797 0.60615,-0.346885 0.33338,0.03391 0.68409,0.03072 0.77934,-0.0071 0.23727,-0.09419 1.75439,-0.360822 2.5978,-0.456557 0.38101,-0.04325 0.87351,-0.195004 1.09446,-0.337233 0.22093,-0.14223 0.64211,-0.166348 0.93593,-0.0536 0.29383,0.112752 0.71465,0.0935 0.93516,-0.04278 0.41568,-0.256901 0.84597,-0.301751 6.90609,-0.719838 7.03435,-0.485299 17.42051,0.05057 18.57366,0.958301 0.21398,0.168444 0.62685,0.215012 0.91749,0.103486 0.29063,-0.111527 0.6329,-0.03374 0.76058,0.17286 0.12769,0.2066 0.37163,0.289436 0.5421,0.18408 0.27934,-0.172642 3.89183,0.598529 5.18416,1.106684 0.28576,0.112361 0.8951,0.253632 1.35409,0.313934 0.45898,0.0603 0.94813,0.293463 1.08699,0.518135 0.13885,0.224672 0.42575,0.301393 0.63756,0.170491 0.2118,-0.130902 0.3851,-0.05626 0.3851,0.165869 0,0.22213 0.20299,0.325975 0.4511,0.230767 0.24811,-0.09521 0.98848,0.06912 1.64527,0.365174 0.6568,0.296053 1.27211,0.557632 1.36736,0.581288 0.0952,0.02365 0.52389,0.237805 0.95252,0.475888 0.42864,0.238084 0.77934,0.338328 0.77934,0.222765 0,-0.115563 0.24494,0.03482 0.54431,0.334187 0.29936,0.299365 0.92283,0.544301 1.38549,0.544301 0.46265,0 0.84119,0.165067 0.84119,0.366815 0,0.201748 0.15587,0.270483 0.34637,0.152745 0.19051,-0.117739 0.34638,-0.02303 0.34638,0.210473 0,0.2335 0.0972,0.327311 0.21607,0.208469 0.24171,-0.24171 2.95594,1.048533 3.28638,1.562224 0.11656,0.181185 0.31813,0.304695 0.44794,0.274465 0.12982,-0.03023 0.8138,0.300513 1.51996,0.734983 0.70616,0.43447 1.71256,1.010897 2.23645,1.280948 0.52389,0.270052 0.95253,0.627403 0.95253,0.794113 0,0.166711 0.23869,0.30311 0.53043,0.30311 0.29174,0 0.62015,0.233802 0.7298,0.51956 0.10966,0.285758 0.39983,0.51956 0.64482,0.51956 0.24499,0 0.53516,0.233802 0.64482,0.51956 0.10966,0.285758 0.35895,0.51956 0.55398,0.51956 0.47455,0 1.87735,1.186047 3.89192,3.290546 0.91182,0.952526 1.65914,1.590808 1.66071,1.418403 0.002,-0.172405 0.31459,-0.03135 0.6956,0.313463 0.38101,0.34481 0.69274,0.84577 0.69274,1.113246 0,0.267475 0.13346,0.403837 0.29658,0.303027 0.34119,-0.210871 4.20628,3.699703 4.20628,4.255787 0,0.202803 0.4676,0.714448 1.03912,1.136988 0.57151,0.42254 1.03912,0.946622 1.03912,1.164626 0,0.218005 0.59795,0.929066 1.32879,1.580135 1.39922,1.246503 4.90592,5.73722 4.90592,6.282571 0,0.175701 0.23524,0.554693 0.52275,0.842203 0.28751,0.287507 0.43418,0.666045 0.32593,0.841192 -0.10825,0.175147 -0.0317,0.318449 0.17,0.318449 0.20175,0 0.33962,0.116901 0.30637,0.25978 -0.0921,0.395724 0.82852,2.164832 1.12652,2.164832 0.28223,0 1.41502,2.742934 1.34294,3.251822 -0.024,0.169203 0.13342,0.41703 0.34974,0.550723 0.21632,0.133693 0.41867,0.579756 0.44967,0.991255 0.031,0.411494 0.17416,0.748173 0.31815,0.748173 0.14399,0 0.17207,0.233802 0.0624,0.51956 -0.10966,0.285758 -0.0176,0.51956 0.2045,0.51956 0.22213,0 0.30754,0.155868 0.1898,0.346373 -0.11774,0.190505 -0.049,0.346373 0.15274,0.346373 0.20175,0 0.36682,0.38047 0.36682,0.84549 0,0.46502 0.14906,0.937615 0.33125,1.050214 0.18218,0.112596 0.24344,0.433532 0.13613,0.71319 -0.10732,0.279655 -0.0372,0.508465 0.15588,0.508465 0.19305,0 0.27556,0.288502 0.18335,0.64111 -0.0922,0.352611 0.0934,0.902157 0.41244,1.221208 0.31906,0.319055 0.49192,0.809893 0.38414,1.090757 -0.10778,0.28086 -0.0283,0.510658 0.1766,0.510658 0.20491,0 0.28285,0.233802 0.17319,0.51956 -0.10965,0.285758 -0.0661,0.51956 0.0969,0.51956 0.16296,0 0.49053,1.052109 0.72794,2.33802 0.57847,3.133181 0.59764,3.244831 0.87729,5.10966 0.36479,2.432572 1.21867,3.169346 4.83103,4.168432 1.71454,0.474199 3.46399,0.940436 3.88765,1.036076 0.42366,0.0956 1.203,0.35175 1.73186,0.56914 0.52887,0.21739 1.11745,0.41208 1.30795,0.43264 0.73054,0.0789 3.12622,1.00762 3.30558,1.28153 0.10352,0.15809 0.49319,0.33927 0.86594,0.40263 1.21467,0.20647 3.27551,1.07334 3.27551,1.37782 0,0.16347 0.15586,0.2009 0.34637,0.0832 0.1905,-0.11774 0.34637,-0.049 0.34637,0.15274 0,0.20175 0.1169,0.33593 0.25978,0.29819 0.48726,-0.12872 1.81846,0.4607 1.81846,0.80516 0,0.18891 0.1433,0.25491 0.31845,0.14666 0.17515,-0.10825 0.59265,0.0774 0.92779,0.41252 0.33513,0.33514 0.66515,0.56016 0.73337,0.50004 0.2359,-0.20789 4.60148,2.3959 4.60148,2.74449 0,0.19243 0.14055,0.263 0.31234,0.15684 0.17178,-0.10617 0.8576,0.35223 1.52404,1.01867 0.66644,0.66644 1.32701,1.21171 1.46794,1.21171 0.14093,0 0.45569,0.27277 0.69946,0.60616 0.24378,0.33338 0.58894,0.60615 0.76703,0.60615 0.17808,0 0.75558,0.51315 1.28332,1.14034 0.52775,0.62719 1.04785,1.05204 1.15578,0.94411 0.10792,-0.10793 0.92458,0.52117 1.81479,1.39799 l 1.61857,1.59423 6.02209,0.0171 c 3.46219,0.01 6.2069,0.16419 6.45685,0.36314 0.23912,0.19032 1.21329,0.27124 2.16483,0.17981 1.00081,-0.0962 1.73008,-0.0247 1.73008,0.16967 0,0.18474 0.38967,0.26141 0.86593,0.17037 0.47627,-0.091 0.86594,-0.0146 0.86594,0.16987 0,0.18446 0.21856,0.25152 0.48569,0.14902 0.26713,-0.10251 0.59186,-0.0802 0.72161,0.0495 0.12975,0.12976 0.33983,0.24286 0.46683,0.25134 0.5938,0.0397 2.82872,1.01764 2.82872,1.23782 0,0.13647 0.7014,0.51601 1.55868,0.8434 0.85727,0.3274 1.55868,0.72996 1.55868,0.89459 0,0.16462 0.2338,0.29931 0.51956,0.29931 0.28575,0 0.51956,0.16507 0.51956,0.36682 0,0.20175 0.15697,0.2698 0.34882,0.15123 0.19185,-0.11857 0.44232,0.0281 0.55661,0.32593 0.11429,0.29783 0.39837,0.54151 0.63128,0.54151 0.55801,0 4.74649,3.79781 4.54609,4.12207 -0.0853,0.13803 0.45951,0.92334 1.21071,1.74514 0.7512,0.8218 1.36582,1.63035 1.36582,1.79678 0,0.16643 0.13897,0.3026 0.30882,0.3026 0.16986,0 0.40663,0.38967 0.52616,0.86593 0.11954,0.47627 0.37943,0.86594 0.57755,0.86594 0.19812,0 0.26389,0.15586 0.14615,0.34637 -0.11774,0.1905 -0.0398,0.34637 0.17318,0.34637 0.213,0 0.29815,0.14419 0.18923,0.32042 -0.24693,0.39955 0.50318,2.1042 0.92593,2.1042 0.17117,0 0.22155,0.14509 0.11194,0.32243 -0.1096,0.17735 -0.0477,0.41614 0.13762,0.53066 0.18529,0.11451 0.24909,0.43702 0.14178,0.71668 -0.10732,0.27964 -0.006,0.50845 0.22537,0.50845 0.23127,0 0.33269,0.22881 0.22537,0.50847 -0.10731,0.27965 -0.0354,0.60716 0.15975,0.72778 0.19517,0.12062 0.26579,0.45142 0.15693,0.7351 -0.10886,0.28368 -0.0889,0.6922 0.0444,0.90783 0.13327,0.21563 0.19854,0.99825 0.14504,1.73914 -0.0535,0.7409 0.0328,1.26668 0.19179,1.1684 0.37859,-0.23404 0.22358,8.37536 -0.16001,8.88755 -0.16188,0.21613 -0.31408,0.76861 -0.33825,1.22773 -0.0241,0.45913 -0.21583,0.94101 -0.42593,1.07087 -0.21011,0.12985 -0.34904,0.37767 -0.30874,0.55072 0.0403,0.17305 -0.044,0.62637 -0.18737,1.00738 -0.14335,0.38101 -0.42081,1.12138 -0.61657,1.64527 -0.19576,0.52389 -0.49289,0.95253 -0.66028,0.95253 -0.16739,0 -0.30435,0.28576 -0.30435,0.63502 0,0.34926 -0.57151,1.20653 -1.27003,1.90505 -0.69852,0.69852 -1.13633,1.27004 -0.97292,1.27004 0.16341,0 -0.005,0.22123 -0.37524,0.49163 -0.36979,0.2704 -0.67235,0.69904 -0.67235,0.95253 0,0.25349 -0.19484,0.46089 -0.43297,0.46089 -0.23813,0 -0.394,0.10824 -0.34637,0.24054 0.129,0.35836 -2.23253,2.70268 -2.53452,2.51604 -0.14296,-0.0884 -0.68889,0.34635 -1.21319,0.966 -0.5243,0.61965 -1.07939,1.08923 -1.23354,1.0435 -0.15414,-0.0457 -0.44861,0.2314 -0.65436,0.61585 -0.20575,0.38445 -0.52214,0.60751 -0.70308,0.49567 -0.18095,-0.11183 -0.329,-0.0291 -0.329,0.18393 0,0.21299 -0.15697,0.29024 -0.34882,0.17167 -0.19185,-0.11856 -0.44233,0.0281 -0.55662,0.32594 -0.11429,0.29783 -0.49172,0.54151 -0.83874,0.54151 -0.34702,0 -0.85733,0.22638 -1.13402,0.50307 -0.27668,0.27668 -0.59955,0.40657 -0.71748,0.28864 -0.11794,-0.11793 -0.21443,-0.0234 -0.21443,0.21012 0,0.2335 -0.15586,0.32822 -0.34637,0.21048 -0.1905,-0.11774 -0.34637,-0.0539 -0.34637,0.14187 0,0.19577 -0.2338,0.26623 -0.51956,0.15657 -0.28576,-0.10966 -0.51956,-0.0268 -0.51956,0.18406 0,0.21089 -0.1169,0.36497 -0.25978,0.34241 -0.14288,-0.0225 -0.33772,-0.01 -0.43297,0.0289 -0.0953,0.0384 -0.48492,0.10857 -0.86593,0.15586 -2.60202,0.32296 -3.98329,0.63326 -3.98329,0.89486 0,0.16685 -0.54422,0.21506 -1.20938,0.10712 -0.66837,-0.10847 -1.4129,-0.0274 -1.66434,0.18133 -0.25022,0.20767 -1.14779,0.36207 -1.99457,0.34311 -4.16914,-0.0933 -3.7785,-0.28619 -8.73491,4.31223 -2.51977,2.33778 -4.62037,4.36406 -4.66799,4.50285 -0.0476,0.1388 -0.18076,0.23583 -0.29584,0.21563 -0.11508,-0.0202 -0.85545,0.57279 -1.64527,1.31777 -0.78982,0.74498 -2.37124,2.11003 -3.51427,3.03345 -1.14303,0.92342 -2.4039,2.05508 -2.80192,2.51481 -0.39803,0.45973 -0.995,0.87569 -1.3266,0.92436 -0.33161,0.0487 -0.74394,0.31132 -0.91629,0.58367 -0.17235,0.27236 -0.31576,0.37981 -0.31868,0.2388 -0.003,-0.14101 -0.27807,-0.0228 -0.61145,0.26261 -0.33339,0.28546 -0.7446,0.50442 -0.9138,0.48659 -0.16921,-0.0178 -0.40301,0.10573 -0.51956,0.27459 -0.35236,0.51047 -3.75295,2.15719 -3.98192,1.92823 -0.11731,-0.11731 -0.21329,-0.0148 -0.21329,0.22787 0,0.2564 -0.22513,0.35477 -0.53755,0.23488 -0.30824,-0.11828 -0.44728,-0.0602 -0.32593,0.13613 0.11639,0.18833 0.008,0.3554 -0.24179,0.37127 -1.55949,0.0993 -2.16498,0.25663 -2.27664,0.59163 -0.0696,0.20884 -0.35031,0.29386 -0.62376,0.18892 -0.27345,-0.10493 -0.49718,-0.0231 -0.49718,0.18178 0,0.20491 -0.2338,0.28284 -0.51956,0.17319 -0.28576,-0.10966 -0.51956,-0.0317 -0.51956,0.17318 0,0.20491 -0.2338,0.28285 -0.51956,0.17319 -0.28576,-0.10966 -0.51956,-0.0442 -0.51956,0.14551 0,0.18968 -0.50657,0.44076 -1.12571,0.55795 -0.61915,0.11718 -1.51539,0.3027 -1.99165,0.41225 -0.47626,0.10955 -1.21622,0.26863 -1.64434,0.35351 -0.42813,0.0849 -1.20747,0.24587 -1.73187,0.35777 -0.5244,0.11191 -1.42106,0.19611 -1.99257,0.18713 -0.57152,-0.009 -1.27293,0.0734 -1.55868,0.18317 -0.28576,0.10973 -1.7455,0.1634 -3.24387,0.11928 -1.68469,-0.0496 -2.64536,0.0475 -2.51743,0.25451 0.24002,0.38837 -7.39565,0.38893 -8.45239,6.9e-4 z"
       id="path1416" />
  </g>
</svg>
