<?xml version="1.0" encoding="UTF-8" standalone="no"?>
<svg
   xmlns:dc="http://purl.org/dc/elements/1.1/"
   xmlns:cc="http://creativecommons.org/ns#"
   xmlns:rdf="http://www.w3.org/1999/02/22-rdf-syntax-ns#"
   xmlns:svg="http://www.w3.org/2000/svg"
   xmlns="http://www.w3.org/2000/svg"
   xmlns:sodipodi="http://sodipodi.sourceforge.net/DTD/sodipodi-0.dtd"
   xmlns:inkscape="http://www.inkscape.org/namespaces/inkscape"
   version="1.1"
   id="svg3189"
   width="500"
   height="600"
   viewBox="0 0 500 600"
   sodipodi:docname="letterf.svg"
   inkscape:version="1.0.1 (3bc2e813f5, 2020-09-07)">
  <metadata
     id="metadata3195">
    <rdf:RDF>
      <cc:Work
         rdf:about="">
        <dc:format>image/svg+xml</dc:format>
        <dc:type
           rdf:resource="http://purl.org/dc/dcmitype/StillImage" />
        <dc:title></dc:title>
      </cc:Work>
    </rdf:RDF>
  </metadata>
  <defs
     id="defs3193" />
  <sodipodi:namedview
     pagecolor="#ffffff"
     bordercolor="#666666"
     borderopacity="1"
     objecttolerance="10"
     gridtolerance="10"
     guidetolerance="10"
     inkscape:pageopacity="0"
     inkscape:pageshadow="2"
     inkscape:window-width="1920"
     inkscape:window-height="1001"
     id="namedview3191"
     showgrid="false"
     inkscape:zoom="1.3507448"
     inkscape:cx="336.14303"
     inkscape:cy="338.03627"
     inkscape:window-x="-9"
     inkscape:window-y="-9"
     inkscape:window-maximized="1"
     inkscape:current-layer="g3197" />
  <g
     inkscape:groupmode="layer"
     inkscape:label="Image"
     id="g3197">
    <path
       style="fill:#ffe680;stroke-width:0.506815"
       d="M 122.94672,543.40374 C 90.574399,542.37993 68.400001,539.65899 53.414827,534.87182 43.125725,531.58488 33.18738,522.88935 27.951119,512.59249 c -2.885713,-5.67454 -4.890851,-15.42859 -4.370063,-21.25814 0.453267,-5.07367 2.407407,-12.49997 4.093351,-15.55602 4.780779,-8.66581 9.630988,-12.67162 21.281594,-17.57658 12.99448,-5.47071 14.391754,-6.28542 17.521372,-10.21603 4.329983,-5.43821 6.638304,-12.10642 8.063446,-23.29336 C 77.148065,404.22622 78.5853,372.20507 79.62967,311.31352 80.885462,238.09651 79.744136,185.72825 76.503595,167.88838 74.680137,157.84957 68.930634,149.90564 60.686138,146.03383 37.967342,135.36457 32.123932,130.14911 29.4013,118.11095 26.086594,103.45481 31.720421,89.674792 44.884658,80.239555 c 7.87955,-5.64754 13.826303,-8.137815 24.917063,-10.434315 6.076311,-1.258194 7.372558,-1.347536 19.12707,-1.318272 6.934963,0.01737 15.373419,0.256323 18.752139,0.53123 3.37872,0.274907 8.19573,0.629429 10.70445,0.787825 2.50874,0.158414 10.9472,0.728174 18.75215,1.266166 14.4991,0.999384 29.84249,1.782764 49.66786,2.535841 11.72944,0.445533 146.70847,0.320216 149.76377,-0.138995 0.97562,-0.14666 6.10711,-0.409593 11.40333,-0.584307 22.03459,-0.726896 47.47664,-2.575955 59.80415,-4.346386 6.8722,-0.98695 13.19654,-1.501027 14.95104,-1.215304 8.03306,1.308239 11.91008,2.878644 17.50776,7.091571 9.48549,7.138976 23.04477,27.491331 30.04601,45.098681 6.80428,17.11207 10.72076,40.56326 9.33253,55.88167 -1.11874,12.34444 -4.14534,22.04325 -9.05104,29.00426 -3.66499,5.20042 -5.50579,7.17855 -9.44338,10.14772 -5.71348,4.30834 -10.91203,6.33949 -19.52551,7.6289 -6.30589,0.94398 -16.50402,-0.62552 -21.95177,-3.37836 -5.71032,-2.88554 -12.8735,-9.94757 -31.33227,-30.88986 -10.43372,-11.8375 -14.37655,-15.23306 -22.85241,-19.68048 -9.81175,-5.14838 -16.78651,-6.82744 -36.99748,-8.90659 -12.76398,-1.31308 -16.22453,-1.51818 -47.38719,-2.80871 -3.06621,-0.1269 -7.85561,-0.0337 -10.64311,0.20715 -10.07567,0.87081 -13.82421,3.29122 -16.12103,10.40923 -4.37717,13.56514 -8.1287,43.59093 -8.1783,65.45579 l -0.0278,12.24026 1.54121,1.90718 c 3.22415,3.98975 12.23214,5.61703 28.57273,5.16162 10.14072,-0.28264 12.37367,-0.84942 16.04477,-4.07262 3.18631,-2.79755 4.60646,-6.0186 7.08674,-16.07335 3.78182,-15.33112 9.61094,-25.73842 17.82791,-31.82989 4.01361,-2.97543 5.9715,-3.90288 11.03064,-5.22529 7.16472,-1.87278 12.92807,-1.69156 20.18667,0.63473 4.66332,1.49452 6.04008,2.22377 10.39795,5.50752 4.9729,3.74719 8.91801,8.57725 12.83039,15.70849 4.84514,8.83138 8.8988,24.15931 11.31237,42.77504 2.50595,19.32812 2.50607,54.81662 2.9e-4,75.31279 -3.73154,30.5221 -11.56223,52.29147 -23.29693,64.76556 -6.26973,6.66472 -12.04136,9.82617 -21.43318,11.74011 -6.10837,1.24479 -8.07217,1.28148 -13.18652,0.24631 -7.72565,-1.56373 -13.4323,-5.22779 -17.43588,-11.19507 -4.15062,-6.18644 -5.81534,-11.82348 -7.52739,-25.48935 -1.99397,-15.91606 -3.22072,-19.71141 -8.09064,-25.03106 -3.71292,-4.05581 -7.6995,-6.63034 -13.27146,-8.5707 -4.70523,-1.63852 -4.7355,-1.64187 -14.85115,-1.64646 -9.51663,-0.005 -10.27701,0.0656 -12.43802,1.14189 -2.93576,1.46231 -3.93709,3.19772 -4.50891,7.81453 -0.65256,5.26883 -0.67973,51.27874 -0.0361,61.25204 1.30805,20.27056 3.68066,32.59752 7.44662,38.68933 1.63912,2.65145 4.58498,5.76977 6.30301,6.6721 1.51658,0.79651 6.44479,1.9034 12.35611,2.77523 10.79703,1.59236 15.39393,2.88834 19.08243,5.37994 5.25099,3.54703 9.62013,8.52356 12.56162,14.30778 1.408,2.76878 3.56912,12.15707 3.57429,15.52744 0.009,5.20184 -2.1426,14.45836 -4.33381,18.65342 -5.31261,10.1708 -15.18661,17.29342 -28.85726,20.81614 -33.93953,8.74575 -91.09058,12.85196 -152.04444,10.92414 z m 76.02223,-8.55594 c 48.3365,-3.268 74.5306,-7.82749 86.61568,-15.07683 6.94059,-4.16338 12.1717,-11.32766 13.7673,-18.85503 2.21346,-10.44211 -0.3034,-20.28074 -6.96198,-27.21494 -3.86709,-4.02719 -7.71303,-6.01346 -13.59767,-7.02251 -2.36937,-0.40633 -6.47456,-1.10375 -9.12267,-1.5498 -11.47945,-1.9337 -13.89594,-2.96538 -18.43867,-7.87205 -6.82874,-7.37588 -10.00042,-18.9712 -11.98517,-43.81651 -0.79711,-9.97838 -0.41499,-66.99449 0.47132,-70.32669 1.52552,-5.73533 5.31694,-9.03661 12.46741,-10.85566 4.7579,-1.21038 18.00664,-1.1996 23.69392,0.0192 11.19523,2.39935 19.40951,7.71005 25.11134,16.23499 3.46981,5.1878 5.09609,11.07784 6.66225,24.12947 1.06864,8.90549 1.69725,12.39922 2.85742,15.88099 3.53834,10.61898 10.1264,15.55136 20.73817,15.52632 13.90823,-0.0329 24.20277,-7.79532 31.90604,-24.0585 3.25692,-6.87606 3.10882,-6.51607 4.79597,-11.65673 6.74025,-20.53738 9.68371,-46.56536 8.96976,-79.31651 -0.78175,-35.86183 -5.33739,-58.22998 -14.91547,-73.23476 -9.66874,-15.14679 -28.1401,-19.10207 -41.15682,-8.81295 -6.09452,4.81745 -11.59869,15.61018 -14.44555,28.32532 -4.25447,19.00192 -12.02998,24.86151 -32.93082,24.81649 -12.22094,-0.0262 -22.93214,-1.85433 -27.72534,-4.73172 -5.29247,-3.17709 -7.46839,-7.74239 -7.88188,-16.53706 -0.75908,-16.14456 4.10948,-57.41446 8.57466,-72.68606 2.91351,-9.96461 7.65201,-14.40998 17.6565,-16.56422 5.96806,-1.28509 36.1298,-0.70097 56.00303,1.08456 29.59222,2.65875 40.36681,5.18269 52.01769,12.18507 8.3268,5.00457 11.91138,8.34301 26.34812,24.53895 22.48436,25.22423 24.68743,26.77159 38.20159,26.83181 7.38044,0.0329 9.77812,-0.46027 15.17671,-3.12155 6.52144,-3.2148 11.30219,-8.33138 15.05074,-16.10805 3.2842,-6.8135 4.54486,-12.76996 4.86309,-22.97798 0.56691,-18.18788 -2.6737,-35.3746 -9.85846,-52.284 C 455.92419,105.6833 444.45827,88.147346 437.25582,82.054444 429.36811,75.381851 423.64374,74.02648 411.2802,75.904223 385.74536,79.78237 346.14631,81.589884 276.76501,82.044224 208.72082,82.489808 173.06432,81.580771 125.7342,78.193825 118.06863,77.645288 108.45643,76.962101 104.37374,76.675645 88.813456,75.583888 75.169924,76.141826 67.369275,78.188885 52.400998,82.116907 40.860447,91.302413 37.496258,101.96581 c -2.214517,7.0193 -1.103869,16.95058 2.441252,21.82961 2.804854,3.86019 8.055355,7.35306 18.893402,12.56871 9.514513,4.57872 12.695998,6.68208 16.410877,10.84968 10.900511,12.2289 12.547635,27.69247 12.40525,116.46249 -0.143594,89.50077 -1.852942,137.96688 -5.827347,165.2216 -1.339053,9.18268 -3.308898,14.96959 -7.159535,21.03282 -4.114081,6.47805 -7.753381,9.19579 -18.379359,13.72531 -14.177146,6.04319 -17.030768,8.03041 -20.967715,14.60147 -2.871183,4.79224 -3.562308,7.73912 -3.578677,15.25928 -0.01533,7.31902 0.478476,9.73815 3.083048,15.08555 4.554572,9.35079 12.927911,16.43975 23.096603,19.55377 12.072377,3.69706 37.951281,6.69432 63.765623,7.38531 11.99667,0.32107 69.9765,-0.19927 77.28927,-0.69368 z"
       id="path3762" />
    <path
       style="fill:#ffdd55;stroke-width:1.04699"
       d="m 97.224762,533.82081 c -15.805985,-1.31973 -34.564929,-4.58098 -41.695013,-7.24869 -7.786646,-2.91335 -16.499544,-10.89505 -20.241014,-18.54233 -2.442403,-4.99209 -2.865722,-7.15818 -2.819773,-14.42856 0.0466,-7.37312 0.467817,-9.31486 3.049767,-14.05875 3.498688,-6.42824 7.687961,-9.524 20.723727,-15.31425 23.465892,-10.42313 26.876456,-20.12178 29.982177,-85.26052 1.709574,-35.85624 2.485953,-150.57634 1.20485,-178.0322 -2.157657,-46.24166 -4.930036,-52.56503 -28.471677,-64.93945 -14.138312,-7.43167 -19.232205,-11.70315 -20.833794,-17.47016 -4.83587,-17.41305 6.111471,-32.867001 27.851517,-39.316946 9.858851,-2.924973 22.397801,-3.10319 56.376941,-0.80129 45.91637,3.110582 80.29042,4.220659 130.8735,4.226438 72.22883,0.0083 125.89084,-2.02271 154.77142,-5.857676 14.22192,-1.888486 19.10707,-1.194056 26.24561,3.730847 9.63047,6.644091 24.86134,30.990047 30.82798,49.277307 7.71851,23.65663 8.2677,49.6729 1.35926,64.38976 -4.08601,8.70429 -7.55783,12.44405 -15.00923,16.16755 -5.479,2.73789 -7.55848,3.19839 -14.35413,3.17873 -11.66216,-0.0337 -15.28847,-2.04911 -27.83971,-15.47228 -25.48533,-27.25579 -31.90883,-33.12106 -41.35602,-37.76198 -14.62299,-7.18351 -35.88002,-10.33814 -76.51901,-11.35571 -26.48508,-0.66316 -31.85974,0.0422 -37.83186,4.96491 -2.02715,1.67095 -4.47373,4.6987 -5.43686,6.72834 -7.02545,14.80503 -13.4664,79.54828 -8.76765,88.13084 4.69423,8.57432 12.74197,11.32001 33.27947,11.35419 14.65768,0.0244 19.12038,-1.05836 24.7557,-6.00624 4.62022,-4.05661 6.72062,-8.29206 10.21547,-20.59952 6.381,-22.47127 15.14778,-31.47642 30.64323,-31.47642 6.54141,0 14.57425,3.87043 19.61672,9.45183 7.64008,8.45665 13.55824,24.73907 16.54332,45.51503 2.17778,15.15722 1.83479,69.39036 -0.52745,83.39858 -5.6197,33.32514 -15.36998,53.1576 -29.54309,60.09187 -4.9936,2.44314 -6.70554,2.7419 -13.83536,2.41451 -6.39044,-0.29345 -8.85298,-0.8846 -11.47468,-2.75462 -5.28449,-3.76934 -8.4085,-11.56287 -10.74003,-26.7934 -1.13408,-7.40827 -2.82174,-15.75707 -3.75036,-18.55288 -1.97985,-5.96078 -9.33243,-14.57124 -15.55797,-18.21965 -10.70787,-6.27523 -33.32718,-7.67176 -42.32748,-2.61331 -7.19948,4.04635 -7.50925,5.49625 -8.21019,38.42908 -1.05852,49.73342 2.60575,74.58732 12.5208,84.9256 4.7987,5.00353 7.27103,6.02825 20.62439,8.54832 13.98147,2.63861 16.31034,3.68665 21.39684,9.62908 7.5104,8.77422 8.7118,21.95132 2.96418,32.5116 -7.57317,13.91441 -23.01972,19.16115 -71.99898,24.45597 -18.41802,1.99105 -107.64325,2.94641 -126.685538,1.35645 z"
       id="path3764" />
    <path
       style="fill:#ffeeaa;stroke-width:0.740332"
       d="m 125.14833,543.058 c -40.198194,-1.13464 -67.734373,-5.31348 -79.190698,-12.01784 -2.225835,-1.30258 -6.421757,-4.71581 -9.324273,-7.58495 -6.734898,-6.65746 -10.258732,-13.47292 -11.976413,-23.16362 -1.129643,-6.37315 -1.127731,-7.29573 0.02755,-13.29487 1.581487,-8.21231 4.61373,-14.35682 9.46786,-19.18557 3.815091,-3.79514 6.395978,-5.26454 22.172172,-12.62353 8.63529,-4.02803 11.146383,-6.42578 14.374946,-13.72614 4.821982,-10.90335 7.057274,-36.72772 8.503657,-98.24288 1.356871,-57.70822 1.604539,-93.6424 0.844473,-122.525 -1.348353,-51.23751 -2.677362,-59.58507 -10.900614,-68.46716 -3.36918,-3.63912 -5.699306,-5.20955 -13.81846,-9.31319 -20.38968,-10.30551 -25.352874,-16.19089 -26.240499,-31.11613 -0.909028,-15.285123 7.773454,-28.046727 24.61823,-36.184134 7.556288,-3.650306 13.260498,-5.228921 23.155764,-6.408254 7.532699,-0.897758 22.915817,-0.336616 62.722785,2.287987 38.82294,2.559723 71.66609,3.20997 137.7018,2.726294 72.29056,-0.529489 103.48541,-1.807574 130.25141,-5.336532 10.84814,-1.43027 16.42243,-1.344658 21.81954,0.335112 9.49848,2.95626 16.81001,9.719283 26.80635,24.795359 13.52297,20.394818 20.53663,40.637468 22.90759,66.115378 2.12229,22.80589 -4.15347,42.36884 -17.04779,53.14174 -7.51608,6.27951 -15.96466,8.87767 -27.04632,8.31746 -14.20424,-0.71806 -18.5215,-3.38096 -35.14406,-21.67694 -5.8922,-6.48539 -14.38751,-15.47704 -18.87847,-19.98145 -6.90879,-6.92949 -9.19077,-8.71384 -14.82837,-11.59477 -3.66465,-1.87272 -8.82847,-4.0944 -11.47515,-4.93707 -9.65406,-3.07376 -30.89626,-5.40035 -61.44758,-6.73018 -23.88343,-1.03959 -31.08105,-0.18141 -35.73759,4.26104 -5.4487,5.19818 -10.5279,35.17135 -11.41783,67.37839 l -0.45584,16.49695 2.07248,2.16319 c 3.46888,3.62073 7.50273,4.575 21.11225,4.99442 14.61156,0.4503 19.58878,-0.33179 23.3984,-3.67668 3.47104,-3.04761 4.12416,-4.48009 7.63191,-16.73903 3.42083,-11.95517 6.99126,-19.74992 11.64549,-25.42375 10.14097,-12.36256 27.19393,-15.73293 41.90934,-8.28304 4.74978,2.40464 13.38554,11.02406 16.68335,16.65177 5.13126,8.75646 9.86516,25.53688 12.506,44.33034 1.92422,13.69362 1.91963,61.98882 -0.007,76.25422 -4.45982,33.01779 -12.42039,53.60837 -25.55532,66.10053 -12.93865,12.3055 -33.46435,13.70457 -45.22183,3.0824 -6.38261,-5.76631 -8.62952,-11.74754 -11.53248,-30.69915 -2.45213,-16.00845 -3.82444,-19.82672 -8.97813,-24.98041 -7.35639,-7.35638 -17.35244,-10.4065 -31.23254,-9.53006 -8.33457,0.52627 -10.41924,1.41761 -12.35085,5.28085 -1.41128,2.82253 -1.47967,4.41858 -1.45926,34.05528 0.0328,47.67377 2.47,64.53139 10.68178,73.8841 2.72621,3.10498 5.84889,4.21491 17.05927,6.06355 12.9252,2.13143 16.42522,3.53796 22.08131,8.87362 6.10963,5.76351 8.50652,9.9861 10.5482,18.58268 1.34903,5.68015 1.45295,7.25714 0.77528,11.7656 -1.1889,7.9097 -2.76081,12.37624 -6.13255,17.42546 -3.50723,5.25211 -9.20945,10.02396 -15.93469,13.33478 -10.81338,5.32341 -37.7439,10.14061 -72.41496,12.95323 -12.49682,1.01378 -57.39485,2.69648 -65.14924,2.44167 -1.62873,-0.0535 -11.78979,-0.3465 -22.58014,-0.65107 z m 75.8967,-8.10914 c 40.10458,-2.56277 68.39531,-7.17333 81.58925,-13.29664 18.54121,-8.60499 23.68604,-33.10945 10.10714,-48.13967 -3.9794,-4.40473 -8.80879,-6.33278 -21.22092,-8.47211 -13.8787,-2.39209 -16.95063,-3.90802 -22.25393,-10.98184 -3.39335,-4.52623 -6.08673,-13.01367 -8.03866,-25.33162 -1.3035,-8.2259 -1.59146,-14.43822 -1.98183,-42.7549 -0.25121,-18.22181 -0.20337,-33.13025 0.10629,-33.12987 0.30968,3.9e-4 0.50183,-2.2782 0.42701,-5.06353 -0.12063,-4.49066 0.10907,-5.42904 2.02812,-8.2853 4.28528,-6.37808 13.85949,-8.85105 28.5784,-7.38168 14.71689,1.46918 25.84867,8.2444 31.58428,19.22339 2.6587,5.08921 3.30273,7.74399 5.59443,23.06098 1.9387,12.95756 3.10496,16.87985 6.5189,21.924 6.89713,10.19059 25.00575,10.76796 36.71793,1.17072 9.34551,-7.65795 17.31054,-24.19169 21.63271,-44.90498 7.52046,-36.04064 6.24503,-93.46311 -2.67285,-120.33581 -5.147,-15.50977 -11.30027,-23.91613 -20.79938,-28.41532 -4.59263,-2.17526 -5.67655,-2.38869 -12.07856,-2.37822 -5.94342,0.01 -7.6067,0.29205 -10.73482,1.82224 -8.88321,4.34545 -15.26223,14.21948 -19.62071,30.37072 -2.90854,10.77819 -5.00925,15.37581 -8.72155,19.08811 -2.85788,2.85788 -9.63063,6.08319 -12.77395,6.08319 -0.79909,0 -1.45289,0.24986 -1.45289,0.55525 0,0.30538 -4.83067,0.55525 -10.73482,0.55525 -5.90415,0 -10.73482,-0.204 -10.73482,-0.45332 0,-0.24933 -1.74903,-0.65894 -3.88674,-0.91024 -10.97879,-1.29065 -17.27404,-5.61334 -19.06851,-13.09358 -2.95859,-12.33278 3.49172,-70.85722 9.17731,-83.26673 3.18001,-6.94078 7.76389,-10.58676 14.94133,-11.8842 1.59964,-0.28916 3.1454,-0.66026 3.43502,-0.82466 0.28963,-0.1644 6.95262,-0.26067 14.80665,-0.21393 30.07847,0.17899 61.51997,3.25417 75.29837,7.36466 2.61418,0.77989 5.00106,1.2647 5.30417,1.07736 0.30312,-0.18733 0.66287,-0.0708 0.79944,0.25896 0.13658,0.32976 2.74694,1.94073 5.80081,3.57994 3.05387,1.6392 6.37425,3.45365 7.37861,4.03212 2.13717,1.23089 8.14384,6.6218 11.42607,10.25473 25.78807,28.54351 30.86042,33.67318 36.01292,36.41991 3.00369,1.60122 4.19172,1.75837 13.29297,1.75837 h 9.99449 l 5.34847,-2.858 c 15.23113,-8.13888 21.72702,-25.46869 19.53677,-52.12044 -1.87782,-22.85001 -8.68936,-41.98003 -22.26856,-62.540643 -6.70054,-10.145453 -12.8211,-16.334366 -19.02511,-19.23757 -5.71607,-2.674876 -11.20256,-2.912458 -24.30985,-1.052693 -25.85393,3.66836 -68.55551,5.164939 -149.17695,5.228264 -68.42815,0.05375 -83.29989,-0.343189 -125.85649,-3.359189 C 102.63463,76.075045 82.692896,75.555026 74.700498,76.620372 62.201201,78.286465 52.307,82.827241 44.777909,90.352837 c -6.765575,6.762436 -8.099287,10.060993 -8.099287,20.031253 0,13.72896 2.323218,16.38722 23.897043,27.34333 11.370846,5.7746 15.0589,9.07643 19.074729,17.07719 3.174864,6.32529 5.118501,15.52876 6.253775,29.61271 2.040986,25.32003 1.550484,156.42119 -0.752022,201.00022 -0.815426,15.78753 -2.561711,36.19749 -3.724654,43.53243 -0.406794,2.56574 -0.544272,4.98108 -0.305505,5.36741 0.238767,0.38633 0.118387,0.70242 -0.267511,0.70242 -0.385897,0 -0.917854,1.15256 -1.182125,2.56125 -0.264271,1.40869 -1.807804,5.21313 -3.430072,8.45432 -4.24683,8.48491 -8.429159,12.04752 -20.407858,17.38391 -11.778346,5.24713 -16.524339,8.32624 -19.500039,12.65128 -3.003724,4.36576 -4.168415,7.7941 -4.797423,14.1215 -1.07507,10.81448 1.987901,19.54531 9.753395,27.80149 7.137512,7.58852 14.506521,10.82646 30.924217,13.58809 6.563738,1.10409 24.990812,3.11885 32.944788,3.60207 10.27307,0.62413 85.3201,0.44031 95.88567,-0.23485 z"
       id="path3778" />
    <path
       style="fill:#ffe680;stroke-width:0.740332"
       d="M 97.385869,533.42076 C 79.907928,532.14996 60.0058,528.30217 52.747414,524.79055 46.604051,521.81839 38.414217,513.5164 35.516096,507.32326 c -4.361433,-9.32017 -3.772592,-21.06608 1.462096,-29.16516 3.255503,-5.0369 5.884686,-6.87448 19.785115,-13.82817 18.398586,-9.20388 22.728404,-15.75288 26.137996,-39.53461 3.74925,-26.15081 4.752658,-57.29983 4.809979,-149.31713 0.05262,-84.47161 -0.266258,-95.22347 -3.257069,-109.82142 -3.136758,-15.31032 -7.599456,-20.26245 -28.886199,-32.0542 -10.273275,-5.69086 -15.759689,-10.64949 -17.088908,-15.44499 -1.44088,-5.19833 -1.105687,-12.30782 0.82026,-17.3978 3.378562,-8.929045 14.974462,-17.920854 27.73288,-21.504914 7.346732,-2.063824 27.862655,-2.211252 57.005584,-0.409642 13.84421,0.855846 31.16799,1.91732 38.49728,2.358831 7.32929,0.441511 42.19184,0.978608 77.47233,1.193548 84.13774,0.512595 128.07854,-0.821931 166.12346,-5.045335 16.61602,-1.844561 19.90802,-1.479953 26.76112,2.963951 6.66732,4.323428 15.10735,15.149407 22.77038,29.207421 10.57213,19.39484 16.10534,42.65176 14.98137,62.96894 -0.53224,9.62079 -1.82111,15.09834 -5.27708,22.42694 -3.50626,7.43525 -7.64549,11.67354 -14.84232,15.19754 l -5.92266,2.90009 -8.51382,-0.26359 c -7.13486,-0.2209 -9.05341,-0.54249 -11.84532,-1.98553 -2.18802,-1.13091 -10.57351,-9.0312 -24.43096,-23.01732 -11.60471,-11.71247 -22.68389,-22.35182 -24.62039,-23.64301 -15.57232,-10.38304 -37.43531,-14.3513 -84.57863,-15.35149 -24.78201,-0.52578 -30.10652,0.0142 -35.52399,3.60258 -6.64678,4.40264 -9.75279,11.69306 -12.8697,30.2077 -3.15161,18.72079 -4.08595,29.45511 -4.12855,47.43159 l -0.0414,17.44813 2.0726,3.13567 c 4.92439,7.45009 11.57183,9.34934 32.72305,9.34934 14.42833,0 14.91232,-0.0495 18.9425,-1.93954 8.18918,-3.84036 11.18135,-8.3326 16.20328,-24.32645 6.99274,-22.27054 14.14901,-30.16393 28.04997,-30.93925 18.72466,-1.04435 31.1223,15.56328 37.17725,49.80191 1.31756,7.45036 1.63299,12.88622 1.95471,33.68512 0.62939,40.69152 -1.05656,58.1597 -7.64554,79.21556 -5.89029,18.82308 -13.51494,29.78785 -24.24302,34.86312 -3.91488,1.85206 -5.42746,2.15182 -10.8424,2.14877 -8.46067,-0.004 -11.58279,-0.9732 -15.17681,-4.70767 -3.91319,-4.0661 -6.3335,-11.25702 -9.25322,-27.49206 -1.24488,-6.92211 -2.63366,-13.75168 -3.08619,-15.17682 -2.0677,-6.51186 -10.5579,-16.02798 -17.38795,-19.48903 -6.72898,-3.40983 -12.3088,-4.48159 -23.57657,-4.52856 -11.00467,-0.0459 -14.69379,0.63187 -18.91171,3.47431 -6.01796,4.05551 -6.73285,9.09199 -6.85659,48.30574 -0.0951,30.15124 0.47637,39.51617 3.24502,53.1743 2.13096,10.51232 4.6068,16.14248 9.3529,21.26883 4.78786,5.17146 7.46138,6.30448 21.6374,9.16979 5.47123,1.10586 11.46792,2.78655 13.32598,3.73486 10.27339,5.24327 15.76073,19.44476 12.1815,31.52627 -5.19475,17.53458 -20.37432,24.23221 -66.91928,29.52656 -7.36654,0.83792 -23.17621,1.80071 -36.64645,2.23172 -27.0619,0.86593 -84.86329,0.84331 -96.983531,-0.0379 z"
       id="path3780" />
  </g>
</svg>
