<?xml version="1.0" encoding="UTF-8" standalone="no"?>
<svg
   xmlns:dc="http://purl.org/dc/elements/1.1/"
   xmlns:cc="http://creativecommons.org/ns#"
   xmlns:rdf="http://www.w3.org/1999/02/22-rdf-syntax-ns#"
   xmlns:svg="http://www.w3.org/2000/svg"
   xmlns="http://www.w3.org/2000/svg"
   xmlns:sodipodi="http://sodipodi.sourceforge.net/DTD/sodipodi-0.dtd"
   xmlns:inkscape="http://www.inkscape.org/namespaces/inkscape"
   version="1.1"
   id="svg4958"
   width="500"
   height="600"
   viewBox="0 0 500 600"
   sodipodi:docname="letteri.svg"
   inkscape:version="1.0.1 (3bc2e813f5, 2020-09-07)">
  <metadata
     id="metadata4964">
    <rdf:RDF>
      <cc:Work
         rdf:about="">
        <dc:format>image/svg+xml</dc:format>
        <dc:type
           rdf:resource="http://purl.org/dc/dcmitype/StillImage" />
        <dc:title></dc:title>
      </cc:Work>
    </rdf:RDF>
  </metadata>
  <defs
     id="defs4962" />
  <sodipodi:namedview
     pagecolor="#ffffff"
     bordercolor="#666666"
     borderopacity="1"
     objecttolerance="10"
     gridtolerance="10"
     guidetolerance="10"
     inkscape:pageopacity="0"
     inkscape:pageshadow="2"
     inkscape:window-width="1920"
     inkscape:window-height="1001"
     id="namedview4960"
     showgrid="false"
     inkscape:zoom="0.92017738"
     inkscape:cx="97.367785"
     inkscape:cy="212.6473"
     inkscape:window-x="-9"
     inkscape:window-y="-9"
     inkscape:window-maximized="1"
     inkscape:current-layer="g4966" />
  <g
     inkscape:groupmode="layer"
     inkscape:label="Image"
     id="g4966">
    <path
       style="fill:#aa87de;stroke-width:1.65685"
       d="m 97.540865,572.29918 c -10.97747,-3.94691 -19.50207,-10.68224 -26.412563,-20.86867 -6.920916,-10.20181 -9.284189,-19.24173 -8.293258,-31.72301 2.119809,-26.70015 22.966861,-46.51613 50.704226,-48.19646 26.56982,-1.60958 59.25325,-4.16487 61.53424,-4.81092 2.1769,-0.61656 2.49614,-14.73799 2.57281,-113.8019 0.0781,-100.95213 1.68037,-161.42495 5.06331,-191.10184 l 0.95936,-8.41587 -41.16279,0.13156 c -38.70386,0.12376 -41.62029,-0.08 -48.821435,-3.40965 -17.97046,-8.30926 -29.517559,-24.68037 -30.895981,-43.80337 -2.098362,-29.110602 15.358351,-51.068062 44.893796,-56.46849 19.35104,-3.538245 152.69981,-3.00643 190.82672,0.761063 48.30173,4.772884 83.90917,9.340999 92.88966,11.916902 15.07137,4.322958 26.3558,14.778343 31.40943,29.101866 3.72895,10.569009 3.19568,33.712619 -0.99035,42.979419 -4.39593,9.73147 -13.57398,19.11748 -23.89737,24.43884 -11.70213,6.03204 -26.10399,6.46904 -69.29496,2.10265 -19.88681,-2.01044 -36.42855,-3.38464 -36.75943,-3.05376 -2.10416,2.10417 -4.12654,94.60516 -4.12654,188.74296 v 110.3807 l 49.29147,-0.17643 49.29146,-0.17643 9.44842,4.63978 c 11.52593,5.66 23.24982,18.23629 26.84994,28.80209 4.08574,11.99099 3.47405,30.96682 -1.33085,41.28593 -8.19587,17.6016 -25.12112,28.89804 -44.90864,29.97347 -6.3789,0.34668 -43.65815,1.32885 -82.84281,2.18261 -59.89349,1.30494 -76.65648,2.2267 -105.21036,5.7853 -18.68106,2.32816 -44.77654,4.61618 -57.98998,5.08451 -20.8442,0.73876 -25.18573,0.43392 -32.797525,-2.30288 z m 87.473795,-9.49753 c 29.11145,-3.61047 45.33122,-4.45672 113.49464,-5.92157 93.80841,-2.01594 93.08508,-1.90711 106.91044,-16.08428 10.32144,-10.58409 13.22033,-17.78486 13.19545,-32.77713 -0.0293,-17.68854 -10.19944,-32.84955 -27.32194,-40.73009 -8.16413,-3.75749 -9.03174,-3.80573 -59.81889,-3.32641 l -51.5346,0.48639 0.6108,-111.49575 c 0.50048,-91.35867 2.94085,-201.41208 4.50076,-202.97197 0.19325,-0.19325 18.21205,1.47505 40.04179,3.70732 21.82975,2.23227 43.09664,4.06744 47.25978,4.07816 19.55548,0.0504 38.50036,-12.21177 43.8771,-28.39967 3.75964,-11.31916 2.68008,-31.017811 -2.22205,-40.54614 C 405.54059,72.362374 394.94945,68.362798 344.90127,62.723368 283.75808,55.833765 269.89582,54.891496 215.6665,53.93883 149.04381,52.768454 108.68005,55.005538 96.652685,60.534978 79.645475,68.35383 71.803789,78.864 69.72529,96.625566 c -2.521527,21.547634 10.802305,42.170184 31.4081,48.613254 8.82026,2.75793 13.45724,2.92941 49.53961,1.83199 l 39.8085,-1.21077 -1.0813,16.31825 c -4.35474,65.71847 -5.02706,91.42244 -5.11604,195.59717 l -0.0979,114.66153 -5.79899,0.83511 c -13.3295,1.91956 -23.74211,2.81253 -48.37014,4.14812 -28.96326,1.57069 -36.441015,3.87447 -47.067335,14.50079 -24.94038,24.94041 -14.231177,63.58281 20.878935,75.33806 6.55867,2.19591 44.206,0.12891 81.18595,-4.45742 z"
       id="path5533" />
    <path
       style="fill:#c6afe9;stroke-width:1.08675"
       d="m 106.51855,567.01401 c -12.214546,-2.00427 -26.339486,-13.30958 -32.268156,-25.82675 -3.227757,-6.81475 -3.507302,-8.27414 -3.500296,-18.2737 0.0069,-9.89916 0.297431,-11.44254 3.260241,-17.3215 7.101633,-14.0914 19.2583,-23.17726 34.224921,-25.57959 3.88512,-0.6236 17.82265,-1.84332 30.97228,-2.71046 13.14964,-0.86715 28.60069,-2.15394 34.33567,-2.85953 l 10.42723,-1.28289 0.75157,-111.50976 c 0.75926,-112.65207 1.44799,-141.0238 4.58832,-189.01578 0.95115,-14.53589 1.52003,-26.63824 1.26417,-26.8941 -0.25585,-0.25585 -16.92505,0.0617 -37.04266,0.70562 -25.20008,0.80663 -38.80889,0.82341 -43.75135,0.0539 C 87.711206,143.0636 71.641845,126.1118 70.418297,104.97574 69.290303,85.490309 77.220397,71.177283 93.744662,62.873978 107.58776,55.917937 124.86183,54.49378 193.54489,54.645972 c 59.7695,0.132441 80.39951,1.10187 126.60603,5.949372 62.43271,6.549785 77.22117,9.822651 86.55396,19.155434 12.39176,12.391762 15.13417,41.208082 5.39063,56.642852 -5.75555,9.11737 -17.45001,16.84319 -29.90312,19.75518 -6.90022,1.61351 -11.57842,1.35166 -61.24634,-3.4282 -19.586,-1.88489 -35.87955,-3.15841 -36.20791,-2.83005 -1.98342,1.98342 -4.79333,148.12236 -4.79547,249.40549 l -0.001,65.47651 H 331.521 c 48.87152,0 51.88142,0.11371 57.3259,2.16575 7.39093,2.78566 15.46984,8.95261 20.68745,15.79154 9.43707,12.36958 11.22026,32.59379 4.05854,46.03054 -5.05387,9.48204 -16.61382,20.18637 -24.14478,22.35769 -8.90581,2.56771 -26.73127,3.66686 -79.62129,4.90958 -70.05756,1.64608 -95.10681,2.92693 -127.69277,6.52936 -25.90784,2.86414 -62.20506,5.67539 -68.69474,5.32047 -1.36796,-0.0748 -4.4823,-0.4634 -6.92076,-0.86352 z"
       id="path5535" />
  </g>
</svg>
