<?xml version="1.0" encoding="UTF-8" standalone="no"?>
<svg
   xmlns:dc="http://purl.org/dc/elements/1.1/"
   xmlns:cc="http://creativecommons.org/ns#"
   xmlns:rdf="http://www.w3.org/1999/02/22-rdf-syntax-ns#"
   xmlns:svg="http://www.w3.org/2000/svg"
   xmlns="http://www.w3.org/2000/svg"
   xmlns:sodipodi="http://sodipodi.sourceforge.net/DTD/sodipodi-0.dtd"
   xmlns:inkscape="http://www.inkscape.org/namespaces/inkscape"
   version="1.1"
   id="svg2610"
   width="500"
   height="600"
   viewBox="0 0 500 600"
   sodipodi:docname="lettert.svg"
   inkscape:version="1.0.1 (3bc2e813f5, 2020-09-07)">
  <metadata
     id="metadata2616">
    <rdf:RDF>
      <cc:Work
         rdf:about="">
        <dc:format>image/svg+xml</dc:format>
        <dc:type
           rdf:resource="http://purl.org/dc/dcmitype/StillImage" />
        <dc:title></dc:title>
      </cc:Work>
    </rdf:RDF>
  </metadata>
  <defs
     id="defs2614" />
  <sodipodi:namedview
     pagecolor="#ffffff"
     bordercolor="#666666"
     borderopacity="1"
     objecttolerance="10"
     gridtolerance="10"
     guidetolerance="10"
     inkscape:pageopacity="0"
     inkscape:pageshadow="2"
     inkscape:window-width="1920"
     inkscape:window-height="1001"
     id="namedview2612"
     showgrid="false"
     inkscape:zoom="0.90217391"
     inkscape:cx="201.15328"
     inkscape:cy="348.31597"
     inkscape:window-x="-9"
     inkscape:window-y="-9"
     inkscape:window-maximized="1"
     inkscape:current-layer="g2618" />
  <g
     inkscape:groupmode="layer"
     inkscape:label="Image"
     id="g2618">
    <path
       style="fill:#55ff55;stroke-width:0.478962"
       d="m 236.41922,557.18325 c -58.09641,-1.70507 -98.77975,-9.45978 -118.49852,-22.5871 -10.23025,-6.81065 -16.27075,-15.05149 -18.859696,-25.72967 -1.926117,-7.94443 -1.181269,-17.36339 1.897586,-23.99563 2.5435,-5.479 8.34075,-11.55542 13.54808,-14.20041 2.16846,-1.10147 11.51706,-4.3623 22.29529,-7.77672 2.3481,-0.74386 5.22988,-1.88332 6.40395,-2.53212 7.67973,-4.24401 10.54768,-12.22591 13.53991,-37.68321 3.90793,-33.24845 7.56946,-121.97284 7.56946,-183.42003 0,-32.20376 -0.89799,-41.03385 -5.02259,-49.38748 -1.1107,-2.24948 -3.47326,-4.27277 -5.09412,-4.36264 -4.51108,-0.25022 -7.49549,1.09397 -11.85663,5.33972 -3.43502,3.34415 -5.17235,5.58637 -9.59376,12.38204 -6.23622,9.58505 -11.22603,16.61498 -17.50198,24.65804 -4.36803,5.59791 -5.20697,6.54425 -11.1517,12.57933 -13.374488,13.57775 -28.983316,20.99618 -44.240369,21.02621 -10.385699,0.0192 -20.239371,-3.35118 -27.942465,-9.56105 -7.312737,-5.89518 -13.932111,-15.47708 -16.439405,-23.79699 -4.5727,-15.17348 -4.811319,-26.35948 -0.969767,-45.45863 5.334913,-26.52379 17.370243,-52.6327 34.999133,-75.92548 C 54.94518,99.558956 66.28417,88.064473 71.925707,84.0199 86.0737,73.876797 98.864973,71.077658 115.21821,74.546228 c 3.26127,0.691693 7.21041,1.491071 8.77582,1.776347 1.5654,0.285131 3.80679,0.712302 4.98085,0.948961 7.62299,1.536607 15.05921,2.590172 23.71839,3.360414 3.42313,0.304345 41.01388,0.485844 100.91399,0.486909 81.64248,0.001 96.60987,-0.104708 103.41217,-0.733872 12.46764,-1.152981 21.53271,-2.753409 34.04368,-6.010367 10.39341,-2.705697 13.1048,-3.139499 19.68626,-3.14988 6.12212,-0.009 9.77833,0.620221 15.81506,2.724394 15.85568,5.526652 34.0314,24.512162 48.11342,50.257176 10.53037,19.25184 16.21043,36.71807 19.64375,60.40503 0.81236,5.6044 0.81828,24.98152 0.009,28.7743 -2.20782,10.34526 -3.90773,15.89457 -6.13063,20.01402 -5.06182,9.38032 -13.06003,16.97163 -23.00918,21.8385 -4.27766,2.09249 -12.85511,4.46929 -19.33796,5.3585 -10.39737,1.42619 -24.82213,-1.16181 -34.00461,-6.10087 -10.96924,-5.90012 -21.40384,-17.00051 -30.91608,-32.88891 -2.90822,-4.85761 -3.93008,-6.67493 -7.88568,-14.02444 -7.01537,-13.03411 -12.13779,-19.55897 -16.61219,-21.15999 -6.8347,-2.44559 -12.74075,0.173 -15.54757,6.89371 -3.77148,9.03046 -3.75217,8.33154 -3.54857,128.39633 0.15956,94.04763 0.2451,103.46996 0.98229,108.32686 1.9211,12.65417 4.03064,17.70538 9.83786,23.55635 3.32417,3.34923 4.36806,4.05359 10.25771,6.92176 23.0963,11.24736 29.11318,15.74713 33.61075,25.13613 1.81993,3.79914 3.54324,11.60027 3.54219,16.03485 0,8.74516 -3.40164,18.66146 -8.59535,25.07132 -7.17763,8.85847 -20.19334,16.54311 -34.83247,20.56554 -25.8607,7.10588 -47.77064,9.53859 -88.68293,9.84674 -12.0015,0.0903 -24.16907,0.0955 -27.03897,0.009 z m 51.83138,-8.408 c 24.56445,-1.34829 45.19824,-4.14402 57.74757,-7.82442 1.82633,-0.53562 3.96096,-1.14591 4.74368,-1.35627 6.09187,-1.63704 15.81298,-6.05063 20.82737,-9.45608 11.86511,-8.05804 17.54136,-19.4201 15.92617,-31.87933 -1.57997,-12.18753 -6.94018,-18.22864 -22.99686,-25.91806 -2.86993,-1.37437 -7.18627,-3.44447 -9.59183,-4.60011 -6.02126,-2.89278 -9.30913,-5.28143 -13.4577,-9.7773 -4.58208,-4.96551 -7.54826,-10.75023 -8.98724,-17.52687 -1.27688,-6.01332 -1.90684,-10.16058 -2.34563,-15.44223 -0.65553,-7.89095 -0.68856,-211.0223 -0.0356,-217.89577 1.50191,-15.80543 5.62075,-24.24595 13.60094,-27.87137 3.23312,-1.46881 10.37074,-1.80964 14.19047,-0.67757 3.47173,1.02891 6.95978,3.30449 9.73447,6.35066 2.49466,2.73881 8.17936,11.43357 11.82586,18.08768 10.5045,19.16845 15.27632,26.3234 22.68545,34.01493 10.70554,11.11357 21.66946,15.86843 36.6326,15.88688 11.1409,0.0128 20.32497,-2.47635 28.21149,-7.64904 15.82927,-10.38231 22.26341,-28.0668 19.94642,-54.82343 -0.91911,-10.61325 -1.69837,-15.5005 -3.81749,-23.9413 -6.50423,-25.90745 -21.5638,-53.62043 -38.37398,-70.616888 -6.03878,-6.105711 -10.16929,-9.25393 -16.17872,-12.331249 -6.38913,-3.27176 -10.78211,-4.344393 -17.74611,-4.333107 -5.97532,0.0093 -10.6037,0.70423 -17.59433,2.640311 -5.32186,1.473914 -21.39778,4.77457 -26.80176,5.50286 -13.1293,1.769422 -12.64274,1.761764 -111.95083,1.761764 -100.73266,0 -101.3141,-0.0093 -114.32264,-1.966714 -5.98228,-0.899857 -13.4113,-2.264609 -23.76717,-4.366281 -16.750237,-3.399288 -26.181196,-1.739907 -38.594937,6.790789 -5.588031,3.840078 -15.009043,12.968905 -20.279045,19.650045 -21.10359,26.7546 -35.259564,60.70451 -37.644027,90.28079 -1.228465,15.23773 2.16898,28.76556 9.736579,38.76864 9.056354,11.97099 23.260879,17.57563 37.503359,14.79752 15.16698,-2.9584 29.504859,-13.36661 43.006771,-31.21967 0.6984,-0.92344 2.14396,-2.82114 3.21241,-4.21711 2.33789,-3.05452 8.48085,-11.92993 13.30555,-19.22396 6.94575,-10.50062 12.10705,-15.96015 17.75243,-18.77821 6.94805,-3.46838 13.95205,-2.74989 18.44356,1.892 4.18076,4.32074 6.30155,10.27814 8.24943,23.17304 1.39968,9.26586 1.33808,66.44127 -0.11367,105.42523 -0.96378,25.8812 -2.07537,52.24436 -2.59986,61.65928 -0.25919,4.65464 -0.58367,10.53042 -0.7208,13.05725 -1.45846,26.87557 -3.91725,48.78406 -6.87494,61.25724 -2.07113,8.73423 -4.30196,13.27037 -8.45214,17.18629 -3.3154,3.12828 -7.30704,5.34983 -12.50216,6.95817 -9.26921,2.86957 -18.84358,6.20149 -21.53794,7.49539 -3.40456,1.63487 -8.32663,6.6598 -10.0784,10.28911 -2.45706,5.09045 -3.11993,12.13126 -1.75362,18.62721 2.47563,11.77066 12.5519,21.65774 28.25336,27.72304 20.50679,7.92151 46.38057,12.14154 87.99523,14.35215 10.78888,0.57313 55.51791,0.61682 65.58807,0.0641 z"
       id="path3183" />
    <path
       style="fill:#5fd35f;stroke-width:1.10843"
       d="m 215.56292,547.81903 c -31.06195,-1.83805 -57.01234,-6.05926 -75.12697,-12.22052 -22.57405,-7.67801 -33.77365,-19.39589 -33.86023,-35.42712 -0.0447,-8.26824 2.605,-14.58715 8.03129,-19.15308 1.86088,-1.56583 9.44142,-4.84072 17.15603,-7.41163 24.52782,-8.17393 27.82018,-12.60492 32.18388,-43.31433 6.61415,-46.54676 11.18965,-204.16903 6.67774,-230.04228 -2.85116,-16.34976 -8.35169,-23.3249 -18.15795,-23.02579 -2.90893,0.0887 -6.73664,0.92248 -8.50602,1.8528 -5.08047,2.67123 -12.73723,11.34441 -22.16976,25.11273 -18.3845,26.8352 -28.379117,36.96735 -43.673798,44.27477 -7.641952,3.65114 -9.118814,3.97105 -18.289157,3.96166 -8.747116,-0.009 -10.697358,-0.38907 -15.833036,-3.08604 -15.221055,-7.99326 -23.474818,-23.5036 -23.503205,-44.16684 -0.04531,-32.98042 20.425269,-79.21471 46.554419,-105.14655 10.582023,-10.502108 19.33117,-15.815191 28.94031,-17.574539 6.811317,-1.247092 9.675267,-0.94012 35.889707,3.84683 l 16.6265,3.036123 104.74699,0.07401 c 113.11944,0.07993 107.03591,0.357216 136.23923,-6.20981 26.95681,-6.061844 37.29898,-3.587349 53.98691,12.917062 14.16229,14.006544 26.92982,35.044154 35.17815,57.964574 7.80334,21.68392 10.20592,50.90689 5.44475,66.22563 -4.10404,13.2045 -11.90651,22.17967 -24.35038,28.01026 -5.91715,2.77248 -7.52426,3.01107 -20.28179,3.01107 -13.36445,0 -14.12807,-0.12911 -21.54986,-3.64362 -9.63525,-4.56267 -21.12417,-16.12348 -28.45943,-28.63753 -2.81475,-4.80199 -7.75271,-13.22006 -10.97323,-18.7068 -10.86981,-18.5187 -15.80045,-22.7229 -26.64918,-22.7229 -11.13177,0 -16.96798,5.32331 -20.65891,18.84338 -1.82631,6.68984 -1.96034,15.24644 -1.87523,119.71084 0.0835,102.43598 0.26377,113.29479 2.01461,121.3183 3.77651,17.30646 9.43177,23.82638 29.3096,33.79082 7.32029,3.66956 15.11503,8.25709 17.32165,10.19452 12.03447,10.5664 12.28364,28.37646 0.57623,41.18623 -11.70904,12.81155 -32.92865,20.06808 -70.40565,24.07681 -14.87031,1.59061 -72.55605,2.26434 -92.55421,1.08096 z"
       id="path3185" />
    <path
       style="fill:#80ff80;stroke-width:1.10843"
       d="m 220.55087,556.05689 c -48.71874,-3.52343 -75.28233,-8.53663 -94.77109,-17.88562 -11.16537,-5.35615 -20.84053,-14.95286 -24.34183,-24.14446 -3.069239,-8.05735 -3.412526,-20.03709 -0.75634,-26.39423 4.69183,-11.22913 10.67031,-15.72167 29.09082,-21.86033 7.60208,-2.53341 15.26443,-5.81996 17.02745,-7.30344 7.46744,-6.28343 11.01623,-28.24313 14.39779,-89.0926 2.23346,-40.18994 3.58606,-97.13282 3.14634,-132.45783 -0.39362,-31.62222 -0.72485,-37.32923 -2.44464,-42.12048 -2.73925,-7.63142 -4.58501,-9.42169 -9.71374,-9.42169 -5.68527,0 -12.20743,5.96758 -21.20029,19.39759 -22.61202,33.76903 -37.608758,47.79254 -57.674328,53.9315 C 47.170405,266.70289 21.161533,250.42482 14.426289,221.85136 6.7996948,189.49646 25.561315,134.96089 56.433763,99.745626 69.649565,84.670764 82.742718,76.406335 96.759482,74.291939 c 6.620988,-0.998761 9.402818,-0.7242 26.249218,2.590754 l 18.84337,3.707909 106.96386,0.338208 c 116.32278,0.3678 116.2051,0.372716 141.87952,-5.926836 9.44067,-2.31639 13.62711,-2.778382 22.16867,-2.446405 14.6967,0.571203 22.34507,4.394937 36.10028,18.048013 27.45249,27.248668 45.11116,69.847918 45.01073,108.582618 -0.0574,22.12506 -4.13792,34.22897 -15.30391,45.39496 -7.52854,7.52854 -16.74367,12.15502 -29.04945,14.58437 -20.59935,4.06662 -41.40913,-3.65596 -55.74032,-20.6854 -6.69216,-7.95215 -10.26168,-13.37894 -19.25434,-29.27259 -11.77306,-20.80778 -14.77096,-23.83133 -23.62909,-23.83133 -5.58135,0 -9.54008,3.80477 -11.98135,11.51536 -1.54653,4.88465 -1.861,14.98295 -2.28202,73.27982 -0.26856,37.18795 -0.0381,89.81084 0.51195,116.93976 0.94156,46.43103 1.13934,49.68303 3.37072,55.42169 3.91174,10.06024 7.50509,13.37404 23.3899,21.57017 21.59273,11.14129 27.15021,16.90851 30.1121,31.24857 2.52714,12.23522 -1.65994,24.84196 -11.51617,34.67368 -11.63185,11.60292 -34.59352,19.77848 -67.2812,23.95566 -13.12643,1.67742 -80.02059,3.14275 -94.77108,2.07597 z m 70.38554,-7.11961 c 55.23531,-3.30345 83.06688,-12.90236 93.65114,-32.29965 6.31071,-11.56534 3.87074,-28.03381 -5.3189,-35.89981 -2.531,-2.16644 -10.89421,-7.13861 -18.58491,-11.04927 -19.20787,-9.76704 -24.47104,-15.87622 -28.38759,-32.95069 -1.65742,-7.22569 -1.85726,-19.59696 -1.92962,-119.45803 -0.0862,-118.9033 -0.0553,-119.65361 5.32457,-129.24442 3.60786,-6.43187 8.61859,-9.3098 16.20916,-9.3098 10.4974,0 15.91525,5.17428 28.30108,27.02873 14.58423,25.73349 24.10337,36.83418 36.88073,43.00824 6.62695,3.20217 8.68054,3.63264 19.20096,4.02487 17.05505,0.63585 26.75983,-2.49568 36.83099,-11.88461 8.27085,-7.71056 12.14911,-16.09246 14.0479,-30.36102 1.38168,-10.38271 0.13595,-28.38867 -2.85686,-41.29341 C 478.16461,142.77133 462.34983,113.06912 445.11135,95.637537 429.42475,79.775233 415.41509,75.852456 393.44853,81.171687 364.02486,88.296668 369.18371,87.976058 274.3099,88.575859 174.59469,89.206267 148.60774,88.396579 125.31264,83.933474 95.30246,78.183827 85.877079,80.495692 67.430333,98.130897 35.052381,129.08442 12.567216,188.71996 21.027514,221.20123 c 6.502188,24.96358 27.988934,37.91274 51.207188,30.86042 17.542349,-5.32833 30.428418,-17.50252 52.399508,-49.50472 5.02255,-7.31566 10.20306,-14.47095 11.51224,-15.90066 4.2713,-4.66452 11.69975,-8.30014 16.95921,-8.30014 8.81347,0 13.98251,7.35587 16.95443,24.12727 1.48451,8.37742 1.51985,76.15495 0.0596,114.24221 -3.96084,103.30845 -7.49196,133.52045 -16.85156,144.18044 -4.23396,4.82222 -7.97957,6.72388 -23.78111,12.07374 -18.37112,6.21984 -23.93999,12.54314 -23.97018,27.21747 -0.0685,33.26634 45.3798,48.53339 147.73278,49.62664 10.66868,0.11395 27.62771,-0.28503 37.68675,-0.88662 z"
       id="path3187" />
  </g>
</svg>
