<?xml version="1.0" encoding="UTF-8" standalone="no"?>
<svg
   xmlns:dc="http://purl.org/dc/elements/1.1/"
   xmlns:cc="http://creativecommons.org/ns#"
   xmlns:rdf="http://www.w3.org/1999/02/22-rdf-syntax-ns#"
   xmlns:svg="http://www.w3.org/2000/svg"
   xmlns="http://www.w3.org/2000/svg"
   xmlns:sodipodi="http://sodipodi.sourceforge.net/DTD/sodipodi-0.dtd"
   xmlns:inkscape="http://www.inkscape.org/namespaces/inkscape"
   version="1.1"
   id="svg833"
   width="500"
   height="600"
   viewBox="0 0 500 600"
   sodipodi:docname="letterp.svg"
   inkscape:version="1.0.1 (3bc2e813f5, 2020-09-07)">
  <metadata
     id="metadata839">
    <rdf:RDF>
      <cc:Work
         rdf:about="">
        <dc:format>image/svg+xml</dc:format>
        <dc:type
           rdf:resource="http://purl.org/dc/dcmitype/StillImage" />
        <dc:title></dc:title>
      </cc:Work>
    </rdf:RDF>
  </metadata>
  <defs
     id="defs837" />
  <sodipodi:namedview
     pagecolor="#ffffff"
     bordercolor="#666666"
     borderopacity="1"
     objecttolerance="10"
     gridtolerance="10"
     guidetolerance="10"
     inkscape:pageopacity="0"
     inkscape:pageshadow="2"
     inkscape:window-width="1920"
     inkscape:window-height="1001"
     id="namedview835"
     showgrid="false"
     inkscape:zoom="1.0083333"
     inkscape:cx="435.21615"
     inkscape:cy="311.55882"
     inkscape:window-x="-9"
     inkscape:window-y="-9"
     inkscape:window-maximized="1"
     inkscape:current-layer="g841" />
  <g
     inkscape:groupmode="layer"
     inkscape:label="Image"
     id="g841">
    <path
       style="fill:#ff8080;stroke-width:0.980096"
       d="m 102.12474,584.46933 c -11.737626,-2.4445 -18.831014,-6.03756 -25.925855,-13.13241 -5.467103,-5.4671 -9.96128,-13.02846 -11.91413,-20.04528 -2.033466,-7.30657 -2.040791,-481.721357 -0.0076,-489.067741 2.877572,-10.397011 9.881532,-19.955746 18.976471,-25.898388 12.079855,-7.892777 4.899362,-7.424864 113.940644,-7.424864 103.94553,0 105.1169,0.0467 127.90248,5.09886 34.37865,7.622647 64.41864,23.378311 88.59901,46.46925 29.03808,27.729803 45.98137,61.621313 53.62458,107.264813 3.01421,18.00012 3.00688,46.60202 -0.0166,64.62888 -8.86837,52.87648 -32.16516,93.79049 -69.18989,121.51191 -26.59176,19.90994 -52.5811,30.69074 -88.73009,36.80665 -10.47376,1.77202 -17.78639,2.14615 -51.17858,2.61834 l -38.9588,0.5509 v 65.32947 c 0,70.8899 0.008,70.76908 -5.49638,81.63172 -3.3221,6.55584 -12.3044,15.507 -18.93015,18.86452 -9.65251,4.8913 -14.92042,5.4037 -54.47118,5.29827 -19.94494,-0.0532 -37.14562,-0.28038 -38.22374,-0.5049 z m 83.99382,-6.12377 c 15.17319,-5.22034 25.73092,-17.73733 28.1927,-33.42454 0.6047,-3.85338 1.00266,-31.99199 1.00714,-71.21296 l 0.008,-64.84233 41.89908,-0.4481 c 32.84624,-0.35128 44.00174,-0.79996 51.63071,-2.07664 78.22634,-13.09089 131.72884,-61.60605 150.4524,-136.42767 4.11039,-16.42561 5.40518,-28.37756 5.40518,-49.89402 0,-14.84129 -0.47701,-23.56372 -1.71017,-31.27221 C 452.4438,122.74376 417.16049,75.336194 359.58107,49.786998 342.91478,42.391811 324.25117,37.448696 303.04412,34.813009 291.9403,33.432989 277.95258,33.266214 194.20204,33.515304 l -96.100832,0.285822 -7.388006,3.651654 c -9.03263,4.464545 -15.432551,10.984669 -19.770466,20.141808 l -3.121591,6.589508 V 306.75777 549.33144 l 3.101537,6.54666 c 5.254609,11.09133 13.56915,18.50404 25.30844,22.5634 4.340768,1.501 9.549208,1.7027 44.698748,1.73095 36.56004,0.0294 40.22348,-0.11869 45.18844,-1.82689 z M 215.3258,220.90217 V 172.2902 l 33.07824,0.46271 c 39.80513,0.5568 43.88765,1.30602 54.66865,10.03286 9.9467,8.05148 14.99847,27.70348 12.36301,48.09376 -1.62395,12.56446 -4.31681,18.48813 -11.81166,25.98298 -11.05757,11.05759 -18.61753,12.58313 -62.57072,12.62633 l -25.72752,0.0253 z m 72.03704,41.28176 c 10.10574,-3.661 18.06207,-11.61579 21.58681,-21.58262 1.14558,-3.2393 1.89124,-8.99194 2.19972,-16.97022 0.70265,-18.17306 -1.83323,-27.79427 -9.43403,-35.79297 -8.67463,-9.12874 -15.20933,-10.42012 -52.82126,-10.4385 l -29.6479,-0.0145 v 43.70578 43.70579 l 31.60808,-0.41874 c 27.35899,-0.36244 32.26687,-0.65739 36.50858,-2.19403 z"
       id="path845" />
    <path
       style="fill:#ff9955;stroke-width:0.991736"
       d="m 101.57517,578.89488 c -11.990821,-1.545 -24.10174,-11.14275 -30.418145,-24.10601 l -3.223141,-6.61491 V 306.569 64.964023 l 4.084745,-7.851394 c 4.63829,-8.915382 10.370154,-14.662414 19.450953,-19.50243 l 5.91248,-3.151318 98.581698,-0.150561 c 70.27053,-0.107322 101.00259,0.181016 107.01145,1.004019 24.79767,3.396409 43.01058,8.64265 62.26806,17.936363 34.99974,16.890974 60.35804,41.251758 77.43366,74.387658 17.09482,33.17318 23.82302,68.01851 21.02508,108.88885 -1.26927,18.54041 -3.78272,31.27875 -9.61848,48.74709 -20.2316,60.55973 -65.14864,101.49789 -128.29841,116.93332 -18.21597,4.45245 -24.73273,4.98651 -69.95633,5.73307 l -41.11805,0.67877 -0.0435,63.55905 c -0.0239,34.95746 -0.41561,66.76773 -0.87035,70.68947 -2.16874,18.70352 -16.06234,33.46611 -33.92678,36.04876 -7.30445,1.05599 -70.06865,1.04007 -78.2949,-0.0198 z M 257.85124,269.49596 c 32.16362,-1.11012 35.39335,-1.97951 45.68567,-12.29787 8.4387,-8.46006 10.82253,-13.87323 12.46317,-28.30127 1.74502,-15.34612 -1.21249,-31.33513 -7.57432,-40.94852 -3.14544,-4.75308 -10.49565,-10.20221 -16.49928,-12.23187 -6.76848,-2.28823 -23.91864,-3.41762 -52.17441,-3.43583 l -25.04133,-0.0161 v 49.09091 49.09091 l 9.17356,-0.0473 c 5.04545,-0.026 20.33058,-0.43238 33.96694,-0.90304 z"
       id="path1422" />
    <path
       style="fill:#ffb380;stroke-width:0.495868"
       d="m 117.104,584.48339 c -15.85712,-0.3116 -16.4941,-0.36223 -20.57851,-1.63631 -2.318182,-0.72313 -5.539078,-1.90289 -7.157547,-2.6217 -10.481539,-4.65516 -20.193091,-15.50991 -24.167655,-27.01255 -0.87243,-2.52486 -0.986814,-5.36792 -1.466787,-36.45744 -0.682312,-44.19584 -0.688394,-376.66428 -0.0077,-420.534068 l 0.516097,-33.261346 1.50263,-4.117302 c 3.77294,-10.338082 13.275642,-20.779839 23.590879,-25.922119 6.738312,-3.359136 8.178528,-3.417394 91.239673,-3.690676 72.35941,-0.238072 112.31288,0.192438 123.47107,1.330439 14.39528,1.468143 35.44193,6.766792 50.57851,12.733514 44.26129,17.447446 79.34599,50.725411 97.51741,92.495618 8.11957,18.66426 14.26994,42.45795 16.37846,63.36264 0.93284,9.24859 0.77715,34.62277 -0.27041,44.07201 -2.99114,26.9806 -12.55053,56.9687 -25.23123,79.15113 -17.02925,29.78937 -42.18208,53.27831 -74.26199,69.34948 -16.3899,8.2109 -31.39881,13.21059 -52.18427,17.38334 -14.79697,2.97055 -24.60603,3.55949 -66.824,4.01214 -15.13636,0.1623 -28.24587,0.40589 -29.13223,0.54133 l -1.61157,0.24625 -0.011,56.63042 c -0.0143,73.53981 -0.2701,78.96243 -4.11808,87.29087 -2.2601,4.89169 -4.20639,7.65833 -8.68584,12.34691 -8.47962,8.87554 -15.59774,12.44772 -27.35037,13.72567 -6.1154,0.66496 -40.84571,0.99223 -61.73554,0.58175 z m 66.27927,-5.15033 c 1.81723,-0.42481 5.01713,-1.56382 7.11088,-2.53116 12.99393,-6.00357 22.06358,-18.16755 24.06696,-32.27791 0.38609,-2.71929 0.64541,-24.6453 0.82452,-69.71374 l 0.2613,-65.7468 32.54672,-0.34374 c 33.8616,-0.35763 51.74623,-0.90776 58.08391,-1.78663 15.48998,-2.14807 36.71124,-8.08854 51.31507,-14.36463 29.61741,-12.72827 53.53085,-31.60474 71.82165,-56.6936 13.27833,-18.21342 23.44109,-40.20916 29.60585,-64.07731 4.11966,-15.95011 5.39419,-26.01367 5.7778,-45.62066 0.47753,-24.4074 -0.85133,-37.93156 -5.58166,-56.80592 C 455.594,154.91784 451.51944,143.57344 445.42392,130.97027 429.28159,97.594162 403.47171,71.561678 369.25276,54.142129 349.81731,44.24829 329.25966,38.097242 304.54202,34.780052 293.61466,33.313563 267.01008,33.002998 180.82301,33.335835 L 97.765159,33.656587 92.005933,36.57472 C 80.667108,42.319971 75.156129,47.947742 69.941488,59.106766 l -2.176329,4.657217 V 306.81608 549.86815 l 2.694838,5.50974 c 4.799469,9.81277 10.568243,15.96129 19.041779,20.29527 9.185212,4.69805 9.75624,4.74407 56.610494,4.56327 28.67458,-0.11067 34.48174,-0.2514 37.271,-0.90337 z"
       id="path1428" />
    <path
       style="fill:#ffb380;stroke-width:0.247934"
       d="m 215.32711,220.9199 v -48.50735 l 13.32645,0.17007 c 21.45063,0.27375 38.74236,0.62923 44.07025,0.90599 15.3845,0.79914 20.8119,2.26715 27.83491,7.52882 3.35284,2.51196 5.58367,4.76052 7.32745,7.38567 7.03543,10.59141 9.70169,27.3679 7.09804,44.66201 -1.69211,11.23951 -4.59212,17.01068 -12.30394,24.48549 -7.81905,7.57876 -14.42917,9.99373 -30.45233,11.12555 -6.28172,0.44372 -22.23774,0.74165 -39.97934,0.7465 l -16.92149,0.005 z m 36.07439,43.53328 c 30.75452,-0.42431 33.10282,-0.6383 39.23044,-3.57481 9.90825,-4.7483 17.23994,-13.6959 19.26468,-23.51062 0.962,-4.66321 1.23747,-8.69819 1.24735,-18.27107 0.0101,-9.83285 -0.15268,-11.80422 -1.37712,-16.67306 -1.75907,-6.99475 -5.08179,-12.38248 -10.62845,-17.23385 -8.04648,-7.03783 -15.36713,-7.97082 -62.67492,-7.9877 l -17.41736,-0.006 v 43.8972 43.8972 l 7.1281,-0.14369 c 3.92046,-0.079 15.27273,-0.25605 25.22728,-0.39339 z"
       id="path1430" />
  </g>
</svg>
