<?xml version="1.0" encoding="UTF-8" standalone="no"?>
<svg
   xmlns:dc="http://purl.org/dc/elements/1.1/"
   xmlns:cc="http://creativecommons.org/ns#"
   xmlns:rdf="http://www.w3.org/1999/02/22-rdf-syntax-ns#"
   xmlns:svg="http://www.w3.org/2000/svg"
   xmlns="http://www.w3.org/2000/svg"
   xmlns:sodipodi="http://sodipodi.sourceforge.net/DTD/sodipodi-0.dtd"
   xmlns:inkscape="http://www.inkscape.org/namespaces/inkscape"
   version="1.1"
   id="svg1432"
   width="500"
   height="600"
   viewBox="0 0 500 600"
   sodipodi:docname="lettero.svg"
   inkscape:version="1.0.1 (3bc2e813f5, 2020-09-07)">
  <metadata
     id="metadata1438">
    <rdf:RDF>
      <cc:Work
         rdf:about="">
        <dc:format>image/svg+xml</dc:format>
        <dc:type
           rdf:resource="http://purl.org/dc/dcmitype/StillImage" />
        <dc:title></dc:title>
      </cc:Work>
    </rdf:RDF>
  </metadata>
  <defs
     id="defs1436" />
  <sodipodi:namedview
     pagecolor="#ffffff"
     bordercolor="#666666"
     borderopacity="1"
     objecttolerance="10"
     gridtolerance="10"
     guidetolerance="10"
     inkscape:pageopacity="0"
     inkscape:pageshadow="2"
     inkscape:window-width="1920"
     inkscape:window-height="1001"
     id="namedview1434"
     showgrid="false"
     inkscape:zoom="2.075"
     inkscape:cx="265.75585"
     inkscape:cy="312.92063"
     inkscape:window-x="-9"
     inkscape:window-y="-9"
     inkscape:window-maximized="1"
     inkscape:current-layer="g1440" />
  <g
     inkscape:groupmode="layer"
     inkscape:label="Image"
     id="g1440">
    <path
       style="fill:#2aff80;stroke-width:1.02606"
       d="M 233.80816,535.7287 C 169.8535,531.36495 108.43824,501.9716 71.704945,458.14605 42.432672,423.22207 24.346827,381.14474 19.432528,336.53245 18.045864,323.94427 18.030565,298.01583 19.402709,285.95841 26.924797,219.85874 60.528663,163.97543 114.50988,127.795 c 12.67493,-8.49526 36.49254,-20.34893 51.80776,-25.78395 38.82727,-13.7789 85.26232,-18.58078 125.77622,-13.00665 78.39105,10.78551 139.91286,56.03856 175.69432,129.23387 26.57058,54.35335 31.12381,111.22704 13.22538,165.19611 -8.0609,24.30602 -22.34094,48.85628 -41.181,70.79833 -35.16597,40.95608 -85.84531,68.04797 -146.75009,78.4489 -10.90575,1.86242 -38.53766,4.3142 -44.90941,3.98481 -1.41084,-0.073 -7.87504,-0.49491 -14.36488,-0.93772 z m 43.90463,-8.19972 c 48.6449,-5.3377 95.68501,-24.30935 130.38949,-52.5871 34.23596,-27.89599 60.31673,-68.03246 70.3215,-108.21991 4.60876,-18.51248 5.23068,-24.33322 5.23068,-48.95561 0,-24.64759 -0.56526,-29.93444 -5.32061,-49.76404 -7.6642,-31.95948 -26.88831,-69.83614 -48.69223,-95.93687 -33.51513,-40.1198 -77.51047,-65.24186 -131.1915,-74.91254 -12.91308,-2.32629 -54.02997,-3.26664 -69.99266,-1.60072 -46.4048,4.84292 -91.69191,22.73594 -124.81579,49.31492 -48.175767,38.65681 -75.564416,94.28389 -77.803608,158.02134 -1.936606,55.12465 13.942536,103.54734 47.945677,146.20801 33.086671,41.51086 87.124671,70.41637 145.659541,77.91488 13.30563,1.70451 44.89559,1.98513 58.26951,0.51764 z m -6.96637,-88.86146 C 253.89863,435.98895 235.09222,421.27805 223.69,401.85861 199.45817,360.58876 180.46669,301.76223 177.43315,258.57714 c -2.00344,-28.52092 3.50722,-47.10011 18.56753,-62.60046 9.32412,-9.59655 24.23022,-15.23284 36.26442,-13.71227 29.54362,3.73294 54.31143,30.23202 73.90268,79.0685 14.62314,36.45213 23.2714,77.95104 23.30729,111.84084 0.0197,18.53005 -1.61674,26.97023 -7.48125,38.58778 -3.94048,7.80606 -13.51692,18.06901 -20.31056,21.76655 -8.4412,4.59428 -21.11879,6.70037 -30.93684,5.13944 z m 23.29508,-9.73954 c 11.76141,-4.4005 22.37022,-18.10228 26.45354,-34.16597 1.82835,-7.19266 2.09274,-31.00525 0.50173,-45.1877 -6.09743,-54.35343 -28.30582,-112.87729 -52.60541,-138.62652 -14.06334,-14.90233 -26.00662,-21.11964 -40.49267,-21.07928 -7.39814,0.0206 -9.52001,0.45779 -15.26049,3.14409 -12.02009,5.62488 -22.54313,19.68256 -26.53308,35.44536 -2.23761,8.83995 -1.99217,29.77354 0.5523,47.10535 5.7164,38.93753 23.08181,87.66498 44.21016,124.05391 6.08082,10.47286 17.92549,22.06551 27.43155,26.84787 4.15852,2.09209 9.4684,4.20562 11.79972,4.69673 5.98769,1.26133 17.46233,0.19077 23.94265,-2.23384 z"
       id="path2005" />
    <path
       style="fill:#37c8ab;stroke-width:0.963855"
       d="M 226.97744,527.2316 C 174.49849,522.82952 117.25719,495.92312 84.051913,460.04913 54.475434,428.09558 35.217736,388.24778 28.479932,345.06024 c -2.432655,-15.59267 -2.466004,-51.02971 -0.06259,-66.50602 6.984574,-44.97578 24.784009,-82.12289 54.64581,-114.04486 33.024368,-35.30271 85.044318,-60.50975 139.745138,-67.715588 9.81311,-1.292698 17.323,-1.489772 40.48193,-1.062324 26.80163,0.494681 29.21815,0.690365 42.09945,3.409116 58.65651,12.380156 105.54662,43.951456 138.34548,93.148596 9.04569,13.56822 23.27977,41.98775 28.24101,56.38554 9.19471,26.68352 11.44778,42.21401 10.86022,74.85989 -0.39178,21.76873 -0.66968,24.96901 -3.07013,35.35532 -12.12708,52.47189 -44.03093,98.18439 -89.46184,128.18279 -10.60172,7.00042 -28.11665,16.32475 -39.81873,21.19811 -18.03867,7.51225 -43.15811,14.48733 -63.09908,17.52114 -11.93388,1.81562 -46.19369,2.63208 -60.40916,1.43965 z m 68.34466,-90.47169 c 11.44373,-4.03018 21.465,-13.69073 27.87668,-26.87325 4.84543,-9.96229 6.51996,-19.03609 6.56383,-35.56767 0.0932,-35.09926 -8.67042,-77.46448 -23.63021,-114.23402 -18.65204,-45.8447 -41.99819,-71.76209 -69.83014,-77.5209 -27.57226,-5.70508 -54.11931,17.349 -58.72671,50.99965 -4.86036,35.49814 11.02276,100.8966 37.03103,152.4746 9.28102,18.40555 14.36417,25.76327 24.388,35.30101 8.70832,8.28603 16.62816,13.25493 26.19609,16.43542 7.02189,2.33415 22.06016,1.82766 30.13143,-1.01484 z"
       id="path2007" />
    <path
       style="fill:#87decd;stroke-width:0.340774"
       d="m 244.4305,536.30099 c -0.84342,-0.0762 -4.90715,-0.374 -9.03052,-0.66168 -4.12337,-0.28767 -10.03813,-0.81856 -13.14391,-1.17977 C 172.63488,528.68857 124.98233,507.9655 90.570876,477.19249 65.7048,454.9556 45.229081,424.39124 32.462791,390.45384 25.192202,371.12599 20.352051,349.108 19.004478,329.23159 l -0.202157,-2.98178 h 3.559731 3.55973 l 0.229059,3.15217 c 2.96336,40.77982 16.628991,77.67784 41.425553,111.85149 22.645427,31.20904 54.152836,55.10208 93.364386,70.80108 21.35929,8.55155 46.67963,14.49892 67.8141,15.92851 8.82859,0.59719 28.7842,0.80123 38.06061,0.38917 28.47727,-1.26499 60.99578,-9.19237 89.55938,-21.83286 6.5338,-2.89145 19.44305,-9.5265 25.2173,-12.96108 16.79347,-9.98892 30.48118,-20.70971 43.79571,-34.3026 26.08127,-26.62656 44.61397,-58.85435 53.1179,-92.37031 3.59932,-14.18566 4.69679,-21.42383 5.04049,-33.24372 l 0.21554,-7.41185 h 3.85222 3.85221 l -0.15934,2.12984 c -1.10088,14.71433 -2.27011,23.12924 -4.78567,34.44172 -7.43573,33.43863 -23.08804,63.69763 -47.80243,92.41154 -4.52688,5.25948 -16.34998,16.95977 -22.02687,21.79813 -31.04321,26.45777 -69.6193,44.60867 -113.98902,53.63436 -11.47104,2.33344 -19.23155,3.37768 -35.78131,4.81469 -7.79561,0.67688 -19.39924,1.1004 -22.4911,0.8209 z"
       id="path2586" />
    <path
       style="fill:#87decd;stroke-width:0.340774"
       d="m 273.05554,438.83379 c -11.67413,-1.48679 -23.27453,-7.62601 -34.04534,-18.01763 -9.09502,-8.77484 -14.67225,-16.99897 -23.74522,-35.0145 -10.81324,-21.47107 -19.45343,-43.64562 -26.25351,-67.37811 -8.2276,-28.71462 -12.11307,-53.40605 -11.61155,-73.78919 0.25039,-10.1766 1.04529,-15.43911 3.53884,-23.42824 l 1.24975,-4.0041 h 3.85904 c 2.12248,0 3.85905,0.0555 3.85905,0.12325 0,0.0678 -0.44392,1.1029 -0.98648,2.30023 -1.41086,3.11349 -2.9995,8.46846 -3.62818,12.22982 -1.1923,7.13359 -1.00796,24.68934 0.39182,37.31479 3.00535,27.10697 13.41777,63.24795 27.6374,95.92798 5.86209,13.47244 15.47899,32.10451 19.78763,38.33712 5.27679,7.63306 13.00717,15.35271 20.39291,20.3646 5.09277,3.45589 13.78198,7.12731 18.43722,7.7902 4.70866,0.67049 13.863,-0.1463 19.83597,-1.76985 11.55147,-3.13989 22.56307,-15.46305 27.60045,-30.8879 1.53811,-4.70977 1.96178,-7.09039 2.41294,-13.5581 0.43684,-6.26261 0.42716,-21.0371 -0.0184,-28.11388 -1.58346,-25.14795 -9.40758,-59.51554 -19.82187,-87.06785 -4.67297,-12.36296 -11.33927,-26.77677 -16.62742,-35.95169 -2.48593,-4.31308 -7.80321,-12.45511 -10.07029,-15.42004 l -1.23769,-1.61868 h 4.3843 4.38431 l 2.76321,4.17449 c 19.69817,29.7588 36.33275,78.22936 41.6635,121.40086 2.53835,20.55704 2.79267,39.39892 0.69225,51.28654 -1.21867,6.89724 -4.45828,15.3492 -7.98594,20.83484 -3.68559,5.73124 -10.42584,12.9881 -15.28227,16.45357 -4.43407,3.16409 -10.86139,5.64093 -17.77503,6.84981 -3.0513,0.53354 -11.52623,0.92141 -13.80136,0.63166 z"
       id="path2588" />
    <path
       style="fill:#87decd;stroke-width:0.340774"
       d="m 18.720318,321.59548 c -0.501462,-10.45604 -0.03351,-27.80307 0.986759,-36.57936 3.645104,-31.35493 13.806207,-61.95568 29.154459,-87.80035 14.490558,-24.40042 33.106485,-45.10006 56.021864,-62.29249 12.411,-9.31145 25.75963,-17.08577 42.54007,-24.7756 l 4.37334,-2.00413 9.42164,0.0905 9.42165,0.0905 -4.59408,1.66952 c -22.81043,8.28948 -45.64176,21.05976 -63.34219,35.42928 -42.348117,34.37893 -68.423201,81.64028 -75.324126,136.52573 -1.330729,10.58374 -1.555955,14.88756 -1.555955,29.73253 v 14.56806 l -3.440106,4e-5 -3.440107,3e-5 z"
       id="path2590" />
    <path
       style="fill:#87decd;stroke-width:0.340774"
       d="m 182.41269,216.94644 c 0.009,-0.71385 3.90901,-8.14032 5.68228,-10.81958 5.87518,-8.87691 12.49297,-14.94486 20.80184,-19.07352 11.15023,-5.54052 21.82934,-6.20767 34.17059,-2.13474 4.38572,1.4474 12.44502,5.55196 16.18678,8.24385 7.33937,5.28007 13.12519,10.87372 19.57822,18.92796 4.51386,5.63389 4.57173,5.11524 -0.56806,5.09141 l -4.35686,-0.0202 -2.38542,-2.90513 c -3.39567,-4.13547 -10.67946,-11.11588 -14.92626,-14.30453 -8.29737,-6.22997 -15.35488,-9.11796 -24.52875,-10.03738 -4.28142,-0.42908 -9.80837,-0.18736 -13.19463,0.57708 -2.46783,0.55711 -8.20896,3.18331 -10.97543,5.02055 -6.19885,4.11673 -12.20404,11.00509 -16.60652,19.04882 l -1.44547,2.641 h -3.71772 c -2.04474,0 -3.71631,-0.11501 -3.71459,-0.25558 z"
       id="path2592" />
    <path
       style="fill:#87decd;stroke-width:0.481928"
       d="m 483.65582,309.37858 c -0.32529,-19.78366 -0.88961,-24.23126 -5.39627,-42.53012 -5.47292,-22.22229 -16.71791,-47.9043 -30.85953,-70.47895 -32.11618,-51.26789 -80.25902,-84.80974 -140.24381,-97.710007 -4.32412,-0.929942 -10.53538,-2.001389 -13.8028,-2.380992 -17.55516,-2.039536 -56.52099,-2.217786 -70.51906,-0.322593 -15.55147,2.105508 -31.84465,5.706792 -45.0349,9.954062 l -6.72139,2.16429 -9.23854,-0.13097 -9.23854,-0.13098 4.9962,-2.1075 c 6.85894,-2.89324 20.35431,-7.343397 29.33355,-9.672873 40.07524,-10.396682 83.07639,-11.844088 120.95326,-4.071249 63.53335,13.037892 114.95585,49.829212 148.7887,106.454032 23.04173,38.56412 34.80937,79.06407 34.83213,119.87952 l 0.004,7.59036 h -3.79091 -3.79091 z"
       id="path2594" />
    <path
       style="fill:#37abc8;stroke-width:1.3631"
       d="M 220.63722,525.99467 C 196.2474,522.9069 167.55197,513.9976 144.07684,502.22439 121.34483,490.82385 105.48381,479.51328 88.697658,462.73323 58.85588,432.90229 39.000911,395.21038 30.656861,352.55084 26.415243,330.86527 26.403469,292.13226 30.631882,270.37702 43.699613,203.14335 83.815812,150.69945 144.81842,121.10099 c 16.08435,-7.80412 40.99082,-16.39019 60.02687,-20.69319 12.177,-2.752547 17.06916,-3.037992 52.28232,-3.05055 36.41086,-0.01299 39.66075,0.189766 51.79771,3.2315 50.31882,12.61077 88.98797,36.05154 119.06499,72.17575 12.41885,14.91575 21.55612,29.47373 32.22635,51.34473 16.95922,34.7617 21.80765,55.86437 21.81655,94.95613 0.007,27.23018 -1.4851,37.33149 -8.69035,58.86407 -10.44415,31.21188 -26.28143,56.50904 -50.51099,80.68214 -33.66273,33.58427 -71.12622,53.03326 -123.44824,64.08753 -12.50074,2.64108 -21.0591,3.43725 -42.25602,3.93102 -14.61922,0.34054 -31.03989,0.0547 -36.49039,-0.63545 z m 76.70177,-89.39734 c 15.22844,-5.29344 29.20334,-25.43281 32.17354,-46.36566 2.67231,-18.83332 -0.55512,-53.32828 -7.76318,-82.9735 -15.08485,-62.04068 -40.50028,-105.13238 -70.85523,-120.13461 -9.8664,-4.87624 -11.53553,-5.27035 -22.32086,-5.27035 -14.56944,0 -24.14058,4.00745 -33.91224,14.19911 -13.0045,13.56343 -17.91576,28.01748 -17.93997,52.79799 -0.0406,41.51919 17.39559,101.90599 42.62604,147.62717 11.4502,20.74939 29.53535,37.27444 45.86281,41.90648 7.81608,2.21739 23.04662,1.37046 32.12909,-1.78663 z"
       id="path2596" />
    <path
       style="fill:#aaeeff;stroke-width:0.481928"
       d="m 239.00886,535.7585 c -1.06024,-0.11163 -5.61446,-0.53428 -10.12048,-0.93923 C 169.4049,529.47362 112.29816,502.54512 76.86626,463.13374 43.511377,426.03264 23.615653,380.02444 19.254546,329.90858 l -0.304047,-3.49398 h 3.346055 3.346055 l 0.325052,3.73494 c 3.777228,43.40142 18.073115,80.55752 44.203456,114.88816 27.96429,36.74012 69.679643,63.5579 118.717263,76.32041 22.95434,5.97409 40.46554,7.82707 69.15663,7.31793 21.97836,-0.39001 37.57347,-2.53302 58.75169,-8.07337 24.74481,-6.4734 51.20677,-17.91805 71.60975,-30.97082 13.38246,-8.56141 23.46622,-16.72936 35.45899,-28.72212 24.15117,-24.15116 41.11191,-51.18493 51.27294,-81.72404 2.4201,-7.27365 5.75211,-20.54343 6.96834,-27.75154 0.80952,-4.79766 1.90467,-18.21821 1.95318,-23.93521 0.009,-1.02822 0.19806,-1.08434 3.65834,-1.08434 h 3.64913 l -0.27765,2.53012 c -0.1527,1.39157 -0.60656,5.89157 -1.00856,10 -2.70277,27.62188 -11.61404,55.43032 -25.44065,79.38987 -21.795,37.76764 -51.93745,66.68796 -90.93285,87.24595 -35.42827,18.67744 -79.19643,29.56428 -121.44579,30.20829 -6.22891,0.0949 -12.19277,0.0813 -13.25301,-0.0303 z"
       id="path2598" />
    <path
       style="fill:#aaeeff;stroke-width:0.481928"
       d="m 484.06275,318.10135 c -0.011,-12.73595 -0.88786,-28.18896 -1.96092,-34.55783 -3.06588,-18.19668 -9.72966,-38.98962 -18.57281,-57.95254 C 440.08457,175.3176 404.99737,138.46894 359.49079,116.32978 337.62966,105.69424 310.2675,97.664582 288.64742,95.540188 c -8.11194,-0.797081 -47.73358,-1.147052 -57.11022,-0.504445 -15.9485,1.092995 -35.63854,4.992207 -53.76281,10.646627 l -6.2089,1.93705 -8.68795,-0.0193 c -10.06483,-0.0224 -10.07395,0.0928 0.29798,-3.76115 23.54903,-8.750148 49.35495,-14.100995 77.27913,-16.023788 10.27554,-0.70755 34.03779,-0.30419 43.61445,0.740348 69.97233,7.631966 127.4049,42.08992 165.51575,99.30485 20.83935,31.28564 34.32633,65.34352 39.3073,99.26045 1.50154,10.22444 1.92213,15.29975 2.24784,27.12509 l 0.30863,11.20482 h -3.68976 -3.68976 l -0.006,-7.3494 z"
       id="path2600" />
    <path
       style="fill:#aaeeff;stroke-width:0.481928"
       d="m 18.886812,318.58328 c -0.338276,-9.48678 0.367294,-28.18918 1.346565,-35.69309 4.535534,-34.75471 16.36126,-67.09236 34.57571,-94.54788 8.605248,-12.9711 17.302392,-23.43933 28.837736,-34.71023 18.146947,-17.73095 37.337427,-30.90625 61.012207,-41.88819 l 6.81363,-3.16061 8.58738,0.0326 c 5.29667,0.0201 8.21802,0.19276 7.62352,0.45054 -0.53012,0.22985 -4.10843,1.64735 -7.95181,3.14999 -3.84337,1.50264 -10.45783,4.40551 -14.69879,6.45082 -22.64482,10.921 -41.70601,24.29241 -58.554219,41.0757 -34.525444,34.39242 -54.800857,77.7272 -59.993356,128.22421 -0.488568,4.75132 -0.729535,12.19308 -0.729535,22.53012 v 15.4354 h -3.303488 -3.303487 z"
       id="path2602" />
    <path
       style="fill:#aaeeff;stroke-width:0.481928"
       d="m 267.90712,437.56639 c -17.19907,-4.58955 -32.85581,-17.67956 -44.42792,-37.14448 -3.99951,-6.7274 -12.48253,-23.69378 -16.88283,-33.76634 -11.57101,-26.48676 -21.46598,-59.03737 -25.87633,-85.12309 -2.31257,-13.67806 -2.87746,-20.19914 -2.87509,-33.19017 0.002,-13.44156 0.46531,-17.4026 3.04155,-26.02902 l 1.36583,-4.57339 3.63548,-0.13996 3.63548,-0.13996 -1.41046,3.6324 c -3.26461,8.40741 -3.55722,10.60482 -3.53235,26.52704 0.0234,14.99247 0.54641,21.63022 2.67665,33.9711 6.21084,35.98056 22.26221,80.675 41.01095,114.1934 4.56257,8.15683 6.9465,11.3835 13.14099,17.78645 8.30523,8.58472 14.98399,13.078 24.82871,16.70404 6.44568,2.37411 18.73052,2.05445 26.90737,-0.70013 13.84586,-4.66433 26.56156,-22.57857 28.4837,-40.12864 0.78113,-7.13213 0.64419,-30.47163 -0.22782,-38.82787 -4.89693,-46.92602 -22.77328,-99.2853 -44.17444,-129.38563 -1.27276,-1.79012 -2.31411,-3.36241 -2.31411,-3.49398 0,-0.13157 1.73985,-0.23922 3.86633,-0.23922 h 3.86633 l 3.07295,4.6988 c 19.49817,29.81431 35.7136,77.27745 41.2029,120.60241 1.58118,12.47965 2.1025,22.33169 1.84213,34.81311 -0.26874,12.88295 -0.84946,17.21205 -3.2922,24.54265 -3.02746,9.08532 -7.48045,16.12225 -14.89465,23.53757 -4.8356,4.83632 -8.49962,7.36949 -13.42661,9.28265 -6.30072,2.44658 -10.36497,3.2434 -17.88776,3.50702 -6.33439,0.22198 -7.41412,0.1348 -11.35478,-0.91676 z"
       id="path2604" />
    <path
       style="fill:#aaeeff;stroke-width:0.481928"
       d="m 183.12824,215.93268 c 0.1809,-0.59639 1.41912,-3.03615 2.7516,-5.42169 12.72064,-22.77379 34.6145,-32.66705 56.52741,-25.54326 4.36322,1.41846 14.17195,6.55415 18.147,9.50147 2.15782,1.59993 5.97408,4.88794 8.48059,7.3067 4.68816,4.52403 12.62462,13.77303 12.62462,14.71249 0,0.33886 -1.36437,0.52862 -3.80074,0.52862 h -3.80074 l -2.82576,-3.45609 c -3.80812,-4.65756 -12.6966,-12.70307 -17.74534,-16.06239 -7.65108,-5.09085 -14.55202,-7.36719 -23.66015,-7.80452 -8.0165,-0.38491 -11.25162,0.24639 -17.94011,3.50081 -4.8843,2.37655 -5.91597,3.11987 -10.17339,7.32986 -4.37642,4.32766 -7.49851,8.42408 -10.82495,14.20318 l -1.31764,2.28915 h -3.38565 c -3.28722,0 -3.3761,-0.0315 -3.05675,-1.08433 z"
       id="path2606" />
    <path
       style="fill:#37abc8;stroke-width:0.481928"
       d="m 222.14139,525.90378 c -11.12873,-1.09537 -29.99087,-5.4048 -44.03741,-10.0612 -26.51691,-8.7903 -51.19494,-21.5136 -69.69753,-35.93407 -45.025691,-35.09195 -74.281578,-88.06167 -79.852492,-144.57824 -0.93926,-9.52873 -0.778343,-40.84898 0.259486,-50.50526 3.653661,-33.99483 16.811761,-68.80634 36.650815,-96.96462 12.845952,-18.23272 30.821948,-36.02422 49.576901,-49.06804 21.64393,-15.05308 47.65003,-26.7417 78.45891,-35.2639 20.28669,-5.6116 22.08426,-5.775083 63.58108,-5.782485 38.54778,-0.0069 39.75271,0.07094 53.20955,3.436235 30.13429,7.53602 58.63721,20.62063 81.26682,37.30654 16.74264,12.34515 34.56403,30.71592 47.0027,48.45164 14.07204,20.06467 30.31861,53.28661 36.5096,74.65698 4.91222,16.95628 6.58171,31.81122 6.58044,58.55218 -10e-4,26.59861 -1.30091,35.69109 -8.02511,56.14458 -10.77816,32.78469 -27.24472,58.93258 -52.90669,84.01258 -30.01141,29.3308 -63.3044,47.65764 -106.52888,58.6411 -18.78881,4.77429 -27.22082,6.14579 -42.89156,6.97647 -10.51494,0.55738 -43.42504,0.54366 -49.15663,-0.0205 z m 65.72128,-86.99509 c 7.28606,-1.07955 12.07256,-2.79373 16.99952,-6.08801 11.31866,-7.56792 20.53078,-22.3219 24.07405,-38.55661 4.04348,-18.52655 0.53668,-57.39168 -8.318,-92.18682 -9.61514,-37.78337 -24.07051,-69.89303 -40.84552,-90.72997 -4.77308,-5.92885 -14.07352,-14.93162 -19.1911,-18.57688 -4.40777,-3.13967 -12.21915,-7.35543 -17.26452,-9.31759 -3.08636,-1.2003 -4.01412,-1.31673 -12.02528,-1.50916 -9.6735,-0.23236 -14.47186,0.38387 -20.55958,2.64038 -12.29878,4.55873 -25.21397,19.16998 -30.26132,34.23532 -2.8949,8.64067 -3.56096,14.16699 -3.58734,29.76393 -0.0263,15.55314 0.4964,21.40349 3.38005,37.83132 6.4684,36.84967 23.45218,84.10477 40.65654,113.12136 11.7723,19.85498 30.72083,36.09266 45.99688,39.4164 4.08368,0.88852 14.80502,0.86617 20.94562,-0.0437 z"
       id="path2608" />
  </g>
</svg>
