<?xml version="1.0" encoding="UTF-8" standalone="no"?>
<svg
   xmlns:dc="http://purl.org/dc/elements/1.1/"
   xmlns:cc="http://creativecommons.org/ns#"
   xmlns:rdf="http://www.w3.org/1999/02/22-rdf-syntax-ns#"
   xmlns:svg="http://www.w3.org/2000/svg"
   xmlns="http://www.w3.org/2000/svg"
   xmlns:sodipodi="http://sodipodi.sourceforge.net/DTD/sodipodi-0.dtd"
   xmlns:inkscape="http://www.inkscape.org/namespaces/inkscape"
   version="1.1"
   id="svg2009"
   width="500"
   height="600"
   viewBox="0 0 500 600"
   sodipodi:docname="letterr.svg"
   inkscape:version="1.0.1 (3bc2e813f5, 2020-09-07)">
  <metadata
     id="metadata2015">
    <rdf:RDF>
      <cc:Work
         rdf:about="">
        <dc:format>image/svg+xml</dc:format>
        <dc:type
           rdf:resource="http://purl.org/dc/dcmitype/StillImage" />
        <dc:title></dc:title>
      </cc:Work>
    </rdf:RDF>
  </metadata>
  <defs
     id="defs2013" />
  <sodipodi:namedview
     pagecolor="#ffffff"
     bordercolor="#666666"
     borderopacity="1"
     objecttolerance="10"
     gridtolerance="10"
     guidetolerance="10"
     inkscape:pageopacity="0"
     inkscape:pageshadow="2"
     inkscape:window-width="1920"
     inkscape:window-height="1001"
     id="namedview2011"
     showgrid="false"
     inkscape:zoom="0.81054688"
     inkscape:cx="21.90731"
     inkscape:cy="327.6658"
     inkscape:window-x="-9"
     inkscape:window-y="-9"
     inkscape:window-maximized="1"
     inkscape:current-layer="g2017" />
  <g
     inkscape:groupmode="layer"
     inkscape:label="Image"
     id="g2017">
    <path
       style="fill:#ff5555;stroke-width:1.63309"
       d="m 375.70719,544.71661 c -50.24474,-4.59138 -77.9428,-29.40503 -94.99814,-85.10538 -2.60752,-8.51582 -8.22533,-30.32945 -12.48401,-48.4747 -10.24605,-43.65609 -15.56582,-55.35911 -28.51334,-62.72685 -7.01229,-3.99029 -20.21864,-5.03567 -23.1127,-1.82953 -4.87228,5.3978 -2.59232,87.19097 2.75001,98.65564 1.179,2.53016 6.8674,8.11398 12.64091,12.40849 11.65426,8.66886 16.59365,15.61328 18.75215,26.36407 2.99424,14.91335 -2.30564,28.99617 -14.28203,37.95017 -14.4053,10.76994 -37.87051,15.54809 -83.88681,17.08162 -58.262013,1.94161 -99.420312,-5.88842 -119.270181,-22.69019 -7.343693,-6.216 -13.275375,-19.89163 -13.275375,-30.60667 0,-12.07138 4.353846,-19.41827 18.0581,-30.47214 23.013846,-18.56301 23.526004,-21.68795 24.805769,-151.35321 1.03599,-104.96758 -0.0463,-131.04574 -5.990491,-144.33252 -1.94876,-4.35602 -5.636024,-9.3263 -8.193919,-11.04506 -26.123819,-17.55382 -28.679459,-20.89105 -28.679459,-37.45052 0,-24.584204 17.840918,-39.621 52.993538,-44.664426 10.676082,-1.531732 21.503282,-1.352462 52.312818,0.866184 40.41041,2.909987 49.65646,2.748385 110.17708,-1.92573 21.42154,-1.654422 42.05846,-2.27901 53.48328,-1.618665 44.76022,2.587015 84.44331,19.655673 108.4978,46.667567 18.94324,21.27217 27.25291,44.82815 27.37241,77.59424 0.15699,43.055 -16.82978,78.232 -47.15079,97.64171 -5.73775,3.67299 -10.43228,7.71821 -10.43228,8.98939 0,1.27119 8.179,6.67456 18.17554,12.00751 15.44262,8.23834 19.8347,11.54287 29.21004,21.97727 16.01933,17.82884 24.09011,38.2803 30.30558,76.79476 1.75603,10.88132 3.88387,23.8758 4.72853,28.87661 2.03004,12.01886 6.09037,16.68746 18.96254,21.80321 11.12477,4.42128 16.84893,9.06063 20.32604,16.47398 9.21923,19.65576 -1.89094,46.089 -24.53173,58.36571 -20.6598,11.20256 -56.33074,16.74001 -88.75088,13.77746 z m 59.13438,-10.88255 c 23.30206,-5.64168 36.48909,-13.51862 44.71154,-26.70731 5.70709,-9.15406 7.16015,-22.71934 3.31703,-30.9667 -2.54041,-5.4517 -10.58549,-12.22899 -14.53141,-12.24147 -1.11859,-0.004 -5.9054,-2.03901 -10.63733,-4.52322 -10.63799,-5.58487 -13.12317,-11.05929 -16.69315,-36.77205 -4.82871,-34.77907 -11.76964,-59.70129 -21.14023,-75.90665 -7.73754,-13.38114 -19.03375,-23.3301 -37.94337,-33.418 -18.58868,-9.91668 -21.23164,-12.26226 -21.23164,-18.84274 0,-5.8615 2.19577,-8.36392 13.4883,-15.37211 12.02269,-7.46131 27.1793,-25.12975 33.52584,-39.08188 14.02871,-30.8405 14.15433,-73.17143 0.30208,-101.76317 C 397.10124,115.72413 372.00677,94.098216 343.93684,83.022336 318.97522,73.172957 304.07801,71.115858 265.3308,72.167898 c -18.53242,0.503194 -44.85703,1.84422 -58.49915,2.980061 -23.4873,1.955597 -37.23707,1.809383 -103.8661,-1.104468 -38.551965,-1.685972 -57.327966,3.162741 -69.285662,17.892305 -13.499366,16.628594 -8.972283,33.418934 12.421065,46.068054 10.790294,6.37992 16.622024,14.00061 20.005089,26.14187 2.522193,9.05175 2.753659,19.52205 2.747615,124.2889 -0.0055,102.26394 -0.298618,116.13882 -2.758237,130.74797 -3.232144,19.1977 -8.050409,29.09386 -18.196629,37.37378 -15.665133,12.78371 -19.982153,17.69416 -21.035905,23.92761 -2.424483,14.34191 6.828325,29.61697 22.740714,37.54171 18.386641,9.15698 33.651486,11.54226 79.99699,12.50036 71.05157,1.46884 101.23068,-5.17324 111.45241,-24.52946 8.70019,-16.47498 2.26118,-33.12982 -17.59705,-45.5156 -3.40023,-2.12077 -7.59023,-6.66779 -9.31113,-10.10452 -5.45721,-10.89833 -9.25455,-62.06245 -6.65645,-89.68639 1.37495,-14.61891 1.98609,-16.77478 5.79157,-20.43066 3.81372,-3.66376 5.25915,-3.98304 13.95356,-3.08204 25.38199,2.63032 34.42729,16.14681 47.20335,70.53669 12.49945,53.21228 19.36174,73.17725 31.70653,92.24597 12.27938,18.96774 33.07612,31.49644 60.32668,36.34295 12.01635,2.13711 55.89088,0.55279 68.37151,-2.46893 z M 209.6809,266.18677 c -6.27414,-3.02221 -6.53822,-8.32139 -3.63588,-72.95867 2.0705,-46.11155 4.28463,-50.96353 23.26512,-50.98257 10.89109,-0.01 22.88739,6.00087 28.6211,14.34314 6.88717,10.02051 10.39732,25.22041 10.58298,45.82757 0.0894,9.93512 -0.72031,22.5076 -1.7996,27.93883 -4.55351,22.91419 -18.66843,35.39165 -41.55549,36.73463 -6.66959,0.39135 -13.63479,-0.0156 -15.47823,-0.90293 z m 33.54821,-11.8173 c 7.29107,-4.04919 9.15609,-6.15489 13.17705,-14.87773 4.53191,-9.83118 4.6839,-10.91872 4.6839,-33.51034 0,-27.04491 -2.52862,-38.08339 -10.83562,-47.30202 -5.98415,-6.64091 -17.07531,-10.33174 -26.01219,-8.65616 -9.13853,1.7134 -9.79323,4.92899 -12.03547,59.11434 -1.8883,45.63284 -1.85653,47.22864 0.98762,49.5946 4.36403,3.63024 19.63717,1.41175 30.03471,-4.36269 z"
       id="path2582" />
    <path
       style="fill:#ff8080;stroke-width:1.23373"
       d="m 357.48321,533.61509 c -19.4746,-5.085 -37.30713,-16.22865 -47.35093,-29.58985 -7.30961,-9.72393 -15.51344,-26.5094 -20.46982,-41.88233 -2.07834,-6.44627 -7.40245,-26.15518 -11.83135,-43.79759 -9.11752,-36.31934 -12.90744,-48.71553 -18.02214,-58.94734 -7.38337,-14.77025 -17.02734,-21.38228 -33.15977,-22.73476 -14.643,-1.22762 -17.73771,2.80409 -19.78816,25.7795 -2.02317,22.66996 0.70593,67.56073 5.09919,83.87606 1.45626,5.40817 4.20975,8.48481 19.11219,21.35523 12.41618,10.72316 15.88361,23.18663 9.97866,35.86763 -9.08257,19.50497 -34.62366,26.46788 -97.00401,26.44484 -63.983029,-0.0237 -89.209241,-5.17345 -105.676533,-21.57333 -5.938461,-5.91414 -8.02351,-9.00779 -9.561446,-14.18658 -3.968371,-13.36295 -2.858041,-15.80074 15.174961,-33.3174 15.80826,-15.3556 17.675584,-18.50411 21.951262,-37.01204 3.661381,-15.84887 4.974742,-234.89548 1.530445,-255.25259 -2.350354,-13.89148 -9.118528,-23.67386 -22.117485,-31.96751 -15.756883,-10.05327 -21.78453,-22.93561 -16.570482,-35.41458 2.89703,-6.933572 13.247119,-17.204117 20.467567,-20.31027 15.336905,-6.597759 27.444153,-7.227263 92.951111,-4.832891 32.54569,1.18959 42.75069,1.103808 68.47229,-0.575575 45.70503,-2.984116 76.51336,-3.705385 91.26987,-2.136763 54.30285,5.772416 100.8196,39.997409 111.65236,82.148929 6.48841,25.24718 4.92134,54.05781 -4.27763,78.64427 -5.78295,15.45631 -21.56459,34.85081 -36.74985,45.16292 -18.37428,12.47773 -17.12582,19.77769 5.58506,32.65686 16.14094,9.15342 21.45646,12.83692 28.92374,20.04333 16.23232,15.66527 24.94643,39.01291 33.03704,88.51582 4.27419,26.15199 6.6557,32.70469 13.41591,36.91386 5.56725,3.46639 13.53046,7.11744 15.52363,7.11744 0.82158,0 3.77077,1.94902 6.55376,4.33114 15.67764,13.41947 9.51347,38.8701 -12.89629,53.24617 -9.00178,5.77472 -26.30693,11.27713 -40.00417,12.71985 -6.35332,0.66919 -21.54476,1.19576 -33.75874,1.17016 -17.9679,-0.0376 -23.97361,-0.50777 -31.46024,-2.46261 z M 244.17867,263.10897 c 12.48998,-6.03399 20.43708,-17.82529 23.32379,-34.60601 0.92746,-5.39143 1.23439,-15.95831 0.84213,-28.99277 -0.6678,-22.191 -2.43879,-30.49514 -8.82912,-41.39941 -6.30098,-10.75181 -22.04071,-17.90613 -35.6525,-16.20545 -11.79623,1.47384 -14.75219,6.59644 -16.87504,29.24405 -1.94962,20.79955 -3.90287,75.80431 -2.98115,83.95127 1.31844,11.65336 2.66902,12.47861 19.43682,11.87645 11.85532,-0.42575 14.7131,-0.95887 20.73507,-3.86813 z"
       id="path2584" />
  </g>
</svg>
