<?xml version="1.0" encoding="UTF-8" standalone="no"?>
<svg
   xmlns:dc="http://purl.org/dc/elements/1.1/"
   xmlns:cc="http://creativecommons.org/ns#"
   xmlns:rdf="http://www.w3.org/1999/02/22-rdf-syntax-ns#"
   xmlns:svg="http://www.w3.org/2000/svg"
   xmlns="http://www.w3.org/2000/svg"
   xmlns:sodipodi="http://sodipodi.sourceforge.net/DTD/sodipodi-0.dtd"
   xmlns:inkscape="http://www.inkscape.org/namespaces/inkscape"
   version="1.1"
   id="svg3782"
   width="499"
   height="600"
   viewBox="0 0 499 600"
   sodipodi:docname="letterl.svg"
   inkscape:version="1.0.1 (3bc2e813f5, 2020-09-07)">
  <metadata
     id="metadata3788">
    <rdf:RDF>
      <cc:Work
         rdf:about="">
        <dc:format>image/svg+xml</dc:format>
        <dc:type
           rdf:resource="http://purl.org/dc/dcmitype/StillImage" />
        <dc:title></dc:title>
      </cc:Work>
    </rdf:RDF>
  </metadata>
  <defs
     id="defs3786" />
  <sodipodi:namedview
     pagecolor="#ffffff"
     bordercolor="#666666"
     borderopacity="1"
     objecttolerance="10"
     gridtolerance="10"
     guidetolerance="10"
     inkscape:pageopacity="0"
     inkscape:pageshadow="2"
     inkscape:window-width="1920"
     inkscape:window-height="1001"
     id="namedview3784"
     showgrid="false"
     inkscape:zoom="1.4672466"
     inkscape:cx="366.55864"
     inkscape:cy="295.11397"
     inkscape:window-x="-9"
     inkscape:window-y="-9"
     inkscape:window-maximized="1"
     inkscape:current-layer="g3790" />
  <g
     inkscape:groupmode="layer"
     inkscape:label="Image"
     id="g3790">
    <path
       style="fill:#ffb380;stroke-width:1.15849"
       d="m 365.2425,567.70055 -27.75949,-4.43632 -127.053,-0.83355 -127.052987,-0.83356 -8.007556,-2.86153 c -15.806277,-5.64843 -24.453634,-17.45453 -25.381491,-34.653 -1.001345,-18.56066 3.46365,-25.82608 23.162186,-37.6893 20.198629,-12.1644 24.688921,-18.87567 26.984578,-40.33185 1.71984,-16.07408 1.70814,-126.71015 -0.02,-189.1851 -0.678903,-24.54379 -1.307566,-53.9586 -1.397014,-65.36628 -0.203834,-26.00273 -1.50704,-44.27407 -3.475387,-48.7285 -2.705706,-6.12319 -6.473797,-9.03169 -18.890266,-14.58103 C 60.103162,120.93834 55.742596,118.18637 50.264408,111.73652 42.9514,103.12644 41.746554,99.565294 41.741864,86.546902 41.739664,76.345759 42.049861,74.570199 44.911789,68.486511 54.521857,48.05815 81.806809,33.984287 124.58489,27.390346 c 18.05434,-2.782951 69.4208,-3.80519 95.45418,-1.899594 47.12884,3.449691 68.72133,9.857781 82.42393,24.461235 10.44699,11.133824 14.49436,27.998418 10.55162,43.966562 -2.57569,10.431601 -7.74064,15.741321 -24.64451,25.335321 -7.63387,4.33269 -14.70221,8.94882 -15.70745,10.25811 -6.67574,8.69486 -7.22349,20.53122 -7.2365,156.37231 -0.0133,134.85581 0.69653,149.25552 7.99471,162.27318 6.29642,11.23081 25.02691,16.53766 48.97404,13.87563 21.22381,-2.35928 34.79449,-9.00339 46.70886,-22.86828 5.70134,-6.63469 8.10489,-10.76419 12.45784,-21.4033 2.96644,-7.25039 6.65473,-18.4649 8.19616,-24.92114 3.17726,-13.30796 6.28499,-19.8612 11.74311,-24.76272 14.11603,-12.67652 37.37584,-6.87273 49.57765,12.37061 9.59784,15.1366 13.29035,30.28417 13.23667,54.29979 -0.0689,30.80151 -8.0509,60.87608 -24.85541,93.64975 -15.20558,29.65533 -23.62333,39.30658 -37.16823,42.61472 -6.98291,1.70545 -3.96539,1.9752 -37.04906,-3.31198 z m 40.7153,-7.37707 c 8.92839,-3.74936 22.3322,-24.35101 34.67494,-53.2954 12.18469,-28.57378 16.43859,-49.64123 15.60987,-77.3082 -0.71278,-23.79725 -4.45675,-36.08559 -14.65132,-48.08835 -10.65542,-12.54539 -26.78223,-15.21177 -36.11038,-5.9705 -3.51351,3.48081 -6.49449,11.07403 -10.36581,26.40389 -10.52683,41.68484 -31.91966,63.18049 -68.23425,68.56217 -12.02963,1.78274 -30.29339,0.95475 -38.67072,-1.75314 -7.73752,-2.50109 -16.07686,-8.13276 -19.69446,-13.29995 -3.59291,-5.13196 -6.7589,-15.71041 -8.67837,-28.99674 -1.99886,-13.83589 -1.9705,-270.87749 0.0313,-283.33466 2.75272,-17.13052 5.9595,-21.25646 24.91763,-32.05993 15.88034,-9.04953 20.61161,-14.125761 21.79019,-23.378863 2.8282,-22.204676 -9.21968,-38.032692 -34.81583,-45.739676 C 240.0685,32.521704 161.0693,30.229934 118.08955,37.606182 92.956816,41.919468 69.14216,51.917711 58.64798,62.561821 c -5.83791,5.921311 -9.970213,15.720809 -9.970213,23.643742 0,15.880207 7.68489,23.916327 33.556294,35.089937 18.099539,7.81702 21.462959,13.50871 23.105389,39.09977 3.32939,51.87605 4.91366,267.69394 2.13391,290.69435 -2.37166,19.62378 -9.790765,30.54426 -28.366923,41.75443 -19.774956,11.93361 -22.579868,15.88788 -21.678374,30.56147 0.677433,11.02641 4.917054,18.31461 13.712118,23.5721 6.306596,3.76993 8.135415,4.22188 21.312139,5.26666 7.92747,0.62855 64.62087,1.17804 125.98533,1.22107 l 111.57176,0.0782 32.03015,4.86804 c 32.76535,4.97977 36.25129,5.1315 43.91833,1.91185 z"
       id="path4355" />
    <path
       style="fill:#ffccaa;stroke-width:1.3631"
       d="m 364.07855,566.86374 -23.17266,-3.98496 -129.49425,-0.98654 -129.494256,-0.98656 -8.365436,-3.86559 C 57.958408,549.83446 51.19973,539.05272 50.970773,521.01761 50.756791,504.16209 54.062279,499.489 76.464995,484.97545 81.71292,481.57558 87.969118,476.72035 90.36766,474.18603 101.80994,462.09598 102.26711,455.82904 101.19444,325.77138 100.25079,211.35612 98.647961,152.32853 96.264791,144.22626 94.282683,137.48752 89.04057,133.38223 72.387244,125.52688 57.574581,118.53977 48.407095,110.89113 44.91717,102.60796 42.019941,95.731528 42.540422,75.576815 45.800757,68.392572 49.702014,59.796038 61.432984,49.045186 73.184626,43.296611 96.493369,31.894627 117.47087,27.573433 157.34137,25.961005 c 48.85425,-1.975744 93.83633,1.408877 117.31485,8.82721 25.49359,8.055018 38.96782,24.605534 38.80968,47.670277 -0.12091,17.636708 -5.11226,24.178338 -29.61349,38.811468 -14.28045,8.52885 -15.35766,10.38685 -17.24014,29.73608 -1.69651,17.43767 -1.69419,248.56938 0.003,269.04536 2.35431,28.40905 7.94049,36.86016 27.27064,41.25672 26.37113,5.99798 55.84608,-1.44843 72.30211,-18.26605 9.80525,-10.0207 15.55341,-21.57236 22.92664,-46.07401 2.99345,-9.94741 6.76583,-20.22718 8.38308,-22.84393 7.02665,-11.36934 22.78866,-14.85858 36.42485,-8.06338 21.44957,10.68877 32.20595,41.1101 28.89027,81.70785 -2.20311,26.97534 -8.611,48.56032 -23.13526,77.93115 -17.38772,35.16133 -28.11969,45.692 -46.15477,45.28905 -3.44923,-0.077 -16.69901,-1.93333 -29.44397,-4.12506 z m 42.41127,-6.12309 c 12.69235,-6.02291 35.67773,-48.45198 44.93973,-82.95496 6.79906,-25.32796 7.09616,-60.84463 0.66208,-79.15072 -7.66938,-21.82076 -27.7483,-34.48471 -42.37058,-26.72349 -6.29976,3.34378 -9.73394,9.96924 -14.94361,28.83026 -10.90376,39.47576 -28.88158,59.77175 -59.86067,67.57946 -6.45034,1.62569 -13.35815,2.07375 -26.5804,1.72409 -15.57023,-0.41176 -18.72706,-0.89635 -24.57549,-3.77245 -10.66771,-5.24612 -16.05864,-11.60686 -19.75929,-23.31394 -3.13671,-9.92303 -3.25238,-12.0609 -4.5076,-83.31057 -1.54852,-87.89785 0.24826,-218.2088 3.12362,-226.53949 2.44513,-7.08427 8.93784,-13.07911 25.04097,-23.12082 C 304.88975,99.24287 308.0546,94.333111 307.16152,79.732298 306.4597,68.258477 303.15051,61.140351 295.16366,53.924709 278.53988,38.906128 249.41046,33.569245 183.46814,33.460655 c -44.2265,-0.07283 -57.18169,1.027048 -80.02174,6.793733 -14.856061,3.750877 -33.969191,12.397955 -42.06228,19.029636 -7.996896,6.552853 -12.862622,16.726288 -12.862622,26.893629 0,15.635207 6.441713,22.873617 30.690668,34.486407 17.682176,8.46798 21.404824,12.37353 23.791974,24.96095 2.27685,12.00574 3.99407,72.14575 4.89087,171.28624 0.92663,102.43724 -0.0947,137.06883 -4.37795,148.44601 -3.57826,9.50464 -12.61796,18.88795 -27.826393,28.88407 -7.247945,4.76391 -14.300086,10.36446 -15.671428,12.4457 -1.391418,2.11169 -2.743616,7.18412 -3.059635,11.47741 -1.068346,14.5141 4.889857,25.16646 17.314942,30.95649 l 7.642838,3.56153 131.538896,1.63342 c 129.76493,1.61139 131.81465,1.67901 151.98537,5.01468 24.55084,4.06 34.72722,4.40958 41.04817,1.41009 z"
       id="path4359" />
    <path
       style="fill:#c87137;stroke-width:1.3631"
       d="m 380.91835,569.11252 c -0.35931,-0.35929 -3.68186,-0.91005 -7.38345,-1.22388 -3.70159,-0.31384 -7.8036,-1.00557 -9.11558,-1.53721 -1.31198,-0.53162 -3.23077,-0.64219 -4.26396,-0.24571 -1.0332,0.39647 -2.4186,0.18082 -3.07865,-0.47924 -2.78595,-2.78595 -35.08171,-4.20189 -89.77808,-3.93614 -31.48755,0.15298 -86.37592,-0.17644 -121.97417,-0.73207 l -64.724076,-1.01022 -6.546702,-3.31746 C 58.01261,548.50196 51.929241,538.43347 51.929241,520.01276 c 0,-13.6935 2.307769,-18.02514 14.371983,-26.97594 4.840371,-3.59122 10.232918,-7.73163 11.983439,-9.20091 1.750521,-1.46928 3.713571,-2.67143 4.362334,-2.67143 0.648762,0 1.670093,-0.813 2.269624,-1.80666 0.59953,-0.99367 2.031678,-2.15063 3.182549,-2.571 2.933533,-1.07156 9.57572,-11.00317 9.996155,-14.94657 0.192466,-1.80521 0.685992,-3.86964 1.096723,-4.58763 1.519962,-2.65702 1.710462,-14.23348 1.748612,-106.26394 0.0453,-109.2374 -1.344303,-183.31355 -3.829158,-204.12456 -0.754035,-6.31516 -6.906865,-12.82475 -16.915868,-17.89669 -3.92611,-1.98951 -7.138383,-3.27608 -7.138383,-2.85904 0,0.41704 -0.766742,0.0885 -1.703872,-0.72997 C 70.41625,124.5599 65.804998,121.41366 61.106151,118.38678 50.259786,111.39982 46.143104,105.96862 44.352765,96.28379 42.52442,86.393362 44.52131,71.210665 48.496432,64.778784 53.116657,57.303102 63.07208,49.410141 75.710144,43.20293 c 6.412797,-3.149659 11.852608,-6.152238 12.088471,-6.6724 0.235862,-0.520162 1.309302,-0.607884 2.385421,-0.194938 1.076117,0.412945 1.957797,0.225138 1.959287,-0.41735 0.0015,-0.642487 1.948751,-1.305216 4.327246,-1.47273 2.378496,-0.167513 4.677501,-0.780907 5.108911,-1.363097 0.4314,-0.58219 1.70446,-1.077448 2.82901,-1.100573 4.93611,-0.101507 17.72122,-2.39595 17.73067,-3.181983 0.006,-0.475895 7.5149,-1.074154 16.68705,-1.329464 9.17215,-0.255311 17.16351,-0.765111 17.75859,-1.132889 1.62772,-1.005984 54.09085,-1.262588 54.48527,-0.266494 0.18787,0.474435 7.3956,1.087829 16.01719,1.363097 8.62159,0.275268 15.99863,0.928354 16.39343,1.451303 0.39478,0.522948 4.53145,1.136342 9.1926,1.363097 4.66114,0.226755 8.47854,0.943835 8.4831,1.593511 0.004,0.649676 1.54179,0.888085 3.41605,0.529798 1.87426,-0.358288 3.40774,-0.235118 3.40774,0.27371 0,0.508829 3.52702,2.021457 7.83781,3.361397 9.84812,3.061125 15.77326,6.516333 23.33255,13.606222 5.83977,5.477137 12.40913,16.887838 12.43544,21.599792 0.007,1.311981 0.47336,2.385047 1.03564,2.384589 1.20276,-9.78e-4 1.02354,16.129606 -0.19273,17.345864 -0.45627,0.456279 -0.82959,1.862122 -0.82959,3.124094 0,4.884861 -8.55482,13.905574 -20.83371,21.968324 -6.90422,4.53355 -13.00581,8.95429 -13.55909,9.82386 -0.5533,0.86957 -1.01539,1.04588 -1.02687,0.39181 -0.0353,-2.01213 -4.17279,2.12728 -6.36653,6.36951 -1.14214,2.20865 -2.48184,7.77387 -2.97709,12.36715 -1.18276,10.96946 -1.17104,269.00603 0.0123,279.6078 0.50224,4.49822 1.26899,9.55872 1.70387,11.24556 0.43488,1.68683 1.07262,4.34802 1.4172,5.91377 1.84398,8.37887 9.76149,16.05964 19.65961,19.07179 6.85687,2.08664 36.51275,3.08692 37.63601,1.26945 0.48369,-0.78262 1.46422,-1.06154 2.17898,-0.6198 1.63852,1.01266 13.47935,-2.82424 22.20652,-7.19579 7.45559,-3.7344 19.92511,-14.75132 19.92511,-17.60363 0,-1.02197 0.60456,-1.85812 1.34347,-1.85812 0.73892,0 3.20133,-3.68036 5.47202,-8.17858 2.27069,-4.49822 3.79887,-8.17859 3.39594,-8.17859 -0.40292,0 0.13249,-1.38013 1.18974,-3.06697 1.05728,-1.68683 4.54581,-11.20876 7.75229,-21.15983 7.06212,-21.91682 10.6586,-26.87602 21.53094,-29.68896 17.66939,-4.57153 35.6517,7.31754 43.85544,28.99519 14.40599,38.06657 5.45175,92.60902 -23.74329,144.62602 -14.13189,25.17887 -22.27218,31.59837 -40.06861,31.59837 -5.90253,0 -11.02587,-0.29398 -11.38517,-0.6533 z m 23.37157,-7.60905 c 0,-0.79212 0.56146,-1.09323 1.24769,-0.66912 2.35397,1.45484 10.19705,-6.75348 18.04852,-18.88898 4.32163,-6.67966 7.53897,-12.66025 7.14963,-13.2902 -0.38933,-0.62996 -0.0221,-1.14537 0.81611,-1.14537 0.8382,0 1.14489,-0.6134 0.68155,-1.3631 -0.46335,-0.7497 -0.15665,-1.3631 0.68155,-1.3631 0.83819,0 1.14489,-0.61339 0.68155,-1.3631 -0.46335,-0.7497 -0.15665,-1.36309 0.68154,-1.36309 0.8382,0 1.1449,-0.6134 0.68155,-1.3631 -0.46334,-0.7497 -0.25285,-1.3631 0.46776,-1.3631 0.72061,0 1.94232,-1.68683 2.71493,-3.74852 0.7726,-2.06168 3.32657,-8.34897 5.6755,-13.97174 9.10894,-21.80468 12.97021,-41.95451 12.92977,-67.47333 -0.0247,-15.59976 -1.32358,-27.44279 -3.61667,-32.97681 -0.87212,-2.10475 -1.66723,-4.13351 -1.7669,-4.50836 -1.10554,-4.15771 -2.52004,-6.81549 -3.62726,-6.81549 -0.74343,0 -0.96991,-0.61773 -0.50329,-1.37272 0.4666,-0.75501 -0.10701,-1.73937 -1.27483,-2.18749 -1.16778,-0.4481 -1.84391,-1.26667 -1.50254,-1.81902 0.94022,-1.52132 -7.41046,-8.82032 -13.73147,-12.00219 -6.80669,-3.42632 -17.50399,-3.40143 -22.77612,0.053 -3.26868,2.14172 -10.29024,13.23912 -8.37667,13.23912 0.43434,0 0.30285,0.76675 -0.29219,1.70387 -0.59505,0.93713 -1.14269,2.01057 -1.21699,2.38543 -0.0743,0.37485 -0.85483,2.41985 -1.7345,4.54445 -0.87968,2.12459 -1.25212,4.42482 -0.82766,5.11162 0.42447,0.68678 0.24938,1.2487 -0.38908,1.2487 -0.63845,0 -1.92854,2.91363 -2.86687,6.47472 -0.93832,3.56109 -4.52595,12.2988 -7.97251,19.41713 -10.17085,21.00631 -28.72864,36.86389 -47.11465,40.25934 -2.81138,0.51919 -5.11107,1.33577 -5.1104,1.81461 0.001,1.32023 -40.08726,1.04213 -41.05685,-0.28481 -0.46434,-0.63549 -2.45744,-1.24888 -4.4291,-1.36309 -1.97166,-0.11423 -3.58528,-0.60713 -3.5858,-1.09535 -5.3e-4,-0.48823 -2.11111,-2.1327 -4.69017,-3.65438 -2.57907,-1.52168 -6.40704,-5.41598 -8.5066,-8.65401 -2.09957,-3.23801 -4.12983,-6.19399 -4.51171,-6.56884 -0.38187,-0.37486 -0.83552,-1.90834 -1.00813,-3.40775 -0.17259,-1.4994 -1.07979,-7.01995 -2.01599,-12.26787 -2.28235,-12.79391 -2.40253,-272.38899 -0.134,-289.46981 1.4313,-10.77691 1.83674,-11.72873 7.44119,-17.46925 3.2601,-3.33922 10.37454,-8.89825 15.80989,-12.3534 5.43535,-3.45515 9.88246,-6.78843 9.88246,-7.40728 -3e-5,-0.61888 0.88884,-1.12522 1.97525,-1.12522 1.0864,0 3.67811,-2.23253 5.75936,-4.96119 3.08894,-4.049804 3.88097,-6.675728 4.31146,-14.294385 0.29005,-5.133256 0.0593,-10.414795 -0.51287,-11.736751 -0.57212,-1.321957 -1.18886,-3.094458 -1.37054,-3.93889 -1.11813,-5.197134 -2.8456,-7.725196 -9.52967,-13.9462 -4.1061,-3.821634 -9.14862,-7.818358 -11.20559,-8.881611 -5.80765,-3.00198 -23.23769,-7.995662 -24.71701,-7.081389 -0.72913,0.45062 -1.73335,0.159689 -2.2316,-0.646512 -0.49827,-0.806203 -2.22748,-1.29518 -3.84271,-1.086615 -1.61523,0.208563 -3.66312,-0.07314 -4.55086,-0.62601 -6.19377,-3.857361 -124.18,-3.867208 -130.32478,-0.01088 -0.90458,0.567692 -2.66378,0.864777 -3.90935,0.66019 -1.24556,-0.204588 -2.64534,0.243977 -3.11062,0.996811 -0.46528,0.752835 -1.68436,1.047065 -2.70907,0.653846 -1.02472,-0.393219 -2.27424,-0.04973 -2.77673,0.763315 -0.50249,0.813043 -1.5115,1.10875 -2.24224,0.657128 -0.73074,-0.451623 -2.22184,-0.07982 -3.31355,0.826218 -1.091717,0.906043 -1.984938,1.190439 -1.984938,0.631993 0,-0.558446 -0.82318,-0.332177 -1.829289,0.502818 -1.006109,0.834997 -2.156651,1.190816 -2.556758,0.790708 -0.400107,-0.400107 -4.330728,0.927894 -8.734715,2.95111 -4.403986,2.023219 -8.467293,3.582688 -9.029571,3.465489 -0.562278,-0.117199 -1.022323,0.400305 -1.022323,1.150008 0,0.749704 -0.460046,1.239104 -1.022323,1.087556 -2.050592,-0.552687 -12.039805,5.60683 -16.280048,10.038551 -6.06989,6.343989 -9.460746,14.709724 -9.802659,24.184581 -0.346195,9.593515 1.87976,15.562171 8.041252,21.561721 5.002841,4.87135 24.987351,15.8093 26.365986,14.43067 0.482008,-0.48201 0.876376,-0.25244 0.876376,0.51015 0,0.7626 2.950782,3.22084 6.557293,5.46277 7.953629,4.94425 11.247177,11.18963 12.207047,23.14758 0.38075,4.74332 1.06833,8.62422 1.52797,8.62422 0.45964,0 0.85905,6.90068 0.8876,15.33484 0.0285,8.43417 0.41649,30.363 0.86211,48.73073 1.37701,56.75852 1.13927,210.90712 -0.34762,225.39652 -0.87303,8.50737 -2.41021,15.53238 -4.14119,18.92538 -3.710444,7.27308 -11.996292,16.05002 -21.017356,22.26307 -4.092348,2.81851 -7.440633,5.73823 -7.440633,6.48826 0,0.75005 -0.392508,0.97121 -0.872241,0.49148 -1.163996,-1.164 -11.023067,6.72743 -13.034612,10.4332 -2.555097,4.70715 -2.721992,19.88064 -0.29074,26.43309 2.158589,5.81759 12.161787,15.92593 14.394651,14.54594 0.64132,-0.39634 1.166039,-0.0349 1.166039,0.80335 0,0.83819 0.561004,1.17726 1.246676,0.7535 0.68567,-0.42377 1.503151,7e-5 1.816624,0.94187 0.666176,2.00148 -9.051209,1.72928 129.157152,3.61773 96.99385,1.32532 137.59513,2.32284 148.78936,3.6556 2.5075,0.29854 6.85864,0.86368 9.66918,1.25588 2.81055,0.39219 7.31952,0.97201 10.01993,1.28848 2.7004,0.31645 5.19953,0.86507 5.5536,1.21915 1.38193,1.38194 23.61705,0.86591 23.61705,-0.5481 z"
       id="path4365" />
    <path
       style="fill:#deaa87;stroke-width:0.681549"
       d="m 384.27891,561.2612 c -3.93595,-0.47961 -17.43061,-2.41655 -29.98814,-4.30429 l -22.83189,-3.43225 -108.36624,-0.41514 c -105.50193,-0.40417 -133.349156,-0.8843 -141.762131,-2.44425 -2.249111,-0.41703 -5.929474,-1.78402 -8.178584,-3.03774 -10.928397,-6.09185 -15.30896,-13.86095 -15.326757,-27.18264 -0.0118,-8.83001 0.771671,-10.83086 6.435863,-16.43624 2.651497,-2.62396 5.723173,-5.23089 6.825949,-5.79316 1.102776,-0.56228 5.698887,-3.44176 10.213581,-6.39883 19.530029,-12.79198 25.538089,-23.74505 26.958689,-49.14739 1.4781,-26.43051 0.57773,-191.23266 -1.37771,-252.17302 -1.61191,-50.2344 -3.20322,-57.0504 -15.083598,-64.60707 -2.00857,-1.27758 -4.725385,-2.80624 -6.037366,-3.39703 C 62.753306,112.13194 55.654862,107.12528 51.526888,98.346562 47.741333,90.29604 48.301249,80.966962 53.162659,71.092037 58.49056,60.269532 72.228268,51.195396 94.279935,43.932938 c 14.907875,-4.909733 29.952215,-7.545549 52.676725,-9.229126 15.00587,-1.11173 71.45315,-0.43392 85.33451,1.024683 14.46586,1.520021 26.86357,3.479241 34.94731,5.522751 25.48309,6.441939 39.34388,20.641982 39.34388,40.306853 0,13.939835 -3.18637,17.951529 -24.44805,30.780531 -14.91673,9.00056 -18.85482,13.62915 -21.55766,25.33759 -1.82786,7.91806 -2.30188,38.13915 -2.29841,146.53297 0.003,113.03841 0.45532,139.37947 2.57227,150.00232 1.6832,8.44633 4.13772,16.00161 6.5181,20.06343 3.72244,6.35185 14.39139,13.38349 23.96364,15.79382 7.01022,1.7652 33.03269,1.73571 41.14896,-0.0466 17.07062,-3.74873 29.09537,-10.2756 39.8706,-21.64124 10.50853,-11.08434 16.92758,-23.95247 23.0779,-46.26377 5.17155,-18.76066 6.86104,-22.79334 11.18627,-26.70093 3.9391,-3.55874 7.91535,-4.85679 13.91354,-4.54207 15.72694,0.82519 29.58483,16.98472 33.67708,39.27047 1.47211,8.01696 2.05427,32.43666 1.01348,42.51237 -1.78261,17.25701 -6.54181,34.47398 -15.05481,54.46254 -9.07332,21.30417 -19.70414,39.48395 -27.93041,47.76378 -3.88114,3.90642 -5.13863,4.72657 -9.14352,5.96355 -5.20124,1.6065 -8.44327,1.67792 -18.81243,0.41437 z"
       id="path4379" />
  </g>
</svg>
