<?xml version="1.0" encoding="UTF-8" standalone="no"?>
<svg
   xmlns:dc="http://purl.org/dc/elements/1.1/"
   xmlns:cc="http://creativecommons.org/ns#"
   xmlns:rdf="http://www.w3.org/1999/02/22-rdf-syntax-ns#"
   xmlns:svg="http://www.w3.org/2000/svg"
   xmlns="http://www.w3.org/2000/svg"
   xmlns:sodipodi="http://sodipodi.sourceforge.net/DTD/sodipodi-0.dtd"
   xmlns:inkscape="http://www.inkscape.org/namespaces/inkscape"
   version="1.1"
   id="svg833"
   width="820"
   height="859"
   viewBox="0 0 820 859"
   sodipodi:docname="sun.svg"
   inkscape:version="1.0.1 (3bc2e813f5, 2020-09-07)">
  <metadata
     id="metadata839">
    <rdf:RDF>
      <cc:Work
         rdf:about="">
        <dc:format>image/svg+xml</dc:format>
        <dc:type
           rdf:resource="http://purl.org/dc/dcmitype/StillImage" />
        <dc:title></dc:title>
      </cc:Work>
    </rdf:RDF>
  </metadata>
  <defs
     id="defs837" />
  <sodipodi:namedview
     pagecolor="#ffffff"
     bordercolor="#666666"
     borderopacity="1"
     objecttolerance="10"
     gridtolerance="10"
     guidetolerance="10"
     inkscape:pageopacity="0"
     inkscape:pageshadow="2"
     inkscape:window-width="1920"
     inkscape:window-height="1001"
     id="namedview835"
     showgrid="false"
     inkscape:zoom="0.68323472"
     inkscape:cx="352.19525"
     inkscape:cy="380.5858"
     inkscape:window-x="-9"
     inkscape:window-y="-9"
     inkscape:window-maximized="1"
     inkscape:current-layer="g841" />
  <g
     inkscape:groupmode="layer"
     inkscape:label="Image"
     id="g841">
    <path
       style="fill:#d4aa00;stroke-width:0.960732"
       d="m 382.23998,759.60934 c -13.29051,-37.40504 -24.16456,-68.44785 -24.16456,-68.98399 0,-0.61388 4.00194,-0.33023 10.80823,0.76606 22.01242,3.54558 57.70348,3.28579 79.94489,-0.58188 4.98375,-0.86665 7.24154,-0.9397 7.24154,-0.23431 0,1.89207 -48.32085,137.04332 -48.99733,137.04332 -0.36751,0 -11.54226,-30.60414 -24.83277,-68.0092 z m 40.50548,-11.35829 c 8.35578,-23.56426 15.05689,-42.94936 14.89134,-43.078 -0.16555,-0.12864 -3.54347,0.10548 -7.50649,0.52028 -3.96301,0.4148 -14.33892,0.75418 -23.05756,0.75418 -8.71865,0 -19.09455,-0.33938 -23.05757,-0.75418 -3.96302,-0.4148 -7.34093,-0.64892 -7.50649,-0.52028 -0.44283,0.34412 29.99881,85.9221 30.56406,85.9221 0.2642,0 7.31691,-19.27985 15.67271,-42.8441 z m -279.5337,-46.72859 c 3.83955,-8.05814 17.96543,-37.89351 31.39085,-66.30081 13.42542,-28.40731 24.68967,-51.53693 25.03168,-51.39916 0.34201,0.13776 3.94581,4.67522 8.00843,10.08324 15.25811,20.31101 32.84315,37.70333 53.63821,53.05032 4.62044,3.40995 8.07798,6.47036 7.68342,6.80094 -0.9432,0.79023 -131.44165,62.41663 -132.17184,62.41663 -0.30897,0 2.5797,-6.59302 6.41925,-14.65116 z m 68.10234,-34.13139 34.33666,-16.27561 -5.99506,-5.13581 c -9.76657,-8.36675 -23.45842,-21.95544 -30.7219,-30.49041 -3.73222,-4.38556 -7.11048,-7.62803 -7.50724,-7.20549 -0.92204,0.98193 -38.37974,80.13569 -38.37974,81.10216 0,0.83892 2.4555,-0.28003 48.26728,-21.99484 z m 399.67855,17.23753 c -36.06099,-17.26061 -65.45939,-31.67507 -65.32978,-32.03216 0.1296,-0.35707 4.19606,-3.59954 9.03654,-7.20549 18.45138,-13.74541 34.09982,-28.90484 48.03584,-46.5347 l 5.78121,-7.31355 2.75645,1.44426 c 2.10183,1.10126 3.38315,1.20771 5.39527,0.44822 2.5665,-0.96876 2.71542,-0.83428 5.43598,4.90856 1.53845,3.24753 14.7442,30.87125 29.3461,61.38603 14.6019,30.51479 26.54891,55.69798 26.54891,55.96264 0,0.26467 -0.32425,0.44474 -0.72055,0.40016 -0.3963,-0.0446 -30.22499,-14.20336 -66.28597,-31.46397 z m 39.73567,2.48288 c -3.09356,-7.1188 -37.31533,-78.12108 -37.99349,-78.82773 -0.40551,-0.42254 -3.79022,2.81993 -7.52159,7.20549 -7.09701,8.34125 -19.40629,20.56248 -30.0124,29.79769 l -6.24475,5.43759 8.16622,3.84025 c 4.49142,2.11214 23.08158,10.98822 41.31147,19.72462 18.22989,8.73639 33.25914,15.89788 33.39833,15.91442 0.13919,0.0165 -0.35751,-1.37502 -1.10379,-3.09233 z M 381.13298,664.75257 c -5.54822,-0.67055 -10.16406,-1.26419 -10.25742,-1.3192 -0.0934,-0.055 -0.36746,-0.85659 -0.6091,-1.78129 -0.41845,-1.60122 -0.44467,-1.60122 -0.55082,0 -0.13751,2.07463 0.84524,2.13807 -11.28668,-0.72852 -19.32714,-4.56672 -50.91081,-16.52899 -53.91435,-20.42 -0.66051,-0.85566 -1.20092,-1.24585 -1.20092,-0.86709 0,1.14213 -5.61396,-2.03949 -17.97605,-10.18763 -6.45221,-4.25279 -11.46528,-8.16277 -11.14016,-8.68883 0.32512,-0.52606 0.14199,-0.67888 -0.40698,-0.33961 -1.05805,0.65391 -19.21465,-14.58287 -25.75299,-21.61158 -12.12903,-13.03868 -23.00113,-27.14812 -22.07446,-28.6475 0.34919,-0.56502 0.11028,-0.90851 -0.53094,-0.76332 -1.60373,0.36315 -9.4407,-12.56461 -16.84103,-27.7807 -11.70778,-24.07283 -19.4072,-52.39962 -21.48058,-79.02879 -1.37164,-17.61634 -1.31402,-25.0234 0.1948,-25.04188 0.81591,-0.01 0.86737,-0.24101 0.16052,-0.72055 -1.13074,-0.76714 -0.4388,-11.75732 1.63225,-25.92506 1.01792,-6.96351 1.40235,-7.93957 3.16558,-8.03748 1.749,-0.0971 1.77924,-0.17015 0.23525,-0.56822 -2.17867,-0.56171 -1.88166,-2.52412 2.84238,-18.77993 3.95424,-13.60689 8.28124,-24.35693 15.56292,-38.66469 5.41864,-10.6471 18.09526,-30.4591 22.55409,-35.2493 1.3231,-1.42142 2.55838,-3.03776 2.74508,-3.59186 0.1867,-0.5541 5.25795,-6.22553 11.26945,-12.60319 7.00635,-7.43309 11.42152,-11.4071 12.29923,-11.0703 0.75308,0.28899 1.13121,0.1403 0.8403,-0.3304 -1.14253,-1.84865 24.62136,-21.72651 26.98455,-20.81966 0.77309,0.29666 1.15105,0.12749 0.83992,-0.37593 -0.31114,-0.50342 1.07148,-1.94726 3.07247,-3.20853 6.2953,-3.96805 23.7286,-12.98753 25.73502,-13.31453 1.0568,-0.17224 2.43572,-0.79655 3.06427,-1.38735 2.17987,-2.04897 31.21985,-11.07875 42.86992,-13.33009 17.4378,-3.36981 22.8015,-3.8862 23.81098,-2.2924 0.66048,1.04279 0.84234,0.95952 0.85392,-0.39097 0.0136,-1.58845 1.3173,-1.70736 17.54807,-1.60066 28.35907,0.18644 47.75974,3.18918 71.81471,11.11513 14.79229,4.87394 44.19367,18.95242 44.19367,21.16156 0,0.779 0.42508,1.15365 0.94462,0.83256 2.35876,-1.4578 36.28201,24.46985 34.91335,26.68439 -0.33427,0.54086 -0.18502,0.72211 0.33168,0.40279 1.06256,-0.6567 12.6067,10.83464 21.02801,20.93184 7.08582,8.49594 19.22856,27.02102 24.79112,37.82157 5.45165,10.58518 12.27868,26.99935 11.65164,28.01391 -0.26476,0.4284 -0.13767,0.9239 0.28243,1.10114 1.19747,0.5052 5.8831,16.77202 8.3953,29.14548 1.25505,6.18159 2.81159,17.28491 3.45897,24.67405 1.00598,11.48218 0.97832,13.56057 -0.19032,14.30021 -0.95798,0.6063 -1.00781,0.86982 -0.16646,0.88013 1.9708,0.0241 1.45049,15.49284 -1.22848,36.52252 -0.83487,6.55363 -5.27588,26.00861 -6.74371,29.54251 -0.7133,1.71731 -1.13299,3.12238 -0.93267,3.12238 1.31527,0 -11.48626,30.78623 -13.27466,31.92403 -0.61503,0.39129 -0.77283,0.71806 -0.35066,0.72615 1.04709,0.0201 -5.04481,10.95542 -12.58556,22.59191 -9.63574,14.86937 -26.36911,34.66594 -28.29555,33.47535 -0.55916,-0.34559 -0.73431,-0.17369 -0.39026,0.38299 1.09597,1.7733 -18.33452,18.63376 -32.03147,27.79473 -11.68575,7.81581 -22.92169,13.96177 -24.14382,13.20645 -0.65677,-0.40591 -0.87755,-0.28781 -0.52583,0.28128 0.75477,1.22124 -15.91214,8.64436 -29.54078,13.15692 -9.46277,3.13319 -26.9598,7.41065 -35.61349,8.70632 -17.7169,2.65268 -42.77293,3.05689 -60.05027,0.96874 z m 38.42928,-15.84026 c 35.15318,-2.37787 66.64665,-12.4141 95.88366,-30.55585 43.08538,-26.73477 76.77691,-72.52221 88.9556,-120.89239 3.91129,-15.53452 5.35947,-24.98745 6.23378,-40.69078 2.46948,-44.35373 -9.20385,-87.15656 -33.87192,-124.19894 -29.70534,-44.6065 -76.69557,-76.04358 -129.4265,-86.58803 -68.43155,-13.68406 -139.80126,8.72103 -187.38542,58.82589 -28.89668,30.42744 -47.67825,68.28903 -54.41341,109.69156 -2.55429,15.70172 -2.24954,49.61361 0.58277,64.84941 6.38409,34.34185 19.25115,64.22446 38.47211,89.34808 36.62156,47.86787 91.14599,76.68195 152.39213,80.53344 2.64201,0.16614 5.66832,0.37359 6.72513,0.46099 1.0568,0.0874 8.19024,-0.26511 15.85207,-0.78338 z M 93.633936,470.41295 C 55.72105,456.94015 24.705238,445.65817 24.709909,445.34188 c 0.01079,-0.73078 137.362851,-49.42559 137.899541,-48.88891 0.21921,0.21922 -0.52066,6.42389 -1.64416,13.78817 -2.94374,19.29546 -2.92327,51.04742 0.0454,70.43367 1.16322,7.59613 1.98913,13.90633 1.83536,14.02265 -0.15378,0.11633 -31.29923,-10.8117 -69.212116,-24.28451 z m 53.708134,1.01419 c -1.3664,-10.74024 -1.70558,-30.50391 -0.73666,-42.92559 0.57415,-7.36071 0.93011,-13.49688 0.79103,-13.63597 -0.34295,-0.34294 -84.572803,29.49863 -85.408504,30.25917 -0.565671,0.51479 82.723564,30.67928 85.090394,30.81681 0.46438,0.027 0.58306,-2.00451 0.26374,-4.51442 z m 504.13299,20.69525 c 4.0874,-20.43698 5.13128,-58.18798 2.15756,-78.02604 -2.26392,-15.10281 -2.28231,-14.96429 1.98847,-14.96429 4.37598,0 135.27296,46.25142 133.55807,47.1917 -1.48579,0.81465 -136.91341,48.8815 -137.72289,48.8815 -0.32879,0 -0.32032,-1.38729 0.0188,-3.08287 z m 67.83558,-33.94114 c 17.70149,-6.23943 32.51803,-11.62488 32.92564,-11.96766 0.40762,-0.34278 -18.52863,-7.45178 -42.08056,-15.79775 -23.55192,-8.34598 -43.01494,-14.98126 -43.25113,-14.74505 -0.23621,0.23621 0.0475,6.23094 0.63029,13.32165 0.98145,11.93945 0.63057,32.46112 -0.74226,43.41195 l -0.57416,4.58 10.45383,-3.72937 c 5.74961,-2.05115 24.93687,-8.83434 42.63835,-15.07377 z M 169.82281,246.26142 c -15.96574,-33.88061 -28.66931,-61.9298 -28.23017,-62.33153 0.43914,-0.40173 2.4189,-1.24825 4.39947,-1.88115 3.58099,-1.14433 3.93368,-0.99196 63.40831,27.39254 32.894,15.69879 59.93689,28.65141 60.09529,28.78359 0.15841,0.1322 -4.81338,4.04304 -11.04841,8.69078 -14.72153,10.97374 -39.61149,35.80608 -50.25497,50.13863 -4.41446,5.94453 -8.32208,10.80824 -8.6836,10.80824 -0.36152,0 -13.72019,-27.72049 -29.68592,-61.6011 z m 44.95465,23.39666 c 6.46461,-7.28819 17.9901,-18.15203 27.47732,-25.89991 l 3.79051,-3.09556 -8.1138,-3.80626 c -4.46258,-2.09343 -23.02517,-10.9357 -41.2502,-19.64946 -18.22502,-8.71376 -33.31283,-15.66678 -33.52847,-15.45114 -0.21564,0.21563 8.39344,18.99797 19.1313,41.73853 l 19.52335,41.34646 2.9567,-3.61353 c 1.62618,-1.98743 6.13216,-7.19354 10.01329,-11.56913 z m 391.1757,27.3962 c -10.64347,-14.33255 -35.53344,-39.16489 -50.25496,-50.13863 -6.23504,-4.64774 -11.20683,-8.56175 -11.04842,-8.69781 1.19479,-1.02622 132.66752,-62.97773 132.98238,-62.66287 0.54298,0.543 -62.22294,132.30755 -63.02459,132.30755 -0.34547,0 -4.23995,-4.86371 -8.65441,-10.80824 z m 26.36685,-54.10038 c 10.79969,-22.65766 19.51241,-41.31913 19.36161,-41.46993 -0.31779,-0.31779 -81.45076,38.08283 -82.3941,38.9975 -0.3461,0.33559 4.09565,4.64398 9.87057,9.57418 9.32491,7.96093 25.52583,24.75909 30.9351,32.07551 1.07764,1.45759 2.10148,2.50803 2.27519,2.33431 0.17371,-0.17371 9.15195,-18.85392 19.95163,-41.51157 z M 358.23239,200.55025 c 0.5449,-3.17078 48.2525,-136.713665 48.84036,-136.713665 0.58785,0 48.29546,133.542885 48.84035,136.713665 0.2647,1.54028 -0.0841,1.78183 -1.92146,1.3309 -21.37932,-5.24671 -72.45846,-5.24671 -93.83779,0 -1.83743,0.45093 -2.18615,0.20938 -1.92146,-1.3309 z m 40.67414,-15.26503 c 8.69495,-0.33723 20.35524,-0.14623 26.84513,0.43973 6.31039,0.56976 11.61167,0.89769 11.78061,0.72874 0.51486,-0.51486 -29.76028,-85.14856 -30.45931,-85.14856 -0.35866,0 -7.27561,18.69825 -15.37098,41.55166 -8.09537,22.85342 -14.93843,42.1604 -15.20682,42.90442 -0.38885,1.07804 0.27641,1.2276 3.27585,0.73647 2.07009,-0.33897 10.68107,-0.88457 19.13552,-1.21246 z"
       id="path845" />
    <path
       style="fill:#ffcc00;stroke-width:1.46363"
       d="m 376.34508,646.25196 c -46.61211,-8.27008 -83.59022,-27.77412 -115.81575,-61.08687 -26.30456,-27.192 -44.16168,-61.34232 -52.6564,-100.70115 -3.38971,-15.70563 -3.82811,-59.74136 -0.75002,-75.33743 5.38123,-27.26571 18.93862,-58.58436 35.27827,-81.49558 10.93765,-15.33663 34.63702,-38.59831 50.14627,-49.22016 51.77595,-35.45989 119.07953,-44.86663 178.83302,-24.99475 68.44844,22.76351 119.08048,79.8295 134.96085,152.11069 3.87332,17.62981 3.87332,62.75108 0,80.38089 -9.72697,44.27326 -31.42671,81.26953 -66.00107,112.52627 -24.35946,22.02202 -60.28358,39.60996 -94.74211,46.38438 -16.85917,3.31445 -54.28566,4.08926 -69.25306,1.43371 z"
       id="path847" />
    <path
       style="fill:#ffcc00;stroke-width:1.46363"
       d="m 379.29692,180.06906 c 1.00793,-2.81748 7.24012,-20.27121 13.8493,-38.78608 6.60918,-18.51487 12.50361,-34.53872 13.09874,-35.60857 0.72111,-1.2963 1.87879,0.1684 3.47049,4.39088 6.8935,18.28706 25.90635,72.31825 25.9056,73.61914 -5.7e-4,0.9834 -10.10788,1.50732 -29.07881,1.50732 h -29.07793 z"
       id="path849" />
    <path
       style="fill:#ffcc00;stroke-width:1.46363"
       d="m 194.77237,268.11618 c -17.92742,-37.67 -28.71154,-61.93579 -27.89027,-62.75706 0.83286,-0.83286 30.60448,12.79017 63.07927,28.8641 l 13.3066,6.58632 -20.88456,20.72032 -20.88457,20.72032 z"
       id="path851" />
    <path
       style="fill:#ffcc00;stroke-width:1.46363"
       d="M 114.35605,463.84196 C 99.06116,458.27445 81.607422,451.82142 75.569965,449.50188 l -10.977193,-4.21734 4.390877,-1.77462 c 7.929917,-3.20498 68.763611,-24.62367 72.848181,-25.64884 l 3.99218,-1.00197 v 26.38423 c 0,14.51133 0.39978,27.42604 0.8884,28.69937 1.43614,3.74252 -2.58993,2.73455 -32.35636,-8.10075 z"
       id="path853" />
    <path
       style="fill:#ffcc00;stroke-width:1.46363"
       d="m 165.89034,685.38589 c 1.94882,-5.2691 34.12807,-72.70927 35.20936,-73.79057 0.6197,-0.61969 10.44187,8.07308 21.82706,19.31728 11.38519,11.24419 20.56992,20.44399 20.41052,20.44399 -0.15941,0 -17.61647,8.23289 -38.79347,18.29532 -21.17701,10.06243 -38.75051,18.29532 -39.05222,18.29532 -0.30172,0 -0.12228,-1.1526 0.39875,-2.56134 z"
       id="path855" />
    <path
       style="fill:#ffcc00;stroke-width:1.46363"
       d="m 399.40187,768.02816 c -4.14731,-11.44224 -10.7877,-30.02492 -14.75641,-41.29484 l -7.21584,-20.49077 h 29.61886 29.61886 l -7.18399,20.49077 c -7.80108,22.25087 -21.88029,61.2805 -22.28799,61.78561 -0.13911,0.17232 -3.64617,-9.04852 -7.79349,-20.49077 z"
       id="path857" />
    <path
       style="fill:#ffcc00;stroke-width:1.46363"
       d="m 609.79203,669.25021 -38.78472,-18.45581 20.49077,-20.20836 c 16.9144,-16.68129 20.77189,-19.82881 22.10149,-18.03371 2.50254,3.37867 36.12093,74.00995 35.51496,74.61591 -0.29577,0.29578 -17.9909,-7.76733 -39.3225,-17.91803 z"
       id="path859" />
    <path
       style="fill:#ffcc00;stroke-width:1.46363"
       d="m 591.31536,261.07923 -20.67348,-20.71183 11.35824,-5.33009 c 6.24703,-2.93155 23.75971,-11.19803 38.91705,-18.36995 15.15734,-7.17192 27.78957,-12.80909 28.07162,-12.52704 0.59863,0.59863 -21.17725,47.05557 -30.56601,65.20992 l -6.43394,12.44082 z"
       id="path861" />
    <path
       style="fill:#ffcc00;stroke-width:1.46363"
       d="m 668.08897,446.83828 c 0.2653,-15.90543 0.67815,-29.11477 0.91746,-29.35407 0.33756,-0.33756 50.20581,16.97494 75.91734,26.35583 2.27472,0.82993 3.59199,2.02464 2.92725,2.65489 -0.66473,0.63025 -18.33303,7.2216 -39.26288,14.64743 -20.92985,7.42583 -38.7129,13.75202 -39.5179,14.0582 -0.9551,0.36328 -1.29603,-9.4909 -0.98127,-28.36228 z"
       id="path863" />
  </g>
</svg>
