<?xml version="1.0" encoding="UTF-8" standalone="no"?>
<svg
   xmlns:dc="http://purl.org/dc/elements/1.1/"
   xmlns:cc="http://creativecommons.org/ns#"
   xmlns:rdf="http://www.w3.org/1999/02/22-rdf-syntax-ns#"
   xmlns:svg="http://www.w3.org/2000/svg"
   xmlns="http://www.w3.org/2000/svg"
   xmlns:sodipodi="http://sodipodi.sourceforge.net/DTD/sodipodi-0.dtd"
   xmlns:inkscape="http://www.inkscape.org/namespaces/inkscape"
   version="1.1"
   id="svg1418"
   width="273.28"
   height="142.72"
   viewBox="0 0 273.28 142.72"
   sodipodi:docname="cloud02.svg"
   inkscape:version="1.0.1 (3bc2e813f5, 2020-09-07)">
  <metadata
     id="metadata1424">
    <rdf:RDF>
      <cc:Work
         rdf:about="">
        <dc:format>image/svg+xml</dc:format>
        <dc:type
           rdf:resource="http://purl.org/dc/dcmitype/StillImage" />
        <dc:title></dc:title>
      </cc:Work>
    </rdf:RDF>
  </metadata>
  <defs
     id="defs1422" />
  <sodipodi:namedview
     pagecolor="#ffffff"
     bordercolor="#666666"
     borderopacity="1"
     objecttolerance="10"
     gridtolerance="10"
     guidetolerance="10"
     inkscape:pageopacity="0"
     inkscape:pageshadow="2"
     inkscape:window-width="1920"
     inkscape:window-height="1001"
     id="namedview1420"
     showgrid="false"
     inkscape:zoom="4.4899005"
     inkscape:cx="136.64"
     inkscape:cy="70.914556"
     inkscape:window-x="-9"
     inkscape:window-y="-9"
     inkscape:window-maximized="1"
     inkscape:current-layer="g1426" />
  <g
     inkscape:groupmode="layer"
     inkscape:label="Image"
     id="g1426">
    <path
       style="fill:#000000;stroke-width:0.531435;stroke:#000000;stroke-opacity:1"
       d="m 108.5998,130.10053 c -6.53114,-1.30226 -14.590634,-5.99569 -18.195,-10.59581 l -1.482666,-1.89227 -2.768808,1.4241 c -3.956302,2.03489 -11.007324,2.36189 -15.382113,0.71336 -3.529741,-1.33009 -7.020546,-4.05396 -8.890619,-6.9373 -1.136973,-1.75304 -1.702446,-2.09619 -4.294643,-2.60617 -3.15083,-0.61989 -6.821225,-2.67045 -8.970225,-5.01144 -1.158013,-1.26147 -1.668821,-1.40426 -5.048634,-1.41132 -9.58743,-0.02 -17.646511,-4.06485 -21.310966,-10.695889 -1.322983,-2.394016 -1.573786,-3.440694 -1.573786,-6.567903 0,-3.127209 0.250803,-4.173886 1.573786,-6.5679 3.39255,-6.139012 10.063727,-9.871233 19.043576,-10.654021 l 3.618618,-0.315439 1.200879,-3.575653 c 2.325563,-6.924436 7.604514,-12.808234 14.413594,-16.065072 8.390028,-4.013016 18.390805,-3.994633 26.737849,0.04915 1.552796,0.752263 2.874308,1.283058 2.936698,1.179547 4.20132,-6.970117 8.676212,-10.019757 14.7025,-10.019757 h 2.52576 l 0.58575,-3.938351 c 1.84052,-12.374773 9.55317,-20.699409 21.00247,-22.668982 12.47412,-2.145867 25.14441,6.624118 27.99907,19.380086 l 0.6353,2.838828 3.12137,0.326247 c 5.66747,0.592367 10.73691,4.141102 13.48313,9.438525 l 1.2719,2.453461 2.81698,-0.78904 c 4.26537,-1.194731 15.28949,-1.461172 19.91757,-0.481386 13.67936,2.895986 23.85494,11.55271 27.03823,23.002388 l 0.90413,3.251974 3.08913,0.280115 c 6.05498,0.549047 11.62927,4.334305 14.29123,9.704558 1.80706,3.645566 1.85964,9.458435 0.12001,13.267989 -2.76208,6.048595 -8.91968,9.950785 -15.7144,9.958505 -2.09417,0.002 -4.8349,-0.36827 -6.13998,-0.83033 l -2.35731,-0.83463 -2.57588,2.61683 c -7.65784,7.77957 -19.10574,9.57221 -29.02607,4.54519 l -2.55259,-1.2935 -2.33002,2.91999 c -4.38631,5.49692 -12.3509,10.39322 -19.7396,12.13507 -6.80815,1.60499 -16.46294,0.71669 -22.56279,-2.07591 l -2.89903,-1.32722 -2.50312,1.92385 c -7.02855,5.40204 -17.3257,7.61692 -26.71128,5.74553 z m 17.56523,-2.1485 c 3.98346,-1.44971 8.70845,-4.1344 9.96764,-5.6635 0.56284,-0.68349 0.33987,-1.03769 -1.42178,-2.2585 -1.81495,-1.25776 -3.19377,-2.95263 -2.40204,-2.95263 0.14557,0 1.45212,0.93864 2.90347,2.08585 5.45277,4.31016 11.95899,6.40141 19.91593,6.40141 5.82093,0 10.46593,-1.03645 15.40355,-3.43701 7.0566,-3.43076 13.61492,-9.87164 15.559,-15.28036 0.49901,-1.38838 1.09033,-2.52432 1.31401,-2.52432 0.616,0 0.49553,0.81936 -0.47843,3.25352 -0.84274,2.10618 -0.83789,2.24668 0.10109,2.93326 2.00636,1.46711 7.00452,2.98874 10.65568,3.24402 7.09738,0.49622 13.3384,-1.80723 18.23482,-6.73016 2.92584,-2.94169 3.65859,-4.01769 4.9152,-7.217839 0.44581,-1.135315 0.68679,-1.34158 0.83705,-0.71645 0.11604,0.482821 -0.16074,1.767549 -0.61509,2.854939 -0.45434,1.08739 -0.82607,2.02916 -0.82607,2.09282 0,0.57674 5.23069,1.60454 7.97153,1.56637 4.6532,-0.0648 8.25501,-1.68228 11.58384,-5.20203 9.06795,-9.588025 2.83213,-24.629367 -10.65098,-25.691094 -3.84301,-0.302621 -8.34063,1.016518 -11.38632,3.339575 -1.84451,1.406874 -2.9899,1.437453 -1.83762,0.04906 0.78884,-0.950504 7.10165,-4.067792 8.23766,-4.067792 1.20062,0 1.0914,-1.453134 -0.42275,-5.624581 -5.87989,-16.198908 -26.60572,-24.998895 -46.01017,-19.535472 -4.15217,1.169062 -6.98706,2.947558 -9.77079,6.129776 -1.33067,1.521158 -2.54873,2.63642 -2.70679,2.478359 -0.58348,-0.583482 3.50857,-5.20332 6.09113,-6.876769 1.46652,-0.950272 2.6664,-2.118963 2.6664,-2.597092 0,-1.512792 -3.05311,-5.755506 -5.32716,-7.402821 -2.69827,-1.954622 -6.80197,-3.366927 -9.13221,-3.142895 -1.79761,0.172823 -1.8387,0.246198 -1.95382,3.489657 -0.1234,3.476881 -0.86088,1.602181 -0.94159,-2.393532 -0.29553,-14.63214 -13.44855,-25.996615 -27.33246,-23.61579 -5.32177,0.912583 -9.22962,2.92577 -13.0184,6.70663 -4.58011,4.570543 -7.67943,11.644875 -7.65322,17.468827 0.007,1.488895 0.33951,1.884039 2.66886,3.168822 1.46366,0.807298 3.13334,2.242173 3.7104,3.188611 1.14873,1.884028 1.34812,3.049383 0.52174,3.049383 -0.29229,0 -0.53144,-0.34037 -0.53144,-0.756378 0,-1.287449 -2.7718,-4.129127 -5.02664,-5.153359 -3.06438,-1.391955 -7.35902,-1.283978 -10.693865,0.268863 -2.863319,1.33328 -6.196972,4.393855 -7.478919,6.866281 -0.73374,1.415149 -0.688754,1.58723 0.882921,3.377278 2.177938,2.480522 1.583145,3.010294 -0.682545,0.607952 -2.017299,-2.138954 -7.290527,-4.7745 -11.544231,-5.769773 -1.607583,-0.376141 -4.865364,-0.659503 -7.239505,-0.629694 -11.683132,0.146687 -21.973384,7.246076 -25.996934,17.935663 -0.718763,1.909578 -1.306843,3.582636 -1.306843,3.717898 0,0.135266 1.080221,0.517937 2.400491,0.850386 1.320271,0.332445 2.551542,0.848856 2.736161,1.14757 0.218906,0.354202 -0.20017,0.40649 -1.204763,0.150323 -0.847237,-0.21604 -3.612151,-0.512878 -6.144252,-0.659639 -14.84174,-0.860224 -26.192294,10.814488 -20.879528,21.475821 3.330948,6.684345 11.054518,10.777186 20.337509,10.777186 3.275857,0 3.879989,-0.13284 3.625071,-0.79714 -0.168243,-0.43844 -0.09037,-0.79716 0.173048,-0.79716 0.263419,0 0.627122,0.46687 0.808228,1.03748 0.513672,1.61844 4.036383,4.87987 6.40786,5.93257 3.423693,1.51979 6.28252,1.78348 8.727855,0.80506 1.295909,-0.51852 2.143987,-0.6384 2.143987,-0.30308 0,0.30512 -0.717433,0.80488 -1.594305,1.11055 -0.876873,0.30568 -1.594306,0.87517 -1.594306,1.26553 0,1.22911 5.191559,6.10039 7.669827,7.19664 5.785334,2.55913 11.631172,2.39992 16.943679,-0.46147 l 2.558942,-1.37829 2.138281,2.50157 c 1.176058,1.37587 3.611719,3.5441 5.412576,4.81828 4.40372,3.1158 6.92133,4.17754 13.90301,5.86327 0.58457,0.14116 3.45433,0.17192 6.37721,0.0684 4.12592,-0.14616 6.20569,-0.51265 9.30012,-1.63882 z"
       id="path1991" />
    <path
       style="fill:#ffffff;stroke:#000000;stroke-width:0.222722;stroke-opacity:1"
       d="m 108.02021,128.51127 c -4.78684,-1.36384 -6.95439,-2.32775 -10.260936,-4.56306 -2.464273,-1.66591 -4.872385,-3.80601 -6.98359,-6.20634 -0.888872,-1.0106 -1.65156,-1.83745 -1.694859,-1.83745 -0.0433,0 -1.111575,0.54278 -2.373941,1.20618 -5.235243,2.75124 -9.756101,3.17926 -15.047641,1.42466 -2.218875,-0.73574 -3.759658,-1.69094 -6.182275,-3.83264 -1.460736,-1.29135 -3.226145,-3.32391 -3.226145,-3.71434 0,-0.10943 0.526181,-0.46264 1.169291,-0.78491 1.454228,-0.72874 1.948818,-1.15594 1.948818,-1.6833 0,-0.55099 -1.046611,-0.53747 -2.672665,0.0345 -2.577964,0.90684 -6.354744,0.36001 -9.31644,-1.34889 -1.611695,-0.92995 -4.57542,-3.80375 -5.12204,-4.96663 -0.763309,-1.62387 -1.710642,-1.95888 -1.85985,-0.6577 l -0.07174,0.62564 -2.449943,0.0717 c -9.942664,0.29085 -18.082656,-4.238957 -21.229305,-11.813848 -0.503404,-1.211838 -0.582017,-1.725313 -0.589186,-3.848369 -0.01359,-4.024387 1.058778,-6.422552 4.332287,-9.68841 5.243947,-5.231691 12.316186,-6.969671 22.610101,-5.556362 1.607559,0.220711 2.18577,0.228921 2.380882,0.03381 0.487336,-0.487336 -0.498092,-1.148959 -2.756113,-1.850471 -1.203049,-0.373759 -2.187362,-0.767552 -2.187362,-0.875093 0,-0.475376 2.076184,-5.505098 2.825499,-6.844998 3.820735,-6.832114 10.667343,-11.820654 18.591984,-13.546396 2.267848,-0.493866 7.159077,-0.653857 9.976409,-0.326324 4.94845,0.575287 10.623202,3.100833 14.216874,6.327214 2.364591,2.122918 3.176509,1.352141 1.182418,-1.122504 -1.597381,-1.982331 -1.632733,-2.079471 -1.127404,-3.09783 1.052522,-2.121074 4.126718,-5.075513 6.67391,-6.413924 3.800232,-1.996815 8.011982,-2.165491 11.385542,-0.455979 1.67667,0.849634 4.04555,3.274625 4.44694,4.552264 0.28122,0.895157 0.38626,1.002249 0.98303,1.002249 0.58729,0 0.67645,-0.08534 0.73656,-0.705025 0.10053,-1.036361 -1.06312,-3.174618 -2.33987,-4.299625 -0.58814,-0.518243 -1.74908,-1.346415 -2.57986,-1.840384 -1.99666,-1.18718 -2.38713,-1.707808 -2.38713,-3.182892 0,-3.618806 1.84525,-9.034917 4.38486,-12.870309 2.0594,-3.110149 6.13119,-6.846007 9.08983,-8.339891 1.61926,-0.817603 4.64445,-1.773518 6.87835,-2.17346 10.78372,-1.930644 22.07002,5.177506 25.61814,16.134395 0.7964,2.459345 1.02218,3.766625 1.26187,7.306239 0.2375,3.507328 0.44726,4.363667 1.0409,4.249344 0.4668,-0.0899 0.663,-0.894933 0.69856,-2.866304 0.0145,-0.803443 0.15163,-1.617913 0.30475,-1.809933 1.01601,-1.274118 6.1021,-0.06435 9.61913,2.287984 2.12886,1.423869 5.0054,4.955564 5.57778,6.848158 0.19584,0.647558 -0.29315,1.206978 -2.46859,2.824154 -2.59127,1.926301 -5.96189,5.555827 -6.10871,6.577943 -0.22365,1.556961 0.64659,1.136974 3.29094,-1.58824 3.44462,-3.549969 5.67325,-4.934573 9.79674,-6.086527 6.31521,-1.764242 13.0927,-2.035136 19.58262,-0.78271 6.47118,1.24881 12.92482,4.347404 17.76698,8.530485 2.46802,2.13209 5.23197,5.701416 6.76195,8.732279 0.93226,1.846809 2.25667,5.720425 2.32723,6.806665 l 0.0581,0.893946 -1.71884,0.632001 c -3.96658,1.458475 -7.87894,3.929704 -7.70176,4.864787 0.14845,0.783427 1.25098,0.563685 3.03499,-0.604889 3.38949,-2.22022 6.28365,-3.145624 9.8378,-3.145624 6.90858,0 12.74556,4.065079 14.94271,10.406623 0.99785,2.880039 0.95121,6.448724 -0.12152,9.298711 -1.65602,4.399632 -6.00612,8.48294 -10.4781,9.83548 -2.39168,0.72335 -7.35634,0.52637 -10.65317,-0.42268 -0.96435,-0.27761 -0.96463,-0.28191 -0.1587,-2.47876 0.55366,-1.50919 0.67134,-2.90387 0.2782,-3.297015 -0.40397,-0.403962 -0.84459,0.138687 -1.68801,2.078845 -0.99387,2.28625 -1.89522,3.53941 -4.24259,5.89855 -3.25791,3.27425 -6.78631,5.32076 -10.98082,6.36899 -1.60675,0.40153 -2.56806,0.48628 -5.40642,0.4766 -3.1325,-0.0107 -3.69863,-0.0764 -6.11328,-0.70982 -2.96092,-0.77671 -6.42678,-2.36292 -6.54359,-2.99479 -0.0402,-0.2174 0.23543,-1.20316 0.61248,-2.19057 0.77189,-2.02137 0.88165,-3.19339 0.31927,-3.40919 -0.5852,-0.22457 -1.07955,0.41827 -1.96568,2.55612 -3.03668,7.32623 -11.17642,14.22387 -20.16296,17.08615 -3.39439,1.08115 -6.07138,1.45916 -10.35658,1.46246 -8.34293,0.006 -13.89227,-1.81114 -20.28447,-6.64366 -2.28742,-1.72929 -3.21271,-2.07258 -3.21271,-1.19193 0,0.48762 1.70967,2.30527 3.4522,3.67022 l 0.89088,0.69785 -0.5568,0.61367 c -1.36012,1.49903 -6.59453,4.31993 -10.32573,5.56469 -3.16113,1.05458 -4.5017,1.23885 -9.83062,1.35126 l -4.67716,0.0987 z"
       id="path2103" />
  </g>
</svg>
