<?xml version="1.0" encoding="UTF-8" standalone="no"?>
<svg
   xmlns:dc="http://purl.org/dc/elements/1.1/"
   xmlns:cc="http://creativecommons.org/ns#"
   xmlns:rdf="http://www.w3.org/1999/02/22-rdf-syntax-ns#"
   xmlns:svg="http://www.w3.org/2000/svg"
   xmlns="http://www.w3.org/2000/svg"
   xmlns:sodipodi="http://sodipodi.sourceforge.net/DTD/sodipodi-0.dtd"
   xmlns:inkscape="http://www.inkscape.org/namespaces/inkscape"
   version="1.1"
   id="svg989"
   width="1733.3333"
   height="1733.3333"
   viewBox="0 0 1733.3333 1733.3333"
   sodipodi:docname="dirt.svg"
   inkscape:version="1.0.1 (3bc2e813f5, 2020-09-07)">
  <metadata
     id="metadata995">
    <rdf:RDF>
      <cc:Work
         rdf:about="">
        <dc:format>image/svg+xml</dc:format>
        <dc:type
           rdf:resource="http://purl.org/dc/dcmitype/StillImage" />
        <dc:title></dc:title>
      </cc:Work>
    </rdf:RDF>
  </metadata>
  <defs
     id="defs993" />
  <sodipodi:namedview
     pagecolor="#ffffff"
     bordercolor="#666666"
     borderopacity="1"
     objecttolerance="10"
     gridtolerance="10"
     guidetolerance="10"
     inkscape:pageopacity="0"
     inkscape:pageshadow="2"
     inkscape:window-width="1920"
     inkscape:window-height="1001"
     id="namedview991"
     showgrid="false"
     inkscape:zoom="0.47884618"
     inkscape:cx="1135.6837"
     inkscape:cy="1185.9079"
     inkscape:window-x="-9"
     inkscape:window-y="-9"
     inkscape:window-maximized="1"
     inkscape:current-layer="g997" />
  <g
     inkscape:groupmode="layer"
     inkscape:label="Image"
     id="g997">
    <path
       style="fill:#000000;stroke-width:1.20482"
       d="m 868.52832,1248.506 c -34.84665,-3.3667 -60.93743,-15.709 -69.82376,-33.0302 -2.3478,-4.5763 -2.61305,-4.7223 -7.98064,-4.3922 -9.62559,0.5919 -17.75662,-2.6318 -25.6572,-10.1723 l -7.03461,-6.714 -8.43374,2.0101 c -20.87624,4.9754 -34.20784,4.783 -87.34939,-1.2607 -26.35631,-2.9974 -30.22856,-3.1538 -56.0241,-2.2628 -15.24096,0.5265 -35.84337,0.9745 -45.78313,0.9957 -16.45244,0.035 -18.6433,-0.2169 -24.44298,-2.8117 -3.6857,-1.649 -8.32688,-5.0727 -11.01215,-8.1233 l -4.64146,-5.273 -7.01206,1.8264 c -3.85663,1.0046 -10.0405,1.8264 -13.74192,1.8264 h -6.72986 l -9.1583,-9.3373 c -5.03706,-5.1355 -13.32024,-14.081 -18.40707,-19.8789 -5.46834,-6.2326 -10.44363,-10.788 -12.17196,-11.1445 -1.60776,-0.3317 -4.16515,-0.856 -5.6831,-1.1652 -11.87126,-2.4177 -31.0987,-3.2573 -72.49843,-3.1657 -65.34579,0.1446 -86.0019,-1.6917 -109.64345,-9.7473 -11.11822,-3.7884 -14.92317,-5.6988 -19.61628,-9.8489 -3.49587,-3.0914 -3.62752,-11.2606 -0.38574,-23.9359 6.25241,-24.4466 21.28189,-42.3406 67.21805,-80.029 14.1321,-11.5948 26.04695,-16.08458 42.68435,-16.08458 h 9.31159 l 0.58771,-5.12048 c 0.32323,-2.81627 1.15535,-13.5241 1.84913,-23.79518 2.57178,-38.07333 11.29942,-69.38934 22.75673,-81.65444 1.95398,-2.09174 3.32697,-4.02889 3.05109,-4.30478 -0.27589,-0.27588 2.09966,-2.72871 5.279,-5.45072 11.00111,-9.41866 23.90358,-14.62492 40.86435,-16.4891 l 7.37289,-0.81036 0.75964,-7.26782 c 0.4178,-3.9973 0.75963,-10.14244 0.75963,-13.65588 0,-16.70556 6.775,-53.55334 13.49179,-73.37895 13.26803,-39.16262 32.73233,-59.39339 61.12461,-63.53161 8.50496,-1.23961 11.08455,-1.14992 19.11376,0.6645 5.10503,1.15364 10.3397,2.21645 11.63258,2.36183 2.53804,0.2854 4.42913,-2.07656 25.05521,-31.29387 24.39817,-34.56056 43.47759,-50.78655 69.58205,-59.17571 38.51147,-12.37638 84.47949,-1.76467 127.95587,29.53856 10.78343,7.76414 32.22649,27.68214 37.66363,34.98495 l 3.57131,4.79677 7.43031,-4.08422 c 15.20126,-8.35565 43.54635,-16.82776 67.45949,-20.16307 67.7508,-9.4496 140.56364,6.03287 179.23924,38.11234 8.7254,7.23732 20.0536,20.12749 20.0536,22.81877 0,2.11504 23.1429,0.9182 40.5669,-2.09794 25.0545,-4.33702 40.4695,-5.06114 50.4175,-2.36835 18.4903,5.0051 40.0709,26.94921 61.8745,62.91687 9.3483,15.42115 21.9737,41.4613 26.0299,53.687 3.5799,10.79013 6.636,29.42077 6.6462,40.51659 l 0.01,7.68341 6.3253,-0.739 c 46.3807,-5.41872 83.1772,1.75047 116.059,22.61218 43.7666,27.76759 71.6706,75.74477 78.896,135.65119 0.7592,6.295 2.2727,13.1671 3.3633,15.2714 2.3255,4.4872 10.3932,14.0395 23.2233,27.4969 12.2539,12.8528 15.6905,16.9487 20.2208,24.0995 8.7943,13.8816 8.8512,25.69 0.1617,33.5405 -4.4281,4.0005 -11.0156,6.8127 -31.7526,13.5552 -5.8362,1.8976 -10.9868,3.734 -11.4458,4.0809 -0.4588,0.3469 -3.2739,5.5079 -6.2559,11.4689 -7.0648,14.1229 -17.5321,25.4607 -27.732,30.0382 -12.088,5.4247 -24.6783,6.3629 -52.6899,3.9263 -29.2601,-2.5453 -39.0129,-2.5727 -49.7093,-0.1398 -10.8685,2.472 -15.2978,5.6247 -20.2227,14.3945 -6.3406,11.2907 -5.7604,10.9723 -21.6622,11.8863 -7.7707,0.4466 -26.3272,2.2589 -41.2369,4.0275 -22.8291,2.7078 -32.2436,3.2254 -59.6385,3.2787 -32.4335,0.063 -32.5562,0.054 -41.289,-3.1849 -4.8173,-1.7865 -10.3764,-4.4001 -12.3535,-5.8079 l -3.5948,-2.5597 -6.9235,2.6897 c -6.3016,2.4481 -9.8998,2.771 -40.0561,3.5943 -18.2229,0.4976 -35.2486,1.4557 -37.8349,2.1293 -2.5863,0.6736 -9.9056,4.7398 -16.2651,9.0361 -8.4644,5.7185 -13.0312,8.0112 -17.0433,8.5566 -3.0144,0.4098 -14.671,-0.1463 -25.9036,-1.2356 -20.87529,-2.0245 -36.35735,-1.8832 -72.83255,0.665 -19.09025,1.3337 -45.88107,1.3102 -59.98571,-0.053 z m 156.34458,-19.9963 c 8.012,-2.2204 12.6827,-5.3866 15.2392,-10.3305 4.2617,-8.2412 -1.1903,-21.2222 -11.6177,-27.6611 -7.7445,-4.7823 -15.2235,-5.8921 -25.4472,-3.7761 -9.80502,2.0294 -6.71291,3.7004 -29.34482,-15.8585 -25.80829,-22.304 -42.33324,-32.6372 -62.65823,-39.1807 -12.41678,-3.9976 -34.60029,-4.6266 -50.13246,-1.4215 -36.76969,7.5873 -68.80458,31.9736 -74.9787,57.0768 l -0.79235,3.2216 7.00641,-0.2096 c 9.20177,-0.2752 14.18343,2.9843 23.80489,15.5753 15.19778,19.8885 18.42836,20.721 86.65847,22.3299 27.83133,0.6563 59.2771,1.6261 69.87951,2.1553 23.96659,1.1961 43.75438,0.4705 52.38298,-1.9209 z m 221.111,-14.8658 c 14.6466,-1.3411 40.9205,-5.2943 51.2048,-7.7044 l 6.6265,-1.5529 -0.319,-8.9202 c -0.8259,-23.099 -12.071,-45.1455 -27.1322,-53.1941 -4.343,-2.3208 -6.9121,-2.7141 -17.7295,-2.7141 -11.7887,0 -13.2174,0.2684 -20.9688,3.9392 -24.3267,11.5204 -49.0617,38.9496 -58.0198,64.3397 -1.546,4.3817 -1.498,4.6227 1.0331,5.1898 8.2745,1.8537 47.727,2.2265 65.3049,0.617 z m -157.5539,-3.0538 c 48.3754,-3.3769 63.606,-6.5661 75.8682,-15.8867 4.7868,-3.6385 5.8856,-9.4635 4.0387,-21.4103 -1.6049,-10.3815 -8.9805,-25.9849 -15.2434,-32.2477 -5.2122,-5.2123 -6.8645,-5.4059 -22.9157,-2.6863 -19.7769,3.3509 -37.8297,14.6462 -51.2036,32.0372 -8.1945,10.6558 -22.0458,45.9441 -16.749,42.6705 0.6496,-0.4015 12.4418,-1.516 26.2048,-2.4767 z m -32.1241,-24.807 c 10.2423,-20.2899 27.286,-40.5205 42.7143,-50.7014 10.7042,-7.0636 18.0932,-9.9691 29.9054,-11.7597 8.5238,-1.292 10.1158,-1.1922 17.4361,1.0935 4.4307,1.3835 9.4433,3.73 11.139,5.2146 7.9514,6.9612 15.5417,20.1761 21.1761,36.8678 1.8208,5.394 3.6542,9.8073 4.0743,9.8073 0.4201,0 3.6792,-3.6597 7.2424,-8.1326 14.4978,-18.1989 29.7222,-31.1209 45.4856,-38.6069 8.7735,-4.1665 9.8177,-4.3756 21.9069,-4.3867 11.3976,-0.011 13.4575,0.3375 20.1664,3.4066 14.9473,6.8379 28.7786,26.2706 34.8223,48.9244 1.149,4.3072 2.4502,8.257 2.8914,8.7772 0.4414,0.5203 2.8811,-2.1906 5.422,-6.0241 20.1715,-30.4349 41.9651,-55.1969 57.2991,-65.1037 15.3127,-9.893 33.7527,-14.048 49.8806,-11.2394 4.4864,0.7813 8.3317,1.2458 8.5453,1.0323 0.2135,-0.2136 1.1912,-4.2396 2.1727,-8.9467 2.4754,-11.8724 6.8909,-19.9028 16.0596,-29.2072 l 7.8469,-7.9631 -0.7172,-11.5497 c -2.5315,-40.7654 -17.3813,-76.40359 -42.8035,-102.72465 -16.7318,-17.32328 -33.5002,-28.54584 -55.4296,-37.09738 -2.8938,-1.12847 -2.8506,-1.21673 4.2165,-8.61914 l 7.1404,-7.479 -7.8311,7.3442 -7.8309,7.34419 -11.4458,-2.81677 c -15.0354,-3.70016 -27.8068,-5.24511 -43.3586,-5.24511 h -12.699 l -16.0195,-16.0526 -16.0196,-16.0526 -2.7824,-10.75463 c -6.4193,-24.81183 -24.6988,-61.67797 -44.4565,-89.66016 -2.1016,-2.97635 -9.0582,-10.67287 -15.4592,-17.10337 -13.7967,-13.86034 -17.4657,-15.4172 -36.6005,-15.53048 -13.0575,-0.0774 -16.2844,0.43141 -39.7131,6.26076 -12.8722,3.20274 -18.1312,3.9128 -29.5181,3.98544 l -13.8554,0.0884 -0.8759,-4.21687 c -0.4817,-2.31928 -1.1941,-6.30375 -1.583,-8.85438 -0.7953,-5.21526 -5.864,-10.65056 -18.0231,-19.32674 -31.7044,-22.62282 -78.2803,-35.95404 -125.90353,-36.03685 -28.04245,-0.0488 -45.33613,2.58449 -69.40846,10.5686 -11.04661,3.66384 -31.48819,14.22161 -37.70674,19.47498 -0.2688,0.22706 -0.81097,2.37495 -1.20482,4.77307 -0.71432,4.34924 -0.74191,4.36671 -10.95709,6.94101 -12.20086,3.0747 -19.86367,7.33269 -29.21896,16.23605 -15.01788,14.29242 -18.86884,35.20338 -10.5256,57.15463 1.31667,3.4642 2.39423,6.37452 2.39456,6.46739 3.3e-4,0.0929 -3.72839,0.2256 -8.28607,0.29497 -15.92021,0.24234 -34.52519,8.9378 -42.57891,19.90022 -6.47793,8.81752 -10.58019,19.08843 -10.58019,26.48981 0,5.84461 -0.39137,6.96149 -3.04965,8.70327 -1.67731,1.09902 -3.317,1.73085 -3.64378,1.40408 -0.32677,-0.32678 -0.91785,-4.0608 -1.31351,-8.29784 -0.85486,-9.1545 1.59285,-20.10587 6.5152,-29.14986 7.04499,-12.94397 24.68446,-27.04186 39.83237,-31.83501 l 6.41293,-2.02921 -0.99124,-4.27042 c -0.54518,-2.34873 -0.99124,-9.96319 -0.99124,-16.92102 0,-11.09495 0.38315,-13.46547 3.11585,-19.27711 5.89367,-12.53408 19.0208,-24.21396 39.35403,-35.01528 4.14156,-2.20006 7.53012,-4.47637 7.53012,-5.05847 0,-1.94012 -7.66061,-12.24199 -14.99659,-20.16721 -30.5138,-32.96466 -68.09301,-50.63958 -107.54298,-50.58149 -48.33933,0.0712 -79.32069,24.11778 -107.60352,83.51791 l -8.88724,18.66515 -6.75264,-3.40872 c -10.76988,-5.43662 -19.79035,-7.60226 -28.93889,-6.9477 -18.14371,1.29818 -33.0612,12.67416 -45.44816,34.65846 -13.87134,24.61881 -21.62367,65.15176 -18.34501,95.91674 0.83961,7.87832 1.58089,15.95073 1.6473,17.93868 l 0.12075,3.61445 -19.27711,2.68661 c -24.47183,3.41058 -37.77849,7.37592 -42.13813,12.55706 l -3.18308,3.78288 -5.05023,-4.69293 -5.05024,-4.69293 5.14807,5.49434 5.14807,5.49434 -3.59565,7.93001 c -10.52508,23.21259 -18.11417,60.43131 -18.13639,88.94531 l -0.01,12.68542 -7.59776,7.5302 -7.59776,7.5302 -7.76369,-1.9919 c -17.24601,-4.425 -34.65731,3.336 -58.25161,25.9653 -17.40066,16.6889 -35.82653,43.5203 -38.5649,56.1576 -0.76027,3.5084 -0.47931,3.8566 5.57188,6.9054 6.7885,3.4202 20.28295,7.1031 34.08336,9.3021 10.76196,1.7148 45.89394,1.7368 72.28915,0.045 37.29186,-2.39 40.36145,-2.6846 40.36145,-3.8734 0,-2.3914 -6.28689,-25.9924 -9.25644,-34.7488 -1.68544,-4.9698 -6.08337,-15.271 -9.77319,-22.8915 -5.94714,-12.2825 -7.89431,-15.0427 -17.152,-24.3137 l -10.44325,-10.4583 6.9185,-6.8464 6.91851,-6.8463 0.87734,5.2565 c 0.70309,4.2125 2.22415,6.5995 7.65899,12.0193 12.22831,12.1945 19.78577,27.9305 30.89142,64.3214 6.57881,21.5575 10.14742,30.5358 12.42125,31.2508 14.22887,4.4743 22.8404,3.0306 46.5828,-7.8095 24.0701,-10.9897 32.59186,-12.6939 47.4938,-9.498 5.14678,1.1037 7.09113,2.4297 13.30791,9.0755 4.00428,4.2806 8.39648,9.9704 9.76047,12.644 2.29272,4.4941 2.76115,4.7994 6.20416,4.0432 9.9087,-2.1763 26.77862,0.605 32.88791,5.4222 0.66432,0.5238 5.08666,3.1328 9.82745,5.7977 l 8.61962,4.8453 2.66382,-7.4037 c 11.39241,-31.6633 47.99057,-64.0109 78.73645,-69.5919 25.4912,-4.6272 51.34528,9.6441 65.9217,36.3884 8.6372,15.8472 13.42539,29.6548 21.64824,62.4264 l 1.33015,5.3012 3.40442,-5.9036 c 5.04184,-8.7431 11.06513,-15.2098 21.45324,-23.0324 24.13233,-18.1727 58.26182,-29.4182 83.60048,-27.5461 31.21409,2.3061 57.91636,16.0801 97.97814,50.5407 6.62651,5.7 12.46559,10.3717 12.97575,10.3814 0.51016,0.01 4.26324,-1.3376 8.34024,-2.9942 4.077,-1.6567 9.1104,-3.0121 11.1853,-3.0121 6.4615,0 15.3557,5.4776 24.2172,14.9145 4.5879,4.8857 8.7405,8.9504 9.2279,9.0325 0.4875,0.082 2.5649,-3.1759 4.6165,-7.2401 z m 250.4221,-121.0432 c -3.0853,-3.7176 4.3426,-13.3501 12.0124,-15.5778 2.8169,-0.8182 2.8645,-0.7063 2.2815,5.3617 -0.4074,4.2398 -1.4777,7.1364 -3.3883,9.1701 -3.2101,3.417 -8.5154,3.9259 -10.9056,1.046 z m -39.9177,-23.4467 c -5.8627,-3.4176 8.1066,-19.2049 16.9933,-19.2049 2.0924,0 2.2438,0.4521 1.2787,3.8172 -0.6021,2.0994 -2.3642,5.759 -3.9159,8.1325 -1.5516,2.3734 -3.1728,5.2642 -3.6026,6.4238 -0.8776,2.368 -7.2697,2.8622 -10.7535,0.8314 z M 939.77151,993.76271 c -2.75417,-1.65089 -6.70876,-5.56992 -8.78796,-8.70895 -3.18663,-4.81092 -3.72475,-6.65579 -3.42616,-11.74603 0.35405,-6.03559 0.35654,-6.03888 4.8723,-6.41262 3.69354,-0.30569 4.51889,0.0241 4.52258,1.80722 0.002,1.19966 1.08681,3.95633 2.40964,6.12596 3.81984,6.26512 2.88361,6.0656 -4.52258,-0.96383 -3.81024,-3.61641 -0.96386,-0.46493 6.3253,7.00328 10.67063,10.93276 12.90087,13.80305 11.44578,14.73053 -3.06127,1.95129 -7.60507,1.30167 -12.8389,-1.83556 z m 10.36959,-4.8685 -4.14683,-4.27843 5.4165,0.83164 c 6.62393,1.01703 6.48183,0.89753 5.53823,4.65708 -1.013,4.03616 -1.87062,3.8837 -6.8079,-1.21029 z m 46.19364,-10.93567 c -2.1263,-1.04843 -7.00582,-5.24892 -10.84337,-9.33442 -3.83755,-4.08551 -8.79193,-8.82745 -11.00975,-10.53766 l -4.0324,-3.10947 3.29127,-2.58891 c 1.81019,-1.4239 4.05832,-2.58891 4.99584,-2.58891 3.98969,0 9.16273,4.24244 17.96407,14.73239 5.1551,6.14417 9.8869,11.51957 10.5151,11.94533 1.2534,0.84953 -2.8953,3.45918 -5.4295,3.41532 -0.8719,-0.0151 -3.32495,-0.88524 -5.45126,-1.93367 z M 773.38896,959.2962 c -9.63749,-6.17192 -31.79747,-11.5287 -66.69088,-16.12129 -30.18261,-3.97256 -28.78645,-3.6141 -28.78645,-7.39078 v -3.12575 l 20.78313,0.57625 c 26.94949,0.7472 40.28434,3.49631 56.92771,11.73619 11.0337,5.46261 16.50623,9.339 20.93065,14.82591 2.13128,2.64306 1.61772,2.56183 -3.16416,-0.50053 z m 310.18784,-57.6898 c -0.3564,-0.99398 -2.5835,-8.10653 -4.9491,-15.80568 -6.7828,-22.07515 -13.0839,-29.43844 -26.3645,-30.80913 -7.7244,-0.79723 -13.5862,1.45206 -27.4335,10.52678 -12.4456,8.15615 -13.8165,7.86597 -10.2739,-2.17474 3.0269,-8.5793 6.9741,-13.41819 13.6311,-16.71054 5.4904,-2.71538 7.5054,-3.06029 15.6889,-2.68556 7.5987,0.34795 10.8778,1.16712 17.1945,4.29542 17.5979,8.71528 27.7132,22.46622 27.6531,37.59203 -0.032,8.12514 -3.7755,19.59578 -5.1466,15.77142 z m 175.6838,-0.44191 c -0.3444,-1.08225 -0.8732,-2.76279 -1.1752,-3.73451 -0.302,-0.97174 0.2694,-6.45627 1.2699,-12.18783 1.0004,-5.73157 1.468,-12.12025 1.0392,-14.19706 -0.6844,-3.31429 1.1515,-1.86074 15.0133,11.88661 l 15.793,15.66265 -9.9579,1.405 c -5.4768,0.77275 -12.5224,1.79376 -15.6569,2.26893 -4.7059,0.71338 -5.8083,0.52101 -6.3254,-1.10379 z m 92.3135,277.45301 c 7.9849,-1.1676 15.3647,-1.1473 36.001,0.099 33.7486,2.0379 45.3509,1.3978 55.2592,-3.0489 4.7052,-2.1115 9.1,-5.216 11.7439,-8.296 3.8578,-4.4939 4.1623,-5.393 3.5026,-10.3434 -2.1824,-16.3761 -9.5797,-29.8867 -19.5833,-35.7669 -5.3461,-3.1425 -6.6893,-3.3875 -18.4173,-3.3598 -11.8092,0.028 -13.3612,0.3252 -23.3356,4.4707 -5.8768,2.4424 -14.5515,7.009 -19.2771,10.148 -12.3085,8.1759 -28.0902,24.6031 -33.4609,34.8297 -5.6118,10.6858 -6.8001,14.3955 -4.3042,13.4378 1.0053,-0.3858 6.3476,-1.3623 11.8717,-2.1701 z m -629.68657,0.086 c 15.64283,-1.0101 33.69059,-3.4721 40.66265,-5.5472 2.59987,-0.7737 2.64441,-3.4415 0.31543,-18.8927 -7.66849,-50.8753 -38.69382,-83.4965 -71.43438,-75.1088 -21.65894,5.5488 -51.41536,27.2173 -60.25348,43.8764 -7.8514,14.7992 -10.12557,32.7696 -5.78899,45.7444 1.7685,5.2912 2.58783,6.3253 5.01186,6.3253 1.59377,0 14.4267,0.8087 28.51764,1.7972 14.09092,0.9885 29.14397,1.9684 33.4512,2.1775 4.30723,0.2091 8.64458,0.4735 9.63855,0.5876 0.99398,0.1141 9.93976,-0.3178 19.87952,-0.9597 z m -124.09638,-6.0017 c 3.9759,-0.6492 8.70128,-1.7885 10.50082,-2.5317 l 3.27191,-1.3514 -2.26888,-4.3891 c -3.3796,-6.5377 -11.785,-14.0765 -19.93759,-17.8821 -6.15991,-2.8754 -8.74332,-3.3705 -17.46987,-3.3479 -11.9645,0.031 -17.89482,2.4713 -24.00432,9.8783 -3.292,3.9912 -8.5258,15.2842 -8.5258,18.3962 0,2.1361 46.84257,3.1202 58.43373,1.2277 z m -72.18038,-19.3091 c 3.91607,-1.9998 9.72253,-6.0431 12.90321,-8.9851 5.7758,-5.3425 5.78142,-5.3554 4.46738,-10.2354 -2.91715,-10.8334 -13.33357,-18.1388 -27.15044,-19.0416 -14.79204,-0.9664 -29.2932,3.6416 -38.96904,12.3831 -4.35483,3.9344 -4.76945,4.7567 -3.55197,7.0448 4.33524,8.1477 15.56589,18.2818 23.27642,21.0038 1.98796,0.7018 7.72967,1.3188 12.75938,1.3711 7.9052,0.082 10.11013,-0.3977 16.26506,-3.5407 z M 1480.9236,1135.25 c 12.0053,-3.3431 27.5822,-9.7987 28.9384,-11.9932 0.2946,-0.4767 -2.0549,-4.3231 -5.221,-8.5475 -3.1663,-4.2244 -9.3422,-12.8313 -13.7245,-19.1265 -4.3822,-6.2952 -10.4046,-13.8121 -13.3831,-16.7041 l -5.4157,-5.2584 -6.1787,3.3629 c -5.376,2.926 -6.7223,4.4698 -10.3642,11.8848 -2.6928,5.4825 -4.4488,11.1115 -4.9234,15.7821 l -0.7376,7.26 6.7966,9.005 c 3.7379,4.9528 7.4124,11.0382 8.1654,13.5231 0.7529,2.4849 1.6897,4.5145 2.0819,4.5102 0.3921,0 6.6767,-1.6686 13.9659,-3.6984 z"
       id="path1562" />
    <path
       style="fill:#c87137;stroke-width:2.08835"
       d="m 1040.6637,1180.3951 c -12.8907,-11.4044 -19.9138,-13.5412 -32.3695,-9.8486 -5.1687,1.5324 -9.54733,2.7962 -9.73036,2.8087 -0.18294,0.013 -7.23121,-5.7678 -15.66265,-12.8449 -18.49677,-15.5257 -44.91822,-32.8486 -59.24192,-38.8414 -14.5887,-6.1036 -36.88985,-9.6248 -51.37124,-8.1112 -18.4992,1.9335 -44.59848,11.4314 -61.20838,22.2744 -14.03733,9.1637 -30.26231,25.1483 -30.5428,30.0902 -0.0697,1.229 -2.94292,-7.6329 -6.38482,-19.6931 -11.7061,-41.0175 -26.34189,-63.9932 -48.10879,-75.5228 -7.26722,-3.8493 -12.41017,-4.8137 -25.82508,-4.8427 -14.69931,-0.032 -18.42957,0.7904 -30.45914,6.7125 -23.79922,11.7163 -50.69995,40.0869 -58.34685,61.5348 l -2.75287,7.7212 -13.63785,-7.6267 c -11.15758,-6.2397 -16.04913,-7.7139 -26.89618,-8.1057 -12.80647,-0.4626 -13.45983,-0.7571 -19.17131,-8.6416 -11.10647,-15.332 -15.7894,-17.6702 -33.51115,-16.7326 -12.72592,0.6734 -19.56992,2.5184 -36.5015,9.8404 -21.8346,9.4422 -37.39879,11.8218 -43.60943,6.6675 -1.74934,-1.4518 -7.12208,-14.5519 -11.93944,-29.1112 -11.62841,-35.1441 -18.13809,-49.0272 -30.03817,-64.0618 l -9.91773,-12.5301 1.10036,-25.06025 c 1.15597,-26.32683 4.72261,-46.65547 11.94951,-68.10818 10.3964,-30.86125 13.11638,-33.02505 49.13919,-39.09097 l 22.82926,-3.84426 0.16944,-33.2333 c 0.13886,-27.2373 0.98883,-36.2476 4.71099,-49.94015 8.72547,-32.09804 23.52807,-55.2061 40.68409,-63.51119 11.63874,-5.63421 28.56901,-5.69135 40.80811,-0.13772 5.00696,2.27196 9.90208,4.13084 10.87804,4.13084 0.97597,0 7.00862,-10.23266 13.4059,-22.73926 21.89136,-42.79731 43.55128,-64.80468 72.40815,-73.56968 11.9843,-3.64012 18.26242,-4.23299 36.81616,-3.4767 38.52131,1.57021 66.01354,14.51748 97.02673,45.694 10.05021,10.10313 18.2731,19.40237 18.2731,20.66497 0,1.26259 -2.93345,3.8965 -6.51878,5.85312 -15.09134,8.23578 -31.07549,21.61557 -36.13319,30.2459 -4.64262,7.92204 -5.38016,11.62104 -5.38016,26.98348 v 17.80293 l -13.27149,6.53353 c -17.43397,8.58271 -31.29691,23.36701 -35.64735,38.01648 -3.67964,12.39071 -4.17406,22.39665 -1.32882,26.89309 2.7839,4.39953 8.46752,-0.90165 8.52645,-7.95274 0.0583,-6.96647 7.18229,-22.79604 13.13598,-29.18797 7.03917,-7.55734 23.78511,-15.17128 36.18122,-16.45067 6.15955,-0.63572 11.19919,-1.59356 11.19919,-2.12852 0,-0.53496 -1.4698,-6.64478 -3.26621,-13.57737 -7.51512,-29.00184 6.15795,-52.02902 37.59289,-63.31107 9.08653,-3.26118 13.43653,-6.10772 15.40712,-10.08209 3.3662,-6.78903 28.97678,-20.13146 50.8935,-26.51417 21.61145,-6.29379 68.4503,-7.81129 95.59626,-3.09715 52.93492,9.19263 100.37252,34.69564 103.74302,55.77352 l 1.2901,8.06814 h 16.275 c 9.2571,0 24.2038,-1.88307 34.6621,-4.36691 13.4045,-3.18356 23.3366,-4.17389 36.6525,-3.65462 l 18.2655,0.71229 13.881,13.5743 c 16.1309,15.77435 27.5459,32.44194 42.1921,61.60642 16.8453,33.54355 20.0922,44.6837 20.187,69.26358 0.045,11.67732 0.7138,21.86341 1.4861,22.63578 0.7723,0.77238 8.0005,0.38088 16.0627,-0.87 34.3979,-5.33702 75.4098,-0.48175 99.4809,11.77724 48.4857,24.69292 77.5343,67.10379 84.8078,123.81923 l 2.366,18.4491 -8.3729,10.073 c -9.8378,11.8354 -14.2358,20.0219 -16.1083,29.9845 l -1.3603,7.237 -19.1802,0.032 c -16.9191,0.028 -20.5797,0.7374 -31.051,6.0146 -17.3779,8.758 -45.6072,38.5344 -66.8191,70.4812 -3.1156,4.6924 -3.2272,4.5849 -6.8989,-6.6422 -5.2989,-16.2029 -8.6187,-22.1095 -18.3756,-32.6945 -12.0078,-13.027 -18.6583,-16.0189 -35.9553,-16.1754 -11.4493,-0.1036 -16.6558,0.9295 -24.0161,4.7653 -14.4476,7.5294 -30.2533,20.4455 -40.1265,32.7906 -4.9224,6.1548 -9.5286,11.235 -10.2362,11.2893 -0.7075,0.054 -3.258,-5.3048 -5.6676,-11.9092 -6.1618,-16.8881 -15.634,-30.9813 -23.7301,-35.3067 -11.3963,-6.0885 -29.9816,-4.8703 -45.9988,3.0149 -15.8955,7.8254 -37.4054,29.0848 -47.4627,46.9102 -3.7263,6.6044 -7.3902,12.3763 -8.142,12.8264 -0.7518,0.4502 -6.0658,-3.3386 -11.8087,-8.4194 z m 278.7217,-117.5628 c 3.3191,-6.2019 2.7014,-14.7557 -1.0657,-14.7557 -6.9483,0 -16.1875,13.3025 -12.0871,17.4029 2.8852,2.8852 11.074,1.2371 13.1528,-2.6472 z m -37.5594,-27.2027 c 7.4723,-14.6469 4.8406,-18.2482 -7.7328,-10.5819 -6.6443,4.0512 -10.6142,12.3518 -7.9607,16.6451 0.7502,1.2139 3.6388,2.2071 6.4192,2.2071 3.7867,0 6.1138,-2.0752 9.2743,-8.2703 z M 954.51909,995.049 c 6.0126,-4.5642 4.38868,-9.03451 -4.00293,-11.01909 -6.22302,-1.47171 -8.11376,-3.17324 -10.09287,-9.08294 -1.85773,-5.54729 -3.75632,-7.42873 -8.00509,-7.9328 -5.12549,-0.60809 -5.56979,-0.0608 -5.56979,6.86062 0,8.83285 4.6871,16.81345 12.30723,20.95522 6.81044,3.70167 10.70252,3.75716 15.36345,0.21899 z m 53.12991,-17.05373 c 1.0231,-3.11329 -21.31627,-27.31994 -26.45182,-28.66292 -2.38356,-0.62331 -6.00326,0.40732 -8.25833,2.35139 -3.88181,3.34648 -3.53053,3.89751 10.60656,16.63797 14.01673,12.63199 22.06949,15.86382 24.10359,9.67356 z M 778.57533,960.47201 c 0,-2.6287 -11.40352,-11.06907 -22.45283,-16.61856 -13.21971,-6.63958 -30.14962,-10.15106 -56.38251,-11.69446 -22.62424,-1.33108 -23.49398,-1.22632 -23.49398,2.82976 0,4.98275 1.58285,5.51066 26.10442,8.70645 27.3902,3.56964 57.39242,10.27977 65.78313,14.71272 8.39597,4.4357 10.44177,4.84011 10.44177,2.06409 z m 310.60017,-69.63688 c 1.3963,-12.38759 -2.1442,-22.29304 -11.36,-31.78216 -10.1667,-10.46838 -21.9754,-15.53295 -36.3481,-15.58917 -13.0637,-0.0512 -20.4674,4.13672 -25.9057,14.65331 -3.2577,6.2996 -4.1449,14.53778 -1.5657,14.53778 0.8388,0 6.9505,-3.34878 13.5816,-7.44172 26.9502,-16.63459 39.4608,-10.67199 50.6682,24.14855 2.0333,6.31727 4.1477,12.27264 4.6987,13.23416 1.9827,3.45986 5.1999,-2.61244 6.231,-11.76075 z"
       id="path1564" />
    <path
       style="fill:#c87137;stroke-width:2.08835"
       d="m 903.54659,1227.6296 c -26.02484,-0.9169 -52.80797,-2.8009 -59.51807,-4.1867 -11.21401,-2.3159 -13.39327,-3.766 -26.96007,-17.939 -13.11698,-13.703 -15.61584,-15.4193 -22.4498,-15.4193 -9.39487,0 -9.67491,-2.3173 -1.78375,-14.7604 17.18988,-27.1056 54.96775,-45.8619 92.16312,-45.7578 28.11083,0.079 51.77595,11.6291 89.52046,43.6932 l 17.38895,14.772 14.14767,-0.38 c 11.2774,-0.303 15.621,0.5304 21.4092,4.1077 14.9847,9.2611 16.5095,26.0537 3.0266,33.3326 -7.898,4.2638 -52.59229,5.1573 -126.94431,2.5377 z"
       id="path1566" />
    <path
       style="fill:#c87137;stroke-width:2.08835"
       d="m 665.80425,1176.1548 c -20.1004,-1.3442 -36.70825,-2.5189 -36.90632,-2.6105 -2.41361,-1.1163 -5.10917,-17.5997 -4.17205,-25.5122 2.87397,-24.2662 20.51807,-45.5544 49.9772,-60.2991 19.01433,-9.517 30.66074,-10.6786 44.35418,-4.4238 9.63045,4.3989 23.9471,19.179 29.92175,30.8903 5.95012,11.6632 12.67442,35.6159 13.35031,47.5553 l 0.58336,10.3047 -8.28563,1.7651 c -17.64082,3.7579 -53.43086,4.6969 -88.8228,2.3302 z"
       id="path1568" />
    <path
       style="fill:#c87137;stroke-width:2.08835"
       d="m 550.42273,1171.8427 c -5.45583,-0.4302 -9.91968,-1.238 -9.91968,-1.7951 0,-4.402 9.80464,-18.5229 15.2248,-21.9272 9.76769,-6.1348 27.48671,-4.6992 38.80444,3.144 8.02119,5.5587 16.18364,15.2472 14.37191,17.0589 -0.46653,0.4666 -5.83856,1.7947 -11.93784,2.9514 -10.69424,2.0281 -25.70389,2.2113 -46.54363,0.568 z"
       id="path1570" />
    <path
       style="fill:#c87137;stroke-width:2.08835"
       d=""
       id="path1572" />
    <path
       style="fill:#c87137;stroke-width:2.08835"
       d="m 308.69583,1115.8133 c -32.6109,-5.7117 -43.85542,-9.9838 -43.85542,-16.662 0,-7.4382 23.27667,-40.574 38.51542,-54.8291 23.41823,-21.9066 38.73661,-28.8741 55.55233,-25.2678 18.51424,3.9706 36.89791,29.9252 48.77388,68.8605 2.9873,9.7938 5.43146,19.2651 5.43146,21.0473 0,2.515 -3.41574,3.5292 -15.25642,4.5301 -21.50823,1.8181 -82.90701,3.4164 -89.16125,2.321 z"
       id="path1574" />
    <path
       style="fill:#c87137;stroke-width:2.08835"
       d="m 1063.6639,1206.2693 c 3.9865,-13.8351 16.3256,-35.7811 24.9885,-44.444 11.6049,-11.6049 31.2979,-21.2373 47.1987,-23.0862 11.5869,-1.3473 11.6911,-1.3093 18.2567,6.656 3.6319,4.406 8.002,12.2697 9.7114,17.4747 10.8041,32.8982 0.7598,39.9151 -65.7258,45.9163 -35.2565,3.1823 -36.0549,3.124 -34.4295,-2.5168 z"
       id="path1576" />
    <path
       style="fill:#c87137;stroke-width:2.08835"
       d="m 498.78196,1154.5352 c -4.54362,-1.0686 -10.68674,-5.3316 -16.40625,-11.3851 -8.78662,-9.2996 -9.0015,-9.8332 -5.51297,-13.6879 11.0995,-12.2648 40.551,-16.7552 54.2726,-8.2748 3.73336,2.3073 7.96221,7.0301 9.39743,10.4951 3.27138,7.8978 0.0337,12.0601 -15.33986,19.7211 -11.0825,5.5226 -14.51415,5.9295 -26.41095,3.1316 z"
       id="path1578" />
    <path
       style="fill:#c87137;stroke-width:2.08835"
       d="m 1181.012,1211.6617 c -3.5733,-5.7816 19.9697,-39.9137 36.7165,-53.2307 24.5408,-19.5148 46.9431,-23.6195 62.8194,-11.5101 9.7853,7.4637 19.7506,28.1042 21.4203,44.3668 l 1.3029,12.689 -21.6652,3.8145 c -23.5481,4.146 -98.638,7.0352 -100.5939,3.8705 z"
       id="path1580" />
    <path
       style="fill:#c87137;stroke-width:2.08835"
       d="m 1340.3449,1177.9934 c -0.018,-4.2632 11.4091,-20.2814 21.7078,-30.4291 18.0605,-17.7957 36.895,-27.1541 56.6582,-28.1521 14.3197,-0.7231 15.309,-0.466 22.4991,5.847 7.2152,6.335 16.0802,24.6314 16.0802,33.1877 0,4.6704 -9.5251,13.8821 -17.751,17.167 -4.1363,1.6518 -22.0529,2.584 -52.7284,2.7433 -25.5548,0.1328 -46.4645,-0.031 -46.4659,-0.3638 z"
       id="path1582" />
    <path
       style="fill:#502d16;stroke-width:2.08835"
       d="m 1464.2859,1130.9772 c -1.8909,-3.6716 -5.6482,-9.5837 -8.3494,-13.1379 -5.8122,-7.6475 -5.9501,-9.5847 -1.5923,-22.3741 2.9944,-8.7882 12.9643,-20.24 17.6207,-20.24 2.0065,0 35.3615,43.8756 35.4134,46.5833 0.041,2.1132 -14.2865,8.4243 -28.6865,12.6363 l -10.9678,3.2082 z"
       id="path1584" />
    <path
       style="fill:#502d16;stroke-width:2.08835"
       d="m 1342.4307,1176.0061 c 0,-3.439 12.721,-19.7537 23.3447,-29.9396 5.5937,-5.3632 16.021,-12.8698 23.1719,-16.6815 10.8566,-5.787 15.7796,-7.0762 29.8416,-7.8147 l 16.8401,-0.8843 5.9326,7.0286 c 7.3323,8.687 13.5334,21.9675 13.5943,29.1144 0.047,5.544 -5.4298,11.8352 -14.5726,16.7384 -6.3617,3.4119 -98.1526,5.6924 -98.1526,2.4387 z"
       id="path1586" />
    <path
       style="fill:#502d16;stroke-width:2.08835"
       d="m 1182.4286,1207.629 c 7.748,-20.6441 33.5306,-49.1548 53.3076,-58.9481 26.4252,-13.0854 43.7038,-8.0302 56.1197,16.4192 6.0858,11.9841 11.9659,34.918 9.5877,37.3942 -3.0124,3.1366 -37.2743,6.6586 -75.7831,7.7904 -43.3578,1.2743 -44.6765,1.1933 -43.2319,-2.6557 z"
       id="path1588" />
    <path
       style="fill:#502d16;stroke-width:2.08835"
       d="m 1065.7164,1204.5136 c 3.3875,-11.1447 17.1891,-34.7309 24.7519,-42.2996 11.5186,-11.5276 32.8848,-21.0885 47.2733,-21.1538 11.3613,-0.051 11.5103,0.03 18.1273,9.8855 3.6695,5.4656 7.8162,15.0509 9.2148,21.3008 2.2122,9.8848 2.0927,12.0507 -0.918,16.6456 -1.9036,2.9053 -6.187,6.6919 -9.5188,8.4149 -8.5856,4.4398 -38.9083,9.4098 -66.7195,10.9356 l -23.7403,1.3025 z"
       id="path1590" />
    <path
       style="fill:#502d16;stroke-width:2.08835"
       d="m 877.38462,1225.4776 c -38.30981,-2.429 -41.88632,-3.6738 -60.00474,-20.8845 -8.40052,-7.9797 -17.04403,-14.5229 -19.20779,-14.5405 -2.16376,-0.018 -5.30032,-0.8962 -6.97013,-1.9525 -4.40596,-2.7872 0.21223,-10.8137 14.64597,-25.4552 19.88666,-20.1728 47.26305,-31.0342 78.2225,-31.0342 29.06885,0 51.66127,10.7356 89.53656,42.5464 16.34366,13.7268 16.58107,13.8395 29.23691,13.885 23.3165,0.084 39.4075,12.6646 34.4365,26.9244 -3.9318,11.2787 -6.0954,11.6391 -71.79745,11.9607 -33.30924,0.163 -72.95349,-0.4893 -88.09833,-1.4496 z"
       id="path1592" />
    <path
       style="fill:#502d16;stroke-width:2.08835"
       d="m 643.26398,1174.0119 c -11.7581,-0.7498 -13.35315,-1.3917 -15.14056,-6.093 -1.09884,-2.8901 -1.98871,-10.1274 -1.97748,-16.0827 0.0438,-23.2686 18.67044,-47.0561 48.56229,-62.0174 27.028,-13.528 43.69478,-10.8839 62.13465,9.8572 10.52089,11.8339 15.34999,21.9201 20.91751,43.6889 5.46513,21.3684 5.35003,27.0213 -0.59069,29.0117 -5.14224,1.7229 -92.79778,2.9813 -113.90572,1.6353 z"
       id="path1594" />
    <path
       style="fill:#502d16;stroke-width:2.08835"
       d="m 544.80948,1169.437 c -2.50315,-1.6769 -2.00712,-3.4484 2.98096,-10.6462 7.5869,-10.9479 10.73893,-12.5616 24.53593,-12.5616 8.81583,0 13.28004,1.31 20.87234,6.1249 10.99345,6.9718 15.65701,13.5253 11.52685,16.1981 -3.82924,2.4781 -56.37922,3.2541 -59.91608,0.8848 z"
       id="path1596" />
    <path
       style="fill:#502d16;stroke-width:2.08835"
       d="m 493.5151,1150.6627 c -3.44578,-2.1474 -8.99267,-6.8087 -12.32641,-10.3585 -5.33867,-5.6846 -5.71215,-6.8771 -3.13253,-10.0016 5.05474,-6.1223 20.55957,-11.6587 32.96747,-11.7717 13.62565,-0.1241 23.10704,4.0309 27.36847,11.9934 3.88365,7.2567 1.51942,10.9668 -11.64001,18.2665 -12.19776,6.7663 -24.2903,7.4473 -33.23699,1.8719 z"
       id="path1598" />
    <path
       style="fill:#502d16;stroke-width:2.08835"
       d="m 292.54031,1111.7922 c -16.75947,-3.8812 -25.61155,-8.506 -25.61155,-13.3808 0,-6.3925 20.54078,-35.8076 35.26469,-50.5003 16.05101,-16.017 27.77174,-23.8969 40.68014,-27.3494 24.45535,-6.5408 48.87236,19.4774 63.75474,67.9356 5.56494,18.1199 5.52159,21.4292 -0.30198,23.0525 -2.58434,0.7204 -26.31325,1.7483 -52.73092,2.2841 -37.2613,0.7558 -50.95243,0.298 -61.05512,-2.0417 z"
       id="path1600" />
  </g>
</svg>
