<?xml version="1.0" encoding="UTF-8" standalone="no"?>
<svg
   xmlns:dc="http://purl.org/dc/elements/1.1/"
   xmlns:cc="http://creativecommons.org/ns#"
   xmlns:rdf="http://www.w3.org/1999/02/22-rdf-syntax-ns#"
   xmlns:svg="http://www.w3.org/2000/svg"
   xmlns="http://www.w3.org/2000/svg"
   xmlns:sodipodi="http://sodipodi.sourceforge.net/DTD/sodipodi-0.dtd"
   xmlns:inkscape="http://www.inkscape.org/namespaces/inkscape"
   version="1.1"
   id="svg3196"
   width="186"
   height="271"
   viewBox="0 0 186 271"
   sodipodi:docname="flower08.svg"
   inkscape:version="1.0.1 (3bc2e813f5, 2020-09-07)">
  <metadata
     id="metadata3202">
    <rdf:RDF>
      <cc:Work
         rdf:about="">
        <dc:format>image/svg+xml</dc:format>
        <dc:type
           rdf:resource="http://purl.org/dc/dcmitype/StillImage" />
        <dc:title></dc:title>
      </cc:Work>
    </rdf:RDF>
  </metadata>
  <defs
     id="defs3200" />
  <sodipodi:namedview
     pagecolor="#ffffff"
     bordercolor="#666666"
     borderopacity="1"
     objecttolerance="10"
     gridtolerance="10"
     guidetolerance="10"
     inkscape:pageopacity="0"
     inkscape:pageshadow="2"
     inkscape:window-width="1920"
     inkscape:window-height="1001"
     id="namedview3198"
     showgrid="false"
     inkscape:zoom="3.0627306"
     inkscape:cx="108.87123"
     inkscape:cy="130.77915"
     inkscape:window-x="-9"
     inkscape:window-y="-9"
     inkscape:window-maximized="1"
     inkscape:current-layer="g3204" />
  <g
     inkscape:groupmode="layer"
     inkscape:label="Image"
     id="g3204">
    <path
       style="fill:#000000;stroke-width:0.912297"
       d="m 91.74039,262.28624 c -0.3129,-1.03988 -2.37931,-3.69828 -4.59203,-5.90756 C 79.52912,248.77126 77.09412,242.62274 73.86907,222.84767 69.96227,198.89223 65.86551,189.11045 50.99371,168.2285 40.889643,154.04106 34.400403,142.99144 24.468093,123.06177 c -3.59551,-7.21456 -8.19473,-15.64247 -10.22048,-18.72868 -2.02575,-3.08622 -3.58882,-5.710837 -3.47349,-5.832489 0.11534,-0.121653 5.26046,3.246689 11.4336,7.485209 6.17314,4.23852 14.17492,9.68885 17.78173,12.11184 12.589997,8.45775 25.206827,22.86259 33.154537,37.85311 4.94214,9.32159 10.82788,25.29245 13.68684,37.13901 l 2.54612,10.55028 -0.20262,-40.47113 -0.20263,-40.47113 -2.32858,-2.2763 c -1.28072,-1.25197 -3.21437,-4.10772 -4.29699,-6.34611 -1.08263,-2.23839 -5.95356,-8.56827 -10.82431,-14.0664 C 57.49654,84.177147 55.56238,80.279593 51.67055,60.006401 50.11627,51.909874 49.56413,46.757337 49.94344,43.888927 50.6985,38.178898 56.23316,20.645741 58.34961,17.259176 l 1.71072,-2.737355 1.99478,3.566132 c 1.80513,3.227102 2.05826,3.385111 2.66255,1.662035 1.46976,-4.190816 3.687,-3.676227 7.29834,1.693832 1.37982,2.051797 2.82612,3.52366 3.21399,3.270808 0.38787,-0.252853 0.97152,-2.577124 1.29698,-5.165049 0.45963,-3.654686 1.11088,-5.064092 2.91667,-6.312122 2.24782,-1.553522 2.36895,-1.536858 3.65269,0.502489 l 1.32777,2.109296 2.36748,-2.991245 c 1.96928,-2.48813 2.77343,-2.8837768 4.781,-2.352301 1.54176,0.408159 2.9259,1.772296 3.83208,3.776697 l 1.41856,3.137752 2.4397,-2.8801 c 2.41602,-2.852138 2.46291,-2.864061 4.83005,-1.228066 1.3147,0.90862 3.19694,3.627613 4.18276,6.042207 l 1.79241,4.390171 1.27716,-2.553075 c 1.96829,-3.934652 4.35437,-4.896856 6.39998,-2.580839 1.49758,1.695524 1.81535,1.749399 2.81615,0.477441 0.62045,-0.78856 2.26807,-1.433746 3.66137,-1.433746 1.91159,0 2.86865,0.684051 3.89981,2.787346 2.42985,4.956274 5.08338,23.952852 5.17297,37.033316 0.0949,13.850835 -1.23947,20.731804 -5.75199,29.662046 -2.78615,5.513765 -12.31605,16.457854 -16.72134,19.202704 -1.28583,0.80118 -3.4366,3.28854 -4.77946,5.52746 -2.29028,3.81851 -7.27458,9.14719 -9.2744,9.91523 -1.28877,0.49495 -2.3156,42.44405 -1.47767,60.36702 l 0.69811,14.9321 1.1411,-8.0796 c 3.60766,-25.54423 10.60561,-41.96925 23.12065,-54.26693 12.48621,-12.26934 20.20256,-15.01296 35.32263,-12.55927 4.93937,0.80156 11.06894,1.70296 13.62126,2.0031 2.55232,0.30015 4.42274,0.91751 4.1565,1.37191 -0.8492,1.44931 -8.87221,5.35193 -13.35172,6.49466 -10.23388,2.61067 -22.47673,12.25639 -28.18834,22.2086 -3.82645,6.66742 -8.24174,19.97741 -13.01326,39.22871 -6.8397,27.59569 -12.78027,45.34266 -18.90232,56.4691 -1.56817,2.85006 -3.45081,7.05757 -4.18365,9.35005 -1.48214,4.63646 -3.10683,5.85746 -3.97129,2.98455 z m 3.07883,-3.81785 c 0.68068,-2.66638 0.65927,-15.70389 -0.075,-45.67664 -0.56519,-23.06985 -0.76424,-53.01298 -0.44234,-66.5403 l 0.58527,-24.59511 h -2.79128 -2.79128 l 0.54948,15.22555 c 0.30221,8.37405 0.75029,38.99862 0.99572,68.0546 0.24544,29.05599 0.68365,53.82678 0.97381,55.04621 0.77983,3.27735 1.91948,2.70125 2.99565,-1.51431 z m -4.84586,-29.5305 C 89.78543,216.00042 89.27612,209.78148 87.78647,202.23462 83.46762,180.3545 74.62804,158.28466 64.54058,144.19644 54.96908,130.82883 46.1286,122.98728 25.537053,109.60012 c -4.15274,-2.69981 -8.5344,-5.62416 -9.73703,-6.49855 -2.06366,-1.50043 -2.03285,-1.35277 0.54813,2.6265 1.50409,2.31897 4.03745,6.95691 5.62968,10.30653 9.31878,19.60418 21.14781,39.79495 32.246717,55.0414 10.60148,14.56314 16.12514,26.66664 18.7163,41.01139 0.74323,4.11451 2.16871,11.96691 3.16775,17.44978 2.24892,12.34248 4.22965,17.32031 9.12261,22.92629 l 3.81832,4.37473 0.58441,-5.51754 c 0.32143,-3.03465 0.47417,-13.10689 0.33942,-22.38276 z m -1.22771,12.64891 c 0,-1.28831 0.20161,-1.81535 0.44804,-1.17119 0.24642,0.64416 0.24642,1.69823 0,2.34239 -0.24643,0.64416 -0.44804,0.11712 -0.44804,-1.1712 z m -5.39985,-4.29438 c 0.0426,-1.09151 0.25311,-1.31352 0.53667,-0.56608 0.2566,0.67636 0.22505,1.48449 -0.0701,1.79584 -0.29517,0.31134 -0.50511,-0.24206 -0.46654,-1.22976 z m 4.54447,-2.73279 c 0.0181,-1.54598 0.21719,-2.065 0.44241,-1.15337 0.22522,0.91163 0.21041,2.17652 -0.0329,2.81087 -0.24333,0.63435 -0.4276,-0.11152 -0.4095,-1.6575 z m -5.43276,-1.01504 c 0.0426,-1.0915 0.25311,-1.31352 0.53668,-0.56608 0.2566,0.67636 0.22504,1.48449 -0.0701,1.79584 -0.29517,0.31134 -0.50512,-0.24205 -0.46655,-1.22976 z m -2.54588,-10.03807 c -2.88485,-10.91403 -12.65585,-36.47764 -19.4116,-50.78604 -5.1663,-10.94201 -15.1239,-27.67368 -21.328807,-35.83859 -1.27277,-1.67481 -2.08908,-3.04511 -1.81401,-3.04511 0.27506,0 3.51039,4.21513 7.18962,9.36696 7.848927,10.99044 15.112197,23.73126 20.430847,35.83865 7.75102,17.64445 18.15338,48.57426 17.25061,51.29203 -0.15678,0.47197 -1.19927,-2.60059 -2.31666,-6.8279 z m 6.57655,4.49441 c -0.38004,-2.0613 -2.39469,-8.38576 -4.47698,-14.05435 -2.0823,-5.66859 -4.69906,-14.52283 -5.81502,-19.67609 -1.11597,-5.15326 -3.51641,-12.76824 -5.3343,-16.92217 -3.69917,-8.45266 -17.47974,-33.00907 -24.15492,-43.04306 -2.903377,-4.36431 -3.362797,-5.35458 -1.37311,-2.95979 4.08714,4.9193 18.5099,28.964 24.35534,40.60362 3.7052,7.37793 5.56111,12.67733 8.20336,23.42392 1.87814,7.63883 4.88407,18.22274 6.67984,23.5198 1.79578,5.29705 3.11694,10.35662 2.93592,11.24348 -0.18102,0.88686 -0.64008,-0.074 -1.02013,-2.13536 z m -51.708517,-97.20926 -1.69217,-2.10816 1.99864,1.7849 c 1.87824,1.67736 2.40303,2.43141 1.69218,2.43141 -0.16856,0 -1.06795,-0.94867 -1.99865,-2.10815 z m 67.132597,112.43481 c 5.80526,-12.92087 8.91516,-22.60636 15.21041,-47.3712 8.29549,-32.63365 11.87731,-41.69546 19.89434,-50.33157 6.559,-7.06551 13.279,-11.44101 21.76301,-14.17029 4.15274,-1.33591 8.74962,-3.0914 10.2153,-3.90107 l 2.66486,-1.47213 -8.88287,-1.63523 c -4.88557,-0.89937 -12.11678,-1.66143 -16.06935,-1.69345 -6.29011,-0.051 -7.85995,0.29673 -12.58584,2.78768 -9.4987,5.00663 -22.04322,18.8926 -27.62806,30.58249 -3.00518,6.29028 -6.31974,19.51867 -8.17516,32.62704 -2.09873,14.82729 -3.37627,45.4424 -1.89627,45.4424 0.69954,0 0.83202,2.7577 0.45014,9.36957 -0.29765,5.15326 -0.25638,9.36956 0.0917,9.36956 0.34807,0 2.57457,-4.32171 4.94779,-9.6038 z m -0.80073,-12.49276 c 0.0426,-1.0915 0.25311,-1.31352 0.53667,-0.56608 0.2566,0.67636 0.22505,1.48449 -0.0701,1.79584 -0.29518,0.31134 -0.50512,-0.24205 -0.46655,-1.22976 z m -3.0589,-10.95982 c 0.61091,-17.2008 5.33807,-49.10402 7.01392,-47.33635 0.19312,0.2037 -0.23597,2.42805 -0.95353,4.94298 -0.71757,2.51492 -2.28617,13.87928 -3.48577,25.2541 -1.19961,11.37484 -2.35036,22.15722 -2.55724,23.96087 -0.20687,1.80364 -0.21469,-1.26609 -0.0174,-6.8216 z m 3.94719,7.212 c 0.0426,-1.09151 0.25311,-1.31352 0.53667,-0.56608 0.2566,0.67636 0.22504,1.48448 -0.0701,1.79583 -0.29518,0.31134 -0.50511,-0.24205 -0.46654,-1.22975 z m 0.81816,-2.54029 c 0,-2.53798 7.62961,-46.1155 9.31053,-53.17824 4.21869,-17.72585 8.95408,-26.6642 17.92717,-33.83868 4.87534,-3.8981 11.85292,-8.26087 13.17933,-8.24045 0.48856,0.008 -1.50602,1.37275 -4.43238,3.03383 -2.92637,1.66108 -7.95835,5.76074 -11.18217,9.11036 -9.99778,10.38793 -12.70416,18.49482 -19.92103,59.67298 -3.42305,19.53126 -4.88145,26.53437 -4.88145,23.4402 z M 98.90222,119.17144 c 2.34363,-1.61975 7.92993,-9.52156 7.24338,-10.24574 -0.21823,-0.23018 -2.45362,0.0823 -4.96753,0.69435 -2.51393,0.61208 -4.87221,0.79528 -5.24065,0.40713 -0.36843,-0.38816 -0.71653,-8.15493 -0.77356,-17.259495 l -0.10367,-16.55375 0.64221,16.396744 c 0.35322,9.018211 0.69967,16.531481 0.76989,16.696151 0.0702,0.16467 1.01626,0.16467 2.10231,0 2.61661,-0.39675 5.26756,-5.54061 8.69378,-16.869302 2.2361,-7.393596 3.81558,-10.597026 8.47592,-17.190492 3.15023,-4.456954 5.72769,-8.557348 5.72769,-9.111987 0,-0.554639 0.22934,-0.76653 0.50965,-0.470869 0.77117,0.81343 -2.06467,6.107741 -6.82242,12.736924 -2.88997,4.026746 -5.01298,8.381979 -6.58882,13.516612 -1.27873,4.166574 -3.29787,9.600714 -4.48697,12.075854 l -2.162,4.50027 2.89106,-0.57153 c 3.48865,-0.68968 11.01711,-6.56371 15.9311,-12.430153 8.69884,-10.384872 11.87928,-20.901433 11.63897,-38.485835 -0.15593,-11.409574 -2.81781,-30.830434 -4.83647,-35.286443 -1.60069,-3.533395 -4.48858,-3.890831 -6.76566,-0.83739 -2.21473,2.96986 -2.53063,2.974853 -3.22635,0.051 -1.05613,-4.438498 -4.43714,-2.226037 -7.1396,4.671997 -1.96073,5.004757 -4.25664,7.416771 -10.65835,11.197344 -2.95728,1.746443 -6.28423,4.196791 -7.39321,5.445216 l -2.01634,2.269866 2.28708,5.269356 c 1.58417,3.649875 2.39577,7.36874 2.64072,12.100186 l 0.35365,6.830828 -0.84278,-7.009749 C 93.57633,51.653591 90.65119,45.956434 83.76799,40.250756 c -4.65788,-3.86105 -5.9026,-5.503715 -7.13428,-9.415108 -0.82059,-2.605926 -1.98232,-5.056712 -2.58163,-5.44619 -0.59931,-0.389479 -2.21135,-2.28515 -3.5823,-4.212602 -2.74553,-3.860011 -3.68469,-3.771381 -5.39087,0.508742 l -1.14387,2.869543 -1.98387,-4.101757 -1.98386,-4.101758 -1.32393,2.665264 c -0.72816,1.465896 -2.67023,6.713119 -4.3157,11.660498 -2.32099,6.978441 -2.99609,10.517483 -3.01104,15.784721 -0.0241,8.503171 3.51981,26.45053 6.56275,33.235215 3.43377,7.656077 21.12739,28.841616 24.08779,28.841616 0.8011,0 1.32043,-0.31622 1.15406,-0.70271 -0.16636,-0.3865 -1.62334,-3.37733 -3.23773,-6.6463 -1.61439,-3.268963 -4.07519,-10.671918 -5.46843,-16.451008 -1.4948,-6.200317 -3.89687,-13.173677 -5.85997,-17.011866 -1.82974,-3.577436 -2.89424,-6.082798 -2.36556,-5.567472 2.78698,2.716565 8.19276,15.764584 9.93281,23.975022 2.36513,11.159835 7.52529,22.500054 10.70646,23.529044 1.58343,0.51217 1.13733,0.61388 -1.5545,0.35444 -2.07637,-0.20013 -3.77522,-0.16546 -3.77522,0.077 0,0.86974 2.03862,4.58932 4.15396,7.57913 1.92745,2.72426 2.62096,3.04511 6.58194,3.04511 2.62071,0 5.34147,-0.63168 6.66722,-1.54794 z m -8.29818,-8.4675 c 0.85497,-0.23566 2.25402,-0.23566 3.109,0 0.85497,0.23568 0.15545,0.4285 -1.5545,0.4285 -1.70995,0 -2.40948,-0.19282 -1.5545,-0.4285 z m 5.33165,-38.237832 c 0.01,-2.061304 0.19177,-2.794242 0.40424,-1.62875 0.21247,1.165493 0.20441,2.852015 -0.0179,3.747827 -0.22233,0.895813 -0.39617,-0.05777 -0.38631,-2.119077 z m 26.49472,-9.447646 c 0.0426,-1.091502 0.25311,-1.31352 0.53667,-0.566079 0.2566,0.676366 0.22504,1.484491 -0.0701,1.795834 -0.29517,0.311343 -0.50512,-0.242048 -0.46655,-1.229755 z M 91.48276,41.705688 c 1.1384,-1.200781 4.93654,-3.949223 8.4403,-6.107649 9.73623,-5.997826 10.67576,-8.273592 6.9244,-16.772705 -1.77751,-4.02712 -2.57711,-4.919023 -4.40995,-4.919023 -1.5891,0 -2.63867,0.815692 -3.61682,2.810871 -0.75793,1.545978 -1.55953,2.81087 -1.78134,2.81087 -0.2218,0 -1.22892,-1.707065 -2.23803,-3.793477 -1.00912,-2.086413 -2.43118,-4.034886 -3.16014,-4.329941 -1.8063,-0.73112 -4.68926,2.207363 -5.53225,5.638782 l -0.69303,2.821042 -1.99182,-3.560863 c -1.88656,-3.372667 -2.07827,-3.478351 -3.62733,-1.999661 -2.38552,2.277155 -3.931,11.500728 -2.61207,15.589046 1.44568,4.481181 2.36616,5.72894 7.43013,10.071988 2.4391,2.091859 4.51649,3.83051 4.61642,3.86367 0.0999,0.03316 1.11312,-0.922168 2.25153,-2.12295 z m 5.11721,-16.087417 c -2.52076,-2.830241 -4.51546,-2.970508 -6.66215,-0.468479 -1.92387,2.242333 -5.54415,2.383904 -7.99458,0.312629 l -1.77657,-1.501688 1.77657,0.700831 c 4.11546,1.623485 4.95069,1.533972 7.59625,-0.81409 3.44363,-3.056388 4.14554,-3.048817 7.2398,0.0781 1.93464,1.955061 2.73608,2.271693 3.55734,1.405436 1.55238,-1.637436 4.75225,-1.364094 6.10496,0.521503 1.0007,1.394917 0.99041,1.464848 -0.0689,0.468479 -1.71168,-1.609984 -5.03164,-1.472406 -5.65252,0.234239 -0.72153,1.9833 -1.72189,1.755814 -4.12021,-0.936957 z"
       id="path3769" />
    <path
       style="fill:#ffcc00;stroke-width:0.326506"
       d="m 89.444123,120.35367 c -1.686906,-0.40806 -2.44667,-1.08598 -4.233591,-3.77753 -1.536903,-2.31496 -3.439301,-5.73386 -3.439301,-6.18094 0,-0.0893 1.432546,-0.20434 3.183434,-0.25574 l 3.183434,-0.0934 -1.223634,-0.60823 C 83.612203,107.79635 79.159509,98.116112 76.398531,86.575956 74.520862,78.727796 71.177073,69.799574 68.229856,64.764838 c -1.435843,-2.452851 -1.99959,-3.118619 -2.346755,-2.771455 -0.09482,0.09482 0.716863,2.056322 1.803734,4.358901 3.093283,6.553237 5.005538,12.066703 7.057561,20.348551 1.123511,4.534427 3.60834,11.482413 5.809832,16.245235 1.26623,2.73943 2.211829,5.07118 2.101331,5.18168 -0.646653,0.64666 -2.354523,-0.57866 -6.116797,-4.38851 C 70.521809,97.646198 62.214463,87.038318 58.848638,81.150232 55.287908,74.921186 50.875053,52.42546 51.549193,43.93933 c 0.12173,-1.532347 0.444185,-3.888043 0.716568,-5.234881 0.834325,-4.125441 5.438337,-17.606104 7.130607,-20.878593 l 0.529638,-1.024208 1.987079,4.013148 1.987078,4.013147 0.911128,-1.959036 c 0.50112,-1.07747 0.923112,-2.105964 0.937759,-2.285542 0.01465,-0.179578 0.365818,-0.750392 0.780381,-1.268474 0.645093,-0.806175 0.852066,-0.889351 1.435743,-0.576976 0.375095,0.200744 1.247331,1.137733 1.938302,2.082196 0.69097,0.944463 2.080019,2.628152 3.086775,3.741532 1.539172,1.702182 2.05876,2.625124 3.26506,5.799705 0.789027,2.076458 1.903368,4.421784 2.476313,5.211834 0.572945,0.79005 2.629933,2.827071 4.571084,4.526713 7.765204,6.799091 9.966391,11.283087 11.54028,23.508472 0.347465,2.698973 0.707411,4.98288 0.799878,5.07535 0.226357,0.226356 0.211086,-0.303478 -0.170404,-5.911242 -0.469234,-6.8976 -1.077825,-9.442022 -3.720382,-15.554262 l -1.18923,-2.750693 1.399673,-1.442906 c 1.93398,-1.993716 4.373963,-3.834334 8.550357,-6.450017 1.95751,-1.225995 4.50827,-3.116966 5.66834,-4.202156 1.87596,-1.754866 2.35649,-2.486079 4.34508,-6.61174 2.15931,-4.47984 3.95633,-6.973119 5.02586,-6.973119 0.73091,0 1.43487,0.904893 1.85289,2.381754 0.73645,2.601887 1.02886,2.614689 3.32247,0.145463 1.82405,-1.963716 2.17636,-2.200711 3.27144,-2.200711 2.39977,0 3.64543,2.150912 4.92214,8.499214 2.02903,10.089088 3.19554,21.560312 3.18642,31.334521 -0.0142,15.243351 -2.45321,23.973179 -9.41217,33.688878 -3.38808,4.73023 -10.21043,11.047939 -14.89349,13.791829 -1.31021,0.76768 -5.10518,1.9596 -5.37622,1.68856 -0.07,-0.07 0.31744,-1.00828 0.86099,-2.08504 1.55743,-3.08526 3.10524,-7.000669 4.93135,-12.474589 2.29429,-6.877301 4.16569,-10.674781 8.22729,-16.694948 3.6689,-5.438095 5.81271,-9.352011 5.81271,-10.612174 0,-1.037604 -0.85274,-0.995474 -1.11643,0.05516 -0.11424,0.455156 -2.20235,3.797761 -4.64026,7.428012 -2.4379,3.630254 -5.09071,7.907407 -5.89513,9.504786 -0.80442,1.597378 -2.53061,6.152137 -3.83597,10.121687 -4.11217,12.504956 -6.08623,15.869766 -9.310455,15.869766 -0.982277,0 -0.995866,-0.0232 -1.005609,-1.71416 -0.02344,-4.06591 -1.262413,-31.011539 -1.433822,-31.182948 -0.445456,-0.445458 0.178524,32.125148 0.638055,33.305238 0.305854,0.78546 2.763504,0.75745 6.714821,-0.0765 1.68835,-0.35634 3.17993,-0.6502 3.31462,-0.65301 0.57133,-0.0119 0.1471,1.04013 -1.33054,3.29968 -2.33324,3.56787 -4.813728,6.40519 -6.232387,7.12894 -2.1047,1.07374 -6.376613,1.57407 -8.68075,1.01669 z m 4.734337,-9.49139 c 0,-0.18139 -0.870684,-0.32651 -1.959036,-0.32651 -1.088352,0 -1.959036,0.14512 -1.959036,0.32651 0,0.18139 0.870684,0.32651 1.959036,0.32651 1.088352,0 1.959036,-0.14512 1.959036,-0.32651 z m 2.379775,-37.02287 c 0.220545,-1.359055 -0.07691,-3.790382 -0.46373,-3.790382 -0.155932,0 -0.283515,1.101957 -0.283515,2.448795 0,2.524698 0.429979,3.296672 0.747245,1.341587 z M 123.17558,63.299267 c -0.13328,-1.577201 -0.9176,-1.877854 -0.9176,-0.351745 0,0.61356 0.0979,1.213515 0.21767,1.333231 0.5186,0.518603 0.79406,0.13234 0.69993,-0.981486 z"
       id="path3771" />
    <path
       style="fill:#ffd42a;stroke-width:0.326506"
       d="m 84.873039,39.877829 c -2.334518,-2.043794 -4.714284,-4.42952 -5.288368,-5.301613 -2.499084,-3.796365 -3.182763,-7.783285 -2.251554,-13.130094 0.63255,-3.63197 1.516151,-5.832458 2.854851,-7.109612 l 0.981397,-0.936278 0.662853,0.814545 c 0.36457,0.448 1.247524,1.879844 1.96212,3.181875 0.714596,1.302032 1.417188,2.44021 1.561315,2.529285 0.144126,0.08907 0.362902,-0.375641 0.486168,-1.032703 0.711748,-3.793948 3.135336,-7.288785 5.0546,-7.288785 1.170496,0 1.963147,0.957948 4.19346,5.067952 0.861576,1.587705 1.711438,2.935049 1.888582,2.994097 0.177145,0.05905 0.869471,-0.844372 1.538502,-2.007602 1.558365,-2.709497 2.355465,-3.442399 3.743925,-3.442399 1.72138,0 2.27754,0.49205 3.65679,3.235233 2.39703,4.767463 3.17464,8.34223 2.30957,10.617513 -0.64419,1.694367 -3.2496,3.957092 -8.66144,7.522224 -3.052832,2.0111 -6.616438,4.636201 -7.919126,5.833559 -1.302688,1.197357 -2.404646,2.175164 -2.448795,2.172903 -0.04415,-0.0023 -1.990332,-1.676305 -4.32485,-3.7201 z m 15.902041,-12.92977 c 1.08132,-1.900274 3.51069,-2.098001 5.47449,-0.44557 1.27723,1.074717 1.35569,0.2666 0.0912,-0.939675 -1.77642,-1.694684 -4.16204,-1.914816 -5.90378,-0.544767 -0.437816,0.344389 -0.929439,0.626161 -1.092493,0.626161 -0.163054,0 -0.988074,-0.633342 -1.833378,-1.407426 -3.795877,-3.476064 -4.345682,-3.564482 -7.310772,-1.175698 -3.647613,2.93865 -4.079805,3.016894 -8.056308,1.458514 -1.102958,-0.432245 -2.005378,-0.662238 -2.005378,-0.511093 0,0.399122 2.367302,2.211826 3.40257,2.605434 1.180276,0.44874 3.975105,0.427729 4.863172,-0.03656 0.392246,-0.20507 1.334334,-0.939708 2.093529,-1.632531 2.131273,-1.944945 3.130536,-1.800465 5.96603,0.862612 2.578423,2.421637 3.450797,2.652444 4.311078,1.140598 z"
       id="path3773" />
    <path
       style="fill:#ffd42a;stroke-width:0.326506"
       d="m 88.275897,119.58862 c -0.605848,-0.40828 -1.628151,-1.43908 -2.271786,-2.29067 -1.549382,-2.04999 -4.025927,-6.42495 -3.777573,-6.67331 0.108164,-0.10816 1.555977,-0.28452 3.217364,-0.3919 l 3.020703,-0.19525 -1.02376,-0.55618 C 83.791598,107.4988 80.057,99.687612 76.705402,87.027341 73.861584,76.285156 70.777411,68.284187 67.612021,63.437281 c -0.928433,-1.421634 -1.839585,-2.026816 -1.839585,-1.221845 0,0.180986 0.749963,1.98085 1.666584,3.999699 2.639627,5.813763 4.372407,10.510751 5.817405,15.769043 2.161241,7.864674 4.791791,15.629334 7.056417,20.828602 1.161271,2.66612 2.111401,4.984 2.111401,5.15086 0,0.75863 -2.414307,-1.0829 -5.573752,-4.25143 C 71.000754,97.845671 62.554754,87.148106 59.394831,81.603158 56.928384,77.275109 54.383724,67.984808 52.652828,56.988787 51.606531,50.341878 51.598338,42.072096 52.633978,37.964133 54.117184,32.080868 59.2685,17.481558 59.861185,17.481558 c 0.115794,0 1.074488,1.7264 2.130431,3.836446 l 1.919896,3.836445 0.953583,-2.122289 c 2.025548,-4.508051 2.465982,-4.904954 3.782879,-3.40899 5.104464,5.798548 6.044249,7.24923 8.236688,12.714412 1.007302,2.510942 1.2475,2.809103 6.20549,7.70293 5.679742,5.606239 7.648854,8.267654 9.139971,12.353414 0.981673,2.689845 1.955082,7.313438 2.617115,12.431005 0.838122,6.478752 1.298688,3.586349 0.623885,-3.918072 C 95.044116,56.158142 94.261618,52.996206 92.335905,48.23798 L 90.80833,44.463508 92.903627,42.48187 c 1.152413,-1.089901 4.360847,-3.519297 7.129853,-5.398658 6.74204,-4.575912 7.86588,-5.736661 10.44306,-10.785992 2.41489,-4.731356 4.08807,-7.183132 4.90202,-7.183132 0.80947,0 1.52131,0.907506 2.01148,2.564409 0.23132,0.7819 0.62509,1.500113 0.87504,1.596027 0.26619,0.102147 1.22119,-0.58078 2.3053,-1.648541 2.24656,-2.212669 3.13075,-2.604525 4.53995,-2.012003 1.8416,0.774334 3.03124,4.123656 4.46131,12.560349 2.61698,15.43883 3.07639,31.701668 1.17403,41.559476 -1.75834,9.111513 -5.76238,16.677441 -12.51493,23.647888 -3.99666,4.125627 -7.00641,6.693287 -9.86966,8.419947 -1.86911,1.12716 -5.24581,2.35207 -5.57538,2.0225 -0.088,-0.088 0.34351,-1.16682 0.95889,-2.39737 1.14741,-2.29442 2.66452,-6.197024 5.31223,-13.665092 1.8559,-5.234714 3.98858,-9.383789 7.9523,-15.471014 3.70643,-5.692088 5.24886,-8.588637 5.24886,-9.856927 0,-1.382913 -0.83416,-1.214713 -1.62057,0.326771 -0.35987,0.705413 -2.50309,4.121482 -4.7627,7.591265 -5.02262,7.712546 -6.34344,10.396481 -9.1302,18.552676 -4.42471,12.950101 -6.13149,15.998791 -8.956774,15.998791 -0.7591,0 -1.019195,-0.16836 -1.134931,-0.73463 -0.08258,-0.40406 -0.241115,-4.00302 -0.3523,-7.9977 -0.278536,-10.007335 -1.029885,-23.591706 -1.319686,-23.859902 -0.30111,-0.27866 0.117539,30.654592 0.438893,32.428982 l 0.236531,1.30603 1.954782,0.10326 c 1.075132,0.0568 3.245645,-0.14611 4.823365,-0.4509 1.57771,-0.30479 2.95363,-0.46911 3.0576,-0.36515 0.50431,0.50431 -4.28191,7.32911 -6.315375,9.00527 -1.501517,1.23768 -4.281454,1.99246 -7.338458,1.99246 -2.018738,0 -2.658569,-0.13334 -3.56226,-0.74234 z m 5.902563,-8.72634 c 0,-0.18139 -0.870684,-0.32651 -1.959036,-0.32651 -1.088352,0 -1.959036,0.14512 -1.959036,0.32651 0,0.18139 0.870684,0.32651 1.959036,0.32651 1.088352,0 1.959036,-0.14512 1.959036,-0.32651 z m 2.413863,-36.432126 c 0.252555,-0.658151 0.248314,-2.69152 -0.0076,-3.646488 -0.399947,-1.492407 -0.773725,-0.664319 -0.773725,1.714157 0,2.297081 0.32907,3.11091 0.781333,1.932331 z M 123.17558,63.299267 c -0.14556,-1.722447 -0.9176,-1.835252 -0.9176,-0.134074 0,0.990349 0.13103,1.333232 0.50947,1.333232 0.38754,0 0.48521,-0.286995 0.40813,-1.199158 z"
       id="path3775" />
    <path
       style="fill:#ffe680;stroke-width:0.326506"
       d="m 87.316226,41.752108 c -0.984596,-0.837883 -3.137874,-2.843903 -4.785062,-4.45782 -3.961952,-3.881928 -5.039456,-6.067717 -5.261202,-10.672702 -0.241641,-5.018149 1.064066,-10.229812 3.024305,-12.07136 0.426586,-0.400757 0.931478,-0.632319 1.12198,-0.514582 0.190504,0.117738 1.113309,1.528944 2.050679,3.136015 0.93737,1.607071 1.810449,2.921947 1.940175,2.921947 0.129726,0 0.480181,-0.840413 0.778787,-1.867583 1.11293,-3.828346 2.953982,-6.295068 4.698359,-6.295068 1.135641,0 1.557767,0.504012 4.22136,5.040231 0.836907,1.42529 1.68804,2.643931 1.891407,2.708092 0.203367,0.06416 0.955939,-0.808129 1.672381,-1.938423 1.996555,-3.149866 2.695875,-3.608104 4.718315,-3.091739 1.69578,0.432962 4.84577,7.509583 4.89523,10.997365 0.0453,3.196343 -0.96504,4.352809 -8.11902,9.293139 -4.692038,3.240186 -9.097438,6.594715 -10.035763,7.641818 -0.342094,0.381752 -0.711937,0.694096 -0.821873,0.694096 -0.109936,0 -1.005462,-0.685542 -1.990058,-1.523426 z M 101.21919,26.786979 c 1.29468,-1.413455 2.57636,-1.500533 4.60317,-0.312742 1.35405,0.793524 1.41634,0.801434 1.41634,0.179869 0,-0.968951 -2.04673,-2.369218 -3.74237,-2.560342 -1.10487,-0.124535 -1.73421,0.0024 -2.62863,0.530101 -0.64678,0.381611 -1.315693,0.693837 -1.486474,0.693837 -0.170781,0 -1.36045,-0.881566 -2.643708,-1.959036 -3.027861,-2.542301 -3.75373,-2.582018 -6.7637,-0.370081 -3.533549,2.596699 -4.055251,2.739447 -6.610632,1.808794 -0.785786,-0.286178 -1.832753,-0.643241 -2.326593,-0.793473 -1.50389,-0.457502 -1.079619,0.456102 0.819092,1.763794 1.579129,1.087588 1.903661,1.182532 4.042041,1.182532 2.256085,0 2.380933,-0.04339 4.208724,-1.462699 1.036017,-0.804485 2.15788,-1.549731 2.493027,-1.656103 0.637802,-0.202431 2.478282,0.762848 3.256435,1.707906 0.793664,0.963898 2.974291,2.390414 3.654076,2.390414 0.364357,0 1.133502,-0.514246 1.709202,-1.142771 z"
       id="path3777" />
    <path
       style="fill:#808000;stroke-width:0.326506"
       d="m 92.367723,260.90637 c -0.617369,-1.47757 -0.968168,-17.01828 -1.455942,-64.49951 -0.330746,-32.19584 -0.722997,-54.69262 -1.187483,-68.1058 l -0.219464,-6.33757 h 2.64966 2.64966 l -0.158569,3.18343 c -0.821794,16.49829 -0.731645,59.94851 0.208138,100.31898 0.21111,9.0687 0.31261,20.08828 0.225555,24.48795 -0.143156,7.23497 -0.226981,8.17821 -0.877193,9.8706 -0.395401,1.02916 -0.859406,1.95803 -1.031122,2.06416 -0.171716,0.10613 -0.533174,-0.33588 -0.80324,-0.98224 z"
       id="path3779" />
    <path
       style="fill:#44aa00;stroke-width:0.326506"
       d="m 96.988005,243.48718 c 0.214549,-8.26405 0.192614,-8.80502 -0.39327,-9.69927 -0.567451,-0.86611 -0.616235,-1.57627 -0.570698,-8.30774 0.08028,-11.86718 1.280433,-28.78351 2.734416,-38.54199 1.989027,-13.34945 5.527767,-26.40827 8.833777,-32.59885 3.46292,-6.4844 8.71268,-13.40376 14.65811,-19.31988 4.55262,-4.53017 8.5668,-7.59446 12.7728,-9.75031 4.32053,-2.21455 5.71812,-2.4502 13.19207,-2.22437 6.2362,0.18844 11.32968,0.80619 18.93735,2.29677 l 3.91807,0.76767 -3.10181,1.48619 c -1.70599,0.8174 -5.52292,2.32396 -8.48206,3.34791 -9.93414,3.43751 -15.22003,6.77913 -22.08673,13.96276 -8.26835,8.64997 -11.65765,16.99832 -20.04688,49.3785 -6.3565,24.5344 -9.54826,34.83011 -14.04033,45.29013 -1.87834,4.37379 -5.98222,12.66469 -6.268858,12.66469 -0.158509,0 -0.183145,-3.85315 -0.05596,-8.75221 z m 5.026595,-12.13674 c 0,-0.83584 -0.33731,-1.63997 -0.68794,-1.63997 -0.33089,0 -0.40257,2.06571 -0.0828,2.38551 0.33503,0.33502 0.77072,-0.0864 0.77072,-0.74554 z m 0.78105,-3.46169 c 0.2342,-0.61034 -0.088,-2.09635 -0.45454,-2.09635 -0.14064,0 -0.34497,0.35564 -0.45407,0.79032 -0.21196,0.84449 0.0316,1.82173 0.45407,1.82173 0.14115,0 0.34569,-0.23207 0.45454,-0.5157 z m -3.888758,-7.32045 c 2.326308,-23.1758 4.134358,-37.35926 5.607658,-43.99005 0.85816,-3.86224 0.84505,-5.12392 -0.0406,-3.91266 -2.22224,3.0391 -6.776738,38.13532 -6.681775,51.48871 0.03083,4.33581 0.457308,2.96392 1.114767,-3.586 z m 4.857358,2.36717 c 0.69173,-3.07387 1.81685,-9.08907 4.29029,-22.93704 6.11134,-34.21536 8.63927,-43.33522 14.4182,-52.01586 3.75965,-5.64743 11.26893,-12.59163 17.68186,-16.35127 2.84587,-1.66842 3.78728,-2.48468 2.86564,-2.48468 -2.21655,0 -12.85301,7.43568 -17.33981,12.12181 -5.98203,6.2478 -9.7428,14.16808 -13.04668,27.47667 -1.90226,7.66261 -8.98136,46.83656 -9.82221,54.35363 -0.31174,2.78686 0.31291,2.67982 0.95271,-0.16326 z"
       id="path3783" />
    <path
       style="fill:#44aa00;stroke-width:0.326506"
       d="m 86.982424,254.14157 c -7.228987,-8.27125 -8.198462,-10.8879 -12.244805,-33.04917 -2.397455,-13.13054 -2.646534,-14.29805 -4.082256,-19.13494 -2.933376,-9.88241 -7.893299,-19.2531 -16.849977,-31.83434 -10.695235,-15.02335 -19.229907,-29.4469 -29.656111,-50.11867 -3.124796,-6.19545 -6.498272,-12.55932 -7.496613,-14.14193 -0.998341,-1.58261 -1.815166,-2.9447 -1.815166,-3.02687 0,-0.30668 21.548867,14.26755 25.630723,17.33493 17.851574,13.41485 29.01616,28.37536 37.88727,50.76881 5.72444,14.45028 9.975307,31.45214 10.906326,43.62119 0.849373,11.10188 0.703575,36.30873 -0.234608,40.56051 l -0.239613,1.08593 z m 2.469179,-11.72093 c 0.260402,-0.82046 -0.06044,-2.26197 -0.503459,-2.26197 -0.176157,0 -0.320286,0.66117 -0.320286,1.46927 0,1.529 0.451998,1.96397 0.823745,0.7927 z m -5.394829,-4.87402 c 0,-1.29217 -0.497974,-1.76345 -0.861725,-0.81554 -0.246388,0.64208 0.13119,2.12156 0.541438,2.12156 0.176157,0 0.320287,-0.58771 0.320287,-1.30602 z m 4.510399,-2.97582 c -0.05641,-0.78761 -0.249496,-1.43201 -0.429074,-1.43201 -0.376135,0 -0.629011,2.26797 -0.337558,3.02748 0.364308,0.94938 0.87307,-0.10942 0.766632,-1.59547 z m -5.321741,0.0293 c 0.276962,-0.44812 -0.141223,-2.27756 -0.520627,-2.27756 -0.165306,0 -0.300562,0.58771 -0.300562,1.30603 0,1.24508 0.376697,1.69075 0.821189,0.97155 z m 4.402085,-4.80799 c -9.8e-4,-1.17603 -1.17216,-5.50799 -3.40454,-12.59377 -2.153647,-6.83585 -4.273194,-14.31092 -5.895406,-20.79146 -2.93589,-11.72854 -4.815899,-17.13371 -8.56472,-24.62421 -6.43961,-12.86695 -21.92072,-38.40915 -25.035115,-41.3053 -1.280041,-1.19033 -1.034882,-0.47363 0.829189,2.42409 7.781857,12.09697 17.542673,29.17586 23.138715,40.48674 3.055296,6.17546 5.092518,12.11582 7.670201,22.36567 1.036542,4.12169 3.542074,12.43423 5.708011,18.93735 2.123278,6.37503 3.958298,12.10521 4.077822,12.73373 0.556422,2.92595 1.477711,4.40365 1.475843,2.36717 z m -5.223274,-0.0603 c 0,-3.87581 -7.038105,-25.3835 -14.10902,-43.11565 -7.111569,-17.83409 -16.709557,-34.77139 -28.128204,-49.63706 -2.244992,-2.9227 -3.147113,-3.7829 -3.147113,-3.00086 0,0.1433 1.432545,2.26888 3.183434,4.72351 8.101646,11.35799 16.951869,26.91555 22.703887,39.91052 6.8402,15.4534 12.855753,31.75926 17.857388,48.40452 0.925122,3.07878 1.639628,4.26191 1.639628,2.71502 z m -45.068693,-96.912 c -0.0253,-0.57042 -4.233716,-4.64217 -4.233716,-4.09623 0,0.584 3.27415,4.34111 3.783078,4.34111 0.253825,0 0.456612,-0.1102 0.450638,-0.24488 z"
       id="path3785" />
  </g>
</svg>
