<?xml version="1.0" encoding="UTF-8" standalone="no"?>
<svg
   xmlns:dc="http://purl.org/dc/elements/1.1/"
   xmlns:cc="http://creativecommons.org/ns#"
   xmlns:rdf="http://www.w3.org/1999/02/22-rdf-syntax-ns#"
   xmlns:svg="http://www.w3.org/2000/svg"
   xmlns="http://www.w3.org/2000/svg"
   xmlns:sodipodi="http://sodipodi.sourceforge.net/DTD/sodipodi-0.dtd"
   xmlns:inkscape="http://www.inkscape.org/namespaces/inkscape"
   version="1.1"
   id="svg3339"
   width="1230"
   height="1080"
   viewBox="0 0 1230 1080"
   sodipodi:docname="flower02.svg"
   inkscape:version="1.0.1 (3bc2e813f5, 2020-09-07)">
  <metadata
     id="metadata3345">
    <rdf:RDF>
      <cc:Work
         rdf:about="">
        <dc:format>image/svg+xml</dc:format>
        <dc:type
           rdf:resource="http://purl.org/dc/dcmitype/StillImage" />
        <dc:title></dc:title>
      </cc:Work>
    </rdf:RDF>
  </metadata>
  <defs
     id="defs3343" />
  <sodipodi:namedview
     pagecolor="#ffffff"
     bordercolor="#666666"
     borderopacity="1"
     objecttolerance="10"
     gridtolerance="10"
     guidetolerance="10"
     inkscape:pageopacity="0"
     inkscape:pageshadow="2"
     inkscape:window-width="1920"
     inkscape:window-height="1001"
     id="namedview3341"
     showgrid="false"
     inkscape:zoom="0.54342466"
     inkscape:cx="385.38485"
     inkscape:cy="547.41237"
     inkscape:window-x="-9"
     inkscape:window-y="-9"
     inkscape:window-maximized="1"
     inkscape:current-layer="g3347" />
  <g
     inkscape:groupmode="layer"
     inkscape:label="Image"
     id="g3347">
    <path
       style="fill:#000000;stroke-width:0.887519"
       d="m 498.53236,955.255 c -0.27254,-0.27255 -4.0334,-1.05943 -8.35748,-1.74858 -19.63469,-3.12948 -39.05028,-8.30646 -63.15271,-16.83908 -9.40319,-3.32888 -25.91724,-13.3257 -25.91724,-15.68909 0,-0.45828 -0.29955,-0.67336 -0.66565,-0.4779 -0.95532,0.50999 -3.74018,-2.63568 -3.03236,-3.42525 0.32543,-0.36301 0.14437,-0.4048 -0.40233,-0.093 -1.3382,0.7635 -22.26062,-22.77754 -22.83284,-25.69053 -0.0749,-0.38123 -0.93493,-1.54005 -1.9112,-2.57516 -1.84528,-1.9565 -2.42461,-2.66897 -7.55612,-9.29264 -1.70176,-2.19662 -3.31062,-4.19353 -3.57523,-4.4376 -0.26463,-0.24406 -2.96046,-3.34954 -5.99075,-6.90106 -3.03031,-3.55152 -5.50963,-6.17264 -5.50963,-5.82471 0,0.34793 -1.09831,-0.39776 -2.44069,-1.65708 -1.34236,-1.25931 -4.83697,-3.79583 -7.76578,-5.6367 -2.92882,-1.84085 -5.56945,-3.71501 -5.8681,-4.1648 -0.29865,-0.44979 -0.89773,-0.79819 -1.33128,-0.77422 -1.53248,0.0847 -12.85127,-7.26102 -13.73623,-8.91461 -0.49373,-0.92252 -1.20746,-1.48584 -1.58608,-1.25185 -1.63463,1.01027 -13.6417,-15.1782 -21.71487,-29.27695 -4.35104,-7.59853 -12.69654,-26.94883 -13.19788,-30.60126 -0.16458,-1.19905 -0.57392,-2.61732 -0.90963,-3.15169 -1.32364,-2.10697 -4.15885,-17.34419 -5.1364,-27.60453 -0.77075,-8.08967 -0.78028,-13.24878 -0.0377,-20.41293 1.3659,-13.17789 4.15343,-27.37116 6.48797,-33.03494 0.51922,-1.25967 1.07434,-2.95088 1.23357,-3.75823 0.7744,-3.92622 10.09405,-23.82746 12.43736,-26.55881 0.66116,-0.77065 1.2021,-1.82744 1.2021,-2.34844 0,-0.77799 9.23008,-15.31301 11.70879,-18.43837 9.0229,-11.3768 12.85695,-15.91 21.93256,-25.93205 4.10273,-4.5306 7.74224,-8.23744 8.08776,-8.23744 0.34554,0 3.21695,-2.49614 6.38092,-5.54699 9.15261,-8.82537 26.4416,-22.9244 26.4416,-21.56288 0,0.21975 1.07612,-0.59778 2.3914,-1.81672 1.31527,-1.21896 4.80988,-3.86009 7.76579,-5.86917 7.81398,-5.31104 9.30921,-6.42071 9.34035,-6.93182 0.0479,-0.78475 -21.31695,0.84118 -29.55366,2.24914 -13.47493,2.30334 -22.06987,5.91988 -57.39533,24.15054 -28.90164,14.91548 -43.24114,18.51135 -59.12709,14.82716 -8.19502,-1.90056 -15.6005,-5.1395 -22.92522,-10.02684 -6.21906,-4.1496 -19.96567,-17.15524 -24.89374,-23.55191 -4.12166,-5.34994 -10.20091,-15.80008 -9.68094,-16.64139 0.25671,-0.41538 0.0904,-0.75523 -0.36964,-0.75523 -0.46001,0 -1.05273,-0.69891 -1.31716,-1.55316 -0.26442,-0.85423 -1.55502,-4.5409 -2.868,-8.19257 -3.63846,-10.11932 -4.85387,-15.53812 -5.87626,-26.19879 -1.81357,-18.91035 0.49299,-44.95124 5.51007,-62.20839 0.98027,-3.37181 2.37619,-8.32717 3.10204,-11.01192 4.29098,-15.87116 24.33511,-57.97414 29.4711,-61.90446 0.79734,-0.61016 1.17061,-1.1094 0.82947,-1.1094 -0.59838,0 5.94797,-10.10636 7.80243,-12.04553 0.50049,-0.52335 1.90844,-2.4177 3.12877,-4.20965 1.22035,-1.79196 2.51834,-3.26083 2.88444,-3.26417 0.36611,-0.003 0.66565,-0.46099 0.66565,-1.01704 0,-0.55602 2.27074,-3.65125 5.04612,-6.87826 5.60722,-6.5197 25.26956,-25.99229 25.75521,-25.50663 0.17026,0.17027 1.79652,-1.05964 3.61391,-2.73313 4.54934,-4.18917 14.41837,-10.83 22.38597,-15.06346 17.03406,-9.05078 35.36868,-12.52163 57.16078,-10.82084 11.24416,0.87755 33.426,5.32388 45.30626,9.08159 2.4179,0.76478 4.56264,1.22407 4.76607,1.02063 0.20343,-0.20343 0.12753,-1.33548 -0.16866,-2.51564 -0.59664,-2.37719 -7.55829,-5.92458 -11.6268,-5.92458 -5.04686,0 -20.88604,-6.79456 -20.88604,-8.95951 0,-0.44176 -0.49923,-0.83021 -1.1094,-0.86323 -0.61017,-0.033 -3.64986,-3.02839 -6.75486,-6.65638 l -5.64546,-6.59637 h -5.13317 c -5.72854,0 -16.05207,-2.84103 -17.74773,-4.88416 -0.60639,-0.73067 -1.56482,-1.32847 -2.12984,-1.32847 -1.15602,0 -5.44591,-4.40897 -8.2037,-8.43143 -2.15463,-3.14271 -4.76563,-9.81116 -4.98577,-12.73356 -0.0954,-1.26674 -1.1106,-2.56016 -2.62348,-3.34249 -1.3573,-0.70189 -2.46781,-1.68886 -2.46781,-2.19327 0,-0.5044 -0.36397,-0.69215 -0.80881,-0.41723 -1.28669,0.79521 -7.8158,-7.23415 -10.33098,-12.70486 -3.04639,-6.62611 -3.76199,-14.99866 -1.84543,-21.59142 3.51543,-12.09262 14.48245,-22.17325 25.58676,-23.51873 3.62957,-0.43979 4.28903,-0.84643 5.0876,-3.13718 0.52578,-1.50829 0.59719,-3.25762 0.16728,-4.0975 -2.45635,-4.79871 -1.54627,-16.84193 1.75071,-23.16731 2.98239,-5.72186 8.29161,-11.04117 13.80648,-13.83273 4.7255,-2.39199 5.99319,-2.62887 14.06865,-2.62887 7.91954,0 9.41897,0.26703 13.92526,2.47994 9.0717,4.45485 17.58168,16.30126 17.58168,24.47477 0,1.36474 0.20311,2.68445 0.45136,2.9327 0.24825,0.24825 2.73369,-0.31914 5.52319,-1.26087 8.04199,-2.71496 16.99648,-0.78088 22.82786,4.93059 2.83896,2.7806 6.03399,8.40842 5.37707,9.47135 -0.30719,0.49705 -0.13556,0.90371 0.38137,0.90371 0.51713,0 0.93991,1.73239 0.93991,3.85137 0,3.26585 0.34368,4.00798 2.26056,4.88136 1.24331,0.5665 2.42227,1.02999 2.61992,1.02999 0.19764,0 1.64182,-1.89708 3.20925,-4.21572 1.56745,-2.31865 3.48372,-4.87077 4.25836,-5.67137 0.77465,-0.80061 3.00598,-3.74615 4.95853,-6.54566 1.95255,-2.79949 5.23324,-7.2881 7.29047,-9.97468 4.7828,-6.24603 17.81567,-16.39747 22.44142,-17.47987 0.24407,-0.0572 2.04129,-1.11703 3.99384,-2.35538 4.21143,-2.671 11.08829,-5.49455 11.10758,-4.56061 0.007,0.36216 0.30701,0.20083 0.66563,-0.3585 0.80662,-1.25802 15.803,-5.8784 25.94635,-7.99406 5.83333,-1.2167 11.77003,-1.57362 26.18181,-1.5741 18.16242,-6e-4 19.03413,0.084 34.16948,3.31503 31.98093,6.8272 27.77299,6.42476 50.82949,4.86119 29.43238,-1.99596 38.57039,-0.61717 51.79424,7.81503 12.34092,7.86918 29.22001,25.76218 38.93557,41.27438 0.48813,0.77938 2.2012,3.37537 3.80682,5.76887 8.34418,12.43874 19.19602,38.23741 23.48323,55.82794 2.50792,10.29002 2.81148,34.24731 0.53556,42.2662 -1.3198,4.6502 -1.3147,4.96383 0.0749,4.60043 0.82022,-0.21449 2.25436,-1.80691 3.187,-3.53869 0.93263,-1.73179 4.10436,-5.34474 7.0483,-8.02877 5.35463,-4.88189 22.74121,-17.10504 24.33073,-17.10504 0.46372,0 0.97626,-0.32278 1.13899,-0.7173 0.3146,-0.76281 8.28972,-6.38285 9.05757,-6.38285 0.24985,0 3.97203,-2.14249 8.27154,-4.7611 32.8,-19.97684 71.23944,-31.01691 95.02583,-27.29207 7.02513,1.10011 18.13532,4.57593 23.70407,7.41582 4.07838,2.07984 8.76882,5.25446 9.20011,6.22687 0.16373,0.36914 0.5982,0.48543 0.96551,0.25842 0.60635,-0.37475 20.16973,12.26201 26.34878,17.0197 1.41002,1.08567 5.38982,4.08106 8.844,6.65639 6.8276,5.09049 16.13576,13.02024 22.68599,19.32651 12.7122,12.23874 15.69444,15.23749 21.18313,21.30046 14.1112,15.58742 29.2393,36.5924 35.476,49.2573 0.7211,1.46441 2.1902,4.10684 3.2644,5.87208 1.0744,1.76522 3.8396,7.75598 6.1452,13.31278 3.8057,9.17284 5.0527,13.0025 8.7801,26.96613 5.6089,21.01169 5.588,49.67042 -0.05,69.67024 -0.757,2.68475 -1.9863,7.07616 -2.7319,9.7587 -1.6504,5.93821 -9.4384,23.6497 -13.0752,29.7359 -16.4878,27.59279 -28.3349,38.14351 -53.92932,48.02804 -4.29364,1.65822 -8.91379,3.15972 -10.267,3.33669 -1.3532,0.17697 -3.05945,0.54751 -3.79166,0.82345 -2.44102,0.91992 -13.77854,3.21486 -24.62019,4.98362 -15.68437,2.55883 -37.3987,3.89466 -64.79665,3.98621 l -24.18417,0.0807 -7.2e-4,1.94453 c -3.8e-4,1.06949 0.46038,2.22951 1.02394,2.57781 0.69555,0.42988 0.78077,0.23867 0.26531,-0.59535 -0.41764,-0.67576 0.45696,-0.23824 1.94353,0.97226 1.48655,1.21049 5.361,4.36933 8.60987,7.01963 3.24887,2.6503 5.90703,5.17002 5.90703,5.59938 0,0.42935 0.3674,0.55357 0.81645,0.27604 0.44903,-0.27753 1.54735,0.39782 2.44068,1.50078 0.89332,1.10295 3.22175,3.08672 5.1743,4.40837 1.95254,1.32165 5.54698,4.25838 7.98766,6.52608 2.44069,2.2677 5.43607,4.76158 6.6564,5.54197 1.22034,0.78039 2.81787,1.94375 3.55007,2.58522 0.73221,0.64148 4.32666,3.61027 7.98768,6.59728 38.56918,31.46865 65.18734,64.70256 76.66354,95.71776 3.29882,8.91524 4.036,11.71088 6.39422,24.24806 1.80282,9.58426 1.33253,30.38433 -0.9152,40.4778 -2.91702,13.09938 -11.95781,31.68211 -22.23502,45.70281 -7.51488,10.25218 -26.61119,30.55333 -27.70818,29.45634 -0.27726,-0.27726 -1.78145,0.5851 -3.34263,1.91636 -1.56119,1.33125 -3.74926,3.01955 -4.86238,3.75175 -1.11312,0.7322 -2.47416,1.74919 -3.02452,2.25997 -2.21356,2.05408 -15.1954,10.16534 -16.26962,10.16534 -0.63278,0 -1.15049,0.39127 -1.15049,0.86949 0,0.47821 -1.49769,1.68658 -3.32819,2.68526 -1.83052,0.99867 -6.32358,3.66553 -9.98459,5.92636 -8.57832,5.29745 -30.06021,16.25539 -31.88027,16.26217 -0.77094,0.002 -7.59722,1.54719 -15.16952,3.43184 -7.5723,1.88463 -16.75812,3.92194 -20.41294,4.52738 -3.65481,0.60542 -9.7769,1.65566 -13.60464,2.33385 -13.84584,2.45318 -35.00442,3.43124 -50.06729,2.31434 -15.57279,-1.15471 -20.5904,-1.99037 -33.50013,-5.57941 -9.31791,-2.59046 -27.31858,-9.76152 -29.68001,-11.82386 -0.76075,-0.66436 -2.78101,-1.9018 -4.48948,-2.74983 -5.41856,-2.68959 -17.0526,-12.05096 -24.62866,-19.8175 -4.02711,-4.12836 -7.32203,-7.81843 -7.32203,-8.20012 0,-0.3817 -1.0503,-1.94222 -2.33401,-3.46781 -2.19527,-2.60894 -10.97877,-16.53669 -10.97877,-17.40873 0,-0.22104 -0.93276,-1.89162 -2.07282,-3.71242 -1.14005,-1.82082 -3.79975,-6.50564 -5.91045,-10.41072 -2.11068,-3.90508 -5.27159,-9.35711 -7.02424,-12.11562 -1.75265,-2.75853 -3.61152,-5.72532 -4.13081,-6.59288 -0.56209,-0.93905 -1.51009,-1.36023 -2.34258,-1.04076 -1.09142,0.41881 -1.42088,2.03188 -1.50079,7.34788 -0.13793,9.17635 -5.20334,32.27998 -10.61618,48.42106 -9.23059,27.52562 -21.75944,47.83139 -37.84742,61.34009 -7.58025,6.36497 -7.01118,5.94307 -12.42527,9.21199 -9.50242,5.73741 -15.60931,7.93839 -36.59675,13.18997 -5.41051,1.35382 -33.86172,2.07555 -35.04819,0.88911 z m 41.48081,-29.541 c 9.81346,-2.07263 18.83037,-5.57276 25.2648,-9.80717 24.1187,-15.87216 38.87063,-51.67156 42.7004,-103.62362 1.15833,-15.71312 0.57562,-70.44415 -0.97184,-91.28149 -1.55153,-20.89193 -1.30369,-38.20099 1.16284,-81.20799 1.30179,-22.69829 2.5652,-43.36639 2.80759,-45.9291 0.24239,-2.56272 0.0909,-4.65948 -0.33659,-4.65948 -1.41194,0 -21.66835,15.59767 -30.48068,23.47048 -20.48764,18.30336 -40.68391,46.92771 -52.15018,73.9129 -1.61256,3.79506 -4.30784,10.09518 -5.98952,14.00026 -3.15601,7.32869 -4.88088,11.83717 -16.63792,43.48844 -3.80772,10.25084 -7.006,18.74891 -7.10727,18.88461 -0.10124,0.13569 -1.27857,-0.16941 -2.61623,-0.67798 -1.80916,-0.68785 -2.27689,-1.31934 -1.82615,-2.46552 1.7012,-4.32582 4.22548,-16.94611 7.13336,-35.66377 4.66487,-30.02716 8.64045,-43.85729 18.52621,-64.44837 12.44534,-25.92243 28.06754,-47.51793 50.51898,-69.83541 12.71054,-12.63469 12.71115,-12.72239 0.0664,-9.57155 -10.77171,2.68411 -16.78575,4.97272 -25.98765,9.88941 -21.79717,11.64652 -44.6062,31.34351 -67.20605,58.03651 -14.42423,17.03667 -31.24475,43.50836 -35.24646,55.46994 -1.95899,5.85568 -24.50203,67.69421 -24.77146,67.9514 -0.35624,0.34005 -2.73585,0.60906 -4.35868,0.49273 -1.34647,-0.0965 -1.33147,-0.56056 0.18268,-5.65216 0.90728,-3.05085 2.89737,-12.73589 4.42241,-21.52233 3.59572,-20.71635 4.54373,-24.69432 8.90541,-37.36808 11.21021,-32.57362 29.66004,-64.27515 52.34901,-89.949 3.68714,-4.17219 7.88067,-8.93302 9.31896,-10.57961 1.43828,-1.64658 6.67138,-6.70952 11.62911,-11.25097 4.95773,-4.54144 8.85363,-8.41758 8.65757,-8.61364 -0.93002,-0.93003 -23.62375,4.95755 -34.09073,8.84437 -9.31108,3.45759 -28.20816,12.66625 -40.0374,19.51047 -6.6576,3.852 -7.84891,4.2715 -9.24049,3.25395 -1.53526,-1.1226 -1.5314,-1.31598 0.099,-4.9592 2.26253,-5.05565 11.75035,-14.57747 19.53352,-19.60352 8.00159,-5.1671 21.46217,-11.32028 41.18309,-18.82585 8.54237,-3.25113 19.62526,-7.84593 24.62866,-10.21065 7.90968,-3.7383 9.09706,-4.58465 9.09706,-6.48426 0,-1.89761 -0.6124,-2.33617 -4.65947,-3.3368 -6.25192,-1.54577 -22.62622,-1.30304 -30.84129,0.45721 -17.06208,3.65588 -59.16369,18.65425 -78.87537,28.09872 -43.04655,20.62496 -82.46391,69.09388 -96.91894,119.17481 -4.59632,15.92442 -5.58313,22.87469 -5.62574,39.62326 -0.0412,16.194 0.49578,20.21423 4.50468,33.72571 3.61202,12.17381 9.07491,20.41295 13.53465,20.41295 1.64753,0 1.49608,0.30099 11.61174,-23.0755 4.39234,-10.15035 8.01688,-16.56726 17.15691,-30.37485 6.37348,-9.6282 11.69245,-17.40149 11.81993,-17.274 0.21137,0.21136 -2.0998,10.96137 -11.67519,54.30524 -10.75827,48.69832 -10.2148,44.74163 -6.48591,47.22079 1.61921,1.07653 5.85555,3.15724 9.41407,4.6238 l 6.47004,2.66647 0.78807,-2.07276 c 1.60364,-4.21786 2.66648,-9.25132 4.49032,-21.26516 1.02828,-6.77343 2.57493,-14.56141 3.437,-17.30663 1.90633,-6.07056 6.49472,-16.01027 7.41078,-16.05373 1.11046,-0.0527 0.72281,6.28056 -0.7586,12.39369 -1.96544,8.11044 -2.00866,31.94108 -0.0736,40.50505 3.65933,16.19384 10.82457,30.81663 21.68419,44.25302 8.20197,10.14813 25.99807,29.1797 29.83888,31.91042 9.42685,6.70225 48.74432,17.41255 73.41441,19.99849 11.13409,1.16709 31.85577,0.34994 41.20652,-1.62495 z m 248.86405,-41.0087 c 2.9602,-13.80297 -1.56816,-45.34945 -9.67611,-67.40776 -4.10762,-11.17509 -4.01099,-10.65022 -1.96077,-10.65022 2.14251,0 6.91111,5.32838 11.03487,12.33022 9.75511,16.56349 15.70358,38.25038 16.05023,58.5158 l 0.1569,9.17298 7.98768,-0.55242 c 31.99604,-2.2128 44.15056,-4.73098 65.09718,-13.48689 37.49643,-15.67391 69.55745,-42.78053 84.29781,-71.27129 7.21894,-13.95302 9.92623,-24.50452 9.89928,-38.58172 -0.033,-17.17247 -5.53798,-32.22245 -19.82253,-54.19147 -10.94068,-16.82631 -21.36894,-29.2647 -40.94114,-48.83288 -14.17217,-14.16927 -25.89135,-24.18058 -41.72939,-35.64806 -33.08149,-23.95254 -80.15459,-48.74574 -131.61943,-69.32343 l -10.38361,-4.15177 -27.37351,-0.26102 c -21.39776,-0.20404 -27.29385,-0.0221 -27.00869,0.8334 0.20065,0.60195 8.52489,3.16776 18.49832,5.70184 16.62217,4.2234 19.8348,5.38197 38.54643,13.90101 32.84717,14.95469 48.76536,23.24056 63.01385,32.80056 22.12154,14.84238 37.55717,27.58514 36.09963,29.80176 -0.57998,0.88204 -5.02925,-0.93059 -18.87302,-7.68886 -9.96277,-4.86362 -24.10488,-11.51756 -31.42691,-14.78651 -21.18659,-9.45884 -75.26563,-31.47653 -77.32737,-31.483 -0.5504,-0.002 -1.46077,0.55119 -2.02304,1.22869 -0.82548,0.99463 -0.0898,1.75808 3.82065,3.96501 29.45059,16.62088 92.97026,99.27569 109.71904,142.77161 1.40487,3.64837 3.02758,8.74831 3.60606,11.33318 1.04328,4.66184 0.60217,9.32699 -0.88189,9.32699 -0.42476,0 -2.77898,-4.09368 -5.23162,-9.09706 -6.28605,-12.82362 -27.33393,-44.12463 -42.2235,-62.79197 -15.01153,-18.82027 -19.03902,-23.56929 -29.73072,-35.05701 -12.31004,-13.22657 -25.32236,-25.48451 -40.7337,-38.37222 -14.91829,-12.4754 -51.2823,-33.20482 -53.09721,-30.26824 -0.29348,0.47484 -0.39375,0.95134 -0.22284,1.05888 5.26037,3.30985 8.72583,6.41472 14.29624,12.80865 15.83739,18.17879 38.73282,50.87848 65.38211,93.38001 21.50811,34.30212 27.89264,45.4545 26.91194,47.00923 -0.47202,0.74831 -1.40778,1.36055 -2.07947,1.36055 -1.08724,0 -13.62609,-13.72595 -52.69946,-57.68873 -6.5077,-7.32203 -16.49189,-19.30354 -22.18707,-26.62557 -11.80748,-15.18026 -11.50009,-14.78236 -25.69594,-33.26218 -14.67014,-19.09724 -23.69035,-30.39555 -23.9883,-30.04667 -0.40667,0.47616 -1.31813,27.48467 -1.91189,56.65245 -0.43099,21.17187 -0.24365,30.49365 0.85983,42.78692 4.34231,48.37495 14.1439,84.88682 31.99523,119.18531 10.52468,20.2215 16.43818,28.22165 42.61203,57.64823 12.23688,13.75761 16.04573,17.51089 19.13216,18.85309 15.87204,6.90228 24.48847,9.15561 49.71723,13.00187 1.22033,0.18604 6.47907,0.39265 11.68608,0.45913 l 9.46728,0.12087 z M 272.85842,586.10263 c 6.82611,-1.80828 21.96805,-9.08038 36.5181,-17.53828 15.98478,-9.29188 28.1755,-15.27181 36.36119,-17.83629 6.31083,-1.9771 11.74354,-2.50996 55.36722,-5.43062 26.60338,-1.78114 58.95345,-3.98591 71.88903,-4.89949 12.93559,-0.91361 31.20739,-2.16023 40.604,-2.77032 12.98486,-0.84305 17.08474,-1.38993 17.08474,-2.27895 0,-0.64334 -0.13336,-1.16971 -0.2964,-1.16971 -0.26834,0 -66.46279,-22.42826 -88.01174,-29.82048 -4.88136,-1.6745 -18.66009,-5.05587 -30.61941,-7.51415 -11.95931,-2.45826 -24.14052,-5.06336 -27.06933,-5.78911 -9.62308,-2.38454 -26.18182,-7.76734 -26.18182,-8.511 0,-0.92821 23.37987,-0.86737 51.91987,0.13514 17.69777,0.62165 24.6127,1.23952 34.16948,3.05313 24.3439,4.6198 48.02466,11.55258 77.90999,22.80897 8.92508,3.36164 16.41352,6.11208 16.64098,6.11208 0.22746,0 0.41358,-0.40835 0.41358,-0.90746 0,-0.49911 -3.49461,-3.1521 -7.76579,-5.89557 -4.27119,-2.74345 -11.55994,-7.4698 -16.19722,-10.50298 -4.6373,-3.0332 -14.82157,-9.63104 -22.63174,-14.66188 -19.87342,-12.80127 -27.08936,-17.49014 -44.57403,-28.96398 -29.74837,-19.52154 -46.49491,-26.4264 -103.99429,-42.87841 -38.98207,-11.15375 -43.80379,-12.68361 -44.25654,-14.04186 -0.27739,-0.8322 0.81505,-0.9939 4.36927,-0.64673 2.60653,0.25461 12.62148,0.87617 22.25544,1.38125 41.00076,2.14955 91.72291,15.08158 121.82419,31.06008 7.05745,3.74627 16.11323,9.38148 28.84438,17.94922 44.63457,30.03794 51.02091,34.06209 51.87178,32.68537 0.57434,-0.92932 -27.07744,-32.7142 -42.10907,-48.40306 -17.04108,-17.7862 -27.21944,-26.81033 -38.37744,-34.02544 -8.04161,-5.19996 -6.43179,-5.95623 4.42983,-2.08109 10.65001,3.79966 16.13357,6.37448 20.4199,9.58828 1.59028,1.19234 5.58412,3.55336 8.8752,5.24672 12.87559,6.62483 22.69952,15.63757 41.51811,38.08985 12.30499,14.681 18.25194,21.25924 22.42726,24.80806 l 2.03844,1.73256 -0.87439,-2.29981 c -1.74236,-4.58273 -8.44708,-17.33288 -13.62184,-25.90418 -14.74989,-24.43124 -30.9971,-44.96736 -64.61441,-81.67125 -14.18598,-15.48848 -11.99094,-14.12371 -34.5843,-21.50289 -60.40799,-19.72977 -106.20613,-19.94969 -141.8866,-0.68134 -11.68862,6.31216 -18.24453,11.31994 -29.4643,22.50649 -15.64659,15.60028 -24.86174,28.87846 -38.9321,56.09754 -17.78817,34.41124 -22.09218,51.82789 -20.35892,82.38476 0.69892,12.32186 1.74248,17.75039 3.4123,17.75039 0.30956,0 2.21747,-2.34627 4.23979,-5.21394 2.02234,-2.86766 6.19464,-7.11105 9.27179,-9.42975 7.20645,-5.4302 32.53457,-17.79158 33.82022,-16.50595 0.63502,0.63503 -2.92571,4.84623 -11.49435,13.59415 -14.70633,15.01403 -21.24692,23.02792 -25.1934,30.86827 -2.43079,4.82921 -2.91058,6.78082 -2.94561,11.9815 -0.0351,5.22373 0.4061,7.13091 2.7723,11.98152 3.09906,6.35296 11.20793,16.20929 18.9881,23.08006 3.80651,3.36157 6.28503,4.75871 10.20647,5.75339 6.22911,1.58 17.82583,1.1845 25.59209,-0.87281 z M 625.68273,557.8733 c 2.63992,-1.39602 4.53928,-3.29464 5.99315,-5.99075 1.91479,-3.55089 2.08072,-4.70418 1.65323,-11.49095 -1.62188,-25.74839 -34.79924,-87.84833 -81.92417,-153.34211 -18.50746,-25.72148 -23.18925,-30.83991 -49.12285,-53.70426 -10.00677,-8.82246 -22.85254,-20.70032 -28.54615,-26.39524 -11.05439,-11.05691 -12.69993,-13.8835 -12.1281,-20.83258 l 0.29214,-3.55008 5.96899,0.31158 c 10.24595,0.53485 17.55026,-4.73576 17.55026,-12.66379 0,-4.24845 -1.71109,-7.43835 -6.1328,-11.4331 -6.14197,-5.5489 -10.17949,-5.46426 -16.48236,0.34554 -3.49669,3.22314 -11.11056,16.48969 -11.11056,19.35925 0,1.68088 -2.8206,1.062 -4.66107,-1.02272 -4.50036,-5.09764 -5.10165,-8.4413 -5.10165,-28.36943 0,-17.18676 -0.14326,-18.91326 -1.79066,-21.57881 -3.28915,-5.32196 -9.93263,-8.05182 -15.73783,-6.46684 -3.00081,0.81931 -10.8878,7.63849 -10.86286,9.39215 0.006,0.35754 2.80076,4.1181 6.21264,8.3568 3.41185,4.23871 6.20337,8.11864 6.20337,8.62209 0,1.61817 -3.31026,2.75283 -8.0311,2.75283 -6.12799,0 -11.8989,3.17407 -15.77935,8.67886 -6.14454,8.71661 -5.09091,8.19544 -8.60151,4.25476 -4.36526,-4.90004 -5.26528,-8.95149 -4.06601,-18.303 1.92589,-15.01718 0.5714,-21.38697 -5.50197,-25.87445 -6.22117,-4.59668 -9.79578,-5.2292 -13.42389,-2.37534 -2.25438,1.77331 -2.38323,2.27136 -2.23867,8.65331 0.0844,3.72446 -0.13162,7.8585 -0.47997,9.1868 -0.62945,2.40017 -0.65304,2.40684 -3.82399,1.08193 -7.96088,-3.32626 -12.60838,-9.04353 -12.58232,-15.47852 0.0193,-4.75142 1.82143,-8.95385 8.40196,-19.59207 6.8363,-11.05169 7.81913,-13.84202 7.4038,-21.02021 -0.25327,-4.37754 -1.11655,-7.62319 -3.21794,-12.0984 l -2.87182,-6.11594 -5.28839,0.55275 c -6.95571,0.72701 -12.36065,3.37467 -15.10065,7.3972 -2.14754,3.15275 -2.23606,3.87239 -2.75591,22.40754 -0.29541,10.5326 -0.59494,19.30228 -0.66564,19.48819 -0.44836,1.17911 -7.00334,-1.15706 -10.07693,-3.59139 -2.33966,-1.85304 -3.80616,-2.52145 -4.03379,-1.83855 -0.19671,0.59015 -2.55968,4.37355 -5.25105,8.40758 -5.78237,8.66706 -5.8673,10.31352 -1.10127,21.3465 2.35132,5.44312 3.46008,7.03082 5.21805,7.47204 3.36792,0.84529 13.37102,-2.06347 25.53732,-7.42589 0.60605,-0.26713 1.3714,0.21655 1.70076,1.07483 0.76969,2.0058 -2.285,7.7565 -6.59086,12.40781 -2.89853,3.13108 -6.07304,8.35116 -5.34211,8.78441 0.14031,0.0832 2.89539,2.42785 6.12241,5.21042 3.22702,2.78257 6.56141,5.05922 7.40978,5.05922 4.58496,0 16.25106,-9.28685 20.96238,-16.68716 1.33691,-2.09997 2.68644,-3.40441 2.99895,-2.89877 0.3125,0.50565 0.79888,7.2161 1.08081,14.91211 0.43343,11.83111 0.79472,14.50691 2.33867,17.32088 4.28217,7.80464 15.75924,8.98667 31.96043,3.29163 12.21263,-4.29297 12.49219,-3.74672 4.54059,8.87257 -3.58885,5.69558 -3.9978,10.45712 -1.28082,14.91332 3.65991,6.00276 10.98163,8.03932 17.60423,4.89669 4.65295,-2.20796 10.42696,-8.62712 12.70596,-14.12561 1.67573,-4.04302 2.32191,-4.75761 4.30206,-4.75761 2.29282,0 2.36357,0.18829 4.41908,11.75962 l 2.08894,11.75962 13.83363,14.19154 c 7.60849,7.80534 14.63371,14.99425 15.61159,15.97535 1.65776,1.66318 19.44727,23.05998 24.40385,29.35232 1.22033,1.54923 6.41231,7.93583 11.53774,14.19247 5.12542,6.25664 11.16197,13.63285 13.41454,16.39157 5.40351,6.61764 25.63629,37.07728 25.63629,38.59437 0,0.19706 1.25271,2.47263 2.78379,5.05682 9.08171,15.3284 25.06106,49.84467 36.89434,79.6939 9.06102,22.85617 11.01687,26.8709 13.72542,28.17391 3.46461,1.66671 9.02729,1.27488 13.19587,-0.92951 z m 283.97063,0.24599 c 48.64172,-2.51053 77.28223,-10.53125 94.11124,-26.35568 3.7488,-3.52506 9.036,-9.71551 11.7493,-13.75655 4.8101,-7.16411 13.067,-23.03939 13.067,-25.12347 0,-1.2078 -8.5217,-3.67139 -16.8628,-4.875 -21.4931,-3.1014 -56.57508,2.25035 -79.72589,12.16217 -6.20178,2.65524 -7.7391,3.00758 -9.54084,2.18666 -1.18128,-0.53823 -2.14779,-1.39705 -2.14779,-1.9085 0,-0.51145 1.72329,-2.65319 3.82952,-4.75942 3.87953,-3.87953 13.42014,-9.01971 22.6797,-12.21912 20.1039,-6.94639 54.8104,-12.20659 73.5402,-11.14594 l 9.1154,0.51621 -0.035,-2.39092 c -0.019,-1.31501 -0.4012,-9.77952 -0.8496,-18.81003 -1.4976,-30.16458 -8.8525,-55.15605 -23.377,-79.43295 -11.45799,-19.15135 -23.22135,-32.79701 -53.98752,-62.62602 -44.243,-42.89531 -48.33367,-45.71869 -71.04502,-49.03511 -4.54533,-0.66373 -18.8961,1.06988 -27.50681,3.32289 -33.05573,8.64907 -69.70077,32.05266 -107.09972,68.39988 -23.4112,22.75283 -45.6578,49.39676 -57.77739,69.19782 -2.52969,4.13301 -31.84117,68.12276 -37.87068,82.6753 -0.22671,0.54716 0.22262,1.23846 0.9985,1.5362 0.95848,0.36779 1.67148,-0.14457 2.22419,-1.59832 1.70166,-4.47572 10.54431,-21.57048 13.79606,-26.67082 6.9216,-10.85641 16.25616,-22.46266 27.04701,-33.62924 14.59409,-15.10222 41.06443,-38.38366 47.85724,-42.09182 6.13274,-3.34784 6.80036,-2.6348 2.95323,3.15413 -3.80694,5.72848 -25.48831,35.93262 -34.07744,47.47304 -18.81839,25.28449 -33.47638,48.24206 -42.98186,67.31884 -6.04381,12.13017 -6.13439,12.35747 -4.92492,12.35747 0.42713,0 2.48665,-3.42014 4.57676,-7.60033 10.13691,-20.27382 31.29878,-44.83674 58.12271,-67.46395 11.45335,-9.66143 14.91288,-12.352 29.71346,-23.10889 16.81365,-12.21996 40.68729,-26.44709 61.68257,-36.75878 27.73839,-13.62352 35.85757,-16.41299 41.25962,-14.1754 4.67733,1.93743 3.03403,4.96486 -5.1046,9.40417 -10.9943,5.99698 -29.80531,17.4613 -44.01549,26.82513 -40.19622,26.48741 -69.57193,52.27692 -91.21196,80.07678 -7.60358,9.76793 -16.30633,23.33398 -15.20456,23.70123 0.38204,0.12735 3.1236,-2.06641 6.09234,-4.87503 8.88446,-8.40527 28.21771,-17.60114 58.92734,-28.02886 22.19719,-7.53724 41.73983,-12.11654 44.37597,-10.39833 1.15109,0.7503 1.09104,1.0948 -0.44377,2.54555 -1.43351,1.355 -41.83393,25.93011 -92.07221,56.00646 -7.60884,4.55521 -9.29723,5.93533 -8.38144,6.85113 0.25164,0.25164 4.98438,0.99377 10.51723,1.6492 7.30413,0.86527 11.88303,1.95692 16.71609,3.9853 16.15718,6.78094 42.16467,14.73936 63.90138,19.55415 19.06755,4.22356 50.14439,7.36932 85.64559,8.66949 2.44068,0.0894 12.22558,-0.23943 21.74422,-0.73072 z M 549.32061,475.60272 c 0,-0.48814 -0.39939,-0.88753 -0.88752,-0.88753 -0.48813,0 -0.88752,0.39939 -0.88752,0.88753 0,0.48813 0.39939,0.88751 0.88752,0.88751 0.48813,0 0.88752,-0.39938 0.88752,-0.88751 z M 647.87,447.87855 c 4.5523,-8.90253 15.81913,-29.57062 25.03739,-45.92912 35.23219,-62.52206 46.43127,-89.88451 48.26959,-117.93597 1.5866,-24.21035 -7.96672,-46.76654 -33.83154,-79.87899 -10.29592,-13.181 -23.98029,-28.22302 -27.35409,-30.06799 -2.52623,-1.38146 -6.82533,-1.60367 -39.22546,-2.02743 l -36.38828,-0.47593 -15.97534,-3.70845 c -18.37061,-4.26448 -25.70597,-5.53401 -31.95069,-5.52969 -7.57272,0.006 -10.8059,0.86408 -11.84596,3.14679 -2.13719,4.6906 -3.03895,17.76904 -2.47445,35.88757 0.31678,10.16758 0.21992,18.73128 -0.21951,19.4117 -1.83191,2.83645 -3.11182,-0.13138 -5.89937,-13.67923 -2.90557,-14.12144 -6.41569,-27.63017 -9.04598,-34.81349 -0.97521,-2.66333 -2.02328,-3.94653 -3.53276,-4.32539 -10.02882,-2.51707 -28.4422,9.48632 -51.6227,33.65203 l -5.65152,5.89173 4.46854,5.01359 c 2.4577,2.75749 5.9851,8.06625 7.83866,11.79727 1.85356,3.73102 3.49801,6.96389 3.65436,7.18416 0.15632,0.22027 4.49941,1.10042 9.65131,1.9559 10.84914,1.80152 15.44176,3.78192 21.5904,9.31007 12.69709,11.41579 14.27746,31.60463 3.74911,47.89405 -1.90118,2.94147 -4.57939,6.23125 -5.95158,7.31063 -1.48464,1.16781 -2.16381,2.27628 -1.67723,2.73742 0.95375,0.90386 15.00596,12.50808 27.48074,22.69342 4.78286,3.90509 10.70121,8.7977 13.1519,10.87249 3.28431,2.78054 4.65618,3.48055 5.218,2.66256 0.41921,-0.61039 0.50461,-8.29868 0.18975,-17.08513 -0.49707,-13.87116 -0.37327,-16.47216 0.93991,-19.7473 1.42662,-3.55802 3.0947,-5.02819 3.0947,-2.72753 0,0.57442 3.03158,11.25793 6.73685,23.74113 12.7688,43.01863 11.4834,39.77677 22.69119,57.22889 5.5366,8.62128 10.93307,16.75931 11.99213,18.08452 l 1.92558,2.40949 1.10291,-2.66256 c 2.42971,-5.86567 2.05063,-25.93058 -0.99767,-52.80738 l -2.86882,-25.29429 1.55436,-44.37595 c 0.85491,-24.40677 1.60948,-44.44334 1.67683,-44.5257 0.0674,-0.0824 1.12765,-0.40201 2.35618,-0.71036 l 2.23373,-0.56062 1.59605,15.35442 c 0.87783,8.44494 3.98646,37.12083 6.90808,63.72422 5.03644,45.86031 5.35522,50.07347 6.1445,81.20799 0.45785,18.06102 1.24476,35.59443 1.74867,38.96314 0.55616,3.71793 2.26137,8.94962 4.33917,13.31278 6.09718,12.80342 5.93049,13.00356 6.60564,-7.93048 1.69075,-52.42393 5.65579,-78.23511 16.28768,-106.02801 3.15342,-8.24337 13.21154,-26.40406 14.12033,-25.49527 0.15337,0.15337 -0.93944,4.05548 -2.42845,8.67136 -10.70279,33.17792 -12.90567,76.19508 -6.95173,135.75146 0.95159,9.51864 1.7327,17.60616 1.73578,17.97226 0.0223,2.64253 2.6115,-1.45681 9.80311,-15.52078 z M 405.04016,210.01265 c -0.2149,-1.58644 -0.80088,-6.87031 -1.30215,-11.74192 -0.50125,-4.87161 -1.19892,-9.12662 -1.55035,-9.45559 -1.09994,-1.02958 -19.10046,-2.63129 -19.95605,-1.7757 -1.31445,1.31445 2.3969,7.41734 8.77448,14.42859 10.82709,11.90287 14.8182,14.33285 14.03407,8.54462 z"
       id="path3912" />
    <path
       style="fill:#ff2a2a;stroke:#000000;stroke-width:1.84018"
       d="m 476.47383,922.65907 c -18.80588,-4.03848 -37.38267,-9.8421 -47.08863,-14.71106 -7.576,-3.80045 -35.10687,-34.35464 -42.60596,-47.28475 -11.56211,-19.93568 -15.21263,-43.00187 -11.49731,-72.64716 3.1109,-24.82254 -7.78703,-3.10211 -12.77152,25.45466 -1.55115,8.88668 -3.55464,16.89198 -4.45221,17.78955 -2.08777,2.08778 -14.70739,-3.08328 -16.04756,-6.57569 -0.54906,-1.43083 3.62459,-23.55462 9.27477,-49.16396 5.65018,-25.60937 9.9662,-47.45534 9.59115,-48.54662 -1.1359,-3.30512 -24.38654,33.75377 -31.66153,50.46488 -8.55411,19.64937 -9.36001,20.50794 -13.81465,14.71759 -7.82226,-10.16772 -11.831,-27.14204 -11.73385,-49.6849 0.12791,-29.68142 7.87897,-55.15852 25.80048,-84.80406 20.02705,-33.12853 47.24444,-58.49899 78.92011,-73.56473 22.03451,-10.48016 62.25187,-24.5962 78.43838,-27.53137 13.20989,-2.39541 31.66028,-0.89369 30.56262,2.48756 -0.38473,1.1851 -10.98995,6.42414 -23.56717,11.64231 -40.20254,16.67969 -48.44358,20.76203 -57.41907,28.44351 -9.60379,8.2192 -15.54459,17.59932 -12.8518,20.2921 1.00626,1.00627 9.39861,-2.35824 21.02453,-8.42878 18.61614,-9.72052 49.05281,-21.27161 56.04984,-21.27161 2.35475,0 -0.80942,4.28386 -10.53388,14.26141 -19.64383,20.1551 -28.14189,31.0608 -41.38315,53.10771 -16.10653,26.81761 -25.59138,52.16914 -32.38194,86.55189 -3.08852,15.63812 -5.13874,28.90971 -4.55606,29.49238 3.35971,3.35972 7.50023,-4.66822 19.62195,-38.04452 15.2684,-42.04043 24.72349,-59.53456 46.12275,-85.33791 30.8795,-37.2347 66.34359,-63.11962 94.05601,-68.65067 5.90517,-1.1786 5.5896,-0.66015 -9.25244,15.20088 -24.86681,26.57406 -44.18701,58.16832 -53.44811,87.40358 -2.06035,6.50413 -6.27636,25.67386 -9.36889,42.5994 -3.09254,16.92554 -6.06618,31.9292 -6.60813,33.34147 -0.58266,1.51839 0.46004,2.94574 2.55146,3.49266 3.08466,0.80665 5.00029,-2.98518 14.98475,-29.66111 20.88991,-55.81261 35.7848,-83.02797 58.91512,-107.6475 12.4989,-13.30362 38.49586,-35.08994 40.03508,-33.55072 0.48598,0.48598 -0.14095,15.63556 -1.39303,33.66573 -1.25215,18.03017 -1.97525,52.24205 -1.60692,76.02639 1.71827,110.94999 0.5018,133.57144 -8.75748,162.85607 -7.41952,23.46594 -22.89889,45.01017 -37.82337,52.64269 -18.83192,9.63083 -52.75723,11.73688 -83.32434,5.1727 z"
       id="path3914" />
    <path
       style="fill:#ff2a2a;stroke:#000000;stroke-width:1.84018"
       d="m 751.58097,885.14001 c -26.88477,-5.47268 -32.6656,-8.58925 -50.31779,-27.12744 -23.28642,-24.45518 -36.86859,-43.26327 -48.10115,-66.60875 -23.32082,-48.46935 -32.5076,-102.84566 -29.25246,-173.14447 l 1.61896,-34.96344 26.4945,34.04335 c 14.57197,18.72385 31.12062,39.42589 36.77477,46.00454 16.43625,19.12369 57.17787,64.13677 59.15858,65.36091 4.67187,2.88738 3.35221,-5.68669 -2.47726,-16.09522 -19.04981,-34.01344 -66.34906,-104.06002 -84.52371,-125.17318 -5.00962,-5.81957 -8.33055,-10.58104 -7.37985,-10.58104 2.72717,0 31.26362,17.57913 42.55139,26.21266 34.02889,26.02725 86.57131,88.88225 112.30157,134.34318 7.40798,13.0886 10.32932,13.71896 8.70643,1.87862 -4.19079,-30.57514 -72.25772,-127.06354 -106.25734,-150.6253 -4.15258,-2.87774 -6.79389,-5.48435 -5.86956,-5.79246 2.44567,-0.81522 59.48215,22.66126 92.11208,37.91378 28.86455,13.49242 34.28033,15.21865 32.40377,10.32841 -1.57069,-4.09311 -32.27811,-26.64127 -50.39144,-37.00194 -24.86708,-14.22376 -63.65966,-31.38294 -83.57461,-36.96769 l -18.29941,-5.13171 24.3446,-0.51391 24.3446,-0.5139 22.47762,9.42806 c 31.93799,13.39614 80.28511,38.3318 102.7023,52.97004 26.31109,17.18095 43.60181,31.50205 65.56233,54.30224 22.08188,22.92619 34.9507,40.49131 45.35372,61.90499 7.36726,15.1648 7.59887,16.20662 7.59887,34.18208 0,18.19863 -0.14869,18.8408 -8.06697,34.8204 -6.63314,13.38621 -11.05462,19.24896 -24.87578,32.98453 -32.25435,32.0546 -70.26617,49.1668 -118.41218,53.30688 l -13.34132,1.14722 v -10.23062 c 0,-14.47819 -4.85465,-34.56249 -11.98924,-49.60097 -6.01398,-12.67642 -14.42595,-22.96301 -16.82028,-20.56868 -0.67172,0.67172 0.96077,8.47275 3.62775,17.33563 6.3923,21.24284 8.9546,37.3645 8.2643,51.99786 l -0.56425,11.96118 -11.96118,0.32448 c -6.57865,0.1785 -17.34371,-0.77118 -23.92236,-2.11032 z"
       id="path3916" />
    <path
       style="fill:#ff2a2a;stroke:#000000;stroke-width:1.84018"
       d="m 861.28953,556.56335 c -43.51657,-3.27972 -69.34345,-8.45779 -106.0282,-21.25776 -10.62705,-3.70796 -24.67021,-7.71684 -31.20703,-8.90861 l -11.88513,-2.16685 13.72531,-8.46773 c 7.54892,-4.65726 28.63078,-17.50292 46.84857,-28.54592 42.00648,-25.46287 41.40409,-25.07389 41.40409,-26.7353 0,-4.65582 -32.31636,2.63851 -61.92846,13.97826 -20.027,7.66921 -30.70981,12.88973 -38.82148,18.97141 -3.28932,2.46615 -5.98059,3.89443 -5.98059,3.17394 0,-0.72047 4.59346,-7.41293 10.20769,-14.87211 25.05873,-33.29354 64.30203,-65.67113 119.83162,-98.86681 21.86686,-13.07205 25.63248,-16.20867 23.53446,-19.60333 -2.84371,-4.60123 -17.8703,-0.23992 -43.82232,12.71896 -50.39624,25.16485 -96.09238,58.99053 -126.82837,93.88221 -4.77709,5.423 -8.68562,9.10368 -8.68562,8.17928 0,-2.11586 18.92923,-29.8328 45.6237,-66.80405 24.24087,-33.57308 26.50286,-39.68808 10.31789,-27.89313 -22.48984,16.38969 -56.05235,50.13987 -68.36843,68.75071 -8.81058,13.31368 -6.4198,5.28226 6.94703,-23.33743 14.48334,-31.01022 24.95117,-46.63498 49.95545,-74.56578 49.78976,-55.61716 108.59424,-91.94512 148.90955,-91.99262 22.79348,-0.0269 30.37113,4.82155 73.04473,46.73629 40.24441,39.52872 50.39897,51.89743 62.08251,75.61932 10.3799,21.07493 15.3765,40.5951 17.0748,66.70658 l 1.3465,20.70205 -15.6713,0.007 c -29.82022,0.0147 -66.85361,8.32115 -83.13444,18.64812 -17.2095,10.91603 -11.98635,15.60684 9.20356,8.26552 19.06445,-6.6049 39.94228,-10.35937 57.60659,-10.35937 13.66569,0 31.01599,2.85412 31.01599,5.10212 0,3.17444 -14.0169,25.20583 -20.9249,32.88922 -9.8955,11.00614 -21.60753,17.63105 -39.85652,22.54478 -26.16146,7.04425 -70.13028,10.16917 -105.53725,7.50067 z"
       id="path3918" />
    <path
       style="fill:#ff2a2a;stroke:#000000;stroke-width:1.84018"
       d="m 638.88939,458.01948 c -0.60185,-0.97383 -2.14443,-17.98511 -3.42798,-37.80287 -3.13865,-48.46033 -0.0559,-82.67915 10.46548,-116.16825 0.55645,-1.77117 0.23043,-3.22031 -0.7245,-3.22031 -2.50848,0 -13.96368,22.81603 -18.47792,36.80363 -5.80406,17.98416 -9.33517,41.56598 -11.41802,76.25294 -1.0313,17.17484 -2.15487,31.50676 -2.49683,31.84872 -0.34196,0.34194 -2.08225,-2.93196 -3.86732,-7.27538 -2.50976,-6.10671 -3.76608,-18.11844 -5.54141,-52.98157 -1.26271,-24.79644 -5.04591,-70.54795 -8.40713,-101.67002 -5.49794,-50.90649 -6.4424,-56.58558 -9.41039,-56.58558 -2.77406,0 -3.32031,1.68394 -3.43237,10.58104 -0.0733,5.81957 -0.76328,26.31459 -1.53329,45.54449 -0.99574,24.86701 -0.71475,41.07445 0.97305,56.12554 2.78664,24.85012 3.25373,55.20544 0.84947,55.20544 -0.92632,0 -6.32551,-7.24571 -11.99821,-16.10159 -10.12123,-15.80066 -13.72593,-25.22997 -26.81757,-70.15043 -5.21914,-17.90809 -7.96166,-15.25377 -9.1849,8.88951 l -0.92009,18.15999 -21.46781,-17.6233 -21.46782,-17.6233 5.13877,-6.60075 c 9.90874,-12.72775 11.98241,-28.36684 5.52897,-41.69788 -4.73526,-9.78174 -14.45655,-16.42983 -28.02069,-19.16249 -9.10499,-1.83431 -11.02132,-2.96242 -13.55856,-7.98167 -1.62518,-3.21498 -4.9014,-8.44745 -7.28048,-11.62771 l -4.32561,-5.78228 15.53826,-14.91735 c 17.29208,-16.60109 33.7962,-26.29871 39.15195,-23.0052 2.10563,1.29486 5.26404,10.33724 9.46414,27.09541 8.4183,33.58857 11.16899,33.77752 11.20301,0.76958 0.0138,-13.41033 0.5191,-26.22519 1.12285,-28.47747 1.75902,-6.56199 10.59253,-6.98359 36.02845,-1.71954 17.91613,3.7078 30.59654,4.93955 60.88058,5.91381 l 38.25112,1.23056 12.06405,13.32019 c 15.70869,17.34432 32.45044,40.86979 39.30363,55.22938 7.38084,15.46513 9.92273,28.52856 8.59878,44.19103 -2.17775,25.76265 -12.8519,50.86726 -52.43113,123.31305 -29.44385,53.89396 -27.03231,49.83677 -28.35253,47.70063 z"
       id="path3920" />
    <path
       style="fill:#ff2a2a;stroke:#000000;stroke-width:1.84018"
       d="m 251.0516,586.0796 c -8.41894,-1.50572 -14.91781,-5.91414 -22.62646,-15.34829 -8.24665,-10.09258 -12.34096,-18.27066 -12.31972,-24.6077 0.0259,-7.72924 9.0388,-21.64485 25.91943,-40.01872 8.3198,-9.05577 14.14641,-16.79187 12.94803,-17.19133 -4.36754,-1.45584 -33.07681,14.5312 -40.4402,22.51954 l -7.28093,7.89887 -1.10234,-5.51173 c -2.04442,-10.2221 -1.12215,-36.44127 1.72164,-48.94448 3.44446,-15.14413 21.44791,-52.8213 34.90118,-73.04032 11.37893,-17.10148 33.09951,-38.58153 47.29886,-46.7751 36.96495,-21.33018 82.90538,-21.28952 148.11869,0.13111 15.65129,5.14098 17.72312,6.41558 27.60272,16.98142 19.12219,20.4504 42.19994,47.83191 52.8577,62.71509 11.53189,16.10389 24.05699,37.58253 22.70461,38.93492 -0.47773,0.47774 -5.73887,-4.74058 -11.69141,-11.59626 -28.56696,-32.90127 -47.48646,-47.73302 -73.04054,-57.25941 -17.76758,-6.62362 -19.02601,-4.72986 -4.00718,6.03021 14.35339,10.28334 76.29372,74.64787 71.83634,74.64787 -0.63291,0 -12.10098,-7.29618 -25.48456,-16.21373 -52.12535,-34.73135 -66.7216,-41.9255 -105.18365,-51.84253 -30.74903,-7.9283 -94.88749,-15.45549 -94.88749,-11.13585 0,0.98854 8.07379,4.23761 17.94177,7.22015 9.86797,2.98254 32.01916,9.68557 49.22485,14.89561 17.2057,5.21005 38.94352,13.09271 48.30628,17.51704 16.35774,7.72977 115.52059,70.48498 113.91467,72.0909 -0.42996,0.42997 -11.84908,-2.96861 -25.37581,-7.5524 -43.06128,-14.59212 -59.41668,-17.51981 -105.39204,-18.86564 -53.88957,-1.57751 -51.96715,1.6223 9.0309,15.03162 26.69575,5.86858 115.05709,33.96146 119.51978,37.99915 1.0165,0.91968 -0.52386,1.58023 -3.68036,1.57825 -2.98569,-0.002 -41.86413,2.49569 -86.39652,5.55015 -91.79625,6.29627 -93.08977,6.54111 -122.87179,23.25656 -33.94479,19.05182 -47.2921,23.54742 -62.06645,20.90503 z"
       id="path3922" />
    <path
       style="fill:#ffe680;stroke:#000000;stroke-width:1.84018"
       d="m 608.47143,550.63268 c -2.01356,-4.30142 -7.16877,-16.51562 -11.45599,-27.14267 -13.34735,-33.08499 -35.74799,-77.36736 -49.33624,-97.52962 -16.22606,-24.07624 -52.83599,-68.90744 -75.13619,-92.00908 -16.05795,-16.63504 -16.9846,-18.03875 -19.13286,-28.98286 -2.72296,-13.87183 -6.20331,-15.0029 -12.45916,-4.04908 -2.46422,4.31478 -6.9017,8.69309 -10.59614,10.45485 -6.06031,2.88996 -6.5914,2.85633 -11.40179,-0.72182 -6.48254,-4.82196 -7.1948,-10.19715 -2.42289,-18.28494 3.86926,-6.55791 4.95542,-11.79783 2.43799,-11.76149 -0.75907,0.011 -5.44513,1.25308 -10.41346,2.76027 -11.20241,3.39837 -21.41224,3.51119 -25.82381,0.28537 -3.51142,-2.56761 -6.2443,-14.611 -6.43725,-28.36806 -0.0603,-4.30142 -0.65132,-7.82077 -1.31331,-7.82077 -0.66199,0 -3.88159,3.10531 -7.15467,6.90068 -3.27308,3.79538 -8.39227,8.31645 -11.37597,10.04683 -5.32265,3.08683 -5.54149,3.04882 -11.60865,-2.01627 l -6.18373,-5.1624 5.88204,-8.88027 c 5.58485,-8.43158 7.38043,-13.76984 4.63164,-13.76984 -0.68773,0 -6.4522,1.75708 -12.80995,3.90461 -6.35774,2.14754 -12.73401,3.45392 -14.16949,2.90308 -1.43548,-0.55084 -3.88064,-4.73078 -5.4337,-9.28875 -2.57768,-7.5651 -2.55691,-8.75273 0.23841,-13.62957 7.14382,-12.46342 6.28808,-11.89571 12.93368,-8.58045 3.29967,1.6461 6.53199,2.46032 7.18292,1.80939 0.65093,-0.65093 1.47526,-9.22517 1.83184,-19.05386 0.7161,-19.73855 2.34063,-24.75151 9.00519,-27.78808 10.76071,-4.90292 15.38696,-1.58042 18.12554,13.01748 0.95467,5.08883 -0.33238,9.01869 -7.24659,22.1267 -4.62409,8.76638 -8.40744,18.1265 -8.40744,20.80026 0,5.86675 9.10358,15.61937 14.5799,15.61937 3.27655,0 3.82192,-1.1291 3.82192,-7.91278 0,-13.05306 6.67842,-16.16415 15.32502,-7.13904 4.65475,4.85851 4.95841,6.19269 4.75194,20.87833 -0.2307,16.40822 2.10651,23.6164 7.65745,23.6164 1.60972,0 4.07251,-2.14085 5.47287,-4.75745 2.98103,-5.57011 10.63819,-9.964 17.36408,-9.964 7.14225,0 7.50212,-4.5582 1.05063,-13.30765 l -5.79155,-7.85444 4.79011,-4.14041 c 6.09475,-5.26809 12.10404,-5.26809 16.96354,0 3.28243,3.55843 3.91191,7.00069 4.47832,24.4895 0.50258,15.51819 1.42955,21.52503 3.90464,25.30249 1.78508,2.72438 4.04063,4.95341 5.01235,4.95341 0.97172,0 3.82347,-4.05872 6.33722,-9.01937 2.51376,-4.96066 6.7983,-10.77179 9.52122,-12.91363 4.34287,-3.41611 5.41605,-3.58531 8.74034,-1.37806 6.55119,4.34982 10.85155,11.48138 9.49694,15.74938 -1.54033,4.85316 -9.98478,9.40186 -17.45412,9.40186 -4.83431,0 -5.61193,0.67112 -5.61193,4.8433 0,7.51812 5.8244,15.25679 23.38362,31.069 44.76787,40.3138 54.76861,51.74289 86.06213,98.35386 35.61447,53.04689 59.50192,100.85013 61.24476,122.5621 0.8465,10.54571 0.59761,11.45215 -4.17536,15.20656 -2.79153,2.19582 -7.35688,3.99241 -10.14523,3.99241 -4.16332,0 -5.72429,-1.39827 -8.73078,-7.82078 z"
       id="path3924" />
    <path
       style="fill:#ffe680;stroke:#000000;stroke-width:1.84018"
       d="m 393.65793,202.83838 c -11.4041,-13.2423 -11.54743,-14.26141 -2.00579,-14.26141 4.53033,0 8.6502,0.66864 9.15527,1.48586 0.50507,0.81722 1.4887,5.78571 2.18585,11.04109 1.56977,11.8335 -0.33361,12.18714 -9.33533,1.73446 z"
       id="path3926" />
  </g>
</svg>
