<?xml version="1.0" encoding="UTF-8" standalone="no"?>
<svg
   xmlns:dc="http://purl.org/dc/elements/1.1/"
   xmlns:cc="http://creativecommons.org/ns#"
   xmlns:rdf="http://www.w3.org/1999/02/22-rdf-syntax-ns#"
   xmlns:svg="http://www.w3.org/2000/svg"
   xmlns="http://www.w3.org/2000/svg"
   xmlns:sodipodi="http://sodipodi.sourceforge.net/DTD/sodipodi-0.dtd"
   xmlns:inkscape="http://www.inkscape.org/namespaces/inkscape"
   version="1.1"
   id="svg7782"
   width="552"
   height="768"
   viewBox="0 0 552 768"
   sodipodi:docname="flower05.svg"
   inkscape:version="1.0.1 (3bc2e813f5, 2020-09-07)">
  <metadata
     id="metadata7788">
    <rdf:RDF>
      <cc:Work
         rdf:about="">
        <dc:format>image/svg+xml</dc:format>
        <dc:type
           rdf:resource="http://purl.org/dc/dcmitype/StillImage" />
        <dc:title></dc:title>
      </cc:Work>
    </rdf:RDF>
  </metadata>
  <defs
     id="defs7786" />
  <sodipodi:namedview
     pagecolor="#ffffff"
     bordercolor="#666666"
     borderopacity="1"
     objecttolerance="10"
     gridtolerance="10"
     guidetolerance="10"
     inkscape:pageopacity="0"
     inkscape:pageshadow="2"
     inkscape:window-width="1920"
     inkscape:window-height="1001"
     id="namedview7784"
     showgrid="false"
     inkscape:zoom="0.76419092"
     inkscape:cx="-146.18088"
     inkscape:cy="438.89767"
     inkscape:window-x="-9"
     inkscape:window-y="-9"
     inkscape:window-maximized="1"
     inkscape:current-layer="g7790" />
  <g
     inkscape:groupmode="layer"
     inkscape:label="Image"
     id="g7790">
    <path
       style="fill:#000000;stroke-width:0.965305"
       d="m 322.66949,724.64738 c -6.56162,-21.43505 -11.74913,-50.73136 -14.48611,-81.80954 -0.8416,-9.55652 -2.99868,-24.97725 -4.79349,-34.2683 -6.18451,-32.0148 -6.40272,-33.75055 -6.91717,-55.02234 -0.52811,-21.83702 -1.58101,-27.47399 -5.01037,-26.82431 -2.31085,0.43778 -2.52433,7.41734 -0.54015,17.6619 1.38075,7.12911 1.4951,9.76912 0.6347,14.65368 -2.03417,11.5482 -4.89149,15.89662 -20.34708,30.96531 l -14.12554,13.77196 -0.80299,-4.11892 c -0.44166,-2.26539 -1.67656,-8.02837 -2.74424,-12.80663 -1.06769,-4.77825 -2.1605,-13.46599 -2.42846,-19.30609 -0.81128,-17.6811 3.02683,-30.5927 11.94133,-40.17125 7.92067,-8.5107 18.40563,-11.68641 26.88571,-8.14322 4.01706,1.67843 4.35841,0.67702 0.69298,-2.03291 -7.66134,-5.66417 -9.48064,-5.94564 -30.3333,-4.69298 -14.26181,0.85674 -18.55587,0.234 -26.86098,-3.89549 -13.69469,-6.80932 -28.25627,-27.54983 -33.00458,-47.00947 -1.13398,-4.64728 -1.86356,-8.6478 -1.62132,-8.89006 0.24226,-0.24225 3.02813,0.35986 6.19085,1.33805 3.16272,0.97817 11.56562,2.51399 18.67311,3.41292 24.38037,3.08354 34.74766,6.94611 44.03024,16.40446 5.95669,6.06948 8.54239,10.73098 13.95621,25.16014 1.59707,4.25656 4.24169,9.25202 5.87692,11.101 l 2.97319,3.36178 -0.60196,-2.89591 c -0.98125,-4.7207 -17.08593,-36.64625 -25.40089,-50.35419 -16.10333,-26.54771 -32.79729,-49.0708 -47.39989,-63.95075 -7.63985,-7.78497 -11.66571,-9.86257 -11.66571,-6.02028 0,1.97899 4.42647,8.57975 8.99797,13.41776 4.40099,4.65758 1.38238,3.80165 -3.67185,-1.04116 -2.39845,-2.29811 -4.36082,-3.85173 -4.36082,-3.4525 0,0.92002 6.70603,9.80574 8.11554,10.75337 0.67851,0.45617 0.53828,0.71219 -0.3931,0.71761 -1.96378,0.0114 -5.90567,-2.70132 -9.43737,-6.49466 -4.10821,-4.41254 -5.55698,-4.04011 -7.5102,1.93061 -4.67653,14.29543 -11.08583,19.87625 -23.87799,20.79154 -5.45119,0.39003 -7.67602,0.0512 -13.0393,-1.98627 -3.66626,-1.39275 -9.47605,-2.67841 -13.41592,-2.96886 -8.29866,-0.61176 -9.99387,-1.39956 -15.9786,-7.42546 -2.52288,-2.54024 -7.91821,-6.44685 -11.98961,-8.68137 -8.53307,-4.68322 -16.42067,-11.62159 -18.31256,-16.10875 -0.720313,-1.70843 -1.310167,-5.40072 -1.310799,-8.20509 -0.0021,-9.31218 -2.392336,-18.75072 -6.20134,-24.4875 -5.580946,-8.4055 -5.750883,-13.12914 -0.682255,-18.96448 4.941531,-5.68905 5.190505,-6.72198 3.97283,-16.48208 -1.333619,-10.68948 -0.563524,-13.51266 4.232584,-15.51661 3.40505,-1.42272 3.83435,-2.18181 4.94852,-8.74982 1.04854,-6.18116 4.78378,-12.45484 9.26089,-15.55453 3.79879,-2.63008 4.72499,-2.83526 12.5549,-2.78136 7.92496,0.0546 8.51716,-0.0813 9.47068,-2.17416 1.82962,-4.01555 6.68831,-6.25021 12.18915,-5.60612 4.31338,0.50503 5.34174,0.2412 9.17039,-2.35279 6.98071,-4.72957 13.74686,-3.61394 22.05208,3.63602 3.7444,3.26864 9.84515,4.35499 23.03676,4.10215 4.37595,-0.0839 8.77459,0.28545 9.77474,0.82071 2.48302,1.32888 14.32947,13.69148 17.27843,18.03127 2.87371,4.22905 5.02274,11.79693 5.0413,17.75302 0.008,2.9462 0.94905,6.11866 2.9211,9.8598 3.77889,7.16893 4.46837,12.42697 2.49903,19.05839 -0.85223,2.86983 -1.54953,7.51936 -1.54953,10.3323 0,6.47839 -2.32256,12.33622 -5.90162,14.88473 -3.45169,2.45782 -3.55534,4.98759 -0.29197,7.12584 2.98366,1.95498 6.14294,8.4907 6.1724,12.76907 0.0295,4.29241 -1.56647,4.84228 -2.32464,0.80092 -0.78737,-4.19707 -4.80817,-9.05137 -8.92042,-10.76957 -4.73547,-1.97861 -4.89224,-1.65335 -1.11009,2.30319 4.3647,4.56595 5.61921,7.02059 5.61921,10.99483 0,3.14126 -0.0166,3.13026 -3.13724,-2.07611 -3.87485,-6.46472 -8.57546,-9.84313 -13.14443,-9.44709 -1.82135,0.15788 -3.76501,1.01124 -4.31924,1.89637 -0.83192,1.32863 0.84704,3.53861 9.6262,12.6708 23.04562,23.97232 52.84152,68.12499 65.26116,96.70641 l 4.62425,10.6418 -0.62148,-15.44487 c -0.37207,-9.24674 0.061,-34.03922 1.07928,-61.77947 2.96585,-80.80006 0.80406,-115.737 -8.455,-136.6423 -3.46406,-7.82127 -7.50779,-12.00063 -13.01185,-13.44829 -24.34794,-6.40393 -34.16367,-12.89877 -41.23923,-27.28707 -4.10959,-8.35693 -5.26768,-15.83568 -5.34338,-34.50662 -0.0291,-7.16739 -0.44177,-14.70785 -0.91715,-16.75658 l -0.86432,-3.72496 2.92361,0.58472 c 4.66019,0.93204 22.72901,8.8513 31.61817,13.85772 11.80977,6.65132 18.52937,13.2382 23.26215,22.80272 2.32508,4.69877 4.31918,10.48152 4.96595,14.40089 1.00633,6.09815 0.90434,7.07027 -1.48073,14.11391 -3.06703,9.05764 -3.14764,11.7554 -0.52192,17.46635 3.77967,8.22076 7.7566,19.80861 10.06679,29.33224 1.27325,5.24893 2.46068,9.68919 2.63872,9.86722 0.17805,0.17805 1.32491,-4.11653 2.5486,-9.5435 6.81712,-30.23346 21.76784,-75.5434 37.14142,-112.56153 2.95136,-7.10656 5.13399,-13.29657 4.8503,-13.75559 -1.78748,-2.8922 -7.5611,1.70221 -13.5926,10.81642 -3.77832,5.70942 -3.99627,2.92205 -0.28933,-3.70027 l 3.09969,-5.53746 -2.66308,2.41326 c -1.46468,1.32729 -3.96451,4.15081 -5.55516,6.27448 l -2.8921,3.86122 0.51344,-3.40097 c 0.2824,-1.87054 1.90615,-5.64134 3.60833,-8.37956 1.70217,-2.73822 2.91025,-5.53237 2.68463,-6.20924 -0.2462,-0.7386 -3.85738,-1.72804 -9.03179,-2.47466 -11.03648,-1.59248 -16.37403,-4.29222 -20.45496,-10.34611 -4.62658,-6.86333 -6.42456,-13.94953 -5.51156,-21.72206 0.85339,-7.26479 0.85361,-7.11985 -0.0291,-19.38258 l -0.66008,-9.17038 3.90273,-5.92016 c 2.53281,-3.84208 4.78485,-9.057548 6.41576,-14.858141 3.12559,-11.116759 6.21268,-17.296262 11.06446,-22.148036 3.41742,-3.417429 8.61833,-5.802067 12.685,-5.816154 0.85486,-0.0032 5.25572,-1.715458 9.7797,-3.805538 6.34827,-2.932916 9.07699,-4.839373 11.95686,-8.353872 6.13034,-7.48129 11.8629,-8.835672 20.14784,-4.760162 6.23381,3.066514 8.08335,3.020829 17.90451,-0.442243 10.80111,-3.808614 12.89311,-3.750273 16.62378,0.4636 2.92624,3.305241 3.15118,3.378572 10.36402,3.378572 9.92857,0 15.45065,1.998648 20.09273,7.27234 4.01625,4.562695 5.96483,9.643882 5.96483,15.554061 0,3.562122 0.23043,3.860378 4.01509,5.197179 5.09843,1.800832 7.6197,5.220063 8.64207,11.71992 0.68539,4.357514 1.46718,5.757415 5.11791,9.164393 6.37032,5.944981 6.91463,11.774861 2.01293,21.559321 -1.89538,3.78342 -2.14231,5.58933 -1.91389,13.99692 0.18671,6.87209 0.74704,10.59256 1.94498,12.91427 3.17201,6.14758 2.92907,10.55429 -0.93156,16.89725 -10.37971,17.05373 -15.94143,22.22605 -27.75904,25.81553 -4.35637,1.32321 -7.89828,3.21405 -10.79225,5.76142 -6.3177,5.56106 -11.45493,7.58449 -19.31977,7.60958 -3.6552,0.0117 -9.33892,0.51743 -12.63046,1.12392 -7.28492,1.34229 -12.08864,0.55646 -15.82692,-2.58908 -3.87447,-3.26016 -5.57056,-2.987 -7.73049,1.24504 -1.01612,1.99093 -2.6698,4.3635 -3.67484,5.27235 -2.34962,2.12477 -8.32612,4.62202 -11.06159,4.62202 -1.67526,0 -1.16061,-0.64018 2.42273,-3.01369 4.86612,-3.22319 8.33012,-8.66146 8.33012,-13.07783 0,-2.50502 -0.17629,-2.39808 -3.13724,1.90288 -1.87861,2.72881 -4.71177,5.32728 -7.06189,6.47693 -5.99223,2.93129 -7.00086,2.29847 -2.49029,-1.56241 7.63106,-6.53188 10.666,-17.01129 6.01693,-20.77587 -1.84291,-1.49232 -2.53507,-1.61004 -3.71392,-0.63168 -7.15063,5.9345 -39.7719,100.89919 -46.6147,135.70132 -1.85819,9.45064 -1.97773,12.31499 -1.39815,33.50151 0.35863,13.10975 0.17032,33.64391 -0.43376,47.29991 -1.76012,39.78966 -2.79163,86.9585 -1.977,90.40459 0.45184,1.9114 0.80387,2.42112 0.86234,1.24863 0.17505,-3.50975 6.79015,-29.4037 11.75683,-46.02044 5.2649,-17.61457 10.42163,-32.57112 15.8675,-46.02202 3.96038,-9.78187 4.14854,-13.91072 0.6565,-14.40575 -3.15589,-0.44739 -4.75878,1.26084 -5.55633,5.92149 -0.56362,3.29367 -0.83457,3.68761 -1.45557,2.11636 -0.41966,-1.06183 -0.82577,-3.23376 -0.90247,-4.82652 l -0.13944,-2.89591 -1.87057,3.86122 -1.87058,3.86121 0.5496,-5.23481 c 0.61398,-5.84788 1.72964,-8.55305 4.41087,-10.69524 1.73663,-1.38748 1.74947,-1.76488 0.29559,-8.68774 -2.57469,-12.25982 -0.0292,-20.0214 9.05534,-27.61115 7.20692,-6.02108 9.86031,-8.96532 11.02721,-12.236 0.77449,-2.17078 1.21973,-2.46837 2.32306,-1.55269 1.06101,0.88056 2.23275,0.74147 5.26221,-0.62462 3.33963,-1.50597 4.37154,-1.58593 7.21197,-0.55881 1.82309,0.65924 3.75551,0.92618 4.29427,0.59321 1.62033,-1.0014 4.89914,0.52077 5.68237,2.63803 0.4036,1.09105 2.19262,2.46461 3.97558,3.05235 2.59282,0.85468 3.62661,2.01001 5.16425,5.77135 1.67053,4.08636 1.77386,5.25851 0.78843,8.94291 -0.62374,2.33211 -1.13407,5.86142 -1.13407,7.84293 0,1.98151 -1.05016,6.86214 -2.33369,10.84582 -1.28353,3.9837 -2.58795,8.76343 -2.89873,10.62164 -1.19051,7.11863 -6.34143,12.34639 -14.31499,14.52859 -3.41459,0.9345 -3.61989,1.2097 -3.61989,4.85208 0,3.19664 -0.6712,4.56122 -3.89882,7.92655 l -3.89884,4.06517 2.07054,-4.11185 c 1.46773,-2.91476 1.86557,-4.88196 1.36655,-6.75713 -0.69646,-2.617 -0.7188,-2.60217 -2.09027,1.38797 -0.89885,2.61509 -2.8935,5.26829 -5.67282,7.54574 -5.30798,4.34949 -5.92963,2.2338 -0.90795,-3.09012 3.8187,-4.04854 4.33731,-7.42519 1.38322,-9.00616 -2.77854,-1.48704 -5.78743,0.66118 -9.10455,6.50023 -4.67701,8.23288 -19.37661,54.66256 -25.55433,80.71512 -5.27889,22.26205 -5.98444,33.64126 -2.55614,41.22636 1.43482,3.17452 1.48602,2.56579 0.94197,-11.20135 -0.47817,-12.10025 -0.29639,-15.51772 1.07661,-20.24066 3.36472,-11.57424 10.87705,-19.65885 30.98692,-33.34743 5.6256,-3.82929 11.14231,-8.19853 12.25935,-9.70943 1.11705,-1.51089 2.33692,-2.74708 2.71081,-2.74708 0.37387,0 1.48676,3.14931 2.47304,6.99846 3.79805,14.82239 1.46439,37.57611 -4.98647,48.61938 -3.64869,6.24619 -12.01227,13.25634 -19.44807,16.30091 -22.81208,9.34035 -22.80455,9.33208 -24.51926,26.89274 -1.67407,17.14456 0.90017,42.37192 6.95215,68.13021 2.45415,10.4454 2.5226,10.37513 5.58735,-5.73588 2.85073,-14.98602 7.58017,-28.86566 14.96606,-43.92135 7.58358,-15.45869 13.02059,-22.09707 30.45694,-37.18669 14.92731,-12.91827 15.65307,-14.09349 17.88651,-28.96342 0.82129,-5.46812 2.28066,-11.71713 3.24301,-13.8867 3.78982,-8.54381 16.9141,-17.84107 29.57331,-20.94979 8.6075,-2.11373 36.09442,-1.08614 45.22327,1.69067 1.54821,0.47094 1.28147,1.02625 -2.01404,4.19287 -2.62976,2.52692 -4.17285,5.09657 -5.01487,8.35112 -5.11326,19.76365 -9.40061,28.33603 -17.99246,35.97525 -2.61636,2.32627 -7.14616,5.36337 -10.0662,6.7491 -5.144,2.44112 -5.87981,2.51951 -23.64996,2.51951 -17.41651,0 -18.5597,0.11505 -22.68465,2.28303 -8.27023,4.3466 -15.55552,9.02909 -14.96569,9.61892 0.32582,0.3258 7.43131,0.60467 15.78997,0.6197 l 15.19758,0.0273 7.3483,3.63029 c 5.65483,2.79367 8.88896,5.28003 14.03351,10.78876 9.43507,10.10297 13.90131,19.3999 17.77436,36.99907 1.66684,7.57421 2.7565,14.04541 2.42144,14.38046 -0.33505,0.33506 -4.20128,-0.31585 -8.59161,-1.44644 -4.39035,-1.1306 -11.82567,-2.73689 -16.52295,-3.56954 -26.6548,-4.72489 -42.03285,-18.23318 -49.26774,-43.27753 -2.33781,-8.09253 -3.83538,-11.23061 -5.35954,-11.23061 -1.34796,0 -10.02086,9.32646 -13.76819,14.80574 -10.40564,15.21488 -18.01489,39.8484 -22.18207,71.81027 -1.97387,15.13945 -2.03603,17.37784 -0.95884,34.52967 1.25944,20.0534 2.5229,29.47473 6.79635,50.67848 3.13503,15.55517 4.43456,24.13261 3.65625,24.13261 -0.28315,0 -1.67833,-3.80089 -3.10039,-8.44641 z M 261.42613,585.9142 c -1.13189,-3.84306 -6.46976,-14.02623 -7.35235,-14.02623 -0.83842,0 0.66386,7.15813 3.29771,15.713 l 2.6087,8.47322 1.29592,-3.13472 c 1.03478,-2.5031 1.06501,-3.91864 0.15002,-7.02527 z m 164.10375,5.48449 c 0,-0.92121 -11.76784,-15.73013 -13.91771,-17.51438 -2.35985,-1.95848 -1.90679,0.2245 1.34437,6.4776 3.64413,7.00892 4.86115,8.51878 8.32087,10.32301 3.15087,1.64318 4.25247,1.82807 4.25247,0.71377 z M 284.61246,568.81403 c 3.94356,-7.39888 4.57604,-14.01221 2.5031,-26.17329 -1.00747,-5.91042 -1.35107,-11.2418 -0.94644,-14.68464 l 0.63529,-5.40528 -2.79377,0.62023 c -13.34552,2.96278 -20.0928,7.49663 -23.17771,15.57433 -2.60815,6.82936 -2.19276,12.24949 1.61622,21.08809 3.19293,7.40912 3.32286,8.17805 3.32286,19.6638 v 11.95314 l 7.88208,-8.43231 c 4.33512,-4.63777 9.26639,-11.02961 10.95837,-14.20407 z m 128.20231,18.76014 c -5.20955,-11.53275 -10.41792,-20.62546 -14.02057,-24.47699 -2.44535,-2.61426 -4.57835,-4.62094 -4.74003,-4.45927 -0.16167,0.16167 1.16214,4.31527 2.9418,9.23022 3.64772,10.07405 7.38108,16.05718 11.64108,18.65609 3.03208,1.84979 4.732,2.27701 4.17772,1.04995 z m 13.62206,-5.79964 c -3.80908,-11.7775 -10.32032,-17.95625 -22.44466,-21.29851 -3.55011,-0.97865 -3.37298,-0.72572 5.03417,7.18842 4.79257,4.51153 10.79225,11.03759 13.33263,14.50238 4.82124,6.57564 6.28586,6.43476 4.07786,-0.39229 z m -29.30562,-1.26232 c -1.79678,-3.41604 -5.03818,-10.77203 -7.20312,-16.34667 -5.0487,-13.00021 -8.13777,-16.74262 -17.24584,-20.8933 -3.90951,-1.78162 -7.29311,-3.2393 -7.51911,-3.2393 -0.226,0 1.1091,2.76531 2.96689,6.14512 1.85778,3.37982 4.61459,9.80412 6.12626,14.27621 3.49111,10.32807 4.97597,13.12649 8.95916,16.88475 2.72152,2.56783 16.26933,10.23098 16.95825,9.59222 0.1234,-0.11442 -1.24571,-3.00299 -3.04249,-6.41903 z M 258.89076,561.92099 c -4.88033,-10.63625 -5.51323,-11.0816 -4.94442,-3.47925 0.38503,5.14614 1.18093,7.52784 4.21951,12.62674 l 3.74495,6.28424 0.30038,-3.7703 c 0.21975,-2.75821 -0.67156,-5.88853 -3.32042,-11.66143 z m 111.48649,0.2262 c -3.34336,-10.39661 -6.56786,-17.04518 -9.5548,-19.701 l -2.17132,-1.9306 0.70558,3.84811 c 1.04646,5.70716 5.95242,16.75597 9.75694,21.97378 1.83878,2.52186 3.51029,4.5852 3.71444,4.5852 0.20417,0 -0.89871,-3.94897 -2.45084,-8.77549 z m 48.03464,-0.63623 c -2.37314,-4.57914 -9.54934,-12.03093 -12.9572,-13.45484 -2.39376,-1.00017 -5.1069,-1.18442 -10.13909,-0.68856 l -6.87077,0.67703 3.75784,3.24839 c 3.56726,3.08366 5.317,3.81504 14.5951,6.10068 2.17389,0.53553 5.86619,2.27038 8.20509,3.85521 2.33889,1.58485 4.37229,2.88944 4.51865,2.89911 0.14636,0.009 -0.35297,-1.177 -1.10962,-2.63702 z m -22.38787,-21.37935 c 4.73041,-1.85245 -8.90195,-4.93463 -21.61676,-4.88742 -9.97925,0.0371 -10.10946,0.0662 -6.79564,1.51683 8.46815,3.70712 23.11573,5.44478 28.4124,3.37059 z m -89.34007,-23.02465 c 0.63494,-2.48142 0.54765,-5.89682 -0.27756,-10.85967 -1.16961,-7.03427 -1.22541,-7.13642 -1.96574,-3.59863 -0.69171,3.30551 0.0879,18.07819 0.954,18.07819 0.19969,0 0.77988,-1.62895 1.2893,-3.61989 z m 15.0159,-3.47245 c 9.01545,-3.34699 17.39825,-8.8748 20.64583,-13.61432 2.90933,-4.24589 2.62737,-4.92889 -1.0386,-2.51571 -1.72549,1.13582 -8.34989,4.57452 -14.7209,7.64153 -8.04637,3.87355 -12.54165,6.67201 -14.72088,9.16425 -3.72658,4.26185 -4.07984,6.11341 -0.75013,3.93169 1.31291,-0.86025 6.07602,-2.9336 10.58468,-4.60744 z m 90.02238,1.50226 c 0.63501,-0.40369 -3.70886,-1.51693 -9.65304,-2.47385 -8.39958,-1.35222 -11.43411,-1.5 -13.6194,-0.66332 -3.23679,1.23929 -2.45941,2.58613 1.84648,3.19917 5.16904,0.73592 20.23942,0.69232 21.42596,-0.062 z m -143.294,-5.65836 c 7.79989,-0.51052 9.22597,-0.8419 8.32013,-1.93337 -2.61245,-3.14781 -11.29801,-4.47198 -24.92811,-3.80045 -7.19221,0.35434 -15.14795,0.24824 -17.67942,-0.23577 -4.0859,-0.78122 -4.46524,-0.71347 -3.37856,0.60345 3.1792,3.85282 15.65821,7.19322 23.90875,6.39993 2.38913,-0.22972 8.57987,-0.69492 13.75721,-1.03379 z m 153.61108,0.4308 c 2.69604,-0.79025 5.95279,-3.12896 10.1315,-7.27554 3.38706,-3.36101 5.94243,-6.32679 5.67859,-6.59063 -0.26383,-0.26382 -2.49234,-0.0287 -4.95224,0.52263 -2.6586,0.5958 -8.90214,0.74933 -15.39432,0.37853 -13.72299,-0.78378 -18.35755,0.5351 -25.84541,7.35491 l -5.22237,4.75645 7.23978,0.0995 c 3.98187,0.0547 8.97732,0.45885 11.10099,0.89811 5.85489,1.21104 12.8395,1.15282 17.26348,-0.14391 z m -107.97638,-7.26193 c 2.58585,-5.1969 2.79342,-6.47649 3.09593,-19.08464 l 0.32427,-13.51426 -3.39605,3.76199 c -1.86781,2.06909 -4.31905,6.19576 -5.44717,9.17039 -1.95401,5.15225 -1.99313,5.9222 -0.82607,16.25728 1.37768,12.20035 1.76869,12.41367 6.24909,3.40924 z m 15.03388,-1.51115 c 11.47693,-5.38932 13.88005,-7.42497 17.71798,-15.00861 2.08654,-4.12292 1.3944,-4.76305 -2.30321,-2.13012 -1.6169,1.15132 -6.20269,3.60086 -10.19065,5.44342 -8.49223,3.92364 -12.71795,7.38539 -16.82163,13.78041 -3.33351,5.19483 -3.82488,6.98387 -1.29013,4.6973 0.9291,-0.83813 6.72855,-3.89021 12.88764,-6.7824 z m -47.8108,3.90453 c -0.7412,-1.72549 -2.0955,-5.25884 -3.00958,-7.85189 -0.91409,-2.59306 -2.9469,-6.06816 -4.51736,-7.72244 -2.07904,-2.19 -2.66925,-2.48287 -2.17082,-1.07717 0.37652,1.06184 1.47033,4.45384 2.43069,7.53779 1.72052,5.52499 5.95568,12.25094 7.7141,12.25094 0.49532,0 0.29414,-1.41175 -0.44703,-3.13723 z m 104.51434,-5.84837 c 2.3413,-6.25767 3.48402,-14.9332 2.59276,-19.68408 l -0.67464,-3.59608 -1.81711,2.37729 c -2.15301,2.81676 -3.42349,8.75784 -4.49556,21.02251 -0.74855,8.56345 -0.70752,8.89523 0.86043,6.95889 0.90555,-1.11831 2.49591,-4.30365 3.53412,-7.07853 z m -123.71191,-1.42806 c -7.65397,-4.85451 -12.90843,-5.98965 -26.72351,-5.77318 -6.63646,0.10399 -13.04367,-0.15019 -14.23823,-0.56484 -3.5311,-1.22567 -2.49208,0.74964 2.14652,4.08083 7.34639,5.27577 9.93974,5.8004 27.71423,5.60664 l 16.10517,-0.17557 z m 7.04986,-8.32278 c -4.40769,-12.1424 -7.03788,-15.98467 -13.85709,-20.24296 -4.3679,-2.72754 -9.69051,-5.4246 -10.70541,-5.4246 -0.61609,0 10.30807,20.59417 13.14152,24.77433 2.24118,3.3064 14.07732,12.48086 14.96134,11.59686 0.13923,-0.13925 -1.45391,-4.95588 -3.54036,-10.70363 z m 59.90745,-5.99247 c 2.6604,-2.92176 3.88407,-5.35139 4.6186,-9.17039 1.22355,-6.36142 2.87025,-17.66008 2.61969,-17.97462 -0.10083,-0.12657 -3.04824,1.74794 -6.5498,4.1656 -8.42956,5.82018 -9.25408,7.7566 -9.75423,22.90798 l -0.40349,12.2234 2.92496,-4.08855 c 1.60873,-2.2487 4.55366,-5.87725 6.54427,-8.06342 z m 68.33397,7.39327 c 4.21183,-4.08744 6.65125,-8.27024 9.92283,-17.01431 1.1277,-3.01406 3.56879,-7.16081 5.42465,-9.21502 3.02073,-3.34359 3.16402,-3.73494 1.36756,-3.73494 -1.1037,0 -4.48028,0.92548 -7.50351,2.05662 -6.87073,2.57067 -13.18006,8.62777 -14.50053,13.92083 -1.04207,4.1771 -0.57412,17.8082 0.61134,17.8082 0.40699,0 2.51194,-1.71962 4.67766,-3.82138 z m 22.17671,2.66991 c 12.35464,0.33545 16.67385,-0.66317 19.32694,-4.46853 1.84288,-2.64322 5.25989,-11.80465 4.6357,-12.42883 -0.19028,-0.19028 -1.52044,0.10062 -2.95593,0.64635 -1.4355,0.54577 -5.60103,0.99231 -9.25677,0.99231 -10.8084,0 -15.68551,1.48059 -21.19544,6.43449 -2.66262,2.39394 -5.76277,5.64691 -6.8892,7.22887 l -2.0481,2.87625 3.73171,-0.7887 c 2.05244,-0.43378 8.64543,-0.65528 14.65109,-0.49221 z M 252.83616,486.5977 c -1.59111,-2.31258 -4.01536,-6.74273 -5.38723,-9.84477 -5.22369,-11.8117 -10.10588,-15.33949 -22.7951,-16.47136 l -7.14702,-0.63751 2.03111,2.30624 c 1.11712,1.26845 3.98324,5.34696 6.36916,9.06338 5.43808,8.47061 6.56727,9.45046 14.81578,12.85624 3.68961,1.52342 8.44593,3.68726 10.5696,4.80852 2.12367,1.12126 3.99068,2.05786 4.14891,2.08131 0.15823,0.0235 -1.01411,-1.84946 -2.60521,-4.16205 z m -12.64471,1.45979 c 0,-0.77349 -20.14608,-10.76933 -21.705,-10.76933 -0.40745,0 -3.29228,-1.29656 -6.41074,-2.88124 -3.11844,-1.58469 -5.66991,-2.65827 -5.66991,-2.38573 0,0.27252 1.30495,3.08059 2.8999,6.24015 3.05665,6.0552 5.75702,8.45608 10.87987,9.67322 4.30824,1.0236 20.00588,1.12005 20.00588,0.12293 z m 97.3947,-3.47867 c 10.84347,-5.46068 13.56869,-9.35429 13.60467,-19.4374 0.0158,-4.42779 -0.92341,-4.58569 -3.5815,-0.60216 -1.31331,1.96817 -3.79779,5.09886 -5.52109,6.95708 -3.60386,3.88601 -12.12347,15.02734 -12.12347,15.85419 0,0.95175 0.81918,0.65383 7.62139,-2.77171 z m 90.35699,-15.71365 c 3.1855,-1.5828 7.8791,-3.6612 10.43023,-4.61867 6.19008,-2.3232 4.34283,-3.33496 -6.12315,-3.35374 -11.31432,-0.0202 -15.83015,2.21897 -19.43721,9.63827 -4.85113,9.97824 -4.70572,10.26719 2.74842,5.46096 3.62443,-2.33694 9.1962,-5.54401 12.38171,-7.12682 z m 12.70078,5.08631 c 2.82195,-1.66698 6.79149,-7.89991 5.71608,-8.97533 -0.66171,-0.6617 -9.1104,2.905 -17.93421,7.57113 l -7.23978,3.82847 8.22629,-0.32451 c 5.78998,-0.22839 9.11637,-0.85026 11.23162,-2.09976 z m -222.16409,-0.51205 c -0.32388,-0.52405 -2.63005,-2.32456 -5.12482,-4.00115 -2.49477,-1.6766 -5.99766,-4.39713 -7.78422,-6.04565 -3.18863,-2.94228 -3.23527,-2.95299 -2.5404,-0.58403 1.10615,3.77113 3.39271,5.84462 9.6499,8.75068 6.84556,3.17931 6.54156,3.08077 5.79954,1.88015 z m 2.55589,-5.49088 c -1.04119,-2.0306 -2.91272,-4.62561 -4.15895,-5.76669 -2.34035,-2.14289 -11.30612,-5.617 -12.19696,-4.72616 -0.66633,0.66632 8.0162,8.90599 13.3937,12.71056 2.34291,1.65759 4.39379,2.6674 4.55754,2.24404 0.16376,-0.42336 -0.55414,-2.43114 -1.59533,-4.46175 z m 120.87737,-5.47574 c 1.88471,-3.37018 3.71792,-8.03983 4.0738,-10.37702 l 0.64706,-4.24941 -2.98089,2.79251 c -4.01668,3.76286 -5.96587,8.18089 -5.96587,13.52222 0,2.44162 0.17981,4.43931 0.39957,4.43931 0.21976,0 1.9416,-2.75742 3.82633,-6.12761 z m 6.98386,-3.83086 c 0.80028,-1.49527 1.32039,-3.8844 1.15581,-5.30917 -0.25168,-2.17858 -0.87487,-1.38498 -3.91916,4.9908 -1.99094,4.16972 -3.60428,7.86202 -3.58518,8.2051 0.0534,0.95884 4.71128,-4.82764 6.34853,-7.88673 z M 182.46026,421.58819 c 5.44745,-2.96487 9.46599,-8.35024 9.46599,-12.68566 0,-1.71809 -0.86878,-4.82674 -1.93062,-6.9081 -1.06183,-2.08137 -1.93061,-4.74611 -1.93061,-5.92165 v -2.13732 l 2.35983,2.21694 c 3.32885,3.12729 6.77865,2.12099 8.2753,-2.41389 1.72638,-5.231 0.59972,-7.85458 -4.37779,-10.19428 -2.50874,-1.17925 -5.24232,-1.80069 -6.51535,-1.48118 -1.20628,0.30276 -4.69306,3.13483 -7.7484,6.29352 -7.14194,7.38352 -9.7255,8.33989 -15.12366,5.59843 l -4.06353,-2.06365 -2.57205,3.08393 c -3.75068,4.49716 -6.96243,5.3712 -16.94341,4.61096 -9.89766,-0.75389 -10.20649,-0.55441 -10.22911,6.60726 -0.0127,4.02238 0.43525,5.13176 3.18076,7.87727 5.94689,5.94688 17.03446,6.80336 23.56733,1.82049 3.56814,-2.72155 5.42521,-2.4519 2.83388,0.41149 -3.13496,3.4641 -1.63097,5.82146 5.09784,7.99027 3.91082,1.26052 11.68906,-0.003 16.6536,-2.70483 z m -54.78148,-17.87795 c 2.14369,-3.06054 1.868,-6.2773 -0.66926,-7.80899 -8.01342,-4.83759 -16.15395,-10.29911 -19.42918,-13.03513 -3.36366,-2.8099 -3.94031,-3.00648 -4.72198,-1.6097 -2.60809,4.6604 3.52529,13.30985 14.92015,21.04072 6.00168,4.07185 7.85292,4.33609 9.90027,1.4131 z m 28.01241,-11.33383 c 3.38108,-3.27707 4.43652,-7.012 2.34652,-8.3037 -0.58751,-0.36309 -2.79262,-0.091 -4.90025,0.60452 -6.97503,2.30197 -10.25783,-1.39731 -14.73982,-16.6098 -1.97044,-6.68796 -3.12229,-8.92874 -5.79689,-11.27706 -6.70636,-5.88826 -17.2499,-4.92945 -24.39806,2.21873 -3.53202,3.53202 -4.11914,4.69306 -4.11914,8.14581 0,8.05857 3.35709,12.00511 18.34079,21.56117 9.19244,5.86262 14.59963,7.57427 22.88983,7.24583 6.45249,-0.25563 7.21236,-0.51818 10.37702,-3.5855 z m 18.99566,-3.65492 c 1.68597,-1.46002 4.19119,-3.89763 5.5672,-5.4169 4.12732,-4.5571 7.46091,-7.73 10.5941,-10.08346 2.15871,-1.62149 3.48889,-3.92228 4.88975,-8.45771 2.3979,-7.76349 3.38412,-9.6508 7.37672,-14.11674 4.78488,-5.35215 5.78175,-10.26846 3.88127,-19.14152 -1.93883,-9.05205 -1.94128,-11.38502 -0.019,-17.9978 1.26102,-4.33775 1.32382,-5.79883 0.35026,-8.14922 -1.80076,-4.34743 -4.14777,-5.1705 -8.4279,-2.95556 -1.977,1.02309 -4.78912,2.33832 -6.24914,2.92274 -2.44026,0.97681 -2.64912,1.47344 -2.58673,6.15113 0.0373,2.7987 0.38917,5.90683 0.7819,6.90697 0.62822,1.5998 1.09826,1.33334 3.90974,-2.21645 1.75762,-2.21918 3.4038,-3.82676 3.65816,-3.57238 1.15626,1.15625 -2.15996,7.61933 -6.38952,12.45267 -9.33633,10.66916 -9.18045,10.27456 -9.81676,24.84804 -0.69888,16.00613 -2.74684,21.58436 -10.12377,27.57505 -7.56988,6.14737 -9.13847,7.8978 -8.52047,9.50825 0.31691,0.82587 1.12812,1.50157 1.80268,1.50157 0.67458,0 1.76725,0.65157 2.42819,1.44795 1.73671,2.09262 3.42459,1.79717 6.89322,-1.20663 z m 178.34452,-3.69223 c 5.72129,-2.28921 10.82161,-10.6733 14.06274,-23.11687 1.82403,-7.00291 1.8568,-9.23334 0.16956,-11.54077 -1.60668,-2.19726 -7.60194,-2.18978 -14.24825,0.0178 -5.38787,1.78957 -15.57471,10.69546 -18.26446,15.9678 -3.13312,6.14143 -2.41162,13.71845 1.76193,18.50309 1.91576,2.19627 11.21405,2.29139 16.51848,0.16899 z m -191.6385,-5.27249 c 5.15787,-1.9298 11.42888,-7.47893 14.10703,-12.48309 1.14528,-2.13996 2.3194,-11.04592 3.53547,-26.8174 0.55195,-7.15843 0.44422,-7.96376 -1.06533,-7.96376 -2.40242,0 -7.02067,5.29648 -7.80845,8.95519 -1.2591,5.84771 -3.24663,8.3487 -8.90759,11.20877 -7.87011,3.97622 -9.41692,5.98752 -9.25419,12.0332 0.11337,4.21175 0.82617,13.8826 1.20211,16.30937 0.18625,1.20239 2.65959,0.82727 8.19095,-1.24228 z m -12.44898,-7.9281 c -1.48612,-15.04713 -0.62888,-17.6171 7.0024,-20.99277 6.20705,-2.74568 8.60348,-5.21396 10.44496,-10.75814 1.11271,-3.35005 2.77695,-5.68644 5.83626,-8.1933 3.36737,-2.75932 4.04761,-3.78651 3.19101,-4.81865 -2.01622,-2.4294 -9.75433,0.62318 -15.48194,6.10743 -1.93225,1.85016 -6.70964,5.62717 -10.61643,8.39338 -3.90678,2.7662 -7.64068,6.09144 -8.29756,7.3894 -1.82757,3.61121 -1.46185,8.57887 1.19048,16.17044 1.3273,3.79899 2.41326,7.54658 2.41326,8.32794 0,2.53549 2.20321,6.33803 3.6723,6.33803 1.21338,0 1.31182,-1.21483 0.64526,-7.96376 z m 53.85664,5.1546 c 2.77928,-1.54504 8.40993,-3.48815 12.51256,-4.31802 8.39893,-1.69891 13.8372,-4.69598 17.6924,-9.75041 2.09655,-2.74872 2.64307,-4.54251 2.73152,-8.96552 0.10659,-5.32983 -0.002,-5.58152 -3.00578,-6.97724 -4.13967,-1.92343 -3.95726,-3.25444 0.69647,-5.08249 7.49385,-2.94366 7.14293,-10.36862 -0.92585,-19.58926 -2.60144,-2.97281 -6.53081,-8.4365 -8.73191,-12.14151 -3.74148,-6.29785 -4.20131,-6.71708 -7.06319,-6.43959 -2.77476,0.26904 -3.2264,0.79353 -4.82728,5.60598 -2.13382,6.41452 -2.431,19.29434 -0.62916,27.2683 1.56094,6.90803 0.30883,11.91813 -3.96522,15.86598 -3.52998,3.26056 -6.17146,8.16007 -7.07087,13.11534 -0.36342,2.00229 -1.94251,5.10034 -3.50907,6.88457 -2.77638,3.1621 -3.50907,5.38519 -2.20476,6.68948 1.18906,1.18907 3.21778,0.65975 8.30014,-2.16561 z m 126.05132,-3.4948 c 0.35997,-9.51695 8.03959,-19.33578 18.92733,-24.1997 3.44646,-1.53964 6.26146,-3.01654 6.25559,-3.28199 -0.005,-0.26546 -1.74442,-1.68212 -3.86342,-3.14811 -2.11901,-1.46601 -5.10572,-4.64122 -6.63716,-7.05604 -2.28544,-3.60375 -2.88621,-4.06996 -3.35231,-2.60139 -0.31234,0.98407 -4.02327,5.18165 -8.24653,9.32794 -8.52261,8.36727 -10.13598,11.63933 -9.50255,19.27196 0.3484,4.19832 4.68699,16.06068 5.87408,16.06068 0.20876,0 0.45399,-1.96801 0.54497,-4.37335 z M 102.59648,356.86645 c 1.851,-1.99093 3.37719,-4.18064 3.39156,-4.866 0.0804,-3.83513 -5.91789,-17.88421 -7.062424,-16.54155 -2.243313,2.63163 -5.46041,9.9497 -5.46041,12.42103 0,2.45826 4.45556,12.60079 5.537513,12.60542 0.12558,5.5e-4 1.742781,-1.62796 3.593761,-3.6189 z m 33.34211,-5.34639 c 0,-0.68412 0.86222,-2.93502 1.91602,-5.002 1.0538,-2.06698 1.79824,-3.87594 1.65427,-4.01989 -0.14395,-0.14396 -2.31807,0.47771 -4.83136,1.38149 -4.55417,1.63767 -4.58668,1.63438 -9.61803,-0.96962 -2.77663,-1.43707 -6.13439,-2.89992 -7.46167,-3.2508 -1.3273,-0.35087 -3.1655,-1.29828 -4.0849,-2.10537 -2.07213,-1.81899 -6.81324,-16.76395 -6.92993,-21.84462 -0.10147,-4.41706 -2.38216,-6.55358 -4.82853,-4.52328 -2.520589,2.0919 -1.1053,16.37064 2.35452,23.7548 1.50157,3.20475 3.01798,6.97366 3.36978,8.37538 1.0438,4.15885 3.26274,5.31872 11.08435,5.7939 4.04054,0.24546 8.51948,1.13288 10.1357,2.00819 3.50546,1.89848 7.23978,2.10574 7.23978,0.40182 z m 231.43051,-7.58749 c 0.83499,-0.83498 0.76847,-1.7672 -0.26928,-3.774 -0.75801,-1.4658 -1.77589,-2.81295 -2.26196,-2.99365 -0.48607,-0.18069 -1.72712,-1.84888 -2.75787,-3.7071 -1.81338,-3.26911 -2.05906,-3.37857 -7.58295,-3.37857 -5.05366,0 -5.74191,0.23134 -5.99683,2.01564 -0.32602,2.28179 7.79421,11.98128 10.03047,11.98128 2.07888,0 1.62231,-2.67886 -1.05476,-6.18867 -2.95309,-3.87171 -3.21776,-5.89347 -0.58721,-4.48563 1.00433,0.5375 3.17997,3.37629 4.83477,6.30843 3.13716,5.55874 3.80768,6.06021 5.64562,4.22227 z m -228.93304,-3.19879 c 4.60945,-0.16679 13.1309,-5.03018 12.71368,-7.25601 -0.14724,-0.7854 -1.44633,-1.84251 -2.88688,-2.34913 -2.06484,-0.72616 -3.64435,-0.44095 -7.46293,1.34757 -5.541,2.59526 -12.2585,2.96035 -15.29796,0.83142 -1.1286,-0.7905 -4.23751,-3.45047 -6.90869,-5.91105 -4.07646,-3.75506 -4.85668,-5.02322 -4.85668,-7.894 0,-3.80508 -1.30842,-4.4559 -2.91669,-1.45081 -0.83171,1.55407 -0.65726,2.6229 0.82721,5.06784 1.03466,1.70415 2.17319,4.48018 2.53005,6.16897 0.74327,3.5175 1.5358,4.27903 9.60189,9.22634 4.39563,2.69604 6.49582,3.45166 8.29831,2.98559 1.3273,-0.34318 4.18871,-0.68822 6.35869,-0.76673 z M 136.9039,330.2008 c 4.85345,-1.44927 5.93854,-3.56728 3.31357,-6.46784 -1.24346,-1.37401 -2.9718,-1.85879 -6.62696,-1.85879 -2.80585,0 -5.82806,-0.61867 -6.98675,-1.43025 -2.99777,-2.09973 -8.36752,-2.33704 -8.77318,-0.38775 -0.68021,3.26866 8.49331,11.47741 12.79884,11.45278 1.06184,-0.006 3.88535,-0.59474 6.27448,-1.30815 z m 19.60732,-0.36287 c 0.22834,-0.39819 0.70711,-5.28504 1.06392,-10.85967 l 0.64875,-10.1357 -3.92462,-6.02515 c -5.30967,-8.15149 -6.42746,-8.70568 -16.91272,-8.38509 -4.77825,0.14611 -9.01638,0.29887 -9.41805,0.33949 -0.78012,0.0788 -8.65851,12.07109 -9.61849,14.64093 -0.69334,1.8561 -0.0252,2.88586 2.96169,4.56455 3.08667,1.73479 3.58177,0.8699 2.08985,-3.65066 -1.54461,-4.6802 -0.57142,-6.2589 4.86172,-7.88671 3.22481,-0.96617 4.19438,-0.83539 7.84924,1.0587 5.2563,2.72405 12.02375,8.20669 13.52835,10.95997 0.63309,1.15852 1.45497,4.61232 1.82641,7.67512 0.63909,5.26977 2.0776,8.4282 3.83864,8.4282 0.43457,0 0.97697,-0.3258 1.20531,-0.72398 z m -7.60932,-5.79182 c -1.53172,-6.91815 -2.7862,-9.16533 -7.3406,-13.14942 -7.45432,-6.52086 -8.84254,-7.06143 -13.01928,-5.06968 -2.63455,1.25634 -3.22969,1.94579 -2.39777,2.77772 0.83194,0.83194 1.39412,0.81909 2.26497,-0.0517 2.93488,-2.93488 6.88764,0.0163 10.18024,7.60081 1.96255,4.52072 7.48155,10.53445 9.67515,10.54244 0.83577,0.003 1.03827,-0.83902 0.63729,-2.65011 z m 32.4429,-7.73445 c -1.56366,-6.20986 -3.47685,-8.59849 -10.69685,-13.35504 -3.55045,-2.33905 -9.72845,-7.75797 -13.72889,-12.04206 -6.61427,-7.08323 -7.56462,-7.76119 -10.4851,-7.47958 -2.26934,0.21882 -3.55712,1.00662 -4.38942,2.68523 -1.54992,3.126 -0.22681,4.6707 4.32703,5.05166 3.14773,0.26333 4.15634,1.11733 9.33823,7.90692 l 5.80936,7.61172 v 9.2811 c 0,8.75988 0.11648,9.29773 2.07409,9.57677 1.14075,0.1626 3.74064,-0.59757 5.77753,-1.68928 4.89711,-2.6247 7.25477,-2.50338 10.07957,0.51873 l 2.3402,2.50364 0.31469,-3.15002 c 0.17309,-1.73251 -0.16911,-5.07141 -0.76044,-7.41979 z m 4.81413,-5.35468 c -0.61173,-2.04177 -3.37665,-6.17629 -6.14426,-9.18784 -2.76762,-3.01154 -5.63944,-6.99589 -6.38181,-8.8541 -2.41181,-6.03687 -5.05514,-8.87412 -10.51872,-11.29037 -2.93836,-1.29948 -6.64673,-3.46017 -8.24084,-4.80151 -1.5941,-1.34135 -3.88397,-2.81353 -5.08858,-3.27153 -3.06683,-1.16601 -7.56032,0.61862 -8.88655,3.52936 -1.49595,3.28324 -1.53143,3.24905 2.28009,2.19664 4.85885,-1.34159 8.79302,0.85916 15.96814,8.93245 3.28918,3.70091 9.11717,9.04873 12.95108,11.88405 8.27739,6.12141 10.60216,8.88455 12.84223,15.26385 1.52544,4.34414 1.70698,4.52928 2.0044,2.04404 0.17988,-1.50299 -0.17346,-4.40327 -0.78518,-6.44504 z m -52.3168,3.55367 c -0.27041,-2.36626 -0.74083,-2.77218 -3.21271,-2.77218 -2.44159,0 -2.94384,0.41647 -3.20136,2.65459 -0.26299,2.28569 0.0388,2.65459 2.17194,2.65459 1.36256,0 2.47737,0.52127 2.47737,1.15836 0,0.82825 0.29662,0.86176 1.04078,0.1176 0.57243,-0.57243 0.89822,-2.28826 0.72398,-3.81296 z m 97.99774,-3.9788 c -0.27928,-1.99095 -1.12363,-5.86856 -1.8763,-8.61693 -2.59312,-9.46856 -15.55746,-20.58352 -24.00833,-20.58352 -3.94284,0 -4.07374,0.30045 -1.5363,3.52627 1.03089,1.31058 2.35792,4.71221 2.94895,7.5592 1.34204,6.46458 2.65544,7.62926 7.65156,6.78517 5.60051,-0.94621 7.19896,-0.0756 10.20444,5.55775 2.2969,4.30524 6.01774,9.39195 6.87006,9.39195 0.13953,0 0.0252,-1.62896 -0.25408,-3.61989 z m -116.67075,-2.89592 c 2.54569,-6.88723 6.07449,-12.60462 8.93738,-14.48047 1.63229,-1.06951 4.45864,-1.67813 7.81154,-1.68212 7.21108,-0.008 8.63593,-2.11088 4.34136,-6.40546 -2.36316,-2.36316 -4.0966,-3.13913 -7.80936,-3.49588 -11.72324,-1.12645 -20.52775,8.06016 -20.49209,21.38145 0.0191,7.13414 0.78958,9.26767 3.34682,9.26767 1.70682,0 2.53101,-0.97794 3.86435,-4.58519 z m 80.36564,-8.19927 c 3.8429,-1.72667 7.1832,-3.65048 7.4229,-4.27512 0.71891,-1.87345 -4.24062,-10.77879 -7.16095,-12.85826 -4.86636,-3.46515 -11.01828,-2.15243 -15.66333,3.34228 -3.44556,4.07585 -1.23687,11.18333 4.68947,15.09049 1.51774,1.00062 2.97672,1.82397 3.24217,1.82967 0.26546,0.005 3.62685,-1.40239 7.46974,-3.12906 z m -15.24383,-19.04293 c 1.09025,-0.58348 1.98227,-1.45611 1.98227,-1.93918 0,-1.37314 -10.54091,-9.6159 -13.12688,-10.26493 -3.28129,-0.82356 -6.51843,0.19063 -10.02427,3.14061 -3.35715,2.82486 -3.09922,3.45388 2.09687,5.11345 1.95853,0.62552 5.82298,3.29473 8.58767,5.93155 l 5.02668,4.79421 1.7377,-2.85741 c 0.95574,-1.57159 2.62972,-3.33482 3.71996,-3.9183 z m 99.62819,-23.42155 c 2.52904,-7.17534 2.87274,-9.22497 2.30668,-13.75559 -0.7172,-5.74021 -1.94095,-6.93865 -2.72567,-2.6693 -0.26835,1.46002 -1.907,6.64657 -3.64141,11.52566 l -3.1535,8.87109 1.82261,4.64317 c 1.54783,3.94319 1.86759,4.27937 2.12101,2.22993 0.16413,-1.3273 1.63576,-6.20753 3.27028,-10.84496 z m -12.7356,8.96326 c -1.83817,-1.56586 -5.73124,-4.12973 -8.65129,-5.69752 -5.21617,-2.80059 -18.26821,-7.29467 -19.01548,-6.54742 -0.55654,0.55655 11.11128,9.16814 15.35571,11.33348 3.8806,1.97974 9.406,3.5036 13.27636,3.66149 2.28699,0.0933 2.25053,-0.0106 -0.9653,-2.75003 z m 2.93236,-7.22284 c 0,-1.822 1.30316,-6.84708 2.89592,-11.16686 3.25999,-8.84154 3.70403,-15.49423 1.40345,-21.02638 -1.4513,-3.48987 -9.67556,-12.75927 -11.32067,-12.75927 -0.45068,0 -0.53523,1.89511 -0.18789,4.21135 0.41376,2.75918 -0.0893,7.929 -1.45878,14.99283 -2.5945,13.38199 -1.90069,17.39029 4.48719,25.9238 3.00794,4.01826 4.18078,3.96903 4.18078,-0.17547 z m -12.2142,-6.44091 c -3.83199,-7.04063 -9.10766,-12.67497 -16.03415,-17.12429 -3.31098,-2.12684 -7.69823,-5.44298 -9.74949,-7.3692 -2.05124,-1.92624 -3.85973,-3.37058 -4.01887,-3.20967 -0.8112,0.8202 1.42018,14.28139 2.81417,16.97709 2.01545,3.89743 7.11478,7.16484 14.55964,9.32912 3.1652,0.92014 7.72418,2.69925 10.13105,3.95357 2.4069,1.25432 4.51187,2.30081 4.67773,2.32553 0.16587,0.0248 -0.90517,-2.17225 -2.38008,-4.88215 z m 0.75056,-20.31165 c 2.31548,-10.83406 1.46879,-17.30983 -2.82583,-21.61299 -2.8003,-2.80587 -11.54647,-8.14668 -13.36542,-8.16155 -1.51709,-0.0123 2.91678,13.99111 8.90034,28.1099 2.61671,6.17437 4.89342,11.10645 5.05936,10.96017 0.16594,-0.14628 1.17013,-4.32927 2.23155,-9.29553 z m -12.47906,-4.48256 c -3.61936,-8.3952 -8.94862,-16.67404 -15.9761,-24.81838 l -3.33171,-3.86122 0.47809,8.68774 c 0.70275,12.77076 2.49732,15.90911 13.33064,23.3129 4.77827,3.26559 8.81604,5.81601 8.97286,5.66761 0.15681,-0.14843 -1.40639,-4.1933 -3.47378,-8.98865 z m -8.45922,-24.81739 c -1.49611,-3.15281 -5.52857,-6.27548 -8.10389,-6.27548 -0.56331,0 1.14819,2.28054 3.80336,5.06785 2.65516,2.78732 4.86633,5.50224 4.91369,6.03316 0.0474,0.53091 0.29872,0.44189 0.55853,-0.19782 0.2598,-0.63971 -0.26745,-2.72218 -1.17169,-4.62771 z m 149.95426,-3.91695 c 1.17996,-0.82648 2.15205,-2.45543 2.16018,-3.61989 0.007,-1.16446 0.45033,-2.76878 0.98267,-3.56516 0.97687,-1.46135 1.33034,-1.17227 6.78702,5.5505 1.45125,1.78799 6.75593,1.45663 10.18843,-0.63643 1.65586,-1.00971 5.08509,-4.59178 7.6205,-7.96015 2.53541,-3.36838 7.37062,-8.81073 10.74491,-12.09412 6.40965,-6.23701 7.19378,-8.15319 4.53751,-11.08833 -1.28319,-1.41791 -3.04032,-1.76248 -8.92907,-1.75103 -8.95751,0.0175 -16.98014,1.82497 -25.40249,5.72329 -8.18343,3.78774 -11.40518,3.71793 -19.63121,-0.4254 -5.14324,-2.59057 -7.89485,-3.37628 -11.83202,-3.37857 -3.05734,-0.002 -7.02398,-0.81765 -9.81714,-2.01923 -8.99212,-3.86831 -11.32833,-0.51259 -4.6337,6.65581 2.32726,2.49197 6.00703,8.22313 8.17728,12.73592 3.95888,8.23207 7.93875,12.94076 13.3344,15.77631 3.81108,2.00281 12.91128,2.05869 15.71273,0.0965 z m 53.93287,-22.22799 c 8.19153,-8.08777 12.16554,-18.27417 10.53016,-26.99148 l -0.66951,-3.56874 -3.14482,3.43334 c -1.72965,1.88834 -5.60957,4.52337 -8.62207,5.85564 -5.96717,2.63898 -6.77053,4.49034 -4.02928,9.28566 2.52613,4.41902 1.77749,6.58441 -4.51387,13.05584 -8.51846,8.7623 -8.60112,9.28535 -1.00264,6.34512 4.57348,-1.7697 7.94512,-3.95289 11.45203,-7.41538 z m -102.63084,-7.09636 c 2.04063,-0.77585 2.47034,-1.73236 3.05977,-6.81082 0.81172,-6.9939 -0.12689,-8.48707 -7.72139,-12.28338 -9.68546,-4.84151 -13.00186,-9.68117 -10.58987,-15.45387 1.61619,-3.86807 1.33584,-4.415 -3.5035,-6.83474 -4.61408,-2.3071 -7.74388,-8.4666 -8.35321,-16.4392 -0.27043,-3.53838 -0.88429,-7.1936 -1.36415,-8.12271 -1.13957,-2.20646 -6.04505,-2.20575 -10.43835,0.001 -5.2124,2.61876 -7.74167,7.17463 -7.74167,13.94474 0,6.54288 1.58672,10.28694 6.55945,15.47778 3.85712,4.02631 3.68142,5.66508 -0.32587,3.03939 -2.56425,-1.68016 -2.66125,-1.66893 -4.42762,0.51247 -2.08916,2.57998 -2.3546,10.26557 -0.52588,15.22565 2.0789,5.63864 7.00588,11.5219 11.45133,13.6739 6.56386,3.17751 10.28735,2.76201 15.99849,-1.78528 6.2675,-4.99025 10.07972,-5.30798 6.47302,-0.53948 -1.89947,2.51133 -1.78889,5.05363 0.27202,6.25399 2.1371,1.24475 8.07607,1.31915 11.17743,0.14002 z m 62.8755,-6.47185 c 7.16986,-3.40854 8.23215,-3.64276 15.75424,-3.4736 7.37988,0.16596 8.26544,-0.018 10.41118,-2.16382 2.70591,-2.70591 3.04903,-6.43902 0.76598,-8.33377 -0.86858,-0.72086 -2.61158,-2.946 -3.87332,-4.94472 -1.4919,-2.36333 -3.01966,-3.63406 -4.36906,-3.63406 -2.64368,0 -12.38037,3.04557 -12.38037,3.87249 0,0.34321 2.18054,1.64532 4.84563,2.89359 3.07769,1.44151 4.50933,2.60587 3.9239,3.19129 -1.46566,1.46566 -8.67849,-0.79625 -17.86887,-5.60356 -9.72104,-5.0849 -13.38323,-5.43749 -25.16897,-2.4232 -8.2102,2.09981 -17.29549,2.47833 -22.79819,0.94983 -3.41048,-0.94735 -5.02538,-1.9593 -13.51924,-8.47172 -5.57201,-4.27219 -7.79032,-3.84537 -8.88411,1.70941 -0.76528,3.8864 -0.6355,4.47159 1.28457,5.79181 1.17471,0.80775 3.10086,2.4298 4.28031,3.60457 1.17947,1.17476 4.28161,3.04783 6.89367,4.16235 2.61203,1.11453 6.05234,3.28065 7.64508,4.8136 4.10002,3.94607 9.15576,5.78092 15.92862,5.78092 4.42201,0 7.08734,0.62577 10.89066,2.55694 2.76967,1.4063 6.12174,2.91353 7.44902,3.34939 4.26741,1.40133 10.90731,0.11934 18.78927,-3.62774 z m 38.89082,-14.01333 c 4.29787,-2.65622 8.92592,-9.89481 8.92592,-13.96075 0,-3.7942 -3.45935,-8.18672 -8.23062,-10.45083 -5.05299,-2.39779 -9.43455,-0.70231 -13.093,5.06647 -1.54495,2.43612 -2.80899,5.16863 -2.80899,6.07225 0,1.56976 10.12996,15.35457 11.28352,15.35457 0.3052,0 2.07062,-0.93677 3.92317,-2.08171 z m -64.73363,-10.98046 c 5.9425,-0.74412 11.91533,-1.63175 13.27293,-1.97247 6.10053,-1.53114 -0.26913,-6.97574 -9.50031,-8.12056 -7.71032,-0.95621 -8.99364,-1.67705 -14.82855,-8.32911 -4.38486,-4.99893 -5.18406,-5.49279 -9.57086,-5.91431 -3.8444,-0.36939 -5.76495,0.0359 -9.75768,2.05918 -2.73416,1.38549 -6.01841,2.51909 -7.29835,2.51909 -3.96571,0 -4.88996,2.20325 -2.70248,6.44224 4.87658,9.45006 16.53127,16.31839 25.7195,15.15698 2.12367,-0.26844 8.72327,-1.0969 14.6658,-1.84104 z m 39.53833,-0.94832 c 3.77549,-1.8814 5.45204,-3.49619 7.45961,-7.18476 1.42427,-2.61685 5.42928,-7.25103 8.90001,-10.29816 7.00792,-6.15261 8.49608,-8.48256 9.46994,-14.82676 0.36554,-2.38118 1.78059,-6.816163 3.14457,-9.855526 2.71942,-6.059675 2.55165,-9.164544 -0.66929,-12.385475 -1.04833,-1.048333 -3.00318,-1.906057 -4.34411,-1.906057 -2.38907,0 -2.40847,0.05721 -0.96531,2.847974 2.92795,5.662004 1.75772,9.854765 -5.47268,19.608044 -2.70629,3.65058 -6.55506,10.62528 -8.55282,15.49932 -3.96584,9.67574 -8.77754,16.07404 -14.27025,18.97571 -5.50635,2.90888 -0.60948,2.47067 5.30033,-0.47431 z m -8.92155,-2.46078 c 7.56897,-3.34811 10.58667,-6.7479 13.98751,-15.75852 1.68861,-4.47404 4.89875,-10.84182 7.13366,-14.15063 7.40576,-10.964352 8.63291,-13.403609 8.00389,-15.909781 -0.83897,-3.342701 -4.70369,-5.715485 -7.16431,-4.398598 -1.56501,0.837579 -1.81301,1.708378 -1.38832,4.874767 0.59078,4.404537 -0.3478,6.194179 -7.70158,14.685122 -5.41644,6.25402 -8.64933,8.04824 -16.16269,8.97021 -7.50036,0.92036 -8.68774,1.37712 -8.68774,3.34198 0,0.95412 1.29087,3.20538 2.8686,5.0028 1.57773,1.79743 3.37839,4.48774 4.00146,5.97847 0.97534,2.33354 0.84489,3.09994 -0.938,5.51142 -1.13895,1.54054 -2.07084,3.03577 -2.07084,3.32272 0,1.12128 3.82693,0.42835 8.11836,-1.46996 z m -9.82334,-6.64705 c -0.44803,-3.9836 -4.10542,-8.67741 -9.74606,-12.50789 -3.00547,-2.04097 -8.39083,-6.36283 -11.96749,-9.60413 -3.57664,-3.24131 -7.61547,-6.172497 -8.97516,-6.513752 -4.39976,-1.104279 -10.91781,0.238959 -15.14443,3.120962 -2.23526,1.52415 -6.67899,4.10116 -9.87496,5.72672 -6.25529,3.18159 -8.21751,6.21484 -4.02037,6.21484 1.32999,0 5.95254,-1.30316 10.27232,-2.89592 4.31977,-1.59274 8.59146,-2.89591 9.49263,-2.89591 2.97598,0 7.74805,3.31652 10.71462,7.44648 3.54679,4.93773 6.57425,6.58109 13.72566,7.45048 4.30395,0.52322 6.24086,1.35927 9.17039,3.95832 4.22613,3.74938 6.74059,3.94721 6.35285,0.4998 z m -64.91437,-1.48085 c 0.95984,-1.15656 0.79696,-2.09521 -0.84711,-4.8817 -4.32913,-7.33734 -1.6979,-12.28495 9.92618,-18.66461 12.16819,-6.678296 16.06086,-11.217632 16.011,-18.670848 -0.043,-6.420443 -5.80938,-15.592717 -11.75585,-18.69929 -3.13152,-1.635984 -8.79052,-1.770762 -11.69504,-0.278532 -3.19323,1.640556 -7.41487,5.821043 -9.05918,8.970866 -0.80805,1.547881 -3.1584,7.700116 -5.223,13.67164 -3.05192,8.827175 -3.75382,12.199784 -3.75382,18.036984 0,10.83294 2.65631,16.79581 9.00644,20.2176 3.81426,2.05534 5.86328,2.13793 7.39038,0.29789 z m 121.40037,-8.16872 c 4.4967,-8.80614 3.82823,-15.7714 -1.89854,-19.782604 -3.45357,-2.418964 -4.4526,-1.823917 -5.16872,3.078644 -0.64084,4.38728 -3.47567,10.82189 -6.79913,15.43301 -1.45204,2.0146 -1.43573,2.19811 0.24226,2.72505 4.35084,1.36629 8.07363,3.37214 8.07363,4.35009 0,2.62039 2.67933,-0.18138 5.5505,-5.80419 z m -51.40246,-9.56995 c 8.34786,-0.93733 9.29156,-1.44257 16.17619,-8.66037 5.88052,-6.165109 6.6675,-8.667973 4.50847,-14.338332 -0.56907,-1.494579 -1.44148,-4.859159 -1.93865,-7.476835 -0.49719,-2.617676 -1.59733,-5.525548 -2.44475,-6.461934 -1.85687,-2.051823 -16.98285,-7.137425 -18.96564,-6.376549 -1.35406,0.519599 -3.12656,6.336902 -2.21006,7.253396 0.24647,0.246471 2.01187,-0.474484 3.92309,-1.602142 4.59304,-2.709951 5.62699,-2.599227 8.58798,0.919707 3.37318,4.008801 3.25545,8.861565 -0.42974,17.713819 -3.56788,8.57042 -5.35781,10.336652 -13.98711,13.80193 -5.36662,2.15507 -6.79974,3.16601 -7.0576,4.97849 -0.30419,2.13809 -0.10189,2.23636 3.37857,1.64091 2.03616,-0.34835 6.74283,-0.9748 10.45925,-1.39209 z m -16.41017,-4.96208 c 0.84797,-2.67172 -0.26915,-5.730926 -3.40662,-9.328923 -6.02402,-6.908268 -6.10358,-14.016234 -0.27067,-24.18591 3.23584,-5.641697 4.25157,-6.669485 7.35749,-7.444879 3.85444,-0.962242 4.29474,-2.760482 0.80158,-3.273749 -1.23394,-0.181305 -3.42726,0.757631 -5.23358,2.24043 -1.71018,1.403885 -4.61889,3.509052 -6.46381,4.678129 -2.84874,1.805194 -3.7769,3.388813 -6.15735,10.505798 l -2.80298,8.380212 2.59021,4.953682 c 1.42462,2.724523 2.40135,5.459265 2.17052,6.077208 -0.57213,1.531561 7.06551,9.328612 9.13788,9.328612 0.91551,0 1.94031,-0.86877 2.27733,-1.93061 z m 11.10099,-4.60136 c 4.85945,-2.414919 5.61448,-3.251686 8.91338,-9.878204 1.98232,-3.981884 3.61127,-8.337692 3.6199,-9.679592 0.0188,-2.936488 -2.45182,-6.730584 -4.38292,-6.730584 -1.80603,0 -1.78008,1.373151 0.0547,2.895914 3.25554,2.701859 1.22344,7.019378 -5.72205,12.157432 -5.29184,3.914755 -11.44792,13.955114 -8.51619,13.889614 0.39819,-0.008 3.11311,-1.20345 6.03315,-2.65458 z m -82.30421,-9.878204 c 1.71886,-5.043724 4.51394,-12.094743 6.21129,-15.668939 1.69735,-3.574207 2.83258,-6.752056 2.52274,-7.061902 -0.30986,-0.309846 -2.31522,-0.09166 -4.45637,0.484924 -5.96928,1.607358 -12.09659,10.525881 -16.18265,23.554438 -1.74375,5.560012 -1.74171,5.675087 0.12496,7.04142 1.04373,0.763963 3.41805,1.261099 5.27626,1.104743 3.35179,-0.282041 3.40332,-0.356942 6.50377,-9.454684 z m 57.20631,6.317346 c 0,-0.241877 -1.12004,-2.088025 -2.48897,-4.10254 -2.00243,-2.946782 -2.38581,-4.417542 -1.96129,-7.523988 0.29022,-2.123669 0.77773,-5.815954 1.08336,-8.20508 1.22667,-9.588894 2.05023,-10.721715 11.46701,-15.772959 3.12776,-1.67776 6.60286,-3.587061 7.72243,-4.242881 1.11957,-0.655821 2.98193,-1.198799 4.13857,-1.206627 2.37921,-0.01612 5.13679,-2.374439 5.13679,-4.393085 0,-2.958929 -3.72673,-3.579074 -8.99048,-1.496075 -2.75353,1.089645 -6.77966,2.419998 -8.94694,2.956328 -2.16728,0.53633 -5.64238,2.465734 -7.72243,4.287565 -2.08006,1.82183 -5.73666,4.785185 -8.12579,6.585238 -4.02072,3.029332 -4.3206,3.555368 -4.031,7.071016 0.17209,2.089016 0.38928,8.353829 0.48266,13.921795 l 0.16977,10.123594 4.67956,0.66957 c 2.57375,0.368258 4.92667,0.916694 5.22873,1.218744 0.65591,0.655904 2.15802,0.732038 2.15802,0.109385 z m 20.68264,-5.657333 c 0.60905,-1.701497 0.48321,-3.741587 -0.39494,-6.402429 -1.01769,-3.083604 -1.05109,-4.698726 -0.15879,-7.67699 1.12121,-3.742247 0.23197,-8.782596 -1.54945,-8.782596 -1.79779,0 -5.21587,3.272758 -6.87176,6.57959 -3.70662,7.402166 -3.517,9.884516 1.34308,17.583393 2.37433,3.76118 2.63469,3.906969 4.62693,2.59085 1.16106,-0.767039 2.51327,-2.518351 3.00493,-3.891818 z m 8.66631,-7.712563 c 1.05982,-0.774952 1.59582,-2.169712 1.39113,-3.619881 -0.26872,-1.90378 -0.89201,-2.359183 -3.22891,-2.359183 -2.5597,0 -2.87481,0.308203 -2.71419,2.654584 0.1,1.460031 -0.25147,2.654594 -0.78094,2.654594 -0.52948,0 -0.69421,0.434383 -0.36608,0.965298 0.83372,1.348991 3.64978,1.203023 5.69899,-0.295412 z m 30.22541,-4.432531 c 5.44659,-8.101542 -0.33792,-20.842956 -11.20287,-24.676331 -5.22993,-1.845231 -9.69725,-1.864417 -16.43741,-0.07059 -10.87106,2.893195 -10.41507,7.028587 0.97416,8.834982 8.48535,1.34581 12.17376,2.671748 15.12649,5.437782 1.99633,1.870097 2.73493,3.77648 4.51166,11.644889 0.83714,3.707289 4.1157,3.16115 7.02797,-1.17072 z M 357.16931,60.759358 c 1.57739,-1.327297 3.45284,-2.413264 4.16763,-2.413264 1.38515,0 7.23999,-5.421546 7.23999,-6.70418 0,-1.343597 -11.54887,-4.0752 -14.4943,-3.428282 -2.39035,0.525014 -12.25577,8.872954 -11.38597,9.634609 0.8109,0.710082 10.06001,5.240325 10.77869,5.279424 0.45429,0.02476 2.11656,-1.04102 3.69396,-2.368307 z"
       id="path8355" />
    <path
       style="fill:#ff2a2a;stroke:#000000;stroke-width:0.925301"
       d="m 167.04087,388.90639 c -1.65397,-1.05923 -3.00722,-2.27448 -3.00722,-2.70056 0,-0.42608 2.73236,-3.18847 6.07191,-6.13866 9.99339,-8.82825 11.056,-11.3676 12.45561,-29.76541 1.02432,-13.46458 1.63064,-15.25222 7.45603,-21.98293 4.69785,-5.42795 7.98915,-10.57031 8.77863,-13.71585 0.79162,-3.15407 -0.50001,-3.02172 -3.76459,0.38577 -1.46272,1.52675 -2.99797,2.77591 -3.41167,2.77591 -0.41371,0 -0.75219,-2.50357 -0.75219,-5.56348 v -5.56348 l 5.29023,-2.33959 c 6.40202,-2.83127 8.63273,-2.64189 10.31363,0.8756 1.10439,2.31109 1.07195,3.61891 -0.23761,9.5787 -1.41021,6.41781 -1.40774,7.51184 0.0352,15.59004 1.85842,10.40447 1.26622,13.27558 -4.26827,20.69346 -2.04317,2.73848 -4.54353,7.30285 -5.55634,10.14306 -1.01281,2.8402 -2.57783,6.43073 -3.47782,7.97896 -1.69445,2.91494 -20.94339,21.7175 -22.20486,21.68993 -0.39237,-0.009 -2.06666,-0.88223 -3.72064,-1.94147 z"
       id="path8357" />
    <path
       style="fill:#ff2a2a;stroke:#000000;stroke-width:0.925301"
       d="m 194.56859,377.62635 c 0,-0.6645 1.02816,-2.60178 2.2848,-4.30506 1.25664,-1.70328 3.16747,-5.7493 4.24629,-8.99115 1.23531,-3.71211 3.46827,-7.65952 6.03149,-10.66241 2.26054,-2.64829 4.33169,-6.16301 4.6586,-7.90561 0.32373,-1.72562 0.066,-7.58592 -0.57276,-13.0229 -1.66358,-14.16027 0.50188,-27.08011 4.76564,-28.43337 2.36672,-0.75117 3.05452,-0.16242 7.41245,6.3451 2.10892,3.14917 6.09834,8.7159 8.86538,12.37053 7.64446,10.0966 7.69774,15.71417 0.17856,18.82871 -3.47337,1.43872 -3.44444,3.71101 0.0727,5.71239 2.34877,1.33652 2.77005,2.13652 2.77005,5.26025 0,9.94862 -5.97406,15.55637 -20.80718,19.53135 -3.91634,1.04951 -9.15073,2.93693 -11.63198,4.19427 -4.96206,2.51447 -8.27409,2.94594 -8.27409,1.0779 z"
       id="path8359" />
    <path
       style="fill:#ff2a2a;stroke:#000000;stroke-width:0.925301"
       d="m 226.56871,305.85624 c -4.49679,-7.01546 -6.44887,-8.18262 -11.9572,-7.14925 -3.68661,0.69161 -5.62415,-1.0441 -6.61448,-5.92547 -0.36137,-1.7812 -1.62755,-5.00819 -2.81375,-7.17108 l -2.15671,-3.93253 2.47944,0.0203 c 6.16017,0.0505 18.68306,9.36548 22.35539,16.62877 1.73357,3.42873 4.05328,12.93494 3.33232,13.6559 -0.23392,0.23391 -2.31517,-2.52308 -4.62501,-6.12666 z"
       id="path8361" />
    <path
       style="fill:#ff2a2a;stroke:#000000;stroke-width:0.925301"
       d="m 183.48968,298.57576 c -4.28649,-4.2865 -5.47726,-7.95094 -3.63686,-11.19203 3.52266,-6.20369 11.5577,-8.11211 16.14315,-3.83419 1.35135,1.26072 3.4435,4.23007 4.64922,6.59854 2.48838,4.88808 2.52117,4.82921 -4.68865,8.41835 -8.08819,4.02641 -8.44951,4.02668 -12.46686,0.009 z"
       id="path8363" />
    <path
       style="fill:#ff2a2a;stroke:#000000;stroke-width:0.925301"
       d="m 170.29715,282.13405 c -2.3744,-2.14968 -6.31232,-4.84638 -8.75094,-5.99266 l -4.43384,-2.08416 3.19436,-2.66677 c 4.42117,-3.69096 8.28632,-3.55287 13.79782,0.49294 2.36742,1.73784 5.05203,3.98585 5.96582,4.99557 1.59923,1.76714 1.59766,1.88265 -0.0421,3.08607 -0.93696,0.68762 -2.53841,2.33636 -3.55878,3.66387 l -1.85522,2.41366 -4.31709,-3.90852 z"
       id="path8365" />
    <path
       style="fill:#ff2a2a;stroke:#000000;stroke-width:0.925301"
       d="m 184.63796,313.32604 c -1.5265,-4.20669 -3.73149,-6.80963 -10.07273,-11.89062 -2.99334,-2.39844 -9.68432,-8.44964 -14.86886,-13.44711 -9.39951,-9.06035 -9.43981,-9.08631 -14.11084,-9.08631 -5.09868,0 -5.67679,-0.66569 -2.82187,-3.24936 2.60531,-2.35777 6.731,-2.09905 10.33949,0.64839 1.68599,1.28368 4.93917,3.27437 7.22929,4.42376 6.64919,3.33716 9.79422,6.12137 11.84648,10.48736 1.05427,2.24287 4.06181,6.7405 6.68342,9.99474 5.77746,7.17163 7.58816,10.48492 7.18673,13.15051 -0.26062,1.73055 -0.46241,1.58306 -1.41111,-1.03136 z"
       id="path8367" />
    <path
       style="fill:#ff2a2a;stroke:#000000;stroke-width:0.925301"
       d="m 162.79991,324.5502 c -0.33928,-0.33928 -0.61687,-4.53747 -0.61687,-9.32931 v -8.71245 l -5.67835,-7.34024 c -3.80615,-4.9201 -6.4756,-7.50924 -8.09639,-7.8528 -3.62677,-0.76878 -6.58188,-2.0994 -6.58188,-2.96369 0,-1.44048 2.30869,-3.70968 4.40941,-4.33399 1.74924,-0.51985 3.51034,0.73747 10.64096,7.59702 4.69965,4.52098 10.83493,9.90854 13.63396,11.97237 2.79904,2.06382 5.85743,4.61314 6.79642,5.66517 2.3006,2.57753 4.21704,8.19765 4.26658,12.51206 l 0.0406,3.53704 -2.43804,-1.91776 c -3.03178,-2.3848 -4.62669,-2.39915 -9.72116,-0.0875 -4.33625,1.96763 -5.68714,2.22218 -6.65526,1.25406 z"
       id="path8369" />
    <path
       style="fill:#ff2a2a;stroke:#000000;stroke-width:0.925301"
       d="m 153.12205,326.83426 c -0.49963,-1.68033 -1.39977,-5.44087 -2.00031,-8.35674 -0.94,-4.56417 -1.69459,-5.82176 -5.42493,-9.04118 -2.38317,-2.05676 -6.47581,-4.79947 -9.09474,-6.09489 -4.2012,-2.07807 -5.196,-2.23837 -8.45125,-1.36183 -5.0957,1.37213 -6.10027,2.85973 -5.3427,7.91157 0.67738,4.51714 -0.10706,5.21587 -2.67279,2.38076 -1.55268,-1.71569 -1.51472,-1.98729 0.89733,-6.419 1.38523,-2.54514 3.63093,-5.95991 4.99044,-7.58838 2.29453,-2.74848 2.97409,-2.9931 9.47359,-3.41021 10.40963,-0.66805 12.95555,0.48267 18.06364,8.16453 l 4.22814,6.35853 -0.80994,9.90448 c -0.84659,10.35264 -2.22259,13.04733 -3.85648,7.55236 z"
       id="path8371" />
    <path
       style="fill:#ff2a2a;stroke:#000000;stroke-width:0.925301"
       d="m 109.07722,309.82392 c -1.05374,-2.74602 -0.56454,-11.15244 0.89897,-15.44759 3.79048,-11.12445 18.32013,-16.19256 25.58749,-8.9252 4.23886,4.23886 3.70639,4.74587 -6.1868,5.89095 -5.98814,0.6931 -8.94009,3.53575 -13.26554,12.77438 -3.33151,7.11571 -5.74291,9.07231 -7.03412,5.70746 z"
       id="path8373" />
    <path
       style="fill:#ff2a2a;stroke:#000000;stroke-width:0.925301"
       d=""
       id="path8375" />
    <path
       style="fill:#ff2a2a;stroke:#000000;stroke-width:0.462651"
       d="m 146.83794,378.37722 c -0.53687,-0.68252 -1.17553,-1.99348 -1.41924,-2.91325 -0.77638,-2.93006 -2.75334,-9.87149 -3.95006,-13.86929 -1.30664,-4.36503 -1.53445,-9.37264 -0.53499,-11.76003 0.76416,-1.82536 2.68775,-3.58492 9.81408,-8.97725 3.03826,-2.29897 7.29375,-5.68526 9.45664,-7.52508 4.08091,-3.47134 8.8061,-6.20032 11.66413,-6.73649 1.74499,-0.32736 3.60334,0.33079 3.60334,1.27616 0,0.29928 -1.72298,2.21774 -3.82885,4.26324 -3.48613,3.38619 -3.98931,4.10839 -5.62136,8.06817 -2.24806,5.45437 -3.83934,7.0922 -9.93049,10.22101 -7.58098,3.89408 -8.2342,5.25529 -7.66122,15.96486 0.7142,13.34935 0.53578,14.69295 -1.59198,11.98795 z"
       id="path8377" />
    <path
       style="fill:#ff2a2a;stroke:#000000;stroke-width:0.462651"
       d="m 153.51674,380.905 c -0.39266,-1.10574 -1.16768,-11.57056 -1.17265,-15.83377 -0.007,-6.39958 0.99338,-7.77471 8.78559,-12.07116 2.16289,-1.19258 4.52447,-2.72763 5.24796,-3.41125 1.53374,-1.44921 3.28379,-4.71392 3.76632,-7.02606 0.8487,-4.06667 5.59316,-9.9402 7.77831,-9.62936 0.9732,0.13844 1.01497,0.33396 0.9207,4.30888 -0.12724,5.36548 -1.358,18.6483 -2.24961,24.27879 -0.97497,6.15687 -3.50166,10.03932 -9.43743,14.50132 -4.54797,3.41876 -13.07503,6.47131 -13.63919,4.88261 z"
       id="path8379" />
    <path
       style="fill:#ff2a2a;stroke:#000000;stroke-width:0.462651"
       d="m 138.4598,395.47911 c -2.3365,-0.44608 -7.1551,-2.11829 -9.4444,-3.27751 -6.69146,-3.38831 -18.63863,-11.84425 -21.06777,-14.91129 -2.76147,-3.48665 -4.09143,-7.9947 -3.50745,-11.88897 0.45796,-3.05385 5.11914,-7.88173 9.88245,-10.23589 3.26654,-1.61441 3.78193,-1.73024 7.68907,-1.72806 4.92375,0.003 7.30413,0.88167 10.58954,3.91007 2.51611,2.31926 3.30722,3.94318 6.11154,12.54521 3.41673,10.48051 5.66727,14.29009 9.03876,15.30021 1.51141,0.45283 2.45727,0.40034 5.56149,-0.30865 4.0475,-0.92442 5.15138,-0.70396 5.41764,1.08198 0.32276,2.16487 -3.39777,7.0889 -6.62268,8.76496 -1.38917,0.72199 -11.01978,1.24976 -13.64819,0.74794 z"
       id="path8381" />
    <path
       style="fill:#ff2a2a;stroke:#000000;stroke-width:0.462651"
       d="m 129.75827,351.35357 c -2.94078,-1.33462 -4.77788,-1.73935 -11.32281,-2.49453 -7.78871,-0.89868 -9.02285,-1.50702 -10.42686,-5.13965 -0.59009,-1.52675 -2.01797,-5.04314 -3.17306,-7.8142 -2.54816,-6.11302 -3.92252,-12.44565 -3.97716,-18.32556 -0.0439,-4.72143 0.41313,-6.21198 2.06538,-6.73639 1.58421,-0.5028 3.01448,1.50566 3.38615,4.75503 0.43769,3.82655 1.80907,9.53583 3.37856,14.06546 2.58123,7.44956 3.75978,8.96381 8.09389,10.39932 1.3215,0.43769 4.46621,1.80377 6.98823,3.03571 2.52202,1.23195 4.95753,2.2399 5.41226,2.2399 0.45472,0 2.52255,-0.53569 4.59516,-1.19043 2.07261,-0.65474 3.86052,-1.0983 3.97312,-0.9857 0.1126,0.1126 -0.50266,1.8454 -1.36724,3.85067 -0.86458,2.00527 -1.69833,4.01028 -1.85279,4.45558 -0.38449,1.10854 -3.20017,1.05235 -5.77283,-0.11521 z"
       id="path8383" />
    <path
       style="fill:#ff2a2a;stroke:#000000;stroke-width:0.462651"
       d="m 97.140379,357.0793 c -0.909635,-1.80629 -2.087682,-4.57188 -2.617882,-6.14576 -0.82075,-2.43636 -0.88684,-3.15061 -0.444756,-4.80655 0.684319,-2.56329 3.283785,-8.12597 4.4669,-9.55886 l 0.938634,-1.13679 2.114365,4.37535 c 2.53674,5.24938 4.27295,10.91421 3.85521,12.57862 -0.16402,0.65351 -1.7293,2.71595 -3.47841,4.58318 l -3.180179,3.39498 z"
       id="path8385" />
    <path
       style="fill:#ff2a2a;stroke:#000000;stroke-width:0.462651"
       d="m 121.45626,404.12671 c -6.81396,-3.75676 -14.93492,-11.08801 -17.4215,-15.72737 -1.52618,-2.84748 -1.85274,-6.05532 -0.73069,-7.17771 0.62455,-0.62475 1.22778,-0.30393 5.61715,2.98734 2.7046,2.02798 8.11403,5.72994 12.02096,8.22656 7.59941,4.85622 8.18921,5.5179 7.62053,8.54926 -0.35804,1.90848 -2.56544,4.50238 -3.82106,4.49007 -0.47044,-0.005 -1.94887,-0.61127 -3.28539,-1.34815 z"
       id="path8387" />
    <path
       style="fill:#ff2a2a;stroke:#000000;stroke-width:0.462651"
       d="m 164.19816,423.31385 c -5.02147,-2.06455 -5.84424,-3.78748 -3.26977,-6.84707 2.56004,-3.04243 0.85866,-3.48611 -3.23634,-0.84396 -5.91823,3.81853 -12.33339,4.29475 -18.54187,1.37642 -2.50511,-1.17754 -6.03474,-4.22101 -6.95168,-5.99419 -0.97648,-1.8883 -0.94143,-9.3566 0.0486,-10.34659 0.93984,-0.93984 0.35496,-0.89086 11.07057,-0.92708 10.77968,-0.0364 10.91714,-0.0779 15.14033,-4.57297 l 2.64876,-2.81925 3.22466,1.55999 c 3.68585,1.7831 6.33886,2.00631 8.78093,0.73876 0.86515,-0.44905 3.7561,-2.89266 6.42434,-5.43026 6.55232,-6.23148 7.85405,-7.06121 10.50759,-6.6975 2.7202,0.37285 6.28161,2.20566 7.80589,4.01717 1.91298,2.27344 1.47807,6.83391 -0.92394,9.68854 -1.75343,2.08384 -3.77182,1.94168 -6.36461,-0.44828 -1.10422,-1.01783 -2.14053,-1.8506 -2.30292,-1.8506 -0.72683,0 -0.16522,4.1883 0.89953,6.70843 2.93025,6.93555 3.07879,8.6538 1.09181,12.6301 -4.23221,8.46939 -17.47795,13.58343 -26.05184,10.05834 z"
       id="path8389" />
    <path
       style="fill:#ff2a2a;stroke:#000000;stroke-width:0.462651"
       d="m 126.66221,339.79582 c -4.19227,-2.2162 -10.20159,-6.3308 -10.97753,-7.51635 -0.37857,-0.57841 -1.0243,-2.20832 -1.43496,-3.62203 -0.41066,-1.41371 -1.37718,-3.75194 -2.14781,-5.19608 -1.61467,-3.02581 -1.74553,-4.42863 -0.55078,-5.90409 1.19124,-1.47111 1.92553,-0.781 1.92553,1.80969 0,3.04709 1.66529,5.47006 6.87997,10.01026 5.67339,4.93958 6.44001,5.32048 10.70838,5.32048 3.71073,0 5.9867,-0.507 11.55864,-2.57482 3.86762,-1.43532 5.16461,-1.3531 7.26479,0.46054 l 1.29425,1.11766 -1.33604,1.3998 c -1.7341,1.81687 -6.82569,4.45506 -9.76758,5.06104 -1.27229,0.26207 -4.18699,0.61709 -6.47711,0.78893 -4.0619,0.30478 -4.23182,0.2765 -6.93975,-1.15503 z"
       id="path8391" />
    <path
       style="fill:#ff2a2a;stroke:#000000;stroke-width:0.462651"
       d="m 128.97546,330.86857 c -3.52371,-1.21906 -10.08309,-6.96896 -10.68475,-9.36616 -0.72566,-2.89125 3.0786,-3.30803 8.28109,-0.90724 1.97808,0.91282 3.6843,1.29773 6.47711,1.46118 4.44364,0.26007 6.03275,0.77471 7.27717,2.35673 2.01588,2.56278 0.55413,4.39125 -4.64219,5.8068 -3.83789,1.04549 -5.18495,1.17575 -6.70843,0.64869 z"
       id="path8393" />
    <path
       style="fill:#ff2a2a;stroke:#000000;stroke-width:0.462651"
       d="m 132.32897,317.9437 c -0.18264,-0.47597 -1.0839,-0.88064 -2.40126,-1.07819 -2.06484,-0.30964 -2.10888,-0.35186 -2.10888,-2.02179 0,-2.15017 0.66475,-2.8159 2.81179,-2.8159 1.85133,0 2.50431,0.51904 2.96571,2.35741 0.36538,1.4558 -0.80895,4.75306 -1.26736,3.55847 z"
       id="path8395" />
    <path
       style="fill:#ff2a2a;stroke:#000000;stroke-width:0.462651"
       d="m 144.06699,323.2471 c -2.20661,-2.25004 -3.75813,-4.44831 -5.55103,-7.86498 -3.7557,-7.15712 -6.98701,-9.4631 -10.15299,-7.24557 -0.57734,0.40439 -1.37579,0.61012 -1.77433,0.45718 -1.03887,-0.39865 0.0131,-1.56373 2.38682,-2.64353 2.36638,-1.07644 3.55904,-1.07261 5.6859,0.0183 2.37479,1.21804 8.63999,6.65087 10.27885,8.91325 1.66287,2.29552 3.21749,6.34378 3.56592,9.28566 0.22465,1.89686 0.14722,2.20262 -0.55783,2.20262 -0.45028,0 -2.19687,-1.4053 -3.88131,-3.12289 z"
       id="path8397" />
    <path
       style="fill:#ff2a2a;stroke:#000000;stroke-width:0.462651"
       d="m 340.49344,386.05075 c -3.10316,-0.54782 -4.19728,-1.4084 -5.71172,-4.49256 -1.17939,-2.40181 -1.31436,-3.15351 -1.31145,-7.30386 0.003,-4.20794 0.12852,-4.87765 1.38795,-7.40241 1.71141,-3.43084 8.30066,-10.13347 13.14019,-13.36631 4.10324,-2.74098 7.84307,-3.9953 12.765,-4.2813 4.41037,-0.25628 5.64376,0.2419 6.88643,2.7815 0.8389,1.71441 0.84236,1.93362 0.0911,5.77948 -2.32739,11.91503 -7.69045,22.56397 -13.08751,25.98668 -3.12344,1.98083 -9.81113,3.06653 -14.16002,2.29878 z"
       id="path8399" />
    <path
       style="fill:#ff2a2a;stroke:#000000;stroke-width:0.462651"
       d="m 326.36792,373.89303 c -2.71117,-6.51252 -3.91114,-11.5843 -3.6744,-15.53019 0.30876,-5.14633 1.50066,-7.11205 9.50331,-15.67305 3.75218,-4.01396 7.26586,-7.91173 7.8082,-8.66172 l 0.98607,-1.3636 1.55571,2.28891 c 1.70482,2.50828 6.53112,7.50178 9.39704,9.7226 l 1.82141,1.41141 -5.33641,2.61468 c -8.57719,4.20257 -13.95486,9.03897 -17.21449,15.48183 -1.52509,3.01445 -2.60296,7.06665 -2.61225,9.82064 -0.0125,3.69506 -0.66303,3.66259 -2.23419,-0.11151 z"
       id="path8403" />
    <path
       style="fill:#ff2a2a;stroke:#000000;stroke-width:0.462651"
       d="m 364.09658,342.90975 c -0.61,-0.82699 -1.85807,-2.75277 -2.77349,-4.27952 -2.15328,-3.59126 -4.19669,-5.78313 -5.39143,-5.78313 -1.50427,0 -1.16348,1.32167 1.37676,5.33941 2.2478,3.55521 2.69658,5.25309 1.49323,5.64936 -0.81409,0.26807 -5.90465,-4.70478 -8.06989,-7.88328 -1.25244,-1.83854 -1.77869,-3.07088 -1.67933,-3.93253 l 0.14472,-1.25489 5.03474,-0.13194 c 5.75971,-0.15093 5.78459,-0.13919 8.21973,3.87877 0.83299,1.37442 1.68331,2.49895 1.88961,2.49895 0.61785,0 3.13061,4.26888 3.13061,5.31853 0,1.08649 -0.80804,2.08388 -1.68826,2.08388 -0.31784,0 -1.07699,-0.67662 -1.687,-1.50361 z"
       id="path8405" />
    <path
       style="fill:#ff2a2a;stroke:#000000;stroke-width:0.462651"
       d="m 325.50327,126.29823 c -3.03689,-1.41392 -6.08,-4.43218 -7.48819,-7.42704 -2.19661,-4.6716 -2.91128,-12.92258 -1.70495,-19.683878 1.13314,-6.351109 7.14946,-23.09753 9.56954,-26.636826 1.49718,-2.18958 5.47945,-5.893972 7.55837,-7.030954 2.25304,-1.232209 9.18797,-1.080365 11.59525,0.253884 3.75825,2.083031 7.55785,6.555442 9.93188,11.690549 1.37468,2.973492 1.60546,3.966649 1.61319,6.942428 0.018,6.93007 -3.10976,10.685807 -14.5523,17.474017 -6.65451,3.94774 -11.05619,7.49132 -12.30491,9.90608 -1.19218,2.30541 -0.82202,5.75026 1.04549,9.72985 l 1.6948,3.61156 -1.08147,1.15116 c -1.35969,1.44733 -2.79915,1.45202 -5.8767,0.0192 z"
       id="path8407" />
    <path
       style="fill:#ff2a2a;stroke:#000000;stroke-width:0.462651"
       d="m 328.76128,169.31965 c -2.76516,-1.20282 -2.97361,-3.41524 -0.63167,-6.70419 1.20107,-1.68675 1.24253,-3.26234 0.0858,-3.26234 -1.17288,0 -4.45493,1.79755 -7.86337,4.3067 -5.61401,4.1328 -8.6785,4.43855 -14.72717,1.46936 -4.1626,-2.04336 -8.24888,-6.33335 -10.63897,-11.16938 -3.06575,-6.20312 -3.16818,-14.20242 -0.22698,-17.7255 l 1.27815,-1.53102 1.82821,1.15372 c 4.55376,2.87372 5.30658,1.53803 1.54002,-2.73238 -3.63534,-4.12164 -5.38913,-7.02709 -6.22989,-10.3209 -0.99237,-3.88771 -0.6825,-9.09407 0.73775,-12.39553 2.35198,-5.46733 9.7698,-9.54553 14.51427,-7.97971 1.93351,0.63811 2.27014,1.53126 3.05854,8.115 1.24254,10.37615 3.66344,14.94258 9.75766,18.40539 3.32281,1.88806 3.38265,2.04711 2.23953,5.95159 -0.86888,2.96776 -0.92511,3.66783 -0.44044,5.48399 0.80816,3.02831 5.06557,7.01136 10.54515,9.86559 7.72025,4.02135 8.71737,5.39578 8.25726,11.3817 -0.39488,5.13722 -1.30613,7.01789 -3.75164,7.74273 -2.53032,0.74997 -7.54991,0.72049 -9.33225,-0.0548 z"
       id="path8409" />
    <path
       style="fill:#ff2a2a;stroke:#000000;stroke-width:0.462651"
       d="m 302.81642,97.363012 c -0.85795,-0.523101 -1.50361,-1.299109 -1.50361,-1.807152 0,-1.241107 2.48232,-8.708864 4.18254,-12.582659 3.35428,-7.642432 7.63051,-13.108139 11.7789,-15.055347 2.42616,-1.138807 5.32049,-1.45578 5.32049,-0.582674 0,0.281699 -1.34376,3.664831 -2.98612,7.518073 -1.64237,3.853241 -3.91124,9.608303 -5.04195,12.789026 -2.98558,8.398564 -3.55537,9.692294 -4.48872,10.19181 -1.48498,0.794734 -5.62606,0.52609 -7.26153,-0.471077 z"
       id="path8411" />
    <path
       style="fill:#ff2a2a;stroke:#000000;stroke-width:0.462651"
       d="m 347.80919,60.268925 c -2.54458,-1.28861 -4.7306,-2.442211 -4.85783,-2.563557 -0.39373,-0.375523 5.54641,-5.703071 8.51716,-7.638801 2.69566,-1.756488 2.93717,-1.824043 5.57248,-1.558722 3.30839,0.333087 9.58873,1.974234 10.7197,2.801221 0.74138,0.542107 0.58496,0.820944 -1.79628,3.202183 -1.4346,1.434603 -3.55404,3.013734 -4.70987,3.509179 -1.15583,0.495447 -3.21544,1.741841 -4.57692,2.769765 -1.36147,1.027924 -2.87288,1.858312 -3.35867,1.845307 -0.48579,-0.013 -2.96519,-1.077964 -5.50977,-2.366575 z"
       id="path8413" />
    <path
       style="fill:#ff2a2a;stroke:#000000;stroke-width:0.462651"
       d="m 368.8683,94.990632 c -0.63146,-0.251932 -2.92159,-0.710923 -5.08916,-1.019978 l -3.94103,-0.561925 -0.29351,-8.088044 c -0.56176,-15.479601 -0.53874,-18.92997 0.13167,-19.741677 0.79189,-0.958781 10.87686,-9.138787 13.71767,-11.126526 1.33218,-0.932136 5.03195,-2.461711 9.79187,-4.048192 10.01034,-3.336452 12.97037,-3.38776 12.97037,-0.224826 0,2.003415 -2.43922,3.797225 -5.8768,4.321817 -2.08567,0.318284 -13.4755,6.348281 -17.15746,9.08349 -3.27483,2.43277 -4.10265,4.540144 -5.47253,13.931423 -0.64536,4.424286 -1.06013,8.760035 -0.92172,9.634998 0.22575,1.427086 1.1231,3.137783 3.71585,7.083858 0.92091,1.4016 0.52275,1.592591 -1.57522,0.755582 z"
       id="path8415" />
    <path
       style="fill:#ff2a2a;stroke:#000000;stroke-width:0.462651"
       d="m 394.07425,129.65404 c -0.50891,-0.28817 -2.07036,-1.41618 -3.46988,-2.50667 -3.26567,-2.54459 -4.87231,-3.19221 -10.21031,-4.11566 -5.70715,-0.98731 -7.8582,-1.9906 -10.50697,-4.90064 -7.02798,-7.72123 -9.6042,-9.63719 -12.98801,-9.65935 -0.85309,-0.006 -5.01695,1.15055 -9.25301,2.56921 -8.18338,2.74061 -11.73502,3.46995 -12.31643,2.52922 -0.52739,-0.85333 1.82416,-3.01304 5.25655,-4.82772 1.68253,-0.88954 5.34927,-2.98858 8.1483,-4.66453 6.26134,-3.74903 10.16681,-5.039779 14.50701,-4.794536 3.65458,0.206502 4.51897,0.739376 13.67834,8.432266 3.07348,2.5814 7.64307,6.23291 10.15464,8.11447 6.38201,4.78112 10.13704,10.10101 9.3482,13.24398 -0.31001,1.23519 -0.92367,1.38674 -2.34843,0.57996 z"
       id="path8417" />
    <path
       style="fill:#ff2a2a;stroke:#000000;stroke-width:0.462651"
       d="m 353.11659,138.59077 c -8.09334,-2.59039 -16.17936,-9.88941 -18.11578,-16.3526 -0.4746,-1.58409 -0.4335,-1.89128 0.35243,-2.63407 0.48933,-0.46246 2.10316,-1.07311 3.58629,-1.35699 1.48313,-0.28389 4.60602,-1.39035 6.93976,-2.45881 3.8191,-1.74851 4.58994,-1.93998 7.71304,-1.91585 5.0403,0.0389 6.34061,0.75832 11.87475,6.56972 5.36033,5.62886 6.95328,6.56312 12.64573,7.41664 6.69602,1.00399 11.49952,2.96582 12.95048,5.28918 0.50003,0.80067 0.44426,1.04633 -0.39109,1.72276 -1.17386,0.95053 -3.52758,1.37646 -17.63592,3.19139 -12.34808,1.58848 -16.28213,1.69288 -19.91969,0.52863 z"
       id="path8419" />
    <path
       style="fill:#ff2a2a;stroke:#000000;stroke-width:0.462651"
       d="m 377.88148,164.00396 c -6.17962,-2.81893 -9.69399,-3.71536 -14.59195,-3.72204 -2.94941,-0.004 -7.10318,-0.98885 -9.59565,-2.27505 -0.94646,-0.4884 -3.14058,-2.02527 -4.87583,-3.41526 -1.73525,-1.38999 -5.13151,-3.53473 -7.54723,-4.7661 -2.45825,-1.25304 -6.2128,-3.7327 -8.52692,-5.63154 -3.66938,-3.01089 -4.13471,-3.56292 -4.13471,-4.9051 0,-2.45211 1.31982,-6.23781 2.37079,-6.80028 1.39789,-0.74812 2.92107,0.0326 9.37037,4.80317 3.08453,2.28161 6.6492,4.62935 7.92149,5.21718 5.38676,2.48886 15.88131,2.45341 26.13976,-0.0883 5.81254,-1.44016 12.44519,-1.92598 15.58777,-1.14175 1.22336,0.30528 5.65946,2.1857 9.85802,4.1787 10.37269,4.92378 16.38689,6.66254 17.39623,5.0294 0.44283,-0.71652 -1.26903,-2.07284 -5.32791,-4.22133 -1.82095,-0.96389 -3.19103,-1.94637 -3.0446,-2.18329 0.32016,-0.51803 6.92455,-2.6486 9.47377,-3.05624 2.88994,-0.46212 3.98549,0.0681 6.09562,2.95019 1.0687,1.45966 2.73871,3.56805 3.71113,4.68532 2.12503,2.44156 2.35041,4.60983 0.72708,6.99499 -2.22706,3.27223 -2.7618,3.43744 -12.06275,3.72683 l -8.40954,0.26165 -5.78313,2.59783 c -7.05912,3.17102 -11.74145,4.51388 -15.72082,4.50861 -2.69404,-0.004 -3.65952,-0.2973 -9.03099,-2.74758 z"
       id="path8421" />
    <path
       style="fill:#ff2a2a;stroke:#000000;stroke-width:0.462651"
       d="m 376.13799,199.61549 c -6.63875,-1.20415 -12.35853,-6.8893 -17.69965,-17.59249 -2.34547,-4.70014 -4.43199,-7.9275 -7.6866,-11.88937 -3.16163,-3.84869 -4.22363,-5.98228 -3.5781,-7.18847 0.64705,-1.20902 2.55564,-1.02045 7.95478,0.78596 3.14888,1.05353 6.1215,1.70284 8.68161,1.89633 5.27084,0.39836 6.66898,0.7948 13.37748,3.79312 5.40876,2.41742 6.02272,2.58686 9.48433,2.61755 3.502,0.0311 4.07472,-0.11957 10.64097,-2.79843 10.59026,-4.32056 16.06939,-5.42416 25.72268,-5.18104 l 6.04708,0.1523 1.34885,1.51092 c 2.42581,2.71725 2.08606,3.47297 -4.83262,10.74932 -2.54047,2.67181 -7.09943,7.84056 -10.131,11.48612 -5.88133,7.07246 -8.18228,8.95331 -11.93861,9.7589 -3.70071,0.79366 -4.75446,0.32852 -7.91682,-3.49458 -3.23688,-3.9132 -4.57383,-4.39404 -5.42539,-1.95128 -0.27935,0.80135 -0.50791,1.86224 -0.50791,2.35754 0,1.46683 -1.47146,3.52208 -3.06203,4.27686 -1.82375,0.86542 -7.5027,1.25059 -10.47905,0.71074 z"
       id="path8423" />
    <path
       style="fill:#ff2a2a;stroke:#000000;stroke-width:0.462651"
       d="m 425.11385,184.73094 c 0.18037,-0.29184 2.6583,-3.0836 5.50652,-6.2039 5.18258,-5.67766 6.71203,-7.95448 6.71135,-9.99083 -2e-4,-0.59768 -0.62478,-2.4066 -1.38795,-4.01981 -2.30292,-4.86795 -1.8358,-6.11428 3.23892,-8.64183 3.97716,-1.9809 7.43829,-4.41384 9.8138,-6.89841 1.95493,-2.0447 2.21814,-2.18826 2.54477,-1.38796 0.20038,0.49095 0.36432,3.18275 0.36432,5.98179 0,4.45819 -0.16485,5.53722 -1.32959,8.70312 -3.56079,9.67857 -11.60155,17.90617 -21.06684,21.55637 -4.00458,1.54433 -4.90701,1.72942 -4.3953,0.90146 z"
       id="path8425" />
    <path
       style="fill:#ff2a2a;stroke:#000000;stroke-width:0.462651"
       d="m 433.84664,147.43987 c -3.0392,-3.67802 -8.08082,-11.13025 -8.08082,-11.9446 0,-0.95122 2.73922,-5.84304 4.42137,-7.89588 1.8274,-2.23011 4.88464,-3.87485 7.1753,-3.8602 5.53804,0.0354 12.4348,6.90241 11.87958,11.82832 -0.33042,2.93141 -2.37441,6.77224 -5.26632,9.89585 -2.32656,2.51297 -5.90887,5.0994 -7.06286,5.0994 -0.26717,0 -1.64698,-1.4053 -3.06625,-3.12289 z"
       id="path8427" />
    <path
       style="fill:#ff2a2a;stroke:#000000;stroke-width:0.462651"
       d="m 447.97305,124.01841 c 0,-0.85488 -2.93556,-2.63284 -6.59277,-3.993 -1.46313,-0.54415 -2.66024,-1.05878 -2.66024,-1.14361 0,-0.0848 0.93149,-1.66508 2.06998,-3.51165 2.66043,-4.31509 4.68216,-9.19416 5.58041,-13.46725 0.9337,-4.441731 1.52161,-5.048153 3.7373,-3.854928 2.09909,1.130433 4.6165,4.045158 5.31084,6.149038 0.88607,2.6848 0.29266,7.73345 -1.37131,11.66696 -2.21891,5.24535 -6.07421,10.42097 -6.07421,8.15444 z"
       id="path8429" />
    <path
       style="fill:#ff2a2a;stroke:#000000;stroke-width:0.462651"
       d="m 411.19233,137.21726 c 5.74078,-3.66143 8.23549,-7.25175 15.23321,-21.92316 1.66658,-3.49415 4.83477,-9.01126 7.04043,-12.26024 6.98891,-10.294842 7.96851,-13.753719 5.48539,-19.368487 -0.63614,-1.438436 -1.15662,-2.720942 -1.15662,-2.850013 0,-0.12907 0.84056,-0.121931 1.86792,0.01587 3.5064,0.470308 6.47205,3.846819 6.45003,7.343622 -0.005,0.852147 -0.5441,3.006707 -1.19718,4.787912 -2.69663,7.354716 -3.39206,9.557176 -3.89692,12.341726 -0.92213,5.086 -2.18085,7.00961 -9.02876,13.79803 -3.93558,3.9014 -7.2346,7.65922 -8.78906,10.01137 -3.08001,4.6606 -5.38695,6.67134 -9.72696,8.4781 -4.64001,1.93164 -5.64011,1.76737 -2.28148,-0.37473 z"
       id="path8431" />
    <path
       style="fill:#ff2a2a;stroke:#000000;stroke-width:0.462651"
       d="m 398.93208,135.87212 c 0,-0.19165 0.72868,-1.37336 1.61928,-2.62601 2.64258,-3.71684 2.19241,-5.74326 -2.70448,-12.17439 -1.40348,-1.8432 -2.69677,-3.80811 -2.87399,-4.36646 -0.42799,-1.34849 1.02058,-2.51527 3.61351,-2.91057 12.60232,-1.92125 14.30037,-2.63862 19.6679,-8.30904 4.9274,-5.20547 8.24202,-9.712067 8.91738,-12.124186 0.3457,-1.234739 0.43292,-2.965959 0.23088,-4.583018 -0.39727,-3.179645 0.39073,-4.374722 2.88458,-4.374722 1.24404,0 2.00334,0.401345 3.39817,1.796173 3.13469,3.134688 2.71914,4.623959 -4.30994,15.446393 -3.90959,6.01946 -6.89446,11.7761 -9.86685,19.02926 -2.60396,6.35412 -5.83864,10.00868 -11.30117,12.7681 -4.1581,2.10048 -9.27527,3.44027 -9.27527,2.42847 z"
       id="path8433" />
    <path
       style="fill:#ff2a2a;stroke:#000000;stroke-width:0.462651"
       d="m 388.59113,109.9953 c -0.165,-0.165 -0.30001,-0.7752 -0.30001,-1.35598 0,-1.34872 2.09579,-2.94489 6.01446,-4.58064 5.22954,-2.18295 8.24131,-3.86928 9.9345,-5.562472 1.86096,-1.860956 4.72381,-7.311062 6.18745,-11.779231 2.55559,-7.801694 2.28045,-11.425664 -1.15782,-15.249845 -2.61421,-2.907623 -3.91048,-3.01631 -8.48702,-0.7116 -1.7685,0.890602 -3.32475,1.619277 -3.45833,1.619277 -0.61816,0 -0.13963,-2.78458 0.79809,-4.644138 0.99668,-1.976481 1.11873,-2.058028 2.86923,-1.916965 2.23523,0.180126 9.65672,2.512642 13.46719,4.232631 3.47249,1.56743 4.50766,2.850055 5.5162,6.83486 0.43533,1.720041 1.32242,5.001082 1.97131,7.291202 1.75097,6.179763 1.77925,6.83809 0.41253,9.606066 -1.33675,2.707279 -6.70282,8.792655 -9.9184,11.247945 -2.69509,2.05785 -5.115,2.71886 -14.2024,3.87946 -4.07133,0.51997 -7.83994,1.04531 -8.37469,1.16742 -0.53475,0.12211 -1.10728,0.087 -1.27229,-0.078 z"
       id="path8435" />
    <path
       style="fill:#ff2a2a;stroke:#000000;stroke-width:0.462651"
       d="m 425.16018,80.493434 c -0.36946,-0.369454 -1.03793,-2.191141 -1.48549,-4.048192 -2.47122,-10.253671 -4.59177,-12.014232 -17.49674,-14.526442 -6.3421,-1.234617 -9.73803,-2.479429 -10.22483,-3.748016 -0.69721,-1.816882 3.49145,-4.106608 10.02746,-5.481499 8.83869,-1.859275 16.013,0.135268 21.5517,5.991628 3.09403,3.271483 4.83852,6.978756 5.09167,10.820457 0.2753,4.177889 -0.5961,6.783509 -3.15722,9.440629 -2.24422,2.328336 -3.18922,2.668772 -4.30655,1.551435 z"
       id="path8437" />
    <path
       style="fill:#ff2a2a;stroke:#000000;stroke-width:0.462651"
       d="m 390.30338,100.13518 c 0.53769,-2.688454 4.31781,-7.626631 9.58574,-12.522398 2.81288,-2.614155 5.41382,-5.332149 5.77985,-6.039986 1.12595,-2.177351 0.84713,-4.332442 -0.80379,-6.212736 -1.15695,-1.317695 -1.33437,-1.756849 -0.83456,-2.065745 0.8601,-0.531574 2.01976,0.158452 3.31266,1.971119 0.83601,1.172094 1.07314,2.117947 1.07314,4.280459 0,2.455162 -0.32532,3.444117 -2.81556,8.559036 -1.54855,3.180723 -3.37161,6.439387 -4.05122,7.241476 -1.13507,1.339613 -7.81621,5.144555 -10.43536,5.942985 -1.04667,0.31907 -1.0925,0.25383 -0.8109,-1.15421 z"
       id="path8439" />
    <path
       style="fill:#ff2a2a;stroke:#000000;stroke-width:0.462651"
       d="m 385.8152,92.615773 c -0.62429,-0.826988 -1.93402,-2.960964 -2.91053,-4.742169 -1.54543,-2.81896 -1.77606,-3.630906 -1.78005,-6.266838 -0.004,-2.568151 0.25733,-3.558682 1.71917,-6.518995 1.74176,-3.527189 5.59391,-7.802119 7.03051,-7.802119 1.74579,0 2.42773,4.238788 1.40521,8.734482 -0.73913,3.249731 -0.73136,3.500116 0.23718,7.63417 0.95717,4.085576 0.9671,4.359893 0.22493,6.214757 -0.79221,1.979915 -3.01246,4.250326 -4.15643,4.250326 -0.34921,0 -1.14571,-0.676626 -1.76999,-1.503614 z"
       id="path8441" />
    <path
       style="fill:#ff2a2a;stroke:#000000;stroke-width:0.462651"
       d="m 380.13951,103.42312 c -3.13714,-2.50063 -5.30929,-5.35101 -5.80388,-7.616082 -0.23046,-1.055437 -1.3831,-3.874618 -2.56141,-6.264847 l -2.14239,-4.345871 1.51647,-4.675815 c 2.1784,-6.716806 4.06648,-11.109899 5.24533,-12.204573 0.94072,-0.873544 6.20097,-4.743538 9.99579,-7.353957 1.58998,-1.093732 3.92177,-1.396782 5.08387,-0.660723 0.97658,0.618559 0.27173,1.286703 -2.23613,2.119682 -3.22049,1.069674 -4.29591,2.067842 -6.87997,6.38577 -3.55622,5.942396 -4.83516,9.597323 -4.89109,13.977743 -0.0586,4.58539 0.82261,7.058796 4.01567,11.271865 3.84182,5.069056 4.80328,8.011108 3.31324,10.138448 -1.0223,1.45953 -2.07538,1.28499 -4.6555,-0.77164 z"
       id="path8443" />
    <path
       style="fill:#ff2a2a;stroke:#000000;stroke-width:0.462651"
       d="m 395.43024,82.501396 c -0.17485,-0.282907 -0.0422,-0.68479 0.29484,-0.893072 0.33701,-0.208283 0.72802,-1.382114 0.86891,-2.608515 0.23434,-2.03986 0.36932,-2.24275 1.58436,-2.381607 3.10528,-0.354875 4.54413,1.184674 3.55027,3.798726 -0.76389,2.009179 -5.39721,3.542591 -6.29838,2.084468 z"
       id="path8445" />
    <path
       style="fill:#5aa02c;stroke:#000000;stroke-width:0.462651"
       d="m 267.38733,260.15728 c -2.26981,-2.47581 -5.04608,-6.98793 -6.04054,-9.81735 -1.27769,-3.63527 -1.1862,-8.84139 0.29445,-16.75527 0.80316,-4.29274 1.26166,-8.54426 1.36952,-12.69901 0.0892,-3.43518 0.17044,-6.44839 0.18058,-6.69602 0.0309,-0.75574 6.44282,5.82014 8.61753,8.83793 4.77896,6.63165 4.95679,11.88298 0.8398,24.79959 -1.11381,3.49445 -2.26523,7.8665 -2.55871,9.71566 -0.29348,1.84917 -0.69869,3.54616 -0.90045,3.7711 -0.20177,0.22493 -1.01275,-0.29555 -1.80218,-1.15663 z"
       id="path8447" />
    <path
       style="fill:#5aa02c;stroke:#000000;stroke-width:0.462651"
       d="m 255.14012,254.39548 c -2.27541,-1.08789 -6.41676,-2.73422 -9.20299,-3.65853 -5.79026,-1.92086 -8.56342,-3.23817 -11.13484,-5.2893 -2.83275,-2.25956 -3.8568,-4.01323 -4.85189,-8.30877 -1.03268,-4.45782 -2.07623,-11.60679 -1.74291,-11.9401 0.1191,-0.1191 2.18984,1.44256 4.60164,3.47035 2.4118,2.0278 6.33498,4.99165 8.71817,6.58635 7.24472,4.84776 13.35591,11.62034 17.02736,18.87019 0.56015,1.1061 0.95189,2.06435 0.87052,2.12943 -0.0814,0.0651 -2.00964,-0.77174 -4.28506,-1.85962 z"
       id="path8449" />
    <path
       style="fill:#5aa02c;stroke:#000000;stroke-width:0.462651"
       d="m 254.15878,235.88381 c -5.89124,-12.69303 -13.08461,-33.50418 -11.58071,-33.50418 0.67612,0 5.32451,2.573 8.42085,4.66115 8.69352,5.86284 10.13391,11.16558 7.08185,26.0716 -0.78529,3.8353 -1.51121,7.05727 -1.61316,7.15993 -0.10195,0.10266 -1.14092,-1.87217 -2.30883,-4.3885 z"
       id="path8451" />
    <path
       style="fill:#5aa02c;stroke:#000000;stroke-width:0.462651"
       d="m 242.09327,231.30993 c -7.54724,-5.08344 -11.18501,-8.67819 -12.59461,-12.44567 -1.00434,-2.68434 -1.69153,-7.40883 -2.15472,-14.81386 l -0.28616,-4.57501 2.71985,3.18706 c 7.99512,9.3685 13.11726,17.62179 17.48552,28.1744 0.91126,2.20137 1.59138,4.19886 1.51138,4.43888 -0.08,0.24001 -3.08657,-1.5446 -6.68126,-3.9658 z"
       id="path8453" />
    <path
       style="fill:#5aa02c;stroke:#000000;stroke-width:0.462651"
       d="m 237.65277,205.97961 c -0.38457,-0.58047 -2.28385,-2.82504 -4.22063,-4.98793 -3.55721,-3.97251 -3.86237,-4.83633 -1.22714,-3.4736 2.3662,1.22361 4.97819,4.26707 5.80909,6.76869 0.85627,2.57798 0.70247,3.29855 -0.36132,1.69284 z"
       id="path8455" />
    <path
       style="fill:#5aa02c;stroke:#000000;stroke-width:0.462651"
       d="m 274.41163,264.55859 -1.35805,-3.51742 3.4683,-10.47776 c 4.57397,-13.81802 4.04949,-12.61042 4.75164,-10.94041 0.32473,0.77233 0.60353,3.44004 0.62858,6.01446 0.0434,4.45834 -0.0517,4.91504 -2.61522,12.56471 -1.46313,4.36601 -2.66024,8.37372 -2.66024,8.90602 0,1.9175 -0.88249,0.9017 -2.21501,-2.5496 z"
       id="path8457" />
    <path
       style="fill:#5aa02c;stroke:#000000;stroke-width:0.462651"
       d="m 263.90375,267.84499 c -5.73718,-1.28162 -9.89482,-3.30382 -16.46228,-8.00693 -5.54448,-3.97053 -7.35935,-5.59905 -6.2662,-5.62276 1.44992,-0.0315 10.43708,3.14667 14.97147,5.29435 4.44822,2.10687 10.29524,5.89575 12.15764,7.87819 l 1.08114,1.15082 -1.35293,-0.0368 c -0.74412,-0.0202 -2.60209,-0.31583 -4.12884,-0.65689 z"
       id="path8459" />
    <path
       style="fill:#5aa02c;stroke:#000000;stroke-width:0.462651"
       d="m 266.00709,580.79713 c -0.0118,-5.48773 -0.24809,-11.20391 -0.52515,-12.70263 -0.27705,-1.49873 -1.4959,-5.23239 -2.70854,-8.29702 -2.69329,-6.80657 -3.26483,-9.05854 -3.26483,-12.86405 0,-5.67797 2.69419,-11.85993 6.80684,-15.61867 3.73821,-3.41651 10.40111,-6.32121 18.49091,-8.06113 l 1.47124,-0.31643 -0.25413,5.92844 c -0.2023,4.71932 -0.0427,7.39101 0.78271,13.09953 1.78436,12.34116 1.32268,19.14055 -1.70982,25.18143 -2.32633,4.63413 -7.54781,11.26762 -16.0495,20.38965 l -3.01832,3.23856 -0.0214,-9.97768 z"
       id="path8461" />
    <path
       style="fill:#5aa02c;stroke:#000000;stroke-width:0.462651"
       d="m 259.18336,572.18387 c -1.32393,-2.24342 -2.83547,-5.05068 -3.35898,-6.23835 -1.04697,-2.37522 -2.03671,-8.5834 -1.76407,-11.0651 0.1599,-1.45551 0.41422,-1.08708 3.22043,4.66547 3.8827,7.9593 4.62394,10.27003 4.44859,13.86808 l -0.13883,2.84883 z"
       id="path8463" />
    <path
       style="fill:#5aa02c;stroke:#000000;stroke-width:0.462651"
       d="m 259.61828,593.77558 c -1.77262,-4.42029 -5.97868,-20.64988 -5.48068,-21.14788 0.64054,-0.64054 6.30384,10.55723 7.24359,14.32242 0.56917,2.28045 0.36698,4.2427 -0.68012,6.60059 l -0.61637,1.38795 z"
       id="path8465" />
    <path
       style="fill:#5aa02c;stroke:#000000;stroke-width:0.462651"
       d="m 250.94953,488.20893 c -1.52675,-0.78772 -5.07324,-2.41614 -7.8811,-3.61873 -10.39434,-4.4518 -11.12879,-5.06083 -17.38859,-14.41936 -2.49867,-3.73555 -5.22056,-7.56358 -6.04865,-8.50672 l -1.50562,-1.7148 4.15174,0.33046 c 14.038,1.11736 18.83474,4.15274 24.29704,15.37523 2.6024,5.34672 4.68627,9.08531 7.11144,12.75835 1.05543,1.59852 0.70786,1.57255 -2.73626,-0.20443 z"
       id="path8467" />
    <path
       style="fill:#5aa02c;stroke:#000000;stroke-width:0.462651"
       d="m 219.46421,470.65681 c -4.75603,-3.00996 -14.63522,-12.03616 -13.93738,-12.734 0.96564,-0.96564 10.22883,3.23828 12.13992,5.50948 2.14621,2.55063 5.29728,8.67264 4.46391,8.67264 -0.20806,0 -1.40796,-0.65165 -2.66645,-1.44812 z"
       id="path8469" />
    <path
       style="fill:#5aa02c;stroke:#000000;stroke-width:0.462651"
       d=""
       id="path8471" />
    <path
       style="fill:#5aa02c;stroke:#000000;stroke-width:0.462651"
       d="m 212.5977,471.18511 c -2.51808,-1.24452 -5.40496,-3.05607 -6.41529,-4.02569 -1.76163,-1.69064 -3.43436,-4.60723 -2.93102,-5.11057 0.13222,-0.13222 1.34153,0.75025 2.68734,1.96104 1.34582,1.21079 4.47655,3.65102 6.95717,5.42274 6.73242,4.80844 6.66669,5.19475 -0.2982,1.75248 z"
       id="path8475" />
    <path
       style="fill:#5aa02c;stroke:#000000;stroke-width:0.462651"
       d="m 226.42905,488.26629 c -3.05349,-0.18818 -6.24598,-0.56089 -7.09441,-0.82823 -2.79694,-0.88133 -5.5163,-2.7959 -7.14841,-5.03286 -2.03908,-2.79474 -5.58506,-9.83762 -4.9531,-9.83762 0.26238,0 2.31056,0.92084 4.55151,2.04631 2.24094,1.12547 5.18384,2.40917 6.53976,2.85267 2.71828,0.88911 19.12478,8.91253 20.59622,10.07236 0.86589,0.68252 0.71236,0.7303 -2.39108,0.74407 -1.82401,0.008 -3.59365,0.0846 -3.93253,0.17009 -0.33888,0.0854 -3.11447,10e-4 -6.16796,-0.18679 z"
       id="path8477" />
    <path
       style="fill:#5aa02c;stroke:#000000;stroke-width:0.462651"
       d="m 234.06278,500.26845 c -1.39951,-0.22696 -3.79373,-1.032 -5.32048,-1.78897 -3.09524,-1.53465 -9.02168,-5.77258 -9.02168,-6.45129 0,-0.25164 1.32911,-0.3553 3.12289,-0.24355 1.71759,0.10701 7.91132,0.30241 13.76385,0.43422 6.83704,0.154 11.79868,0.48795 13.87952,0.93418 3.46326,0.7427 9.04143,3.2632 13.18554,5.95792 l 2.54458,1.65462 -14.80482,-0.0422 c -8.14265,-0.0232 -15.94988,-0.22794 -17.3494,-0.45489 z"
       id="path8479" />
    <path
       style="fill:#5aa02c;stroke:#000000;stroke-width:0.462651"
       d="m 248.8676,510.26163 c -0.38168,-0.0748 -2.25542,-0.38877 -4.16385,-0.69774 -5.82661,-0.94332 -12.03519,-3.52967 -13.88631,-5.7847 -0.63849,-0.77782 -0.60523,-0.81026 0.46944,-0.45787 0.63615,0.2086 9.38024,0.52904 19.43133,0.7121 17.98713,0.32759 20.66625,0.56172 23.56181,2.05907 1.56726,0.81047 2.53293,1.92943 1.96696,2.27922 -0.46442,0.28703 -23.47246,2.16642 -25.45845,2.07955 -0.67482,-0.0295 -1.53924,-0.11485 -1.92093,-0.18963 z"
       id="path8481" />
    <path
       style="fill:#5aa02c;stroke:#000000;stroke-width:0.462651"
       d="m 268.99291,497.92842 c -6.88218,-4.73885 -10.53728,-8.52006 -13.8551,-14.33313 -4.19559,-7.35099 -10.1047,-18.9137 -9.81425,-19.20415 0.32136,-0.32135 7.49923,3.52596 10.94645,5.86727 4.14678,2.81642 6.7791,6.01334 9.25229,11.23675 2.33941,4.94088 7.15579,18.37758 6.57996,18.35673 -0.1834,-0.007 -1.58261,-0.8722 -3.10935,-1.92347 z"
       id="path8483" />
    <path
       style="fill:#5aa02c;stroke:#000000;stroke-width:0.462651"
       d="m 279.26763,505.53144 c -0.88092,-1.20868 -2.17844,-3.34266 -2.88339,-4.74217 -1.19859,-2.37956 -4.38411,-11.22705 -4.38411,-12.17647 0,-0.81557 1.55509,0.85311 3.29152,3.53196 1.5034,2.31933 6.42415,13.92876 6.42415,15.15637 0,0.97701 -0.94322,0.29519 -2.44817,-1.76969 z"
       id="path8485" />
    <path
       style="fill:#5aa02c;stroke:#000000;stroke-width:0.462651"
       d="m 309.54544,507.86096 c -0.46723,-0.87304 -1.56667,-8.52202 -2.18345,-15.19063 -0.38007,-4.10931 0.50286,-7.77314 3.05572,-12.68005 1.53716,-2.95462 6.41332,-9.47374 6.79823,-9.08882 0.34102,0.34102 -0.86219,24.88233 -1.29521,26.41793 -0.60253,2.13669 -4.38536,9.87416 -5.28529,10.8106 -0.51146,0.53222 -0.68397,0.48964 -1.09,-0.26903 z"
       id="path8487" />
    <path
       style="fill:#5aa02c;stroke:#000000;stroke-width:0.462651"
       d="m 320.00802,489.01176 c 0.21483,-9.68842 0.94299,-17.09398 1.94378,-19.76884 1.104,-2.9507 3.71304,-5.62656 9.03629,-9.2677 5.5015,-3.76307 5.04881,-3.75465 4.67304,-0.0869 -0.59703,5.82738 -2.56554,16.24412 -3.46728,18.34779 -0.48875,1.14022 -2.19886,3.59544 -3.80023,5.45605 -1.60138,1.8606 -4.17104,5.07236 -5.71037,7.13722 l -2.79878,3.75431 z"
       id="path8489" />
    <path
       style="fill:#5aa02c;stroke:#000000;stroke-width:0.462651"
       d="m 338.07308,466.03554 c -0.41334,-5.76888 1.54016,-10.94509 5.66333,-15.00626 2.1976,-2.16456 2.28782,-2.20586 2.28782,-1.04726 0,2.17834 -1.88685,7.47146 -4.25792,11.9446 -3.42253,6.45675 -3.51745,6.56236 -3.69323,4.10892 z"
       id="path8491" />
    <path
       style="fill:#5aa02c;stroke:#000000;stroke-width:0.462651"
       d="m 343.24833,465.37926 c 0,-0.13671 1.39624,-3.10346 3.10276,-6.59277 2.92714,-5.9851 3.11188,-6.24858 3.26377,-4.65476 0.21123,2.21641 -0.76106,4.44066 -3.63689,8.31993 -2.20477,2.97408 -2.72964,3.53702 -2.72964,2.9276 z"
       id="path8499" />
    <path
       style="fill:#5aa02c;stroke:#000000;stroke-width:0.462651"
       d="m 331.00965,486.10011 c 1.50833,-2.33472 7.50262,-10.01509 10.97438,-14.06128 1.88703,-2.19925 4.44096,-5.37419 5.67541,-7.05542 1.23445,-1.68124 2.40306,-3.05679 2.59691,-3.05679 0.72037,0 0.9375,3.31471 0.45297,6.91505 -0.97577,7.2505 -3.82695,10.52245 -13.51396,15.50828 -3.22978,1.66235 -6.12778,3.02245 -6.44,3.02245 -0.38681,0 -0.3058,-0.40534 0.25429,-1.27229 z"
       id="path8501" />
    <path
       style="fill:#5aa02c;stroke:#000000;stroke-width:0.462651"
       d="m 315.48929,507.32574 c 0,-0.92282 4.85453,-7.74395 6.99527,-9.82909 3.24351,-3.15928 5.24444,-4.44291 12.89871,-8.27475 3.68964,-1.84708 7.82193,-4.07033 9.18288,-4.94055 1.36094,-0.87022 2.66182,-1.51964 2.89084,-1.44317 0.5259,0.1756 -1.86487,5.26995 -3.77841,8.05119 -2.14133,3.11231 -6.20778,5.85627 -15.00375,10.12419 -4.32578,2.09893 -8.96723,4.46856 -10.31433,5.26585 -2.65892,1.57369 -2.87121,1.65106 -2.87121,1.04633 z"
       id="path8503" />
    <path
       style="fill:#5aa02c;stroke:#000000;stroke-width:0.462651"
       d="m 309.79566,517.40746 c 1.3058,-2.22662 5.15135,-5.62449 8.70086,-7.68794 1.7812,-1.03548 7.27421,-3.8998 12.20668,-6.36517 4.93246,-2.46536 9.79261,-5.00296 10.80033,-5.63911 1.00772,-0.63614 1.932,-1.05685 2.05395,-0.93489 0.46901,0.46901 -1.45256,3.36206 -3.77693,5.68644 -4.0937,4.0937 -10.29383,7.72899 -19.28999,11.3102 -2.62347,1.04435 -6.1867,2.60911 -7.91828,3.47724 -1.73159,0.86813 -3.25276,1.57841 -3.38038,1.57841 -0.12762,0 0.14408,-0.64133 0.60376,-1.42518 z"
       id="path8505" />
    <path
       style="fill:#5aa02c;stroke:#000000;stroke-width:0.462651"
       d="m 305.16865,519.12905 c -0.87994,-2.29307 -0.90507,-18.6161 -0.0273,-17.73834 0.50797,0.50797 1.55168,8.6689 1.52064,11.89012 -0.0362,3.75556 -0.93924,7.29213 -1.49332,5.84822 z"
       id="path8507" />
    <path
       style="fill:#5aa02c;stroke:#000000;stroke-width:0.462651"
       d="m 392.40304,493.53538 c -0.18979,-0.46337 -0.34507,-4.38178 -0.34507,-8.70756 0,-7.62846 0.037,-7.93465 1.23118,-10.17831 2.94947,-5.54173 8.62527,-9.91065 15.90448,-12.24238 4.32703,-1.38608 5.76554,-1.66866 5.76554,-1.13262 0,0.15026 -0.90638,1.34737 -2.01417,2.66024 -2.689,3.18681 -4.01124,5.55917 -6.98313,12.52909 -1.37433,3.2232 -3.18567,6.94416 -4.0252,8.2688 -1.66624,2.62906 -5.893,7.2949 -7.91435,8.7365 -1.22137,0.87107 -1.2885,0.87382 -1.61928,0.0662 z"
       id="path8509" />
    <path
       style="fill:#5aa02c;stroke:#000000;stroke-width:0.462651"
       d="m 381.20197,505.6471 c -0.0224,-2.36214 0.91808,-11.80607 1.63551,-16.4241 0.8219,-5.29046 1.79779,-8.41878 3.36886,-10.79924 1.37432,-2.08236 1.60349,-1.79053 2.12441,2.70534 0.79633,6.8729 -2.57861,20.0482 -6.39897,24.98065 -0.69378,0.89573 -0.7171,0.88095 -0.72981,-0.46265 z"
       id="path8511" />
    <path
       style="fill:#5aa02c;stroke:#000000;stroke-width:0.462651"
       d="m 409.87001,477.96271 c 0,-0.34063 1.03212,-2.72991 2.2936,-5.3095 3.86288,-7.89917 6.90864,-10.26548 14.47788,-11.2481 3.98245,-0.517 13.36538,-0.2099 14.59396,0.47765 0.86738,0.48541 0.60269,0.64038 -5.13721,3.00762 -6.03516,2.48902 -11.8081,5.4769 -18.96999,9.81824 -3.51448,2.13038 -6.58532,3.87342 -6.8241,3.87342 -0.23877,0 -0.43414,-0.2787 -0.43414,-0.61933 z"
       id="path8513" />
    <path
       style="fill:#5aa02c;stroke:#000000;stroke-width:0.462651"
       d=""
       id="path8515" />
    <path
       style="fill:#5aa02c;stroke:#000000;stroke-width:0.462651"
       d="m 402.47596,493.33888 c 1.20511,-2.31947 9.94622,-10.46674 12.74344,-11.8777 4.17281,-2.10483 5.75843,-2.41421 14.77592,-2.88301 4.85897,-0.25261 9.29124,-0.7253 10.64096,-1.13483 1.27229,-0.38604 2.3653,-0.70414 2.42891,-0.7069 0.65682,-0.0284 -1.19252,5.80649 -3.0044,9.47933 -0.62764,1.27229 -1.7902,2.99559 -2.58347,3.82955 -2.49153,2.61933 -4.49325,2.95889 -19.74225,3.349 -7.5065,0.19203 -14.14025,0.50756 -14.74166,0.70118 -1.0323,0.33235 -1.06125,0.29003 -0.51745,-0.75662 z"
       id="path8517" />
    <path
       style="fill:#5aa02c;stroke:#000000;stroke-width:0.462651"
       d="m 404.08688,509.80111 c -2.03566,-0.34317 -5.99132,-0.66212 -8.79036,-0.70878 -2.79904,-0.0467 -5.71076,-0.21787 -6.47049,-0.38048 l -1.38133,-0.29564 4.15723,-3.63699 c 8.10703,-7.09248 10.93161,-7.95038 24.95204,-7.57861 8.64912,0.22935 14.22362,-0.0156 19.20546,-0.844 l 2.06291,-0.34302 -2.52556,2.92193 c -3.54812,4.10498 -9.00871,8.70307 -12.0099,10.11295 -2.31585,1.08793 -3.12678,1.20352 -9.02169,1.28599 -3.74684,0.0524 -8.03726,-0.17241 -10.17831,-0.53335 z"
       id="path8519" />
    <path
       style="fill:#5aa02c;stroke:#000000;stroke-width:0.462651"
       d="m 392.25968,515.12906 c -1.92472,-0.18459 -3.97888,-0.59218 -4.56482,-0.90576 -0.98199,-0.52555 -1.0067,-0.62877 -0.31589,-1.31958 1.61994,-1.61994 8.44988,-1.27938 19.25249,0.95999 4.80673,0.99644 4.83593,1.01047 2.7759,1.33441 -2.62526,0.41282 -12.53928,0.37289 -17.14768,-0.0691 z"
       id="path8521" />
    <path
       style="fill:#5aa02c;stroke:#000000;stroke-width:0.462651"
       d=""
       id="path8523" />
    <path
       style="fill:#5aa02c;stroke:#000000;stroke-width:0.462651"
       d="m 425.60013,474.34681 c 8.1361,-4.48904 20.0037,-9.68879 20.64636,-9.04612 0.49503,0.49502 -1.89211,4.62133 -3.82652,6.61439 -2.31238,2.38248 -5.10389,3.3336 -10.79075,3.67662 -2.17094,0.13095 -5.19631,0.33518 -6.72306,0.45384 l -2.77591,0.21576 z"
       id="path8525" />
    <path
       style="fill:#5aa02c;stroke:#000000;stroke-width:0.462651"
       d="m 379.5664,539.83861 c -4.35558,-0.77148 -9.05083,-2.12764 -11.86651,-3.42747 l -2.01301,-0.92929 9.25301,0.19176 c 5.56414,0.1153 10.91301,0.48664 13.41687,0.93142 7.01964,1.24698 9.75102,2.70649 6.67413,3.56632 -1.9772,0.55253 -11.64034,0.34461 -15.46449,-0.33274 z"
       id="path8527" />
    <path
       style="fill:#5aa02c;stroke:#000000;stroke-width:0.462651"
       d="m 369.59686,566.40821 c -4.43436,-6.23276 -10.52485,-20.48986 -10.0744,-23.58293 0.15266,-1.0482 0.22647,-1.01898 1.86326,0.73748 0.93737,1.00591 2.65771,3.76235 3.82298,6.12542 2.03251,4.12175 7.43909,19.47512 7.00935,19.90485 -0.11418,0.11419 -1.29372,-1.31898 -2.62119,-3.18482 z"
       id="path8529" />
    <path
       style="fill:#5aa02c;stroke:#000000;stroke-width:0.462651"
       d="m 392.71933,583.08994 c -11.63528,-6.65617 -13.16511,-8.49049 -17.70652,-21.23079 -2.52197,-7.07501 -4.86337,-12.56134 -7.27129,-17.03794 -1.00282,-1.86436 -1.82331,-3.57132 -1.82331,-3.79326 0,-1.17503 11.65878,4.83095 14.60523,7.52384 3.3496,3.06134 5.40765,6.67655 9.68257,17.00856 1.94773,4.70747 4.8648,11.31759 6.48238,14.68916 1.75416,3.65626 2.70706,6.13012 2.36125,6.13012 -0.31888,0 -3.16752,-1.48036 -6.33031,-3.28969 z"
       id="path8531" />
    <path
       style="fill:#5aa02c;stroke:#000000;stroke-width:0.462651"
       d="m 416.32683,561.81602 c -3.75874,-2.54253 -6.62455,-3.7844 -12.92311,-5.60006 -6.37375,-1.83734 -8.66379,-3.00311 -12.42389,-6.32456 l -2.00344,-1.76971 3.57686,-0.30236 c 7.04179,-0.59525 10.83439,-0.38744 13.11969,0.71885 2.65936,1.28737 9.47069,8.15299 11.54808,11.64012 0.86233,1.44751 1.47778,2.72194 1.36766,2.83206 -0.11012,0.11012 -1.12795,-0.42734 -2.26185,-1.19434 z"
       id="path8533" />
    <path
       style="fill:#5aa02c;stroke:#000000;stroke-width:0.462651"
       d="m 409.6675,586.69976 c -3.46875,-1.86129 -6.06787,-5.07869 -9.04158,-11.19242 -1.93711,-3.98257 -4.7151,-11.18633 -5.79838,-15.03615 -0.56996,-2.02553 4.14677,2.9763 7.41676,7.86506 2.71367,4.05705 10.70676,19.2804 10.32415,19.66301 -0.092,0.092 -1.39746,-0.49274 -2.90095,-1.2995 z"
       id="path8535" />
    <path
       style="fill:#5aa02c;stroke:#000000;stroke-width:0.462651"
       d="m 425.55607,585.60637 c -0.66039,-0.71977 -2.42031,-2.87012 -3.91095,-4.77855 -1.49063,-1.90843 -6.45092,-7.2694 -11.02286,-11.91325 -4.57193,-4.64386 -8.10534,-8.44338 -7.85201,-8.44338 1.06217,0 7.30501,2.36839 9.92816,3.76651 3.51681,1.87445 7.55212,5.7944 9.83713,9.55592 2.1686,3.56991 4.54513,9.98749 4.3604,11.77484 l -0.13918,1.34659 z"
       id="path8537" />
    <path
       style="fill:#5aa02c;stroke:#000000;stroke-width:0.462651"
       d="m 422.06139,590.74476 c -1.31016,-0.63409 -3.19182,-2.03179 -4.18145,-3.106 -1.67101,-1.81382 -6.53965,-10.65681 -7.31593,-13.28805 -0.33887,-1.14859 -0.33086,-1.14699 1.15351,0.23133 2.9459,2.73543 13.41996,15.95498 13.41996,16.93764 0,0.60953 -0.44947,0.4963 -3.07609,-0.77492 z"
       id="path8539" />
  </g>
</svg>
