<?xml version="1.0" encoding="UTF-8" standalone="no"?>
<svg
   xmlns:dc="http://purl.org/dc/elements/1.1/"
   xmlns:cc="http://creativecommons.org/ns#"
   xmlns:rdf="http://www.w3.org/1999/02/22-rdf-syntax-ns#"
   xmlns:svg="http://www.w3.org/2000/svg"
   xmlns="http://www.w3.org/2000/svg"
   xmlns:sodipodi="http://sodipodi.sourceforge.net/DTD/sodipodi-0.dtd"
   xmlns:inkscape="http://www.inkscape.org/namespaces/inkscape"
   version="1.1"
   id="svg5825"
   width="512"
   height="512"
   viewBox="0 0 512 512"
   sodipodi:docname="gnome.svg"
   inkscape:version="1.0.1 (3bc2e813f5, 2020-09-07)">
  <metadata
     id="metadata5831">
    <rdf:RDF>
      <cc:Work
         rdf:about="">
        <dc:format>image/svg+xml</dc:format>
        <dc:type
           rdf:resource="http://purl.org/dc/dcmitype/StillImage" />
        <dc:title></dc:title>
      </cc:Work>
    </rdf:RDF>
  </metadata>
  <defs
     id="defs5829" />
  <sodipodi:namedview
     pagecolor="#ffffff"
     bordercolor="#666666"
     borderopacity="1"
     objecttolerance="10"
     gridtolerance="10"
     guidetolerance="10"
     inkscape:pageopacity="0"
     inkscape:pageshadow="2"
     inkscape:window-width="1920"
     inkscape:window-height="1001"
     id="namedview5827"
     showgrid="false"
     inkscape:zoom="1.1462864"
     inkscape:cx="310.51671"
     inkscape:cy="250.62266"
     inkscape:window-x="-9"
     inkscape:window-y="-9"
     inkscape:window-maximized="1"
     inkscape:current-layer="g5833" />
  <g
     inkscape:groupmode="layer"
     inkscape:label="Image"
     id="g5833">
    <path
       style="fill:#000000;stroke-width:0.949042"
       d="m 144.25553,470.28177 c -18.33066,-9.15994 -28.69949,-33.52787 -30.28182,-71.16573 -0.74939,-17.82531 -1.40558,-17.05232 14.47623,-17.05232 h 11.79523 v -15.50019 -15.50017 l -3.52843,-2.29435 c -7.52122,-4.89067 -9.04244,-10.10384 -6.86468,-23.52513 1.19777,-7.38171 3.78405,-12.67605 7.55368,-15.46307 l 2.83943,-2.09927 v -52.58715 c 0,-58.26354 -0.12211,-57.05289 6.14457,-60.92589 3.90991,-2.41647 6.57794,-2.41647 10.48785,0 6.23086,3.85088 6.14457,3.04607 6.14457,57.3082 0,27.97832 0.36206,48.96946 0.84464,48.96946 1.90091,0 12.40227,-8.67381 18.76449,-15.49892 7.37426,-7.91077 20.9017,-25.34759 28.47047,-36.69835 4.65729,-6.98444 4.76752,-7.31764 5.8827,-17.78261 1.16739,-10.95463 3.66342,-20.69251 6.96974,-27.19128 1.64859,-3.24038 1.73931,-4.18465 0.74368,-7.74066 -1.76665,-6.30983 -0.48357,-11.27896 4.14325,-16.04612 2.16457,-2.23023 4.46368,-4.22034 5.10913,-4.42249 0.74587,-0.23359 1.53436,-3.99916 2.16358,-10.33248 4.18942,-42.16833 15.55063,-73.602999 35.60019,-98.500015 6.20251,-7.702119 17.9717,-18.232053 20.37775,-18.232053 2.40606,0 14.17524,10.529934 20.37775,18.232053 20.04957,24.897016 31.41078,56.331685 35.6002,98.500015 0.62922,6.33332 1.4177,10.09889 2.16358,10.33248 0.64545,0.20215 2.94456,2.19226 5.10913,4.42249 4.62681,4.76716 5.90989,9.73629 4.14325,16.04612 -0.99563,3.55601 -0.90491,4.50028 0.74367,7.74066 3.46699,6.81457 5.95909,16.87609 7.0808,28.58776 l 1.11369,11.62789 5.97054,4.78449 c 11.83531,9.48422 21.56599,24.28076 25.57165,38.88445 2.28738,8.33922 2.25152,27.42174 -0.0676,35.98768 -4.53485,16.74969 -15.93367,29.59757 -28.29206,31.88862 -5.19724,0.96348 -5.36587,3.13927 -0.76805,9.90985 9.6863,14.26372 10.93978,25.67413 3.64058,33.13994 -3.33114,3.40715 -11.23773,7.73619 -17.61503,9.64462 l -4.03342,1.20701 v 10.59045 10.59043 l 4.98246,1.59188 c 15.06889,4.8145 22.90102,14.231 21.21089,25.50163 -1.89494,12.63638 -10.09,15.94618 -39.47992,15.94502 -25.85674,-9.5e-4 -36.70377,-1.89392 -43.89317,-7.65974 l -3.5589,-2.85421 -3.55891,2.85421 c -7.15731,5.74008 -18.0935,7.66648 -43.41864,7.64811 -29.89178,-0.0217 -38.05661,-3.27773 -39.95445,-15.93339 -1.69013,-11.27063 6.142,-20.68713 21.21089,-25.50163 l 4.98246,-1.59188 v -10.59043 -10.59045 l -4.03342,-1.20615 c -6.41472,-1.91825 -13.23041,-5.65227 -17.10348,-9.37026 -7.87781,-7.56238 -6.81782,-18.76776 3.16611,-33.46975 l 3.91902,-5.771 -2.06833,-4.89919 c -1.21589,-2.88005 -2.28751,-7.93046 -2.60013,-12.25424 -0.2925,-4.04529 -0.69708,-7.35507 -0.89908,-7.35507 -0.20202,0 -6.52668,1.91228 -14.05484,4.24951 -7.52814,2.33725 -18.40563,5.2138 -24.17218,6.39237 l -10.48462,2.14286 v 17.33367 17.33366 h 11.79522 c 15.88182,0 15.22563,-0.77299 14.47623,17.05232 -1.25371,29.82127 -7.4144,49.82285 -19.3002,62.66094 -5.01119,5.41268 -14.64974,11.3947 -18.35975,11.3947 -0.8772,0 -4.19736,-1.30047 -7.37813,-2.88991 z m 12.01974,-7.02253 c 15.2667,-7.73622 25.7025,-34.03641 25.72211,-64.82456 l 0.005,-8.77863 h -9.49042 -9.49041 v 13.85493 c 0,10.75757 -0.34083,14.57317 -1.5246,17.06778 -1.69232,3.56629 -6.55864,7.03893 -9.86389,7.03893 -3.30526,0 -8.17159,-3.47264 -9.86391,-7.03893 -1.18376,-2.49461 -1.52459,-6.31021 -1.52459,-17.06778 v -13.85493 h -9.49042 -9.4904 l 0.005,8.77863 c 0.0152,23.76499 6.54479,46.26707 16.70498,57.56764 3.41327,3.79639 10.92142,9.11668 13.45302,9.53284 0.14786,0.0243 2.32915,-0.99986 4.84733,-2.27592 z m 115.88665,1.30831 c 7.35087,-1.1886 11.10588,-3.19661 13.99513,-7.48397 7.89904,-11.72139 -7.07225,-21.87356 -32.25669,-21.87356 -20.32165,0 -35.90356,5.16291 -40.10548,13.28851 -3.68077,7.11784 0.034,14.50903 8.06785,16.05242 6.15257,1.18196 43.01678,1.19413 50.29919,0.0166 z m 89.31761,0.0673 c 8.90468,-1.64523 12.77645,-8.6578 8.90915,-16.13632 -4.20191,-8.12559 -19.78383,-13.2885 -40.10547,-13.2885 -25.18445,0 -40.15574,10.15217 -32.25669,21.87356 2.78326,4.13008 6.72078,6.35918 13.1026,7.41757 7.15607,1.18682 44.1193,1.28496 50.35041,0.1337 z m -73.18391,-38.34708 v -9.87131 l -11.15123,-0.6389 c -6.13319,-0.35138 -16.91667,-1.45887 -23.9633,-2.46108 -7.04663,-1.0022 -13.13236,-1.8245 -13.52384,-1.82733 -0.39147,-0.003 -0.71178,3.7495 -0.71178,8.3385 v 8.34366 l 13.04932,-0.0396 c 14.66311,-0.0444 21.96823,1.21669 29.7022,5.12763 2.84629,1.43931 5.49537,2.68056 5.88684,2.75831 0.39148,0.0778 0.71179,-4.30071 0.71179,-9.72993 z m 14.23562,6.87432 c 8.71004,-4.04932 14.59,-5.06647 29.18302,-5.04829 l 13.52383,0.0169 v -8.32333 c 0,-4.57783 -0.3203,-8.321 -0.71177,-8.31817 -0.39148,0.003 -6.47722,0.82512 -13.52384,1.82732 -7.04664,1.00221 -17.83011,2.10971 -23.9633,2.46109 l -11.15123,0.63889 v 9.9504 c 0,5.47272 0.3203,9.78648 0.71178,9.58614 0.39147,-0.20033 3.06066,-1.45624 5.93151,-2.79091 z M 154.29098,418.88651 c 0.84818,-0.84818 1.13885,-10.92459 1.13885,-39.4805 v -38.34165 l -3.79617,5.05221 -3.79617,5.05222 v 33.28944 c 0,34.31089 0.13409,35.56714 3.79617,35.56714 0.83515,0 2.03095,-0.51249 2.65732,-1.13886 z m 162.47587,-11.19704 c 23.30849,-1.98868 40.06262,-5.89635 48.65885,-11.34902 8.46767,-5.37111 8.52376,-13.56216 0.17896,-26.13414 l -3.42409,-5.1586 -4.7775,3.7764 c -9.24827,7.31033 -27.11138,13.97769 -42.20013,15.75108 -3.88797,0.45695 -5.36871,1.11039 -6.529,2.88123 -3.03411,4.63062 -6.79448,5.98869 -16.58216,5.98869 -9.78767,0 -13.54804,-1.35807 -16.58215,-5.98869 -1.16259,-1.77434 -2.64108,-2.42429 -6.5634,-2.88528 -14.88161,-1.74904 -33.03241,-8.52755 -42.16574,-15.74703 l -4.77749,-3.7764 -3.42409,5.1586 c -8.34481,12.57198 -8.28872,20.76303 0.17895,26.13414 14.93842,9.47557 59.4949,14.63502 98.00899,11.34902 z m -14.32511,-23.14533 c 0.74047,-0.89219 1.00699,-5.70386 0.82799,-14.9474 l -0.26397,-13.63166 h -10.91398 -10.91397 l -0.26398,13.63166 c -0.179,9.24354 0.0875,14.05521 0.828,14.9474 0.79429,0.95707 3.61562,1.31574 10.34995,1.31574 6.73434,0 9.55567,-0.35867 10.34996,-1.31574 z m -29.33078,-12.79761 v -5.57198 l -4.76024,-0.63147 c -16.4772,-2.18578 -34.89236,-9.4849 -43.53574,-17.25604 -4.83823,-4.34998 -4.93855,-4.38996 -4.29119,-1.70969 3.15491,13.0624 15.54486,22.87207 35.09333,27.78494 10.44903,2.62602 10.93565,2.72213 14.40945,2.84613 l 3.08439,0.11009 z m 55.49055,2.6746 c 19.68613,-5.16198 31.93333,-14.8887 35.05898,-27.84378 0.6467,-2.68045 0.54663,-2.64057 -4.29191,1.70969 -8.64338,7.77114 -27.05853,15.07026 -43.53574,17.25604 l -4.76024,0.63147 v 5.70264 5.70265 l 4.98247,-0.58767 c 2.74036,-0.32322 8.38627,-1.48019 12.54644,-2.57104 z m -54.25502,-19.41159 c 2.70895,-5.68074 6.26461,-7.10421 17.74529,-7.10421 11.52869,0 15.03481,1.42025 17.79498,7.20838 1.626,3.40978 1.66797,3.42862 6.39376,2.87114 20.29443,-2.39407 39.39732,-12.42394 45.37588,-23.82435 2.76659,-5.27555 3.34376,-21.25543 1.21316,-33.58762 -1.52979,-8.85456 -5.86134,-21.06629 -7.66653,-21.61385 -0.52198,-0.15833 -2.39293,1.83973 -4.15768,4.44012 -4.52721,6.67093 -17.9178,20.67175 -27.53967,28.79467 -8.05342,6.79883 -16.69692,12.75175 -26.43143,18.20375 l -4.98247,2.79052 -4.98246,-2.76621 c -9.43958,-5.24075 -18.29047,-11.34247 -26.43144,-18.22162 -9.63112,-8.13833 -23.01812,-22.13853 -27.53966,-28.80111 -1.76475,-2.60039 -3.63571,-4.59845 -4.15769,-4.44012 -1.80518,0.54756 -6.13674,12.75929 -7.66652,21.61385 -2.1306,12.33219 -1.55343,28.31207 1.21315,33.58762 5.55682,10.59618 19.58716,18.65526 40.14434,23.05904 8.29964,1.77796 9.91949,1.47133 11.67499,-2.21 z m 103.80442,-10.10303 c 10.85122,-6.56628 17.05082,-22.89211 16.16268,-42.56227 -0.79356,-17.57542 -6.65192,-30.74443 -19.3064,-43.39891 -6.9982,-6.99821 -8.89018,-8.1383 -8.89018,-5.35711 0,0.84872 -1.50351,5.30106 -3.34115,9.89406 l -3.34114,8.35091 2.35057,3.46373 c 2.94949,4.34633 5.95925,12.27595 7.92463,20.87856 1.15099,5.03792 1.53094,12.08688 1.57229,29.1698 0.0611,25.2512 -0.39373,23.95585 6.8687,19.56123 z m -228.42373,-8.85396 c 2.81382,-5.81258 2.50369,-11.5161 -0.91974,-16.91428 -3.16555,-4.99153 -5.28196,-5.58133 -8.32919,-2.32115 -2.74718,2.93917 -4.18527,9.42088 -3.84277,17.32001 0.28284,6.52327 0.34737,6.6729 3.57185,8.28219 3.19121,1.59269 3.34486,1.58155 5.4486,-0.3948 1.19063,-1.11855 3.0227,-3.80592 4.07125,-5.97197 z m 30.57415,0.0422 c 6.9386,-1.7942 16.88631,-4.70087 22.10605,-6.45929 l 9.49041,-3.19715 0.63442,-11.80978 c 0.94921,-17.66961 4.34054,-31.1893 9.86607,-39.33164 l 2.35056,-3.46373 -3.34113,-8.35091 c -1.83764,-4.593 -3.34115,-8.8318 -3.34115,-9.41955 0,-2.27329 -1.59855,-0.75469 -6.14961,5.84206 -13.75571,19.93884 -32.02771,39.54255 -42.54791,45.64893 l -6.34688,3.68399 v 15.05957 15.05957 h 2.33177 c 1.28248,0 8.00881,-1.46794 14.9474,-3.2621 z M 304.1724,317.27833 c 9.96866,-6.72307 10.31588,-7.07874 14.01802,-14.35884 l 3.79617,-7.46501 0.0268,-12.45157 c 0.0148,-6.84837 0.36029,-12.98542 0.76779,-13.63788 0.99486,-1.59293 3.0292,-1.49753 4.74945,0.22271 1.94687,1.94687 2.98561,14.44787 1.80157,21.68144 -0.52715,3.22041 -0.83598,5.99134 -0.6863,6.15762 0.14969,0.16626 2.98039,-2.52983 6.29045,-5.99132 14.45106,-15.11215 18.28118,-36.91662 8.71524,-49.61493 -2.57978,-3.42452 -2.60253,-5.63412 -0.0744,-7.22621 2.36371,-1.48857 4.39358,0.0294 7.99368,5.97772 1.88771,3.11901 3.45844,7.4779 4.20989,11.68278 l 1.1987,6.70746 1.3324,-3.69591 c 3.1618,-8.77029 2.40191,-28.25216 -1.60687,-41.19652 -2.83196,-9.14442 -3.51294,-9.83129 -8.1541,-8.22475 -3.48743,1.20718 -3.98058,1.82964 -6.22639,7.85902 -4.62603,12.41961 -10.52894,21.55478 -18.5446,28.69901 -9.42968,8.40454 -13.53696,9.35018 -23.32931,5.37119 -3.21145,-1.30494 -6.7822,-2.3726 -7.93499,-2.3726 -1.1528,0 -4.93254,1.06766 -8.39943,2.3726 -8.16405,3.07294 -11.53187,3.00673 -16.79365,-0.3302 -9.99638,-6.33951 -19.0973,-18.11191 -24.63509,-31.86643 -3.20237,-7.95389 -3.63707,-8.54908 -7.12634,-9.7571 -4.55917,-1.57842 -5.26092,-0.86221 -8.08267,8.24926 -4.02747,13.00472 -4.76737,32.42471 -1.57327,41.29363 l 1.36602,3.79297 0.71092,-4.74077 c 1.96153,-13.08038 9.3518,-23.53243 13.62062,-19.26361 1.68649,1.68648 1.40072,3.38527 -1.13619,6.75406 -9.53799,12.66568 -5.46081,35.27516 8.97637,49.77723 3.25643,3.27107 6.02112,5.83349 6.14377,5.69425 0.12264,-0.13923 -0.2083,-2.88804 -0.73546,-6.10845 -1.18403,-7.23357 -0.14528,-19.73457 1.80157,-21.68144 1.72025,-1.72024 3.75459,-1.81564 4.74945,-0.22271 0.4075,0.65246 0.753,6.78951 0.7678,13.63788 l 0.0269,12.45157 3.79616,7.46501 c 3.70214,7.2801 4.04935,7.63577 14.01802,14.35884 5.62203,3.79161 11.0583,6.89383 12.08062,6.89383 1.02231,0 6.45859,-3.10222 12.08061,-6.89383 z M 154.37216,201.14046 c -1.32575,-1.59742 -3.87942,-1.67023 -5.39581,-0.15382 -0.85811,0.8581 -1.13886,13.97836 -1.13886,53.22242 v 52.08358 l 3.55891,4.09141 3.55891,4.0914 0.24483,-56.02116 c 0.17739,-40.58561 -0.0508,-56.37732 -0.82798,-57.31383 z m 127.75469,39.05746 c 8.44299,-2.98466 12.02581,-2.97363 20.44382,0.0629 4.23717,1.52843 7.68516,2.22818 9.1579,1.85856 1.29913,-0.32607 5.42419,-3.67131 9.16679,-7.43387 7.49087,-7.53083 12.90333,-16.91821 15.7496,-27.31608 1.77077,-6.4689 2.41321,-7.113 7.98739,-8.00802 7.78089,-1.24936 10.7165,-8.71257 5.7491,-14.61599 -2.77543,-3.2984 -14.68567,-7.49096 -34.34815,-12.09098 -15.7977,-3.69586 -32.08533,-3.69586 -47.88303,0 -19.66249,4.60002 -31.57272,8.79258 -34.34815,12.09098 -4.9674,5.90342 -2.0318,13.36663 5.7491,14.61599 5.53835,0.88927 6.21569,1.5441 7.91843,7.65526 3.39466,12.18357 10.23718,22.89112 19.8979,31.13736 2.8355,2.42033 5.82157,4.39874 6.63572,4.39646 0.81416,-0.002 4.46977,-1.06093 8.12358,-2.35259 z m 6.64329,-10.88734 c -6.00833,-1.40365 -14.71014,-7.0255 -14.71014,-9.50355 0,-1.09475 2.73468,-3.82554 3.83099,-3.82554 0.46656,0 2.86034,1.276 5.3195,2.83555 6.12284,3.883 9.64733,4.39824 14.71564,2.15128 2.27183,-1.00718 4.71672,-2.54124 5.43309,-3.40903 1.52902,-1.85218 4.01805,-2.0464 5.6255,-0.43896 2.08353,2.08353 1.17981,4.51382 -2.73225,7.3477 -5.6232,4.07343 -12.55527,5.99359 -17.48233,4.84255 z M 260.45708,192.5718 c -1.70178,-1.70177 -0.47671,-5.18456 2.45168,-6.97003 6.37886,-3.88927 19.32767,-1.12007 18.56913,3.97115 -0.4954,3.32518 -3.13039,4.33106 -6.35527,2.42607 -3.39922,-2.00797 -5.81353,-2.08073 -8.23631,-0.24823 -1.93253,1.46169 -5.35191,1.89836 -6.42923,0.82104 z m 43.05347,-1.20883 c -0.78319,-1.46339 -0.52399,-2.37814 1.2623,-4.45483 1.9309,-2.24481 3.11746,-2.66867 8.41502,-3.006 5.75375,-0.36636 6.37729,-0.20492 9.30219,2.40847 2.1344,1.90708 2.93989,3.30974 2.5236,4.39453 -0.95322,2.48408 -3.56085,2.97456 -6.58546,1.23867 -3.42966,-1.96836 -6.75214,-2.03352 -8.30464,-0.16288 -1.66738,2.00908 -5.44178,1.77052 -6.61301,-0.41796 z m -43.52511,-24.12099 c 19.09821,-5.00199 30.75672,-6.07695 44.47082,-4.10037 6.01752,0.86729 16.61081,3.12279 23.54066,5.01219 6.92988,1.88942 12.76406,3.27101 12.96484,3.07022 0.2008,-0.2008 0.0707,-3.34487 -0.28915,-6.98683 l -0.65424,-6.62174 -9.96493,-2.09927 c -22.87514,-4.81897 -38.14783,-5.98439 -52.84039,-4.03211 -9.90923,1.31671 -31.94831,5.66817 -32.68872,6.45417 -0.32446,0.34444 -0.84668,3.55652 -1.16048,7.13798 -0.55761,6.36423 -0.52276,6.50098 1.53897,6.03763 1.16023,-0.26074 7.94741,-2.00308 15.08262,-3.87187 z m -1.71045,-20.0397 c 25.61118,-5.2463 41.71467,-5.23721 67.87199,0.0383 6.464,1.3037 11.97858,2.14453 12.25459,1.86851 0.91198,-0.91197 -3.78904,-21.66797 -7.47936,-33.02301 -4.23368,-13.02692 -11.14269,-27.286124 -18.18196,-37.524928 -4.96673,-7.224237 -18.84051,-22.01863 -20.64847,-22.01863 -1.80796,0 -15.68173,14.794393 -20.64846,22.01863 -10.6129,15.436739 -18.73547,35.180798 -23.45683,57.018018 -2.55362,11.81105 -2.81587,13.98092 -1.68595,13.94978 0.39148,-0.0109 5.77999,-1.05781 11.97445,-2.3267 z"
       id="path6398" />
    <path
       style="fill:#c74228;stroke:#000000;stroke-width:0.872382;fill-opacity:1"
       d="m 245.97479,148.2431 c 0.0402,-2.79605 5.41925,-24.89644 7.80146,-32.05342 3.41511,-10.26014 11.54086,-27.232149 17.01966,-35.548452 2.29255,-3.479861 8.02712,-10.331258 12.7435,-15.225328 l 8.57523,-8.898306 7.86659,8.095044 c 9.55717,9.834725 14.11173,16.109864 20.40167,28.108823 7.51774,14.341159 13.07313,30.937449 16.71807,49.943889 1.31745,6.86979 1.668,6.66607 -7.9891,4.64309 -27.08838,-5.67448 -50.9514,-5.34576 -79.44382,1.09438 -2.69027,0.60807 -3.70369,0.56425 -3.69326,-0.15972 z"
       id="path6400" />
    <path
       style="fill:#c74228;fill-opacity:1;stroke:#000000;stroke-width:0.872382"
       d="m 243.77164,164.9111 c 0.34209,-3.11029 1.14705,-5.88211 1.87395,-6.45277 1.18345,-0.92909 17.71386,-4.35537 30.84821,-6.39396 7.09152,-1.10067 21.92253,-1.10313 30.53339,-0.005 10.31068,1.31483 30.8585,5.36084 32.06005,6.31285 1.33936,1.0612 1.51382,11.99134 0.1914,11.99134 -0.4945,0 -6.3218,-1.37518 -12.94956,-3.05595 -29.22144,-7.41044 -41.30067,-7.24992 -72.08103,0.9579 -11.49798,3.06603 -11.19328,3.16359 -10.47641,-3.35434 z"
       id="path6402" />
    <path
       style="fill:#f5eec8;fill-opacity:1;stroke:#000000;stroke-width:0.872382"
       d="m 283.87803,319.06072 c -11.65661,-7.31824 -13.58541,-9.15082 -17.63472,-16.75494 l -3.70762,-6.96248 -0.0119,-11.67363 c -0.0142,-13.96318 -0.34182,-15.59936 -3.12306,-15.59936 -4.08392,0 -5.15507,3.43412 -5.13064,16.4488 l 0.022,11.72694 -5.00113,-5.5225 c -8.88869,-9.81535 -13.3084,-20.47304 -13.27887,-32.02066 0.0173,-6.75144 0.24822,-7.63352 3.81529,-14.57181 3.18085,-6.18706 3.61523,-7.60425 2.6772,-8.73451 -0.61584,-0.74204 -2.07091,-1.34917 -3.2335,-1.34917 -4.37838,0 -8.97188,7.30594 -11.14391,17.72434 l -1.12449,5.39379 -1.16984,-3.92572 c -1.4689,-4.92932 -1.4823,-22.95175 -0.0224,-30.09719 1.48012,-7.24427 4.3374,-15.84524 5.58671,-16.81704 0.62479,-0.48601 2.18328,-0.50041 3.8962,-0.036 2.58472,0.70078 3.30428,1.72681 7.60422,10.8429 7.54096,15.98721 16.71839,27.16467 25.98864,31.65232 4.82643,2.33643 6.07015,2.30763 14.3353,-0.33195 8.46986,-2.70497 9.77638,-2.70579 17.69898,-0.0111 3.52675,1.19952 7.42309,2.17233 8.65853,2.1618 4.42424,-0.0377 10.00691,-3.54401 17.11643,-10.75018 5.80339,-5.88229 7.912,-8.81499 11.4235,-15.88801 2.36852,-4.77078 4.94948,-10.34937 5.73547,-12.39686 1.5492,-4.03567 5.94073,-6.82658 8.54695,-5.43177 1.53897,0.82363 4.68356,10.14124 6.05872,17.95233 1.27442,7.23885 1.25396,23.52272 -0.036,28.64556 l -1.05667,4.19639 -1.62479,-6.398 c -2.89269,-11.39065 -8.66548,-18.51031 -12.86473,-15.86624 -2.24178,1.41154 -2.13795,3.62432 0.34619,7.37812 3.49196,5.2767 4.80615,9.86971 4.79468,16.75703 -0.0192,11.53906 -4.48174,22.1986 -13.16912,31.45693 l -4.89185,5.21334 0.0293,-10.86568 c 0.0327,-12.14197 -1.00781,-15.89166 -4.54941,-16.39439 -1.14077,-0.16193 -2.40694,0.23064 -2.81371,0.87238 -0.40677,0.64175 -0.7456,6.57339 -0.75295,13.18143 l -0.0134,12.01462 -3.40904,6.7416 c -1.87497,3.70788 -4.72112,7.97798 -6.32477,9.48912 -2.96743,2.79624 -16.54057,11.81544 -19.21734,12.76971 -0.92568,0.32999 -4.27316,-1.23473 -9.0285,-4.22022 z"
       id="path6404" />
    <path
       style="fill:#f5c088;fill-opacity:1;stroke:#000000;stroke-width:0.872382"
       d="m 268.45695,238.14073 c -9.00089,-7.33334 -17.89644,-20.99262 -20.73403,-31.83748 -1.26926,-4.85095 -3.24688,-6.74701 -7.79593,-7.47443 -4.75343,-0.76011 -7.92469,-3.85369 -7.92469,-7.73058 0,-6.09065 5.0039,-9.36078 21.61607,-14.12647 18.27817,-5.24364 23.843,-6.12799 38.57832,-6.13084 14.45511,-0.003 17.36762,0.43715 35.33148,5.33692 18.92964,5.1632 24.8629,8.74578 24.8629,15.01256 0,3.0332 -4.18202,7.03993 -7.98217,7.6476 -4.90901,0.78498 -6.36436,2.4523 -8.90001,10.19629 -3.1591,9.64801 -7.67983,17.25282 -14.56458,24.50068 -8.53369,8.98376 -8.63696,9.01984 -17.96108,6.27668 -9.59337,-2.82239 -12.45008,-2.83666 -21.0038,-0.10491 -3.73681,1.1934 -7.27021,2.17483 -7.852,2.18095 -0.58179,0.006 -3.13351,-1.68001 -5.67048,-3.74697 z m 34.29106,-11.29048 c 6.20537,-3.14863 8.8845,-6.53387 7.24342,-9.15249 -1.55464,-2.48069 -4.14945,-2.24616 -9.08351,0.82102 -6.23313,3.87472 -10.86455,3.87625 -17.25535,0.006 -5.30284,-3.21164 -5.99975,-3.32693 -8.18055,-1.35333 -2.35697,2.13302 -1.95072,4.30306 1.26469,6.75557 8.54544,6.51793 17.04472,7.4732 26.0113,2.92352 z m -36.1969,-34.34205 c 1.90406,-0.90353 3.83061,-1.19151 5.36614,-0.80212 1.31758,0.33412 3.85033,0.81173 5.62834,1.06136 2.91887,0.40981 3.28798,0.23377 3.80171,-1.81307 0.81615,-3.25182 -0.0496,-4.79237 -3.50464,-6.23596 -4.10788,-1.71638 -10.72018,-1.59773 -14.42524,0.25884 -3.56196,1.78487 -5.28734,5.47703 -3.54214,7.57987 1.43323,1.72693 2.95703,1.71577 6.67583,-0.0489 z m 43.95316,-0.28237 c 2.77494,-1.47727 3.32161,-1.50653 6.25071,-0.33453 4.7402,1.89665 8.09152,1.27409 8.42081,-1.56429 0.19442,-1.6758 -0.46084,-2.89279 -2.46598,-4.58001 -2.26975,-1.90986 -3.59353,-2.29778 -7.84133,-2.29778 -6.23792,0 -9.0515,0.99032 -10.92135,3.84407 -2.13634,3.26047 -0.88327,5.89951 3.08006,6.48676 0.2399,0.0356 1.80459,-0.66385 3.47708,-1.55422 z"
       id="path6406" />
    <path
       style="fill:#969235;fill-opacity:1;stroke:#000000;stroke-width:0.872382"
       d="m 258.05493,355.42873 c -17.637,-4.60855 -30.41547,-12.57612 -34.95794,-21.79678 -1.85064,-3.75659 -1.99417,-5.13008 -1.92837,-18.45299 0.0643,-13.01375 0.29613,-15.13374 2.41733,-22.1039 1.29042,-4.24027 3.05477,-9.09069 3.92077,-10.7787 l 1.57455,-3.06911 4.6399,5.9806 c 6.69272,8.62657 24.50955,26.0602 33.41265,32.69401 4.20831,3.13566 11.46135,7.9823 16.11788,10.7703 l 8.4664,5.0691 4.8193,-2.49591 c 17.76364,-9.19975 38.80103,-27.27742 54.48303,-46.81787 1.82907,-2.2791 3.68481,-4.14382 4.12388,-4.14382 2.64196,0 7.68903,19.0119 8.34426,31.43213 0.62583,11.86313 -0.72498,19.90431 -4.18959,24.93994 -6.4428,9.3643 -24.89248,18.41578 -42.39987,20.80156 l -4.5224,0.61628 -2.23558,-3.5414 c -3.80641,-6.02974 -5.44933,-6.63887 -17.90608,-6.63887 -12.23918,0 -15.00222,0.9243 -17.95635,6.00682 -2.8301,4.86911 -3.27811,4.91132 -16.22377,1.52861 z"
       id="path6408" />
    <path
       style="fill:#969235;fill-opacity:1;stroke:#000000;stroke-width:0.872382"
       d="m 372.08356,343.74948 c -0.24825,-1.55938 -0.60227,-12.45326 -0.7867,-24.20861 -0.31672,-20.18682 -0.46617,-21.80924 -2.692,-29.22481 -1.29617,-4.31829 -3.72275,-10.34546 -5.39241,-13.39371 l -3.03573,-5.54226 3.08885,-7.97966 c 1.69887,-4.38882 3.08767,-8.47038 3.08623,-9.07014 -0.006,-2.3966 2.47643,-0.77571 8.77758,5.73185 11.27954,11.64902 16.5942,22.73827 18.32146,38.22848 2.23154,20.01259 -3.52127,37.34243 -15.20601,45.80681 -4.41896,3.20108 -5.60696,3.13399 -6.16127,-0.34795 z"
       id="path6410" />
    <path
       style="fill:#969235;fill-opacity:1;stroke:#000000;stroke-width:0.872382"
       d="m 163.2811,324.17425 0.23919,-14.55903 4.7981,-2.85297 c 10.37561,-6.16937 25.80368,-21.99058 39.49636,-40.50278 4.90647,-6.63345 9.11715,-12.07275 9.35705,-12.08733 0.23991,-0.0146 1.88817,3.91856 3.66281,8.74032 l 3.22662,8.76685 -2.58401,4.19954 c -5.25164,8.535 -8.265,21.19877 -9.33394,39.22623 l -0.64196,10.82666 -8.72382,2.95059 c -11.13388,3.76572 -34.15699,9.84094 -37.31544,9.84661 l -2.42015,0.004 z"
       id="path6412" />
    <path
       style="fill:#969235;fill-opacity:1;stroke:#000000;stroke-width:0.872382"
       d="m 272.60966,407.63115 c -27.8257,-2.04583 -49.1647,-7.34553 -56.14559,-13.94419 -2.36057,-2.23132 -3.65759,-5.27535 -3.64566,-8.55611 0.009,-2.57626 3.20319,-9.93086 6.74657,-15.53573 l 2.27417,-3.59727 5.73586,3.95001 c 10.00361,6.88901 23.27586,11.94567 38.12432,14.52518 6.69912,1.16378 8.03471,1.69563 9.92209,3.95107 3.28819,3.92943 7.50282,5.26926 16.57527,5.26926 9.04271,0 13.1625,-1.31792 16.53745,-5.29031 1.91902,-2.25873 3.26456,-2.79144 9.9599,-3.94319 14.48623,-2.49195 31.08644,-8.97994 38.98776,-15.2379 1.78638,-1.41485 3.64128,-2.57245 4.12198,-2.57245 1.26465,0 6.14861,7.9101 8.17222,13.23582 3.26925,8.60397 -0.0799,14.43359 -10.85375,18.89232 -16.95824,7.01812 -56.47366,11.06203 -86.51259,8.85349 z"
       id="path6414" />
    <path
       style="fill:#4d4d4d;fill-opacity:1;stroke:#000000;stroke-width:0.872382"
       d="m 263.40807,375.75459 c -9.52258,-2.05684 -17.60576,-4.75795 -23.55918,-7.87265 -8.60871,-4.50387 -16.43381,-12.79531 -17.95132,-19.02113 l -0.61473,-2.52202 4.70545,3.51876 c 9.55403,7.14455 23.97767,12.8867 38.9116,15.49096 4.1033,0.71555 7.60541,1.30101 7.78247,1.30101 0.17705,0 0.32191,2.35543 0.32191,5.23429 0,6.04479 0.1635,5.97884 -9.5962,3.87078 z"
       id="path6416" />
    <path
       style="fill:#4d4d4d;fill-opacity:1;stroke:#000000;stroke-width:0.872382"
       d="m 311.3891,371.97679 v -5.24821 l 3.27143,-0.52581 c 18.53011,-2.97828 32.52904,-8.2068 42.96223,-16.04615 2.63522,-1.98006 4.92115,-3.21055 5.07986,-2.73442 0.60345,1.81034 -4.75822,9.96176 -9.25674,14.07315 -7.67673,7.0161 -22.40471,12.89432 -37.91297,15.1318 l -4.14381,0.59786 z"
       id="path6418" />
    <path
       style="fill:#4d4d4d;fill-opacity:1;stroke:#000000;stroke-width:0.872382"
       d="m 286.09001,385.07886 -3.92572,-0.54551 -0.23971,-14.17621 -0.2397,-14.17621 h 10.4902 10.49019 v 13.90663 c 0,7.64865 -0.29443,14.07777 -0.65428,14.28694 -1.30616,0.7592 -12.09226,1.23639 -15.92098,0.70436 z"
       id="path6420" />
    <path
       style="fill:#4d4d4d;fill-opacity:1;stroke:#000000;stroke-width:0.872382"
       d="m 296.5586,426.12028 v -9.47684 l 10.25049,-0.56163 c 5.63777,-0.3089 16.33536,-1.35021 23.77242,-2.31404 7.43706,-0.96382 13.62007,-1.75285 13.74002,-1.75339 0.11995,-5.4e-4 0.2181,3.48272 0.2181,7.74057 v 7.74156 l -15.0486,0.44725 c -15.85149,0.47112 -20.5329,1.37443 -28.78862,5.55499 l -4.14381,2.09836 z"
       id="path6422" />
    <path
       style="fill:#844128;fill-opacity:1;stroke:#000000;stroke-width:0.872382"
       d="m 279.84268,431.99665 c -7.32886,-3.17913 -14.65919,-4.24125 -29.42222,-4.26309 l -11.67904,-0.0173 0.61853,-7.62301 c 0.34019,-4.19266 0.70441,-7.7089 0.80939,-7.81387 0.10497,-0.10498 6.06363,0.5695 13.24146,1.49882 7.17783,0.92933 17.85961,1.95368 23.73729,2.27634 l 10.68668,0.58666 v 9.02706 c 0,6.68751 -0.28262,9.004 -1.09047,8.93809 -0.59977,-0.0489 -3.70549,-1.2233 -6.90162,-2.60972 z"
       id="path6424" />
    <path
       style="fill:#844128;fill-opacity:1;stroke:#000000;stroke-width:0.872382"
       d="m 297.43098,425.74725 v -8.26238 l 9.8143,-0.60602 c 5.39787,-0.3333 15.70192,-1.33121 22.89789,-2.21756 7.19597,-0.88636 13.28084,-1.49084 13.52193,-1.34331 0.24108,0.14753 0.30918,3.25122 0.15132,6.89708 l -0.28702,6.62884 -7.56442,0.0294 c -17.94686,0.0697 -25.56051,1.42313 -37.44352,6.65613 -0.82943,0.36526 -1.09048,-1.49773 -1.09048,-7.78216 z"
       id="path6426" />
    <path
       style="fill:#844128;fill-opacity:1;stroke:#000000;stroke-width:0.872382"
       d="m 315.66972,464.42919 c -8.70466,-0.77052 -13.9839,-3.18741 -17.1145,-7.83521 -8.14319,-12.08965 10.75203,-22.43304 37.78747,-20.68516 15.5293,1.00399 26.41836,4.62312 31.57273,10.49363 5.35252,6.09619 4.26602,12.78867 -2.6489,16.3164 -3.36276,1.71555 -5.2432,1.8899 -22.88206,2.12154 -10.57001,0.13881 -22.59165,-0.0462 -26.71474,-0.4112 z"
       id="path6428" />
    <path
       style="fill:#844128;fill-opacity:1;stroke:#000000;stroke-width:0.872382"
       d="m 225.64441,464.4402 c -8.89391,-0.99883 -13.29401,-5.05501 -12.52812,-11.54892 0.80345,-6.81244 8.19489,-12.17249 21.06697,-15.27714 8.85833,-2.13656 28.48269,-2.13583 36.82129,10e-4 15.31776,3.92598 20.81778,12.73972 13.07384,20.9507 -4.69023,4.97309 -9.35371,5.86807 -32.44748,6.22709 -11.03564,0.17156 -22.72956,0.0127 -25.9865,-0.35311 z"
       id="path6430" />
    <path
       style="fill:#844128;fill-opacity:1;stroke:#000000;stroke-width:0.872382"
       d=""
       id="path6432" />
    <path
       style="fill:#f5c088;fill-opacity:1;stroke:#000000;stroke-width:0.872382"
       d="m 140.22211,341.74376 c -2.89426,-1.57102 -3.75368,-5.31743 -3.02062,-13.16757 0.79588,-8.5229 4.24228,-14.30096 7.71748,-12.93876 2.17959,0.85435 5.37697,6.9521 5.76548,10.99537 0.48773,5.07589 -0.98992,9.64746 -4.35834,13.48388 -2.96561,3.37765 -2.90752,3.36216 -6.104,1.62708 z"
       id="path6434" />
    <path
       style="fill:#784421;fill-opacity:1;stroke:#000000;stroke-width:0.872382"
       d="m 151.01648,309.1231 -2.76288,-3.43803 0.006,-46.50552 c 0.003,-25.57804 0.25451,-49.13441 0.55799,-52.3475 0.58609,-6.20509 2.06854,-8.03824 4.51889,-5.58789 1.10585,1.10585 1.26458,8.87012 1.1452,56.01842 -0.0762,30.10404 -0.26547,54.86151 -0.42055,55.01659 -0.15508,0.15508 -1.52526,-1.26515 -3.04485,-3.15607 z"
       id="path6436" />
    <path
       style="fill:#784421;fill-opacity:1;stroke:#000000;stroke-width:0.872382"
       d="m 149.88709,418.4235 c -0.9567,-1.1517 -1.25094,-7.99571 -1.46423,-34.05761 l -0.26693,-32.61626 3.32027,-4.53169 c 3.08348,-4.20851 3.34272,-4.37713 3.63508,-2.36436 0.17315,1.19203 0.15901,17.92506 -0.0314,37.18451 -0.2723,27.53814 -0.59526,35.31722 -1.51212,36.42196 -1.4718,1.77341 -2.18302,1.76635 -3.68065,-0.0366 z"
       id="path6442" />
    <path
       style="fill:#917c6f;fill-opacity:1;stroke:#000000;stroke-width:0.872382"
       d="m 145.70385,461.64563 c -6.3883,-4.26594 -10.18897,-8.77481 -14.26064,-16.91789 -6.03065,-12.06092 -9.36108,-27.77532 -9.36108,-44.16959 v -10.35431 h 8.59475 8.59475 l 0.47308,14.32174 c 0.38983,11.80168 0.75792,14.80562 2.09193,17.07171 3.61781,6.14561 11.09742,7.94049 15.97756,3.83412 4.82836,-4.06279 5.2699,-5.84123 5.2699,-21.22613 v -14.00144 h 9.16001 9.16002 v 8.82996 c 0,11.99988 -2.12969,25.66092 -5.58731,35.84021 -4.83709,14.24051 -11.68993,23.66671 -20.42286,28.09202 l -4.38515,2.22212 z"
       id="path6444" />
  </g>
</svg>
