<?xml version="1.0" encoding="UTF-8" standalone="no"?>
<svg
   xmlns:dc="http://purl.org/dc/elements/1.1/"
   xmlns:cc="http://creativecommons.org/ns#"
   xmlns:rdf="http://www.w3.org/1999/02/22-rdf-syntax-ns#"
   xmlns:svg="http://www.w3.org/2000/svg"
   xmlns="http://www.w3.org/2000/svg"
   xmlns:sodipodi="http://sodipodi.sourceforge.net/DTD/sodipodi-0.dtd"
   xmlns:inkscape="http://www.inkscape.org/namespaces/inkscape"
   version="1.1"
   id="svg5104"
   width="1170"
   height="606"
   viewBox="0 0 1170 606"
   sodipodi:docname="tools.svg"
   inkscape:version="1.0.1 (3bc2e813f5, 2020-09-07)">
  <metadata
     id="metadata5110">
    <rdf:RDF>
      <cc:Work
         rdf:about="">
        <dc:format>image/svg+xml</dc:format>
        <dc:type
           rdf:resource="http://purl.org/dc/dcmitype/StillImage" />
        <dc:title />
      </cc:Work>
    </rdf:RDF>
  </metadata>
  <defs
     id="defs5108" />
  <sodipodi:namedview
     pagecolor="#ffffff"
     bordercolor="#666666"
     borderopacity="1"
     objecttolerance="10"
     gridtolerance="10"
     guidetolerance="10"
     inkscape:pageopacity="0"
     inkscape:pageshadow="2"
     inkscape:window-width="1920"
     inkscape:window-height="1001"
     id="namedview5106"
     showgrid="false"
     inkscape:zoom="2.9662223"
     inkscape:cx="878.68644"
     inkscape:cy="475.06419"
     inkscape:window-x="-9"
     inkscape:window-y="-9"
     inkscape:window-maximized="1"
     inkscape:current-layer="g5112"
     inkscape:document-rotation="0" />
  <g
     inkscape:groupmode="layer"
     inkscape:label="Image"
     id="g5112">
    <path
       style="fill:#000000;stroke-width:0.867825"
       d="m 581.06776,548.85813 c -6.16098,-3.13243 -10.70285,-8.45082 -22.5408,-26.39459 -5.53782,-8.39415 -10.80537,-16.34036 -11.70565,-17.65827 -0.90028,-1.31791 -6.15382,-9.12833 -11.67453,-17.35651 -5.5207,-8.22817 -10.3103,-15.15557 -10.64354,-15.39422 -0.33323,-0.23866 -1.5493,-1.996 -2.70237,-3.90522 -4.0417,-6.6921 -9.76928,-13.58645 -12.02435,-14.47382 -1.25193,-0.49264 -12.03926,-1.23838 -23.97186,-1.65722 -11.9326,-0.41885 -27.16293,-1.15385 -33.84519,-1.63335 -16.90627,-1.21313 -39.12773,-2.43775 -55.54082,-3.06084 -7.63686,-0.28993 -20.71933,-0.8882 -29.07215,-1.32951 -8.35282,-0.44131 -19.48268,-1.02692 -24.73303,-1.30135 -5.25034,-0.27443 -18.13755,-1.06433 -28.63823,-1.75533 -10.50069,-0.69101 -24.94998,-1.63929 -32.10954,-2.1073 -7.15956,-0.46801 -21.70991,-1.48233 -32.33412,-2.25405 -15.20255,-1.10429 -20.83098,-1.19934 -26.42637,-0.44632 -10.56701,1.4221 -61.37261,2.96669 -78.78984,2.39537 -15.11015,-0.49564 -27.03966,-1.99103 -34.96056,-4.38238 -5.42238,-1.63703 -13.761208,-7.07599 -16.114748,-10.51077 -3.41121,-4.97834 -1.51451,-14.34603 3.74183,-18.48067 2.90926,-2.28842 10.628218,-5.22955 16.959598,-6.46205 2.62517,-0.51103 4.91168,-1.04083 5.08113,-1.17733 0.16945,-0.13651 -1.09974,-1.48429 -2.82043,-2.99507 -2.86226,-2.51311 -3.12853,-3.14289 -3.12853,-7.39983 0,-3.93332 0.403,-5.11192 2.60566,-7.62062 4.84835,-5.52196 13.68564,-8.05292 32.90262,-9.42316 11.01019,-0.78506 18.10733,-0.77627 31.24172,0.0387 17.66264,1.09595 34.69452,2.89511 42.16209,4.4538 10.65496,2.22396 15.70301,2.60975 45.56083,3.48183 49.56327,1.44765 119.61502,4.5674 137.11641,6.10648 15.15751,1.33296 31.24171,2.01455 31.24171,1.32391 0,-0.80161 -12.504,-16.4136 -15.03334,-18.77005 -1.00893,-0.93995 -3.94539,-2.90037 -6.5255,-4.35649 -6.73277,-3.79973 -8.81505,-6.1457 -8.81505,-9.93133 0,-7.25681 4.5993,-10.80253 14.01911,-10.80773 9.97524,-0.005 28.29433,-1.06599 29.31541,-1.69705 1.142,-0.7058 -3.29491,-12.24117 -12.53086,-32.57854 -6.80659,-14.98797 -13.8927,-34.15776 -20.99376,-56.79365 -2.1627,-6.89401 -5.21411,-15.876 -6.78091,-19.95999 -1.56679,-4.08398 -3.50902,-10.42839 -4.31605,-14.09869 -1.36409,-6.20374 -1.64566,-6.71244 -4.00185,-7.22995 -4.01856,-0.88262 -12.73597,-7.18315 -15.3968,-11.1281 -4.25574,-6.30954 -4.8879,-8.72544 -3.08276,-11.7813 2.48173,-4.20126 6.4812,-5.64669 16.58907,-5.9954 l 8.87536,-0.30619 5.37178,-6.05907 c 4.65324,-5.24862 13.5091,-13.07878 19.50047,-17.24193 1.00934,-0.70135 5.45634,-3.81357 9.8822,-6.91604 4.42586,-3.10248 8.6555,-6.03139 9.39918,-6.50869 0.74369,-0.47731 2.13053,-1.55124 3.08186,-2.38652 0.95134,-0.83529 2.0187,-1.5187 2.3719,-1.5187 0.35321,0 1.15825,-0.49383 1.78897,-1.09739 1.23366,-1.18055 9.82448,-6.89998 18.93719,-12.60764 6.3499,-3.97719 28.21675,-14.63012 37.62663,-18.33066 17.24428,-6.7815 35.7807,-11.167524 50.53947,-11.958464 l 9.98446,-0.53508 3.2022,-4.05931 c 3.77665,-4.78754 8.35676,-8.528298 11.36686,-9.283786 3.5768,-0.897719 8.90253,1.512516 10.90446,4.934976 1.50507,2.57304 1.74104,4.27303 1.54351,11.11991 -0.19093,6.618204 0.0903,8.813844 1.55244,12.119194 0.98208,2.22017 2.08866,4.2456 2.45905,4.50095 1.6123,1.11153 13.16095,18.32676 15.739,23.46165 1.55764,3.10248 3.51368,6.61717 4.34675,7.81043 1.45097,2.07831 8.13281,14.35054 18.42761,33.84519 2.64658,5.01169 5.87378,11.65056 7.17153,14.75303 1.29776,3.10248 3.44141,7.984 4.76368,10.84782 1.32226,2.86383 3.67446,8.13587 5.22713,11.71565 1.55265,3.57978 4.58786,10.02338 6.74491,14.31912 4.702,9.36398 10.2393,21.75155 15.49932,34.67376 2.12838,5.22876 4.41818,10.69606 5.08844,12.14956 1.74988,3.79469 4.39869,10.58699 9.15288,23.47054 3.37539,9.1471 4.46287,11.24651 5.74739,11.09563 0.87135,-0.10236 4.12267,-0.45346 7.22515,-0.78023 3.10247,-0.32677 7.59347,-1.51487 9.97999,-2.64022 4.43131,-2.08958 6.41386,-3.5307 26.60845,-19.34187 6.36673,-4.98477 13.72373,-10.73761 16.3489,-12.78409 2.62518,-2.04647 11.7691,-9.29314 20.31982,-16.10371 8.55074,-6.81058 17.14221,-13.61185 19.09216,-15.11393 6.50465,-5.01064 11.78951,-10.42613 11.80902,-12.10091 0.0319,-2.73759 3.34229,-5.99113 17.77112,-17.46581 8.40771,-6.68631 18.65516,-16.50974 18.65719,-17.8852 5.8e-4,-0.39432 -3.61107,-4.58407 -8.0259,-9.31058 -13.05146,-13.97286 -17.82366,-23.40933 -18.62819,-36.83506 -0.33786,-5.63831 -0.0819,-9.31273 0.92042,-13.21236 2.54452,-9.89984 9.23706,-21.12112 17.44175,-29.24432 6.54943,-6.48439 6.60238,-6.31223 -1.80551,-5.87093 l -7.44721,0.39088 0.62585,-2.0664 c 0.34422,-1.13652 2.14414,-4.497584 3.99981,-7.469034 1.85568,-2.97146 3.37396,-5.56622 3.37396,-5.76614 0,-0.19992 -4.82365,-0.15518 -10.71923,0.0994 -5.89558,0.25461 -12.14781,0.19493 -13.89384,-0.13262 -2.94925,-0.55329 -3.10238,-0.73126 -2.15728,-2.50723 1.97329,-3.708092 6.3133,-8.495321 10.9324,-12.05893 3.42904,-2.645488 4.35192,-3.783274 3.46934,-4.277195 -0.66136,-0.370111 -5.86176,-0.922407 -11.55648,-1.227326 -10.29267,-0.551113 -15.51385,-1.52605 -16.47158,-3.075696 -1.02956,-1.665859 3.21655,-5.860514 8.91012,-8.802161 3.23713,-1.672503 9.47531,-4.507326 13.86262,-6.299608 l 7.97692,-3.258695 2.30538,1.813411 c 1.26795,0.997375 5.21481,5.209369 8.77077,9.359986 6.21311,7.2521 17.752,19.901328 31.55626,34.592804 8.38208,8.920814 15.64617,16.785424 26.46063,28.648104 12.86406,14.11094 30.0978,31.66577 31.0866,31.66577 0.47602,0 6.17295,-2.89357 12.65986,-6.43015 15.6338,-8.52336 29.88141,-15.56854 35.22565,-17.41842 4.94704,-1.71239 5.32324,-1.86323 14.75303,-5.91561 7.96591,-3.42327 14.66961,-5.37098 15.89011,-4.61672 0.4621,0.28562 1.0929,1.59693 1.4017,2.91403 2.0801,8.8726 6.6717,22.36949 10.5624,31.04797 1.0735,2.39478 2.7598,6.40373 3.7471,8.90878 10.4336,26.46993 33.2673,59.83211 47.8048,69.84694 2.1478,1.47967 4.1921,3.1066 4.5428,3.61541 2.1177,3.07272 -0.8113,7.13647 -13.2211,18.34313 -3.5798,3.23272 -8.266,7.4935 -10.4139,9.46838 -4.7782,4.39345 -17.4072,14.14571 -22.1295,17.08879 -8.088,5.04053 -20.4404,11.06489 -26.9027,13.1205 -13.36241,4.25054 -21.31403,5.35418 -38.61821,5.36 -17.84527,0.006 -25.70887,-1.18905 -37.3407,-5.67475 -8.21202,-3.1669 -12.15212,-5.97766 -22.63464,-16.14696 -5.07363,-4.92202 -9.0439,-8.09054 -10.13775,-8.09054 -2.34642,0 -13.14876,4.05624 -24.04595,9.02915 -7.26211,3.31406 -9.54606,3.96259 -13.99619,3.97427 -4.7666,0.0125 -12.40837,2.103 -11.39434,3.11704 0.21886,0.21886 3.09235,0.009 6.38554,-0.46756 8.97823,-1.29777 21.57422,-1.11877 25.10569,0.35678 4.26688,1.78282 5.28857,4.50061 3.94644,10.49789 -0.80919,3.61584 -2.17107,6.12935 -5.46673,10.0895 -2.5796,3.0997 -5.55695,8.0851 -7.22188,12.09258 -1.55803,3.75021 -3.78688,8.48563 -4.953,10.52313 -14.79994,25.85936 -22.8326,38.55845 -33.66354,53.21975 -1.88925,2.55739 -3.435,5.01521 -3.435,5.46183 0,1.28783 2.36391,1.86509 7.66445,1.87164 5.97358,0.008 17.3073,2.63052 24.56618,5.68575 7.76165,3.26683 19.40898,11.47187 25.98985,18.30872 5.85866,6.08655 12.07336,14.17447 12.07336,15.71246 0,2.17695 3.38927,3.2928 12.49029,4.11217 l 9.63926,0.86782 v 10.41391 c 0,5.72765 -0.55993,16.36936 -1.24429,23.64824 l -1.24429,13.23434 h -4.07336 c -4.44532,0 -5.5771,0.83558 -6.47162,4.77789 -1.0931,4.8176 -4.00582,12.10405 -7.60069,19.0139 -4.37235,8.40427 -16.98643,21.66303 -26.38027,27.72852 -3.4247,2.21129 -6.44503,4.02052 -6.71183,4.02052 -0.26679,0 -2.93206,1.19093 -5.92281,2.64653 -7.04052,3.4266 -16.15261,5.85392 -25.63174,6.8279 -26.62562,2.73578 -55.50885,-9.35256 -72.40254,-30.30224 -9.71378,-12.04596 -16.31554,-30.64641 -16.31554,-45.96908 v -4.95393 l -13.66825,-1.02858 c -12.89379,-0.97031 -55.17416,-3.23781 -69.83932,-3.74551 -3.68776,-0.12766 -7.05184,0.14816 -7.47573,0.61295 -1.06686,1.16978 -13.78148,29.00402 -21.43524,46.92502 -13.51764,31.65105 -16.01177,35.82613 -23.59503,39.49713 -3.38261,1.63749 -5.84406,2.00554 -15.36576,2.29758 -10.89873,0.33427 -11.51368,0.25839 -15.87476,-1.95891 z m 26.35801,-4.07558 c 6.24626,-2.25815 11.01411,-6.93889 14.19096,-13.93166 1.5724,-3.4611 3.92598,-8.63604 5.23019,-11.49987 1.3042,-2.86382 3.63804,-8.13586 5.18632,-11.71564 1.54828,-3.57978 3.90073,-8.85182 5.22767,-11.71564 1.32694,-2.86383 3.8561,-8.72165 5.62036,-13.01739 1.76425,-4.29573 4.29811,-10.15355 5.63079,-13.01738 1.33269,-2.86382 2.68746,-6.08562 3.01059,-7.15956 0.64449,-2.14188 1.02458,-2.03688 -8.20768,-2.26736 l -4.77304,-0.11916 -1.84979,3.90522 c -1.01738,2.14786 -3.29611,8.00569 -5.06384,13.01738 -1.76773,5.01169 -5.37807,14.77473 -8.023,21.69563 -2.64491,6.92091 -6.0611,15.95032 -7.59152,20.06535 -5.36375,14.4222 -8.05892,16.82508 -17.82573,15.89255 -10.50335,-1.00287 -14.39488,-3.96947 -25.53928,-19.46921 -3.60345,-5.01169 -7.11951,-9.89321 -7.81347,-10.84782 -1.79776,-2.47297 -9.99675,-13.87013 -13.07591,-18.17643 -1.43191,-2.00257 -5.16829,-6.93305 -8.30306,-10.95664 -3.13476,-4.02358 -7.1878,-9.5795 -9.00675,-12.3465 -4.57167,-6.95449 -7.84172,-9.28822 -13.01476,-9.28822 h -4.12597 l 1.91166,3.25435 c 1.05142,1.78989 5.19663,7.9406 9.21158,13.66825 4.01496,5.72765 10.83927,15.68594 15.16514,22.12955 4.32588,6.4436 10.7764,15.81612 14.3345,20.82781 3.5581,5.01169 8.53363,12.23634 11.05673,16.05477 5.10059,7.71918 12.33134,14.74473 16.49226,16.02423 3.83831,1.18029 17.64806,0.54684 21.94505,-1.00661 z m -1.36349,-17.25548 c 1.37269,-1.46948 2.8482,-3.91023 3.27891,-5.42391 0.43072,-1.51367 3.78669,-10.36731 7.45773,-19.67473 13.93046,-35.31878 16.02192,-41.15729 15.08058,-42.09865 -0.23751,-0.23751 -10.35601,-0.82234 -22.48555,-1.29964 -23.07645,-0.90806 -47.02916,-2.06452 -64.46788,-3.11258 l -10.30461,-0.6193 1.61745,2.52032 c 3.65161,5.68992 5.40268,8.14132 11.61527,16.26067 3.57978,4.67848 7.48499,9.95805 8.67825,11.73235 1.19326,1.77431 7.40977,10.2418 13.81448,18.81663 6.4047,8.57484 12.5756,16.86022 13.71311,18.41196 3.20488,4.37196 8.90193,6.79449 16.60028,7.05885 2.20187,0.0756 3.51102,-0.5477 5.40198,-2.57197 z m 231.21167,-21.18602 c 7.45741,-0.81447 16.76787,-5.58631 21.92613,-11.2377 4.00534,-4.38823 9.57571,-13.9658 8.65696,-14.88456 -0.25262,-0.25261 -9.7119,-0.69271 -21.02062,-0.97797 -22.83904,-0.57614 -23.01376,-0.62367 -23.01376,-6.26097 v -3.28983 l -4.55608,-0.52605 c -2.50585,-0.28932 -9.40225,-0.79572 -15.32533,-1.12533 l -10.76924,-0.59929 0.55231,5.91449 c 1.59559,17.08687 12.98935,29.60242 30.0133,32.96833 3.14925,0.62265 6.31169,1.00958 7.02764,0.85983 0.71596,-0.14975 3.64487,-0.52817 6.50869,-0.84095 z m 79.26663,-41.01216 c 0.53215,-6.56293 1.20889,-15.11517 1.50389,-19.00498 l 0.53636,-7.07238 -8.10999,-0.48135 c -4.4605,-0.26474 -21.97349,-0.9047 -38.91778,-1.42213 -16.94429,-0.51743 -32.61811,-1.1516 -34.83071,-1.40927 l -4.02292,-0.46848 -0.9742,7.22734 c -1.22048,9.0543 -2.34743,25.43794 -1.99737,29.03789 l 0.26433,2.71839 25.77043,0.64234 c 14.17373,0.35328 31.04247,0.92413 37.48606,1.26856 6.4436,0.34443 14.10261,0.68708 17.02,0.76145 l 5.30436,0.13522 z m -40.37606,-1.04159 c -4.87008,-2.96951 -5.87312,-7.07555 -2.91396,-11.9287 4.48173,-7.35024 18.08787,-2.01286 16.00672,6.27908 -0.60865,2.42512 -6.60058,7.3443 -8.93922,7.33883 -0.76367,-0.002 -2.63276,-0.76192 -4.15354,-1.68921 z m 8.42346,-5.28292 c 1.01323,-1.89323 0.36762,-5.20024 -1.21929,-6.24567 -1.51076,-0.99527 -5.2838,-0.77409 -6.43512,0.37723 -1.12271,1.12272 -1.36339,4.0523 -0.51463,6.26415 0.82445,2.14847 6.96667,1.85094 8.16904,-0.39571 z m -38.29901,3.9383 c -2.79405,-1.51854 -4.53508,-5.47292 -3.76336,-8.54771 0.79865,-3.18209 5.14643,-6.63955 8.34928,-6.63955 8.64463,0 12.55636,10.38654 5.54395,14.72045 -3.31653,2.04973 -6.91245,2.21544 -10.12987,0.46681 z m 8.7754,-3.90553 c 2.16985,-2.16984 2.16387,-2.69283 -0.063,-5.52383 -1.93513,-2.46012 -5.73435,-3.08473 -7.57388,-1.2452 -0.57276,0.57276 -1.04139,2.252 -1.04139,3.73165 0,1.47964 0.46863,3.15888 1.04139,3.73164 1.60672,1.60672 5.7088,1.23381 7.63687,-0.69426 z m -29.66896,-3.25434 c 1.32356,-10.69145 1.31096,-14.06892 -0.0541,-14.49619 -1.2361,-0.38692 -55.2687,-2.54672 -142.54033,-5.69764 -13.36451,-0.48252 -31.71902,-1.24177 -40.7878,-1.68721 -9.06877,-0.44545 -32.50006,-1.60286 -52.06952,-2.57205 -19.56946,-0.96918 -44.95335,-2.15929 -56.40865,-2.64469 -43.48558,-1.84261 -70.71412,-3.15859 -99.36601,-4.80243 -50.95921,-2.92367 -97.4492,-4.46859 -160.76459,-5.34242 -37.48627,-0.51736 -40.69509,-0.44743 -42.20587,0.9198 -1.97627,1.78851 -3.824,7.95875 -3.4268,11.44334 0.28588,2.50796 0.35731,2.53862 7.23134,3.10316 3.81843,0.3136 18.65824,1.19178 32.97736,1.95151 33.15867,1.75931 52.94876,2.8115 83.31124,4.42949 13.36451,0.71218 28.79011,1.51367 34.2791,1.78109 5.489,0.26742 12.71364,0.8484 16.05477,1.29107 3.34113,0.44268 10.17525,0.99995 15.18695,1.23838 5.01169,0.23844 17.55789,0.83513 27.88046,1.32599 10.32256,0.49087 25.5529,1.27793 33.84519,1.74905 8.29229,0.47112 23.86362,1.24498 34.60296,1.71969 10.73934,0.47471 24.99338,1.2417 31.67563,1.70443 6.68226,0.46273 20.93629,1.25367 31.67563,1.75766 10.73934,0.50398 25.18863,1.30468 32.10954,1.77932 18.72041,1.28387 73.02409,3.89963 152.73727,7.35721 40.30458,1.74823 41.26188,1.78405 52.98303,1.98276 l 10.0257,0.16998 z m -643.12033,-19.00382 10.4618,-0.56252 0.34154,-6.16312 c 0.39338,-7.09836 1.95808,-10.8174 6.80401,-16.17211 2.39354,-2.64481 3.11414,-3.98223 2.36043,-4.38081 -1.90993,-1.01004 -9.49384,-2.52276 -19.30926,-3.85152 -5.25034,-0.71076 -13.25603,-1.87362 -17.79042,-2.58413 -14.86203,-2.32878 -43.25925,-1.36231 -54.46612,1.8537 -10.0536,2.88506 -14.605828,10.49787 -10.920888,18.26329 1.770948,3.73201 5.685498,6.24845 14.345568,9.22197 11.21735,3.85157 41.62212,5.8029 68.17334,4.37525 z m 644.6409,-2.47486 1.2691,-3.03739 h 6.67061 c 5.33778,0 6.45337,-0.21675 5.58339,-1.08478 -1.58302,-1.57947 -16.08415,-1.23441 -20.71652,0.49296 -4.49164,1.67488 -9.98352,5.31109 -9.20194,6.09266 0.31567,0.31566 3.84821,0.57394 7.85009,0.57394 h 7.27616 z m -621.00484,-3.90522 c 2.05621,-7.78268 3.68292,-11.31918 6.88301,-14.96388 3.00753,-3.42541 2.89825,-3.68362 -1.94345,-4.59193 -2.98289,-0.55959 -3.61377,-0.33064 -6.35899,2.30774 -6.13519,5.89638 -7.74624,10.08872 -7.3977,19.25058 l 0.15871,4.17207 3.58404,-0.26685 3.58404,-0.26686 z m 16.83395,2.495 c 0.29832,-1.49157 0.54239,-3.655 0.54239,-4.80761 0,-2.91364 2.9775,-8.45471 5.68941,-10.5879 1.24658,-0.98056 2.04918,-2.1345 1.78355,-2.5643 -0.80427,-1.30135 -8.31288,-1.96376 -10.3635,-0.91427 -6.31883,3.23391 -10.99466,11.18931 -10.99466,18.70616 v 2.87988 h 6.40021 6.40021 z m 550.88156,-1.84413 c 13.22706,-8.50656 25.66321,-18.52545 38.73448,-31.20548 6.28174,-6.09373 22.37071,-26.78394 29.88951,-38.43751 4.30441,-6.67153 17.38159,-32.24951 19.37116,-37.88853 1.9919,-5.64564 1.81724,-5.98079 -2.78782,-5.3496 -5.58215,0.76512 -4.54828,-0.35962 5.39273,-5.86676 4.57097,-2.53222 9.45616,-5.90848 10.85598,-7.5028 3.28832,-3.74517 3.45032,-8.08685 0.41502,-11.12214 -3.25268,-3.25268 -10.28875,-2.85858 -29.97941,1.67923 -3.10248,0.71498 -10.69437,2.11368 -16.87088,3.10823 -6.17649,0.99454 -13.20588,2.37281 -15.62085,3.06281 -5.36578,1.53311 -35.28497,7.51132 -49.51777,9.89424 -27.16607,4.54827 -32.12816,5.29231 -35.29491,5.29231 -1.87097,0 -7.19169,0.56988 -11.82384,1.26638 -8.7194,1.3111 -17.93495,2.25368 -43.1351,4.41193 -15.6251,1.3382 -25.96736,2.38479 -37.3165,3.77626 -3.81843,0.46816 -12.4099,1.47507 -19.09215,2.23757 -6.68226,0.76251 -16.05477,2.11944 -20.82781,3.01541 -4.77304,0.89597 -12.97399,2.06785 -18.22434,2.60417 -11.76424,1.20171 -19.23384,2.03748 -42.52344,4.7579 -10.02338,1.17082 -19.98168,2.33 -22.12955,2.57596 -2.14787,0.24595 -6.83412,0.84785 -10.4139,1.33753 -3.57978,0.48969 -11.39021,1.27127 -17.35651,1.73684 -5.9663,0.46558 -15.14355,1.27075 -20.3939,1.78927 -5.25034,0.5185 -17.9969,1.4618 -28.32569,2.09619 -16.77587,1.03038 -19.16018,1.36735 -22.3465,3.15816 -4.09102,2.29928 -4.24008,2.74756 -1.74374,5.2439 2.81904,2.81905 8.38966,4.92601 16.88393,6.38596 11.18649,1.92267 12.53463,2.25617 12.53463,3.10078 0,1.19486 -5.31723,2.33466 -8.89521,1.90678 -2.05216,-0.24541 -3.25434,-0.0307 -3.25434,0.5811 0,1.67629 4.85394,7.76742 13.80717,17.32635 4.75469,5.07637 10.52494,11.24356 12.82277,13.70486 2.29782,2.46131 8.79597,8.61202 14.44033,13.66825 8.42114,7.54368 10.75678,9.19735 13.01739,9.21649 1.51519,0.0129 12.90846,0.59022 25.31836,1.28306 38.79757,2.16609 113.00867,5.55534 172.69725,7.88716 19.09217,0.74586 39.20402,1.65865 44.69302,2.02843 5.48899,0.36977 17.01922,0.72974 25.62273,0.79994 l 15.64275,0.12763 z M 470.61772,420.45784 c 0,-3.39561 -24.84309,-5.7566 -87.21645,-8.28874 -20.75892,-0.84274 -50.6987,-2.65454 -79.126,-4.78828 -36.05458,-2.70626 -40.06367,-3.01046 -58.36258,-4.42842 -15.21813,-1.17925 -20.26309,-1.2605 -27.77041,-0.4473 -5.04565,0.54655 -11.90756,0.99915 -15.24869,1.00577 -3.34113,0.007 -6.66056,0.39059 -7.37652,0.85328 -1.03242,0.6672 -0.85477,0.844 0.85864,0.85454 3.19257,0.0196 22.72122,4.22868 30.69987,6.6168 6.45967,1.93347 8.32473,2.07458 27.3896,2.07235 35.77382,-0.004 128.7359,2.73517 152.80129,4.50268 26.17908,1.92275 63.35125,3.12404 63.35125,2.04732 z m -11.27799,-8.93413 c 0.002,-0.35798 -4.10744,-4.60429 -9.13222,-9.43626 -10.62273,-10.2151 -7.18955,-9.21549 -36.86627,-10.73395 -19.41527,-0.99341 -32.33047,-1.69634 -102.8373,-5.59709 -12.88721,-0.71298 -35.4538,-1.75437 -50.14799,-2.31419 l -26.7167,-1.01788 -2.03133,1.90834 c -1.36153,1.27909 -2.18247,3.24916 -2.48966,5.97462 -0.73596,6.52936 -0.26197,6.86913 10.42626,7.47405 5.13909,0.29085 16.76372,1.11071 25.8325,1.82192 35.21227,2.76148 77.2803,5.56821 97.19644,6.48482 22.5408,1.03742 72.01116,4.21207 81.14167,5.2071 8.056,0.87792 15.62023,0.98855 15.6246,0.22852 z m -263.50987,-10.3149 4.02634,-0.55188 v -5.78691 c 0,-5.90347 0.58808,-7.28458 6.56539,-15.41891 1.33893,-1.8221 1.30835,-1.93786 -0.62625,-2.37015 -6.99905,-1.56395 -30.14556,-3.34364 -42.82172,-3.29249 -18.18246,0.0734 -30.95813,1.8341 -36.9428,5.09137 -5.99809,3.26457 -7.31629,4.99782 -7.31629,9.6199 0,3.47301 0.38245,4.24394 3.39893,6.85149 3.28456,2.83927 3.6496,2.93918 10.84782,2.96877 8.07497,0.0332 26.61035,1.32296 35.6532,2.48089 7.11036,0.91047 21.92844,1.13257 27.21538,0.40792 z m 14.53449,-6.69916 c 0.82294,-3.27211 2.8677,-8.15363 4.5439,-10.84782 l 3.04763,-4.89853 -3.47311,-0.26999 c -4.09687,-0.31847 -4.90614,0.25588 -8.95486,6.35554 -2.33863,3.52329 -3.06541,5.51616 -3.05639,8.38064 0.0202,6.42243 0.70474,7.7939 3.73965,7.49293 2.5087,-0.24878 2.74038,-0.59534 4.15318,-6.21277 z m 11.40444,4.95836 3.25434,-0.5379 v -4.97638 c 0,-4.87316 0.90851,-6.90713 4.9715,-11.13025 1.80166,-1.87266 1.29422,-2.57362 -2.30305,-3.18138 -3.94244,-0.66607 -5.47899,0.0102 -9.48448,4.17453 -2.14316,2.22814 -3.19654,4.39544 -3.99425,8.21811 -1.6117,7.72329 -0.54534,8.77233 7.55594,7.43327 z m 260.99848,-60.19013 c 8.35282,-0.58566 15.32276,-1.18901 15.48876,-1.34079 0.166,-0.15176 -0.51279,-3.91516 -1.50841,-8.3631 -2.83728,-12.67553 -3.80582,-20.32769 -3.90681,-30.86651 -0.0515,-5.36908 -0.42454,-9.76245 -0.8291,-9.76304 -1.12409,-0.002 -20.65092,6.9805 -23.24377,8.31119 -1.25602,0.64462 -6.13754,2.57514 -10.84782,4.29004 -11.03301,4.01686 -16.80846,6.59997 -16.80846,7.51769 0,0.67765 4.24955,10.34365 11.31788,25.74357 l 2.92717,6.3775 6.11181,-0.42085 c 3.3615,-0.23147 12.94593,-0.90003 21.29875,-1.4857 z m 42.08954,-4.05655 c 5.72764,-0.71661 12.32539,-1.51913 14.66165,-1.78337 l 4.24777,-0.48046 -0.66654,-9.64055 c -1.17981,-17.0648 -0.72902,-18.75457 5.00197,-18.74948 4.02999,0.003 8.63731,2.34652 10.14157,5.15727 0.52456,0.98015 1.41481,1.78209 1.97834,1.78209 0.56354,0 -0.95158,-2.05024 -3.36694,-4.55609 -5.30254,-5.50119 -7.5742,-10.14697 -7.58814,-15.51848 -0.0132,-5.08453 1.64781,-7.62194 7.55696,-11.54421 6.66531,-4.42417 9.10093,-5.12167 13.18105,-3.77469 5.1206,1.69048 7.99498,6.40691 9.27353,15.21653 0.5715,3.93775 1.25246,7.16048 1.51325,7.1616 0.2608,8.6e-4 0.34954,-3.03606 0.19721,-6.74928 -0.23948,-5.83743 -0.0253,-7.07117 1.58168,-9.11421 3.51018,-4.46247 6.12477,-3.29452 17.40723,7.77582 l 7.43021,7.29052 2.14796,-1.68958 c 1.18137,-0.92927 3.7443,-2.52164 5.69538,-3.5386 4.235,-2.20741 6.91173,-1.4364 9.35137,2.69358 l 1.53419,2.59717 1.91951,-1.80329 c 1.05574,-0.99181 2.58204,-1.8033 3.39179,-1.8033 2.03314,0 14.89563,12.45664 16.25752,15.74456 1.16532,2.81332 1.18878,2.73506 -2.53717,8.46568 l -1.35283,2.0807 7.34329,-0.60798 c 10.34868,-0.8568 10.34704,-0.85602 9.79108,-4.67734 -0.81905,-5.62963 -5.49804,-20.9888 -8.21199,-26.95656 -9.12987,-20.07589 -15.54169,-30.06237 -25.75256,-40.10991 -21.06215,-20.72529 -43.26732,-31.17034 -66.27381,-31.17443 -31.48084,-0.005 -57.08679,23.20502 -64.00761,58.01994 -3.58647,18.04166 -1.68826,42.62153 4.7552,61.57505 0.4303,1.26575 4.98654,1.0148 23.39788,-1.2887 z m 33.99892,-4.07784 c 0.0845,-0.0708 0.24861,-4.02991 0.36455,-8.79795 0.2487,-10.22781 -0.41688,-11.78163 -6.34726,-14.81782 -4.84814,-2.48212 -5.67899,-2.55262 -7.77094,-0.65943 -1.84075,1.66586 -2.0801,6.64789 -0.70507,14.6761 0.48508,2.83216 1.09554,6.45574 1.35656,8.05239 l 0.47459,2.90301 6.23691,-0.61376 c 3.43031,-0.33756 6.30611,-0.6717 6.39066,-0.74254 z m 21.97581,-2.35649 c 19.51917,-1.97388 18.62288,-1.74386 18.92543,-4.85704 0.51202,-5.26891 -5.55814,-14.16177 -11.51301,-16.86669 -11.5092,-5.2279 -23.79687,2.49098 -24.62317,15.46781 -0.47143,7.40366 -0.0666,8.18982 3.95446,7.6803 1.80197,-0.22833 7.7673,-0.8693 13.25629,-1.42438 z m 30.06927,-7.25716 c 1.59945,-1.64691 2.9081,-3.849 2.9081,-4.89353 0,-1.61374 -0.58689,-1.26893 -3.90522,2.29439 -2.14786,2.30646 -3.90521,4.50855 -3.90521,4.89353 0,1.54555 2.1505,0.53908 4.90233,-2.29439 z m 4.54146,2.20813 c 0.93504,-0.59221 0.77022,-0.89589 -0.74764,-1.37765 -1.29814,-0.41201 -2.41067,-0.15439 -3.33801,0.77296 -1.27603,1.27602 -1.21427,1.38983 0.74763,1.37764 1.17621,-0.007 2.67832,-0.35514 3.33802,-0.77295 z m 18.14407,-1.7448 c 2.04746,-0.39588 3.90756,-0.9047 4.13356,-1.13069 0.84329,-0.84329 -2.25467,-6.65712 -4.4801,-8.40765 -1.63826,-1.28865 -3.5591,-1.81583 -6.61628,-1.81583 -3.70332,0 -4.66237,0.37956 -6.83445,2.70477 -3.00764,3.21968 -3.9752,6.37623 -2.49951,8.15432 1.20764,1.45512 9.95697,1.72092 16.29678,0.49508 z M 612.94108,309.4219 c 0,-1.54942 -0.86622,-3.92271 -1.95261,-5.34981 -3.89295,-5.11388 -20.86657,-21.23461 -22.89376,-21.74341 -4.39914,-1.10412 -6.77111,3.52798 -5.91244,11.54611 l 0.58124,5.42759 4.6901,2.64693 c 6.14644,3.46884 10.64568,7.60765 14.75278,13.57099 l 3.3418,4.85215 3.69644,-4.08286 c 2.73389,-3.01968 3.69645,-4.80802 3.69645,-6.86769 z m 70.88682,7.3541 c 6.76973,-0.41581 12.70891,-1.00343 13.19816,-1.3058 1.72972,-1.06903 -13.31065,-39.91428 -15.17698,-39.19811 -0.56413,0.21648 -5.07172,3.4505 -10.01686,7.18672 -4.94515,3.73621 -9.88001,7.37736 -10.96637,8.09144 l -1.97518,1.29833 2.64684,10.84782 c 1.45577,5.9663 2.84815,11.75822 3.09419,12.87092 0.39861,1.80266 0.79824,1.96544 3.66748,1.49391 1.77106,-0.29106 8.75898,-0.86942 15.52872,-1.28523 z m -38.84027,-1.48099 c 0.98926,-1.25763 1.79864,-2.86456 1.79864,-3.57096 0,-1.63111 -12.7153,-14.75742 -14.99678,-15.48153 -2.23584,-0.70962 -3.19765,0.91219 -3.21426,5.41986 -0.0122,3.32964 0.31334,3.84152 4.23644,6.65999 2.33736,1.67922 5.3639,4.44949 6.72565,6.15615 1.36175,1.70667 2.74046,3.10304 3.06379,3.10306 0.32334,2e-5 1.39727,-1.02895 2.38652,-2.28657 z m -20.61661,-9.86296 c 1.27214,0 1.45074,-0.49667 1.01418,-2.82043 -1.59742,-8.5029 -4.63196,-11.08377 -9.8987,-8.4188 -5.35971,2.71201 -5.73063,3.73461 -3.10471,8.55928 1.26221,2.31912 2.29494,5.0338 2.29494,6.03262 0,1.73378 0.18463,1.69897 4.07512,-0.7683 2.24132,-1.42141 4.76994,-2.58437 5.61917,-2.58437 z m -53.2279,-4.69943 c 1.4628,-0.75644 3.65533,-1.37535 4.87229,-1.37535 2.06574,0 2.21266,-0.27785 2.21266,-4.18453 0,-8.42701 -5.65647,-18.37893 -10.44621,-18.37893 -2.56993,0 -10.86882,4.61995 -14.50377,8.07418 -2.3397,2.22337 -2.82044,3.32417 -2.82044,6.45828 0,4.78081 1.75165,8.26139 6.7557,13.42378 l 3.96556,4.09105 3.65229,-3.36657 c 2.00877,-1.85161 4.84913,-3.98547 6.31192,-4.74191 z m 200.61002,4.30024 c 7.87551,-1.18571 16.27172,-2.75076 18.65824,-3.47789 2.38652,-0.72712 7.73581,-1.91807 11.88729,-2.64654 4.79673,-0.84168 10.17447,-2.56529 14.75303,-4.72846 3.96269,-1.87218 12.55299,-5.35827 19.08959,-7.74687 22.56578,-8.24595 21.81762,-7.6646 19.31529,-15.00856 l -1.34346,-3.9428 -6.68393,1.92917 c -6.32623,1.82592 -16.35888,5.62824 -24.04044,9.11121 -3.40932,1.54584 -14.51794,6.11319 -41.22171,16.94842 -23.10683,9.37575 -26.90259,11.03858 -26.90259,11.78532 0,0.39886 0.48816,0.54691 1.08479,0.32901 0.59663,-0.2179 7.52838,-1.36631 15.4039,-2.55201 z m -28.63824,-0.46742 c 1.19326,-0.37722 8.43751,-3.19792 16.09833,-6.26823 14.09025,-5.64709 19.49515,-8.75988 32.06598,-18.46747 3.81843,-2.94871 11.24822,-8.64567 16.51064,-12.65991 15.57801,-11.8831 19.40453,-15.05276 19.45568,-16.1159 0.0387,-0.80516 -2.34599,-4.20792 -7.42623,-10.59645 -0.23398,-0.29423 -7.13739,4.79401 -8.14619,6.00423 -0.23866,0.2863 -3.71081,3.03003 -7.7159,6.0972 -4.00509,3.06716 -9.52511,7.334 -12.26671,9.48187 -2.74159,2.14787 -8.05617,6.29077 -11.81018,9.20645 -7.71018,5.98842 -13.9434,10.98707 -30.4465,24.41618 -10.73673,8.73682 -13.61356,11.67052 -10.00718,10.20502 0.83528,-0.33943 2.495,-0.92577 3.68826,-1.30299 z m -290.53945,-3.81789 c 10.58576,-3.50304 29.62438,-10.58686 37.23431,-13.85402 3.08967,-1.32649 3.15954,-1.46873 4.60642,-9.37725 4.8217,-26.35491 19.3202,-47.51266 39.11888,-57.08638 11.23055,-5.43057 16.37541,-6.50669 30.8078,-6.44386 12.1183,0.0528 12.93335,0.17234 22.04815,3.23519 5.20559,1.74922 11.64487,4.36125 14.30952,5.80448 2.70432,1.46473 4.97686,2.22791 5.1437,1.7274 0.16439,-0.49316 0.64479,-0.89665 1.06756,-0.89665 1.16899,0 13.25409,-8.05337 19.3127,-12.86977 8.19008,-6.51084 18.82613,-17.06688 18.82613,-18.6845 0,-1.24637 -9.76566,-20.84633 -16.27521,-32.66481 -2.77799,-5.04362 -7.66485,-12.52355 -11.05601,-16.9226 -1.4718,-1.90922 -3.3843,-5.03339 -4.25001,-6.9426 -3.46525,-7.64214 -8.487,-15.10909 -14.69651,-21.85252 -9.1031,-9.88583 -10.4563,-12.73474 -4.25211,-8.95204 1.56277,0.95282 3.07559,1.7324 3.36181,1.7324 0.28621,0 0.34858,-2.05023 0.1386,-4.55608 -0.3406,-4.064504 -3.78983,-12.696984 -5.96051,-14.917504 -0.49136,-0.50265 -3.42561,1.91035 -7.65099,6.29184 l -6.85394,7.107194 -11.59644,1.22478 c -18.3613,1.93927 -35.43527,6.20908 -49.07336,12.27214 -2.77558,1.23393 -8.49704,3.58117 -12.71434,5.21608 -12.04072,4.6678 -25.21628,12.02059 -43.7938,24.43966 -12.09855,8.08789 -12.42631,8.34914 -34.04331,27.13556 -3.5665,3.0995 -10.55602,9.6362 -15.53225,14.526 -8.4495,8.30272 -11.63605,10.64579 -12.84034,9.44149 -0.27253,-0.27252 0.54883,-2.07361 1.82525,-4.0024 2.68926,-4.06374 1.90839,-4.9308 -3.6187,-4.01811 -7.69894,1.27133 -9.72979,2.23853 -9.72979,4.63384 0,2.99383 3.67155,9.16146 6.59346,11.07596 1.69901,1.11324 3.45718,1.41496 6.52657,1.12003 6.02169,-0.57861 6.75021,0.52998 9.83058,14.95901 1.28181,6.00423 19.17674,61.32274 21.75673,67.25647 0.6226,1.43191 2.37866,5.92291 3.90238,9.97999 1.52371,4.05708 2.94855,7.66941 3.1663,8.02739 0.69724,1.14618 2.59381,0.72809 14.36077,-3.16581 z m -11.25487,-67.56197 c -2.08507,-2.22565 -4.66563,-6.89734 -4.11444,-7.44853 0.20252,-0.20252 2.39395,0.93168 4.86984,2.52046 7.36639,4.727 13.78871,3.24334 13.78871,-3.18542 0,-4.98075 -2.78935,-7.06865 -12.05959,-9.02689 -9.60088,-2.02809 -13.42043,-4.45492 -14.92728,-9.48435 -1.56143,-5.21158 -0.42134,-9.03895 3.7582,-12.61648 4.02636,-3.44641 9.83151,-5.46377 11.92893,-4.14546 1.75512,1.10315 4.59171,6.01734 4.18231,7.24553 -0.18968,0.56903 -1.53313,-0.0418 -3.22705,-1.46706 -3.17885,-2.67483 -7.61141,-3.25036 -9.96832,-1.2943 -1.75362,1.45538 -1.80878,6.88343 -0.0948,9.33045 1.28338,1.83228 5.482,3.12777 13.49328,4.16336 5.48717,0.7093 8.96017,3.09792 11.18416,7.69207 1.68639,3.48362 1.78851,4.3586 0.89613,7.67827 -1.32412,4.92573 -6.13456,9.48693 -11.50214,10.90618 -5.51018,1.45695 -6.08712,1.39596 -8.20792,-0.86783 z m 26.69366,-9.05623 c 0,-0.32722 0.75347,-1.40115 1.67437,-2.38652 1.62997,-1.74408 1.63316,-1.90665 0.12015,-6.13071 -0.85482,-2.38652 -3.75615,-8.95056 -6.44741,-14.58673 -2.69125,-5.63619 -4.89319,-10.58745 -4.89319,-11.00279 0,-1.63086 -2.86533,-3.48611 -5.48589,-3.552 -2.31941,-0.0583 -1.30816,-0.76415 6.35372,-4.43469 5.01169,-2.40093 10.93442,-5.08477 13.16161,-5.96408 l 4.04944,-1.59876 1.18944,1.91127 c 3.59706,5.78001 3.49593,8.62076 -0.17616,4.94867 -2.16914,-2.16915 -7.04848,-2.28386 -10.49696,-0.2468 -1.38623,0.81886 -2.52042,1.75428 -2.52042,2.07869 0,0.88381 5.28752,13.25515 5.98469,14.00252 0.33219,0.35611 2.34333,-0.22967 4.4692,-1.30174 3.22901,-1.62836 3.94222,-2.44915 4.33299,-4.98659 l 0.46776,-3.03739 2.24028,4.33913 c 1.23215,2.38652 2.51477,5.22514 2.85025,6.30805 0.6083,1.96358 0.60178,1.96503 -2.39951,0.53381 -3.14788,-1.50112 -5.94765,-1.24982 -8.72741,0.78336 -1.56504,1.1447 -1.48996,1.48983 1.89631,8.71594 3.8442,8.2033 4.52193,8.6286 10.06162,6.31397 3.78557,-1.58171 5.72641,-4.47247 5.72641,-8.52911 0,-5.06281 2.24897,-4.2606 3.42468,1.22159 0.75803,3.53455 0.72692,4.71168 -0.14504,5.48759 -1.07088,0.95291 -25.12873,11.70825 -26.18934,11.70825 -0.28688,0 -0.52159,-0.26772 -0.52159,-0.59493 z m 32.10954,-14.29508 c 0,-0.56545 0.66313,-1.76084 1.47362,-2.65642 1.72296,-1.90385 1.58863,-2.34668 -5.67525,-18.70917 -6.00748,-13.53235 -7.14743,-15.32712 -9.94297,-15.65461 -1.28924,-0.15103 -2.34408,-0.59444 -2.34408,-0.98535 0,-0.66795 19.02209,-9.55683 23.17347,-10.8288 1.60916,-0.49304 2.20252,-0.0158 3.7488,3.01517 1.01037,1.9805 1.63703,3.80092 1.39256,4.0454 -0.24447,0.24447 -1.6012,-0.37916 -3.01494,-1.38584 -3.09263,-2.20215 -3.78716,-2.23545 -8.56524,-0.41068 -2.60311,0.99414 -3.71727,1.92156 -3.71727,3.09427 0,1.83125 5.65202,14.57825 6.464,14.57825 0.714,0 4.11017,-1.94987 5.90251,-3.38885 0.83528,-0.67061 1.5187,-2.11201 1.5187,-3.20313 0,-3.84752 1.54516,-2.85706 4.3126,2.76443 1.53907,3.12629 2.59906,5.88341 2.35554,6.12694 -0.24353,0.24352 -1.44011,-0.21072 -2.65909,-1.00941 -2.61727,-1.71491 -8.77843,-1.07855 -9.57168,0.98862 -0.55889,1.45646 4.34056,13.70357 6.0495,15.12186 1.56646,1.30005 7.60012,-0.60446 9.99661,-3.1554 1.11789,-1.18995 2.04616,-3.57615 2.31336,-5.94668 0.52267,-4.63713 1.41139,-5.035 2.73911,-1.22628 1.21435,3.48348 1.23281,8.54876 0.0312,8.54876 -0.50685,0 -2.94761,0.94814 -5.42391,2.10699 -4.60305,2.15412 -12.69221,5.792 -17.73668,7.97659 -2.0646,0.89411 -2.82043,0.94593 -2.82043,0.19334 z m 31.24172,-13.65222 c 0,-0.38215 0.78104,-1.40166 1.73565,-2.26557 2.32078,-2.10028 2.23051,-2.82653 -1.30174,-10.47361 -1.67057,-3.61666 -3.03739,-6.75243 -3.03739,-6.96839 0,-0.21596 -1.82281,-4.11394 -4.05068,-8.66219 -3.8507,-7.86128 -6.22761,-10.63316 -8.11681,-9.46557 -0.46744,0.2889 -0.84989,0.0872 -0.84989,-0.44821 0,-0.5354 2.63602,-2.14571 5.85782,-3.57847 3.2218,-1.43275 7.04725,-3.14608 8.50099,-3.80739 12.27463,-5.58374 23.15415,-1.97053 28.16324,9.35335 4.02738,9.10459 2.7787,18.68617 -3.19073,24.48361 -4.49382,4.36435 -23.71046,13.9542 -23.71046,11.83244 z m 19.60575,-11.46578 c 2.2362,-2.47097 2.67255,-10.89091 0.85273,-16.45467 -1.94773,-5.95485 -5.58841,-11.61769 -9.16603,-14.25718 -3.80644,-2.8083 -10.42088,-3.04905 -12.99687,-0.47306 -1.59061,1.59062 -1.6171,1.91342 -0.39656,4.83457 4.32745,10.35707 12.83321,27.89412 13.94672,28.75518 1.6354,1.26462 5.53202,0.0571 7.76001,-2.40484 z m 20.94768,-10.48185 c -4.9945,-6.68942 -4.91146,-9.0819 0.17341,-4.9956 7.33001,5.89056 14.79782,4.59571 15.00245,-2.6013 0.13635,-4.79536 -4.34178,-8.09691 -12.33802,-9.09632 -7.28148,-0.91009 -11.71605,-3.40292 -13.83305,-7.77606 -2.2242,-4.5946 -2.22845,-5.82188 -0.0351,-10.12135 2.10946,-4.13488 7.27943,-7.75666 11.97054,-8.38587 3.2155,-0.43129 3.57761,-0.24847 5.70291,2.87919 2.15901,3.17726 2.89821,5.54028 1.7331,5.54028 -0.29497,0 -1.87065,-1.17156 -3.5015,-2.60348 -5.38749,-4.73027 -11.1097,-2.93531 -11.1097,3.48491 0,5.23637 2.79352,7.22872 12.0707,8.60894 8.6865,1.29234 12.88332,4.12328 14.38606,9.70405 2.21915,8.24127 -4.0743,15.91412 -14.47295,17.64513 -3.36244,0.55973 -3.73821,0.41053 -5.74892,-2.28252 z m 413.3412,119.46134 c 10.72988,-1.87084 28.37217,-6.98756 35.12497,-10.18713 6.6075,-3.13074 20.7453,-12.34731 25.6091,-16.69481 3.2039,-2.86383 9.0241,-7.93352 12.9339,-11.266 3.9097,-3.33247 9.0434,-8.08625 11.4081,-10.56395 l 4.2995,-4.5049 -5.3672,-5.05692 c -2.952,-2.78129 -5.9964,-5.65802 -6.7654,-6.39271 -8.1502,-7.78621 -23.7394,-31.67455 -33.566,-51.43531 -6.6541,-13.38119 -17.4709,-40.89914 -19.918,-50.67155 -0.1731,-0.69149 -2.8162,0.0637 -7.8984,2.25679 -4.20099,1.81284 -10.29,4.14575 -13.53116,5.18425 -10.03839,3.21647 -36.64713,17.24054 -53.8066,28.35868 -11.19927,7.25633 -33.17236,30.79613 -36.93063,39.56384 -3.59015,8.37547 -4.61179,20.44364 -2.60358,30.75481 0.55002,2.8241 1.07416,5.2358 1.16474,5.35933 0.17896,0.24403 6.217,-1.69507 17.81661,-5.72175 16.75012,-5.81461 22.52566,-6.35951 27.33221,-2.57868 2.89871,2.28013 5.03095,7.11483 4.25954,9.65822 -1.78595,5.88842 -11.02141,12.8661 -28.79273,21.7538 -5.36967,2.68545 -9.76304,5.10998 -9.76304,5.38784 0,0.27787 1.84255,2.71537 4.09455,5.41666 12.37381,14.84251 22.75156,20.28978 42.33411,22.22111 16.48287,1.62563 18.7511,1.56701 32.56541,-0.84162 z m -319.91148,-9.40859 c 8.72843,-5.77415 15.28281,-11.83236 15.28281,-14.12586 0,-0.956 -1.17156,-4.15673 -2.60347,-7.11274 -1.43192,-2.95602 -2.60348,-5.62095 -2.60348,-5.92209 0,-0.30113 -3.4713,-7.81245 -7.714,-16.69181 -13.72308,-28.72046 -15.47903,-32.54718 -17.47527,-38.08355 -1.08092,-2.99781 -2.23087,-5.61468 -2.55544,-5.81527 -0.32456,-0.2006 -2.51336,1.41652 -4.86399,3.59359 -8.20174,7.59617 -18.48435,15.72247 -26.30764,20.79081 -4.33458,2.80818 -7.88672,5.38203 -7.89364,5.71968 -0.007,0.33765 2.81871,2.86415 6.27916,5.61444 3.46045,2.7503 8.19815,6.76978 10.5282,8.93218 10.00383,9.28401 22.47281,27.04326 27.95151,39.8106 1.86607,4.34863 3.74025,7.9155 4.16482,7.9264 0.42458,0.0109 3.93928,-2.07547 7.81043,-4.63638 z m 141.1175,-4.93476 c 2.14787,-0.8755 8.5574,-3.38327 14.24341,-5.57282 5.68601,-2.18956 11.54383,-4.5321 13.01738,-5.20567 1.47355,-0.67357 5.14084,-2.20495 8.14954,-3.40307 3.0087,-1.19812 7.41217,-3.80418 9.7855,-5.79124 2.37408,-1.98769 8.18732,-5.29364 12.92333,-7.3494 20.89155,-9.06838 24.32425,-10.94309 24.32425,-13.28425 0,-2.32907 -5.21658,-7.79213 -11.74072,-12.29546 l -3.49639,-2.4134 -6.85075,5.61666 c -3.76793,3.08916 -12.21751,10.76675 -18.77685,17.06132 -11.88208,11.40241 -11.93997,11.44369 -15.68762,11.18612 -3.58337,-0.24629 -4.37809,0.2008 -16.77891,9.43934 -7.15956,5.33382 -14.35183,10.85976 -15.98282,12.27985 l -2.96544,2.58198 2.96544,-0.62908 c 1.63099,-0.34598 4.72278,-1.34538 6.87065,-2.22088 z m 62.66826,-2.61993 c 2.52351,-0.98833 7.71238,-3.16364 11.53081,-4.834 9.04632,-3.9573 9.63807,-4.19708 14.75302,-5.9777 5.28397,-1.83946 26.9939,-12.73706 32.97737,-16.55345 9.58116,-6.11108 13.94295,-14.21421 8.4613,-15.71905 -6.61032,-1.81467 -10.53204,-0.95293 -33.19432,7.29396 -16.06158,5.84487 -45.1256,18.99016 -46.34335,20.96051 -0.64267,1.03987 5.78426,16.62671 6.8557,16.62671 0.20419,0 2.43596,-0.80864 4.95947,-1.79698 z m -28.45648,-30.50096 c 2.90085,-2.49014 7.61741,-6.72852 10.48123,-9.41864 2.86382,-2.69011 6.9643,-6.4129 9.11217,-8.27289 2.14786,-1.85998 4.10047,-3.60283 4.33912,-3.87298 0.23866,-0.27016 2.30649,-1.76548 4.59519,-3.32294 l 4.16128,-2.83176 6.62131,4.79908 c 3.64173,2.6395 6.94356,4.59992 7.33741,4.35651 0.39386,-0.24341 0.7161,-1.78639 0.7161,-3.42883 0,-2.73811 -1.4863,-4.44653 -17.88654,-20.55963 -22.74739,-22.34913 -29.69165,-31.42167 -34.29766,-44.80928 -4.0645,-11.81368 -0.19819,-25.68556 10.54965,-37.85102 3.46137,-3.91792 10.53894,-14.46228 10.04134,-14.95988 -0.67744,-0.67745 -6.84401,4.49762 -11.73118,9.84496 -5.18521,5.67346 -10.55881,14.61391 -12.46308,20.73578 -0.74236,2.38652 -1.78298,7.49268 -2.3125,11.34703 -1.1006,8.01111 0.0482,14.96443 3.58113,21.67453 2.37326,4.5076 14.38317,19.39962 21.75766,26.97899 l 5.18353,5.32755 -4.2285,3.3507 c -4.6057,3.64963 -16.62627,13.81939 -27.35309,23.14155 -3.73752,3.2481 -6.79549,6.27051 -6.79549,6.71646 0,0.44596 1.85828,2.8652 4.12952,5.3761 2.27125,2.5109 5.03149,5.83447 6.13388,7.3857 1.10239,1.55124 2.24035,2.82044 2.5288,2.82044 0.28844,0 2.89787,-2.03739 5.79872,-4.52753 z m 49.10661,-40.16548 c 1.5364,-5.89524 2.8381,-8.34825 8.91238,-16.79499 4.10726,-5.71143 4.9566,-7.41119 4.0045,-8.01409 -0.66462,-0.42086 -1.69655,-0.77118 -2.29318,-0.77849 -1.80666,-0.0221 -1.27595,-1.10389 3.34082,-6.80966 2.43407,-3.00824 4.27585,-5.61926 4.09283,-5.80228 -0.18302,-0.18302 -2.76031,0.1675 -5.72733,0.77893 -6.26052,1.29014 -6.51548,0.92181 -3.6823,-5.31983 1.95472,-4.30633 2.00939,-4.29092 -6.86054,-1.93218 -3.54749,0.94337 -6.81163,1.71523 -7.25363,1.71523 -1.40117,0 0.2716,-4.59273 3.63492,-9.98 1.78792,-2.86382 3.56986,-5.74561 3.95989,-6.40397 0.59266,-1.00042 -0.65529,-1.09473 -7.59842,-0.57418 -7.92281,0.594 -11.8936,0.21542 -11.8936,-1.13397 0,-0.34024 1.75292,-3.34046 3.89538,-6.66716 l 3.89538,-6.04853 -9.13668,-0.43391 c -10.62991,-0.50483 -11.86845,-1.32324 -8.56228,-5.65784 1.15377,-1.51268 2.09777,-3.06002 2.09777,-3.43852 0,-0.37851 -3.2218,-0.45522 -7.15956,-0.17048 -6.96559,0.50368 -7.23548,0.60683 -9.96198,3.80749 -1.54133,1.80938 -4.07893,5.63292 -5.63911,8.49674 -2.67095,4.90273 -2.83679,5.71782 -2.83844,13.95063 -0.002,8.52797 0.088,8.92406 3.63613,16.05477 4.89147,9.83041 13.86967,20.07537 31.45346,35.89129 6.08293,5.47135 13.46273,10.83342 14.0298,10.19388 0.28762,-0.32437 1.03182,-2.54236 1.65379,-4.92888 z m 29.22764,-38.73706 c 4.86249,-4.70768 9.25586,-8.55943 9.76303,-8.55943 2.36135,0 -0.0997,-3.02123 -13.70955,-16.83003 -12.3965,-12.57774 -17.82217,-18.32827 -23.11872,-24.50298 -0.4773,-0.55644 -3.4062,-3.69413 -6.50868,-6.97264 -8.46855,-8.94905 -25.86995,-27.698009 -32.08689,-34.571684 -7.49068,-8.281972 -20.07625,-20.250965 -21.95258,-20.877108 -0.84482,-0.281921 -3.57847,0.14211 -6.07477,0.942294 -4.82501,1.546638 -17.12222,8.112276 -17.12222,9.141769 0,0.810775 7.63591,1.750043 20.14847,2.478396 5.59266,0.325548 10.3809,0.804337 10.64054,1.063977 0.25964,0.259639 -2.16831,2.820952 -5.39543,5.691807 -7.30745,6.500715 -10.70254,9.763629 -12.3762,11.894375 -1.27102,1.61816 -1.03555,1.64497 9.98,1.13639 8.07864,-0.37298 12.74364,-1.03057 16.4308,-2.31611 2.832,-0.987392 5.86329,-1.568572 6.73622,-1.291515 1.35816,0.431064 0.97524,1.152135 -2.65421,4.997985 -8.59639,9.10897 -10.46339,11.419514 -9.77973,12.103164 1.28951,1.28951 13.44516,0.86575 18.62037,-0.64912 2.7799,-0.813734 5.26776,-1.266094 5.5286,-1.005254 0.59699,0.59699 -6.34266,10.176284 -10.98586,15.164564 -1.92627,2.06942 -3.5023,4.07169 -3.5023,4.44948 0,1.12194 24.81937,-1.82213 29.10849,-3.45285 1.22594,-0.4661 2.13323,-0.48128 2.13323,-0.0357 0,2.3573 -1.66892,3.96189 -6.42072,6.17324 -5.16651,2.40434 -9.20014,5.24809 -9.20014,6.48618 0,0.58292 1.7877,0.47392 15.83781,-0.96564 5.95647,-0.61029 7.22958,0.0221 4.53929,2.25486 -2.34355,1.94498 -9.09537,11.40007 -9.09537,12.73695 0,1.48138 4.58255,1.11724 15.03114,-1.19441 3.25545,-0.72023 6.15618,-1.07232 6.44609,-0.78242 0.59684,0.59685 -1.89612,5.2597 -6.35292,11.88246 -1.66154,2.46904 -2.84812,4.66199 -2.63688,4.87323 0.21125,0.21125 4.74545,-0.4615 10.07602,-1.49498 5.33056,-1.03349 9.87886,-1.69214 10.10733,-1.46368 0.22846,0.22847 -1.39093,2.44921 -3.59864,4.93498 -2.20771,2.48577 -3.81072,4.7229 -3.56223,4.97139 0.24849,0.24849 3.55603,-0.65116 7.35009,-1.99923 5.81383,-2.06571 7.11564,-2.27064 8.28086,-1.30359 1.97856,1.64205 1.80903,1.96528 -2.43813,4.6484 -3.35591,2.12009 -10.93233,10.59931 -10.93233,12.23502 0,1.49948 4.60534,-2.11096 12.74612,-9.99256 z"
       id="path5677" />
    <path
       style="fill:#ff0000;stroke:#000000;stroke-width:1.34852"
       d="m 671.08976,430.89535 c -30.0382,-1.3707 -84.82192,-3.95842 -121.74161,-5.75049 l -67.12667,-3.2583 -5.69322,-4.69707 c -7.13387,-5.88566 -34.17515,-33.30888 -40.83833,-41.41514 l -4.98804,-6.06832 4.96433,-0.81025 c 6.48407,-1.05829 9.10804,-3.5233 4.68513,-4.40131 -18.83932,-3.73986 -28.17677,-7.10805 -28.17677,-10.16387 0,-2.72468 9.47859,-4.23998 42.47827,-6.7908 31.42394,-2.42902 137.18935,-14.00918 142.2685,-15.57685 3.49034,-1.07729 45.29105,-5.94302 75.51693,-8.7904 64.32505,-6.05964 74.41662,-7.5669 144.74864,-21.61932 25.83964,-5.1628 48.74757,-9.3869 50.9065,-9.3869 3.6829,0 9.31938,3.96801 9.31938,6.56072 0,2.78996 -6.03327,8.39184 -14.15492,13.1428 -4.82342,2.82158 -8.76986,5.57245 -8.76986,6.11304 0,0.54059 1.8961,1.17304 4.21354,1.40546 l 4.21353,0.42257 -10.2398,20.22774 c -17.89968,35.35913 -41.4893,63.29755 -71.81789,85.05771 l -12.00018,8.60989 -21.57627,-0.15936 c -11.86694,-0.0877 -46.15298,-1.28085 -76.19119,-2.65155 z"
       id="path5679" />
    <path
       style="fill:#ff2a2a;stroke:#000000;stroke-width:1.34852"
       d="m 785.03942,462.4989 c -4.45011,-0.23048 -35.70198,-1.65408 -69.44861,-3.16354 -33.74663,-1.50946 -93.82304,-4.51861 -133.50314,-6.68699 -39.6801,-2.16839 -90.95745,-4.87773 -113.94965,-6.02076 -22.99221,-1.14304 -54.85092,-2.99233 -70.79713,-4.10954 -15.9462,-1.11721 -58.42448,-3.54809 -94.39616,-5.40196 -35.97168,-1.85386 -67.37526,-3.69817 -69.78573,-4.09846 -3.69758,-0.61404 -4.38268,-1.30376 -4.38268,-4.4122 0,-2.02641 0.94466,-5.03308 2.09924,-6.68148 2.03187,-2.9009 2.84332,-2.99646 25.28469,-2.97749 39.59364,0.0335 117.34696,2.53497 187.70447,6.03893 135.65679,6.756 210.6502,10.1463 283.86274,12.83282 41.16347,1.5105 80.00075,3.18766 86.30506,3.72702 l 11.4624,0.98068 -0.37331,7.41684 c -0.72559,14.41584 0.41411,13.52077 -16.84597,13.23018 -8.32981,-0.14024 -18.78612,-0.44356 -23.23622,-0.67405 z"
       id="path5683" />
    <path
       style="fill:#ff9955;stroke:#000000;stroke-width:1.34852"
       d="m 426.334,409.40761 c -6.67516,-0.58151 -29.43137,-2.02343 -50.56937,-3.20427 -45.27171,-2.52904 -134.97604,-8.64744 -141.25711,-9.63463 -3.92993,-0.61766 -4.38268,-1.15302 -4.38268,-5.1824 0,-6.86797 2.58466,-8.1224 15.97997,-7.75565 41.75603,1.14326 189.66526,9.47777 193.25478,10.88969 1.73614,0.68289 6.47346,4.63323 10.52739,8.77853 l 7.37077,7.53691 -9.39355,-0.18545 c -5.16645,-0.102 -14.85504,-0.66123 -21.5302,-1.24273 z"
       id="path5685" />
    <path
       style="fill:#ffffff;stroke:#000000;stroke-width:1.34852"
       d="m 784.36516,461.14389 c -4.82095,-0.22872 -35.16257,-1.64191 -67.42583,-3.14042 -75.59382,-3.51104 -280.30795,-14.269 -319.59844,-16.79526 -16.68789,-1.07298 -59.16616,-3.49614 -94.39616,-5.3848 -35.22999,-1.88866 -66.02674,-3.75976 -68.43721,-4.15801 -5.00802,-0.82739 -5.68085,-3.54243 -2.13311,-8.60754 l 2.24958,-3.21172 49.48423,0.88754 c 58.91843,1.05676 83.15165,2.00429 230.55362,9.01474 61.93062,2.94543 150.52816,6.86547 196.88342,8.7112 46.35526,1.84574 90.50232,3.75025 98.10459,4.23226 l 13.82229,0.87637 v 7.63736 c 0,4.20055 -0.7282,8.36557 -1.61822,9.25559 -1.55822,1.55822 -14.18731,1.7882 -37.48876,0.68269 z"
       id="path5687" />
    <path
       style="fill:#ffffff;stroke:#000000;stroke-width:1.34852"
       d="m 437.02595,299.1839 c -4.31503,-10.24741 -21.15877,-60.86871 -25.5716,-76.85153 -2.51585,-9.11215 -4.93591,-17.15268 -5.3779,-17.86784 -0.44199,-0.71517 -3.1518,-1.3003 -6.02178,-1.3003 -5.58911,0 -8.28271,-1.9099 -11.51848,-8.16718 -1.81981,-3.51914 -1.78673,-3.97746 0.36857,-5.10676 1.3023,-0.68236 4.43112,-1.68409 6.95294,-2.22607 4.1188,-0.88519 4.48041,-0.72998 3.55543,1.5261 -4.27079,10.4167 -1.80976,9.51448 13.77721,-5.05077 36.2429,-33.8672 62.22528,-51.76047 95.42548,-65.7166 20.65868,-8.68414 36.65814,-13.19668 55.02778,-15.5202 l 14.59459,-1.84603 6.35374,-6.2582 c 3.49456,-3.442011 6.72213,-6.258201 7.17238,-6.258201 1.199,0 5.15704,10.390558 5.15704,13.538151 0,2.20175 -0.61746,2.54046 -3.37129,1.84929 -1.85421,-0.46538 -3.36331,-0.32523 -3.35356,0.31144 0.009,0.63667 3.63351,5.4054 8.0528,10.59719 4.41929,5.19179 9.68525,12.47378 11.70213,16.1822 2.01687,3.70842 7.07278,11.93695 11.23536,18.28563 4.16257,6.34867 11.15164,18.63704 15.53124,27.30748 l 7.96291,15.76443 -6.01196,6.18004 c -6.3897,6.56834 -25.59793,21.59698 -30.3994,23.78468 -2.21266,1.00815 -5.91847,0.16711 -16.15178,-3.66572 -13.21654,-4.95017 -13.36474,-4.9717 -30.87158,-4.48441 -16.58051,0.46151 -18.10581,0.73983 -26.54621,4.84391 -21.4608,10.43517 -34.07449,28.75609 -41.65022,60.49539 -1.17486,4.92222 -2.07178,5.88346 -7.7264,8.28038 -7.47278,3.16763 -32.15875,12.08756 -40.45515,14.61792 l -5.73906,1.75039 z m 15.55202,-65.6511 c 5.0502,-2.61157 9.49172,-8.35876 9.49172,-12.282 0,-8.3893 -5.24028,-13.04381 -16.6039,-14.74789 -7.39505,-1.10896 -10.36643,-3.45855 -10.36643,-8.19713 0,-4.51046 3.47472,-5.50189 8.94949,-2.55354 5.69833,3.06876 7.23512,1.75398 3.57797,-3.06108 -3.28502,-4.32512 -8.4705,-4.54017 -13.83416,-0.57373 -5.41026,4.0009 -7.25497,8.90621 -5.42944,14.43761 1.85098,5.60852 2.08512,5.76883 14.70063,10.06473 10.76814,3.66683 13.9113,6.54529 11.44438,10.48063 -2.16519,3.45401 -6.73244,3.61904 -12.12377,0.43808 -2.60822,-1.53889 -5.01096,-2.79798 -5.33941,-2.79798 -1.42316,0 -0.38615,3.2513 2.19169,6.87154 3.15826,4.43538 7.31987,5.03452 13.34123,1.92076 z m 31.01036,-14.37844 c 10.91454,-4.9999 12.19428,-5.9635 12.19428,-9.18188 0,-1.97765 -0.86691,-4.77367 -1.92647,-6.21338 -2.08403,-2.83175 -2.40292,-2.4404 -3.99689,4.90514 -0.65596,3.02286 -5.41683,6.63664 -8.74327,6.63664 -1.79483,0 -7.30017,-13.11081 -6.23146,-14.84003 0.66626,-1.07802 2.79309,-1.34743 6.2603,-0.793 l 5.25123,0.8397 -2.17176,-5.07711 c -1.19447,-2.79242 -2.48366,-5.83217 -2.86487,-6.75502 -0.94492,-2.28752 -3.10753,-0.74585 -3.10753,2.21529 0,1.87377 -4.82498,5.53094 -7.29709,5.53094 -0.23518,0 -1.47808,-2.75065 -2.762,-6.11255 -1.85478,-4.85669 -1.99703,-6.51904 -0.69234,-8.0911 1.86843,-2.25132 7.47647,-2.65612 8.72866,-0.63004 1.24459,2.01381 4.7198,1.62735 4.7198,-0.52486 0,-1.03036 -1.06195,-3.13771 -2.3599,-4.683 l -2.3599,-2.80962 -12.47378,5.55403 c -6.86058,3.05472 -12.47378,5.92842 -12.47378,6.38601 0,0.45758 1.29291,1.43099 2.87313,2.16313 1.851,0.85759 5.26168,6.58911 9.58716,16.11087 5.41325,11.91627 6.42418,15.24383 5.21797,17.17529 -3.4111,5.46204 -0.434,5.09461 14.62851,-1.80545 z m 30.00163,-13.39453 c 6.89384,-3.02253 13.08467,-6.0306 13.75736,-6.68459 1.58394,-1.53989 -0.70325,-9.6724 -2.92891,-10.41429 -1.03508,-0.34503 -1.66547,0.76342 -1.66547,2.92851 0,4.35868 -4.37435,8.87774 -8.59344,8.87774 -2.52366,0 -3.79246,-1.35285 -6.00752,-6.40546 -2.51913,-5.74621 -2.59185,-6.57004 -0.70663,-8.00467 1.43549,-1.09238 3.15355,-1.19923 5.42104,-0.33713 4.34335,1.65134 4.49248,1.62386 4.49248,-0.82765 0,-2.96834 -3.85462,-10.04691 -5.47102,-10.04691 -0.74591,0 -1.75468,1.06196 -2.2417,2.35991 -0.87339,2.32762 -4.29759,5.6048 -5.94351,5.6883 -0.74623,0.0379 -6.57152,-12.28149 -6.57152,-13.89747 0,-0.34622 1.85822,-1.27726 4.12938,-2.06899 3.03123,-1.05669 4.80802,-1.0157 6.68126,0.15416 1.40353,0.87652 2.98146,1.16408 3.50651,0.63903 1.29109,-1.29109 -1.73804,-7.70862 -3.63853,-7.70862 -0.83371,0 -6.61163,2.38796 -12.83981,5.30659 -10.54208,4.94018 -14.19112,8.17857 -9.21567,8.17857 3.34266,0 14.69442,24.93406 14.5811,32.02727 -0.0504,3.15216 0.0911,5.7312 0.31439,5.7312 0.22327,0 6.04637,-2.47298 12.94021,-5.4955 z m 32.8668,-14.7922 c 8.55684,-4.89572 13.98181,-10.94422 14.25068,-15.88858 0.63965,-11.76308 -1.54014,-17.94856 -8.34217,-23.67208 -5.65658,-4.7597 -14.57029,-4.77437 -25.94454,-0.0427 -9.20313,3.82848 -14.02207,7.2989 -10.13507,7.2989 2.73253,0 6.14868,5.46626 12.59053,20.14641 4.01217,9.14324 4.69664,11.85747 3.48101,13.804 -0.83224,1.33262 -1.51316,2.81045 -1.51316,3.28407 0,1.77406 8.69285,-0.97088 15.61272,-4.93003 z m 36.12207,-15.28458 c 9.70576,-4.05532 13.28433,-14.76156 7.26281,-21.72858 -2.17026,-2.51103 -5.65099,-4.10534 -12.22488,-5.59947 -7.26081,-1.65024 -9.497,-2.76108 -10.64927,-5.29003 -2.78828,-6.11962 3.34023,-9.49001 9.46079,-5.203 4.13821,2.89851 5.95221,1.98035 3.934,-1.9912 -3.5631,-7.01171 -10.4159,-7.07778 -17.32663,-0.16704 -7.94381,7.9438 -3.04755,20.03374 8.96285,22.13129 8.69885,1.51919 12.7614,3.63114 13.6282,7.08471 0.89236,3.55543 -1.41052,7.22862 -4.53193,7.22862 -1.10615,0 -4.36264,-1.32159 -7.23664,-2.93687 -2.874,-1.61528 -5.60488,-2.55745 -6.06862,-2.09371 -0.46374,0.46374 0.48921,2.999 2.11767,5.63391 3.24886,5.25675 5.73163,5.8311 12.67165,2.93137 z"
       id="path5689" />
    <path
       style="fill:#ffffff;stroke:#000000;stroke-width:1.34852"
       d="m 664.46613,312.87588 c -0.75713,-2.74211 -2.10566,-8.2434 -2.99672,-12.2251 -1.48579,-6.63921 -1.40571,-7.39299 0.96596,-9.09148 1.42234,-1.01863 6.22706,-4.61344 10.67717,-7.98847 9.6826,-7.34345 9.10857,-7.75173 16.70706,11.88303 8.25136,21.32179 8.46897,19.27943 -2.15557,20.23087 -5.03658,0.45103 -12.0068,1.12533 -15.48936,1.49843 l -6.33194,0.67837 z"
       id="path5691" />
    <path
       style="fill:#aad400;stroke:#000000;stroke-width:1.34852"
       d="m 501.19264,333.33807 c -2.62992,-6.91721 -5.41003,-26.69175 -5.38662,-38.31422 0.09,-44.68132 27.47562,-77.02594 65.21647,-77.02594 22.76859,0 44.36635,10.26165 65.24651,31.00028 13.97863,13.88389 25.45671,35.00512 32.19601,59.24502 2.73281,9.82938 2.05504,10.83928 -7.29695,10.8728 l -5.76229,0.0206 2.14163,-3.26854 c 1.93225,-2.94898 1.93971,-3.65902 0.0763,-7.26243 -2.28157,-4.41203 -13.77027,-15.09085 -16.23536,-15.09085 -0.85977,0 -2.29704,0.73383 -3.19393,1.63072 -1.27529,1.27529 -2.08556,0.98136 -3.71747,-1.34851 -2.59707,-3.70785 -6.66854,-3.78221 -12.49781,-0.22826 l -4.49569,2.74089 -8.70169,-8.14 C 587.20632,277.3414 580.9191,277.30119 580.59474,288.05335 l -0.14442,4.78723 -1.24101,-5.51653 c -2.52275,-11.21412 -10.10981,-15.0525 -19.69852,-9.96569 -10.46252,5.55035 -13.77796,13.39052 -9.11326,21.55055 2.78586,4.87335 2.53427,5.39407 -2.60616,5.39407 -5.95109,0 -6.66757,2.19768 -5.45645,16.73698 l 0.93231,11.19227 -11.94279,1.48482 c -29.79979,3.70494 -28.57323,3.72037 -30.1318,-0.37898 z"
       id="path5693" />
    <path
       style="fill:#d38d5f;stroke:#000000;stroke-width:1.34852"
       d="m 449.4213,326.33263 c -3.59261,-8.03705 -6.80518,-15.29994 -7.13906,-16.13976 -0.5236,-1.31704 23.15187,-11.39416 43.53944,-18.53194 l 5.54701,-1.94203 0.90154,13.02323 c 0.49585,7.16278 1.7924,17.27084 2.88122,22.46235 1.08882,5.19151 1.97967,10.11971 1.97967,10.95154 0,0.96151 -5.03499,1.83554 -13.82229,2.39943 -7.60226,0.48785 -16.86727,1.22517 -20.58891,1.6385 l -6.76662,0.7515 z"
       id="path5695" />
    <path
       style="fill:#b3ff80;stroke:#000000;stroke-width:1.34852"
       d="m 652.95779,278.64354 c -7.86252,-15.90917 -14.14081,-24.37583 -28.60926,-38.58136 l -13.92446,-13.67143 11.15517,-8.10477 c 6.13534,-4.45762 14.34728,-10.97475 18.24874,-14.4825 3.90147,-3.50775 7.32254,-6.14853 7.60239,-5.8684 0.27984,0.28014 1.7291,3.5435 3.22056,7.25193 1.49147,3.70842 8.52085,19.17491 15.62085,34.36998 7.09999,15.19506 12.90908,28.64551 12.90908,29.88988 0,2.4916 -9.74917,11.60479 -16.97642,15.86897 l -4.60603,2.71763 z"
       id="path5697" />
    <path
       style="fill:#c8beb7;stroke:#000000;stroke-width:1.34852"
       d="m 455.49278,336.48256 c -0.67756,-1.75256 -3.41934,-7.96519 -6.09286,-13.80584 -2.67352,-5.84064 -4.86094,-11.06059 -4.86094,-11.59988 0,-1.71476 40.53615,-18.87159 44.66405,-18.90395 0.46049,-0.004 1.27122,4.96831 1.80162,11.04872 0.5304,6.0804 1.76265,15.63801 2.73832,21.23913 0.97568,5.60112 1.53933,10.56646 1.25256,11.03408 -0.28677,0.46762 -5.84019,1.24756 -12.34094,1.7332 -6.50075,0.48563 -14.99437,1.23353 -18.87472,1.66199 -6.51315,0.71918 -7.14982,0.53422 -8.28709,-2.40745 z"
       id="path5699" />
    <path
       style="fill:#b3ff80;stroke:#000000;stroke-width:1.34852"
       d="m 456.74081,335.44065 c -0.85006,-1.58835 -3.59033,-7.66519 -6.08948,-13.5041 l -4.54392,-10.61619 10.51161,-4.80499 c 12.56414,-5.74322 31.30545,-13.2654 31.68484,-12.71732 0.40395,0.58357 4.81909,36.45177 4.79902,38.98678 -0.014,1.76314 -2.16845,2.36151 -11.14257,3.09464 -6.11889,0.49988 -13.94871,1.25542 -17.3996,1.67898 -5.46285,0.67051 -6.47423,0.39661 -7.8199,-2.1178 z"
       id="path5703" />
    <path
       style="fill:#b3ff80;stroke:#000000;stroke-width:1.34852"
       d="m 654.27636,277.75777 c -7.60736,-14.55816 -14.4045,-23.72633 -27.79128,-37.48564 l -13.43906,-13.81304 9.80551,-7.41127 c 5.39303,-4.0762 12.81803,-9.91568 16.49999,-12.97662 3.68197,-3.06095 7.10683,-5.11893 7.61082,-4.57329 0.50399,0.54563 7.72255,16.04146 16.04126,34.43516 14.91635,32.98193 15.09034,33.48206 12.61693,36.26842 -3.06969,3.45809 -15.2229,13.22347 -16.45138,13.21905 -0.48966,-0.002 -2.69142,-3.45001 -4.89279,-7.66277 z"
       id="path5705" />
    <path
       style="fill:#0066ff;stroke:#000000;stroke-width:1.34852"
       d="m 502.54531,332.65941 c -1.97809,-3.69609 -5.39664,-27.30764 -5.40624,-37.3403 -0.0204,-21.3638 7.72319,-42.63358 20.57547,-56.51558 14.94466,-16.14202 35.59304,-22.55928 57.9013,-17.99501 18.85021,3.85675 44.82456,21.47052 58.49637,39.66767 9.93444,13.2227 22.56658,41.48176 23.81073,53.2664 0.31763,3.00866 -0.19815,3.41692 -4.79503,3.79543 -4.82705,0.39747 -5.05767,0.24984 -3.66749,-2.34772 2.04391,-3.81909 -0.63553,-8.63961 -9.31477,-16.75802 -5.85213,-5.47398 -7.48401,-6.33317 -10.69101,-5.62879 -2.57647,0.56589 -4.3365,0.16637 -5.5132,-1.25147 -2.22546,-2.68152 -5.54135,-2.63565 -11.39904,0.15769 l -4.6982,2.24041 -6.25027,-5.27457 c -12.1824,-10.28067 -17.98987,-12.46456 -20.62492,-7.75598 -1.11441,1.99134 -1.43148,1.90431 -2.87259,-0.78842 -2.46262,-4.60146 -9.41569,-7.0206 -15.41638,-5.36373 -11.8259,3.26529 -18.28046,14.28678 -13.83107,23.61725 l 2.17918,4.56979 h -3.97628 c -5.94382,0 -7.23661,3.60061 -6.11731,17.03763 0.51685,6.20467 0.43012,11.28606 -0.19272,11.29199 -0.62284,0.006 -8.39137,0.91617 -17.26339,2.02278 -20.11022,2.50833 -19.22965,2.53556 -20.93314,-0.64745 z"
       id="path5707" />
    <path
       style="fill:#aaccff;stroke:#000000;stroke-width:1.34852"
       d="m 655.20583,276.34755 c -6.08698,-11.4087 -15.68429,-24.26587 -28.33098,-37.95398 l -11.17625,-12.0966 15.2218,-11.7187 15.22181,-11.71871 5.90246,12.62611 c 10.76779,23.03367 23.09064,51.28155 23.09064,52.93105 0,1.48141 -5.74604,7.41515 -12.94614,13.36904 -2.78043,2.29919 -2.90823,2.19967 -6.98334,-5.43821 z"
       id="path5709" />
    <path
       style="fill:#aaccff;stroke:#000000;stroke-width:1.34852"
       d="m 453.899,325.36022 c -2.92296,-6.23743 -5.31447,-11.89493 -5.31447,-12.57221 0,-1.2086 34.68429,-16.57613 37.41208,-16.57613 1.2986,0 4.63206,21.84478 4.9322,32.32162 0.13016,4.54324 -0.0396,4.70167 -5.93434,5.53851 -3.33757,0.47381 -10.50367,1.25917 -15.92466,1.74523 l -9.85635,0.88376 z"
       id="path5711" />
    <path
       style="fill:#ffd42a;stroke:#000000;stroke-width:0.238386"
       d="m 558.50123,305.87256 c -6.13635,-6.38192 -7.84933,-9.54376 -7.84933,-14.48841 0,-3.14835 0.24609,-3.72305 2.60829,-6.09117 2.41363,-2.41969 5.41407,-4.45525 9.67079,-6.56088 4.73966,-2.34453 6.11411,-2.2951 8.78889,0.31604 3.7785,3.68858 6.34646,10.40825 6.34646,16.607 0,3.08193 -0.1672,3.35974 -2.15759,3.58492 -4.02698,0.4556 -7.15381,2.32064 -12.80744,7.63917 l -1.90711,1.79407 z"
       id="path5713" />
    <path
       style="fill:#ffd42a;stroke:#000000;stroke-width:0.238386"
       d="m 546.24549,331.73778 c -0.0685,-0.295 -0.61718,-3.4864 -1.21931,-7.09199 -0.82017,-4.91123 -1.1264,-7.45257 -1.22083,-10.13142 -0.1591,-4.5135 0.10589,-5.97865 1.32583,-7.33062 1.77343,-1.96537 2.68873,-1.95279 6.8873,0.0947 6.81236,3.32215 7.42999,4.86141 6.99871,17.44206 -0.11603,3.38446 -0.26029,6.20291 -0.32059,6.26321 -0.12222,0.12222 -10.65105,1.28347 -11.67555,1.28772 -0.48048,0.002 -0.68364,-0.1378 -0.77556,-0.53367 z"
       id="path5715" />
    <path
       style="fill:#ffd42a;stroke:#000000;stroke-width:0.238386"
       d="m 603.23919,316.76384 c -5.45777,-7.86189 -9.34973,-11.40045 -17.58963,-15.99244 -1.4154,-0.78878 -2.62139,-1.51171 -2.67997,-1.6065 -0.19776,-0.31998 -0.85073,-6.90593 -0.84656,-8.53846 0.0139,-5.44752 2.4903,-9.06351 5.616,-8.20046 1.53471,0.42375 6.1501,4.43777 14.13691,12.2949 6.89186,6.77996 8.95932,9.11768 10.00589,11.31382 0.69788,1.46444 0.84476,2.04206 0.84864,3.33741 0.007,2.40658 -0.93967,3.93515 -5.59644,9.03434 l -1.56493,1.71362 z"
       id="path5717" />
    <path
       style="fill:#ffd42a;stroke:#000000;stroke-width:0.238386"
       d="m 614.92058,309.56785 c -0.0444,-0.16389 -0.19863,-0.92621 -0.34282,-1.69405 -0.14977,-0.79749 -0.98076,-2.89398 -1.93815,-4.88967 -1.99944,-4.16787 -2.0873,-4.81933 -0.83668,-6.20362 0.51288,-0.56769 1.7164,-1.37314 3.09458,-2.07103 4.5274,-2.2926 6.9675,-1.57016 8.81627,2.61024 0.65273,1.47595 1.44567,4.41514 1.68321,6.23922 0.18136,1.39266 -0.005,1.63708 -1.41033,1.85333 -1.0372,0.15956 -3.57655,1.40909 -6.56635,3.23108 -2.13957,1.30385 -2.37362,1.39042 -2.49973,0.9245 z"
       id="path5719" />
    <path
       style="fill:#ffd42a;stroke:#000000;stroke-width:0.238386"
       d="m 641.11358,315.99698 c -3.16345,-3.40931 -5.34835,-5.53021 -7.12898,-6.92017 -5.42938,-4.23817 -5.27489,-4.00949 -5.22589,-7.73534 0.0302,-2.29442 0.11667,-2.84794 0.59597,-3.81418 0.49203,-0.9919 0.66308,-1.13892 1.39719,-1.20084 0.62262,-0.0525 1.13653,0.12815 2.00976,0.70655 2.49969,1.65573 11.48176,10.89938 13.38384,13.77362 l 0.62268,0.94094 -0.58287,1.26421 c -0.62649,1.35882 -2.54613,3.85242 -3.25967,4.2343 -0.36254,0.19402 -0.66902,-0.0172 -1.81203,-1.24909 z"
       id="path5721" />
    <path
       style="fill:#ffd42a;stroke:#000000;stroke-width:0.238386"
       d="m 606.19591,324.01189 c 0,-0.21754 0.44372,-0.98322 0.98604,-1.70151 1.14751,-1.51988 5.89189,-6.48488 6.19671,-6.48488 0.51122,0 0.15477,1.66515 -0.64087,2.99385 -1.88461,3.14724 -6.54188,6.84389 -6.54188,5.19254 z"
       id="path5725" />
    <path
       style="fill:#ffd42a;stroke:#000000;stroke-width:0.238386"
       d="m 610.72525,324.21362 c 0,-0.26173 1.1866,-1.35269 1.83182,-1.68418 0.72841,-0.37423 1.46968,-0.32466 2.57633,0.17228 l 0.95154,0.42728 -0.59397,0.38748 c -1.06385,0.69401 -4.76572,1.23552 -4.76572,0.69714 z"
       id="path5729" />
    <path
       style="fill:#ffd42a;stroke:#000000;stroke-width:0.238386"
       d="m 558.94929,310.31565 c -2.41864,-3.00867 -3.6986,-4.03499 -6.09232,-4.88502 -1.34195,-0.47654 -1.52386,-0.69073 -0.78562,-0.92504 0.25625,-0.0813 0.59372,-0.50133 0.74993,-0.93334 l 0.28404,-0.78547 1.45513,1.73763 c 0.80033,0.9557 2.29463,2.67797 3.32066,3.82727 1.95534,2.19025 2.49062,2.94448 2.0897,2.94448 -0.12832,0 -0.58801,-0.44123 -1.02152,-0.98051 z"
       id="path5731" />
    <path
       style="fill:#e5ff80;stroke:#000000;stroke-width:1.34852"
       d="m 431.98345,280.87678 c -4.12649,-11.68152 -10.6511,-31.55529 -14.49912,-44.16392 -3.84803,-12.60863 -7.75583,-25.34346 -8.684,-28.29961 -1.54951,-4.93505 -2.17546,-5.45643 -7.64996,-6.37194 -3.87494,-0.64802 -7.02461,-2.21545 -8.99652,-4.47711 -3.89679,-4.46939 -3.8208,-5.79432 0.42492,-7.40854 4.85835,-1.84714 4.94937,-1.78434 3.95776,2.73041 -1.56379,7.1199 3.5488,4.86693 17.59581,-7.75397 33.82762,-30.39329 52.93206,-44.42596 77.38489,-56.84109 26.77507,-13.59416 49.59915,-20.97618 75.57027,-24.44179 10.46894,-1.39699 11.90659,-1.96768 17.16346,-6.813294 3.1556,-2.908729 6.29848,-5.288597 6.98417,-5.288597 1.15089,0 4.2076,7.003811 4.2076,9.640851 0,0.631 -1.51708,1.14728 -3.37129,1.14728 -1.85421,0 -3.37129,0.54479 -3.37129,1.21065 0,0.66586 3.2691,5.38871 7.26467,10.49522 9.44925,12.07654 27.80519,41.4054 38.52719,61.55821 l 8.4871,15.95211 -5.22609,5.39057 c -7.04,7.26158 -29.1664,24.0627 -31.6896,24.0627 -1.11301,0 -7.44728,-1.85483 -14.07614,-4.12185 -11.54411,-3.94799 -12.85202,-4.10441 -31.00764,-3.70842 -18.61826,0.40608 -19.12121,0.49732 -28.29838,5.13324 -18.14272,9.16494 -32.68285,29.01633 -39.01492,53.2664 -1.35565,5.19179 -3.48112,10.53029 -4.72326,11.86332 -1.90405,2.04337 -44.87459,18.47831 -48.31312,18.47831 -0.62909,0 -4.52002,-9.55761 -8.64651,-21.23914 z m 20.09634,-45.46994 c 5.10736,-1.46375 11.20831,-9.66015 11.20831,-15.05795 0,-6.92577 -6.75267,-13.40946 -15.30081,-14.69134 -7.69706,-1.15424 -12.5106,-4.58902 -11.20375,-7.99462 0.67361,-1.75541 1.71291,-2.13392 3.9333,-1.43249 10.24904,3.23771 12.78743,1.96337 8.4433,-4.23874 -2.86507,-4.09047 -8.04861,-4.98128 -13.61508,-2.33981 -6.30428,2.99157 -8.6669,6.71209 -8.6669,13.64811 0,7.39942 2.405,9.78437 14.54436,14.42307 9.96563,3.80808 13.3062,6.3607 11.70811,8.94646 -1.06521,1.72355 -5.89387,1.12241 -12.37871,-1.54108 -2.38217,-0.97841 -4.76655,-1.3436 -5.29863,-0.81152 -1.60885,1.60885 3.34566,10.37428 6.59435,11.66659 2.98019,1.18551 4.11003,1.12056 10.03215,-0.57668 z m 33.45884,-15.5081 c 8.56081,-3.72285 11.46239,-6.36913 11.46239,-10.45387 0,-8.06174 -6.18114,-11.61203 -7.62736,-4.38095 -0.44954,2.24771 -2.40567,5.33613 -4.34696,6.86314 l -3.5296,2.77639 -2.32655,-5.17749 c -3.60376,-8.01979 -3.23854,-9.01674 2.99679,-8.18041 6.26056,0.83972 6.38626,0.41526 2.53097,-8.54662 -3.12037,-7.25348 -5.94945,-8.48033 -7.87524,-3.41514 -2.66271,7.00346 -6.35777,5.87684 -7.69204,-2.3453 -0.71926,-4.43225 -0.49699,-4.94055 2.16038,-4.94055 1.62918,0 4.01689,0.56449 5.30605,1.25442 3.8411,2.0557 6.38278,-0.43198 4.84673,-4.74375 -2.40084,-6.73929 -4.66579,-6.9021 -17.35589,-1.2476 -13.94999,6.21588 -15.92411,8.05499 -11.76975,10.96481 2.93502,2.05577 11.09367,16.93303 14.35466,26.17566 1.19334,3.38231 1.3022,5.60458 0.35725,7.29312 -0.97333,1.73924 -0.87399,2.72833 0.34998,3.48478 1.76466,1.09063 6.51245,-0.31623 18.15819,-5.38064 z m 31.35301,-14.32205 c 6.86058,-3.17016 12.47498,-6.26048 12.47646,-6.86737 10e-4,-0.60689 1.84651,-1.23264 4.10009,-1.39056 5.74713,-0.40272 19.49693,-8.02926 24.26357,-13.45816 3.51519,-4.00359 3.9978,-5.56578 3.99597,-12.93484 -0.003,-10.09584 -2.87946,-16.53913 -9.29982,-20.82821 -8.21589,-5.48857 -24.03737,-3.24746 -36.64519,5.19078 l -3.26242,2.18349 4.3712,4.08332 c 6.51183,6.08295 16.01933,27.77628 13.76915,31.41714 -0.82281,1.33134 -1.54492,0.8412 -2.79151,-1.89476 -1.97588,-4.33659 -5.72239,-4.27177 -6.34796,0.10981 -0.47179,3.30441 -6.61041,8.83475 -8.50605,7.66318 -2.1299,-1.31635 -5.44251,-8.84915 -4.71976,-10.73262 0.49163,-1.28116 2.13383,-1.59525 5.49164,-1.05036 4.26111,0.69149 4.79028,0.45254 4.79028,-2.16308 0,-4.24298 -3.76628,-10.89761 -6.16764,-10.89761 -1.12906,0 -3.46235,1.63866 -5.18509,3.64147 l -3.13226,3.64148 -2.19713,-4.24877 c -4.05988,-7.85096 -2.28119,-10.27734 6.49048,-8.8539 3.91848,0.63588 4.79757,0.35932 4.79757,-1.50933 0,-3.89296 -2.66131,-7.50463 -5.5299,-7.50463 -3.7587,0 -21.67128,8.43675 -24.04277,11.32404 -1.71599,2.08923 -1.53442,2.67096 1.65067,5.28845 4.67515,3.84202 11.42332,18.58415 13.24763,28.94098 1.66031,9.42571 -0.009,9.34852 18.38279,0.85006 z m 69.22954,-30.59894 c 6.03899,-4.06967 8.22472,-8.51268 7.43655,-15.11655 -0.79195,-6.63559 -4.02192,-9.44329 -14.12056,-12.27451 -8.12113,-2.2768 -13.45214,-6.69333 -11.01773,-9.12774 0.97197,-0.97195 2.77936,-0.90561 5.88078,0.21588 6.20631,2.24423 7.65735,2.03997 7.65735,-1.07794 0,-4.04484 -4.79998,-8.0911 -9.59827,-8.0911 -3.08564,0 -5.59712,1.39292 -9.43962,5.23542 -5.9843,5.98431 -6.70202,10.54796 -2.69283,17.12257 2.47981,4.06659 4.14358,4.96935 16.21116,8.79613 6.93006,2.19761 9.58148,5.35767 7.05225,8.4052 -1.48663,1.79128 -2.39036,1.71365 -7.77403,-0.6678 -8.72847,-3.86102 -10.77747,-2.6655 -7.2574,4.23442 2.50199,4.9043 3.25764,5.42066 7.93265,5.42066 3.14571,0 6.95216,-1.20285 9.7297,-3.07464 z"
       id="path5739" />
    <path
       style="fill:#d4ff2a;stroke:#000000;stroke-width:1.34852"
       d="m 665.59344,311.57688 c -4.42214,-16.71183 -4.42465,-16.55189 0.32325,-20.63286 7.49008,-6.43799 14.26802,-10.69615 15.65811,-9.83703 1.53705,0.94995 12.30964,27.92894 12.30964,30.82839 0,1.46651 -3.25496,2.2267 -13.51822,3.15713 l -13.51822,1.22552 z"
       id="path5743" />
    <path
       style="fill:#ffd42a;stroke:#000000;stroke-width:1.34852"
       d="m 434.68116,283.57382 c -3.39801,-9.45648 -9.62421,-28.11658 -13.836,-41.46689 -4.21179,-13.35031 -8.71735,-27.61088 -10.01237,-31.69014 -2.23423,-7.03778 -2.68163,-7.52192 -8.75405,-9.47275 l -6.39948,-2.05592 4.47419,-1.65707 c 2.4608,-0.91138 12.05959,-8.38078 21.33064,-16.59866 18.61952,-16.50437 41.99654,-34.47179 54.91279,-42.20559 13.74437,-8.22966 40.59789,-20.49736 54.61053,-24.94815 7.20742,-2.28927 20.25432,-5.40273 28.99311,-6.9188 18.41715,-3.19514 20.03104,-3.76425 26.3108,-9.277948 l 4.68572,-4.114122 1.54859,3.398776 c 2.015,4.422424 2.03224,4.361644 -1.37995,4.863724 -1.61069,0.23701 -3.13564,1.06135 -3.38877,1.83187 -0.25313,0.77052 4.07928,7.74909 9.62758,15.50794 9.48508,13.26412 27.97994,43.41505 38.96555,63.52294 l 4.89538,8.96044 -8.65284,8.09431 c -4.75906,4.45187 -12.61169,10.91928 -17.45029,14.37203 l -8.79745,6.27773 -14.41597,-4.2856 c -13.76476,-4.09201 -15.22509,-4.25816 -32.32749,-3.67813 -16.96727,0.57545 -18.39163,0.84384 -27.0191,5.09112 -16.90958,8.32456 -32.05732,27.764 -38.90647,49.92956 -4.09185,13.24223 -5.05493,14.91638 -10.03587,17.44585 -4.29402,2.18063 -40.89589,16.26706 -42.26796,16.26706 -0.29294,0 -3.31281,-7.73711 -6.71082,-17.19358 z m 20.24583,-47.53521 c 1.30913,0 8.36111,-9.01126 8.36111,-10.68411 0,-1.5493 0.35961,-1.63235 1.61822,-0.37373 0.89003,0.89002 3.05613,1.61822 4.81356,1.61822 4.82008,0 22.4427,-7.74753 25.83422,-11.35765 1.9003,-2.02277 3.94378,-2.92324 5.63199,-2.48176 1.59684,0.41758 8.65895,-2.2574 17.77435,-6.73256 8.31863,-4.08399 17.2069,-8.11134 19.7517,-8.94966 7.35757,-2.42379 15.5434,-7.72169 20.29815,-13.13705 4.26547,-4.8581 4.37332,-5.28029 3.7164,-14.5481 -0.37209,-5.24963 -1.14594,-10.68227 -1.71964,-12.07251 -0.97537,-2.36358 -0.83252,-2.3954 2.19974,-0.48992 1.78356,1.1208 6.38201,3.05007 10.21877,4.28728 7.46813,2.40818 11.05934,5.25947 8.56554,6.80073 -0.79527,0.49151 -4.11568,-0.12594 -7.3787,-1.37209 -9.03555,-3.45071 -11.42175,-0.16593 -6.15478,8.47253 3.02737,4.96523 7.69845,5.74238 15.22891,2.5337 7.63787,-3.25446 11.09558,-8.24626 10.98213,-15.85464 -0.12474,-8.36853 -2.23536,-10.62176 -14.62879,-15.61772 -5.13399,-2.06958 -9.60532,-4.58509 -9.93629,-5.59003 -0.45349,-1.37697 0.18512,-1.56296 2.59196,-0.75485 6.21039,2.08517 9.90503,1.45347 10.36344,-1.77194 0.61751,-4.34476 -5.31752,-9.80547 -10.65716,-9.80547 -3.27685,0 -5.70496,1.42067 -10.32584,6.04155 -5.21777,5.21777 -5.9571,6.64279 -5.42213,10.451 0.34069,2.4252 1.13622,5.62312 1.76785,7.10649 0.96156,2.25823 0.44004,2.10241 -3.2055,-0.95773 -2.39464,-2.01012 -6.56589,-4.06974 -9.26944,-4.57692 -7.58834,-1.42358 -20.07602,1.51998 -28.99957,6.83572 -4.40155,2.62199 -8.97697,4.76725 -10.16759,4.76725 -3.91669,0 -24.40911,10.72068 -25.18893,13.17769 -0.58718,1.85005 -1.92628,2.30784 -5.82411,1.99106 -3.73149,-0.30326 -7.71941,0.92757 -15.17549,4.68373 -10.99298,5.53795 -12.72234,8.22815 -8.33718,12.96935 4.34505,4.69784 13.74346,24.57366 13.59321,28.74703 -0.13052,3.62536 -0.19821,3.57829 -1.24276,-0.86414 -1.44825,-6.15934 -8.85634,-12.85682 -15.58197,-14.08727 -6.05897,-1.10849 -11.78652,-4.37452 -10.7142,-6.10957 0.40895,-0.66168 2.84478,-0.59313 5.55963,0.15648 8.56834,2.36583 11.0571,-0.8079 5.83726,-7.44384 -2.2841,-2.90377 -3.91073,-3.55315 -8.90021,-3.55315 -5.14526,0 -6.82627,0.72097 -10.69025,4.58495 -3.74676,3.74676 -4.58496,5.61194 -4.58496,10.20253 0,3.08967 0.65487,6.84122 1.45528,8.33678 0.8004,1.49557 6.56531,5.06888 12.8109,7.94071 6.2456,2.87182 11.35564,5.85611 11.35564,6.63175 0,1.76426 0.47597,1.80671 -8.01402,-0.71455 -8.62376,-2.56098 -10.73322,-1.3707 -8.23964,4.64933 3.06535,7.40041 8.15045,10.01555 15.57049,8.00751 2.22016,-0.60083 4.22657,-1.09241 4.4587,-1.09241 z"
       id="path5745" />
    <path
       style="fill:#ffd42a;stroke:#000000;stroke-width:1.34852"
       d="m 665.83828,307.58509 c -2.71022,-11.74133 -2.3649,-12.9114 5.58105,-18.91065 3.96124,-2.99077 7.83092,-5.43775 8.59929,-5.43775 2.50742,0 13.26975,27.69464 11.24791,28.9442 -0.60744,0.37542 -6.21252,1.07522 -12.45574,1.55511 l -11.3513,0.87253 z"
       id="path5747" />
    <path
       style="fill:#ffd42a;stroke:#000000;stroke-width:1.34852"
       d="m 536.76997,172.51281 c -4.0725,-8.29798 -7.40455,-15.84277 -7.40455,-16.7662 0,-0.92343 0.95988,-2.04731 2.13306,-2.4975 9.06638,-3.47909 20.71908,9.31916 20.74145,22.78051 0.0103,6.17873 -0.77013,7.72837 -5.01895,9.96601 -2.92869,1.5424 -3.33268,1.02121 -10.45101,-13.48282 z"
       id="path5749" />
    <path
       style="fill:#ffd42a;stroke:#000000;stroke-width:1.34852"
       d=""
       id="path5751" />
    <path
       style="fill:#ffd42a;stroke:#000000;stroke-width:0.476773"
       d="m 511.92209,195.93598 c -0.78927,-1.24557 -1.78292,-3.30841 -2.20811,-4.5841 -1.13653,-3.40983 -0.68874,-3.74206 4.51428,-3.34928 3.89876,0.29432 4.20584,0.25042 4.69941,-0.67184 1.25644,-2.34767 -0.0554,-7.66106 -2.84074,-11.50613 -2.7255,-3.76245 -5.08949,-3.46351 -9.50147,1.20152 l -2.44582,2.58609 -1.63901,-3.54741 c -3.03962,-6.57886 -2.11046,-7.88456 5.01175,-7.04267 2.32465,0.27479 4.48676,0.30197 5.11199,0.0643 1.40694,-0.53492 1.79418,-2.19623 1.10687,-4.74869 -0.71152,-2.64237 -1.75266,-4.20097 -3.52709,-5.28006 l -1.42566,-0.867 1.16687,-0.43314 c 1.03939,-0.38583 1.54736,-0.0632 4.64949,2.95329 1.91544,1.86255 4.57889,5.09544 5.91878,7.18421 4.68697,7.30657 9.45857,18.99943 9.41006,23.05945 l -0.0211,1.76329 -0.88693,-1.66871 c -1.29932,-2.44457 -3.13171,-3.9731 -4.76291,-3.9731 -1.84938,0 -2.77662,0.82818 -3.36226,3.00308 -0.26355,0.97875 -0.96482,2.50018 -1.55837,3.38096 -1.04906,1.55669 -4.80011,4.74065 -5.58501,4.74065 -0.21451,0 -1.03577,-1.0191 -1.82504,-2.26467 z"
       id="path5753" />
    <path
       style="fill:#ffd42a;stroke:#000000;stroke-width:0.476773"
       d="m 481.58504,212.55674 c -0.98254,-1.58979 -3.6085,-8.46148 -3.6085,-9.44284 v -1.2003 l 4.29949,0.34029 c 4.90468,0.38819 5.71274,0.0543 5.71274,-2.36071 0,-1.54855 -1.56815,-5.83577 -3.60429,-9.8539 -1.24016,-2.44734 -3.62942,-4.71149 -4.97182,-4.71149 -0.98806,0 -3.10677,2.30622 -3.6112,3.9308 -0.51793,1.66806 -2.10435,3.69756 -2.89031,3.69756 -1.02246,0 -2.6232,-3.95794 -2.91869,-7.21671 l -0.25349,-2.79551 1.37734,0.0156 c 0.75754,0.009 2.55736,0.43065 3.9996,0.93798 1.44223,0.50733 3.31953,0.92942 4.17176,0.93798 3.5157,0.0353 4.47284,-3.6166 2.20454,-8.41138 -1.9669,-4.15769 -0.72074,-4.1062 3.14064,0.12977 4.69959,5.1555 9.29952,14.42676 11.91806,24.02109 1.20299,4.40778 1.20107,5.05012 -0.008,2.75967 -2.31511,-4.38476 -6.73455,-3.88298 -7.88483,0.89524 -0.59477,2.47062 -1.9893,4.71367 -4.19401,6.74591 -2.33183,2.1494 -2.4779,2.22962 -2.87877,1.58099 z"
       id="path5755" />
    <path
       style="fill:#ffd42a;stroke:#000000;stroke-width:0.476773"
       d="m 392.78498,196.65114 c -1.80531,-1.90732 -2.68179,-3.54788 -2.26006,-4.23026 0.31044,-0.50231 2.22466,-1.40575 4.3586,-2.05711 1.03601,-0.31623 1.05147,-0.25989 0.76648,2.79208 -0.19369,2.07418 -0.10484,3.33898 0.26595,3.78575 0.43578,0.52508 0.39024,0.73484 -0.20951,0.96499 -1.19998,0.46047 -1.36405,0.38996 -2.92146,-1.25545 z"
       id="path5757" />
    <path
       style="fill:#ffd42a;stroke:#000000;stroke-width:0.674258"
       d="m 666.67737,306.5274 c -1.76239,-8.27669 -1.79101,-9.39816 -0.29451,-11.54011 2.26118,-3.23645 12.87745,-11.1625 13.75588,-10.27006 2.29085,2.32741 10.25943,22.82966 9.88622,25.43613 -0.22426,1.56622 -1.94717,1.89215 -14.41367,2.72672 l -7.47466,0.5004 z"
       id="path5759" />
    <path
       style="fill:#c8c4b7;stroke:#000000;stroke-width:1.34852"
       d="m 455.14466,324.5913 -5.00663,-11.0328 5.00663,-2.59015 c 11.5456,-5.97304 29.09586,-12.96972 30.03658,-11.97454 1.35025,1.42841 3.96315,18.91611 3.96315,26.5247 0,6.98153 -0.055,7.01354 -14.15942,8.24729 -5.19179,0.45414 -10.65328,1.05804 -12.13665,1.342 -2.23003,0.4269 -3.56395,-1.39406 -7.70366,-10.5165 z"
       id="path5761" />
    <path
       style="fill:#c8c4b7;stroke:#000000;stroke-width:1.34852"
       d="m 655.292,273.67858 c -5.55631,-10.03014 -15.45901,-23.15952 -27.67764,-36.6961 -5.4022,-5.9849 -8.93747,-10.96054 -8.22993,-11.58305 5.4616,-4.80527 24.82874,-19.05495 25.89812,-19.05495 0.74,0 2.29368,2.27562 3.45263,5.05694 1.15895,2.78131 7.28058,16.56547 13.60362,30.63146 12.84729,28.57959 12.72475,26.96251 2.67212,35.26236 l -5.29407,4.371 z"
       id="path5763" />
    <path
       style="fill:#e5ff80;stroke:#000000;stroke-width:1.34852"
       d="m 657.80662,275.45596 c -2.91903,-6.42896 -12.22906,-19.40321 -24.23482,-33.77306 -6.37919,-7.63534 -11.59852,-14.50155 -11.59852,-15.25823 0,-1.91035 22.7313,-18.79174 23.75498,-17.64163 1.08805,1.22243 23.5296,52.57927 24.77651,56.70033 0.77106,2.54837 -0.0521,4.21275 -4.16841,8.42823 -2.82106,2.88903 -5.51547,5.25278 -5.98758,5.25278 -0.47211,0 -1.61608,-1.66879 -2.54216,-3.70842 z"
       id="path5767" />
    <path
       style="fill:#e5ff80;stroke:#000000;stroke-width:1.34852"
       d="m 456.77953,324.55478 c -2.2248,-4.90668 -4.04508,-9.45479 -4.04508,-10.10691 0,-1.17086 28.06197,-13.70723 30.68288,-13.70723 1.40101,0 4.37855,16.90437 4.37855,24.85837 0,5.46707 -0.60023,5.73727 -15.4158,6.9394 l -11.55547,0.9376 z"
       id="path5769" />
    <path
       style="fill:#e5ff80;stroke:#000000;stroke-width:1.34852"
       d="m 502.74922,328.0481 c -2.67782,-10.16015 -4.49062,-29.58945 -3.70849,-39.74699 1.63812,-21.27424 13.01782,-44.40614 27.06181,-55.00946 11.48213,-8.66909 18.61481,-11.21278 33.21771,-11.84629 11.15027,-0.48372 14.16136,-0.10684 22.60378,2.82914 18.8298,6.54836 42.02829,24.09861 52.7589,39.91344 6.62098,9.75807 13.67534,23.87547 18.13682,36.29594 4.24813,11.82656 4.39666,14.55205 0.84367,15.48118 -2.2153,0.57931 -2.69703,0.0414 -2.69703,-3.01169 0,-7.73576 -13.7587,-21.65234 -21.40671,-21.65234 -2.23077,0 -4.43098,-0.60684 -4.88937,-1.34852 -1.18795,-1.92214 -8.84748,-1.58092 -12.72512,0.56687 -3.06166,1.69584 -3.87035,1.37156 -11.86953,-4.75947 -9.02508,-6.91734 -13.3839,-8.73002 -18.0551,-7.50848 -1.71618,0.44879 -3.8618,-0.2269 -5.46582,-1.72126 -8.1736,-7.61487 -25.57571,-1.60979 -29.46233,10.1668 -1.45074,4.39577 -1.23077,7.81917 0.85098,13.24414 0.62539,1.62972 -0.0321,2.14805 -2.72466,2.14805 -5.04975,0 -6.63904,4.98759 -5.62413,17.65003 l 0.8202,10.23319 -12.74551,1.56633 c -7.01004,0.86148 -15.18491,1.56633 -18.16639,1.56633 -5.12816,0 -5.49284,-0.27306 -6.75368,-5.05694 z"
       id="path5771" />
    <path
       style="fill:#d38d5f;stroke:#000000;stroke-width:1.34852"
       d="m 504.04382,326.88394 c -0.83124,-2.88271 -2.18971,-12.21986 -3.01881,-20.74923 -1.90008,-19.54688 0.23895,-31.71571 8.53345,-48.5466 12.14253,-24.63917 31.9732,-36.55486 57.7999,-34.73031 17.17514,1.21335 40.29791,14.27091 57.6851,32.57509 10.01418,10.54233 20.72295,29.3853 26.71891,47.01417 3.58238,10.53264 3.80134,11.77875 2.06961,11.77875 -0.64897,0 -1.54653,-1.83294 -1.99459,-4.07319 -0.98049,-4.90249 -11.6638,-16.70313 -16.76751,-18.52117 -13.63241,-4.85616 -17.03072,-5.29056 -22.36702,-2.85918 -2.96421,1.35058 -4.46123,0.75951 -13.66159,-5.39407 -7.65354,-5.119 -11.61448,-6.92198 -15.27656,-6.95374 -2.71918,-0.0236 -6.1219,-0.93384 -7.56161,-2.02278 -3.37712,-2.55433 -14.60425,-2.55752 -19.53921,-0.006 -8.72522,4.51199 -13.88782,15.0668 -11.03702,22.56495 1.21189,3.18751 1.02933,3.65856 -1.56243,4.03152 -4.88916,0.70356 -6.60985,5.91515 -5.75491,17.43039 l 0.76214,10.2655 -5.97716,0.81926 c -3.28744,0.45059 -10.82865,1.22386 -16.75825,1.71837 l -10.78109,0.89909 z"
       id="path5773" />
    <path
       style="fill:#ff9955;stroke:#000000;stroke-width:1.34852"
       d="m 750.75661,458.38346 c -11.4961,-0.5962 -40.32064,-2.04287 -64.05453,-3.21483 -140.49042,-6.9373 -424.78116,-22.53239 -444.67868,-24.39336 -5.0093,-0.46851 -9.46115,-1.42352 -9.89299,-2.12225 -0.43184,-0.69873 0.16264,-2.71695 1.32107,-4.48493 l 2.10622,-3.2145 28.01451,0.61612 c 52.48897,1.15438 118.28593,3.32609 160.16913,5.28659 111.22828,5.20644 226.153,10.33073 300.7192,13.40852 45.24273,1.86744 85.7488,3.76357 90.01348,4.21363 l 7.75397,0.81828 v 5.15137 c 0,9.82644 1.09503,9.43973 -26.10322,9.21843 -13.45637,-0.10949 -33.87205,-0.68687 -45.36816,-1.28307 z"
       id="path5775" />
    <path
       style="fill:#a05a2c;stroke:#000000;stroke-width:1.34852"
       d="m 137.18156,435.43481 c -23.4049,-2.0738 -37.758464,-8.43217 -37.758464,-16.72632 0,-5.55461 2.463424,-8.78632 8.851464,-11.61206 7.17493,-3.17381 32.49233,-5.69112 45.0892,-4.48322 10.91426,1.04655 42.96432,5.77385 46.30201,6.82942 2.37184,0.75011 2.36435,0.90419 -0.17939,3.68949 -4.32206,4.73249 -7.01564,11.18316 -7.01564,16.80127 v 5.26316 l -10.31733,0.87213 c -12.71525,1.07484 -28.14129,0.85741 -44.97185,-0.63387 z"
       id="path5777" />
    <path
       style="fill:#a05a2c;stroke:#000000;stroke-width:0.476773"
       d="m 170.87777,400.79001 c -9.5164,-1.062 -20.4695,-1.9038 -31.04007,-2.38559 -6.3971,-0.29157 -12.31831,-0.63085 -13.15827,-0.75396 -2.1954,-0.32176 -6.60389,-4.06032 -7.30968,-6.19886 -0.75334,-2.28264 -0.34799,-6.13957 0.81268,-7.73286 1.43444,-1.96909 6.49194,-5.08906 10.0543,-6.2025 8.31024,-2.59742 20.37498,-3.639 37.7804,-3.26167 15.35149,0.33281 34.72195,1.98038 38.03762,3.23533 1.06811,0.40427 1.04006,0.47975 -1.55427,4.18213 -3.96292,5.65551 -4.62112,7.46258 -4.9058,13.46867 -0.19414,4.09601 -0.398,5.20036 -1.01121,5.47794 -1.11311,0.50386 -23.48624,0.64224 -27.7057,0.17137 z"
       id="path5781" />
    <path
       style="fill:#28170b;stroke:#000000;stroke-width:0.476773"
       d="m 197.38063,433.10022 c -0.41653,-4.03646 0.32729,-9.29019 1.75761,-12.41443 1.33538,-2.91685 7.04955,-9.26733 8.71485,-9.68529 1.21485,-0.30491 6.26297,0.61571 6.62967,1.20905 0.12943,0.20941 -0.81072,1.68413 -2.08921,3.27716 -2.99999,3.73806 -4.42991,6.81964 -6.44643,13.89252 -0.90103,3.16033 -1.771,5.96087 -1.93328,6.22344 -0.16227,0.26256 -1.65194,0.47738 -3.31038,0.47738 h -3.01534 z"
       id="path5783" />
    <path
       style="fill:#28170b;stroke:#000000;stroke-width:0.476773"
       d="m 209.5034,433.57699 c 0.0188,-5.40675 2.46786,-11.38578 6.35865,-15.52376 2.73806,-2.91202 5.39063,-4.35534 8.03321,-4.37102 2.37447,-0.0141 6.57909,0.91679 6.57909,1.45658 0,0.23898 -0.97219,1.42065 -2.16043,2.62595 -3.22371,3.27001 -4.87968,6.92438 -5.46029,12.04973 -0.2668,2.35525 -0.61517,4.62124 -0.77415,5.03554 -0.24276,0.63261 -1.27366,0.75327 -6.43609,0.75327 h -6.14704 z"
       id="path5785" />
    <path
       style="fill:#28170b;stroke:#000000;stroke-width:0.476773"
       d="m 203.71426,399.53367 c -0.45459,-0.54776 -0.65434,-2.18815 -0.65434,-5.37372 0,-4.55032 0.0156,-4.61159 2.05123,-8.038 1.12817,-1.89899 2.86497,-4.30815 3.85955,-5.35367 1.77939,-1.87052 1.86282,-1.90094 5.21363,-1.90094 h 3.40531 l -1.59757,2.50305 c -2.64276,4.14064 -3.91906,6.99287 -5.73954,12.82646 -1.04894,3.36126 -2.02688,5.66817 -2.47589,5.84047 -1.39463,0.53517 -3.40732,0.28564 -4.06238,-0.50365 z"
       id="path5787" />
    <path
       style="fill:#28170b;stroke:#000000;stroke-width:0.476773"
       d="m 215.37874,399.36921 c -1.85721,-0.74893 -1.97944,-3.71036 -0.38053,-9.2196 1.07785,-3.71386 3.68073,-7.08951 7.35789,-9.54239 1.98038,-1.32102 8.11825,-0.8111 8.11825,0.67444 0,0.29196 -0.97141,1.6382 -2.15868,2.99163 -2.61984,2.98649 -3.5626,5.85316 -3.5626,10.83289 v 3.66969 l -3.59527,0.53473 c -4.13928,0.61564 -4.39137,0.6182 -5.77906,0.0586 z"
       id="path5789" />
    <path
       style="fill:#c8ab37;stroke:#000000;stroke-width:0.953545"
       d="m 877.65735,475.36249 c -8.65342,-0.35638 -22.98192,-0.70733 -31.8411,-0.77988 l -16.10759,-0.13192 0.64996,-10.72738 c 0.35748,-5.90006 1.12489,-14.53311 1.70536,-19.18455 l 1.05539,-8.45717 10.11129,0.58223 c 5.56121,0.32023 24.48598,1.06414 42.05505,1.65314 17.56907,0.589 32.1131,1.22687 32.32007,1.41749 0.46269,0.42617 -1.76639,32.63511 -2.41911,34.95463 -0.52436,1.8634 -6.1737,1.96477 -37.52932,0.67341 z m 6.32459,-10.52546 c 6.61528,-4.08847 7.78551,-8.84348 3.28421,-13.34477 -3.66681,-3.66682 -10.08579,-3.95571 -13.2421,-0.59597 -4.6852,4.98718 -3.45093,11.2173 2.83603,14.31514 3.9443,1.94352 3.31812,1.97644 7.12186,-0.3744 z m -28.77903,-1.27138 c 5.74332,-2.39972 6.96168,-7.96069 2.822,-12.88043 -1.98865,-2.36337 -3.20027,-2.93379 -6.2316,-2.93379 -6.98555,0 -10.93193,4.82464 -9.21735,11.26868 0.5971,2.24413 1.72961,3.54964 3.89677,4.49201 3.8921,1.69247 4.7944,1.698 8.73018,0.0535 z"
       id="path5795" />
    <path
       style="fill:#917c6f;stroke:#000000;stroke-width:0.953545"
       d=""
       id="path5797" />
    <path
       style="fill:#917c6f;stroke:#000000;stroke-width:0.953545"
       d="m 584.14216,544.43499 c -5.69641,-2.93223 -13.27055,-12.72599 -39.7433,-51.39017 -24.58795,-35.91139 -25.97299,-38.16003 -23.68521,-38.45342 6.32975,-0.81174 8.5517,1.74197 42.58399,48.94242 20.71405,28.72896 22.82136,30.6422 34.86227,31.65166 7.76523,0.65101 10.12837,-0.40172 13.84464,-6.16748 1.25939,-1.95395 7.49625,-17.49845 13.85967,-34.54332 6.36343,-17.04488 11.91432,-31.54802 12.33531,-32.22921 0.53384,-0.86377 2.66489,-1.15215 7.04294,-0.95308 l 6.27749,0.28544 -4.74718,10.96577 c -27.04626,62.47581 -29.83351,67.6525 -38.23799,71.01861 -6.08203,2.43594 -20.3632,2.94693 -24.39263,0.87278 z"
       id="path5799" />
    <path
       style="fill:#784421;stroke:#000000;stroke-width:0.953545"
       d="m 740.34684,304.28796 c 0,-0.62594 26.16847,-21.79517 47.20048,-38.18327 9.96455,-7.76435 20.95425,-16.41246 24.42156,-19.21802 3.4673,-2.80556 6.75567,-5.10101 7.30748,-5.10101 1.23658,0 6.88955,7.55167 6.88955,9.20359 0,0.65975 -5.47097,5.44152 -12.15771,10.62615 -35.44893,27.48573 -39.05988,29.76579 -60.74494,38.35624 -12.21128,4.83744 -12.91642,5.07308 -12.91642,4.31632 z"
       id="path5801" />
    <path
       style="fill:#784421;stroke:#000000;stroke-width:0.953545"
       d="m 758.46419,306.33307 c 0,-0.24486 8.04554,-3.75805 17.87898,-7.80709 9.83343,-4.04905 27.65974,-11.4066 39.61401,-16.35012 25.57371,-10.57564 36.63104,-14.34931 38.00866,-12.97169 0.52631,0.52631 1.18456,2.65409 1.46279,4.7284 0.59815,4.45956 1.34823,3.99197 -19.2505,12.00042 -7.3423,2.85457 -16.56785,6.50065 -20.50122,8.1024 -7.58007,3.08676 -27.5052,7.8581 -42.77855,10.24392 -5.05432,0.78952 -10.36968,1.67477 -11.81192,1.96722 -1.44223,0.29245 -2.62225,0.33139 -2.62225,0.0865 z"
       id="path5803" />
    <path
       style="fill:#f4e3d7;stroke:#000000;stroke-width:0.953545"
       d="m 823.92262,505.8478 c -9.39427,-1.85413 -18.15595,-7.48106 -23.30748,-14.96855 -3.50625,-5.09616 -6.50959,-14.08458 -6.50959,-19.48196 v -3.81871 l 4.52934,0.52886 c 2.49113,0.29088 9.14211,0.80153 14.77995,1.13479 l 10.25061,0.60592 v 3.74602 c 0,3.02795 0.41903,3.90534 2.18599,4.57714 1.2023,0.45711 11.07149,1.14694 21.93154,1.53296 10.86005,0.38601 19.74555,1.0076 19.74555,1.38131 0,1.44647 -7.85163,12.73331 -10.76143,15.46971 -4.18993,3.94026 -13.56429,8.25821 -20.33649,9.36725 -6.32697,1.03614 -6.8968,1.03273 -12.50799,-0.0747 z"
       id="path5805" />
    <path
       style="fill:#f4e3d7;stroke:#000000;stroke-width:0.953545"
       d="m 822.81167,504.39035 c -15.45736,-4.15672 -25.6589,-15.75851 -27.49601,-31.27007 l -0.55312,-4.67021 4.20084,0.57146 c 2.31047,0.3143 8.59907,0.8574 13.97468,1.20689 l 9.77384,0.63543 v 3.09781 c 0,1.7038 0.63673,3.62626 1.41496,4.27213 0.9195,0.76311 8.01464,1.50206 20.26283,2.11035 10.36634,0.51482 19.40276,1.10529 20.08094,1.31216 1.59505,0.48654 0.40606,2.79647 -5.21868,10.13865 -3.30857,4.31879 -5.59295,6.14115 -11.05797,8.82145 -6.20619,3.0438 -14.6009,5.38735 -18.69902,5.22019 -0.84621,-0.0345 -3.85369,-0.68532 -6.68329,-1.44624 z"
       id="path5807" />
    <path
       style="fill:#f4e3d7;stroke:#000000;stroke-width:0.337129"
       d="m 811.36822,436.80755 c -0.32449,-0.0848 -0.58997,-0.29328 -0.58997,-0.46331 0,-0.9631 7.20791,-5.02841 10.451,-5.89443 3.1635,-0.84477 11.59651,-1.35028 15.29856,-0.91707 1.77502,0.20771 3.38514,0.47521 3.57805,0.59444 1.00546,0.6214 -0.58921,0.84444 -6.03758,0.84444 h -6.00042 l -1.25764,3.03416 -1.25764,3.03416 -6.79719,-0.0391 c -3.73846,-0.0215 -7.06268,-0.10849 -7.38717,-0.19329 z"
       id="path5809" />
    <path
       style="fill:#f4e3d7;stroke:#000000;stroke-width:0.168565"
       d="m 622.17104,322.61992 c -2.3195,-0.27614 -3.37988,-0.47382 -3.99891,-0.74548 -2.61158,-1.14606 -1.52494,-5.31553 2.35648,-9.04185 1.82839,-1.75532 2.3102,-1.93574 5.43513,-2.03528 4.8363,-0.15406 7.12203,0.91591 9.43614,4.41713 1.48703,2.24984 2.58083,4.77009 2.34124,5.39447 -0.17445,0.45461 -3.2657,1.23036 -6.73207,1.68943 -1.94583,0.25769 -7.63569,0.46472 -8.83801,0.32158 z"
       id="path5811" />
    <path
       style="fill:#f4e3d7;stroke:#000000;stroke-width:0.168565"
       d="m 565.04344,330.08424 c -1.36169,-0.47713 -1.67824,-1.91945 -1.38647,-6.31734 0.27492,-4.14401 0.71382,-5.99702 2.06044,-8.69899 2.40673,-4.82907 6.69632,-8.1462 11.95258,-9.2429 2.19369,-0.4577 5.29603,-0.3434 7.55278,0.27828 3.04136,0.83781 5.18215,2.07388 7.59161,4.38333 4.28373,4.10591 7.21876,9.88744 6.85166,13.49667 -0.14718,1.44708 -0.37137,1.90694 -1.11448,2.28604 -1.33626,0.68171 -3.22659,0.94852 -16.07748,2.26922 -5.00637,0.51451 -10.75581,1.12232 -12.77653,1.35069 -4.18177,0.4726 -3.89603,0.46062 -4.65411,0.195 z"
       id="path5813" />
    <path
       style="fill:#918a6f;stroke:#000000;stroke-width:0.953545"
       d="m 954.57623,294.32068 c -19.85816,-2.05428 -31.59925,-7.92739 -42.91087,-21.46485 l -4.8572,-5.81296 10.52566,-5.54207 c 24.45593,-12.87679 30.79703,-19.76864 26.2605,-28.54132 -3.74932,-7.25039 -11.00579,-7.26426 -32.84382,-0.0627 -8.10843,2.67392 -14.82791,4.86167 -14.93218,4.86167 -0.93127,0 -2.38232,-15.07671 -1.92482,-19.99926 0.9398,-10.11194 3.04947,-15.56262 9.13796,-23.60949 6.99023,-9.23864 24.40061,-26.34304 31.9971,-31.43476 12.6584,-8.48458 38.94137,-22.53495 49.8108,-26.6279 3.27124,-1.2318 9.86377,-3.76988 14.65007,-5.64016 4.78627,-1.87029 8.79807,-3.27056 8.91497,-3.11171 0.117,0.15884 1.8122,4.97488 3.7673,10.7023 13.5321,39.64378 34.8882,77.20473 54.4748,95.81007 l 7.2278,6.86578 -6.4889,6.21748 c -22.7181,21.76784 -41.1501,34.48643 -57.8593,39.92464 -20.63977,6.71742 -38.59664,9.15697 -54.94987,7.46527 z"
       id="path5815" />
    <path
       style="fill:#918a6f;stroke:#000000;stroke-width:0.953545"
       d="m 861.49965,272.41478 c -4.46337,-10.09248 -4.44021,-10.18459 3.57561,-14.22497 17.04033,-8.58917 51.53373,-22.05118 61.84816,-24.13797 11.05306,-2.23622 14.68319,2.04444 7.77255,9.16539 -6.58607,6.78649 -23.45381,15.60747 -53.25863,27.85159 -9.02163,3.70617 -16.66168,6.7385 -16.9779,6.7385 -0.31622,0 -1.64813,-2.42664 -2.95979,-5.39254 z"
       id="path5817" />
    <path
       style="fill:#668000;stroke:#000000;stroke-width:0.953545"
       d="m 910.68952,172.13587 c 1.72382,-2.14505 4.81219,-5.06294 6.86307,-6.4842 6.77007,-4.69166 3.00703,-7.6074 -5.96993,-4.62573 -2.64398,0.87819 -4.99952,1.40442 -5.23455,1.1694 -0.23502,-0.23502 0.89585,-2.09229 2.51303,-4.12726 1.92884,-2.42713 2.53628,-3.83463 1.76577,-4.09146 -0.64602,-0.21534 -4.77632,0.14432 -9.17845,0.79924 -4.40212,0.65493 -8.23059,0.96405 -8.5077,0.68693 -0.27712,-0.27711 1.24828,-3.40891 3.38978,-6.95955 5.89811,-9.7792 5.84088,-9.84789 -6.27311,-7.52983 -8.37709,1.603 -10.81127,1.763 -10.81127,0.71067 0,-0.3959 2.35137,-3.84545 5.22526,-7.66567 3.6447,-4.84484 4.84053,-7.09349 3.95333,-7.43394 -0.69957,-0.26845 -5.50081,-0.0554 -10.66943,0.47334 -5.16861,0.52878 -9.5803,0.77861 -9.80374,0.55517 -0.22345,-0.22344 0.97849,-1.17058 2.67097,-2.10474 9.88677,-5.457 13.79208,-8.76717 12.20999,-10.34926 -0.25487,-0.25488 -4.06247,0.16015 -8.46132,0.92228 -4.39886,0.76214 -11.17475,1.69475 -15.05754,2.07249 l -7.05961,0.68678 6.29117,-7.72912 c 6.68416,-8.21193 8.78094,-11.458787 7.94184,-12.297888 -0.28462,-0.284627 -2.40712,-0.04169 -4.71665,0.539855 -7.0497,1.775133 -17.44602,2.447513 -18.23,1.179023 -0.41352,-0.669102 1.83061,-3.935652 5.58803,-8.133903 3.45349,-3.858669 6.27907,-7.487955 6.27907,-8.065083 0,-1.451511 -3.41207,-1.295264 -9.04837,0.414347 -5.3297,1.616616 -24.32571,3.07013 -24.32571,1.861327 0,-0.42845 3.96913,-4.521848 8.82029,-9.096442 4.85116,-4.574594 8.54605,-8.604141 8.21087,-8.954548 -0.33518,-0.350408 -6.31187,-1.084439 -13.28152,-1.63118 -18.22453,-1.429639 -18.42903,-1.614423 -7.63303,-6.897006 4.94421,-2.419248 9.97519,-4.398633 11.17995,-4.398633 3.28774,0 14.14281,10.480463 41.44275,40.012563 13.31379,14.402388 31.82334,34.109608 41.13232,43.793818 9.30899,9.68421 16.88566,17.85337 16.83704,18.15369 -0.11668,0.72074 -19.01937,17.60298 -20.24069,18.07724 -0.52036,0.20205 0.46428,-1.38767 2.18809,-3.53272 z"
       id="path5819" />
    <path
       style="fill:#44aa00;stroke:#000000;stroke-width:0.953545"
       d="m 829.29037,243.36393 c -3.00031,-3.67259 -5.65424,-7.19634 -5.89761,-7.83058 -0.36258,-0.94486 29.09453,-27.11149 35.83828,-31.835 1.85521,-1.29944 1.61504,-1.701 -6.3294,-10.58296 -9.04078,-10.10768 -17.44585,-20.97201 -19.68334,-25.44255 -3.11779,-6.22937 -3.77915,-13.12432 -2.15926,-22.5111 1.74473,-10.11015 5.55511,-18.18716 12.8095,-27.15273 4.48495,-5.54288 9.6319,-9.92363 9.6319,-8.19806 0,0.45381 -3.06781,4.86193 -6.81736,9.79582 -13.81757,18.18205 -16.11089,29.9766 -8.86699,45.60298 4.21192,9.08586 10.86339,17.28754 29.06353,35.83718 17.76404,18.10515 20.94845,21.76116 20.94845,24.0508 0,2.15442 -2.34861,1.31646 -8.55075,-3.05087 l -6.06253,-4.26901 -4.84468,3.48056 c -2.66457,1.9143 -10.53138,8.6211 -17.4818,14.904 -6.95042,6.28289 -13.42591,11.97593 -14.38997,12.65119 -1.57069,1.10016 -2.31977,0.53381 -7.20797,-5.44967 z"
       id="path5821" />
    <path
       style="fill:#44aa00;stroke:#000000;stroke-width:0.953545"
       d="m 920.86443,160.2919 c -1.7775,-1.88645 -2.75034,-1.90006 -9.77557,-0.13684 l -2.70743,0.67951 1.64263,-2.50697 c 3.58397,-5.46982 2.32275,-6.11479 -8.81067,-4.50576 -3.3893,0.48982 -6.31611,0.73685 -6.50402,0.54892 -0.18792,-0.18791 1.29785,-3.35944 3.30171,-7.04784 4.86483,-8.95439 4.29019,-9.52998 -7.38219,-7.39449 -4.81763,0.8814 -8.94786,1.414 -9.1783,1.18356 -0.23044,-0.23044 1.55729,-3.30561 3.97272,-6.83372 2.41544,-3.52811 4.22528,-6.89775 4.02186,-7.48808 -0.24583,-0.71343 -3.2168,-0.98929 -8.86022,-0.8227 -7.08742,0.20923 -8.19724,0.0517 -6.71636,-0.95354 9.41139,-6.38836 11.35703,-8.48079 9.55675,-10.27772 -0.48557,-0.48468 -6.08726,-0.0569 -13.23786,1.01095 -17.24547,2.57535 -16.57771,2.79543 -11.18384,-3.68597 6.37816,-7.66414 9.25522,-12.493024 8.11984,-13.628409 -0.59207,-0.592069 -2.42659,-0.59425 -5.12702,-0.0061 -6.95908,1.515698 -17.07793,2.321589 -17.07793,1.360141 0,-0.48578 1.98716,-3.211247 4.4159,-6.056591 9.51901,-11.151808 9.21349,-12.540708 -2.22702,-10.12425 -4.08836,0.86354 -11.08069,1.838078 -15.53851,2.165641 l -8.10514,0.595568 8.46195,-8.592596 c 4.65406,-4.725927 8.19923,-9.017663 7.87814,-9.537192 -0.32108,-0.519529 -6.38171,-1.487405 -13.46805,-2.150836 -7.08634,-0.663431 -12.88426,-1.588843 -12.88426,-2.056471 0,-0.864612 10.93845,-6.098552 14.6514,-7.010551 3.25794,-0.800234 11.71784,7.048612 38.57177,35.785735 13.46992,14.414531 31.98703,34.084901 41.14913,43.711921 20.75505,21.80826 19.97357,20.73305 17.07517,23.49289 -2.25127,2.14364 -2.27845,2.14554 -4.03458,0.28179 z"
       id="path5823" />
    <path
       style="fill:#ffffff;stroke-width:0.337129"
       d="m 877.18104,459.76714 c -1.71991,-1.71991 -1.32616,-5.97028 0.6404,-6.91282 1.2018,-0.57599 4.16313,-0.62109 5.17637,-0.0788 0.40622,0.21741 0.96772,0.83838 1.24778,1.37994 0.59186,1.14453 0.67217,3.79207 0.14491,4.77726 -0.52135,0.97415 -2.35166,1.63494 -4.5286,1.63494 -1.5297,0 -2.02964,-0.14928 -2.68086,-0.8005 z"
       id="path967" />
    <path
       style="fill:#ffffff;stroke-width:0.337129"
       d="m 848.2963,460.05641 c -2.17193,-1.1799 -2.17349,-7.06495 -0.002,-8.22699 0.86776,-0.46442 2.76718,-0.46749 3.99002,-0.006 1.75499,0.66165 4.15178,3.44714 4.15178,4.82508 0,0.83142 -1.7459,2.6305 -3.18878,3.28591 -1.62572,0.73846 -3.72151,0.7903 -4.95084,0.12246 z"
       id="path971" />
    <path
       style="fill:#ffffff;stroke-width:0.337129"
       d="m 877.18104,459.76714 c -1.71991,-1.71991 -1.32616,-5.97028 0.6404,-6.91282 1.2018,-0.57599 4.16313,-0.62109 5.17637,-0.0788 0.40622,0.21741 0.96772,0.83838 1.24778,1.37994 0.59186,1.14453 0.67217,3.79207 0.14491,4.77726 -0.52135,0.97415 -2.35166,1.63494 -4.5286,1.63494 -1.5297,0 -2.02964,-0.14928 -2.68086,-0.8005 z"
       id="path973" />
  </g>
</svg>
