<?xml version="1.0" encoding="UTF-8" standalone="no"?>
<svg
   xmlns:dc="http://purl.org/dc/elements/1.1/"
   xmlns:cc="http://creativecommons.org/ns#"
   xmlns:rdf="http://www.w3.org/1999/02/22-rdf-syntax-ns#"
   xmlns:svg="http://www.w3.org/2000/svg"
   xmlns="http://www.w3.org/2000/svg"
   xmlns:sodipodi="http://sodipodi.sourceforge.net/DTD/sodipodi-0.dtd"
   xmlns:inkscape="http://www.inkscape.org/namespaces/inkscape"
   version="1.1"
   id="svg2105"
   width="450"
   height="422"
   viewBox="0 0 450 422"
   sodipodi:docname="flower01.svg"
   inkscape:version="1.0.1 (3bc2e813f5, 2020-09-07)">
  <metadata
     id="metadata2111">
    <rdf:RDF>
      <cc:Work
         rdf:about="">
        <dc:format>image/svg+xml</dc:format>
        <dc:type
           rdf:resource="http://purl.org/dc/dcmitype/StillImage" />
        <dc:title></dc:title>
      </cc:Work>
    </rdf:RDF>
  </metadata>
  <defs
     id="defs2109" />
  <sodipodi:namedview
     pagecolor="#ffffff"
     bordercolor="#666666"
     borderopacity="1"
     objecttolerance="10"
     gridtolerance="10"
     guidetolerance="10"
     inkscape:pageopacity="0"
     inkscape:pageshadow="2"
     inkscape:window-width="1920"
     inkscape:window-height="1001"
     id="namedview2107"
     showgrid="false"
     inkscape:zoom="1.9668246"
     inkscape:cx="225"
     inkscape:cy="211"
     inkscape:window-x="-9"
     inkscape:window-y="-9"
     inkscape:window-maximized="1"
     inkscape:current-layer="g2113" />
  <g
     inkscape:groupmode="layer"
     inkscape:label="Image"
     id="g2113">
    <path
       style="fill:#ffcc00;stroke-width:0.881213"
       d="m 215.38558,382.28426 c -12.83136,-3.56551 -24.82513,-13.46738 -30.83297,-25.45521 -5.14576,-10.26765 -6.66738,-18.69934 -5.3946,-29.89252 0.54788,-4.81809 0.86528,-8.89104 0.70533,-9.05097 -0.15994,-0.15994 -2.3876,2.46728 -4.95035,5.83827 -6.09373,8.01553 -16.14891,17.50801 -22.15574,20.91586 -5.5874,3.1699 -14.28731,5.98505 -21.14347,6.84166 -5.31492,0.66405 -13.75,-1.07253 -19.28364,-3.97005 -10.07417,-5.27505 -15.914672,-16.06402 -15.914672,-29.39873 0,-20.08574 12.290762,-37.73395 37.892042,-54.4089 3.87748,-2.52553 6.90323,-4.7386 6.72388,-4.91795 -0.17935,-0.17935 -3.29182,0.66948 -6.91657,1.88627 -16.42713,5.51441 -38.323322,6.86035 -53.04816,3.26083 -22.076746,-5.39672 -36.218337,-19.34564 -37.340527,-36.83181 -0.334655,-5.21477 0.01447,-7.76962 1.878518,-13.74844 6.064112,-19.44971 21.614226,-32.53212 43.761115,-36.81649 7.059392,-1.36564 25.045514,-1.1142 32.502344,0.45439 8.84633,1.86087 9.05077,1.7531 3.27361,-1.72571 -17.88404,-10.7692 -27.834592,-23.00237 -31.908742,-39.22848 -1.931366,-7.69201 -1.30546,-20.76738 1.27536,-26.64304 5.24329,-11.937202 21.840622,-20.471482 39.799242,-20.464639 18.04851,0.007 31.38214,8.515311 40.39011,25.773659 l 3.42876,6.56915 0.47866,-11.34363 c 0.78178,-18.526356 4.85235,-29.391289 14.66554,-39.14436 9.19005,-9.133755 20.3565,-13.535736 34.46394,-13.586207 7.73797,-0.02768 8.84801,0.19545 14.2827,2.870932 6.74597,3.321031 10.63275,7.408071 14.64114,15.395482 4.24843,8.465724 5.78369,15.567368 5.76028,26.645383 -0.0219,10.38266 -0.35202,11.95537 -7.72166,36.7906 -2.12135,7.14884 -3.71053,12.99788 -3.53149,12.99788 0.17904,0 2.11449,-3.56203 4.30098,-7.91562 13.59356,-27.06639 30.74975,-43.80609 52.98479,-51.698501 5.97262,-2.120014 8.30287,-2.468495 16.63865,-2.488293 8.63217,-0.02052 10.22391,0.227515 14.53999,2.265611 7.07793,3.342276 13.88356,9.874653 16.87463,16.197113 2.11498,4.47063 2.50843,6.41794 2.49651,12.35666 -0.0112,5.90292 -0.4805,8.19648 -2.88115,14.0994 -5.50065,13.5255 -15.62607,26.53459 -30.58938,39.30104 -3.15033,2.68782 -7.03949,5.79376 -8.64256,6.90211 -1.60306,1.10835 -2.76225,2.16759 -2.57596,2.35388 0.18629,0.18629 4.05186,-0.4717 8.59013,-1.4622 10.5911,-2.31153 27.68843,-2.5244 36.49811,-0.4544 12.11732,2.8472 22.19351,9.64907 27.36403,18.47189 5.46956,9.33307 7.28531,21.48702 4.42236,29.60151 -5.50592,15.6054 -25.75042,26.73597 -52.26902,28.73787 l -8.05184,0.60784 3.72116,2.43058 c 25.00944,16.33573 27.31833,48.56534 4.60238,64.24413 -6.31364,4.35775 -13.69986,6.30054 -24.1455,6.35102 -7.34908,0.0356 -10.54838,-0.36308 -15.00552,-1.86945 -13.57615,-4.58828 -19.47891,-9.12562 -34.42747,-26.46372 -1.04467,-1.21167 -1.64683,-1.70624 -1.33811,-1.09902 0.87424,1.71957 4.60635,15.23883 5.28932,19.16012 1.05379,6.05054 0.60391,18.37031 -0.91984,25.18878 -2.29918,10.28844 -7.66871,20.59052 -13.97333,26.80957 -8.15053,8.03992 -12.00741,9.60741 -24.30923,9.87959 -7.00022,0.15489 -11.63066,-0.19168 -14.97411,-1.12074 z m 27.24549,-6.32385 c 5.40364,-1.89039 7.48632,-3.22316 11.95579,-7.6509 9.82861,-9.73684 13.39989,-19.98451 12.46347,-35.76356 -1.2955,-21.82929 -9.89906,-42.86436 -24.44951,-59.77728 l -3.18009,-3.6964 -4.31021,0.87392 c -2.37063,0.48067 -5.74677,1.08993 -7.50254,1.35391 -2.88103,0.43318 -3.24526,0.80035 -3.73545,3.76565 -0.29872,1.80711 -0.5475,5.36753 -0.55284,7.91202 -0.006,2.8422 -0.3932,4.62637 -1.00413,4.62637 -0.69037,0 -0.86122,-2.08816 -0.55873,-6.82939 0.23964,-3.75617 0.588,-7.3542 0.77413,-7.99562 0.25499,-0.8787 -1.29104,-1.22961 -6.27066,-1.42332 -3.635,-0.1414 -7.6709,-0.54461 -8.96867,-0.89602 -2.06568,-0.55936 -2.54548,-0.27233 -3.85209,2.30451 -0.82087,1.61891 -3.34923,5.71929 -5.61857,9.11197 -6.70636,10.02604 -8.75048,14.00124 -11.64593,22.64809 -3.29278,9.83337 -4.38004,24.42932 -2.50042,33.56719 4.7603,23.14265 19.39147,37.99889 39.63538,40.24511 7.59916,0.84319 11.4842,0.36537 19.32107,-2.37625 z M 139.53855,345.20939 c 6.24201,-1.54961 12.5208,-4.41926 18.12115,-8.28209 7.97116,-5.49806 24.5034,-24.45749 25.44895,-29.18522 0.77742,-3.88713 5.57188,-13.20112 13.17352,-25.59166 3.71797,-6.06024 6.75995,-11.40308 6.75995,-11.87302 0,-0.46992 -2.16488,-1.75169 -4.81084,-2.84838 -2.64596,-1.0967 -6.66691,-3.41119 -8.93544,-5.14336 l -4.12461,-3.14937 -3.93425,2.11726 c -4.10198,2.20752 -9.81748,7.97228 -14.98596,15.11514 -1.66582,2.30216 -3.38811,4.18575 -3.82732,4.18575 -3.76883,0 9.06156,-17.30026 15.58444,-21.01378 4.39837,-2.50402 4.38654,-2.42585 0.994,-6.56599 -1.7682,-2.15786 -3.6711,-4.92458 -4.22865,-6.14827 -1.00644,-2.2089 -1.03674,-2.21443 -4.21709,-0.76931 -12.42629,5.64642 -34.52874,18.51085 -45.22743,26.32403 -20.06466,14.65308 -29.504762,32.35197 -25.373092,47.57104 5.501152,20.26366 20.680922,29.94968 39.582672,25.25723 z m 193.21489,-20.76877 c 6.40421,-2.97072 12.54383,-9.1105 15.51386,-15.51424 1.92613,-4.15295 2.31974,-6.23722 2.27927,-12.06952 -0.0562,-8.10256 -1.69131,-13.48244 -6.27592,-20.64934 -7.52389,-11.76173 -16.84568,-17.7932 -36.03706,-23.31706 -15.32357,-4.41059 -38.21937,-7.46756 -38.21937,-5.10292 0,0.39552 -1.95745,2.78231 -4.3499,5.30396 l -4.34991,4.5848 5.45143,2.48283 c 6.07477,2.76674 11.1793,6.68317 11.1793,8.57728 0,1.95209 -1.63804,1.48313 -6.05042,-1.73217 -2.24594,-1.63661 -6.20418,-4.04224 -8.79612,-5.34582 -4.2196,-2.1222 -4.86533,-2.23193 -6.1726,-1.04885 -0.803,0.7267 -4.34337,2.74628 -7.8675,4.48796 l -6.40751,3.16666 2.72934,2.84058 c 1.50114,1.56233 6.14831,7.99568 10.32706,14.29634 4.17875,6.30066 7.81851,11.65403 8.08834,11.89637 0.26984,0.24232 2.0768,2.41387 4.01547,4.82566 9.97358,12.40756 20.18371,19.29518 34.80787,23.48095 8.82176,2.52498 23.39595,1.96229 30.13437,-1.16347 z m -101.89468,-56.2657 c 15.9437,-2.81672 32.45177,-14.03419 38.64799,-26.26186 10.39893,-20.52127 2.7979,-49.45438 -16.92738,-64.43362 -5.47182,-4.15526 -14.6791,-7.74038 -22.24295,-8.66092 -19.48503,-2.37142 -35.98425,4.88748 -49.65959,21.84795 -5.4111,6.71095 -8.80888,19.35499 -8.27686,30.80038 0.47449,10.20777 2.60319,16.63034 8.26388,24.9333 11.71526,17.18367 30.37168,25.2769 50.19491,21.77477 z m -109.77728,-7.44636 c 15.09939,-2.65472 31.26559,-7.74004 42.74671,-13.44658 4.36199,-2.16807 7.99197,-3.9953 8.0666,-4.0605 0.0746,-0.0652 -1.00742,-3.48919 -2.40456,-7.60886 -1.39714,-4.11966 -2.54872,-8.16896 -2.55903,-8.99845 -0.0384,-3.08988 -14.23736,-4.29331 -22.70999,-1.92479 -1.09084,0.30494 -1.98272,0.16322 -1.98272,-0.31508 0,-1.31846 9.63651,-2.93617 17.59462,-2.95365 l 7.07932,-0.0156 0.0216,-4.57228 c 0.0112,-2.51477 0.4241,-6.31865 0.91613,-8.45308 0.83465,-3.62078 0.73285,-4.04961 -1.51933,-6.40038 -5.55218,-5.79522 -18.70079,-13.70037 -29.6304,-17.81428 -15.33533,-5.7722 -34.64588,-7.11283 -48.860554,-3.39216 -25.125593,6.57664 -39.891052,22.33105 -39.891052,42.5628 0,20.1325 15.430848,34.68171 41.010657,38.66754 6.351697,0.98972 23.000539,0.32908 32.122009,-1.27465 z m 231.32606,-8.76225 c 17.28797,-4.66844 26.519,-10.88613 32.78317,-22.08156 2.16068,-3.86161 2.46532,-5.33161 2.46532,-11.89636 0,-6.45008 -0.34858,-8.20019 -2.51005,-12.60202 -7.18759,-14.6376 -21.17958,-21.20581 -45.07541,-21.15961 -20.52633,0.0396 -40.08004,5.4488 -60.03195,16.60654 l -5.44848,3.04697 1.12655,3.74951 c 0.61961,2.06224 1.41648,6.25424 1.77082,9.31557 0.52816,4.56313 0.89485,5.46987 2.03507,5.03234 0.76496,-0.29354 5.39605,-0.97105 10.29134,-1.50556 9.69522,-1.05861 19.29765,-0.37629 18.73252,1.33109 -0.2339,0.70662 -4.96136,1.18395 -14.9994,1.51446 -8.06182,0.26544 -14.88225,0.70703 -15.15651,0.98128 -0.27427,0.27424 -0.84669,2.63462 -1.27209,5.24525 -0.4254,2.61064 -1.60286,6.9276 -2.61657,9.59327 -1.01371,2.66566 -1.84332,4.9458 -1.84357,5.06696 -2.4e-4,0.12112 2.27971,0.22264 5.06653,0.22551 7.92501,0.008 21.70338,2.35812 33.26575,5.67372 5.816,1.66778 11.56592,3.2243 12.77758,3.45894 4.45348,0.86243 23.45669,-0.19679 28.63938,-1.5963 z M 279.3083,199.0539 c 5.89262,-3.76946 15.48736,-8.64266 21.55762,-10.94917 9.18339,-3.48942 27.89631,-17.85063 36.72669,-28.18586 15.32482,-17.93647 20.56733,-36.34755 14.02575,-49.25673 -2.73806,-5.40332 -9.01998,-11.18276 -15.26034,-14.039683 -4.54935,-2.082765 -5.54428,-2.207313 -13.81313,-1.729239 -10.20235,0.589864 -14.86705,1.870214 -24.77249,6.799462 -17.56857,8.74269 -32.92417,27.12673 -48.43722,57.99009 -2.76128,5.49358 -4.88886,10.06825 -4.72799,10.16594 4.89533,2.97307 10.81608,7.32283 13.74266,10.0962 l 3.75684,3.5602 1.68708,-3.30694 c 3.73794,-7.327 24.32945,-24.64356 26.60194,-22.37107 0.5227,0.5227 -1.39356,2.26416 -5.14806,4.67849 -9.37262,6.02701 -21.40191,18.35177 -21.40191,21.92759 0,0.51431 1.37349,2.73448 3.05221,4.93372 1.67871,2.19923 3.95653,5.96984 5.06182,8.37914 1.10527,2.40928 2.13011,4.38054 2.27738,4.38054 0.14729,0 2.42931,-1.38271 5.07115,-3.07268 z m -105.608,-4.64547 c 2.037,-3.26736 4.95312,-7.25197 6.48028,-8.85469 l 2.77665,-2.91404 -3.32375,-5.01687 c -1.82804,-2.75927 -5.70085,-7.49692 -8.6062,-10.5281 -2.90535,-3.03119 -5.05752,-5.73619 -4.78259,-6.01113 0.58463,-0.58462 12.27718,10.81857 16.27941,15.8765 l 2.74804,3.47292 3.37742,-3.04749 c 1.85757,-1.67612 4.87968,-3.97463 6.71579,-5.1078 l 3.33835,-2.06034 -2.06666,-2.77116 c -5.65968,-7.58895 -10.68575,-17.97793 -14.34345,-29.64813 -5.95611,-19.00348 -18.56507,-35.93533 -31.44318,-42.223292 -14.83829,-7.24505 -33.81475,-4.425587 -45.82493,6.808542 -4.88309,4.56756 -6.585182,7.40395 -8.296212,13.82506 -3.880757,14.56346 3.776862,34.77752 17.424812,45.99689 1.63342,1.34277 3.16814,2.707 3.41048,3.03161 0.65162,0.87287 19.92642,13.05356 26.30241,16.62179 3.03115,1.69633 8.08309,4.9652 11.22654,7.26416 3.14347,2.29897 6.87265,4.77837 8.28708,5.50979 1.41444,0.73143 3.28342,2.30778 4.15329,3.503 0.86986,1.19521 1.77985,2.18219 2.02218,2.19326 0.24234,0.0112 2.10725,-2.65314 4.14424,-5.92048 z m 33.38963,-27.65509 c 7.6158,-2.7613 20.55474,-2.77306 29.33367,-0.0267 3.87211,1.21134 6.82665,1.71273 7.3005,1.23887 0.43779,-0.43779 1.55606,-3.93481 2.48502,-7.77113 0.92896,-3.83631 2.91317,-10.54403 4.40935,-14.90602 8.37979,-24.43066 10.5608,-40.11519 7.55205,-54.310038 -6.50522,-30.690667 -39.99358,-39.819546 -62.6187,-17.069725 -9.89084,9.945346 -14.04824,21.142517 -14.06957,37.893743 -0.0197,15.50435 1.91189,22.92993 11.02518,42.38327 1.91675,4.09149 3.48499,7.70432 3.48499,8.02852 0,1.20421 4.00008,6.41455 4.92902,6.42036 0.52995,0.004 3.30577,-0.84322 6.16849,-1.88116 z"
       id="path2678" />
    <path
       style="fill:#ffe680;stroke:#000000;stroke-width:0.508434"
       d="m 89.50241,261.80653 c -1.95747,-0.26985 -5.674822,-1.05276 -8.260782,-1.7398 C 64.869244,255.7169 53.99358,246.58217 49.760906,233.6253 c -1.125639,-3.44575 -1.331663,-5.00004 -1.347876,-10.16867 -0.02231,-7.11317 0.76363,-10.66179 3.716027,-16.77832 5.653575,-11.7126 18.379249,-20.92397 35.082236,-25.39398 15.820617,-4.23388 36.276067,-2.47102 52.691327,4.54097 10.09581,4.31255 21.78878,11.63819 26.17924,16.40128 2.00688,2.17721 2.08153,2.37552 1.74444,4.63422 -0.95745,6.41552 -1.26432,9.18927 -1.27954,11.5656 l -0.0166,2.59628 -7.75361,0.29029 c -10.24801,0.38368 -16.99817,1.65376 -16.4918,3.10304 0.23282,0.66636 0.8762,0.64504 5.9418,-0.19688 4.8379,-0.80408 13.22902,-0.41291 16.11177,0.75107 1.70428,0.68815 2.19718,1.1816 2.46683,2.46959 0.2627,1.25482 2.53164,8.67796 4.57246,14.95941 0.25765,0.79301 -9.4255,5.70271 -17.65888,8.95368 -10.89204,4.30076 -25.90255,8.22714 -37.02742,9.68549 -7.46312,0.97832 -22.568531,1.4051 -27.18886,0.76816 z"
       id="path2680" />
    <path
       style="fill:#ffe680;stroke:#000000;stroke-width:0.508434"
       d="m 167.89005,198.10623 c -0.71661,-0.93952 -2.51693,-2.47398 -4.0007,-3.40991 -1.48378,-0.93592 -5.21453,-3.45209 -8.29055,-5.59149 -3.07603,-2.1394 -9.71109,-6.36419 -14.74458,-9.38842 -15.32358,-9.20675 -23.06064,-14.50823 -28.0037,-19.18832 -15.239198,-14.42847 -20.994197,-35.77963 -13.585066,-50.40084 2.628116,-5.18635 9.844906,-11.481514 16.753576,-14.614051 5.89081,-2.671022 11.22072,-3.629609 18.73398,-3.369313 5.68922,0.197102 7.22995,0.444519 11.06414,1.776719 7.8052,2.71194 14.7309,7.795625 20.70917,15.201175 7.08517,8.77673 11.43348,16.97441 16.01323,30.18906 4.193,12.09867 8.43001,20.77914 13.57677,27.81504 1.06518,1.45616 1.93669,2.73817 1.93669,2.8489 0,0.11073 -1.54437,1.22861 -3.43193,2.48418 -1.88756,1.25556 -4.72258,3.46287 -6.30005,4.90513 l -2.86813,2.62229 -3.62565,-4.27056 c -3.89786,-4.59119 -13.08867,-13.6325 -14.77575,-14.5354 -2.13458,-1.14239 -0.97842,0.80417 3.31771,5.58585 4.63596,5.1599 9.16834,10.9235 10.90594,13.86851 l 1.06559,1.80604 -3.2023,3.98846 c -1.76126,2.19366 -4.57507,6.09913 -6.2529,8.67885 -1.67783,2.5797 -3.19504,4.69396 -3.37158,4.69835 -0.17654,0.005 -0.9073,-0.76072 -1.62391,-1.70025 z"
       id="path2682" />
    <path
       style="fill:#ffe680;stroke:#000000;stroke-width:0.508434"
       d="m 199.00426,166.32821 c -1.68512,-2.00717 -7.23464,-13.80648 -11.63089,-24.72941 -4.57207,-11.3598 -5.86595,-18.90188 -5.45151,-31.77711 0.44051,-13.685031 2.97174,-22.023379 9.20116,-30.310341 10.31101,-13.716674 26.52819,-20.564457 40.39626,-17.057516 17.4659,4.416756 27.54578,19.471517 27.54578,41.140887 0,10.73562 -2.27398,21.81827 -8.31943,40.54624 -1.80536,5.59277 -3.66067,11.65585 -4.1229,13.4735 -0.46224,1.81765 -1.29343,4.84918 -1.84709,6.73674 -1.19865,4.08651 -1.20962,4.08932 -8.35405,2.14296 -9.77345,-2.66258 -20.7996,-2.57203 -29.91484,0.24569 -2.76087,0.85344 -5.2075,1.55172 -5.43696,1.55172 -0.22945,0 -1.15894,-0.88351 -2.06553,-1.96336 z"
       id="path2684" />
    <path
       style="fill:#ffe680;stroke:#000000;stroke-width:0.508434"
       d="m 272.47796,198.13765 c -1.00558,-2.01396 -3.33739,-5.91191 -5.18179,-8.66212 l -3.35347,-5.00037 1.23091,-2.32029 c 2.50536,-4.72265 12.48991,-14.16804 21.51216,-20.35052 3.84286,-2.63331 4.90725,-4.18989 2.86506,-4.18989 -4.64128,0 -22.448,15.64435 -26.23974,23.05329 l -1.25985,2.46173 -2.89128,-2.75096 c -2.91807,-2.77645 -8.92633,-7.36605 -12.40498,-9.47594 l -1.88719,-1.14462 1.27689,-2.89404 c 4.16458,-9.43889 13.56573,-26.02495 19.90436,-35.11641 7.06032,-10.12658 16.16455,-19.68138 23.74952,-24.92487 4.88481,-3.37686 13.64211,-7.72358 18.86223,-9.362327 5.13118,-1.610827 12.89143,-2.533656 19.38334,-2.305015 4.63068,0.163089 5.297,0.324544 9.06551,2.196639 5.51499,2.739703 12.23068,9.260943 14.4741,14.055023 5.46536,11.67921 1.63432,27.40593 -10.65782,43.75115 -8.91386,11.85302 -27.21878,26.81619 -39.40296,32.20955 -8.23984,3.64739 -16.17893,7.69761 -21.74512,11.09354 l -5.47156,3.3382 z"
       id="path2686" />
    <path
       style="fill:#ffe680;stroke:#000000;stroke-width:0.508434"
       d="m 318.80602,251.96032 c -19.84056,-5.36142 -28.81287,-7.12136 -39.33753,-7.71616 -3.39201,-0.1917 -6.16729,-0.51577 -6.16729,-0.72015 0,-0.20439 0.5478,-1.82883 1.21734,-3.60986 0.66953,-1.78103 1.80348,-5.84793 2.51989,-9.03753 0.7164,-3.18961 1.48645,-5.98318 1.7112,-6.20794 0.22476,-0.22476 5.55428,-0.64598 11.84337,-0.93605 16.64249,-0.76758 19.39841,-1.15906 18.00052,-2.55694 -1.71728,-1.71728 -13.03321,-1.83756 -24.07979,-0.25595 -2.92137,0.41827 -5.49765,0.57441 -5.72508,0.34698 -0.22743,-0.22742 -0.86633,-3.14526 -1.41979,-6.48409 -0.55346,-3.33882 -1.33215,-7.1281 -1.73043,-8.42062 l -0.72415,-2.35004 4.65913,-2.55483 c 13.23115,-7.25531 22.69331,-11.02198 35.31488,-14.05805 16.58404,-3.98923 38.49187,-3.67898 50.2937,0.71223 9.87002,3.67243 17.82102,11.45795 21.03228,20.59455 0.77536,2.20605 0.97507,4.16514 0.97112,9.52661 -0.005,6.07112 -0.1289,7.01564 -1.23814,9.39812 -4.22223,9.06866 -12.17577,16.2209 -22.74202,20.45081 -9.3084,3.72637 -15.83379,4.91149 -29.65463,5.38582 -8.11,0.27832 -8.1552,0.2737 -14.74458,-1.50691 z"
       id="path2688" />
    <path
       style="fill:#ffe680;stroke:#000000;stroke-width:0.508434"
       d="m 306.29568,326.16667 c -7.52992,-1.43161 -17.25967,-5.64004 -23.75426,-10.27448 -7.37907,-5.2656 -15.94126,-14.774 -23.48917,-26.08496 -6.78039,-10.16081 -11.62866,-16.86967 -13.8627,-19.18272 -1.1422,-1.1826 -1.9766,-2.24321 -1.85423,-2.35692 0.12238,-0.11371 2.73926,-1.47871 5.81528,-3.03333 3.07603,-1.55462 6.27916,-3.29524 7.11807,-3.86804 0.83892,-0.57279 1.93141,-1.04296 2.42776,-1.0448 1.28577,-0.005 6.94259,2.95787 12.53479,6.56484 4.66495,3.00889 6.26448,3.61208 6.89088,2.59855 1.10383,-1.78604 -4.25965,-6.25309 -11.68693,-9.73363 -2.37573,-1.11331 -4.31951,-2.16646 -4.31951,-2.34035 0,-0.17389 1.42997,-1.82594 3.17771,-3.67122 1.74774,-1.84528 3.83596,-4.12499 4.64048,-5.06601 l 1.46277,-1.71095 4.63844,0.34555 c 16.54951,1.23292 37.50147,6.42488 48.87217,12.11068 11.41507,5.70799 20.00496,15.3293 23.95319,26.82931 0.78031,2.27283 0.96006,4.27877 0.96006,10.714 v 7.91761 l -2.2016,4.44447 c -3.84145,7.75487 -11.45635,14.21992 -19.10507,16.2202 -4.92789,1.28873 -16.94261,1.62519 -22.21813,0.6222 z"
       id="path2690" />
    <path
       style="fill:#ffe680;stroke:#000000;stroke-width:0.508434"
       d="m 221.69518,377.9114 c -20.19303,-2.79258 -35.97076,-21.27694 -38.4271,-45.01916 -0.54425,-5.2605 0.0636,-14.81932 1.34075,-21.08274 2.01048,-9.86013 5.0687,-16.66672 13.29938,-29.60003 3.01584,-4.73896 5.88733,-9.34003 6.38108,-10.2246 0.80074,-1.43453 1.0781,-1.57446 2.5671,-1.29513 0.91814,0.17225 4.59052,0.53614 8.16082,0.80866 3.5703,0.27251 6.6581,0.59847 6.86177,0.72434 0.20367,0.12588 0.20258,1.90313 -0.002,3.94945 -0.57117,5.70139 -0.51095,10.98628 0.12968,11.38222 0.95154,0.58808 1.45203,-0.89438 1.4709,-4.35682 0.0255,-4.67465 0.83146,-9.69517 1.69509,-10.55881 0.40411,-0.40411 3.77985,-1.29592 7.50164,-1.98181 6.63433,-1.22264 6.7823,-1.22813 7.55434,-0.28022 0.43309,0.53177 2.25535,2.77601 4.04945,4.98722 10.2101,12.58383 17.28773,27.50733 20.67645,43.59718 1.58116,7.50745 2.23796,21.44851 1.27187,26.99621 -1.61443,9.27075 -5.54194,16.12843 -13.48588,23.54719 -4.20774,3.92956 -8.17826,5.93607 -15.40272,7.78378 -3.66393,0.93708 -11.2008,1.23729 -15.6422,0.62307 z"
       id="path2692" />
    <path
       style="fill:#ffe680;stroke:#000000;stroke-width:0.508434"
       d="m 124.33012,345.45018 c -7.92288,-1.70778 -15.56648,-7.44346 -19.60854,-14.71404 -6.483721,-11.66249 -6.964709,-22.01037 -1.54042,-33.14039 5.56652,-11.42186 15.49778,-21.04033 33.35137,-32.30095 13.12012,-8.27513 34.30796,-19.72131 36.5058,-19.72131 0.54811,0 1.25448,0.6785 1.7203,1.65241 0.43468,0.90883 2.07863,3.3511 3.6532,5.42727 1.57458,2.07618 2.86287,3.94411 2.86287,4.15097 0,0.20686 -1.16601,1.09356 -2.59114,1.97045 -3.66695,2.2563 -7.17159,5.6603 -11.25854,10.93521 -4.90837,6.33513 -7.1477,10.94562 -5.31633,10.94562 0.79578,0 2.68887,-2.00164 6.73203,-7.11807 4.36342,-5.5217 8.94727,-9.86412 12.78749,-12.11398 l 3.35884,-1.96784 3.8637,2.77553 c 2.12504,1.52654 6.09446,3.89625 8.82094,5.26602 2.72647,1.36978 4.95723,2.66564 4.95723,2.8797 0,0.21406 -1.75047,3.35791 -3.88992,6.98633 -11.51175,19.52344 -13.13377,22.61884 -16.11208,30.74773 -1.02696,2.80294 -5.1732,8.39142 -11.62833,15.67315 -10.00991,11.29172 -17.45425,16.61028 -28.11064,20.08345 -7.35942,2.39861 -12.67109,2.85162 -18.55783,1.58274 z"
       id="path2694" />
    <path
       style="fill:#ffccaa;stroke:#000000;stroke-width:0.508434"
       d="m 217.88193,268.42986 c -6.04694,-0.44765 -10.1573,-1.54926 -16.10627,-4.31663 -5.72017,-2.66092 -8.38799,-4.46785 -13.01992,-8.8184 -6.86092,-6.44416 -12.87685,-16.16829 -14.82153,-23.95748 -1.88606,-7.55441 -1.56418,-18.79554 0.78217,-27.31581 2.03839,-7.40198 4.44879,-11.55222 10.34619,-17.81419 7.37088,-7.82652 16.52496,-13.5539 25.44707,-15.92132 5.21075,-1.38264 15.51405,-1.8705 20.9577,-0.99234 10.82917,1.74693 20.17175,6.64764 27.39667,14.3711 14.52312,15.52526 19.09785,39.60234 10.84387,57.07191 -6.27804,13.28753 -25.63483,26.09211 -41.54256,27.48056 -1.88075,0.16416 -3.87713,0.3596 -4.4364,0.43432 -0.55928,0.0747 -3.19043,-0.0251 -5.84699,-0.22172 z"
       id="path2696" />
    <path
       style="fill:#ffeeaa;stroke:#000000;stroke-width:0.508434"
       d="m 272.59757,197.3994 c -0.9533,-1.88756 -3.13051,-5.55588 -4.83823,-8.15183 l -3.10495,-4.71989 1.08175,-2.14396 c 1.58215,-3.13572 11.94975,-13.21251 19.16185,-18.62437 4.28909,-3.21848 6.20718,-4.96401 6.09601,-5.5476 -0.44275,-2.3241 -4.95789,-0.52811 -11.4023,4.5355 -5.71207,4.48819 -14.11568,13.1458 -15.99863,16.4822 -1.6044,2.84285 -1.60744,2.84498 -2.68579,1.87892 -3.56309,-3.19206 -8.43054,-7.0314 -11.51203,-9.08046 -1.95221,-1.29813 -3.54947,-2.5592 -3.54947,-2.80238 0,-0.87313 4.48496,-9.96499 8.30894,-16.84379 5.35365,-9.63046 10.81511,-18.32395 15.18444,-24.17044 5.07828,-6.79511 16.42253,-18.0701 21.50301,-21.37171 4.95822,-3.22217 12.19629,-6.81275 17.08604,-8.475862 5.10571,-1.736565 13.88263,-2.928926 19.80787,-2.690937 4.44906,0.178698 5.27665,0.377633 8.78575,2.111929 5.5527,2.74429 11.92096,8.85955 14.31259,13.74398 3.43037,7.00586 3.48217,14.74684 0.16166,24.16139 -2.0562,5.82991 -3.72112,9.04053 -8.02851,15.48209 -5.90201,8.82627 -16.67029,19.34732 -28.74929,28.08921 -2.90513,2.10252 -8.81457,5.39825 -16.25804,9.06721 -6.43169,3.17024 -14.29756,7.28027 -17.47972,9.1334 -3.18216,1.85313 -5.86763,3.36933 -5.96771,3.36933 -0.10007,0 -0.96193,-1.54437 -1.91524,-3.43193 z"
       id="path2698" />
    <path
       style="fill:#ffeeaa;stroke:#000000;stroke-width:0.508434"
       d="m 323.12771,252.47214 c -1.53801,-0.35346 -7.37229,-1.80563 -12.96506,-3.22706 -13.39132,-3.40347 -19.67695,-4.57234 -28.52489,-5.30446 -4.02583,-0.33312 -7.31969,-0.79562 -7.31969,-1.0278 0,-0.23217 0.65406,-2.64564 1.45346,-5.36325 0.7994,-2.71763 1.8541,-6.60185 2.34378,-8.63161 0.71903,-2.98046 1.09967,-3.73568 1.97847,-3.92548 0.59848,-0.12926 6.98626,-0.5804 14.19506,-1.00254 12.14356,-0.71112 15.11116,-1.15661 15.11116,-2.26847 0,-1.99675 -7.13865,-2.88707 -16.68621,-2.08106 -3.82578,0.32297 -8.46962,0.7131 -10.31966,0.86696 l -3.36369,0.27974 -1.3607,-7.0544 c -0.74838,-3.87992 -1.48869,-7.66549 -1.64512,-8.41238 -0.27674,-1.32135 0.008,-1.5026 10.57139,-6.72019 18.27497,-9.02692 31.44911,-12.59962 49.24254,-13.35411 12.59517,-0.53407 25.44758,1.33496 32.07656,4.66467 7.44483,3.7395 12.99429,9.14737 16.38375,15.96574 l 2.12885,4.28247 v 7.66573 7.66572 l -2.02434,3.81325 c -2.60334,4.90389 -9.24056,11.70651 -14.36073,14.71859 -8.65233,5.08996 -18.3438,7.75732 -31.4077,8.64428 -9.5085,0.64556 -11.98766,0.61449 -15.50723,-0.19434 z"
       id="path2700" />
    <path
       style="fill:#ffeeaa;stroke:#000000;stroke-width:0.508434"
       d="m 308.38313,325.91688 c -4.73138,-0.6092 -12.23356,-3.15104 -18.06885,-6.12197 -11.95539,-6.08685 -19.60098,-14.05205 -35.12886,-36.59732 -2.98528,-4.3344 -6.64242,-9.36789 -8.12697,-11.18554 -3.19161,-3.90774 -3.67769,-3.18912 5.38195,-7.95668 l 6.3404,-3.33657 3.31984,1.62514 c 1.82591,0.89383 5.51493,2.97581 8.19781,4.62662 5.71967,3.51938 7.81377,4.16143 8.3245,2.55229 0.22598,-0.712 -0.0385,-1.60184 -0.78982,-2.6569 -1.28977,-1.81131 -6.88742,-5.58574 -11.55287,-7.78996 -1.74189,-0.82296 -3.10552,-1.67786 -3.03029,-1.89978 0.0752,-0.22191 1.96714,-2.46249 4.20425,-4.97907 4.57794,-5.14983 3.95885,-4.93433 11.69397,-4.07061 20.75449,2.31748 41.4258,8.46244 51.45203,15.29514 3.52435,2.40178 9.06995,7.84859 11.63036,11.42318 1.21615,1.69786 3.17814,5.10223 4.35998,7.56526 l 2.14881,4.47823 0.49074,8.47421 0.49074,8.47421 -2.47429,4.80632 c -4.34359,8.43744 -11.77403,14.67808 -19.59533,16.45763 -4.05953,0.92365 -14.8752,1.38179 -19.2681,0.81617 z"
       id="path2702" />
    <path
       style="fill:#ffeeaa;stroke:#000000;stroke-width:0.508434"
       d="m 220.59429,377.24467 c -12.21668,-2.20733 -23.66412,-10.94228 -30.18596,-23.03336 -4.65316,-8.62664 -6.59146,-16.53636 -6.59146,-26.89801 0,-12.55272 2.44634,-22.95272 7.8044,-33.17844 2.65417,-5.06541 13.25133,-22.39485 13.94739,-22.80803 0.20079,-0.11919 3.33941,0.0885 6.97471,0.46142 3.6353,0.37296 7.14052,0.69029 7.78936,0.70518 l 1.17972,0.0271 -0.33787,6.99097 c -0.28889,5.97766 -0.22038,7.13835 0.47269,8.00783 0.80118,1.0051 0.81939,1.00544 1.57321,0.0299 0.48412,-0.62649 0.76406,-2.11199 0.76649,-4.06747 0.005,-3.68676 0.87756,-9.42275 1.55902,-10.24386 0.41289,-0.4975 7.26603,-2.11354 12.34117,-2.91017 1.3205,-0.20728 1.825,0.24665 5.75419,5.17736 9.14195,11.47218 15.60458,24.05513 19.2756,37.53023 1.94328,7.13311 2.73138,12.61549 3.0927,21.5141 0.25911,6.38133 0.1543,8.69707 -0.55087,12.17142 -1.72878,8.51769 -5.17004,14.53846 -12.12728,21.21769 -6.86071,6.58655 -13.42599,9.20326 -24.00981,9.56952 -3.35567,0.11613 -7.28299,-0.003 -8.7274,-0.26336 z"
       id="path2704" />
    <path
       style="fill:#ffeeaa;stroke:#000000;stroke-width:0.508434"
       d="m 124.83855,344.94174 c -5.32059,-1.14685 -10.3226,-3.92112 -14.50184,-8.04318 -3.05839,-3.01652 -4.09865,-4.51052 -6.23798,-8.9588 -5.27113,-10.9602 -5.456163,-19.31601 -0.6497,-29.33954 6.72137,-14.01692 19.06121,-24.86826 45.64072,-40.13526 9.12012,-5.23851 22.83603,-12.38303 23.77268,-12.38303 0.31159,0 1.00217,0.74358 1.53463,1.65241 0.53247,0.90882 2.06896,3.17154 3.41444,5.02825 1.34549,1.85671 2.44633,3.60603 2.44633,3.88736 0,0.28133 -1.10284,1.21921 -2.45076,2.08417 -4.66467,2.9933 -12.78613,12.31388 -15.65293,17.96404 -1.4175,2.79373 -1.52386,3.87134 -0.42379,4.29348 1.02403,0.39296 2.79018,-1.29886 8.19742,-7.85241 4.46354,-5.40978 8.6579,-9.25617 12.63534,-11.5871 l 2.30092,-1.34844 4.68787,3.04777 c 2.57832,1.67627 6.34509,3.93276 8.3706,5.01442 2.02551,1.08166 3.68428,2.20343 3.68615,2.49282 0.002,0.28939 -3.11023,5.89488 -6.91578,12.45663 -7.89762,13.61754 -9.09259,15.89117 -11.53318,21.94373 -2.11258,5.2391 -3.63666,7.55869 -9.78998,14.89998 -12.80195,15.27351 -23.24266,22.26684 -37.26323,24.95941 -4.53467,0.87086 -6.94814,0.85442 -11.26793,-0.0767 z"
       id="path2706" />
    <path
       style="fill:#ffeeaa;stroke:#000000;stroke-width:0.508434"
       d="M 90.773494,261.32137 C 80.890023,260.33704 69.888807,256.14528 62.430753,250.522 56.836758,246.30421 51.62611,238.57683 49.837194,231.84578 c -1.004315,-3.77888 -0.989186,-13.62476 0.02699,-17.56125 5.466456,-21.17616 31.107082,-36.10769 59.467146,-34.63 17.64193,0.91922 32.22232,5.89668 48.18051,16.44789 3.7116,2.45403 8.75712,6.84994 9.53896,8.31083 0.3178,0.5938 0.22743,2.70782 -0.26333,6.16045 -0.41093,2.89103 -0.75134,6.30849 -0.75647,7.59436 l -0.009,2.33794 -7.41668,0.35044 c -12.04749,0.56924 -18.45638,2.09797 -16.59573,3.95862 0.46511,0.46511 1.89172,0.4498 6.2369,-0.0669 6.28949,-0.74796 12.66081,-0.4312 15.6877,0.77992 l 1.93053,0.77245 2.41446,7.91806 c 2.01713,6.61508 2.30199,8.02796 1.73104,8.58583 -0.93869,0.9172 -10.32281,5.52683 -15.50146,7.61458 -9.64116,3.88678 -24.35309,7.94669 -34.99047,9.65598 -4.05995,0.65239 -22.301207,1.90761 -24.422794,1.6806 -0.279639,-0.03 -2.224398,-0.22531 -4.321687,-0.43418 z"
       id="path2708" />
    <path
       style="fill:#ffeeaa;stroke:#000000;stroke-width:0.508434"
       d="m 167.76922,197.21282 c -1.90118,-2.01761 -14.88558,-10.73122 -27.95722,-18.76162 -25.29047,-15.53687 -31.70663,-21.31168 -38.12072,-34.31024 -3.556454,-7.20736 -4.960109,-12.90094 -4.951155,-20.08313 0.0055,-4.42518 0.23785,-6.02282 1.357954,-9.33804 0.743214,-2.19972 2.007361,-4.95304 2.809211,-6.11849 2.03921,-2.96389 7.94832,-8.36944 11.36848,-10.39967 13.02478,-7.731623 29.57652,-7.52853 42.05194,0.515986 4.87537,3.143774 11.92173,10.492724 16.17964,16.874404 4.61265,6.91335 7.23762,12.37237 11.52745,23.97304 4.0926,11.06731 8.26757,19.88974 12.12707,25.62662 1.58085,2.34982 2.87427,4.42114 2.87427,4.60292 0,0.18179 -1.31842,1.2603 -2.92982,2.39669 -1.61141,1.1364 -4.15938,3.1157 -5.66216,4.39845 l -2.73233,2.33227 -8.63239,-8.87923 c -7.67267,-7.89207 -10.45558,-10.14937 -11.37684,-9.22811 -0.48359,0.48359 0.67747,2.11022 5.83284,8.17178 2.78394,3.27328 6.20512,7.60544 7.60264,9.62702 l 2.54094,3.6756 -3.90445,5.11872 c -2.14744,2.8153 -4.81236,6.52771 -5.92204,8.24982 -1.10968,1.7221 -2.14638,3.13309 -2.30379,3.13553 -0.15741,0.003 -0.9582,-0.7087 -1.77952,-1.58032 z"
       id="path2710" />
    <path
       style="fill:#ffeeaa;stroke:#000000;stroke-width:0.508434"
       d="m 199.96307,166.39408 c -2.82418,-2.94781 -13.43101,-27.00803 -15.5922,-35.36888 -3.1397,-12.14639 -2.46628,-30.72064 1.48529,-40.967423 1.93609,-5.02043 5.59719,-10.493824 9.99371,-14.94072 4.38,-4.430185 7.14634,-6.468651 12.18547,-8.979271 7.37404,-3.673929 15.10012,-4.868154 22.049,-3.40813 4.827,1.014198 12.15151,4.628565 15.6718,7.733436 9.96182,8.786269 14.48471,24.732404 12.10085,42.663418 -1.06676,8.02397 -3.05571,16.01285 -7.91139,31.7771 -2.19641,7.13079 -4.49755,14.84333 -5.11364,17.13899 -0.61609,2.29566 -1.43326,4.43377 -1.81594,4.75136 -0.52891,0.43897 -2.07156,0.23299 -6.4324,-0.85884 -5.25481,-1.31565 -6.5053,-1.43481 -14.88844,-1.41879 -8.24845,0.0158 -9.62858,0.14805 -13.98193,1.34021 -2.65656,0.72751 -5.18206,1.46449 -5.61222,1.63775 -0.48318,0.19461 -1.30031,-0.22589 -2.13796,-1.10021 z"
       id="path2712" />
  </g>
</svg>
