<?xml version="1.0" encoding="UTF-8" standalone="no"?>
<svg
   xmlns:dc="http://purl.org/dc/elements/1.1/"
   xmlns:cc="http://creativecommons.org/ns#"
   xmlns:rdf="http://www.w3.org/1999/02/22-rdf-syntax-ns#"
   xmlns:svg="http://www.w3.org/2000/svg"
   xmlns="http://www.w3.org/2000/svg"
   xmlns:sodipodi="http://sodipodi.sourceforge.net/DTD/sodipodi-0.dtd"
   xmlns:inkscape="http://www.inkscape.org/namespaces/inkscape"
   version="1.1"
   id="svg4515"
   width="820"
   height="662"
   viewBox="0 0 820 662"
   sodipodi:docname="flower03.svg"
   inkscape:version="1.0.1 (3bc2e813f5, 2020-09-07)">
  <metadata
     id="metadata4521">
    <rdf:RDF>
      <cc:Work
         rdf:about="">
        <dc:format>image/svg+xml</dc:format>
        <dc:type
           rdf:resource="http://purl.org/dc/dcmitype/StillImage" />
        <dc:title></dc:title>
      </cc:Work>
    </rdf:RDF>
  </metadata>
  <defs
     id="defs4519" />
  <sodipodi:namedview
     pagecolor="#ffffff"
     bordercolor="#666666"
     borderopacity="1"
     objecttolerance="10"
     gridtolerance="10"
     guidetolerance="10"
     inkscape:pageopacity="0"
     inkscape:pageshadow="2"
     inkscape:window-width="1920"
     inkscape:window-height="1001"
     id="namedview4517"
     showgrid="false"
     inkscape:zoom="1.2537764"
     inkscape:cx="424.23753"
     inkscape:cy="340.37752"
     inkscape:window-x="-9"
     inkscape:window-y="-9"
     inkscape:window-maximized="1"
     inkscape:current-layer="g4523" />
  <g
     inkscape:groupmode="layer"
     inkscape:label="Image"
     id="g4523">
    <path
       style="fill:#000000;stroke-width:0.793794"
       d="m 500.54563,574.8297 c -27.38997,-4.69112 -39.83186,-13.07005 -63.66244,-42.87313 -10.24123,-12.80793 -16.14629,-19.35821 -16.76775,-18.5999 -0.15444,0.18845 -1.2586,2.84309 -2.45368,5.8992 -11.35604,29.04001 -35.09123,49.0155 -63.69359,53.60438 -8.24264,1.32242 -24.25437,1.11352 -31.62923,-0.41265 -21.07729,-4.36179 -34.24998,-19.6138 -39.5335,-45.77387 l -1.0172,-5.03648 -9.88881,-0.5083 c -12.14533,-0.62428 -18.8756,-2.21781 -28.14606,-6.66413 -12.24514,-5.87305 -21.43737,-14.77316 -27.02573,-26.16691 -4.34746,-8.86379 -5.52031,-14.43322 -5.51631,-26.19519 0.003,-8.78716 0.28463,-11.14434 1.89706,-15.87588 3.54603,-10.40556 7.50743,-17.2021 18.73807,-32.14865 5.8169,-7.74154 12.3038,-17.09412 12.3038,-17.73915 0,-0.83013 -5.76259,-2.2592 -15.08208,-3.74023 -17.34261,-2.75604 -22.6018,-4.9408 -28.98556,-12.04107 -10.4061,-11.57409 -16.53696,-31.01371 -16.59092,-52.60617 -0.0464,-18.5798 2.48436,-25.0556 15.01735,-38.42647 4.5831,-4.8895 8.33291,-9.56187 8.33291,-10.38304 0,-0.82117 -0.33608,-2.377 -0.74684,-3.45739 -3.2125,-8.4495 -4.23402,-25.65116 -2.03432,-34.25662 4.3774,-17.12491 18.4282,-31.51356 39.23015,-40.17343 17.00615,-7.07968 40.84331,-10.08958 61.81426,-7.80524 7.36521,0.80229 21.69186,3.39914 24.32296,4.40879 1.05726,0.40571 1.24561,-0.34818 1.24561,-4.98588 0,-12.35686 2.70258,-26.91335 6.50191,-35.02023 4.79595,-10.23342 16.59463,-19.95005 37.15674,-30.5999 26.35274,-13.64904 43.80649,-16.41293 58.44177,-9.25458 4.76117,2.32878 4.93162,2.35242 8.32576,1.1549 2.79229,-0.98518 6.85757,-1.18473 20.93761,-1.02773 15.48949,0.17272 17.86247,0.0286 20.90843,-1.27019 l 3.4359,-1.46502 9.12857,6.20906 c 25.36251,17.25104 38.29608,32.68389 43.21274,51.56319 1.20664,4.63333 1.68368,9.06899 1.76432,16.40514 l 0.11053,10.05479 3.19225,0.30737 c 1.75575,0.16904 7.65735,-0.006 13.11468,-0.38887 5.45733,-0.38292 14.0303,-0.55398 19.05105,-0.38012 10.34524,0.35824 15.66224,2.03545 23.44488,7.39557 5.75996,3.96704 16.67619,15.04924 22.62152,22.96548 10.49083,13.96858 12.95998,23.49569 9.53845,36.80378 l -1.70706,6.63962 1.82613,2.73568 c 1.00436,1.50462 4.71104,4.6501 8.23704,6.98994 7.68407,5.09913 10.53781,8.19735 13.75011,14.92814 9.7164,20.35889 6.14975,51.76195 -8.98699,79.12717 -6.00331,10.85317 -6.93309,11.70386 -20.0294,18.32553 -6.48081,3.27678 -12.92973,6.35696 -14.33095,6.84484 -2.37452,0.82676 -2.50025,1.05242 -1.84987,3.32016 0.85228,2.97171 3.60808,6.85392 10.26293,14.45775 5.92374,6.76848 7.42495,9.83942 9.26142,18.94563 2.52425,12.51666 0.69169,28.69548 -4.80721,42.44058 -7.23358,18.08111 -20.68599,32.45421 -34.1507,36.48799 -2.61,0.78191 -5.16581,1.54961 -5.67955,1.706 -0.51374,0.15638 -3.50126,4.68138 -6.63894,10.05554 -13.79492,23.62771 -19.85993,31.49124 -28.93427,37.51444 -11.46191,7.60798 -30.57654,10.83938 -47.23795,7.98576 z m -148.44806,-9.57938 c 31.00689,-5.88191 54.89765,-29.27632 61.56174,-60.28274 1.70791,-7.94651 1.8663,-21.76653 0.41636,-36.32804 -0.5984,-6.00965 -0.84828,-11.16636 -0.55529,-11.45935 0.29299,-0.29299 1.50806,-0.1902 2.70015,0.22842 2.01703,0.70829 2.20816,1.17306 2.75412,6.69659 0.32268,3.2645 2.22018,11.82937 4.21668,19.03305 1.99649,7.20368 4.51763,16.31246 5.60251,20.24174 1.08489,3.92928 3.18262,9.18449 4.66162,11.67824 7.76352,13.0901 26.03581,33.73922 35.17352,39.74882 12.83049,8.43824 26.97055,12.30439 41.80578,11.43047 10.74957,-0.63324 19.03698,-2.87094 29.00676,-7.83217 7.25184,-3.6087 9.3235,-5.13236 15.9436,-11.72613 6.28839,-6.26339 8.18108,-8.74937 10.90677,-14.32576 3.19284,-6.53207 5.69518,-14.40517 5.69518,-17.91873 0,-2.38925 7.62315,-5.69091 16.94772,-7.34022 l 7.26299,-1.28467 5.95345,-6.04041 c 12.7121,-12.89779 19.31297,-29.05117 19.28448,-47.19224 -0.0229,-14.62804 -2.09495,-19.61007 -15.19117,-36.52685 -3.77937,-4.88192 -7.22974,-9.49514 -7.66748,-10.25157 -0.60355,-1.04297 -4.24832,-2.00924 -15.08208,-3.99841 -15.38511,-2.82485 -30.04989,-6.11779 -45.31607,-10.17561 l -9.59743,-2.55106 0.8657,-2.52286 c 0.47614,-1.38757 1.073,-2.72601 1.32635,-2.97432 0.25335,-0.24831 5.25425,0.80164 11.11311,2.33322 24.82089,6.48849 47.48246,8.95237 62.68974,6.81595 8.023,-1.12712 18.92444,-4.40914 22.37025,-6.73485 5.18675,-3.50073 14.93752,-20.47611 19.76583,-34.41086 7.21985,-20.83691 5.59668,-43.06833 -3.9949,-54.71531 -1.13703,-1.3807 -5.42662,-5.18972 -9.53242,-8.4645 -4.10579,-3.27479 -8.43676,-7.40096 -9.62437,-9.16927 l -2.15929,-3.21511 1.25007,-4.99005 c 0.81642,-3.259 1.25418,-8.60725 1.26189,-15.41715 0.0136,-11.94686 0.62927,-10.50236 -10.10478,-23.70605 -17.82206,-21.9225 -36.16968,-29.02907 -58.39531,-22.6182 -4.53139,1.30705 -9.45824,2.37646 -10.94856,2.37646 -7.10438,0 -25.26738,18.25109 -40.28809,40.48348 -2.50723,3.71099 -4.81732,6.74725 -5.13354,6.74725 -0.31623,0 -1.72966,-0.97163 -3.14098,-2.15918 l -2.56603,-2.15917 1.3371,-2.60359 c 2.89448,-5.63604 11.0762,-18.69148 15.03946,-23.99821 4.39307,-5.88225 13.25801,-14.85241 17.62345,-17.83265 2.18339,-1.49056 2.57983,-2.24667 2.57983,-4.92029 0,-1.7375 0.56977,-8.0536 1.26616,-14.03579 1.50209,-12.90342 1.18801,-16.08755 -2.18671,-22.16861 -9.95904,-17.94563 -30.95888,-37.82599 -45.69123,-43.25548 -6.86734,-2.5309 -19.81876,-2.26831 -36.43602,0.73873 l -12.79705,2.31574 -5.8571,-2.39248 c -5.25513,-2.1466 -6.75449,-2.39662 -14.58882,-2.43273 -10.69813,-0.0493 -16.81589,1.64245 -28.86268,7.98145 -11.79523,6.20662 -37.12645,23.63889 -38.66026,26.60496 -3.08836,5.97223 -4.43116,14.2791 -4.88885,30.24366 l -0.44886,15.65608 7.15659,7.48593 c 7.10489,7.43184 14.03827,16.9743 19.73599,27.16276 2.87538,5.14168 2.92119,5.34551 1.44866,6.44549 -3.74063,2.79424 -4.26004,2.80964 -5.70402,0.16916 -15.74239,-28.78668 -32.74955,-42.12888 -56.59769,-44.40116 -8.10171,-0.77193 -24.13025,-0.0809 -38.04623,1.64036 -43.87223,5.42642 -66.52884,33.24716 -54.72208,67.19492 1.33466,3.83755 2.61204,7.55077 2.83862,8.25163 0.69814,2.15952 -6.11253,12.47743 -13.28425,20.12514 l -6.82387,7.27677 -1.11407,7.88814 c -1.72666,12.2256 -1.36493,34.14167 0.68812,41.69024 2.32953,8.56514 4.61631,12.98303 9.38813,18.13716 5.31814,5.74422 11.86054,8.98204 22.66271,11.21574 7.42253,1.53485 9.94693,1.66016 26.0784,1.2946 10.70448,-0.24259 25.95429,-1.24421 38.06199,-2.49995 11.1109,-1.15237 21.27869,-1.98859 22.59509,-1.85827 1.95014,0.19305 2.60363,0.79157 3.52822,3.23146 0.62412,1.64699 0.95516,3.17414 0.73563,3.39367 -1.20001,1.20002 -28.70393,4.36301 -48.62438,5.59187 l -8.70796,0.53718 -10.79309,10.80794 c -14.29911,14.31879 -21.19172,24.43007 -25.76523,37.79693 -10.10565,29.53547 3.31208,58.90325 31.10958,68.09042 6.88219,2.27458 18.16592,3.92881 24.37649,3.57365 l 3.89322,-0.22264 2.9359,8.49658 c 8.87138,25.67401 18.94603,37.45921 35.79387,41.87121 7.354,1.92581 19.51331,2.09203 28.48866,0.38943 z"
       id="path5088" />
    <ellipse
       style="fill:#fad0ac;stroke:#000000;stroke-width:1.06884"
       id="path5090"
       cx="423.49329"
       cy="331.90872"
       rx="113.46104"
       ry="113.22353"
       transform="matrix(0.99960826,0.0279881,0,1,0,0)" />
    <path
       style="fill:#87decd;stroke:#000000;stroke-width:0.79759"
       d="m 228.44488,384.28128 c -18.20367,-3.99113 -28.30324,-13.74053 -31.9201,-30.81335 -1.4306,-6.7529 -1.61002,-31.70743 -0.29317,-40.77409 0.88519,-6.09469 1.00508,-6.32868 6.24849,-12.19584 7.03034,-7.86665 10.87511,-12.9836 13.19401,-17.55973 l 1.89618,-3.74193 -2.73506,-8.43457 c -4.73364,-14.598 -4.49094,-25.03559 0.83861,-36.06497 8.27538,-17.1257 27.58595,-28.13464 55.46701,-31.62171 12.79454,-1.6002 38.97398,-1.41917 45.42198,0.31408 16.43874,4.41883 30.74938,16.60888 42.85055,36.50083 l 3.15926,5.1932 -6.07038,4.12971 c -14.76057,10.0417 -27.78275,25.24819 -35.94621,41.97574 -8.00656,16.40604 -11.17349,30.3273 -11.16833,49.09395 0.003,12.82283 1.26635,22.36099 4.38567,33.12508 1.1254,3.8835 1.90292,7.20415 1.72784,7.37923 -0.8971,0.8971 -46.36626,4.32326 -61.94804,4.66787 -15.84414,0.3504 -18.78459,0.21298 -25.10831,-1.1735 z"
       id="path5092" />
    <path
       style="fill:#87decd;stroke:#000000;stroke-width:0.79759"
       d="m 486.12894,250.1916 c -31.45708,-22.24855 -74.4397,-26.78114 -110.34905,-11.6365 l -6.37105,2.68697 -2.80764,-4.86781 c -4.52729,-7.84933 -11.93018,-17.75616 -18.98298,-25.40377 l -6.57123,-7.12544 0.53591,-13.73029 c 0.57801,-14.80894 1.32492,-20.81945 3.41272,-27.46264 1.19126,-3.79051 1.98926,-4.74696 7.38811,-8.8551 15.42596,-11.73806 34.98558,-23.4711 45.00587,-26.99722 4.87304,-1.71482 7.17581,-2.01962 15.68166,-2.07571 9.23937,-0.0609 10.36535,0.10053 15.36714,2.20336 l 5.39726,2.26908 12.94732,-2.22662 c 9.19713,-1.58168 15.83509,-2.24212 22.9172,-2.28013 9.95096,-0.0534 9.98199,-0.0477 16.3506,2.98907 8.10386,3.86425 13.19641,7.6787 22.99779,17.22594 11.49688,11.19878 20.43176,23.70402 22.14415,30.99291 0.45429,1.9337 0.22319,8.04747 -0.66326,17.54647 l -1.36049,14.57869 -4.8097,4.02588 c -9.67835,8.10111 -17.3565,17.86504 -27.06126,34.41252 -2.50842,4.27707 -4.80902,7.74215 -5.11243,7.70017 -0.30342,-0.042 -3.0289,-1.82841 -6.05664,-3.96983 z"
       id="path5094" />
    <path
       style="fill:#87decd;stroke:#000000;stroke-width:0.79759"
       d="m 579.76765,392.52747 c -10.04274,-1.21076 -21.38498,-3.25894 -33.4988,-6.04925 -7.6768,-1.76827 -14.0218,-3.26748 -14.09999,-3.33156 -0.0782,-0.064 0.71279,-3.40816 1.75773,-7.43129 5.44955,-20.9814 4.56024,-45.34724 -2.4133,-66.12106 -5.02101,-14.95733 -14.72948,-30.89701 -26.31399,-43.20319 -3.81467,-4.0523 -6.5907,-7.36782 -6.16896,-7.36782 0.42175,0 4.29696,-4.87117 8.61159,-10.82483 14.41705,-19.89376 29.36703,-34.7204 36.22667,-35.92781 1.53948,-0.27097 6.25491,-1.31455 10.47873,-2.31906 11.45948,-2.72528 16.86091,-3.09991 23.82514,-1.65245 13.08065,2.71873 23.74991,10.1917 36.54954,25.60006 8.64914,10.41196 9.22807,12.03002 8.68977,24.28716 -0.24177,5.50507 -0.89069,11.89461 -1.44205,14.19897 -0.98685,4.12451 -0.96498,4.23628 1.40439,7.17831 1.32376,1.64371 6.10765,6.20508 10.63087,10.13636 4.52321,3.93128 9.25756,8.77664 10.52075,10.76747 7.18384,11.32188 8.07958,31.44172 2.20292,49.48113 -2.088,6.40948 -7.70643,18.43351 -11.63596,24.90222 -6.05368,9.96544 -8.9024,12.04029 -21.22474,15.45885 -6.08714,1.68874 -9.47829,2.09211 -19.34489,2.30102 -6.58012,0.13932 -13.22006,0.10187 -14.75542,-0.0832 z"
       id="path5096" />
    <path
       style="fill:#87decd;stroke:#000000;stroke-width:0.79759"
       d="m 496.5717,565.27818 c -6.50515,-1.02798 -16.87055,-4.73957 -23.33992,-8.35745 -13.05189,-7.29904 -37.08618,-34.94838 -42.20853,-48.55722 -2.6494,-7.03879 -10.6029,-37.29309 -11.49712,-43.73383 -0.40901,-2.94595 -0.97311,-5.72755 -1.25356,-6.18133 -0.34066,-0.5512 2.74863,-0.82611 9.30765,-0.82825 17.98423,-0.006 32.56017,-3.44952 48.89948,-11.55277 5.70277,-2.82821 13.4462,-7.46336 17.20763,-10.30033 13.23563,-9.98268 25.00083,-24.21241 32.59877,-39.42742 2.11374,-4.23281 3.69118,-6.50644 4.34112,-6.25703 4.5269,1.73713 63.25716,14.89979 66.48116,14.89979 0.85754,0 18.14573,24.37218 20.09081,28.32319 7.17111,14.5666 3.95352,39.54936 -7.21309,56.00569 -1.42001,2.09267 -5.04277,6.55681 -8.05058,9.92032 -4.75149,5.3134 -5.91001,6.18414 -8.83336,6.63915 -6.58225,1.02451 -13.78639,3.03168 -17.40228,4.84852 -3.44538,1.73117 -3.72316,2.1133 -4.55805,6.27056 -2.18001,10.85503 -7.69999,20.93045 -16.0327,29.26386 -8.78847,8.78921 -19.87602,14.82266 -32.76799,17.83119 -6.578,1.53507 -19.74768,2.14494 -25.76944,1.19336 z"
       id="path5098" />
    <path
       style="fill:#87decd;stroke:#000000;stroke-width:0.79759"
       d="m 330.52066,565.65159 c -0.87735,-0.20311 -3.56922,-0.76226 -5.98193,-1.24256 -7.00849,-1.39517 -14.47751,-5.77682 -20.21529,-11.85918 -5.71474,-6.05792 -12.11488,-18.02473 -16.53673,-30.91992 l -2.52987,-7.37771 h -5.77747 c -26.55448,0 -46.7525,-13.11044 -54.15056,-35.14886 -4.9733,-14.81521 -2.94742,-31.20399 5.8803,-47.57002 4.51339,-8.36753 9.20663,-14.2517 20.8832,-26.18242 l 10.17738,-10.3989 17.37609,-1.39391 c 15.86001,-1.27228 30.23879,-2.87149 37.05617,-4.12138 2.57231,-0.47161 2.72474,-0.34654 5.04522,4.13983 16.15378,31.23139 45.87133,54.13265 80.05448,61.69245 3.78558,0.8372 7.81424,1.52995 8.95257,1.53944 l 2.06971,0.0173 1.04391,14.34277 c 1.81361,24.91798 0.07,37.40245 -7.27386,52.08203 -5.77333,11.54025 -15.10857,22.46162 -25.04026,29.2948 -5.81206,3.9988 -17.702,9.28891 -25.11137,11.17263 -6.46038,1.64245 -22.1303,2.81136 -25.92169,1.93365 z"
       id="path5100" />
    <path
       style="fill:#b7c8c4;stroke:#000000;stroke-width:0.79759"
       d="m 409.48211,454.82155 c -42.98212,-6.97275 -79.00956,-37.3608 -92.51424,-78.03298 -4.02611,-12.12545 -5.22005,-18.82812 -5.70446,-32.0243 -1.11984,-30.50621 9.24034,-58.11477 29.82557,-79.48137 9.40392,-9.76087 18.62283,-16.54634 30.10879,-22.16121 17.0101,-8.31533 29.78815,-11.33484 48.25422,-11.40268 31.95071,-0.11738 58.82957,11.06413 81.80925,34.03237 17.72034,17.71151 28.04737,36.99393 32.70552,61.06711 1.96824,10.17178 1.9992,30.24755 0.0618,40.09478 -8.65124,43.97256 -40.6552,76.76207 -84.66698,86.74518 -9.68306,2.19639 -29.87907,2.78541 -39.87952,1.1631 z"
       id="path5102" />
  </g>
</svg>
