<?xml version="1.0" encoding="UTF-8" standalone="no"?>
<svg
   xmlns:dc="http://purl.org/dc/elements/1.1/"
   xmlns:cc="http://creativecommons.org/ns#"
   xmlns:rdf="http://www.w3.org/1999/02/22-rdf-syntax-ns#"
   xmlns:svg="http://www.w3.org/2000/svg"
   xmlns="http://www.w3.org/2000/svg"
   xmlns:sodipodi="http://sodipodi.sourceforge.net/DTD/sodipodi-0.dtd"
   xmlns:inkscape="http://www.inkscape.org/namespaces/inkscape"
   version="1.1"
   id="svg6446"
   width="256"
   height="320"
   viewBox="0 0 256 320"
   sodipodi:docname="flower04.svg"
   inkscape:version="1.0.1 (3bc2e813f5, 2020-09-07)">
  <metadata
     id="metadata6452">
    <rdf:RDF>
      <cc:Work
         rdf:about="">
        <dc:format>image/svg+xml</dc:format>
        <dc:type
           rdf:resource="http://purl.org/dc/dcmitype/StillImage" />
        <dc:title></dc:title>
      </cc:Work>
    </rdf:RDF>
  </metadata>
  <defs
     id="defs6450" />
  <sodipodi:namedview
     pagecolor="#ffffff"
     bordercolor="#666666"
     borderopacity="1"
     objecttolerance="10"
     gridtolerance="10"
     guidetolerance="10"
     inkscape:pageopacity="0"
     inkscape:pageshadow="2"
     inkscape:window-width="1920"
     inkscape:window-height="1001"
     id="namedview6448"
     showgrid="false"
     inkscape:zoom="1.8340582"
     inkscape:cx="100.83739"
     inkscape:cy="143.99333"
     inkscape:window-x="-9"
     inkscape:window-y="-9"
     inkscape:window-maximized="1"
     inkscape:current-layer="g6454" />
  <g
     inkscape:groupmode="layer"
     inkscape:label="Image"
     id="g6454">
    <path
       style="fill:#000000;stroke-width:0.919152"
       d="m 159.51603,292.58791 c -1.04645,-1.13746 -2.61322,-4.5498 -3.48172,-7.58301 -3.628,-12.67069 -4.05303,-13.37549 -14.16936,-23.49635 -15.4192,-15.4261 -17.33381,-18.51073 -17.6223,-28.39136 -0.3272,-11.20524 -1.03221,-13.35592 -6.15332,-18.77073 -5.78408,-6.1158 -6.51124,-8.77533 -6.55184,-23.9623 -0.0291,-10.88269 -0.23363,-12.30957 -2.3992,-16.73584 -2.32064,-4.74322 -6.43157,-8.74649 -11.921176,-11.60897 -2.40737,-1.2553 -2.544282,-1.52111 -1.078338,-2.09373 2.823889,-1.10305 14.384724,0.43244 19.836994,2.63472 8.27939,3.34419 14.90925,8.32028 24.88556,18.67803 5.13962,5.33614 9.55914,9.48769 9.82115,9.22569 0.26202,-0.26202 0.62886,-4.95318 0.81521,-10.4248 0.39615,-11.6321 0.99048,-18.93316 2.419,-29.71663 1.10688,-8.35559 0.48892,-14.69999 -1.43186,-14.69999 -2.15833,0 -5.44909,4.36335 -4.89338,6.48836 0.2849,1.08949 -0.32834,4.72104 -1.36277,8.07012 -1.30701,4.23158 -1.72335,7.41844 -1.36475,10.44622 0.28381,2.39632 0.12259,4.6001 -0.35826,4.89728 -0.48084,0.29718 -2.06723,-0.76582 -3.52533,-2.36223 -2.6016,-2.84839 -2.69571,-2.87329 -5.04451,-1.33429 -2.59924,1.70309 -2.94173,1.39074 -3.53789,-3.22665 -0.16623,-1.28753 -0.81811,-2.18824 -1.48258,-2.0485 -1.88435,0.39626 -8.42155,-1.60854 -8.42155,-2.5827 0,-0.48604 0.45317,-0.88372 1.00705,-0.88372 2.36012,0 6.62449,-4.24197 9.78029,-9.72886 3.16434,-5.50177 3.60961,-5.89673 6.64795,-5.89673 2.73977,0 3.4516,-0.44086 4.48635,-2.77852 1.34957,-3.04888 5.22902,-5.49385 8.71711,-5.49385 2.90424,0 3.04648,-0.69756 3.28626,-16.11641 0.19642,-12.63027 0.1582,-12.90598 -2.08079,-15.009412 -1.82664,-1.716031 -2.86164,-2.01523 -5.1969,-1.50232 -2.48154,0.545039 -2.81733,0.934979 -2.25377,2.617221 1.00814,3.009341 0.86744,6.148171 -0.48316,10.777581 -1.07668,3.69057 -1.04003,4.5794 0.29955,7.26465 1.5117,3.03028 1.98103,5.53462 1.03722,5.53462 -0.26899,0 -2.00386,-0.63291 -3.85524,-1.40647 -3.26801,-1.36546 -3.42956,-1.33808 -5.54102,0.93902 -2.60744,2.81201 -3.63206,2.38099 -4.42819,-1.86268 -0.56002,-2.9852 -0.82148,-3.18478 -4.17179,-3.18478 -3.89236,0 -4.73961,-1.56801 -2.04998,-3.79386 0.83838,-0.69381 3.06559,-4.61129 4.94933,-8.70548 3.42052,-7.434229 4.63647,-8.641176 8.70559,-8.641176 1.37357,0 2.37942,-0.688906 2.76094,-1.890966 0.89363,-2.815629 4.77548,-3.980838 9.0345,-2.711875 1.94497,0.579502 3.72157,0.868375 3.948,0.641938 0.77431,-0.774295 -3.34609,-26.458512 -4.64873,-28.977526 -2.54266,-4.916967 -8.5657,-5.975493 -12.71646,-2.234872 -2.24487,2.023041 -2.02644,3.177791 1.18264,6.252285 1.73254,1.659883 3.33989,4.601144 4.23795,7.754974 0.79573,2.79448 1.81462,5.47381 2.26418,5.954067 1.53791,1.642908 0.81527,2.238294 -3.05953,2.520777 -3.49363,0.254696 -3.96112,0.577954 -4.72872,3.26988 -0.4685,1.642981 -1.17743,2.987249 -1.57542,2.987249 -0.54414,0 -3.61173,-3.815743 -4.96383,-6.174424 -0.063,-0.109968 -1.60824,0.258473 -3.43378,0.818749 -1.82555,0.560276 -4.01207,0.752797 -4.85892,0.427827 -1.3579,-0.521076 -1.26308,-0.919658 0.80292,-3.374963 2.22866,-2.648612 4.23541,-7.89658 4.24649,-11.105222 0.002,-0.816509 0.77222,-2.470983 1.70976,-3.67661 0.93756,-1.205628 2.19398,-3.693104 2.79207,-5.527727 1.44093,-4.420095 3.75482,-6.364268 8.30009,-6.973916 2.06137,-0.276489 3.74796,-0.840815 3.74796,-1.254058 0,-2.148007 -15.9427,-11.874735 -19.46342,-11.874735 -1.52012,0 -3.7556,1.061804 -5.48074,2.603221 l -2.91352,2.603218 2.0942,2.832556 c 1.51956,2.055299 2.28222,4.752818 2.77938,9.83057 0.42409,4.331246 1.2514,7.623662 2.17099,8.639808 1.80511,1.994616 0.46176,3.822657 -2.80911,3.822657 -1.19147,0 -2.11405,0.557251 -2.11405,1.276901 0,0.702296 -0.75866,2.213807 -1.68591,3.358913 l -1.68592,2.082013 -2.57963,-3.232943 c -2.33853,-2.930795 -2.86819,-3.16786 -5.6673,-2.536558 -3.5931,0.810375 -3.75325,0.284799 -1.22099,-4.007064 1.59751,-2.707564 1.7333,-3.742407 0.94163,-7.17597 -1.79219,-7.772933 -1.36002,-9.536532 3.70849,-15.133345 6.0392,-6.668694 5.27592,-7.518445 -4.79822,-5.341801 -9.460638,2.044092 -13.417937,5.136627 -14.633187,11.435491 -1.208284,6.262702 -1.064307,9.163687 0.454775,9.163687 2.28545,0 5.711209,3.957174 7.351842,8.492277 0.86672,2.39585 2.66487,5.212706 3.99588,6.259681 1.99562,1.569745 2.18444,2.052605 1.0767,2.753266 -0.73883,0.467322 -1.84087,0.856007 -2.44897,0.863749 -0.78572,0.01 -0.94814,1.343821 -0.56133,4.609837 0.49838,4.208018 0.38403,4.595757 -1.35532,4.595757 -1.751914,0 -5.040905,-3.18119 -5.987052,-5.790824 -0.255139,-0.703709 -1.376574,-0.188058 -3.098763,1.424855 -1.484409,1.39022 -2.986508,2.527665 -3.338004,2.527665 -0.351485,0 -0.639064,-1.888007 -0.639064,-4.195577 0,-2.307568 -0.895636,-6.277557 -1.990315,-8.822196 -1.697555,-3.946072 -1.832754,-5.062346 -0.919147,-7.588872 0.589133,-1.629239 1.071162,-5.582109 1.071162,-8.784155 0,-5.726453 -0.02952,-5.79514 -1.803708,-4.189572 -2.165178,1.959465 -3.225582,5.170491 -4.657129,14.102409 -1.458526,9.100211 -0.674909,12.548495 3.755407,16.525673 2.978713,2.674043 3.703332,4.023242 4.209309,7.837481 0.451807,3.405935 1.409685,5.491229 3.67332,7.996802 3.417898,3.783204 3.227107,4.581904 -1.094568,4.581904 -2.408553,0 -3.074148,0.43812 -3.550803,2.33724 -0.819583,3.2655 -2.981444,3.78732 -5.57935,1.34672 -1.877521,-1.76384 -2.593593,-1.92512 -4.930434,-1.11049 -3.132751,1.09208 -4.089755,0.59136 -2.953703,-1.54538 0.435028,-0.81822 1.072401,-4.79661 1.41639,-8.840882 0.343988,-4.044269 1.032077,-8.674609 1.529087,-10.289627 0.692003,-2.248629 0.579768,-3.432699 -0.479198,-5.055334 -1.606284,-2.461299 -2.029084,-8.270466 -1.1242,-15.446645 l 0.63745,-5.055339 -3.21949,3.67661 c -1.770715,2.022135 -3.940481,5.275072 -4.821693,7.228748 -1.550748,3.438032 -1.544534,3.594405 0.193389,4.867845 1.589732,1.16485 1.802005,2.496452 1.851394,11.613872 0.03063,5.663998 0.40428,11.286744 0.830231,12.494982 0.744244,2.11118 0.646693,2.17285 -2.50209,1.58214 -2.939175,-0.5514 -3.485796,-0.32077 -5.309207,2.23997 -2.166316,3.0423 -3.299151,2.75482 -3.796936,-0.96358 -0.255581,-1.90916 -0.7352,-2.24788 -2.835288,-2.00231 -3.010102,0.35198 -3.289631,-1.21242 -1.005298,-5.626344 0.837295,-1.617883 1.818402,-5.960732 2.180225,-9.650762 0.454178,-4.631894 1.210794,-7.33545 2.443745,-8.731948 0.982235,-1.112531 2.566141,-3.884068 3.519784,-6.15897 0.953653,-2.274903 2.926271,-5.915777 4.383614,-8.090835 3.475214,-5.186685 14.454035,-16.235545 21.107836,-21.242492 2.906824,-2.187363 5.285126,-4.340948 5.285126,-4.785744 0,-0.444796 -1.609634,-0.80872 -3.576967,-0.80872 -2.940066,0 -3.671065,0.368234 -4.105506,2.068093 -0.334801,1.310019 -2.814016,3.415778 -6.763498,5.744702 -4.877772,2.876309 -6.635098,4.519012 -8.073257,7.546637 -1.01107,2.128515 -2.247969,3.749839 -2.748672,3.602941 -0.500703,-0.146899 -1.362754,-1.888412 -1.915644,-3.870029 -0.844339,-3.026137 -1.434345,-3.646053 -3.685398,-3.872247 -5.014961,-0.50392 -5.254411,-0.869671 -2.733314,-4.174996 2.827614,-3.707199 2.837543,-3.838826 0.512777,-6.794291 -1.01107,-1.285365 -1.838216,-2.798269 -1.838117,-3.362011 1.22e-4,-0.710159 5.152459,-1.077699 16.774523,-1.196604 16.710624,-0.170969 21.687075,0.456314 24.740474,3.118542 1.08021,0.941825 2.029,1.078214 3.21703,0.462453 3.25562,-1.687398 14.3038,-2.109933 19.37866,-0.741132 2.65405,0.715853 4.87262,1.028776 4.93016,0.695383 0.0575,-0.333394 0.16095,-2.972869 0.22979,-5.8655 0.16914,-7.105952 2.4166,-9.475042 8.89813,-9.37967 3.18671,0.04689 5.40769,0.677025 7.28921,2.068093 1.53207,1.132701 4.063,2.000654 5.83388,2.000654 2.08229,0 4.27248,0.909613 6.55196,2.721119 1.88325,1.496615 4.21501,2.972153 5.18172,3.278973 2.4362,0.773216 2.19567,2.112112 -0.60898,3.389995 -2.08325,0.949194 -2.29543,1.45777 -1.77207,4.247492 l 0.59455,3.169187 -3.30896,-0.536969 c -2.64392,-0.42905 -3.53296,-0.17828 -4.42352,1.247717 -1.67924,2.688899 -3.24094,2.15579 -4.2354,-1.445818 -0.49059,-1.776779 -1.95769,-4.497034 -3.26023,-6.045014 -1.30254,-1.547979 -2.36825,-3.827056 -2.36825,-5.064615 0,-4.523617 -7.46241,-4.941451 -9.0015,-0.50401 -1.24344,3.585083 0.11626,5.669725 6.31668,9.684405 3.03024,1.96204 6.89574,5.186837 8.59002,7.166217 l 3.0805,3.598871 1.9969,-3.231047 c 3.00624,-4.86421 9.51712,-5.562448 15.47385,-1.659447 1.30186,0.85301 3.30428,1.428103 4.44983,1.277986 2.54122,-0.333011 4.43033,0.634782 9.48913,4.861288 2.1438,1.791101 4.89274,3.256547 6.10874,3.256547 2.85174,0 2.822,1.200629 -0.068,2.747327 -1.84568,0.987784 -2.16321,1.672602 -1.67021,3.602141 0.66481,2.601905 0.62893,5.549528 -0.0761,6.254591 -0.24601,0.246009 -1.92667,-0.04095 -3.73481,-0.63769 -3.01147,-0.993872 -3.52423,-0.885794 -6.1066,1.287123 -3.80639,3.20287 -4.84517,3.034367 -4.14963,-0.673131 0.46125,-2.458725 0.007,-3.897314 -2.35917,-7.469407 -1.61175,-2.433297 -3.17187,-5.922962 -3.46693,-7.754811 -0.49248,-3.057463 -0.81376,-3.353761 -3.91723,-3.612605 -2.79707,-0.233289 -3.65271,0.133103 -4.95604,2.122215 -1.49826,2.286638 -1.47119,3.064397 0.55359,15.907562 1.17088,7.426857 2.25098,13.658248 2.40023,13.847537 0.14925,0.189288 1.56142,-0.741354 3.13818,-2.068093 3.62871,-3.053365 7.63272,-3.152891 10.35265,-0.257332 1.1133,1.185207 3.1399,2.428485 4.50355,2.762841 1.37642,0.33749 4.39552,2.827426 6.78688,5.597324 2.36914,2.74416 5.49302,5.480449 6.94196,6.080616 3.34879,1.387112 3.32123,2.198988 -0.12302,3.625649 -2.1809,0.903358 -2.75747,1.708059 -2.75747,3.848547 -4e-5,3.068656 -1.44512,6.262136 -2.83372,6.262136 -0.51189,0 -1.927,-1.07503 -3.14471,-2.38895 l -2.214,-2.38895 -2.70954,1.92937 c -1.49026,1.06116 -3.00289,1.92937 -3.36139,1.92937 -0.35852,0 -0.37659,-1.83563 -0.0401,-4.07917 0.47974,-3.199153 0.18893,-4.907886 -1.34803,-7.920575 -1.38116,-2.707287 -1.87015,-5.098581 -1.65629,-8.099598 0.28919,-4.057851 0.18343,-4.271984 -2.24788,-4.551317 -2.25745,-0.259361 -2.78365,0.217079 -4.56815,4.136186 -1.65259,3.629394 -2.0799,6.542896 -2.36612,16.132724 l -0.34929,11.70342 2.83338,-0.98772 c 2.45774,-0.85679 3.61428,-0.60729 8.72386,1.88193 6.0524,2.94853 7.11277,4.31449 8.39442,10.81339 0.31932,1.61924 1.41882,4.0097 2.44331,5.31214 2.35258,2.99082 1.60775,5.07148 -1.81548,5.07148 -2.2846,0 -2.7894,0.49593 -3.74235,3.67661 -0.60585,2.02213 -1.42077,3.67661 -1.81094,3.67661 -0.39017,0 -1.64245,-1.262 -2.78283,-2.80445 -1.94733,-2.63391 -2.33048,-2.76588 -6.30104,-2.17045 l -4.22764,0.63397 1.99324,-3.22514 c 1.09629,-1.77384 2.2197,-5.24352 2.4965,-7.71043 0.27679,-2.4669 0.68515,-5.65089 0.90745,-7.0755 0.34869,-2.23449 0.1288,-2.55008 -1.60118,-2.29789 -1.48455,0.21643 -2.56714,1.69271 -4.16853,5.68445 -2.66412,6.64076 -5.86296,21.79923 -5.4274,25.71894 0.17709,1.59368 -0.21312,11.7904 -0.86716,22.65938 -1.45932,24.25148 -1.52176,30.38129 -0.29025,28.49372 9.90042,-15.17462 29.32443,-50.55574 29.32443,-53.41481 0,-0.4972 0.84861,-2.64188 1.88577,-4.76598 1.03718,-2.1241 2.78876,-8.51731 3.8924,-14.20713 1.12336,-5.79142 2.41739,-10.20821 2.93978,-10.03408 0.51324,0.17108 1.00209,3.19635 1.08636,6.72281 0.0843,3.52648 1.18608,10.31671 2.44849,15.08943 1.26243,4.7727 2.55066,10.19761 2.86273,12.05534 0.81785,4.86843 -0.93628,14.52818 -4.5868,25.25894 -3.70873,10.90188 -3.8431,12.86858 -1.22924,17.99221 4.7799,9.36935 -0.28946,26.25011 -12.2658,40.84468 -5.38322,6.5601 -5.97218,7.69909 -6.4687,12.50993 -0.62507,6.05626 -2.59054,9.64967 -9.53485,17.43231 -5.64561,6.32716 -6.39635,9.28805 -5.57385,21.9834 0.57314,8.84656 -0.10471,9.95802 -3.69388,6.05671 z m 3.28919,-23.35506 c 5.37785,-5.99869 11.84609,-14.53856 13.11652,-17.31744 0.92446,-2.02213 1.68993,-5.28263 1.70103,-7.24554 0.0171,-3.0203 0.95059,-4.70784 6.07262,-10.97779 12.78151,-15.64594 17.41667,-31.70929 11.53382,-39.97099 -1.07837,-1.51443 -1.96068,-3.63793 -1.96068,-4.71885 0,-1.08095 1.71693,-7.22138 3.81538,-13.6454 5.2373,-16.03297 5.67948,-26.14113 1.6167,-36.95675 -0.47474,-1.26383 -1.42368,-4.9864 -2.10875,-8.27237 l -1.24559,-5.97449 -0.68822,4.59577 c -1.54041,10.28628 -12.91642,34.7809 -27.10691,58.36616 -9.6566,16.04972 -11.35813,19.20612 -13.82627,25.64823 -3.00485,7.84296 -4.66651,17.15147 -5.10214,28.58177 -0.44009,11.54722 0.19774,11.24464 2.90639,-1.37873 1.55976,-7.26905 7.50246,-20.25614 22.70686,-49.62324 3.13766,-6.06036 7.15252,-14.01097 8.92189,-17.66802 1.76936,-3.65705 3.53279,-6.66074 3.91873,-6.67486 1.09612,-0.04 -1.39094,5.30503 -8.94097,19.21556 -3.83073,7.05794 -8.22645,15.85307 -9.76826,19.54472 -9.12476,21.84819 -11.24715,27.60092 -13.28271,36.00283 -1.38219,5.70513 -2.2569,12.02699 -2.25764,16.31672 -0.002,12.06773 3.86651,30.358 7.24034,34.23183 1.38939,1.59531 1.52826,0.90993 2.04849,-10.11068 0.30693,-6.50209 0.61716,-11.88788 0.68937,-11.96844 z m -14.06405,-8.3867 c -0.78664,-3.0357 -1.43025,-8.21875 -1.43025,-11.51784 0,-7.00693 -2.61757,-15.09276 -11.147,-34.43362 -3.05945,-6.93743 -6.18815,-14.6816 -6.95268,-17.20926 -0.76455,-2.52768 -1.71325,-5.00939 -2.10821,-5.51493 -0.39498,-0.50552 -2.69213,-4.84853 -5.10477,-9.65109 -2.41264,-4.80258 -5.19455,-9.89322 -6.182,-11.31254 -0.98745,-1.41932 -1.51241,-2.86354 -1.16658,-3.20937 0.74245,-0.74244 1.20799,-2.5e-4 7.93698,12.65358 2.8315,5.32461 6.05501,12.16283 7.16336,15.19604 1.10835,3.0332 2.57822,6.75577 3.26639,8.27236 0.68818,1.51661 1.85563,4.2264 2.59437,6.02177 0.73872,1.79536 3.75173,6.9656 6.69557,11.48939 l 5.35245,8.22511 1.11019,-4.8447 c 0.61061,-2.6646 1.40927,-10.82747 1.77481,-18.13973 0.58943,-11.79098 0.4963,-13.3596 -0.82327,-13.86598 -0.81834,-0.31402 -3.63719,-3.27202 -6.2641,-6.5733 -10.63124,-13.36045 -26.19454,-23.6255 -37.50737,-24.73862 l -5.974484,-0.58786 1.729734,1.95151 c 0.95136,1.07333 2.41514,2.16905 3.25285,2.43493 0.8377,0.26588 2.88539,2.73117 4.55041,5.47844 3.00436,4.95717 3.03116,5.10521 3.53648,19.53161 0.56182,16.03961 1.58401,19.63715 6.64223,23.37685 3.75555,2.77661 4.67621,5.59361 5.47201,16.74299 0.64655,9.05848 0.91584,10.05109 3.97823,14.66338 2.97746,4.48438 20.04563,22.06962 20.74343,21.37182 0.16031,-0.16029 -0.35215,-2.77523 -1.13878,-5.81094 z m 3.05981,-5.94349 c -0.0842,-7.509 -0.26006,-8.67504 -0.86618,-5.7447 -1.29212,6.24691 -0.933,15.16601 0.61065,15.16601 0.19867,0 0.31367,-4.23958 0.25553,-9.42131 z m 3.17326,-20.01133 c 0.52286,-3.0483 0.49114,-3.02505 -0.68084,0.4991 -0.67608,2.03301 -1.47602,5.13515 -1.77766,6.89365 -0.52286,3.0483 -0.49113,3.02505 0.68084,-0.4991 0.67608,-2.03301 1.47603,-5.13515 1.77766,-6.89365 z m -8.97973,-4.4555 c -2.42658,-4.69248 -3.40116,-4.17421 -1.45157,0.77193 1.01685,2.57979 1.90516,4.98544 1.97401,5.34588 0.0689,0.36043 0.30074,-0.24731 0.51534,-1.35055 0.2146,-1.10323 -0.2524,-3.2485 -1.03778,-4.76726 z m 7.86834,-21.03122 c 2.16122,-4.62044 1.96917,-2.18586 4.00594,-50.78316 0.69174,-16.50498 2.20825,-26.81882 5.20321,-35.38738 2.6026,-7.44602 4.10263,-9.03051 7.95703,-8.40503 3.69758,0.60004 3.62545,-1.24689 -0.10006,-2.56368 -1.71198,-0.60509 -3.11197,-0.49178 -4.74905,0.38436 -1.2768,0.68333 -2.63227,0.92613 -3.01218,0.53957 -1.37495,-1.399 -0.32303,-23.736471 1.33562,-28.362249 2.20686,-6.154684 3.96749,-7.572168 7.8126,-6.289937 l 3.02915,1.010136 -2.1962,-1.846041 c -2.73281,-2.297095 -5.17047,-1.71023 -8.73116,2.102017 -2.5283,2.706931 -2.7147,2.760904 -3.9064,1.131161 -0.68826,-0.941272 -1.25258,-2.562991 -1.25404,-3.603819 -0.002,-1.040829 -0.80396,-6.721191 -1.78338,-12.623029 -2.48652,-14.983502 -1.12506,-19.14184 6.26711,-19.14184 1.52,0 3.01926,0.413618 3.3317,0.919152 0.68965,1.115857 2.29789,1.219116 2.29789,0.147538 0,-1.306328 -4.49783,-2.904995 -8.17318,-2.904995 -3.88619,0 -6.02429,1.751571 -7.02306,5.753386 -0.70371,2.819665 -2.42031,4.358898 -2.98199,2.673877 -0.89676,-2.69027 -7.28172,-9.10191 -12.90178,-12.955696 -5.50373,-3.774016 -6.17514,-4.568207 -6.42782,-7.603317 -0.47855,-5.748201 4.82206,-8.986725 10.09236,-6.166147 1.2604,0.674547 2.18063,0.700229 2.80265,0.07822 1.295,-1.295005 -3.88195,-3.83998 -7.81123,-3.83998 -2.10976,0 -3.78405,0.725526 -5.23261,2.267451 -1.86097,1.980902 -2.05846,2.872852 -1.5628,7.05798 0.78883,6.660514 -0.0177,7.359603 -6.52928,5.659203 -5.78129,-1.509707 -15.7561,-1.112082 -19.94152,0.794925 -1.84809,0.842047 -2.62152,0.856752 -3.11442,0.05921 -1.702727,-2.755057 -13.919039,-5.382463 -13.919039,-2.993616 0,0.505135 1.200788,0.656016 2.75194,0.345784 2.608222,-0.521645 8.306163,1.07757 8.253169,2.316376 -0.0136,0.317819 -1.718551,1.611899 -3.788776,2.875733 -5.423254,3.31079 -23.988103,21.784913 -26.786329,26.65542 -2.944338,5.124838 -4.517298,9.191524 -3.555197,9.191524 0.39999,0 1.646739,-2.171498 2.77053,-4.82555 2.096274,-4.950706 9.821573,-14.286295 10.91623,-13.191639 0.336139,0.336143 0.115596,3.501155 -0.490111,7.033357 -1.429834,8.338165 -1.389235,10.353711 0.289514,14.371514 1.665016,3.984967 2.924635,3.443895 1.499544,-0.644134 -1.65606,-4.750577 1.282252,-21.185774 4.608581,-25.777628 3.698942,-5.106238 5.420761,-4.838399 4.786932,0.744635 -0.27262,2.401285 -0.08889,5.400019 0.408222,6.663855 l 0.903889,2.29788 1.013812,-2.587506 c 0.557589,-1.423127 1.013812,-4.021529 1.013812,-5.774224 0,-4.294124 2.018303,-8.846896 4.941169,-11.146028 3.801764,-2.990471 20.974408,-6.567826 23.536408,-4.90304 1.14186,0.74198 0.92938,1.337577 -1.31172,3.676779 -3.50362,3.657001 -2.34006,4.781579 1.24156,1.199957 4.95162,-4.951609 9.74467,-4.529886 19.48621,1.714516 11.21787,7.190748 13.06363,10.466327 5.89768,10.466327 -3.18373,0 -4.61882,0.52017 -6.33966,2.297882 -2.3707,2.449053 -4.33113,7.159846 -2.51165,6.035349 0.55969,-0.34591 1.01762,-1.215409 1.01762,-1.93222 0,-2.028754 4.26381,-4.330068 8.21456,-4.43366 3.90842,-0.102483 6.6879,1.780901 8.87774,6.015566 1.51988,2.939146 5.59946,30.755341 4.64989,31.704904 -0.36203,0.362044 -1.84679,-0.04378 -3.29946,-0.901954 -3.35032,-1.979086 -7.247,-1.99524 -9.40862,-0.03903 -2.63217,2.382084 -1.97978,3.105664 1.49218,1.654988 4.19301,-1.751953 7.4016,-0.516414 9.3681,3.607395 1.30715,2.741132 1.39576,4.974762 0.68445,17.255002 l -0.81706,14.10628 -2.75746,0.25203 c -5.40923,0.49441 -6.87917,1.19001 -8.29322,3.92445 -2.13892,4.13626 -0.74865,5.018 2.88361,1.82885 1.74663,-1.53356 3.52427,-2.7883 3.95032,-2.7883 3.18179,0 3.70961,8.05693 1.65592,25.27669 -0.78381,6.57194 -1.68723,20.42816 -2.00762,30.7916 -0.3204,10.36344 -0.80069,19.98009 -1.06733,21.3703 -0.7224,3.76663 0.24171,3.06793 2.53661,-1.83831 z m -10.22854,-51.90138 c 0,-2.63715 0.66977,-6.54858 1.48838,-8.69207 1.83154,-4.79582 1.1557,-7.91055 -2.03154,-9.36276 -3.63192,-1.65481 -5.66292,-0.50528 -8.73979,4.94666 -1.53058,2.71203 -4.07597,6.19521 -5.65639,7.74037 l -2.87354,2.80941 h 4.1515 c 4.08992,0 4.14548,0.0409 3.74677,2.75745 -0.45847,3.12375 0.9745,3.64668 3.56607,1.30133 1.48385,-1.34286 1.73004,-1.27137 3.16533,0.91916 2.32817,3.55326 3.18321,2.90334 3.18321,-2.41955 z m 35.84695,-22.37442 c 0,-1.59897 0.50659,-2.24363 1.76312,-2.24363 4.22352,0 4.75813,-0.84761 2.81,-4.45515 -0.99725,-1.84671 -2.24141,-5.1085 -2.76479,-7.24841 -1.19553,-4.88799 -3.73367,-6.51699 -6.91071,-4.43531 -2.40623,1.57662 -2.92805,3.12144 -3.43335,10.16437 -0.18136,2.52768 -0.66223,5.34061 -1.06859,6.25098 -0.63675,1.4264 -0.40734,1.57198 1.65957,1.05322 1.86285,-0.46754 2.85945,-0.0844 4.46291,1.71579 2.37155,2.66249 3.48184,2.4068 3.48184,-0.80186 z m -36.85817,-16.0802 c 2.74733,1.47034 2.93049,1.13837 1.80923,-3.2791 -0.7483,-2.94806 -0.64226,-4.45663 0.50651,-7.20604 2.30488,-5.51637 1.92142,-7.65498 -1.68055,-9.372632 -1.72341,-0.821849 -3.78862,-1.242858 -4.58934,-0.935598 -1.12278,0.430859 -6.30916,9.85619 -9.61196,17.46811 -0.18177,0.4189 1.05909,0.62572 2.75745,0.45958 2.70482,-0.2646 3.12204,-0.017 3.3628,1.9958 0.53889,4.50526 0.99703,4.82249 3.2246,2.23278 1.87922,-2.18474 2.3822,-2.34712 4.22126,-1.3629 z M 85.56759,104.9207 c 0.282482,-2.40173 0.49083,-2.51031 3.676604,-1.91595 l 3.377165,0.63006 -1.953236,-2.14936 c -2.727483,-3.001341 -4.021256,-5.758151 -4.021256,-8.568628 0,-3.957708 -2.494992,-7.82758 -5.046604,-7.82758 -2.969171,0 -3.81111,1.864604 -4.565383,10.110675 -0.346819,3.791507 -0.85346,7.673803 -1.125869,8.627323 -0.426138,1.49158 -0.144674,1.64566 2.01565,1.10347 1.954364,-0.49051 2.810864,-0.20202 3.864015,1.30159 1.745165,2.49156 3.399124,1.9175 3.778914,-1.3116 z m -22.787109,-3.34571 c 0.808195,-1.51012 1.566182,-1.776322 3.714421,-1.3045 2.619764,0.5754 2.671166,0.51957 1.750604,-1.9017 -0.570923,-1.501668 -0.709051,-5.665225 -0.347029,-10.460826 0.508476,-6.735693 0.365361,-8.202313 -0.926455,-9.494129 -1.214443,-1.214436 -2.036093,-1.334585 -4.005704,-0.585741 -3.368741,1.280794 -3.860367,2.311931 -3.900137,8.180303 -0.02045,3.021445 -0.772305,6.682033 -1.868709,9.09859 -1.858913,4.097174 -1.749631,5.923353 0.235669,3.93805 1.772695,-1.772684 2.558312,-1.259918 2.558312,1.669793 0,3.19146 1.322984,3.59948 2.789028,0.86016 z M 188.67278,99.250057 c 0,-3.49944 0.32634,-4.307579 1.9063,-4.720748 1.8251,-0.477275 1.79492,-0.600864 -0.70849,-2.901196 -1.43812,-1.32148 -3.79691,-3.959256 -5.24174,-5.861709 -1.44482,-1.902468 -3.59548,-3.702118 -4.77925,-3.999225 -4.3609,-1.094513 -6.48465,4.684394 -3.58537,9.75613 0.72247,1.263832 1.32824,3.848945 1.34614,5.744698 0.0368,3.900403 1.276,4.385143 3.6657,1.43398 l 1.6299,-2.012841 1.6094,3.391574 c 2.28814,4.82189 4.15741,4.4484 4.15741,-0.830663 z M 100.50601,81.116829 c -1.466723,-1.466728 -1.217584,-2.187998 0.95172,-2.755283 1.93587,-0.506243 1.93645,-0.517151 0.16443,-3.094447 -0.97807,-1.422528 -2.483443,-4.489595 -3.345283,-6.815704 -2.339605,-6.314627 -6.752309,-7.507778 -10.481066,-2.83398 -1.332094,1.669707 -1.537579,6.255009 -0.314202,7.011103 0.459109,0.283745 1.367858,2.596029 2.01946,5.138408 0.805928,3.144599 1.567597,4.466356 2.382282,4.134107 0.658667,-0.26862 1.790054,-0.728734 2.514186,-1.022475 0.842824,-0.341891 1.828121,0.455103 2.738113,2.214839 0.781836,1.511902 1.947243,2.928124 2.589806,3.147163 1.484244,0.505944 2.135464,-3.768813 0.780554,-5.123731 z m 38.51847,1.845522 c 0.0111,-1.273584 0.61097,-1.599166 2.54174,-1.378728 3.10145,0.354095 3.34441,-0.365617 2.00634,-5.943285 -1.04966,-4.375552 -5.31882,-9.853296 -7.67929,-9.853296 -2.01232,0 -3.93732,3.019738 -5.56637,8.731947 -0.86503,3.033203 -2.00624,6.041934 -2.53603,6.686068 -1.50621,1.831292 -0.0461,2.46193 2.74164,1.184166 2.34826,-1.076314 2.69595,-0.957181 4.80217,1.645355 2.32498,2.872886 3.65978,2.485003 3.6898,-1.072227 z M 119.04699,70.957274 c 0,-2.066095 0.29008,-2.262843 2.64256,-1.792348 2.72843,0.545687 3.4163,-0.398183 1.60802,-2.206462 -0.569,-0.569 -1.34329,-4.18787 -1.72065,-8.041935 -0.53303,-5.444026 -1.15822,-7.509944 -2.80228,-9.259963 -2.47738,-2.637054 -4.25245,-2.820524 -7.21467,-0.745706 -2.0701,1.44996 -2.12748,1.812181 -1.51892,9.59133 0.43535,5.56512 0.29511,8.714747 -0.45001,10.107019 -1.00051,1.869487 -0.9129,1.980006 1.15768,1.460321 1.78091,-0.446978 2.66836,0.01697 4.32911,2.263271 2.31908,3.136721 3.96916,2.564879 3.96916,-1.375527 z m 59.08432,-6.679231 c 1.91319,-2.399376 1.96591,-2.40865 4.44769,-0.782519 3.45105,2.261214 4.98515,0.757219 3.32234,-3.257152 -1.00614,-2.429007 -0.99055,-3.038639 0.0971,-3.797723 1.04105,-0.726568 1.05945,-0.999308 0.0936,-1.388104 -0.66107,-0.266127 -3.06454,-2.095921 -5.34103,-4.066211 -4.24957,-3.677979 -6.49602,-4.293444 -9.6026,-2.630849 -2.59109,1.386708 -2.1935,4.839188 1.09447,9.503868 1.57979,2.24127 2.87235,5.148692 2.87235,6.460939 0,3.008286 0.5902,3.000018 3.01603,-0.04225 z M 75.355447,44.789226 c 2.05553,-1.342314 5.052475,-3.161866 6.659887,-4.043451 2.16405,-1.186874 2.846134,-2.138854 2.628112,-3.668 -0.463078,-3.247721 -3.975011,-4.363689 -10.405134,-3.306384 -3.03321,0.498751 -7.322512,0.669079 -9.531805,0.378508 l -4.016893,-0.528313 1.502209,2.065654 c 2.605922,3.583348 2.691366,4.430801 0.716084,7.102511 -1.659024,2.243951 -1.729675,2.681959 -0.5082,3.150682 0.780288,0.299425 2.167853,0.544408 3.083495,0.544408 1.783751,0 2.757119,1.692069 2.819146,4.900725 0.03217,1.661754 0.310819,1.482053 1.677156,-1.081426 0.901257,-1.690889 3.320423,-4.172601 5.375943,-5.514914 z m 81.096273,-5.937194 c 1.94277,0.508048 2.11589,0.329654 1.59479,-1.64334 -0.42776,-1.619572 -0.07,-2.604473 1.33402,-3.671712 1.89798,-1.442789 1.88112,-1.482285 -1.56976,-3.676609 -7.29213,-4.636886 -7.53269,-4.716852 -10.25882,-3.41025 -3.484,1.669835 -3.62877,4.001942 -0.49309,7.942718 1.47047,1.848029 2.96461,4.140188 3.3203,5.093685 0.59543,1.596204 0.77538,1.61718 2.26995,0.264612 1.03105,-0.93308 2.41834,-1.261099 3.80261,-0.899104 z"
       id="path7019" />
    <path
       style="fill:#37abc8;stroke:#000000;stroke-width:0.545239"
       d="m 60.507104,102.50958 c -0.19821,-0.51653 -0.360383,-1.66285 -0.360383,-2.547376 0,-1.990117 -1.296119,-2.595593 -2.746502,-1.283014 -1.433029,1.296873 -1.383526,0.437011 0.232804,-4.043834 0.759581,-2.105736 1.46933,-5.657743 1.701868,-8.51717 0.458456,-5.637442 0.793336,-6.493836 2.981873,-7.625572 2.124685,-1.098717 3.067422,-1.038426 4.386371,0.280522 1.030074,1.030075 1.095003,1.69658 0.969356,9.950611 -0.07407,4.865623 0.05905,9.398642 0.295815,10.073375 0.403422,1.149666 0.282501,1.226478 -1.923523,1.221868 -1.981165,-0.004 -2.577594,0.26709 -3.765652,1.71241 -1.209278,1.47114 -1.463306,1.58269 -1.772027,0.77818 z"
       id="path7021" />
    <path
       style="fill:#37abc8;stroke:#000000;stroke-width:0.545239"
       d="m 68.355597,49.998235 c -0.03733,-2.183549 -1.69208,-3.950092 -3.710654,-3.961332 -2.789286,-0.01553 -3.149121,-0.718188 -1.563082,-3.052255 1.778842,-2.617802 1.791376,-3.883295 0.06367,-6.429205 -0.749704,-1.10475 -1.363098,-2.111187 -1.363098,-2.236527 0,-0.12534 1.558331,-0.08237 3.462958,0.09548 1.904628,0.177857 5.940708,0.01985 8.969067,-0.351118 5.068656,-0.620907 5.670728,-0.59408 7.578131,0.337658 1.804104,0.881277 2.072022,1.255738 2.072022,2.895995 0,1.780154 -0.255091,2.03851 -4.634531,4.693842 -4.717448,2.860273 -7.502672,5.211322 -9.6477,8.143766 l -1.196497,1.635717 -0.03029,-1.772026 z"
       id="path7023" />
    <path
       style="fill:#37abc8;stroke:#000000;stroke-width:0.545239"
       d="m 81.99334,105.97493 c -1.577919,-1.50794 -2.041364,-1.66954 -3.924456,-1.36842 -2.007668,0.32104 -2.118499,0.26763 -1.854939,-0.89379 0.154169,-0.67938 0.660286,-4.421527 1.124704,-8.315883 1.063198,-8.915402 2.298696,-11.077567 5.497174,-9.620243 1.620483,0.738341 3.448964,4.497413 3.482369,7.159209 0.03064,2.441099 1.556224,5.793393 3.798942,8.347707 l 1.761439,2.00617 -1.826022,-0.37141 c -3.551709,-0.72242 -3.935357,-0.58053 -4.705299,1.74017 -1.030562,3.10625 -1.349924,3.23161 -3.353912,1.31649 z"
       id="path7025" />
    <path
       style="fill:#37abc8;stroke:#000000;stroke-width:0.545239"
       d="m 98.475213,84.445111 c -2.860625,-4.095729 -3.146785,-4.300738 -4.956702,-3.551045 -0.925162,0.383214 -1.926186,0.545907 -2.2245,0.361539 -0.298314,-0.184368 -0.949056,-1.734101 -1.446094,-3.443851 -0.497037,-1.70975 -1.389322,-4.060526 -1.982855,-5.223946 -1.385579,-2.715959 -0.962969,-5.692314 1.079633,-7.60363 3.923745,-3.671551 5.961475,-2.46388 10.247637,6.073314 l 3.298208,6.569374 -1.54331,0.537999 c -1.748079,0.609384 -1.941875,1.660512 -0.66534,3.60875 0.89453,1.365219 0.68331,4.074082 -0.317658,4.074082 -0.280168,0 -0.950226,-0.631164 -1.489019,-1.402586 z"
       id="path7027" />
    <path
       style="fill:#37abc8;stroke:#000000;stroke-width:0.545239"
       d="m 114.78642,71.619032 c -2.01956,-1.905853 -2.56415,-2.156418 -4.00099,-1.840836 -1.58144,0.347343 -1.63159,0.306193 -1.01986,-0.836835 0.4393,-0.820836 0.58423,-3.83783 0.45694,-9.511706 -0.20224,-9.014535 -0.0936,-9.428102 2.88191,-10.966779 2.02979,-1.049643 2.30416,-1.008126 4.27014,0.646137 2.50166,2.105004 3.10504,3.671111 4.05951,10.536566 0.47481,3.415284 1.23281,6.77357 1.68445,7.462856 1.15925,1.769237 1.10039,1.836854 -1.59901,1.836854 h -2.42016 l -0.36794,2.453575 c -0.20237,1.349466 -0.64677,2.44744 -0.98758,2.439942 -0.3408,-0.0075 -1.67163,-1.006396 -2.95741,-2.219774 z"
       id="path7029" />
    <path
       style="fill:#37abc8;stroke:#000000;stroke-width:0.545239"
       d="m 150.41514,39.055999 c -0.1731,-0.545394 -1.41642,-2.556169 -2.76293,-4.468388 -2.80578,-3.984549 -3.02412,-5.457847 -1.04015,-7.018438 2.8687,-2.256517 3.53327,-2.112593 10.48527,2.270737 l 3.44212,2.170308 -1.39748,1.458653 c -0.95919,1.001187 -1.39747,2.060925 -1.39747,3.379032 0,1.82388 -0.0822,1.908309 -1.63675,1.680157 -0.96078,-0.141013 -2.19135,0.123167 -2.97963,0.63967 -1.73098,1.13418 -2.32531,1.109703 -2.71298,-0.111731 z"
       id="path7035" />
    <path
       style="fill:#37abc8;stroke:#000000;stroke-width:0.545239"
       d="m 135.60267,83.662651 c -2.21014,-2.344017 -2.19887,-2.341722 -6.43618,-1.31142 -1.41648,0.344416 -1.53978,0.274119 -1.13751,-0.648508 0.24815,-0.569138 1.24196,-3.295445 2.20848,-6.058459 3.78394,-10.817305 5.97682,-11.863767 10.54028,-5.029924 2.14502,3.212189 3.94736,9.395931 3.0074,10.318267 -0.26921,0.264168 -1.47091,0.558041 -2.67043,0.653051 -1.97373,0.156332 -2.1979,0.328169 -2.35922,1.808463 -0.28475,2.61277 -0.89357,2.664625 -3.15282,0.26853 z"
       id="path7037" />
    <path
       style="fill:#37abc8;stroke:#000000;stroke-width:0.545239"
       d="m 135.64454,119.24358 c -0.54593,-3.28489 -0.60191,-3.34041 -3.54365,-3.51457 l -2.80043,-0.16579 3.55193,-6.95067 c 5.61076,-10.979548 5.74037,-11.097646 10.03839,-9.14675 3.38181,1.53502 3.69498,2.85119 1.97438,8.29783 -1.26317,3.99866 -1.34583,4.76137 -0.80687,7.44505 0.90804,4.52151 0.88012,4.61645 -1.0625,3.61188 -1.98363,-1.02577 -3.50548,-0.6535 -4.68451,1.14592 -1.25699,1.91841 -2.27357,1.64284 -2.66674,-0.7229 z"
       id="path7039" />
    <path
       style="fill:#37abc8;stroke:#000000;stroke-width:0.545239"
       d="m 140.45713,159.59127 -1.66613,-2.04465 -1.73806,1.27077 c -2.27469,1.66312 -3.55082,1.21531 -3.09083,-1.0846 0.49219,-2.46098 -0.38551,-3.18498 -3.8611,-3.18498 h -2.97422 l 2.42887,-2.86251 c 1.33588,-1.57438 3.35013,-4.33465 4.4761,-6.13394 3.08189,-4.9248 4.51562,-6.27024 6.68166,-6.27024 1.31584,0 2.30739,0.45911 3.44204,1.59377 1.92949,1.92949 2.03475,3.77008 0.49627,8.67803 -0.5959,1.90098 -1.08345,4.63058 -1.08345,6.06579 0,3.06447 -0.52177,6.0172 -1.06328,6.0172 -0.20996,0 -1.1315,-0.92009 -2.04787,-2.04464 z"
       id="path7041" />
    <path
       style="fill:#37abc8;stroke:#000000;stroke-width:0.545239"
       d="m 175.79635,135.38704 c -1.54826,-1.40743 -2.1746,-1.63753 -3.84696,-1.41322 l -1.9976,0.26794 0.70048,-3.34164 c 0.38526,-1.8379 0.70696,-4.32307 0.71488,-5.5226 0.034,-5.14219 2.32661,-8.99644 5.35142,-8.99644 2.00715,0 3.0009,1.16053 4.20194,4.90715 0.52872,1.64935 1.67481,4.58929 2.54685,6.5332 1.48201,3.30362 1.52382,3.57951 0.64024,4.2256 -0.51991,0.38017 -1.75425,0.69122 -2.74298,0.69122 -1.67568,0 -1.82135,0.14801 -2.14643,2.18095 -0.19181,1.19953 -0.62409,2.17377 -0.96061,2.16498 -0.33652,-0.009 -1.44408,-0.7725 -2.46123,-1.69714 z"
       id="path7043" />
    <path
       style="fill:#37abc8;stroke:#000000;stroke-width:0.545239"
       d="m 186.4977,102.52775 c -0.46649,-0.46649 -1.40686,-2.08436 -2.0897,-3.595265 l -1.24153,-2.747102 -2.02961,1.981859 c -2.33944,2.284398 -3.21378,2.077208 -3.23002,-0.765396 -0.006,-1.106857 -0.61865,-3.72997 -1.36072,-5.82914 -1.64599,-4.656148 -1.68979,-6.241517 -0.22393,-8.105055 2.11471,-2.688409 3.45216,-2.0733 9.60608,4.417936 4.66205,4.91759 5.40799,5.938226 4.63453,6.341213 -1.68961,0.880324 -2.28485,2.164399 -2.29327,4.947153 -0.0105,3.474107 -0.57778,4.547847 -1.77183,3.353797 z"
       id="path7045" />
    <path
       style="fill:#37abc8;stroke:#000000;stroke-width:0.545239"
       d="m 175.53667,65.646566 c -0.13759,-0.434813 -0.38787,-1.587621 -0.55617,-2.561794 -0.16831,-0.974173 -1.41633,-3.667976 -2.77338,-5.986228 -1.35705,-2.318252 -2.46737,-4.85684 -2.46737,-5.641306 0,-2.61757 3.32451,-4.351 6.22772,-3.247198 0.85285,0.32425 3.37274,2.05536 5.59977,3.846911 2.22702,1.79155 4.34128,3.265167 4.69834,3.274704 0.35706,0.0095 0.19013,0.364996 -0.37095,0.789908 -0.79497,0.602033 -0.9397,1.16989 -0.65568,2.572545 1.00038,4.940357 1.00628,5.34403 0.078,5.34403 -0.49457,0 -1.8871,-0.503977 -3.09451,-1.11995 l -2.19528,-1.119949 -2.12019,2.319448 c -1.49513,1.635649 -2.19393,2.08638 -2.37034,1.528879 z"
       id="path7047" />
    <path
       style="fill:#abc837;stroke:#000000;stroke-width:0.545239"
       d="m 159.75491,290.272 c -3.23499,-4.93721 -6.39817,-21.10561 -6.41055,-32.76708 -0.0169,-15.91073 6.87027,-35.9398 24.0598,-69.97016 10.42857,-20.64559 10.8265,-21.53694 9.6148,-21.53694 -0.48954,0 -5.53268,9.32831 -13.33839,24.67207 -17.39189,34.18737 -20.74305,41.73182 -23.00799,51.7977 -0.6579,2.92384 -1.33568,5.31608 -1.50618,5.31608 -0.71942,0 0.39558,-16.98174 1.47852,-22.51826 2.16728,-11.08019 4.99196,-17.48856 15.54946,-35.27707 16.729,-28.18699 25.77538,-47.52545 28.94912,-61.88462 0.31211,-1.4121 0.49572,-1.02758 1.34304,2.81273 0.53983,2.44665 1.59507,6.39071 2.34497,8.76457 3.62247,11.46714 3.10705,18.75003 -2.65353,37.4942 -3.53113,11.48984 -3.58141,12.26461 -1.10289,16.99595 2.67139,5.09954 3.01749,8.68522 1.441,14.92938 -2.04224,8.08895 -5.19874,13.90751 -13.50633,24.897 -3.58901,4.74763 -5.12728,7.25294 -5.35645,8.72383 -1.39527,8.95502 -2.14036,10.4345 -10.36772,20.58671 l -4.78266,5.90159 -0.50781,9.86977 c -0.2793,5.42837 -0.69399,10.47814 -0.92154,11.22172 l -0.41372,1.35196 z"
       id="path7049" />
    <path
       style="fill:#abc837;stroke:#000000;stroke-width:0.545239"
       d="m 140.84293,257.77599 c -13.79014,-14.2206 -14.27948,-15.09592 -15.49265,-27.71259 -1.13,-11.75176 -1.33975,-12.36136 -5.7338,-16.6637 -5.18839,-5.08012 -5.51385,-6.44222 -6.55668,-27.44062 -0.46989,-9.46169 -0.53713,-9.85812 -2.24191,-13.2168 -1.76113,-3.4697 -3.89638,-5.99868 -7.90524,-9.36294 l -2.14563,-1.80062 3.77453,0.32605 c 10.76443,0.92984 23.51737,8.38867 34.26332,20.03963 2.76982,3.00309 6.59729,7.08428 8.50549,9.06932 l 3.46946,3.60915 -0.35048,8.17858 c -0.42161,9.83847 -1.23763,18.45976 -2.16752,22.90004 l -0.68511,3.27143 -4.2912,-6.54286 c -5.39471,-8.22541 -7.90392,-13.14252 -11.96416,-23.44528 -4.95537,-12.57411 -14.77908,-31.35124 -16.40216,-31.35124 -1.25738,0 -0.96887,0.92304 1.85438,5.93292 5.36161,9.51422 10.88929,20.64261 12.62574,25.41832 0.98134,2.69893 4.22769,10.67305 7.21413,17.72027 8.03054,18.95003 9.51637,23.73241 10.47178,33.70517 0.43319,4.52172 1.02127,9.1542 1.30686,10.29441 1.0722,4.28087 1.18168,5.07192 0.70193,5.07192 -0.27098,0 -3.98396,-3.60025 -8.25108,-8.00056 z"
       id="path7051" />
    <path
       style="fill:#abc837;stroke:#000000;stroke-width:0.13631"
       d="m 151.13576,263.92295 c -1.04112,-1.58896 -1.20697,-8.32962 -0.33345,-13.55265 0.15381,-0.9197 0.36023,-1.90113 0.45871,-2.18096 l 0.17906,-0.50876 0.11943,1.09047 c 0.0657,0.59977 0.11955,4.26172 0.11968,8.13768 2.6e-4,7.35881 -0.0334,7.79269 -0.54343,7.01422 z"
       id="path7053" />
    <path
       style="fill:#abc837;stroke:#000000;stroke-width:0.13631"
       d="m 146.52967,236.29871 c -0.0425,-0.11245 -0.29017,-0.78719 -0.55035,-1.4994 -0.26017,-0.71222 -0.84284,-2.27638 -1.29481,-3.4759 -0.81691,-2.16805 -1.25527,-3.7905 -1.0733,-3.97247 0.15608,-0.15608 0.75911,0.50175 1.39237,1.51889 1.29035,2.07257 1.97513,4.04859 1.96036,5.65686 -0.009,0.94274 -0.29935,2.12889 -0.43427,1.77202 z"
       id="path7055" />
    <path
       style="fill:#abc837;stroke:#000000;stroke-width:0.13631"
       d="m 152.44314,243.40246 c -0.0239,-0.55397 0.66435,-3.66434 1.28527,-5.8088 1.14421,-3.95179 1.60231,-4.84381 1.01994,-1.98603 -0.56561,2.7755 -2.27276,8.54807 -2.30521,7.79483 z"
       id="path7057" />
    <path
       style="fill:#c87137;stroke:#000000;stroke-width:0.385542"
       d="m 151.53971,210.71435 c 0.35614,-3.59618 0.61326,-8.51739 1.02226,-19.56626 0.49889,-13.47739 0.95571,-20.44882 2.15899,-32.94792 1.16096,-12.05962 1.17926,-20.93955 0.0474,-23.02476 -1.24622,-2.29597 -1.80837,-2.15033 -6.99612,1.81245 -2.47388,1.88972 -3.13984,1.39022 -1.94838,-1.46135 1.23633,-2.95894 3.23418,-3.99668 8.75268,-4.54638 2.04104,-0.2033 2.60375,-0.39507 2.60859,-0.88901 0.003,-0.34637 0.26086,-4.88038 0.57213,-10.07556 1.04408,-17.42537 0.78177,-20.159631 -2.23559,-23.303832 -2.04246,-2.128308 -3.6954,-2.516457 -6.77234,-1.5903 -1.19503,0.359703 -2.60277,0.757521 -3.1283,0.884037 -0.92988,0.223861 -0.93913,0.205363 -0.34488,-0.689631 0.33585,-0.505816 1.37306,-1.328717 2.30491,-1.828665 2.14519,-1.150924 4.25092,-0.972877 8.01078,0.67734 1.47412,0.646993 2.868,1.176351 3.09752,1.176351 1.00901,0 0.0719,-10.105982 -2.10924,-22.746988 -1.30084,-7.539058 -1.91966,-9.576459 -3.58357,-11.798528 -1.92799,-2.574727 -4.08604,-3.623159 -7.45775,-3.623159 -4.34962,0 -7.61573,1.662383 -8.46792,4.309995 -0.28514,0.885872 -0.74503,1.684175 -1.02197,1.774011 -1.32348,0.429301 1.97512,-5.183904 3.81709,-6.495501 1.16522,-0.829707 4.19406,-1.516216 6.68948,-1.516216 3.41567,0 3.76759,-1.852084 0.88359,-4.650139 -1.91675,-1.859623 -9.80611,-7.227977 -12.96775,-8.823973 -3.28271,-1.657106 -6.40816,-2.462481 -8.56495,-2.207042 -2.33856,0.276969 -3.84735,1.061882 -6.54046,3.402548 -1.18272,1.027932 -2.26705,1.868967 -2.40964,1.868967 -0.60366,0 -0.14445,-0.782292 1.68923,-2.877744 2.36133,-2.698426 2.41938,-3.695066 0.24647,-4.231753 -3.0237,-0.746821 -15.16042,1.549991 -20.242871,3.830859 -4.647364,2.085612 -6.793295,5.663601 -7.610438,12.689154 -0.27575,2.370825 -0.800215,5.057493 -1.165477,5.970369 l -0.664112,1.659782 -0.521084,-1.239298 c -0.338323,-0.804634 -0.521085,-2.835374 -0.521085,-5.790003 0,-2.502891 -0.105309,-4.825141 -0.23402,-5.160556 -0.405392,-1.056435 -1.759226,-0.66646 -3.296517,0.949569 -3.299069,3.468041 -5.585654,10.548163 -6.562137,20.318831 -0.404905,4.05147 -0.378189,4.84842 0.252255,7.524742 0.387819,1.646342 0.594388,3.104089 0.459043,3.239434 -0.371445,0.371442 -2.151896,-3.760914 -2.656094,-6.164692 -0.366472,-1.747166 -0.320007,-2.945951 0.266485,-6.875251 0.390693,-2.617507 0.787881,-6.19043 0.88264,-7.939828 0.212111,-3.915862 -0.148766,-4.0587 -3.014358,-1.193108 -2.926748,2.926748 -6.077932,7.35632 -8.185592,11.506361 -1.919507,3.779562 -2.586403,4.783348 -2.586403,3.892954 0,-0.978105 3.093489,-7.08554 4.870497,-9.615757 2.279606,-3.245849 20.331867,-21.267892 23.619086,-23.579548 4.206745,-2.958292 5.564656,-4.029726 5.7253,-4.517441 0.08522,-0.258716 -0.421646,-0.83862 -1.126358,-1.288674 l -1.281297,-0.818281 1.156627,0.251901 c 0.982486,0.213975 2.521496,1.103452 4.63806,2.680584 0.30872,0.230038 1.61291,-0.02342 3.7024,-0.719522 4.38319,-1.460237 11.5087,-1.785469 16.91255,-0.771946 2.01446,0.377824 4.55951,0.759934 5.65566,0.849136 1.79898,0.146394 2.05572,0.06648 2.63711,-0.82084 0.55003,-0.839442 0.6074,-1.646847 0.39281,-5.527855 -0.22934,-4.14758 -0.18314,-4.653005 0.52856,-5.782413 1.33302,-2.115411 3.58134,-3.324241 6.12747,-3.294502 2.48076,0.02898 6.17388,1.263817 7.21265,2.411643 0.65432,0.723017 0.65371,0.766292 -0.0142,1.022599 -0.38359,0.147198 -1.51483,-0.02268 -2.51386,-0.377504 -5.67625,-2.016031 -10.00207,0.5396 -10.00207,5.90908 0,2.959887 0.83917,4.323829 4.18771,6.806433 6.16297,4.569232 7.09056,5.332791 10.0521,8.2745 1.67443,1.663216 3.60878,3.894991 4.29856,4.9595 0.68978,1.064509 1.45827,1.935471 1.70777,1.935471 0.79087,0 1.69865,-1.331022 2.50377,-3.671142 1.42315,-4.136474 3.28925,-5.372644 7.72296,-5.115981 3.01894,0.174764 6.52374,1.466468 6.84315,2.522063 0.22272,0.736055 -0.59343,0.576046 -1.8679,-0.366204 -1.50661,-1.113889 -5.88375,-1.144913 -7.74505,-0.0549 -3.57626,2.09433 -4.04813,5.959013 -2.20502,18.059653 0.41987,2.756627 1.08953,7.316206 1.48812,10.132395 0.74322,5.251212 1.70866,7.795316 2.95816,7.795316 0.31913,0 1.64956,-1.019138 2.95651,-2.264756 3.95401,-3.768455 5.71412,-4.226837 8.16704,-2.126916 0.81238,0.695471 0.92309,0.904424 0.3779,0.713256 -1.88033,-0.659315 -4.32904,-0.648921 -5.35412,0.02275 -1.67805,1.099509 -3.62126,5.663611 -4.28019,10.053097 -1.12259,7.478146 -1.52064,20.235768 -0.74771,23.964038 0.22787,1.09914 1.23065,1.12152 3.9495,0.0881 2.21548,-0.84206 3.96701,-0.65988 5.75782,0.59886 1.44082,1.01273 0.99982,1.33709 -1.81791,1.33709 -2.4407,0 -2.80677,0.10659 -4.01769,1.16979 -2.72364,2.39139 -5.76426,11.90106 -7.33055,22.9266 -0.9259,6.51767 -1.32088,12.3593 -2.15063,31.80723 -0.9496,22.25703 -1.46629,31.15142 -1.98035,34.09026 -0.36181,2.06839 -3.11235,8.31936 -3.66069,8.31936 -0.12448,0 -0.12752,-0.99759 -0.007,-2.21687 z"
       id="path7059" />
    <path
       style="fill:#c87137;stroke:#000000;stroke-width:0.0963855"
       d="m 94.851683,35.406014 c -0.587054,-0.215633 -2.59496,-0.594483 -3.547114,-0.669268 -0.603273,-0.04738 -1.215823,-0.01725 -2.12058,0.104304 -1.820257,0.244558 -2.582921,0.09552 -2.439309,-0.476672 0.215559,-0.858856 2.677276,-0.956367 6.082966,-0.240951 1.360783,0.285853 2.933118,0.735844 2.632941,0.75353 -0.248054,0.01461 -0.331813,0.401815 -0.120367,0.556428 0.23398,0.17109 0.01897,0.159044 -0.488537,-0.02737 z"
       id="path7061" />
  </g>
</svg>
