<?xml version="1.0" encoding="UTF-8" standalone="no"?>
<svg
   xmlns:dc="http://purl.org/dc/elements/1.1/"
   xmlns:cc="http://creativecommons.org/ns#"
   xmlns:rdf="http://www.w3.org/1999/02/22-rdf-syntax-ns#"
   xmlns:svg="http://www.w3.org/2000/svg"
   xmlns="http://www.w3.org/2000/svg"
   xmlns:sodipodi="http://sodipodi.sourceforge.net/DTD/sodipodi-0.dtd"
   xmlns:inkscape="http://www.inkscape.org/namespaces/inkscape"
   version="1.1"
   id="svg8541"
   width="236"
   height="230"
   viewBox="0 0 236 230"
   sodipodi:docname="flower06.svg"
   inkscape:version="1.0.1 (3bc2e813f5, 2020-09-07)">
  <metadata
     id="metadata8547">
    <rdf:RDF>
      <cc:Work
         rdf:about="">
        <dc:format>image/svg+xml</dc:format>
        <dc:type
           rdf:resource="http://purl.org/dc/dcmitype/StillImage" />
        <dc:title></dc:title>
      </cc:Work>
    </rdf:RDF>
  </metadata>
  <defs
     id="defs8545" />
  <sodipodi:namedview
     pagecolor="#ffffff"
     bordercolor="#666666"
     borderopacity="1"
     objecttolerance="10"
     gridtolerance="10"
     guidetolerance="10"
     inkscape:pageopacity="0"
     inkscape:pageshadow="2"
     inkscape:window-width="1920"
     inkscape:window-height="1001"
     id="namedview8543"
     showgrid="false"
     inkscape:zoom="2.5517332"
     inkscape:cx="110.5316"
     inkscape:cy="133.49463"
     inkscape:window-x="-9"
     inkscape:window-y="-9"
     inkscape:window-maximized="1"
     inkscape:current-layer="g8549" />
  <g
     inkscape:groupmode="layer"
     inkscape:label="Image"
     id="g8549">
    <path
       style="fill:#ffff00;stroke-width:0.813936"
       d="m 103.57138,206.52639 c -11.9926,-2.94857 -21.835094,-9.94769 -26.021389,-18.50417 -3.541694,-7.23897 -3.507772,-17.82611 0.0851,-26.5463 0.459721,-1.11579 -0.803429,-0.76176 -5.808177,1.62788 -6.002309,2.86596 -6.871239,3.05378 -14.128062,3.05378 -6.548042,0 -8.355738,-0.30471 -11.802076,-1.98935 -11.856529,-5.79572 -19.988964,-21.52997 -21.30337,-41.21671 -1.402347,-21.00385 8.417665,-31.341976 29.772002,-31.342812 4.210086,-1.63e-4 7.323392,-0.270801 6.918459,-0.601414 -0.404934,-0.330613 -2.86555,-2.022801 -5.468036,-3.760416 -9.524483,-6.35924 -13.928373,-15.93103 -11.963656,-26.002787 2.918463,-14.960973 18.862952,-31.696946 36.237723,-38.036568 3.64265,-1.32911 6.831407,-1.798218 12.608191,-1.854832 8.241511,-0.08077 11.221811,0.901266 17.697331,5.831412 3.58834,2.731993 8.81448,10.752089 10.50871,16.126796 0.76612,2.430418 1.61236,4.418944 1.88055,4.418944 0.26817,0 0.97738,-1.658833 1.57603,-3.686296 2.64787,-8.967801 10.33821,-17.163896 18.33225,-19.537871 14.26495,-4.236233 37.42159,3.525671 52.02217,17.437381 6.91347,6.587274 11.12009,14.471561 11.12009,20.841872 0,7.495644 -5.39357,16.828855 -13.76998,23.828017 l -4.84482,4.048237 5.84817,0.386837 c 14.21736,0.940443 22.25678,8.96218 23.17356,23.12257 0.47272,7.30149 -0.78899,14.70786 -4.30269,25.25743 -5.13972,15.43152 -10.70121,24.1713 -18.17813,28.56665 -3.21346,1.88905 -4.67458,2.22189 -9.49542,2.16303 -8.20337,-0.10019 -16.01108,-3.60579 -27.8368,-12.49865 l -3.41871,-2.57086 1.91564,4.72076 c 5.9084,14.56027 3.98504,25.99665 -5.96883,35.49105 -11.13529,10.62128 -29.43574,15.14797 -45.38583,11.22639 z m 27.8525,-2.03472 c 18.5441,-5.9127 28.16934,-19.04171 25.53708,-34.8331 -1.37869,-8.271 -7.45252,-19.84763 -15.19975,-28.97042 l -2.27522,-2.67922 -5.69084,1.33336 c -9.46153,2.21684 -19.36663,0.28549 -27.22176,-5.30785 l -2.32164,-1.65317 -1.50367,2.37318 c -3.069329,4.84419 -13.700117,16.51895 -18.571333,20.3951 -4.51115,3.58963 -5.19405,4.53497 -6.59815,9.1339 -2.325609,7.61719 -2.119298,17.71534 0.470657,23.03647 4.1173,8.45912 13.280202,15.05712 25.533326,18.38597 7.9182,2.15116 18.77081,1.67786 27.8413,-1.21422 z m 58.78854,-35.92076 c 8.33948,-2.47656 15.17036,-12.00037 20.75865,-28.94236 5.44383,-16.504 5.93881,-27.96721 1.57829,-36.55104 -6.63125,-13.053847 -24.03641,-14.736456 -49.4646,-4.781876 l -6.86342,2.686896 0.59233,3.28581 c 2.19777,12.19139 -2.56527,23.70226 -12.59643,30.44189 l -4.2355,2.8457 2.78561,3.08333 c 1.53208,1.69582 4.14652,5.13301 5.80986,7.63818 3.74932,5.64688 13.66646,13.31961 22.66573,17.53611 9.13766,4.28134 12.29316,4.74002 18.96948,2.75736 z m -117.4622,-6.83954 c 8.128793,-4.12168 18.397015,-13.29699 26.269351,-23.47334 l 5.006629,-6.47192 -2.0364,-1.9131 c -1.12002,-1.05221 -3.179329,-4.23471 -4.576239,-7.07222 -2.0925,-4.2505 -2.55222,-6.19079 -2.61023,-11.01681 -0.0387,-3.22174 0.21264,-7.18719 0.55857,-8.81212 l 0.62899,-2.95445 -9.175313,-2.504796 C 81.769153,96.134974 74.578063,94.442728 70.835375,93.752072 62.070335,92.134626 47.890559,92.112847 42.517169,93.708537 29.987551,97.429444 24.326447,107.15689 25.459352,123.01893 c 1.419993,19.88165 9.138278,34.57548 21.251333,40.45763 4.476545,2.17383 5.47607,2.3466 11.991215,2.07278 6.473073,-0.27205 7.727226,-0.61291 14.04832,-3.818 z m 64.947,-24.47321 c 6.56699,-2.45703 13.49353,-9.01139 16.42412,-15.54163 6.16003,-13.72638 0.0123,-29.800962 -14.04525,-36.724211 -5.08635,-2.504997 -5.95163,-2.670176 -13.98735,-2.670176 -7.67541,0 -9.07313,0.236797 -13.44923,2.278614 -6.38971,2.981343 -11.92692,8.503649 -14.763949,14.724197 -1.86571,4.090836 -2.27296,6.129036 -2.29473,11.484946 -0.0226,5.57488 0.31478,7.20758 2.34583,11.35078 7.139369,14.5637 24.044789,20.98125 39.770559,15.09748 z m 26.68637,-40.351396 c 4.15134,-1.60325 10.59438,-3.580746 14.31788,-4.394426 7.39227,-1.615426 11.11667,-4.087697 18.45683,-12.251724 14.88387,-16.554437 7.35457,-35.29383 -19.71067,-49.057184 -25.71763,-13.078061 -45.52038,-7.819856 -52.59205,13.964722 -1.31496,4.05081 -1.32545,4.908196 -0.14922,12.209044 0.69577,4.318753 1.5106,11.380701 1.81072,15.693217 l 0.54568,7.840943 3.86501,0.371373 c 8.40286,0.807412 19.11751,8.034583 22.89803,15.445005 0.86815,1.70172 1.90053,3.09404 2.29417,3.09404 0.39364,0 4.11227,-1.31176 8.26362,-2.91501 z M 99.510791,94.529415 c 4.829749,-7.27412 13.051879,-12.316633 21.543679,-13.212426 2.50981,-0.264765 4.52129,-0.917121 4.762,-1.544412 0.77308,-2.014604 -1.48085,-20.85661 -3.39982,-28.421499 C 118.8761,37.39386 112.41097,27.85707 103.90608,24.045912 97.978831,21.38983 88.003151,21.378036 80.489041,24.018224 69.076726,28.028099 57.059226,37.484295 50.522399,47.598036 c -8.833164,13.666624 -8.184222,26.349173 1.833,35.823042 5.687378,5.378884 10.870166,7.863356 20.508599,9.831163 4.417607,0.901911 10.96218,2.521753 14.543497,3.599633 3.581329,1.07789 7.100616,2.00393 7.820646,2.05788 0.74562,0.0558 2.58908,-1.82965 4.28265,-4.380339 z"
       id="path9114" />
    <path
       style="fill:#ffff00;stroke:#000000;stroke-width:0.39189"
       d="m 52.322684,165.20957 c -4.618496,-0.60273 -11.72165,-5.26847 -15.732051,-10.33368 -4.364828,-5.51284 -7.450434,-12.37189 -9.272989,-20.61308 -3.392821,-15.34159 -1.897146,-26.91778 4.356806,-33.72071 5.676505,-6.174789 12.604991,-8.15153 26.931659,-7.68377 8.460849,0.276243 13.172505,1.03825 24.537318,3.968375 13.332135,3.437345 12.308646,3.088552 12.242276,4.172035 -0.03198,0.52179 -0.26544,3.11193 -0.51884,5.75587 -0.767416,8.00709 0.196596,12.70382 3.878419,18.89589 0.835107,1.40448 2.259838,3.39507 3.166058,4.42351 l 1.64767,1.86991 -1.6769,2.24494 c -6.247392,8.36367 -15.108436,17.56295 -21.722024,22.55119 -4.281666,3.22941 -12.838736,7.58981 -15.871565,8.08763 -2.947241,0.48378 -9.56643,0.69502 -11.965837,0.38189 z"
       id="path9116" />
    <path
       style="fill:#ffff00;stroke:#000000;stroke-width:0.39189"
       d="M 87.997896,96.867238 C 84.7648,95.940158 78.654025,94.376206 74.418398,93.391788 70.18277,92.407375 65.307653,91.058343 63.584805,90.39394 55.716673,87.359669 48.590054,80.49787 45.872107,73.339437 44.542727,69.838162 44.336151,63.756926 45.40325,59.537121 c 1.817571,-7.187517 5.88092,-13.79723 12.597027,-20.491156 8.110167,-8.083383 17.51301,-13.741966 26.470605,-15.929876 3.920543,-0.9576 12.870037,-0.951318 16.049698,0.01127 12.20126,3.693709 20.00127,15.973578 23.3062,36.69186 1.02842,6.447084 2.06228,16.470672 1.91207,18.538086 -0.1125,1.548391 -0.21088,1.670614 -1.68703,2.095944 -0.86216,0.248416 -3.15163,0.743875 -5.08772,1.10102 -7.81684,1.441954 -14.40169,5.620525 -19.050205,12.08876 -2.892026,4.024144 -3.86415,4.978562 -5.033261,4.941583 -0.552409,-0.01748 -3.649641,-0.79029 -6.882738,-1.71737 z"
       id="path9118" />
    <path
       style="fill:#ffff00;stroke:#000000;stroke-width:0.39189"
       d="m 155.2947,98.70107 c -0.40187,-0.58543 -1.20741,-1.896578 -1.79009,-2.913655 -1.40117,-2.445789 -4.85058,-6.133357 -7.83852,-8.379724 -4.79185,-3.602567 -11.90981,-6.426389 -16.19889,-6.426389 -2.22468,0 -2.29365,-0.194593 -2.84742,-8.033755 -0.24362,-3.448637 -0.89248,-9.444562 -1.44192,-13.324278 -1.25278,-8.846278 -1.27632,-10.693142 -0.17992,-14.118149 4.43485,-13.853856 13.74684,-21.037173 27.27,-21.036224 7.78653,5.45e-4 15.04353,1.999104 24.63843,6.785357 7.50729,3.744883 13.03416,7.534598 17.82623,12.223252 7.20289,7.04745 10.56751,14.784629 9.53629,21.929414 -0.9373,6.494076 -3.32695,10.580569 -10.26461,17.553289 -6.41983,6.452269 -8.22634,7.506674 -16.71847,9.758058 -5.6956,1.509981 -9.82278,2.845771 -17.45675,5.649995 l -3.8037,1.397235 z"
       id="path9120" />
    <path
       style="fill:#ffff00;stroke:#000000;stroke-width:0.39189"
       d="m 179.50433,168.83456 c -5.68649,-1.60134 -14.00217,-5.94478 -20.23088,-10.56698 -4.88831,-3.62752 -7.86415,-6.60502 -11.4423,-11.44867 -1.83109,-2.47871 -4.26725,-5.57985 -5.41368,-6.89143 l -2.08441,-2.38467 3.30987,-2.24831 c 10.19251,-6.9235 15.21961,-17.92423 13.55626,-29.665 -0.25637,-1.80959 -0.54573,-3.56384 -0.64303,-3.89833 -0.13441,-0.46207 0.88254,-1.01919 4.23363,-2.31932 13.54546,-5.25526 21.89264,-7.23064 30.47125,-7.211098 7.97545,0.01817 13.11618,1.824078 17.40685,6.114921 6.94068,6.940967 8.33894,18.447297 4.15592,34.199227 -3.80443,14.32627 -9.4846,25.91125 -15.38102,31.37029 -5.07448,4.69807 -12.02292,6.61521 -17.93846,4.94937 z"
       id="path9122" />
    <path
       style="fill:#ffcc00;stroke:#000000;stroke-width:0.39189"
       d="M 106.59363,206.198 C 92.05686,203.43704 79.321184,193.59519 76.95303,183.29238 76.070988,179.455 76.076027,171.67451 76.9632,167.5891 c 1.241447,-5.71682 2.080917,-7.38921 5.114535,-10.18915 9.07611,-8.37699 17.526273,-17.50751 20.885965,-22.56757 l 1.3875,-2.08972 2.32951,1.58194 c 3.22954,2.19314 7.3938,4.10036 11.10086,5.08417 5.57667,1.47997 14.08611,1.05855 21.0169,-1.04086 0.77381,-0.2344 5.32085,5.24767 8.95988,10.80234 3.19955,4.88385 6.75662,12.25139 8.04127,16.65535 5.45619,18.70471 -6.57292,34.7949 -29.78834,39.84499 -4.74021,1.03114 -15.2609,1.3169 -19.41765,0.52741 z"
       id="path9124" />
    <path
       style="fill:#ffcc00;stroke:#000000;stroke-width:0.39189"
       d="m 49.289396,163.89681 c -10.637681,-4.37444 -18.228909,-14.93399 -21.585517,-30.0259 -4.592138,-20.64707 0.21538,-34.48446 13.530573,-38.944798 5.795729,-1.94146 17.636841,-2.27776 27.695232,-0.786573 3.846637,0.570275 22.523256,5.077304 24.876845,6.003261 l 1.105946,0.43511 -0.322165,4.60367 c -0.413025,5.90205 -0.268053,9.88168 0.467506,12.83337 0.762211,3.05867 3.273508,8.10566 5.264944,10.58105 2.76161,3.43272 2.75606,3.37509 0.59366,6.16817 -6.698528,8.65218 -16.938611,18.87446 -22.848672,22.80895 -4.791904,3.1901 -11.311426,6.30536 -14.341065,6.85267 -1.278939,0.23104 -4.541428,0.41589 -7.249974,0.41078 -4.273676,-0.008 -5.223718,-0.13229 -7.187313,-0.93976 z"
       id="path9126" />
    <path
       style="fill:#ffcc00;stroke:#000000;stroke-width:0.39189"
       d="M 91.720856,97.4482 C 90.319848,97.060154 83.891746,95.393455 77.436182,93.744427 61.44895,89.660595 59.345738,88.737313 53.500653,83.237051 49.922407,79.8699 47.458513,76.393832 46.176509,72.904133 44.915089,69.470463 44.925952,62.324096 46.198749,58.270983 48.294067,51.598634 52.150393,45.633574 58.38069,39.427655 66.51958,31.32061 76.087222,25.499444 84.467313,23.55597 c 3.628757,-0.841565 12.983924,-0.81394 15.875137,0.04688 12.09301,3.600531 19.73721,15.72585 23.10305,36.646323 0.79406,4.935464 1.97794,15.444631 1.97794,17.557869 0,1.735314 -0.76872,2.215274 -4.77506,2.981377 -4.59497,0.878658 -9.00658,2.412376 -11.91368,4.141852 -2.84473,1.692367 -6.77158,5.315595 -9.083876,8.381507 -2.51219,3.330956 -4.06597,4.918449 -4.773751,4.877332 -0.334914,-0.01944 -1.755211,-0.352866 -3.15622,-0.740908 z"
       id="path9128" />
    <path
       style="fill:#ffcc00;stroke:#000000;stroke-width:0.39189"
       d="m 154.58523,96.715384 c -1.82408,-3.122332 -6.58419,-8.219006 -9.56727,-10.243727 -4.58621,-3.11283 -10.20765,-5.357328 -14.43437,-5.763279 -2.04126,-0.196051 -2.53578,-0.384253 -2.78638,-1.060413 -0.16757,-0.452136 -0.51026,-3.290971 -0.76154,-6.308528 -0.25128,-3.017557 -0.91197,-9.101657 -1.4682,-13.520222 -1.19739,-9.511654 -1.11161,-11.913665 0.58075,-16.263456 1.83961,-4.728262 3.86131,-7.91325 7.11302,-11.20587 9.46764,-9.586758 24.61251,-9.921361 42.91161,-0.948067 7.84898,3.848889 12.96885,7.419977 18.22332,12.710686 9.09626,9.159 11.50405,16.841951 8.21888,26.225408 -1.21161,3.460742 -4.05196,7.27892 -9.38506,12.615986 -5.97647,5.98092 -7.83901,7.046591 -16.67149,9.538764 -5.95605,1.680556 -12.29817,3.759758 -17.90125,5.868752 l -2.54973,0.959717 z"
       id="path9130" />
    <path
       style="fill:#ffcc00;stroke:#000000;stroke-width:0.39189"
       d="m 179.64327,168.37941 c -3.2871,-0.86173 -10.05754,-3.97933 -14.23675,-6.55563 -7.79469,-4.80508 -12.77665,-9.31644 -18.12859,-16.41615 -1.64124,-2.17721 -3.71429,-4.80227 -4.60677,-5.83346 -0.89249,-1.03119 -1.47906,-1.99675 -1.30349,-2.14568 0.17558,-0.14893 1.28915,-0.94736 2.47462,-1.77428 6.59827,-4.6026 11.25863,-11.07379 13.14295,-18.24976 0.7412,-2.82272 0.94586,-8.8649 0.44425,-13.11627 l -0.32492,-2.75384 1.50059,-0.7196 c 5.23504,-2.510454 17.7081,-6.41883 23.83835,-7.46964 4.39719,-0.75374 12.47445,-0.773589 15.93962,-0.03917 7.23566,1.533546 12.58946,6.532368 15.09833,14.09725 0.96299,2.90365 1.04996,3.68517 1.05004,9.4361 7e-5,4.97997 -0.17661,7.08979 -0.85863,10.25285 -1.90747,8.84655 -4.96773,17.7813 -8.51434,24.85857 -4.93885,9.85549 -10.55172,15.11257 -17.76858,16.64229 -3.33426,0.70674 -4.34208,0.67896 -7.74668,-0.21358 z"
       id="path9132" />
    <path
       style="fill:#ffeeaa;stroke:#000000;stroke-width:0.39189"
       d="m 121.70048,138.93832 c -10.76006,-1.55171 -19.22616,-7.80297 -23.90197,-17.64889 -2.711216,-5.70905 -2.826413,-14.60248 -0.267051,-20.6169 3.123051,-7.339066 9.009511,-13.15801 16.721141,-16.529364 l 3.13708,-1.371462 7.05403,-0.150946 c 8.35663,-0.17882 10.57055,0.158253 14.8616,2.262698 8.07709,3.961221 13.3877,10.099734 15.94919,18.435604 1.06921,3.47952 1.25318,9.84202 0.38527,13.32428 -1.30923,5.25295 -4.47467,10.37821 -8.98246,14.54381 -4.88167,4.51108 -10.14153,6.9204 -16.98019,7.77789 -3.66047,0.45899 -4.63114,0.45574 -7.97664,-0.0267 z"
       id="path9134" />
  </g>
</svg>
