<?xml version="1.0" encoding="UTF-8" standalone="no"?>
<svg
   xmlns:dc="http://purl.org/dc/elements/1.1/"
   xmlns:cc="http://creativecommons.org/ns#"
   xmlns:rdf="http://www.w3.org/1999/02/22-rdf-syntax-ns#"
   xmlns:svg="http://www.w3.org/2000/svg"
   xmlns="http://www.w3.org/2000/svg"
   xmlns:sodipodi="http://sodipodi.sourceforge.net/DTD/sodipodi-0.dtd"
   xmlns:inkscape="http://www.inkscape.org/namespaces/inkscape"
   version="1.1"
   id="svg9735"
   width="848"
   height="758.66669"
   viewBox="0 0 848 758.66669"
   sodipodi:docname="pot.svg"
   inkscape:version="1.0.1 (3bc2e813f5, 2020-09-07)">
  <metadata
     id="metadata9741">
    <rdf:RDF>
      <cc:Work
         rdf:about="">
        <dc:format>image/svg+xml</dc:format>
        <dc:type
           rdf:resource="http://purl.org/dc/dcmitype/StillImage" />
        <dc:title></dc:title>
      </cc:Work>
    </rdf:RDF>
  </metadata>
  <defs
     id="defs9739" />
  <sodipodi:namedview
     pagecolor="#ffffff"
     bordercolor="#666666"
     borderopacity="1"
     objecttolerance="10"
     gridtolerance="10"
     guidetolerance="10"
     inkscape:pageopacity="0"
     inkscape:pageshadow="2"
     inkscape:window-width="1920"
     inkscape:window-height="1001"
     id="namedview9737"
     showgrid="false"
     inkscape:zoom="0.7735922"
     inkscape:cx="418.64882"
     inkscape:cy="422.56036"
     inkscape:window-x="-9"
     inkscape:window-y="-9"
     inkscape:window-maximized="1"
     inkscape:current-layer="g9743" />
  <g
     inkscape:groupmode="layer"
     inkscape:label="Image"
     id="g9743">
    <path
       style="fill:#000000;stroke-width:1.15854"
       d="M 230.66615,718.02082 C 217.37158,714.61849 206.12258,704.03297 197.84708,687.13741 179.98146,650.66238 145.2693,486.5674 119.63998,317.42864 l -4.73989,-31.28053 -5.44107,-4.55936 C 72.279416,250.43407 51.715166,196.48343 49.364856,123.93078 l -0.71379,-22.03421 4.12808,-3.624503 C 69.746026,83.374947 146.7549,72.25445 281.85356,65.192487 c 38.91222,-2.034045 229.88889,-2.033349 268.78087,9.79e-4 135.57754,7.091672 213.05317,18.334581 228.82086,33.205431 l 4.04533,3.815233 -0.003,12.60712 c -0.0116,36.14714 -7.55825,78.63289 -19.05305,107.2605 -10.02353,24.96339 -22.48425,43.03706 -39.79783,57.7248 l -6.14134,5.20994 -8.56571,50.96223 c -23.49431,139.77802 -45.89081,247.77442 -65.94902,318.00528 -9.51073,33.30042 -17.81468,48.59787 -31.48668,58.00445 -11.39889,7.84266 3.93766,7.25915 -195.35084,7.43247 -147.65044,0.12842 -181.50708,-0.12577 -186.48652,-1.4001 z m 369.09513,-5.00133 c 11.30603,-3.49206 20.99034,-12.87145 27.92533,-27.04599 13.87215,-28.3536 39.46451,-136.79737 63.59867,-269.48984 7.97879,-43.86833 21.5445,-123.63682 21.5445,-126.68499 0,-1.59448 -0.49282,-1.54388 -3.76525,0.3866 -5.62501,3.31832 -18.71843,8.01642 -27.38155,9.8249 -41.61144,8.68663 -220.01038,14.3296 -349.43302,11.05299 -91.16542,-2.30804 -155.95774,-6.11679 -178.99415,-10.52197 -8.68944,-1.66166 -20.28151,-5.44949 -27.05121,-8.83929 -3.09004,-1.54727 -5.77752,-2.64784 -5.97218,-2.4457 -0.46662,0.48456 8.18689,56.17249 15.62959,100.58108 16.66303,99.42383 34.88021,188.91876 49.8243,244.77011 12.17667,45.50853 17.38125,57.63679 29.6644,69.12707 13.4848,12.61436 -5.48048,11.51188 199.32306,11.58699 175.49281,0.0644 177.50738,0.0393 185.08751,-2.30196 z M 511.24413,306.4202 c 106.83115,-2.95442 158.22339,-6.92375 179.92675,-13.89683 47.46644,-15.25051 77.54799,-66.23898 85.98628,-145.74742 0.92647,-8.72958 1.69008,-19.8201 1.69689,-24.6456 l 0.0124,-8.77363 -6.81739,3.27203 C 735.09757,134.36376 582.37677,147.69265 416.24397,147.68209 244.59148,147.67119 88.675686,133.57223 57.386756,115.23184 l -3.76525,-2.20705 v 10.68451 c 0,34.91085 10.66033,82.2173 24.96797,110.79823 18.61872,37.19273 44.122014,56.73543 81.617554,62.542 25.62688,3.96858 91.53772,7.65543 174.36,9.75316 33.30473,0.84355 140.75541,0.61092 176.67709,-0.38249 z m -1.15854,-164.51429 c 133.37646,-4.2783 232.15859,-15.60665 260.57644,-29.88292 8.30969,-4.17454 9.52085,-6.21478 5.9474,-10.01854 C 764.96093,89.605187 686.94157,77.367974 580.75642,71.285219 485.62352,65.835585 346.96225,65.835012 251.73156,71.283819 150.96463,77.049434 79.364026,87.597857 58.545306,99.744627 c -10.90438,6.362203 -3.15681,12.424883 24.87593,19.466093 45.528164,11.43567 139.769384,20.11726 250.566534,23.08244 31.71522,0.84877 145.3551,0.59885 176.09782,-0.38729 z"
       id="path10308" />
    <path
       style="fill:#c87137;stroke:#000000;stroke-width:1.29267"
       d="m 242.19927,713.38188 c -7.10969,-0.54093 -14.38097,-1.56353 -16.15839,-2.27244 -6.20981,-2.47673 -19.25061,-17.71498 -24.04993,-28.10248 C 191.04446,659.31472 171.45715,579.10569 153.63809,485.0045 140.43494,415.27955 120.1619,292.74237 121.59276,291.31151 c 0.35038,-0.35038 4.01493,0.8568 8.14345,2.68263 18.38998,8.13292 43.7123,11.28046 118.92641,14.78241 127.67638,5.94459 291.00839,4.57945 390.31306,-3.26227 37.9428,-2.9962 49.02345,-5.09705 65.13843,-12.35004 l 8.1874,-3.68497 -0.8401,5.46185 c -0.46206,3.00402 -4.61609,27.56652 -9.23119,54.58334 -28.84865,168.88037 -58.32414,300.18647 -75.43269,336.03421 -5.25743,11.01595 -13.97254,20.42877 -23.03488,24.879 l -7.3716,3.61994 -170.63254,0.15388 c -93.8479,0.0847 -176.44956,-0.28868 -183.55924,-0.82961 z"
       id="path10310" />
    <path
       style="fill:#c87137;stroke:#000000;stroke-width:1.29267"
       d="m 304.24746,305.42889 c -4.97678,-0.23321 -24.17294,-1.04708 -42.65813,-1.80858 C 192.95031,300.79272 157.97194,297.29785 141.12536,291.58414 97.552774,276.806 70.033464,234.30285 58.005773,163.2072 c -2.689657,-15.89856 -4.964768,-48.30248 -3.391365,-48.30248 0.493311,0 3.208665,1.17936 6.034118,2.6208 38.854491,19.82208 241.710574,34.2758 419.714984,29.90516 153.73895,-3.77484 255.97469,-14.4287 293.00273,-30.53344 l 5.04999,-2.19641 -0.77309,15.29082 c -1.86414,36.86992 -10.35869,74.07499 -22.96215,100.57129 -16.24346,34.14865 -40.48065,55.61957 -71.33949,63.19723 -15.72702,3.8619 -46.09093,6.68888 -107.63318,10.021 -23.53294,1.27415 -250.08722,2.64929 -271.46086,1.64772 z"
       id="path10312" />
    <path
       style="fill:#a05a2c;stroke:#000000;stroke-width:1.29267"
       d="M 301.66212,140.66514 C 211.18092,137.0401 128.62062,128.96994 90.310453,120.00579 65.850941,114.28255 53.172231,108.52604 54.931091,103.94252 55.331039,102.90028 58.785728,100.568 62.608177,98.759695 91.408494,85.134964 182.40134,74.145428 303.60113,69.654102 c 44.22821,-1.638974 180.60195,-1.629368 225.57104,0.01589 130.04729,4.757963 232.55232,18.369821 245.98136,32.664378 3.41814,3.63845 2.6106,4.91465 -5.79109,9.15206 -26.76229,13.49763 -119.66816,24.5725 -245.36095,29.24832 -39.47686,1.46856 -185.08448,1.42297 -222.33937,-0.0696 z"
       id="path10314" />
    <path
       style="fill:#a05a2c;stroke:#000000;stroke-width:1.29267"
       d="m 287.44274,303.59944 c -74.29881,-3.20287 -113.50591,-6.22503 -133.6473,-10.30182 -23.50725,-4.75806 -44.28683,-18.15071 -59.650006,-38.44499 -20.681055,-27.31904 -35.10058,-73.9392 -38.251008,-123.67036 -0.854838,-13.49406 -0.787237,-14.06565 1.572514,-13.29618 1.356162,0.44223 6.552671,2.24936 11.547796,4.01586 44.877174,15.87057 186.817074,27.01716 344.463404,27.05082 165.01345,0.0352 300.53625,-10.61906 351.19915,-27.60998 6.26724,-2.10186 11.6261,-3.82857 11.90854,-3.83715 0.91621,-0.0278 -1.19371,27.40607 -3.18019,41.34988 -3.75987,26.3921 -12.55242,56.47968 -21.95652,75.13392 -13.86059,27.49423 -38.78528,49.87174 -63.71361,57.20237 -15.66262,4.60589 -58.18141,8.72974 -113.9662,11.05346 -40.34843,1.68073 -255.18152,2.69677 -286.32657,1.35417 z"
       id="path10316" />
    <path
       style="fill:#a05a2c;stroke:#000000;stroke-width:1.29267"
       d="m 264.70915,712.19879 -35.66029,-0.72652 -5.05883,-3.55522 c -6.06875,-4.26496 -12.18959,-11.4741 -18.18515,-21.4185 -16.79762,-27.86101 -51.91182,-190.25587 -78.59296,-363.47384 -1.80695,-11.73099 -3.61882,-23.29819 -4.02637,-25.7049 -0.83747,-4.94547 -1.44741,-4.93299 11.44442,-0.23418 4.11312,1.49914 11.51587,3.57503 16.45056,4.61307 54.81135,11.52993 319.00494,15.58175 459.5299,7.04762 51.67145,-3.13802 74.90702,-6.46561 90.40386,-12.9468 4.93107,-2.06231 9.0898,-3.61531 9.2416,-3.45111 0.3448,0.37295 -2.57628,17.84616 -12.4758,74.6271 -28.00399,160.62344 -55.19787,280.6996 -71.57822,316.058 -5.33065,11.50663 -13.96316,21.04918 -23.77067,26.27652 l -7.6947,4.10124 -147.18353,-0.24298 c -80.95094,-0.13365 -163.23066,-0.56993 -182.84382,-0.9695 z"
       id="path10318" />
    <path
       style="fill:#502d16;stroke:#000000;stroke-width:1.29267"
       d="m 321.69852,139.88447 c -69.32269,-1.49704 -162.61934,-9.14683 -210.95975,-17.29748 -28.862566,-4.8665 -54.037757,-12.99376 -54.037757,-17.4449 0,-6.416487 38.75112,-16.313344 87.901607,-22.449669 80.76115,-10.082842 167.05924,-13.703568 301.19229,-12.636835 85.36258,0.678871 110.08062,1.432199 158.35216,4.826076 99.2065,6.975013 167.17112,19.075645 170.88856,30.425528 0.25042,0.76459 -2.85158,3.0094 -6.89335,4.98846 -28.02509,13.72255 -126.63698,25.19087 -250.60415,29.14466 -34.91379,1.11353 -152.49477,1.38021 -195.83961,0.44416 z"
       id="path10320" />
  </g>
</svg>
