<?xml version="1.0" encoding="UTF-8" standalone="no"?>
<svg
   xmlns:dc="http://purl.org/dc/elements/1.1/"
   xmlns:cc="http://creativecommons.org/ns#"
   xmlns:rdf="http://www.w3.org/1999/02/22-rdf-syntax-ns#"
   xmlns:svg="http://www.w3.org/2000/svg"
   xmlns="http://www.w3.org/2000/svg"
   xmlns:sodipodi="http://sodipodi.sourceforge.net/DTD/sodipodi-0.dtd"
   xmlns:inkscape="http://www.inkscape.org/namespaces/inkscape"
   version="1.1"
   id="svg9136"
   width="256"
   height="256"
   viewBox="0 0 256 256"
   sodipodi:docname="worm.svg"
   inkscape:version="1.0.1 (3bc2e813f5, 2020-09-07)">
  <metadata
     id="metadata9142">
    <rdf:RDF>
      <cc:Work
         rdf:about="">
        <dc:format>image/svg+xml</dc:format>
        <dc:type
           rdf:resource="http://purl.org/dc/dcmitype/StillImage" />
        <dc:title></dc:title>
      </cc:Work>
    </rdf:RDF>
  </metadata>
  <defs
     id="defs9140" />
  <sodipodi:namedview
     pagecolor="#ffffff"
     bordercolor="#666666"
     borderopacity="1"
     objecttolerance="10"
     gridtolerance="10"
     guidetolerance="10"
     inkscape:pageopacity="0"
     inkscape:pageshadow="2"
     inkscape:window-width="1920"
     inkscape:window-height="1001"
     id="namedview9138"
     showgrid="false"
     inkscape:zoom="3.2421875"
     inkscape:cx="153.28765"
     inkscape:cy="134.05919"
     inkscape:window-x="-9"
     inkscape:window-y="-9"
     inkscape:window-maximized="1"
     inkscape:current-layer="g9144" />
  <g
     inkscape:groupmode="layer"
     inkscape:label="Image"
     id="g9144">
    <path
       style="fill:#000000;stroke-width:0.295703"
       d="m 152.82626,177.89504 c -4.93733,-0.56779 -11.11615,-2.56241 -15.60745,-5.03832 -6.67626,-3.68042 -13.42697,-10.44254 -17.06773,-17.09658 -4.06091,-7.42191 -6.75674,-10.77783 -10.83683,-13.49027 -4.45816,-2.96378 -8.6104,-4.11142 -14.002227,-3.87008 -6.493269,0.29065 -11.349583,2.49583 -15.83825,7.1919 -2.451101,2.56436 -3.301389,3.82959 -5.559357,8.27241 -4.242479,8.34758 -7.683257,12.70764 -13.469867,17.06865 -2.218177,1.67171 -7.629536,4.1981 -10.670785,4.98185 -2.549464,0.65701 -3.121247,0.68584 -13.60234,0.68584 -12.295995,0 -11.999714,0.0456 -14.465106,-2.2269 -3.281285,-3.02458 -4.215416,-8.8159 -2.096476,-12.99743 0.871811,-1.72044 3.113424,-3.75252 4.554351,-4.12865 0.586423,-0.15308 4.659008,-0.42497 9.050196,-0.60422 9.964443,-0.40675 11.190091,-0.58649 14.270618,-2.09275 4.296539,-2.10086 6.941035,-5.34294 10.138433,-12.42946 2.244235,-4.97402 4.017226,-7.9236 7.013035,-11.66708 6.609431,-8.25894 15.458508,-13.66797 25.685854,-15.70058 3.560446,-0.70762 11.037371,-0.70696 14.843241,10e-4 10.10512,1.88055 19.32805,7.44173 26.38913,15.91193 2.00988,2.41098 5.04986,7.04674 6.92997,10.56773 2.48426,4.65245 6.49548,8.3861 10.86597,10.11408 1.86974,0.73925 5.39883,1.44793 7.21038,1.44793 3.6707,0 8.63738,-1.77739 11.65408,-4.17055 3.26362,-2.58904 4.87611,-4.78218 7.78016,-10.58175 6.54885,-13.07851 17.77329,-23.08765 31.22412,-27.84342 l 3.08865,-1.09203 0.31924,-1.5988 c 1.2713,-6.36668 8.25251,-9.304453 13.63901,-5.73944 1.65472,1.09516 3.26022,3.25609 3.54433,4.77049 0.15446,0.82335 0.4379,1.09656 1.85357,1.7867 0.91917,0.44811 2.41243,1.55512 3.31838,2.46003 5.06709,5.06141 5.25301,13.21338 0.42384,18.58457 -2.64682,2.94391 -5.64376,4.27084 -10.43026,4.61814 -8.35466,0.6062 -16.24061,4.67873 -21.36778,11.03494 -1.19303,1.479 -2.81379,4.07291 -4.13975,6.62536 -3.36804,6.48353 -5.82774,9.98675 -9.7322,13.86112 -9.47592,9.40291 -22.04817,13.86258 -34.91015,12.38347 z m 15.25468,-5.4566 c 1.44943,-0.41456 3.83295,-1.3359 5.29668,-2.04741 3.06177,-1.48829 3.99793,-2.55937 4.21544,-4.82294 0.17863,-1.85915 -0.33738,-3.01051 -2.48036,-5.53437 -0.96322,-1.13441 -2.12129,-2.56279 -2.5735,-3.17419 -0.98874,-1.33675 -2.73789,-2.28896 -4.2047,-2.28896 -0.59109,0 -2.49258,0.47817 -4.22556,1.06262 -5.96017,2.01003 -6.40813,2.63995 -6.39413,8.99128 0.01,4.65757 0.31267,5.7659 2.00365,7.34385 1.80125,1.68086 3.747,1.79025 8.36248,0.47012 z M 47.659741,171.87031 c 1.307318,-0.62037 1.926528,-1.44977 2.160981,-2.89453 0.140515,-0.8659 -0.101389,-1.53575 -1.488912,-4.12246 -2.464737,-4.59499 -2.729847,-4.74995 -7.428723,-4.34195 -2.338294,0.20305 -3.489298,0.44694 -4.324574,0.91639 -3.369619,1.89384 -3.948285,6.95469 -1.099087,9.61233 1.484849,1.38502 2.466222,1.59451 6.909438,1.47491 3.210815,-0.0864 4.401229,-0.23202 5.270877,-0.64469 z M 151.26824,171.0608 c 1.33065,-1.2857 1.51271,-2.13707 1.50279,-7.02773 -0.0127,-6.22907 -0.40116,-6.9564 -4.57088,-8.55696 -1.32458,-0.50845 -3.2168,-1.44698 -4.20491,-2.08563 -2.79057,-1.80364 -3.44822,-2.07265 -5.06703,-2.07265 -1.99046,0 -2.69903,0.41112 -5.24937,3.04567 -4.64264,4.79594 -4.44961,7.53875 0.81383,11.56366 3.63282,2.77798 8.53913,5.34297 11.83197,6.18567 2.05257,0.52529 3.66662,0.18181 4.9436,-1.05203 z m -123.114179,0.57296 c 0.653866,-0.65388 0.67539,-0.83161 0.581757,-4.80517 -0.05343,-2.2694 -0.09899,-4.22598 -0.101062,-4.34797 -0.0022,-0.12197 -0.269929,-0.4879 -0.595207,-0.81318 -1.290602,-1.2906 -3.634173,-0.34417 -4.724387,1.90791 -1.27217,2.62795 -0.404959,6.59885 1.762884,8.07207 1.248221,0.84826 2.218363,0.84396 3.075971,-0.0137 z m 33.925302,-7.89097 c 4.550647,-4.6114 4.79359,-6.29201 1.368359,-9.46612 -2.257433,-2.09194 -2.732501,-2.34427 -4.437556,-2.35694 -1.365235,-0.01 -1.493535,0.0683 -4.139844,2.53131 -3.963362,3.68886 -4.152277,4.36157 -2.260809,8.05065 1.392123,2.71516 2.472155,3.87796 3.866899,4.16322 2.027351,0.41463 2.610037,0.11074 5.602951,-2.92212 z m 124.976407,-4.19213 c 1.82855,-1.1301 6.28086,-8.55558 6.2832,-10.47902 0.001,-1.05933 -0.19175,-1.33701 -2.34434,-3.37216 -1.29017,-1.21977 -3.22758,-3.28153 -4.30535,-4.58169 -2.05719,-2.48165 -2.81671,-3.07883 -3.93778,-3.09611 -1.46535,-0.0226 -2.38987,0.82005 -3.64718,3.32414 -0.67151,1.33737 -1.88732,3.47177 -2.70181,4.7431 -1.28377,2.00383 -1.48392,2.52094 -1.50364,3.88484 -0.0193,1.3386 0.13917,1.8172 1.06252,3.20786 1.84639,2.78085 4.97538,6.15572 6.26753,6.76 1.47056,0.68773 3.32447,0.53757 4.82685,-0.39096 z m -59.25321,-6.60882 c 0.51684,-0.24526 2.2551,-1.76626 3.8628,-3.38002 2.87457,-2.8854 2.92529,-2.96057 3.0553,-4.52837 0.11516,-1.38867 0.007,-1.82033 -0.84327,-3.34722 -2.66988,-4.79778 -6.39222,-9.67282 -8.02226,-10.5065 -1.51591,-0.7753 -3.82645,-0.74014 -5.28649,0.0804 -1.94487,1.09307 -4.99184,6.07077 -4.99807,8.16512 -0.004,1.4323 0.64684,2.74944 2.42455,4.90465 0.87348,1.05895 2.41742,3.3175 3.43097,5.01899 1.53796,2.58184 2.0252,3.16929 2.94523,3.55099 1.41303,0.58622 2.26233,0.5966 3.43124,0.042 z m -57.409837,-2.99645 c 0.443777,-0.22574 1.291224,-1.1736 1.88323,-2.10639 0.591995,-0.93277 1.530889,-2.25622 2.086425,-2.94098 1.350868,-1.66508 1.972635,-3.22466 1.773886,-4.44942 -0.161623,-0.99599 -2.433128,-4.32699 -3.867577,-5.67156 -0.591,-0.55396 -1.182689,-0.75061 -2.557822,-0.85008 l -1.788964,-0.1294 -1.385786,1.44667 c -1.355958,1.41553 -4.216181,6.48674 -4.610607,8.17463 -0.363616,1.55612 0.296238,2.95934 2.293455,4.87717 1.034614,0.99349 2.266228,1.89186 2.736904,1.99639 0.470677,0.10456 0.988847,0.2331 1.151475,0.28573 0.38727,0.1253 1.282167,-0.12247 2.285381,-0.63276 z m 126.776247,-7.6883 c 1.11214,-0.22243 7.33933,-5.83835 7.90946,-7.13307 0.59032,-1.34058 0.4401,-2.19947 -0.84219,-4.81531 -0.67383,-1.37459 -1.66742,-3.69685 -2.20797,-5.16058 -1.33977,-3.62793 -2.42621,-4.54053 -5.14227,-4.31953 -1.10089,0.0896 -3.62497,1.92268 -6.73573,4.89179 -3.13351,2.99084 -3.61387,3.73427 -3.61387,5.5931 0,1.45858 0.84123,2.91276 3.70348,6.40201 2.20823,2.69194 3.74397,4.12204 4.74941,4.42271 1.13629,0.3398 1.08816,0.33718 2.17968,0.11888 z M 87.694254,135.4718 c 4.354118,-1.45152 4.961354,-1.80913 5.58866,-3.29123 0.484672,-1.14511 0.554345,-7.95326 0.09822,-9.59552 -0.368248,-1.32583 -1.989689,-2.81177 -3.345779,-3.06617 -2.032387,-0.38128 -10.669922,3.14726 -13.007625,5.31377 -1.708803,1.58366 -2.143971,4.18133 -1.044305,6.23392 1.099446,2.05218 3.212825,4.5643 4.341257,5.16033 1.635044,0.86359 2.904045,0.73358 7.369582,-0.7551 z m 23.071896,-0.0719 c 1.05828,-0.75356 4.74153,-6.18059 5.30536,-7.81709 0.43298,-1.25677 0.15192,-2.94095 -0.71043,-4.25708 -0.95509,-1.45764 -8.28101,-4.23953 -11.16454,-4.23953 -1.69163,0 -3.65461,1.08791 -4.73779,2.62577 -0.812583,1.15369 -0.888888,1.48411 -0.993151,4.3006 -0.215301,5.81637 0.862349,7.53849 5.764781,9.21226 3.34579,1.14232 5.111,1.18961 6.53577,0.17507 z m 106.14558,-4.77903 c 1.48469,-0.32404 4.10645,-0.71134 5.82613,-0.86066 3.3814,-0.29362 4.80876,-0.80449 6.76567,-2.42156 0.85029,-0.70261 1.10312,-1.11259 1.03496,-1.67818 -0.11189,-0.92841 -0.36491,-1.05685 -3.51815,-1.78598 -2.40707,-0.55659 -7.32442,-2.56203 -7.02246,-2.86398 0.0775,-0.0775 1.12977,0.0692 2.33856,0.32571 2.85436,0.60582 7.63295,0.44459 9.22074,-0.31111 0.95553,-0.45479 1.10888,-0.66472 1.10888,-1.51795 0,-0.5446 -0.28626,-1.75528 -0.63613,-2.69041 -0.88589,-2.36777 -2.84027,-4.22028 -5.47593,-5.19053 l -2.01977,-0.74353 -0.49486,-2.00654 c -0.69649,-2.82407 -1.90989,-4.02483 -4.26451,-4.22009 -3.27415,-0.27152 -4.87761,1.4072 -5.13983,5.38106 l -0.1547,2.3443 -1.77421,0.50354 c -3.6022,1.02234 -5.18889,2.116 -6.3065,4.34691 -1.01671,2.0295 -1.01889,2.58419 -0.0215,5.48877 1.8665,5.43611 3.15153,7.27478 5.62298,8.04549 1.72259,0.53721 1.79337,0.53511 4.91072,-0.14526 z m 1.63705,-19.05981 c -1.31917,-0.58927 -2.04961,-2.15518 -1.68194,-3.60569 0.35932,-1.41756 1.56756,-2.31022 3.12694,-2.31022 0.98049,0 1.35736,0.17568 2.05724,0.95898 2.28684,2.55942 -0.38951,6.34742 -3.50224,4.95693 z m 3.10235,-2.76299 c 0.48462,-0.6165 0.46626,-0.97473 -0.0907,-1.7699 -0.8641,-1.23367 -2.79242,-0.56139 -2.79242,0.97352 0,1.42146 1.96505,1.96425 2.88311,0.79638 z"
       id="path9709" />
    <path
       style="fill:#c87137;stroke:#000000;stroke-width:0.308434"
       d="m 182.90047,160.0487 c -0.98554,-0.18399 -4.71478,-3.97719 -6.40633,-6.51623 -1.87007,-2.80698 -1.8368,-4.1564 0.18628,-7.55575 0.82168,-1.38067 1.99084,-3.41606 2.59812,-4.5231 2.39044,-4.35763 3.74607,-4.37588 7.37731,-0.0993 1.1304,1.33129 3.03728,3.38837 4.23751,4.57129 1.73775,1.71269 2.18224,2.33858 2.18224,3.07283 0,1.22089 -2.08691,5.35923 -4.02592,7.98337 -2.03531,2.75446 -3.61157,3.54062 -6.14921,3.06689 z"
       id="path9711" />
    <path
       style="fill:#c87137;stroke:#000000;stroke-width:0.308434"
       d="m 161.05039,172.58561 c -0.76506,-0.38852 -1.68777,-1.20997 -2.15903,-1.9221 -0.80422,-1.21525 -0.82299,-1.35441 -0.82299,-6.10135 0,-4.3951 0.0598,-4.94067 0.6278,-5.72855 0.80767,-1.12029 3.97418,-2.67499 7.21482,-3.54234 3.56948,-0.95537 4.34605,-0.65692 7.35258,2.82575 3.46827,4.01752 4.08191,5.06187 4.08191,6.94702 0,2.20308 -0.85004,3.35998 -3.53547,4.81179 -2.69336,1.4561 -7.1503,2.94402 -9.57296,3.19588 -1.54354,0.16046 -2.07229,0.0798 -3.18666,-0.4861 z"
       id="path9713" />
    <path
       style="fill:#c87137;stroke:#000000;stroke-width:0.308434"
       d="m 195.33797,142.02885 c -1.18229,-0.31837 -3.03219,-2.07367 -5.64749,-5.3587 -4.09393,-5.1423 -4.05766,-6.08261 0.4043,-10.48453 4.01333,-3.95931 5.69116,-5.08065 7.60205,-5.08065 1.55244,0 2.42076,0.56739 3.21306,2.09953 1.46211,2.82742 4.19463,9.78459 4.19463,10.67983 0,1.24111 -1.79442,3.36761 -5.1768,6.13485 -2.46808,2.01921 -3.26254,2.36707 -4.58975,2.00967 z"
       id="path9715" />
    <path
       style="fill:#c87137;stroke:#000000;stroke-width:0.308434"
       d="m 146.35471,171.96519 c -3.45675,-0.83581 -10.98246,-5.2089 -13.78223,-8.00866 -2.89768,-2.89768 -2.66506,-5.18286 0.9138,-8.97663 2.8529,-3.02423 3.49985,-3.42811 5.49122,-3.42811 1.36747,0 1.97992,0.19521 3.44018,1.09653 0.97709,0.6031 3.38873,1.86866 5.35919,2.81235 4.51766,2.1636 4.63786,2.36105 4.80911,7.89972 0.14916,4.82433 -0.23854,6.52301 -1.7658,7.73673 -1.25552,0.99777 -2.73754,1.28587 -4.46547,0.86807 z"
       id="path9717" />
    <path
       style="fill:#c87137;stroke:#000000;stroke-width:0.308434"
       d="m 124.73813,152.88538 c -0.83316,-0.33731 -1.87168,-1.62292 -4.49424,-5.56354 -1.18543,-1.78121 -2.62798,-3.90655 -3.20568,-4.72299 -1.65338,-2.33666 -1.68064,-3.20046 -0.19562,-6.19735 1.49643,-3.01994 3.62958,-5.21948 5.38047,-5.54795 1.36879,-0.25678 3.24057,0.20144 4.33301,1.06076 1.11019,0.87327 4.76181,5.81213 6.48405,8.76975 2.3522,4.03945 2.03062,5.49424 -2.05389,9.29154 -3.36176,3.12538 -4.4564,3.63516 -6.2481,2.90978 z"
       id="path9719" />
    <path
       style="fill:#c87137;stroke:#000000;stroke-width:0.308434"
       d="m 104.62308,135.12914 c -2.74219,-0.93415 -4.36117,-1.96984 -5.160273,-3.30114 -0.485269,-0.80845 -0.627075,-1.71873 -0.718148,-4.60991 -0.103798,-3.29514 -0.05354,-3.70919 0.588988,-4.85241 0.386358,-0.68744 1.268163,-1.634 1.959563,-2.10349 1.03772,-0.70465 1.58003,-0.85106 3.10769,-0.83902 2.08843,0.0165 5.08351,0.9002 8.36641,2.46864 1.77386,0.84748 2.30114,1.2679 2.73387,2.17981 0.95664,2.01596 0.5512,3.63158 -1.79618,7.15763 -1.12686,1.69267 -2.47746,3.43825 -3.00134,3.87906 -1.24154,1.04469 -3.05678,1.05091 -6.08058,0.0208 z"
       id="path9721" />
    <path
       style="fill:#c87137;stroke:#000000;stroke-width:0.308434"
       d="m 80.286674,135.92577 c -1.187699,-0.7242 -3.370502,-3.41209 -4.145807,-5.10514 -1.218868,-2.66165 -0.374368,-5.05507 2.412723,-6.83795 2.000173,-1.27949 6.492579,-3.21482 9.221033,-3.97241 1.7758,-0.49307 1.942427,-0.49219 3.013303,0.016 0.623457,0.29585 1.443114,0.97188 1.82146,1.50229 0.641177,0.89888 0.687901,1.29216 0.687901,5.79015 0,4.389 -0.05583,4.88854 -0.616867,5.51923 -0.787361,0.88513 -3.082545,1.90759 -6.517457,2.9034 -3.244415,0.94059 -4.56805,0.98214 -5.876289,0.18445 z"
       id="path9723" />
    <path
       style="fill:#c87137;stroke:#000000;stroke-width:0.308434"
       d="m 67.234637,150.18684 c -2.048951,-0.7557 -5.243607,-4.36589 -5.24313,-5.92511 4.7e-4,-1.53737 3.054153,-7.12545 5.027539,-9.20013 1.041558,-1.09503 2.341197,-1.30454 4.159738,-0.67059 1.60127,0.5582 4.68889,4.9718 4.690844,6.70532 0.0014,1.29554 -0.213258,1.69201 -2.980666,5.50372 -2.55078,3.51334 -3.765044,4.2836 -5.654325,3.58679 z"
       id="path9725" />
    <path
       style="fill:#c87137;stroke:#000000;stroke-width:0.308434"
       d="m 56.74789,166.55204 c -1.897519,-0.62513 -3.788086,-2.979 -4.772074,-5.94151 -0.676208,-2.03587 -0.337973,-2.75104 2.658756,-5.62164 2.957705,-2.83323 3.7136,-3.21478 5.445135,-2.74853 1.629827,0.43887 5.131358,3.76053 5.436987,5.15769 0.307124,1.404 -0.643129,3.06743 -3.401808,5.95491 -2.694589,2.82039 -4.055033,3.63131 -5.366996,3.19908 z"
       id="path9727" />
    <path
       style="fill:#c87137;stroke:#000000;stroke-width:0.308434"
       d="m 37.156613,171.88989 c -4.324537,-1.95279 -4.284174,-8.51425 0.06421,-10.43774 1.741455,-0.77033 6.453829,-1.11956 7.767043,-0.57561 1.032724,0.42777 1.92999,1.66187 3.556376,4.89144 1.233433,2.44927 1.324039,3.06875 0.641801,4.38805 -0.841816,1.62789 -1.973303,1.97309 -6.780321,2.06854 -3.14149,0.0624 -4.57176,-0.0288 -5.249108,-0.33468 z"
       id="path9729" />
    <path
       style="fill:#c87137;stroke:#000000;stroke-width:0.308434"
       d="m 24.834828,171.03849 c -2.810218,-2.4674 -2.469349,-7.73931 0.607543,-9.39633 1.002509,-0.53988 1.1653,-0.54982 1.934998,-0.11817 1.00494,0.56359 1.24602,1.7371 1.280189,6.23158 0.01987,2.61422 -0.05776,3.08785 -0.594006,3.6241 -0.879309,0.87931 -1.969922,0.76406 -3.228724,-0.34118 z"
       id="path9731" />
    <path
       style="fill:#c87137;stroke:#000000;stroke-width:0.308434"
       d="m 211.70345,130.38631 c -0.69637,-0.31625 -1.57632,-0.90308 -1.95543,-1.30407 -1.65125,-1.74653 -4.26482,-8.51491 -3.88457,-10.05992 0.37184,-1.51088 1.71414,-3.46411 2.93651,-4.27304 0.65663,-0.43453 2.2104,-1.112 3.45283,-1.50549 l 2.25896,-0.71542 0.23423,-2.0738 c 0.33175,-2.93712 1.16905,-4.6803 2.51903,-5.24435 1.40182,-0.58572 2.7586,-0.57332 4.04471,0.037 1.29917,0.6165 1.98202,1.64702 2.61548,3.9471 l 0.49976,1.81463 1.9657,0.78646 c 2.61797,1.04744 4.63557,3.0216 5.50716,5.38862 0.85646,2.32593 0.82932,2.86861 -0.17645,3.52831 -0.69063,0.45299 -1.52456,0.54687 -4.85784,0.54687 -2.21324,0 -4.69851,-0.11488 -5.52282,-0.25528 -3.67927,-0.62667 0.65544,1.66566 5.72817,3.02924 1.47799,0.39729 2.83124,0.81134 3.00723,0.92011 0.60737,0.37537 0.31693,1.34281 -0.64651,2.15349 -1.86706,1.57103 -3.2433,2.03119 -7.92141,2.6486 -2.49093,0.32875 -5.01384,0.73763 -5.60646,0.90862 -1.56744,0.45225 -2.76551,0.37301 -4.19828,-0.27766 z m 10.38865,-19.43593 c 1.25606,-1.25606 1.25827,-3.00755 0.006,-4.40958 -0.7486,-0.83784 -1.10275,-0.9974 -2.15257,-0.96988 -2.44187,0.064 -3.86619,2.01549 -3.1204,4.27526 0.46435,1.40698 1.36676,2.00578 3.02279,2.00578 1.07318,0 1.52421,-0.18116 2.24463,-0.90158 z"
       id="path9733" />
  </g>
</svg>
